<?xml version="1.0" encoding="utf-8"?>
<!-- Generator: Adobe Illustrator 17.0.0, SVG Export Plug-In . SVG Version: 6.00 Build 0)  -->
<!DOCTYPE svg PUBLIC "-//W3C//DTD SVG 1.1//EN" "http://www.w3.org/Graphics/SVG/1.1/DTD/svg11.dtd">
<svg version="1.1" id="Capa_1" xmlns="http://www.w3.org/2000/svg" xmlns:xlink="http://www.w3.org/1999/xlink" x="0px" y="0px"
	 width="386.5px" height="283px" viewBox="-1.5 -63 386.5 283" style="enable-background:new -1.5 -63 386.5 283;"
	 xml:space="preserve">
<style type="text/css">
	.st0{fill:url(#SVGID_1_);}
	.st1{fill:url(#SVGID_2_);}
	.st2{fill:#331B0D;}
</style>
<g>
	
		<radialGradient id="SVGID_1_" cx="352.1407" cy="-66.5112" r="68.403" gradientTransform="matrix(1 0 0 -1 -156 34)" gradientUnits="userSpaceOnUse">
		<stop  offset="0" style="stop-color:#000000"/>
		<stop  offset="1" style="stop-color:#000000;stop-opacity:0"/>
	</radialGradient>
	<circle class="st0" cx="196.141" cy="100.511" r="68.403"/>
	
		<radialGradient id="SVGID_2_" cx="352.1407" cy="-66.5113" r="51.488" gradientTransform="matrix(1 0 0 -1 -156 34)" gradientUnits="userSpaceOnUse">
		<stop  offset="0" style="stop-color:#000000"/>
		<stop  offset="1" style="stop-color:#000000;stop-opacity:0"/>
	</radialGradient>
	<circle class="st1" cx="196.141" cy="100.511" r="51.488"/>
</g>
<g>
	<path class="st2" d="M85.221,78.394c0.822-1.644,1.464-3.413,2.496-4.913c6.43-9.337,14.691-16.887,23.394-24.049
		c8.83-7.266,18.134-13.638,29.35-16.545c6.026-1.562,12.114-3.158,18.275-3.858c7.537-0.857,15.188-0.666,22.774-1.159
		c7.347-0.477,13.73,1.636,20.027,5.432c6.222,3.75,11.004,8.45,12.596,15.444c1.489,6.541,2.14,13.315-1.083,19.76
		c-5.998,11.993-15.373,21.215-24.799,30.405c-0.984,0.959-1.935,1.953-2.88,2.949c-0.13,0.138-0.143,0.387-0.085,0.216
		c4.988,3.068,10.07,5.842,14.736,9.193c2.86,2.054,5.223,4.873,7.564,7.562c4.981,5.719,8.809,12.296,10.489,19.608
		c2.939,12.792,1.977,25.305-5.911,36.431c-8.439,11.902-18.288,22.548-29.464,31.941c-9.264,7.786-20.212,10.925-32.071,10.953
		c-6.109,0.015-12.608,0.455-18.241-1.396c-9.373-3.079-18.629-7.098-27.149-12.067c-15.577-9.082-30.257-19.724-45.953-28.576
		c-8.801-4.963-18.431-9.052-29.023-9.377c-7.271-0.223-14.533-0.72-21.804-0.934c-2.17-0.064-4.357,0.413-7.178,0.709
		c0.516-1.466,0.717-2.798,1.387-3.822c6.687-10.22,15.068-18.835,25.142-25.725c1.459-0.998,3.563-1.416,5.385-1.461
		c10.165-0.251,20.335-0.304,30.402,1.513c1.245,0.225,2.516,0.407,3.707,0.808c11.126,3.752,21.853,8.257,31.698,14.864
		c11.648,7.817,23.319,15.693,35.559,22.503c8.791,4.892,18.275,8.995,27.939,11.7c6.378,1.785,13.624,0.469,20.482,0.532
		c0.205,0.002,0.409-0.108,0.616-0.15c6.195-1.252,5.923-1.266,6.262-7.802c0.691-13.31-4.919-23.975-13.747-33.165
		c-11.702-12.182-26.241-17.969-43.112-17.947c-2.966,0.004-5.963-0.282-8.889,0.059c-3.208,0.373-6.362,1.263-9.514,2.033
		c-1.793,0.438-3.536,1.085-5.798,1.793c0.328-4.753,3.013-7.618,5.441-10.279c5.196-5.695,10.574-11.28,16.356-16.368
		c5.674-4.993,12.517-7.844,20.278-7.637c7.901,0.211,15.901-1.013,23.663,1.625c0.732,0.249,2.045-0.329,2.712-0.936
		c2.429-2.21,4.74-4.556,6.999-6.942c0.6-0.634,1.146-1.569,1.225-2.411c1.16-12.394-2.979-20.475-14.263-26.687
		c-6.246-3.439-12.43-3.962-19.113-4.068c-11.612-0.183-23.067,0.791-34.236,4.029c-6.894,1.999-13.779,3.982-18.974,9.642
		c-2.311,2.518-5.485,4.306-8.449,6.131c-1.298,0.799-3.051,0.861-4.597,1.257C85.636,78.94,85.428,78.667,85.221,78.394z"/>
	<path class="st2" d="M243.926,82.394c2.312,7.405,8.548,10.237,14.438,13.583c8.914,5.064,18.482,4.146,27.828,2.739
		c11.693-1.76,23.166-4.967,34.851-6.802c13.848-2.175,27.84-3.066,41.485,1.427c8.618,2.838,15.025,8.462,18.277,17.05
		c3.691,9.746,2.111,19.091-2.842,28.087c-7.64,13.874-17.294,26.084-29.059,36.725c-9.275,8.389-18.96,16.101-31.009,19.98
		c-4.975,1.602-10.285,2.355-15.505,2.955c-5.861,0.674-11.864,1.478-17.677,0.908c-10.77-1.055-20.929-4.055-28.097-13.222
		c-5.732-7.33-7.168-19.091-1.935-26.506c6.533-9.258,14.224-17.344,23.269-24.137c1.252-0.94,2.827-1.451,5.029-2.548
		c-0.3,1.875-0.278,2.83-0.609,3.642c-3.721,9.123-0.138,16.477,5.916,22.931c5.802,6.184,13.807,8.584,21.746,9.366
		c11.607,1.143,23.118-0.655,34.435-3.881c6.269-1.787,7.676-6.633,8.593-11.648c0.961-5.258,0.32-10.819-2.261-15.5
		c-3.616-6.559-8.814-11.691-16.35-14c-14.828-4.543-29.705-3.186-44.565-0.474c-10.08,1.84-20.024,4.535-30.154,5.949
		c-6.959,0.971-14.375,1.591-21.151,0.217c-8.428-1.709-16.179-6.046-21.801-13.1c-1.626-2.041-2.536-4.391-0.865-6.978
		c6.571-10.169,14.877-18.659,24.755-25.629c0.513-0.362,1.108-0.629,1.696-0.86C242.742,82.519,243.177,82.517,243.926,82.394z"/>
	<path class="st2" d="M232.324-17.096c-0.217,6.309,3.863,9.416,7.386,11.781c6.96,4.673,14.426,8.804,22.145,12.06
		c5.135,2.166,11.03,2.952,16.662,3.425c9.138,0.767,18.339,0.902,27.517,1.066c15.293,0.272,28.839-4.943,41.257-13.544
		c2.96-2.05,5.977-4.023,9.042-5.911c1.117-0.688,2.45-1.023,3.685-1.519c0.276,0.217,0.552,0.433,0.828,0.65
		c-0.797,1.686-1.371,3.528-2.426,5.033c-6.741,9.619-14.965,17.793-24.445,24.725c-11.191,8.183-23.008,15.231-36.589,18.56
		c-5.609,1.375-11.476,1.947-17.261,2.296c-6.337,0.382-12.751,0.506-19.067-0.025c-7.317-0.615-14.6-1.873-21.834-3.198
		c-10.172-1.863-18.691-7.501-27.191-12.909c-3.186-2.027-6.086-4.985-8.113-8.159c-1.074-1.682-0.703-5.078,0.27-7.095
		c1.579-3.272,3.859-6.374,6.431-8.965c5.58-5.622,11.489-10.921,17.371-16.233C228.998-15.964,230.535-16.28,232.324-17.096z"/>
	<path class="st2" d="M278.092-5.912c0.302-0.986,1.004-2.055,0.82-2.94c-0.367-1.764-0.722-4.088-1.958-5.022
		c-6.867-5.194-13.99-10.051-21.042-14.999c-2.256-1.583-2.91-3.3-1.216-5.818c6.628-9.851,14.734-18.237,24.393-25.137
		c1.821-1.301,3.105-1.039,4.962,0.402c5.141,3.989,10.583,7.592,15.923,11.323c2.41,1.684,4.942,3.204,7.265,4.998
		c1.892,1.461,2.3,6.271,0.529,9.24c-2.049,3.435-4.199,6.947-6.957,9.793c-5.658,5.84-11.702,11.312-17.708,16.803
		c-1.139,1.041-2.84,1.468-4.282,2.179C278.578-5.364,278.335-5.638,278.092-5.912z"/>
</g>
</svg>
