<?xml version="1.0" encoding="utf-8"?>
<!-- Generator: Adobe Illustrator 17.0.0, SVG Export Plug-In . SVG Version: 6.00 Build 0)  -->
<!DOCTYPE svg PUBLIC "-//W3C//DTD SVG 1.1//EN" "http://www.w3.org/Graphics/SVG/1.1/DTD/svg11.dtd">
<svg version="1.1" id="Capa_1" xmlns="http://www.w3.org/2000/svg" xmlns:xlink="http://www.w3.org/1999/xlink" x="0px" y="0px"
	 width="300px" height="300px" viewBox="0 0 300 300" style="enable-background:new 0 0 300 300;" xml:space="preserve">
<style type="text/css">
	.st0{fill:#AAAAAA;}
</style>
<g>
	<g>
		<path class="st0" d="M299.195,159.147c0.032-0.116,0.07-0.231,0.093-0.347c0.051-0.256,0.116-0.861,0.121-0.891
			c0.143-0.958-0.068-1.746-0.251-2.288c-0.195-0.543-0.411-0.843-0.411-0.843l-0.112-0.122l-1.543-1.637l-1.709-1.76
			c-0.127-0.129-0.257-0.254-0.378-0.387c-0.208-0.23-0.445-0.592-0.438-0.913c0.002-0.097,0.027-0.247,0.013-0.276l-0.037,0.001
			c-0.031,0.129-0.075,0.256-0.09,0.386c-0.041,0.353-0.014,2.19,0.011,2.376c0.043,0.323,0.089,0.651,0.257,0.931
			c0.063,0.105,0.132,0.208,0.216,0.296l1.092,1.144c0.47,0.517-0.172-0.227,2.648,2.858c0.044,0.05,0.506,0.582,0.47,1.287
			c0.011,0.049-0.018,0.146,0.005,0.191L299.195,159.147z"/>
		<path class="st0" d="M298.836,163.874c0.032-0.115,0.07-0.229,0.093-0.345c0.051-0.255,0.117-0.859,0.121-0.889
			c0.276-1.916-0.531-3.149-0.531-3.149l-0.106-0.125l-1.46-1.683c-0.524-0.61-1.126-1.216-1.685-1.813
			c-0.127-0.133-0.257-0.262-0.377-0.4c-0.208-0.236-0.444-0.606-0.438-0.927c0.002-0.097,0.027-0.246,0.013-0.276l-0.037,0
			c-0.031,0.128-0.075,0.254-0.09,0.383c-0.041,0.352-0.012,2.191,0.012,2.378c0.035,0.324,0.059,0.653,0.215,0.937
			c0.057,0.106,0.122,0.212,0.201,0.303l1.034,1.176c0.452,0.527-0.178-0.208,2.522,2.938c0.044,0.052,0.505,0.6,0.468,1.305
			c0.011,0.049-0.018,0.146,0.005,0.191L298.836,163.874z"/>
	</g>
	<g>
		<path class="st0" d="M297.652,173.28c0.043-0.112,0.093-0.223,0.127-0.336c0.085-0.248,0.191-0.847,0.191-0.877
			c0.372-1.898-0.37-3.181-0.37-3.181l-0.1-0.132l-1.371-1.774l-1.524-1.911c-0.113-0.14-0.23-0.277-0.337-0.421
			c-0.18-0.248-0.409-0.633-0.383-0.953c0.007-0.096,0.039-0.244,0.027-0.275l-0.037-0.002c-0.037,0.126-0.088,0.249-0.109,0.377
			c-0.028,0.353-0.205,2.18-0.196,2.367c0.01,0.325,0.023,0.656,0.162,0.95c0.052,0.11,0.111,0.219,0.185,0.315l0.972,1.241
			c0.424,0.556-0.167-0.219,2.366,3.096c0.039,0.054,0.485,0.633,0.367,1.329c0.006,0.05-0.033,0.143-0.014,0.19L297.652,173.28z"/>
		<path class="st0" d="M296.819,177.948c0.043-0.111,0.093-0.222,0.127-0.334c0.077-0.248,0.203-0.843,0.21-0.873
			c0.467-1.879-0.213-3.182-0.213-3.182l-0.093-0.134c-0.434-0.61-0.84-1.212-1.309-1.815l-1.517-1.966
			c-0.113-0.144-0.229-0.285-0.336-0.433c-0.183-0.255-0.381-0.645-0.343-0.963c0.012-0.096,0.052-0.242,0.041-0.273l-0.036-0.003
			c-0.044,0.124-0.1,0.245-0.128,0.372c-0.076,0.347-0.234,2.178-0.228,2.366c0.01,0.327,0.023,0.659,0.161,0.959
			c0.052,0.112,0.101,0.222,0.172,0.32l0.911,1.268c0.398,0.567-0.157-0.224,2.216,3.162c0.039,0.056,0.443,0.644,0.335,1.343
			c0.006,0.05-0.033,0.143-0.014,0.191L296.819,177.948z"/>
	</g>
	<g>
		<path class="st0" d="M294.768,187.205c0.055-0.107,0.114-0.213,0.153-0.324c0.089-0.244,0.245-0.831,0.253-0.861
			c0.561-1.852-0.05-3.199-0.05-3.199l-0.086-0.14l-1.188-1.895c-0.445-0.69-0.871-1.368-1.338-2.048
			c-0.105-0.151-0.214-0.3-0.312-0.454c-0.169-0.266-0.347-0.669-0.293-0.985c0.016-0.095,0.064-0.239,0.055-0.271l-0.036-0.006
			c-0.05,0.121-0.112,0.239-0.147,0.365c-0.047,0.171-0.132,0.712-0.207,1.234c-0.084,0.52-0.185,1.015-0.188,1.109
			c-0.023,0.324-0.042,0.654,0.066,0.96c0.041,0.114,0.088,0.229,0.153,0.331l0.843,1.327c0.367,0.593-0.145-0.234,2.046,3.305
			c0.036,0.058,0.408,0.673,0.264,1.365c0.001,0.05-0.047,0.139-0.033,0.188L294.768,187.205z"/>
		<path class="st0" d="M293.473,191.767c0.054-0.106,0.114-0.211,0.16-0.32c0.101-0.24,0.286-0.819,0.296-0.848
			c0.652-1.824,0.105-3.185,0.105-3.185l-0.08-0.143c-0.354-0.643-0.765-1.298-1.154-1.939l-1.314-2.1
			c-0.098-0.154-0.2-0.305-0.291-0.463c-0.157-0.271-0.315-0.678-0.245-0.991c0.021-0.094,0.076-0.236,0.068-0.268l-0.036-0.007
			c-0.056,0.119-0.125,0.234-0.165,0.358c-0.111,0.337-0.451,2.143-0.464,2.331c-0.023,0.326-0.043,0.657,0.065,0.969
			c0.04,0.116,0.087,0.233,0.151,0.338c0.283,0.455,0.542,0.901,0.802,1.353c0.34,0.602-0.134-0.237,1.892,3.356
			c0.033,0.059,0.377,0.683,0.2,1.367c0.001,0.05-0.047,0.139-0.033,0.188L293.473,191.767z"/>
	</g>
	<g>
		<path class="st0" d="M290.548,200.787c0.059-0.103,0.124-0.205,0.175-0.311c0.113-0.234,0.326-0.803,0.338-0.831
			c0.742-1.788,0.267-3.186,0.267-3.186l-0.072-0.148l-0.996-1.998c-0.363-0.726-0.744-1.447-1.156-2.173
			c-0.089-0.161-0.183-0.319-0.266-0.482c-0.142-0.281-0.279-0.699-0.194-1.008c0.026-0.093,0.087-0.231,0.082-0.264l-0.035-0.009
			c-0.062,0.116-0.136,0.227-0.182,0.348c-0.135,0.328-0.539,2.124-0.599,2.299c-0.055,0.32-0.107,0.646-0.029,0.961
			c0.029,0.118,0.065,0.236,0.119,0.344l0.709,1.4c0.307,0.625-0.121-0.247,1.711,3.483c0.03,0.061,0.34,0.708,0.129,1.383
			c-0.002,0.051-0.054,0.136-0.043,0.187L290.548,200.787z"/>
		<path class="st0" d="M288.823,205.203c0.064-0.101,0.135-0.199,0.191-0.303c0.124-0.229,0.365-0.787,0.378-0.815
			c0.829-1.751,0.418-3.157,0.418-3.157l-0.066-0.15l-0.979-2.046l-1.101-2.214c-0.082-0.163-0.169-0.323-0.244-0.488
			c-0.129-0.284-0.247-0.704-0.146-1.008c0.03-0.092,0.099-0.227,0.095-0.26l-0.035-0.01c-0.067,0.113-0.147,0.221-0.2,0.34
			c-0.144,0.325-0.662,2.088-0.693,2.273c-0.055,0.322-0.108,0.65-0.031,0.97c0.029,0.12,0.064,0.24,0.117,0.35
			c0.224,0.475,0.477,0.957,0.687,1.43c0.279,0.631-0.11-0.249,1.555,3.519c0.027,0.062,0.308,0.716,0.064,1.379
			c-0.004,0.05-0.061,0.134-0.052,0.184L288.823,205.203z"/>
	</g>
	<g>
		<path class="st0" d="M285.044,213.899c0.069-0.097,0.144-0.192,0.205-0.292c0.135-0.222,0.403-0.768,0.418-0.794
			c0.914-1.706,0.577-3.142,0.577-3.142l-0.057-0.154l-0.796-2.083c-0.285-0.754-0.63-1.524-0.956-2.279
			c-0.073-0.168-0.151-0.334-0.217-0.505c-0.114-0.293-0.21-0.722-0.094-1.021c0.035-0.09,0.11-0.222,0.107-0.255l-0.034-0.012
			c-0.073,0.109-0.158,0.212-0.216,0.329c-0.16,0.317-0.762,2.054-0.806,2.236c-0.086,0.313-0.17,0.632-0.123,0.953
			c0.018,0.12,0.042,0.241,0.085,0.353l0.569,1.46c0.245,0.651-0.097-0.257,1.364,3.628c0.024,0.064,0.269,0.737-0.007,1.388
			c-0.007,0.05-0.067,0.131-0.061,0.181L285.044,213.899z"/>
		<path class="st0" d="M282.91,218.132c0.074-0.094,0.153-0.185,0.22-0.283c0.146-0.215,0.44-0.748,0.456-0.774
			c0.497-0.829,0.68-1.607,0.736-2.174c0.062-0.565-0.022-0.93-0.022-0.93l-0.056-0.157l-0.775-2.129l-0.88-2.308
			c-0.066-0.17-0.137-0.337-0.195-0.509c-0.101-0.295-0.177-0.724-0.047-1.017c0.039-0.088,0.121-0.216,0.12-0.249l-0.034-0.014
			c-0.078,0.106-0.168,0.206-0.233,0.319c-0.175,0.309-0.863,2.012-0.913,2.193c-0.086,0.315-0.171,0.636-0.126,0.961
			c0.017,0.122,0.04,0.245,0.082,0.36l0.554,1.493c0.222,0.662-0.073-0.281,1.21,3.651c0.021,0.064,0.237,0.741-0.07,1.377
			c-0.009,0.05-0.073,0.127-0.069,0.178L282.91,218.132z"/>
	</g>
	<g>
		<path class="st0" d="M278.315,226.425c0.078-0.09,0.162-0.177,0.233-0.271c0.156-0.208,0.476-0.725,0.493-0.75
			c1.075-1.61,0.879-3.07,0.879-3.07l-0.042-0.159l-0.592-2.148c-0.223-0.784-0.493-1.583-0.743-2.365
			c-0.057-0.174-0.118-0.347-0.167-0.523c-0.085-0.302-0.138-0.738,0.006-1.024c0.044-0.086,0.131-0.21,0.132-0.243l-0.033-0.016
			c-0.083,0.102-0.178,0.196-0.247,0.306c-0.189,0.3-0.96,1.969-1.019,2.148c-0.095,0.314-0.225,0.616-0.204,0.942
			c0.006,0.121,0.019,0.243,0.051,0.36l0.425,1.507c0.181,0.671-0.071-0.265,1.008,3.739c0.017,0.066,0.197,0.759-0.141,1.38
			c-0.011,0.049-0.079,0.123-0.078,0.175L278.315,226.425z"/>
		<path class="st0" d="M275.791,230.438c0.082-0.086,0.171-0.17,0.246-0.26c0.166-0.2,0.51-0.702,0.529-0.726
			c0.575-0.777,0.831-1.534,0.942-2.092c0.118-0.555,0.058-0.933,0.058-0.933l-0.04-0.162l-0.566-2.192l-0.653-2.38
			c-0.049-0.175-0.103-0.349-0.145-0.525c-0.072-0.303-0.106-0.737,0.052-1.016c0.048-0.084,0.141-0.204,0.143-0.237l-0.033-0.017
			c-0.088,0.098-0.188,0.188-0.263,0.295c-0.204,0.291-1.055,1.919-1.122,2.094c-0.116,0.305-0.232,0.616-0.219,0.944
			c0.005,0.123,0.017,0.247,0.047,0.366l0.408,1.538c0.167,0.686-0.035-0.28,0.863,3.753c0.015,0.066,0.165,0.76-0.202,1.363
			c-0.014,0.049-0.085,0.12-0.086,0.17L275.791,230.438z"/>
	</g>
	<g>
		<path class="st0" d="M270.427,238.255c0.086-0.082,0.178-0.161,0.258-0.248c0.175-0.192,0.543-0.676,0.563-0.699
			c1.225-1.499,1.169-2.971,1.169-2.971l-0.027-0.162l-0.383-2.194l-0.52-2.428c-0.04-0.179-0.084-0.357-0.117-0.536
			c-0.055-0.309-0.067-0.747,0.104-1.018c0.052-0.082,0.151-0.196,0.154-0.229l-0.031-0.019c-0.093,0.093-0.196,0.178-0.276,0.281
			c-0.218,0.28-1.146,1.867-1.222,2.039c-0.126,0.303-0.269,0.601-0.286,0.922c-0.006,0.121-0.005,0.244,0.016,0.363l0.279,1.54
			c0.116,0.685-0.046-0.27,0.645,3.816c0.011,0.067,0.123,0.774-0.273,1.359c-0.016,0.048-0.091,0.115-0.095,0.166L270.427,238.255z
			"/>
		<path class="st0" d="M267.537,242.012c0.09-0.078,0.186-0.153,0.27-0.236c0.184-0.184,0.575-0.65,0.596-0.672
			c0.647-0.719,0.974-1.447,1.138-1.992c0.159-0.549,0.141-0.927,0.141-0.927l-0.024-0.165l-0.354-2.234l-0.423-2.43
			c-0.032-0.179-0.069-0.357-0.094-0.536c-0.043-0.308-0.035-0.743,0.149-1.006c0.056-0.079,0.16-0.189,0.165-0.222l-0.031-0.02
			c-0.097,0.089-0.205,0.17-0.29,0.269c-0.231,0.27-1.235,1.809-1.318,1.977c-0.145,0.292-0.29,0.591-0.308,0.918
			c-0.007,0.122-0.007,0.248,0.012,0.368l0.259,1.569c0.099,0.696,0.002-0.274,0.508,3.821c0.008,0.067,0.092,0.772-0.332,1.337
			c-0.018,0.047-0.096,0.111-0.102,0.161L267.537,242.012z"/>
	</g>
	<g>
		<path class="st0" d="M261.455,249.284c0.094-0.073,0.193-0.143,0.28-0.222c0.193-0.174,0.605-0.621,0.627-0.642
			c1.363-1.375,1.447-2.845,1.447-2.845l-0.011-0.164l-0.175-2.221l-0.289-2.468c-0.022-0.182-0.05-0.363-0.065-0.544
			c-0.026-0.313,0.005-0.75,0.201-1.003c0.059-0.076,0.169-0.181,0.176-0.214l-0.03-0.022c-0.101,0.084-0.212,0.159-0.301,0.254
			c-0.243,0.258-1.32,1.749-1.411,1.913c-0.158,0.287-0.318,0.579-0.368,0.895c-0.017,0.12-0.028,0.242-0.019,0.362l0.131,1.559
			c0.05,0.692-0.02-0.273,0.279,3.858c0.005,0.068,0.049,0.782-0.401,1.326c-0.021,0.046-0.101,0.106-0.11,0.156L261.455,249.284z"
			/>
		<path class="st0" d="M258.224,252.752c0.097-0.069,0.2-0.134,0.291-0.209c0.201-0.165,0.635-0.592,0.657-0.612
			c0.713-0.654,1.108-1.347,1.322-1.874c0.202-0.539,0.224-0.913,0.224-0.913l-0.009-0.166l-0.14-2.257l-0.19-2.458
			c-0.015-0.181-0.035-0.361-0.043-0.542c-0.013-0.311,0.036-0.743,0.244-0.987c0.063-0.073,0.178-0.173,0.186-0.205l-0.029-0.023
			c-0.105,0.079-0.22,0.149-0.314,0.24c-0.256,0.247-1.402,1.683-1.501,1.842c-0.172,0.277-0.345,0.56-0.395,0.885
			c-0.019,0.121-0.031,0.246-0.023,0.368l0.108,1.586c0.028,0.699,0.034-0.267,0.147,3.854c0.002,0.067,0.018,0.777-0.457,1.299
			c-0.023,0.045-0.106,0.101-0.117,0.151L258.224,252.752z"/>
	</g>
	<g>
		<path class="st0" d="M251.481,259.415c0.1-0.064,0.205-0.124,0.3-0.194c0.209-0.155,0.662-0.56,0.685-0.58
			c1.487-1.239,1.711-2.694,1.711-2.694l0.004-0.164c0.013-0.748,0.037-1.482,0.033-2.23l-0.054-2.484
			c-0.005-0.183-0.015-0.366-0.013-0.548c0.004-0.314,0.076-0.746,0.296-0.979c0.066-0.07,0.185-0.164,0.195-0.196l-0.027-0.024
			c-0.109,0.074-0.226,0.138-0.324,0.224c-0.267,0.234-1.481,1.615-1.587,1.77c-0.188,0.267-0.367,0.55-0.448,0.859
			c-0.028,0.117-0.051,0.238-0.053,0.359l-0.017,1.564c-0.016,0.694,0.006-0.274-0.088,3.866c-0.002,0.068-0.025,0.783-0.525,1.282
			c-0.025,0.044-0.111,0.096-0.124,0.145L251.481,259.415z"/>
		<path class="st0" d="M247.938,262.563c0.104-0.06,0.212-0.115,0.31-0.18c0.216-0.145,0.688-0.529,0.712-0.547
			c0.771-0.584,1.232-1.234,1.494-1.741c0.247-0.523,0.307-0.89,0.307-0.89l0.007-0.166l0.075-2.259l0.044-2.464
			c0.002-0.181-0.001-0.363,0.009-0.543c0.017-0.311,0.106-0.736,0.337-0.959c0.07-0.067,0.193-0.155,0.205-0.186l-0.027-0.025
			c-0.112,0.069-0.233,0.128-0.336,0.209c-0.278,0.221-1.556,1.542-1.67,1.691c-0.198,0.259-0.397,0.525-0.477,0.843
			c-0.03,0.119-0.054,0.242-0.058,0.364l-0.043,1.588c-0.041,0.695,0.063-0.258-0.216,3.853c-0.004,0.067-0.056,0.775-0.579,1.25
			c-0.027,0.043-0.116,0.091-0.131,0.139L247.938,262.563z"/>
	</g>
	<g>
		<path class="st0" d="M240.595,268.558c0.106-0.054,0.216-0.104,0.317-0.165c0.222-0.134,0.712-0.495,0.737-0.512
			c1.599-1.092,1.96-2.518,1.96-2.518l0.02-0.163c0.083-0.745,0.181-1.467,0.241-2.22l0.182-2.477
			c0.012-0.182,0.02-0.365,0.039-0.546c0.034-0.312,0.146-0.735,0.387-0.946c0.073-0.064,0.2-0.146,0.213-0.176l-0.025-0.027
			c-0.115,0.063-0.238,0.116-0.344,0.192c-0.288,0.207-1.628,1.466-1.749,1.61c-0.212,0.248-0.418,0.512-0.524,0.817
			c-0.039,0.114-0.073,0.232-0.087,0.352l-0.165,1.554c-0.082,0.689,0.032-0.272-0.454,3.839c-0.008,0.067-0.099,0.776-0.645,1.226
			c-0.029,0.041-0.12,0.085-0.138,0.133L240.595,268.558z"/>
		<path class="st0" d="M236.77,271.359c0.109-0.049,0.222-0.094,0.326-0.15c0.229-0.124,0.736-0.461,0.762-0.476
			c0.822-0.509,1.348-1.106,1.649-1.595c0.296-0.497,0.39-0.857,0.39-0.857l0.023-0.165l0.289-2.241l0.278-2.448
			c0.019-0.18,0.034-0.361,0.06-0.54c0.046-0.308,0.176-0.722,0.427-0.922c0.076-0.06,0.207-0.136,0.221-0.166l-0.024-0.028
			c-0.119,0.058-0.245,0.105-0.354,0.176c-0.298,0.194-1.696,1.386-1.823,1.524c-0.222,0.239-0.445,0.484-0.555,0.793
			c-0.041,0.115-0.077,0.235-0.092,0.356l-0.193,1.576c-0.11,0.683,0.092-0.245-0.578,3.819c-0.011,0.067-0.129,0.766-0.695,1.188
			c-0.031,0.04-0.124,0.079-0.144,0.126L236.77,271.359z"/>
	</g>
	<g>
		<path class="st0" d="M228.89,276.629c0.111-0.044,0.225-0.083,0.332-0.134c0.234-0.112,0.756-0.424,0.783-0.439
			c1.696-0.934,2.192-2.318,2.192-2.318l0.035-0.16c0.152-0.735,0.322-1.438,0.447-2.192l0.417-2.447
			c0.03-0.18,0.054-0.362,0.091-0.54c0.063-0.307,0.216-0.717,0.476-0.905c0.078-0.057,0.213-0.126,0.229-0.155l-0.022-0.029
			c-0.121,0.052-0.248,0.092-0.361,0.158c-0.307,0.179-1.76,1.304-1.894,1.436c-0.233,0.229-0.469,0.464-0.596,0.768
			c-0.05,0.11-0.095,0.224-0.12,0.342l-0.313,1.531c-0.147,0.677,0.058-0.267-0.818,3.776c-0.015,0.066-0.173,0.763-0.759,1.158
			c-0.033,0.038-0.127,0.073-0.15,0.119L228.89,276.629z"/>
		<path class="st0" d="M224.819,279.056c0.113-0.039,0.23-0.072,0.339-0.118c0.24-0.101,0.777-0.388,0.804-0.401
			c1.754-0.831,2.261-2.251,2.261-2.251l0.038-0.162l0.501-2.202l0.51-2.409c0.036-0.178,0.068-0.356,0.111-0.531
			c0.075-0.302,0.244-0.702,0.512-0.877c0.081-0.053,0.219-0.116,0.236-0.144l-0.021-0.03c-0.124,0.046-0.254,0.081-0.369,0.141
			c-0.315,0.164-1.821,1.217-1.961,1.342c-0.244,0.217-0.489,0.439-0.628,0.736c-0.052,0.111-0.099,0.227-0.126,0.346l-0.342,1.55
			c-0.077,0.341-0.062,0.274-0.143,0.629c-0.078,0.366-0.255,1.129-0.792,3.121c-0.017,0.065-0.202,0.749-0.805,1.116
			c-0.034,0.037-0.131,0.067-0.155,0.111L224.819,279.056z"/>
	</g>
	<g>
		<path class="st0" d="M216.471,283.55c0.115-0.033,0.232-0.06,0.343-0.101c0.244-0.089,0.794-0.349,0.822-0.361
			c1.779-0.766,2.404-2.095,2.404-2.095l0.051-0.156c0.226-0.709,0.453-1.409,0.65-2.145l0.648-2.395
			c0.047-0.177,0.088-0.355,0.142-0.529c0.092-0.299,0.283-0.693,0.56-0.855c0.084-0.049,0.224-0.105,0.243-0.132l-0.019-0.031
			c-0.125,0.04-0.256,0.068-0.375,0.123c-0.322,0.148-1.877,1.129-2.024,1.247c-0.254,0.205-0.511,0.416-0.666,0.707
			c-0.058,0.109-0.111,0.224-0.148,0.337l-0.457,1.492c-0.211,0.66,0.083-0.26-1.175,3.677c-0.021,0.065-0.245,0.742-0.866,1.079
			c-0.036,0.035-0.134,0.06-0.16,0.104L216.471,283.55z"/>
		<path class="st0" d="M212.188,285.581c0.116-0.028,0.236-0.049,0.348-0.085c0.249-0.078,0.811-0.311,0.839-0.321
			c0.904-0.343,1.539-0.82,1.916-1.265c0.385-0.431,0.546-0.766,0.546-0.766l0.054-0.157l0.709-2.142l0.738-2.347
			c0.053-0.173,0.102-0.348,0.162-0.518c0.104-0.293,0.31-0.675,0.594-0.823c0.086-0.045,0.229-0.094,0.249-0.12l-0.018-0.032
			c-0.128,0.034-0.26,0.056-0.381,0.105c-0.33,0.133-1.929,1.035-2.081,1.146c-0.263,0.192-0.529,0.39-0.696,0.672
			c-0.062,0.105-0.12,0.216-0.158,0.332l-0.489,1.509c-0.11,0.332-0.088,0.266-0.202,0.613c-0.115,0.352-0.354,1.114-1.083,3.038
			c-0.023,0.063-0.272,0.726-0.909,1.032c-0.038,0.033-0.137,0.054-0.165,0.096L212.188,285.581z"/>
	</g>
	<g>
		<path class="st0" d="M203.447,289.254c0.117-0.022,0.237-0.038,0.351-0.067c0.252-0.065,0.824-0.27,0.853-0.279
			c1.846-0.589,2.596-1.85,2.596-1.85l0.065-0.15c0.296-0.675,0.578-1.375,0.848-2.083l0.875-2.319
			c0.063-0.171,0.122-0.344,0.192-0.512c0.121-0.289,0.348-0.662,0.64-0.796c0.088-0.04,0.233-0.083,0.255-0.108l-0.016-0.033
			c-0.129,0.028-0.262,0.043-0.385,0.086c-0.335,0.117-1.978,0.941-2.135,1.044c-0.273,0.179-0.549,0.365-0.731,0.639
			c-0.068,0.103-0.132,0.211-0.177,0.325l-0.595,1.447c-0.273,0.636,0.108-0.251-1.523,3.543c-0.027,0.062-0.315,0.714-0.966,0.989
			c-0.04,0.031-0.139,0.047-0.17,0.088L203.447,289.254z"/>
		<path class="st0" d="M198.991,290.872c0.119-0.016,0.24-0.026,0.355-0.05c0.255-0.053,0.837-0.23,0.867-0.237
			c0.939-0.24,1.605-0.683,2.025-1.086c0.425-0.391,0.618-0.709,0.618-0.709l0.069-0.151l0.912-2.062l0.96-2.262
			c0.07-0.167,0.135-0.336,0.211-0.499c0.131-0.281,0.373-0.641,0.671-0.76c0.09-0.036,0.238-0.071,0.26-0.096l-0.015-0.033
			c-0.13,0.022-0.265,0.03-0.39,0.067c-0.341,0.1-2.021,0.842-2.182,0.937c-0.281,0.165-0.565,0.336-0.758,0.601
			c-0.072,0.099-0.14,0.203-0.189,0.315l-0.632,1.453c-0.141,0.319-0.113,0.256-0.26,0.59c-0.153,0.325-0.453,1.092-1.365,2.93
			c-0.029,0.061-0.341,0.695-1.005,0.937c-0.041,0.029-0.141,0.04-0.174,0.079L198.991,290.872z"/>
	</g>
	<g>
		<path class="st0" d="M189.936,293.685c0.119-0.01,0.24-0.014,0.356-0.032c0.257-0.04,0.847-0.187,0.877-0.194
			c1.895-0.404,2.764-1.584,2.764-1.584l0.079-0.143c0.359-0.646,0.699-1.34,1.039-2.007l1.095-2.221
			c0.08-0.164,0.155-0.33,0.24-0.49c0.148-0.275,0.411-0.624,0.714-0.729c0.091-0.032,0.24-0.059,0.264-0.083l-0.013-0.034
			c-0.131,0.015-0.265,0.017-0.392,0.048c-0.345,0.083-2.06,0.742-2.227,0.829c-0.289,0.152-0.582,0.309-0.79,0.564
			c-0.078,0.095-0.152,0.197-0.208,0.306c-0.239,0.478-0.477,0.947-0.726,1.399c-0.333,0.605,0.132-0.239-1.858,3.373
			c-0.033,0.059-0.383,0.679-1.058,0.888c-0.042,0.027-0.143,0.033-0.178,0.07L189.936,293.685z"/>
		<path class="st0" d="M185.348,294.876c0.12-0.004,0.241-0.002,0.359-0.015c0.259-0.027,0.856-0.145,0.886-0.15
			c0.96-0.137,1.654-0.56,2.115-0.902c0.461-0.347,0.684-0.644,0.684-0.644l0.083-0.144l1.107-1.961l1.174-2.155
			c0.085-0.159,0.166-0.321,0.258-0.476c0.158-0.267,0.433-0.601,0.741-0.69c0.093-0.027,0.243-0.047,0.268-0.069l-0.012-0.035
			c-0.132,0.009-0.266,0.004-0.395,0.028c-0.349,0.066-2.094,0.638-2.264,0.717c-0.295,0.137-0.595,0.279-0.812,0.523
			c-0.081,0.091-0.159,0.188-0.219,0.294l-0.769,1.383c-0.356,0.595,0.171-0.214-1.951,3.362c-0.035,0.057-0.407,0.657-1.091,0.832
			c-0.043,0.025-0.145,0.026-0.181,0.062L185.348,294.876z"/>
	</g>
	<g>
		<path class="st0" d="M176.065,296.801c0.119,0.002,0.24,0.01,0.358,0.003c0.26-0.014,0.862-0.102,0.892-0.105
			c0.961-0.106,1.691-0.432,2.176-0.73c0.486-0.296,0.728-0.576,0.728-0.576l0.092-0.14l1.225-1.908l1.304-2.1
			c0.095-0.155,0.186-0.313,0.287-0.464c0.174-0.259,0.469-0.58,0.781-0.654c0.094-0.022,0.245-0.035,0.271-0.056l-0.01-0.035
			c-0.132,0.002-0.265-0.009-0.395,0.008c-0.352,0.048-2.124,0.534-2.298,0.604c-0.303,0.122-0.609,0.249-0.841,0.482
			c-0.087,0.087-0.17,0.181-0.236,0.284l-0.852,1.346c-0.39,0.568,0.154-0.224-2.174,3.169c-0.038,0.056-0.446,0.637-1.139,0.778
			c-0.045,0.023-0.146,0.019-0.184,0.052L176.065,296.801z"/>
		<path class="st0" d="M171.385,297.56c0.12,0.008,0.24,0.022,0.359,0.021c0.261-0.001,0.867-0.059,0.897-0.061
			c1.926-0.187,2.931-1.291,2.931-1.291l0.096-0.135l1.29-1.839l1.376-2.026c0.1-0.15,0.197-0.303,0.303-0.447
			c0.182-0.254,0.491-0.543,0.802-0.623c0.094-0.022,0.245-0.035,0.271-0.056l-0.009-0.036c-0.131,0.002-0.263-0.01-0.392,0.008
			c-0.352,0.041-2.147,0.429-2.323,0.492c-0.307,0.107-0.619,0.218-0.859,0.439c-0.09,0.082-0.177,0.171-0.246,0.271l-0.899,1.298
			c-0.406,0.571,0.16-0.225-2.26,3.181c-0.04,0.053-0.468,0.613-1.166,0.719c-0.046,0.021-0.147,0.011-0.186,0.043L171.385,297.56z"
			/>
	</g>
	<g>
		<path class="st0" d="M161.961,298.583c0.119,0.014,0.238,0.034,0.356,0.039c0.26,0.012,0.868-0.015,0.898-0.015
			c0.967-0.011,1.725-0.255,2.236-0.512c0.509-0.274,0.776-0.535,0.776-0.535l0.105-0.13l1.402-1.774l1.499-1.957
			c0.11-0.145,0.215-0.293,0.33-0.432c0.198-0.24,0.523-0.53,0.84-0.572c0.096-0.013,0.248-0.01,0.275-0.029l-0.006-0.036
			c-0.131-0.011-0.264-0.036-0.394-0.031c-0.355,0.013-2.167,0.318-2.347,0.37c-0.313,0.091-0.631,0.187-0.884,0.396
			c-0.095,0.078-0.187,0.162-0.263,0.259l-0.978,1.253c-0.446,0.531,0.205-0.164-2.463,2.971c-0.044,0.051-0.505,0.589-1.208,0.659
			c-0.047,0.018-0.147,0.004-0.188,0.034L161.961,298.583z"/>
		<path class="st0" d="M157.232,298.913c0.118,0.02,0.237,0.046,0.355,0.057c0.26,0.034,0.867-0.008,0.897-0.004
			c1.934-0.017,3.04-1.001,3.04-1.001l0.109-0.124l1.46-1.699l1.563-1.876l0.344-0.418c0.205-0.241,0.537-0.532,0.855-0.574
			c0.096-0.013,0.247-0.01,0.275-0.029l-0.005-0.036c-0.131-0.011-0.261-0.036-0.391-0.031c-0.351,0.041-2.174,0.257-2.357,0.295
			c-0.316,0.075-0.638,0.155-0.898,0.35c-0.097,0.073-0.192,0.152-0.271,0.245l-1.019,1.201c-0.458,0.527,0.181-0.208-2.553,2.939
			c-0.046,0.043-0.521,0.609-1.227,0.641c-0.047,0.016-0.147-0.003-0.189,0.024L157.232,298.913z"/>
	</g>
	<g>
		<path class="st0" d="M147.755,299.034c0.117,0.026,0.234,0.058,0.351,0.075c0.258,0.038,0.865,0.073,0.895,0.076
			c0.963,0.105,1.741-0.112,2.273-0.337c0.533-0.222,0.823-0.454,0.823-0.454l0.116-0.118l1.563-1.624l1.678-1.796
			c0.123-0.133,0.242-0.269,0.369-0.397c0.22-0.219,0.571-0.474,0.891-0.484c0.097-0.003,0.248,0.015,0.277-0.001l-0.003-0.037
			c-0.13-0.024-0.259-0.062-0.389-0.071c-0.355-0.023-2.188,0.097-2.372,0.131c-0.32,0.059-0.646,0.122-0.918,0.304
			c-0.102,0.068-0.201,0.143-0.286,0.231l-1.092,1.148c-0.242,0.251-0.194,0.202-0.446,0.464c-0.255,0.243-0.8,0.884-2.284,2.296
			c-0.048,0.047-0.558,0.535-1.264,0.534c-0.048,0.014-0.147-0.011-0.19,0.015L147.755,299.034z"/>
		<path class="st0" d="M143.016,298.914c0.116,0.026,0.232,0.058,0.349,0.075c0.257,0.038,0.863,0.073,0.894,0.076
			c1.927,0.179,3.12-0.69,3.12-0.69l0.12-0.112l1.612-1.543c0.585-0.565,1.162-1.136,1.732-1.746c0.127-0.133,0.25-0.27,0.381-0.397
			c0.226-0.219,0.585-0.475,0.905-0.485c0.097-0.003,0.247,0.015,0.277-0.001l-0.002-0.037c-0.129-0.024-0.257-0.062-0.387-0.071
			c-0.354-0.029-2.189,0.115-2.375,0.108c-0.322,0.043-0.649,0.089-0.927,0.257c-0.104,0.063-0.206,0.132-0.293,0.216l-1.127,1.092
			c-0.505,0.479,0.199-0.189-2.816,2.667c-0.05,0.047-0.575,0.535-1.282,0.533c-0.049,0.013-0.146-0.011-0.191,0.014
			L143.016,298.914z"/>
	</g>
	<g>
		<path class="st0" d="M133.567,298.16c0.114,0.037,0.227,0.081,0.342,0.11c0.253,0.064,0.854,0.16,0.884,0.165
			c1.913,0.28,3.16-0.528,3.16-0.528l0.127-0.106l1.708-1.458l1.837-1.618c0.135-0.12,0.266-0.244,0.405-0.358
			c0.239-0.2,0.611-0.404,0.933-0.406c0.097,0.002,0.246,0.027,0.276,0.013l0-0.037c-0.127-0.031-0.253-0.075-0.382-0.09
			c-0.352-0.041-2.186-0.12-2.373-0.1c-0.324,0.026-0.654,0.056-0.942,0.21c-0.107,0.057-0.214,0.122-0.306,0.201l-1.194,1.033
			c-0.535,0.452,0.211-0.178-2.981,2.518c-0.053,0.053-0.606,0.483-1.309,0.412c-0.049,0.009-0.145-0.026-0.191-0.005
			L133.567,298.16z"/>
		<path class="st0" d="M128.863,297.563c0.113,0.037,0.226,0.081,0.34,0.11c0.252,0.064,0.852,0.16,0.882,0.166
			c1.9,0.372,3.169-0.372,3.169-0.372l0.13-0.1l1.75-1.377l1.892-1.614c0.139-0.12,0.274-0.243,0.417-0.357
			c0.246-0.195,0.626-0.413,0.946-0.391c0.096,0.007,0.244,0.039,0.275,0.027l0.002-0.037c-0.126-0.037-0.25-0.088-0.378-0.109
			c-0.35-0.059-2.188-0.123-2.375-0.108c-0.326,0.028-0.658,0.059-0.949,0.192c-0.109,0.052-0.217,0.111-0.312,0.185l-1.223,0.973
			c-0.548,0.425,0.216-0.168-3.053,2.371c-0.054,0.042-0.623,0.474-1.326,0.401c-0.05,0.009-0.145-0.026-0.191-0.005
			L128.863,297.563z"/>
	</g>
	<g>
		<path class="st0" d="M119.521,295.946c0.11,0.049,0.218,0.104,0.33,0.144c0.245,0.091,0.842,0.207,0.871,0.217
			c1.877,0.467,3.194-0.21,3.194-0.21l0.136-0.093l1.837-1.281l1.98-1.426l0.438-0.329c0.258-0.182,0.652-0.38,0.971-0.342
			c0.096,0.012,0.242,0.052,0.273,0.041l0.004-0.036c-0.124-0.044-0.244-0.1-0.371-0.128c-0.173-0.042-0.719-0.087-1.241-0.154
			c-0.521-0.075-1.022-0.138-1.116-0.14c-0.325-0.006-0.656-0.01-0.956,0.114c-0.112,0.046-0.224,0.1-0.323,0.169l-1.285,0.908
			c-0.575,0.396,0.227-0.156-3.204,2.208c-0.055,0.032-0.656,0.456-1.348,0.317c-0.05,0.004-0.142-0.04-0.189-0.024L119.521,295.946
			z"/>
		<path class="st0" d="M114.901,294.88c0.109,0.049,0.217,0.104,0.328,0.144c0.244,0.089,0.832,0.245,0.861,0.253
			c1.854,0.561,3.187-0.054,3.187-0.054l0.139-0.086c0.627-0.389,1.255-0.801,1.879-1.234l2.035-1.417
			c0.149-0.105,0.296-0.215,0.448-0.313c0.263-0.17,0.662-0.349,0.978-0.294c0.095,0.016,0.239,0.064,0.271,0.055l0.005-0.036
			c-0.122-0.05-0.24-0.113-0.366-0.147c-0.342-0.094-2.163-0.343-2.351-0.347c-0.327-0.006-0.659-0.01-0.965,0.113
			c-0.114,0.046-0.228,0.099-0.33,0.168l-1.31,0.853c-0.585,0.369,0.231-0.146-3.262,2.056c-0.058,0.036-0.665,0.41-1.357,0.267
			c-0.05,0.003-0.141-0.04-0.19-0.024L114.901,294.88z"/>
	</g>
	<g>
		<path class="st0" d="M105.75,292.394c0.106,0.054,0.211,0.114,0.319,0.16c0.239,0.101,0.818,0.286,0.847,0.296
			c1.822,0.652,3.196,0.109,3.196,0.109l0.144-0.079l1.949-1.093c0.711-0.41,1.407-0.799,2.112-1.249
			c0.156-0.097,0.31-0.199,0.469-0.289c0.274-0.156,0.685-0.314,0.998-0.244c0.094,0.021,0.235,0.076,0.268,0.068l0.007-0.036
			c-0.119-0.056-0.233-0.124-0.357-0.165c-0.338-0.108-2.145-0.447-2.323-0.496c-0.322-0.039-0.651-0.075-0.962,0.019
			c-0.116,0.035-0.232,0.077-0.338,0.136l-1.365,0.777c-0.61,0.337,0.24-0.133-3.398,1.88c-0.06,0.033-0.692,0.374-1.376,0.197
			c-0.051,0.001-0.139-0.047-0.188-0.034L105.75,292.394z"/>
		<path class="st0" d="M101.257,290.878c0.104,0.059,0.206,0.125,0.312,0.176c0.234,0.113,0.804,0.326,0.832,0.338
			c1.79,0.742,3.174,0.262,3.174,0.262l0.146-0.072c0.665-0.34,1.336-0.711,1.995-1.069l2.16-1.209
			c0.159-0.09,0.315-0.184,0.476-0.268c0.278-0.143,0.692-0.281,1.001-0.196c0.093,0.026,0.232,0.087,0.264,0.082l0.009-0.036
			c-0.116-0.062-0.228-0.136-0.35-0.183c-0.331-0.127-2.118-0.557-2.304-0.58c-0.324-0.039-0.654-0.076-0.97,0.017
			c-0.118,0.034-0.237,0.076-0.345,0.134c-0.466,0.254-0.931,0.516-1.393,0.746c-0.617,0.31,0.244-0.122-3.441,1.725
			c-0.061,0.03-0.7,0.343-1.375,0.132c-0.05-0.001-0.137-0.054-0.186-0.043L101.257,290.878z"/>
	</g>
	<g>
		<path class="st0" d="M92.39,287.522c0.1,0.064,0.198,0.134,0.302,0.191c0.228,0.124,0.786,0.365,0.814,0.378
			c1.749,0.829,3.168,0.423,3.168,0.423l0.151-0.065l2.043-0.897c0.74-0.323,1.487-0.688,2.228-1.058
			c0.165-0.081,0.327-0.167,0.494-0.242c0.287-0.128,0.711-0.245,1.015-0.144c0.092,0.03,0.227,0.099,0.26,0.094l0.011-0.035
			c-0.113-0.067-0.22-0.147-0.339-0.2c-0.323-0.148-2.092-0.651-2.27-0.703c-0.317-0.07-0.64-0.139-0.958-0.076
			c-0.119,0.023-0.238,0.054-0.349,0.102l-1.432,0.639c-0.639,0.276,0.252-0.109-3.56,1.539c-0.063,0.027-0.724,0.305-1.387,0.061
			c-0.051-0.004-0.134-0.06-0.184-0.052L92.39,287.522z"/>
		<path class="st0" d="M88.06,285.59c0.097,0.069,0.192,0.144,0.293,0.206c0.222,0.135,0.768,0.403,0.795,0.418
			c1.709,0.913,3.133,0.568,3.133,0.568l0.155-0.063l2.09-0.878l2.264-0.991c0.166-0.074,0.33-0.153,0.499-0.22
			c0.29-0.115,0.715-0.212,1.014-0.096c0.09,0.035,0.222,0.11,0.255,0.107l0.012-0.035c-0.11-0.073-0.213-0.158-0.33-0.217
			c-0.317-0.159-2.052-0.764-2.236-0.804c-0.319-0.071-0.643-0.14-0.966-0.079c-0.121,0.023-0.243,0.052-0.356,0.1l-1.464,0.624
			c-0.644,0.248,0.254-0.098-3.588,1.382c-0.063,0.024-0.729,0.273-1.38-0.003c-0.05-0.006-0.131-0.067-0.181-0.061L88.06,285.59z"
			/>
	</g>
	<g>
		<path class="st0" d="M79.556,281.397c0.094,0.074,0.185,0.153,0.282,0.219c0.215,0.146,0.747,0.44,0.773,0.456
			c1.66,0.996,3.11,0.729,3.11,0.729l0.157-0.05l2.118-0.695c0.767-0.249,1.557-0.566,2.325-0.851
			c0.171-0.065,0.341-0.135,0.514-0.193c0.298-0.1,0.731-0.174,1.024-0.044c0.088,0.039,0.216,0.12,0.249,0.12l0.014-0.034
			c-0.106-0.078-0.205-0.168-0.318-0.232c-0.309-0.175-2.013-0.863-2.195-0.913c-0.313-0.091-0.625-0.198-0.948-0.164
			c-0.12,0.012-0.242,0.03-0.357,0.068l-1.485,0.498c-0.662,0.213,0.261-0.084-3.688,1.187c-0.065,0.021-0.749,0.233-1.385-0.074
			c-0.05-0.009-0.127-0.073-0.178-0.07L79.556,281.397z"/>
		<path class="st0" d="M75.428,279.066c0.09,0.078,0.178,0.162,0.272,0.233c0.208,0.156,0.726,0.476,0.751,0.493
			c0.804,0.537,1.572,0.757,2.136,0.84c0.56,0.09,0.933,0.017,0.933,0.017l0.16-0.048l2.163-0.671l2.347-0.767
			c0.172-0.058,0.343-0.12,0.517-0.17c0.299-0.086,0.731-0.142,1.018,0.003c0.086,0.044,0.21,0.131,0.243,0.132l0.015-0.033
			c-0.102-0.083-0.197-0.178-0.307-0.248c-0.3-0.19-1.968-0.961-2.146-1.019c-0.31-0.101-0.627-0.202-0.954-0.173
			c-0.122,0.011-0.246,0.028-0.363,0.065l-1.517,0.481c-0.677,0.201,0.282-0.057-3.706,1.038c-0.065,0.018-0.751,0.201-1.372-0.136
			c-0.049-0.011-0.124-0.079-0.174-0.078L75.428,279.066z"/>
	</g>
	<g>
		<path class="st0" d="M67.364,274.08c0.086,0.082,0.169,0.17,0.26,0.245c0.2,0.166,0.701,0.51,0.725,0.528
			c1.556,1.152,3.024,1.026,3.024,1.026l0.16-0.034l2.173-0.488c0.799-0.193,1.606-0.419,2.399-0.632
			c0.177-0.048,0.352-0.101,0.53-0.142c0.306-0.07,0.744-0.103,1.022,0.055c0.084,0.048,0.203,0.141,0.237,0.143l0.017-0.032
			c-0.098-0.088-0.187-0.187-0.294-0.262c-0.29-0.204-1.92-1.055-2.096-1.122c-0.309-0.111-0.609-0.247-0.933-0.245
			c-0.121,0-0.244,0.007-0.361,0.033l-1.525,0.353c-0.679,0.148,0.268-0.059-3.782,0.827c-0.067,0.014-0.767,0.16-1.371-0.207
			c-0.049-0.014-0.119-0.085-0.171-0.086L67.364,274.08z"/>
		<path class="st0" d="M63.475,271.37c0.082,0.087,0.161,0.179,0.248,0.258c0.192,0.176,0.676,0.544,0.7,0.563
			c0.749,0.612,1.492,0.904,2.044,1.041c0.552,0.138,0.931,0.099,0.931,0.099l0.164-0.032l2.215-0.461l2.408-0.539
			c0.177-0.041,0.353-0.086,0.531-0.12c0.306-0.057,0.741-0.071,1.012,0.101c0.082,0.052,0.197,0.151,0.229,0.155l0.018-0.032
			c-0.094-0.093-0.179-0.196-0.282-0.276c-0.281-0.218-1.866-1.146-2.038-1.221c-0.299-0.131-0.604-0.261-0.932-0.264
			c-0.123-0.001-0.248,0.005-0.367,0.03l-1.555,0.334c-0.692,0.134,0.277-0.015-3.791,0.686c-0.067,0.012-0.767,0.128-1.352-0.267
			c-0.048-0.016-0.115-0.091-0.166-0.094L63.475,271.37z"/>
	</g>
	<g>
		<path class="st0" d="M55.922,265.641c0.078,0.09,0.152,0.186,0.235,0.269c0.183,0.184,0.649,0.575,0.671,0.595
			c1.439,1.295,2.911,1.31,2.911,1.31l0.163-0.019l2.209-0.278l2.452-0.406c0.18-0.031,0.36-0.067,0.541-0.091
			c0.311-0.041,0.75-0.031,1.012,0.153c0.079,0.056,0.189,0.16,0.222,0.165l0.02-0.03c-0.089-0.097-0.169-0.204-0.268-0.289
			c-0.27-0.231-1.81-1.234-1.978-1.318c-0.296-0.142-0.591-0.293-0.91-0.327c-0.12-0.012-0.243-0.017-0.363-0.001l-1.551,0.205
			c-0.689,0.083,0.272-0.033-3.841,0.463c-0.068,0.008-0.779,0.086-1.344-0.337c-0.047-0.018-0.111-0.096-0.161-0.102
			L55.922,265.641z"/>
		<path class="st0" d="M52.306,262.576c0.074,0.094,0.144,0.193,0.223,0.281c0.174,0.193,0.621,0.606,0.643,0.627
			c0.687,0.681,1.399,1.042,1.935,1.231c0.545,0.18,0.921,0.182,0.921,0.182l0.166-0.017l2.248-0.247l2.447-0.306
			c0.18-0.024,0.359-0.052,0.54-0.069c0.31-0.028,0.744,0,0.997,0.197c0.076,0.059,0.181,0.169,0.214,0.176l0.021-0.03
			c-0.084-0.101-0.16-0.213-0.254-0.302c-0.259-0.244-1.748-1.32-1.912-1.411c-0.285-0.159-0.576-0.318-0.902-0.352
			c-0.122-0.013-0.247-0.019-0.368-0.006l-1.579,0.184c-0.698,0.064,0.271,0.018-3.842,0.327c-0.067,0.005-0.775,0.055-1.32-0.395
			c-0.046-0.02-0.106-0.102-0.156-0.11L52.306,262.576z"/>
	</g>
	<g>
		<path class="st0" d="M45.331,256.157c0.069,0.097,0.134,0.199,0.208,0.29c0.165,0.201,0.591,0.634,0.612,0.657
			c1.309,1.427,2.772,1.581,2.772,1.581l0.164-0.003l2.228-0.071l2.479-0.171c0.182-0.014,0.365-0.033,0.547-0.039
			c0.314-0.011,0.749,0.04,0.992,0.249c0.074,0.063,0.173,0.177,0.205,0.186l0.023-0.028c-0.079-0.105-0.148-0.219-0.239-0.313
			c-0.246-0.256-1.684-1.402-1.843-1.501c-0.277-0.173-0.565-0.342-0.878-0.408c-0.119-0.023-0.241-0.04-0.361-0.036l-1.563,0.057
			c-0.694,0.017,0.274-0.007-3.866,0.096c-0.068,0.001-0.783,0.012-1.306-0.464c-0.045-0.023-0.101-0.106-0.151-0.117
			L45.331,256.157z"/>
		<path class="st0" d="M42.019,252.766c0.064,0.101,0.125,0.206,0.195,0.301c0.155,0.209,0.561,0.662,0.58,0.686
			c0.619,0.743,1.293,1.171,1.809,1.41c0.533,0.223,0.903,0.265,0.903,0.265l0.167-0.001l2.26-0.033l2.464-0.073
			c0.181-0.006,0.363-0.018,0.543-0.017c0.311,0.002,0.74,0.071,0.974,0.291c0.07,0.066,0.164,0.186,0.196,0.195l0.024-0.028
			c-0.074-0.109-0.139-0.227-0.225-0.325c-0.234-0.267-1.614-1.48-1.768-1.587c-0.268-0.185-0.543-0.371-0.865-0.436
			c-0.12-0.024-0.244-0.042-0.366-0.041l-1.589,0.033c-0.698-0.007,0.263,0.048-3.858-0.035c-0.067-0.001-0.777-0.019-1.276-0.518
			c-0.044-0.025-0.096-0.111-0.145-0.124L42.019,252.766z"/>
	</g>
	<g>
		<path class="st0" d="M35.683,245.715c0.059,0.103,0.114,0.211,0.18,0.309c0.145,0.216,0.528,0.688,0.546,0.712
			c1.167,1.545,2.609,1.838,2.609,1.838l0.163,0.012c0.747,0.048,1.476,0.109,2.228,0.137l2.483,0.064
			c0.183,0.004,0.366,0.002,0.548,0.013c0.313,0.019,0.741,0.111,0.964,0.342c0.067,0.07,0.155,0.193,0.186,0.204l0.026-0.026
			c-0.069-0.112-0.127-0.233-0.208-0.335c-0.221-0.278-1.542-1.556-1.692-1.67c-0.257-0.201-0.533-0.392-0.839-0.486
			c-0.116-0.034-0.236-0.062-0.356-0.07l-1.561-0.091c-0.692-0.049,0.273,0.019-3.857-0.271c-0.068-0.005-0.78-0.062-1.255-0.585
			c-0.043-0.027-0.091-0.116-0.139-0.131L35.683,245.715z"/>
		<path class="st0" d="M32.705,242.027c0.055,0.106,0.104,0.217,0.165,0.318c0.135,0.223,0.495,0.713,0.512,0.738
			c0.547,0.797,1.172,1.291,1.67,1.573c0.511,0.272,0.875,0.349,0.875,0.349l0.166,0.015l2.253,0.182l2.459,0.161
			c0.181,0.011,0.363,0.016,0.542,0.035c0.309,0.031,0.73,0.141,0.941,0.382c0.064,0.073,0.146,0.2,0.176,0.213l0.026-0.025
			c-0.064-0.116-0.116-0.239-0.193-0.345c-0.208-0.289-1.466-1.628-1.609-1.748c-0.249-0.21-0.505-0.421-0.819-0.516
			c-0.117-0.036-0.239-0.065-0.361-0.075l-1.584-0.118c-0.69-0.076,0.252,0.078-3.84-0.397c-0.067-0.008-0.771-0.092-1.22-0.637
			c-0.041-0.029-0.085-0.12-0.133-0.137L32.705,242.027z"/>
	</g>
	<g>
		<path class="st0" d="M27.066,234.407c0.049,0.109,0.093,0.221,0.149,0.325c0.124,0.229,0.46,0.735,0.476,0.761
			c1.014,1.649,2.421,2.078,2.421,2.078l0.161,0.028c0.741,0.117,1.453,0.252,2.208,0.344l2.465,0.3
			c0.182,0.021,0.364,0.037,0.544,0.065c0.31,0.049,0.727,0.181,0.927,0.432c0.06,0.076,0.136,0.207,0.166,0.221l0.028-0.024
			c-0.058-0.118-0.104-0.244-0.175-0.353c-0.193-0.298-1.387-1.696-1.525-1.824c-0.238-0.223-0.488-0.444-0.793-0.56
			c-0.112-0.045-0.229-0.084-0.347-0.103l-1.544-0.239c-0.684-0.114,0.27,0.045-3.812-0.637c-0.067-0.011-0.77-0.136-1.193-0.702
			c-0.04-0.031-0.079-0.124-0.126-0.144L27.066,234.407z"/>
		<path class="st0" d="M24.449,230.455c0.044,0.111,0.083,0.226,0.134,0.332c0.113,0.235,0.425,0.757,0.439,0.784
			c0.471,0.845,1.037,1.402,1.517,1.722c0.482,0.319,0.837,0.431,0.837,0.431l0.164,0.031l2.224,0.395l2.431,0.394
			c0.179,0.028,0.359,0.051,0.536,0.086c0.305,0.061,0.713,0.21,0.9,0.47c0.056,0.078,0.126,0.213,0.155,0.229l0.029-0.023
			c-0.052-0.121-0.093-0.249-0.159-0.362c-0.179-0.307-1.303-1.76-1.434-1.894c-0.228-0.233-0.463-0.468-0.766-0.592
			c-0.113-0.047-0.231-0.088-0.352-0.109l-1.565-0.268c-0.344-0.061-0.276-0.049-0.636-0.113c-0.37-0.06-1.133-0.205-3.153-0.644
			c-0.066-0.014-0.758-0.165-1.153-0.751c-0.038-0.033-0.073-0.127-0.119-0.149L24.449,230.455z"/>
	</g>
	<g>
		<path class="st0" d="M19.561,222.332c0.039,0.113,0.072,0.229,0.117,0.338c0.101,0.239,0.387,0.776,0.401,0.803
			c0.851,1.74,2.21,2.3,2.21,2.3l0.158,0.043c0.723,0.189,1.425,0.388,2.171,0.549l2.424,0.533c0.179,0.038,0.359,0.071,0.535,0.117
			c0.303,0.078,0.706,0.25,0.881,0.518c0.053,0.081,0.116,0.219,0.144,0.236l0.03-0.021c-0.046-0.123-0.08-0.253-0.141-0.368
			c-0.164-0.315-1.218-1.821-1.343-1.961c-0.217-0.244-0.441-0.491-0.739-0.632c-0.113-0.052-0.222-0.104-0.339-0.134l-1.513-0.385
			c-0.669-0.179,0.264,0.071-3.731-0.997c-0.066-0.018-0.754-0.209-1.12-0.813c-0.037-0.035-0.067-0.131-0.112-0.155L19.561,222.332
			z"/>
		<path class="st0" d="M17.329,218.15c0.033,0.115,0.061,0.233,0.102,0.344c0.09,0.245,0.35,0.795,0.362,0.823
			c0.744,1.793,2.143,2.364,2.143,2.364l0.16,0.046l2.175,0.606l2.381,0.624c0.176,0.045,0.352,0.085,0.525,0.137
			c0.298,0.089,0.689,0.277,0.851,0.554c0.049,0.084,0.105,0.225,0.132,0.243l0.031-0.02c-0.04-0.126-0.069-0.257-0.123-0.376
			c-0.149-0.323-1.128-1.877-1.245-2.023c-0.205-0.254-0.415-0.51-0.705-0.663c-0.108-0.057-0.222-0.11-0.339-0.142l-1.531-0.416
			c-0.337-0.094-0.27-0.075-0.622-0.173c-0.361-0.096-1.123-0.304-3.083-0.938c-0.064-0.02-0.738-0.237-1.075-0.858
			c-0.035-0.036-0.06-0.134-0.104-0.16L17.329,218.15z"/>
	</g>
	<g>
		<path class="st0" d="M13.24,209.596c0.027,0.116,0.049,0.235,0.084,0.348c0.077,0.248,0.31,0.81,0.321,0.839
			c0.678,1.814,1.975,2.503,1.975,2.503l0.153,0.058c0.692,0.262,1.392,0.517,2.116,0.75l2.36,0.763
			c0.174,0.055,0.35,0.105,0.521,0.167c0.294,0.107,0.678,0.316,0.826,0.6c0.045,0.086,0.094,0.229,0.12,0.249l0.032-0.018
			c-0.034-0.127-0.056-0.259-0.104-0.38c-0.133-0.329-1.036-1.93-1.147-2.081c-0.193-0.264-0.391-0.531-0.674-0.7
			c-0.106-0.063-0.217-0.122-0.334-0.161l-1.469-0.528c-0.649-0.242,0.256,0.096-3.615-1.351c-0.063-0.024-0.729-0.28-1.035-0.917
			c-0.033-0.038-0.054-0.137-0.096-0.165L13.24,209.596z"/>
		<path class="st0" d="M11.414,205.221c0.022,0.118,0.038,0.238,0.068,0.352c0.065,0.252,0.271,0.825,0.28,0.854
			c0.293,0.923,0.751,1.573,1.176,1.973c0.412,0.405,0.738,0.583,0.738,0.583l0.154,0.061l2.105,0.812l2.308,0.85
			c0.17,0.062,0.342,0.118,0.509,0.186c0.287,0.117,0.659,0.342,0.792,0.633c0.04,0.088,0.083,0.234,0.108,0.255l0.033-0.017
			c-0.028-0.129-0.043-0.263-0.086-0.386c-0.117-0.336-0.94-1.977-1.043-2.134c-0.179-0.272-0.364-0.547-0.637-0.727
			c-0.102-0.067-0.21-0.13-0.324-0.174l-1.483-0.561c-0.326-0.125-0.261-0.101-0.602-0.232c-0.34-0.135-1.104-0.404-2.987-1.225
			c-0.062-0.026-0.711-0.307-0.986-0.958c-0.031-0.039-0.047-0.139-0.088-0.17L11.414,205.221z"/>
	</g>
	<g>
		<path class="st0" d="M8.167,196.314c0.016,0.118,0.026,0.239,0.05,0.354c0.053,0.255,0.229,0.837,0.237,0.866
			c0.497,1.872,1.72,2.683,1.72,2.683l0.146,0.072c0.657,0.329,1.36,0.639,2.046,0.945l2.273,0.986
			c0.168,0.072,0.338,0.138,0.502,0.216c0.282,0.134,0.644,0.38,0.763,0.677c0.036,0.09,0.071,0.237,0.096,0.26l0.034-0.015
			c-0.022-0.13-0.03-0.264-0.067-0.389c-0.1-0.341-0.843-2.021-0.938-2.183c-0.166-0.281-0.337-0.566-0.602-0.762
			c-0.099-0.073-0.204-0.142-0.316-0.193c-0.492-0.215-0.951-0.438-1.424-0.662c-0.621-0.304,0.245,0.12-3.462-1.693
			c-0.061-0.03-0.698-0.349-0.94-1.013c-0.029-0.041-0.04-0.141-0.079-0.174L8.167,196.314z"/>
		<path class="st0" d="M6.761,191.786c0.01,0.119,0.014,0.241,0.033,0.357c0.04,0.257,0.188,0.848,0.194,0.878
			c0.188,0.951,0.619,1.631,0.994,2.072c0.37,0.443,0.677,0.651,0.677,0.651l0.148,0.076l2.014,1.011l2.212,1.068
			c0.163,0.078,0.329,0.151,0.488,0.235c0.274,0.145,0.622,0.404,0.726,0.707c0.032,0.091,0.059,0.241,0.083,0.264l0.034-0.014
			c-0.015-0.131-0.017-0.266-0.048-0.393c-0.083-0.346-0.741-2.06-0.828-2.226c-0.151-0.288-0.308-0.58-0.562-0.786
			c-0.095-0.077-0.196-0.15-0.305-0.204l-1.42-0.701c-0.312-0.156-0.25-0.125-0.576-0.289c-0.308-0.172-1.081-0.501-2.868-1.501
			c-0.059-0.032-0.677-0.374-0.886-1.049c-0.027-0.042-0.033-0.143-0.07-0.177L6.761,191.786z"/>
	</g>
	<g>
		<path class="st0" d="M4.389,182.606c0.004,0.119,0.002,0.24,0.014,0.358c0.027,0.259,0.145,0.856,0.15,0.886
			c0.309,1.913,1.444,2.838,1.444,2.838l0.138,0.086l1.964,1.132l2.163,1.201c0.16,0.087,0.322,0.17,0.478,0.264
			c0.268,0.161,0.603,0.44,0.692,0.748c0.027,0.093,0.047,0.243,0.069,0.268l0.035-0.012c-0.009-0.131-0.004-0.265-0.028-0.394
			c-0.066-0.349-0.639-2.095-0.718-2.265c-0.137-0.296-0.28-0.596-0.524-0.817c-0.091-0.082-0.189-0.161-0.295-0.222
			c-0.455-0.265-0.936-0.518-1.373-0.79c-0.588-0.362,0.232,0.143-3.275-2.019c-0.057-0.036-0.659-0.415-0.834-1.1
			c-0.025-0.044-0.026-0.145-0.062-0.181L4.389,182.606z"/>
		<path class="st0" d="M3.414,177.967c-0.002,0.12-0.01,0.241-0.003,0.359c0.014,0.26,0.102,0.863,0.106,0.893
			c0.095,0.965,0.5,1.675,0.81,2.154c0.324,0.477,0.609,0.714,0.609,0.714l0.139,0.09l1.902,1.2l2.093,1.276
			c0.155,0.093,0.312,0.182,0.462,0.281c0.258,0.17,0.578,0.462,0.652,0.774c0.019,0.095,0.045,0.243,0.066,0.269l0.035-0.01
			c-0.011-0.13-0.003-0.264-0.018-0.393c-0.048-0.352-0.533-2.123-0.603-2.297c-0.122-0.302-0.249-0.608-0.481-0.837
			c-0.087-0.086-0.18-0.168-0.283-0.233l-1.342-0.835c-0.582-0.383,0.22,0.178-3.274-2.108c-0.055-0.038-0.636-0.438-0.777-1.13
			c-0.023-0.045-0.019-0.146-0.052-0.183L3.414,177.967z"/>
	</g>
	<g>
		<path class="st0" d="M1.939,168.602c-0.008,0.119-0.022,0.24-0.021,0.358c0.001,0.26,0.059,0.866,0.06,0.896
			c0.058,0.966,0.346,1.71,0.62,2.209c0.133,0.25,0.274,0.438,0.382,0.563c0.106,0.125,0.174,0.189,0.174,0.189l0.135,0.098
			l1.843,1.315l2.031,1.403c0.15,0.102,0.303,0.201,0.449,0.309c0.25,0.186,0.555,0.496,0.614,0.812
			c0.018,0.095,0.023,0.247,0.042,0.273l0.036-0.008c0.005-0.132,0.023-0.265,0.011-0.395c-0.031-0.354-0.427-2.148-0.488-2.325
			c-0.107-0.308-0.219-0.621-0.44-0.864c-0.083-0.091-0.172-0.179-0.271-0.25l-1.302-0.916c-0.569-0.418,0.203,0.192-3.072-2.321
			c-0.054-0.041-0.614-0.476-0.72-1.175c-0.021-0.046-0.011-0.146-0.043-0.186L1.939,168.602z"/>
		<path class="st0" d="M1.395,163.894c-0.014,0.119-0.034,0.239-0.039,0.357c-0.012,0.261,0.013,0.869,0.024,0.898
			c0.114,1.931,1.154,2.989,1.154,2.989l0.129,0.103l1.771,1.377l1.953,1.472c0.144,0.107,0.292,0.211,0.431,0.324
			c0.233,0.195,0.538,0.514,0.599,0.829c0.018,0.095,0.023,0.246,0.042,0.273l0.036-0.007c0.005-0.131,0.023-0.263,0.011-0.392
			c-0.059-0.349-0.33-2.164-0.392-2.342c-0.091-0.312-0.187-0.629-0.395-0.88c-0.078-0.094-0.162-0.185-0.258-0.259l-1.251-0.96
			c-0.55-0.432,0.217,0.171-3.065-2.41c-0.06-0.042-0.616-0.494-0.677-1.197c-0.018-0.047-0.004-0.147-0.034-0.188L1.395,163.894z"
			/>
	</g>
	<g>
		<path class="st0" d="M0.824,154.432c-0.02,0.118-0.046,0.237-0.057,0.354c-0.025,0.259-0.029,0.867-0.03,0.898
			c-0.036,0.966,0.158,1.735,0.423,2.256c0.248,0.522,0.495,0.801,0.495,0.801l0.124,0.111l1.701,1.485l1.879,1.591
			c0.139,0.116,0.281,0.229,0.415,0.35c0.23,0.209,0.502,0.547,0.529,0.867c0.008,0.096-0.002,0.248,0.015,0.276l0.036-0.005
			c0.018-0.131,0.049-0.262,0.051-0.392c0.005-0.355-0.208-2.18-0.251-2.363c-0.075-0.317-0.155-0.639-0.35-0.902
			c-0.073-0.098-0.153-0.194-0.245-0.275l-1.202-1.036c-0.263-0.23-0.211-0.184-0.486-0.424c-0.279-0.243-0.893-0.759-2.381-2.175
			c-0.049-0.046-0.563-0.532-0.597-1.238c-0.016-0.048,0.003-0.147-0.024-0.189L0.824,154.432z"/>
		<path class="st0" d="M0.705,149.693c-0.02,0.117-0.046,0.235-0.058,0.352c-0.025,0.258-0.029,0.866-0.031,0.896
			c-0.081,1.933,0.846,3.084,0.846,3.084l0.118,0.115l1.623,1.538c0.601,0.558,1.188,1.107,1.803,1.65
			c0.139,0.12,0.282,0.237,0.416,0.362c0.23,0.216,0.504,0.562,0.53,0.881c0.008,0.096-0.002,0.247,0.015,0.276l0.036-0.004
			c0.018-0.13,0.049-0.259,0.051-0.39c0.002-0.177-0.05-0.723-0.108-1.247c-0.041-0.525-0.072-1.029-0.091-1.121
			c-0.059-0.32-0.122-0.644-0.304-0.913c-0.068-0.101-0.143-0.199-0.23-0.282l-1.148-1.074c-0.503-0.482,0.199,0.19-2.806-2.688
			c-0.049-0.047-0.563-0.549-0.597-1.255c-0.016-0.048,0.004-0.147-0.024-0.19L0.705,149.693z"/>
	</g>
	<g>
		<path class="st0" d="M1.034,140.22c-0.032,0.116-0.07,0.231-0.093,0.347c-0.051,0.256-0.116,0.861-0.121,0.891
			c-0.143,0.958,0.068,1.746,0.251,2.288c0.195,0.543,0.412,0.843,0.412,0.843l0.112,0.122l1.543,1.637l1.709,1.76
			c0.127,0.129,0.257,0.254,0.378,0.387c0.208,0.23,0.445,0.592,0.438,0.913c-0.002,0.097-0.027,0.247-0.013,0.276l0.037-0.001
			c0.031-0.129,0.075-0.256,0.09-0.386c0.041-0.353,0.014-2.19-0.011-2.376c-0.043-0.323-0.089-0.651-0.257-0.931
			c-0.063-0.105-0.132-0.208-0.216-0.296L4.2,144.55c-0.47-0.517,0.172,0.227-2.648-2.858c-0.044-0.05-0.506-0.582-0.47-1.287
			c-0.011-0.049,0.018-0.146-0.005-0.191L1.034,140.22z"/>
		<path class="st0" d="M1.394,135.493c-0.032,0.115-0.07,0.229-0.093,0.345c-0.051,0.255-0.117,0.859-0.121,0.889
			c-0.276,1.916,0.531,3.149,0.531,3.149l0.106,0.125l1.46,1.683c0.524,0.61,1.126,1.216,1.685,1.813
			c0.127,0.133,0.257,0.262,0.377,0.4c0.208,0.236,0.444,0.606,0.438,0.927c-0.002,0.097-0.027,0.246-0.013,0.276l0.037,0
			c0.031-0.128,0.075-0.254,0.09-0.383c0.041-0.352,0.012-2.191-0.012-2.378c-0.035-0.324-0.059-0.653-0.215-0.937
			c-0.057-0.106-0.122-0.212-0.201-0.303l-1.034-1.176c-0.452-0.527,0.178,0.208-2.522-2.938c-0.044-0.052-0.505-0.6-0.468-1.305
			c-0.011-0.049,0.018-0.146-0.005-0.191L1.394,135.493z"/>
	</g>
	<g>
		<path class="st0" d="M2.577,126.087c-0.043,0.112-0.093,0.223-0.127,0.336c-0.085,0.248-0.191,0.847-0.191,0.877
			c-0.372,1.898,0.37,3.181,0.37,3.181l0.1,0.132l1.371,1.774l1.524,1.911c0.113,0.14,0.23,0.277,0.337,0.421
			c0.18,0.248,0.409,0.633,0.383,0.953c-0.007,0.097-0.039,0.244-0.027,0.275l0.037,0.002c0.037-0.126,0.088-0.249,0.109-0.377
			c0.028-0.353,0.205-2.18,0.196-2.367c-0.01-0.325-0.023-0.656-0.162-0.95c-0.052-0.11-0.111-0.219-0.185-0.315L5.339,130.7
			c-0.424-0.556,0.167,0.219-2.366-3.096c-0.039-0.054-0.485-0.633-0.367-1.329c-0.006-0.05,0.033-0.143,0.014-0.19L2.577,126.087z"
			/>
		<path class="st0" d="M3.411,121.419c-0.043,0.111-0.092,0.222-0.127,0.334c-0.077,0.248-0.203,0.843-0.21,0.873
			c-0.467,1.88,0.213,3.182,0.213,3.182l0.093,0.134c0.434,0.61,0.84,1.212,1.309,1.816l1.517,1.966
			c0.113,0.144,0.229,0.285,0.335,0.433c0.183,0.255,0.381,0.645,0.343,0.963c-0.012,0.096-0.052,0.242-0.041,0.273l0.036,0.003
			c0.044-0.124,0.1-0.245,0.128-0.373c0.076-0.347,0.234-2.178,0.228-2.366c-0.01-0.327-0.023-0.659-0.161-0.959
			c-0.052-0.112-0.102-0.222-0.172-0.32l-0.911-1.268c-0.398-0.567,0.157,0.224-2.216-3.162c-0.039-0.056-0.443-0.644-0.335-1.343
			c-0.006-0.05,0.033-0.143,0.014-0.191L3.411,121.419z"/>
	</g>
	<g>
		<path class="st0" d="M5.461,112.162c-0.055,0.107-0.114,0.213-0.153,0.324c-0.089,0.244-0.245,0.831-0.253,0.86
			c-0.561,1.852,0.05,3.199,0.05,3.199l0.086,0.14l1.188,1.895c0.445,0.69,0.871,1.368,1.338,2.048
			c0.105,0.151,0.214,0.3,0.312,0.454c0.169,0.266,0.347,0.669,0.293,0.985c-0.016,0.095-0.064,0.239-0.055,0.271l0.036,0.006
			c0.05-0.121,0.112-0.239,0.147-0.365c0.047-0.171,0.132-0.712,0.207-1.234c0.084-0.52,0.185-1.015,0.188-1.109
			c0.023-0.324,0.042-0.654-0.066-0.96c-0.041-0.114-0.088-0.229-0.153-0.331l-0.843-1.327c-0.367-0.593,0.145,0.234-2.046-3.305
			c-0.036-0.058-0.408-0.673-0.264-1.365c-0.001-0.05,0.047-0.139,0.033-0.188L5.461,112.162z"/>
		<path class="st0" d="M6.756,107.6c-0.054,0.106-0.114,0.211-0.16,0.32c-0.101,0.24-0.286,0.819-0.296,0.848
			c-0.652,1.824-0.105,3.185-0.105,3.185l0.08,0.143c0.354,0.643,0.765,1.298,1.154,1.939l1.314,2.1
			c0.098,0.154,0.2,0.305,0.291,0.463c0.157,0.271,0.315,0.678,0.245,0.991c-0.021,0.094-0.076,0.236-0.068,0.268l0.036,0.007
			c0.056-0.119,0.125-0.234,0.165-0.358c0.111-0.337,0.451-2.143,0.464-2.331c0.023-0.326,0.043-0.657-0.065-0.969
			c-0.04-0.116-0.087-0.233-0.151-0.338c-0.283-0.455-0.542-0.901-0.802-1.353c-0.34-0.602,0.134,0.238-1.892-3.356
			c-0.033-0.059-0.377-0.683-0.2-1.367c-0.001-0.05,0.047-0.139,0.033-0.188L6.756,107.6z"/>
	</g>
	<g>
		<path class="st0" d="M9.681,98.58c-0.059,0.103-0.124,0.205-0.175,0.311c-0.113,0.234-0.326,0.803-0.338,0.831
			c-0.742,1.788-0.267,3.186-0.267,3.186l0.072,0.148l0.996,1.998c0.363,0.726,0.744,1.447,1.156,2.173
			c0.089,0.16,0.183,0.319,0.266,0.482c0.142,0.281,0.279,0.699,0.194,1.008c-0.026,0.093-0.087,0.231-0.082,0.264l0.035,0.009
			c0.062-0.116,0.136-0.227,0.182-0.348c0.135-0.329,0.539-2.124,0.599-2.299c0.055-0.32,0.107-0.646,0.029-0.961
			c-0.029-0.118-0.065-0.236-0.119-0.344l-0.709-1.4c-0.307-0.625,0.121,0.246-1.711-3.483c-0.03-0.061-0.34-0.708-0.129-1.383
			c0.002-0.051,0.054-0.136,0.043-0.187L9.681,98.58z"/>
		<path class="st0" d="M11.407,94.164c-0.064,0.101-0.135,0.199-0.191,0.303c-0.124,0.229-0.365,0.787-0.378,0.815
			c-0.829,1.751-0.418,3.157-0.418,3.157l0.066,0.15l0.979,2.046l1.101,2.214c0.082,0.163,0.169,0.323,0.244,0.488
			c0.129,0.284,0.247,0.704,0.146,1.008c-0.03,0.092-0.099,0.227-0.095,0.26l0.035,0.01c0.067-0.113,0.147-0.221,0.2-0.34
			c0.144-0.325,0.662-2.088,0.693-2.273c0.055-0.322,0.108-0.65,0.031-0.97c-0.029-0.12-0.064-0.24-0.117-0.35
			c-0.224-0.475-0.477-0.957-0.687-1.43c-0.279-0.631,0.11,0.249-1.555-3.519c-0.027-0.062-0.308-0.716-0.064-1.379
			c0.004-0.05,0.061-0.134,0.052-0.184L11.407,94.164z"/>
	</g>
	<g>
		<path class="st0" d="M15.186,85.468c-0.069,0.097-0.144,0.192-0.205,0.292c-0.135,0.222-0.403,0.767-0.418,0.794
			c-0.914,1.706-0.577,3.142-0.577,3.142l0.057,0.154l0.796,2.083c0.285,0.754,0.63,1.524,0.956,2.279
			c0.073,0.168,0.151,0.334,0.217,0.505c0.114,0.293,0.209,0.722,0.094,1.021c-0.035,0.09-0.11,0.222-0.107,0.255l0.034,0.012
			c0.073-0.109,0.158-0.212,0.216-0.329c0.16-0.317,0.762-2.054,0.806-2.236c0.086-0.313,0.17-0.632,0.123-0.953
			c-0.018-0.12-0.042-0.241-0.085-0.353l-0.569-1.46c-0.245-0.651,0.097,0.257-1.364-3.628c-0.024-0.064-0.269-0.737,0.007-1.388
			c0.007-0.05,0.067-0.131,0.061-0.181L15.186,85.468z"/>
		<path class="st0" d="M17.32,81.235c-0.074,0.094-0.153,0.185-0.22,0.283c-0.146,0.215-0.44,0.748-0.456,0.774
			c-0.497,0.829-0.68,1.607-0.736,2.174c-0.062,0.565,0.022,0.93,0.022,0.93l0.056,0.157l0.775,2.129l0.88,2.308
			c0.066,0.17,0.136,0.337,0.195,0.509c0.101,0.295,0.177,0.724,0.047,1.017c-0.039,0.088-0.121,0.216-0.12,0.249l0.034,0.014
			c0.078-0.106,0.168-0.206,0.233-0.319c0.175-0.309,0.863-2.013,0.913-2.193c0.086-0.315,0.171-0.636,0.126-0.961
			c-0.017-0.122-0.04-0.245-0.082-0.36l-0.554-1.493c-0.222-0.662,0.073,0.281-1.21-3.651c-0.021-0.064-0.237-0.741,0.07-1.377
			c0.009-0.05,0.073-0.127,0.069-0.178L17.32,81.235z"/>
	</g>
	<g>
		<path class="st0" d="M21.915,72.942c-0.078,0.09-0.162,0.177-0.233,0.271c-0.156,0.208-0.476,0.725-0.493,0.75
			c-1.075,1.61-0.879,3.07-0.879,3.07l0.042,0.159l0.592,2.148c0.223,0.784,0.493,1.583,0.742,2.365
			c0.057,0.174,0.118,0.347,0.168,0.523c0.085,0.303,0.138,0.738-0.006,1.024c-0.044,0.086-0.131,0.21-0.132,0.243l0.033,0.016
			c0.083-0.102,0.178-0.196,0.247-0.306c0.189-0.3,0.96-1.969,1.019-2.148c0.095-0.314,0.225-0.616,0.204-0.942
			c-0.006-0.121-0.019-0.243-0.051-0.36l-0.425-1.507c-0.181-0.671,0.071,0.265-1.008-3.739c-0.017-0.066-0.197-0.759,0.141-1.38
			c0.011-0.049,0.079-0.123,0.078-0.175L21.915,72.942z"/>
		<path class="st0" d="M24.438,68.929c-0.082,0.086-0.171,0.17-0.246,0.261c-0.166,0.2-0.511,0.702-0.529,0.726
			c-0.575,0.778-0.831,1.534-0.942,2.092c-0.118,0.555-0.058,0.933-0.058,0.933l0.04,0.162l0.566,2.192l0.653,2.38
			c0.049,0.175,0.103,0.349,0.145,0.525c0.072,0.303,0.106,0.737-0.052,1.016c-0.048,0.084-0.141,0.204-0.143,0.237l0.033,0.017
			c0.088-0.098,0.188-0.188,0.263-0.295c0.204-0.291,1.055-1.919,1.122-2.094c0.116-0.305,0.232-0.616,0.219-0.944
			c-0.005-0.123-0.016-0.247-0.047-0.366l-0.408-1.538c-0.167-0.686,0.035,0.28-0.863-3.753c-0.015-0.066-0.165-0.76,0.202-1.363
			c0.014-0.049,0.085-0.12,0.086-0.17L24.438,68.929z"/>
	</g>
	<g>
		<path class="st0" d="M29.802,61.112c-0.086,0.082-0.178,0.161-0.258,0.248c-0.175,0.192-0.543,0.676-0.563,0.699
			c-1.225,1.499-1.169,2.971-1.169,2.971l0.027,0.162l0.383,2.194l0.52,2.428c0.04,0.179,0.084,0.357,0.117,0.536
			c0.055,0.309,0.067,0.747-0.104,1.018c-0.052,0.082-0.151,0.196-0.154,0.229l0.031,0.019c0.093-0.093,0.196-0.178,0.276-0.281
			c0.218-0.28,1.146-1.867,1.222-2.039c0.126-0.303,0.269-0.601,0.286-0.922c0.006-0.121,0.005-0.244-0.016-0.363l-0.279-1.54
			c-0.116-0.685,0.046,0.27-0.645-3.816c-0.011-0.067-0.123-0.774,0.273-1.359c0.016-0.048,0.091-0.115,0.095-0.166L29.802,61.112z"
			/>
		<path class="st0" d="M32.693,57.355c-0.09,0.078-0.186,0.153-0.27,0.236c-0.185,0.184-0.575,0.65-0.596,0.672
			c-0.647,0.719-0.974,1.447-1.138,1.992c-0.159,0.549-0.141,0.927-0.141,0.927l0.024,0.165l0.354,2.234l0.423,2.43
			c0.032,0.179,0.069,0.357,0.094,0.536c0.043,0.308,0.035,0.743-0.149,1.006c-0.056,0.079-0.16,0.189-0.165,0.222l0.031,0.02
			c0.097-0.089,0.205-0.169,0.29-0.269c0.231-0.27,1.235-1.809,1.318-1.977c0.145-0.292,0.29-0.591,0.308-0.918
			c0.007-0.122,0.007-0.248-0.012-0.368l-0.259-1.569c-0.099-0.696-0.002,0.274-0.508-3.821c-0.008-0.067-0.092-0.772,0.331-1.337
			c0.018-0.047,0.096-0.111,0.102-0.161L32.693,57.355z"/>
	</g>
	<g>
		<path class="st0" d="M38.774,50.083c-0.094,0.073-0.193,0.143-0.28,0.222c-0.193,0.174-0.605,0.621-0.627,0.642
			c-1.363,1.375-1.447,2.845-1.447,2.845l0.011,0.164l0.175,2.221l0.289,2.468c0.022,0.182,0.05,0.363,0.065,0.544
			c0.026,0.313-0.005,0.75-0.201,1.003c-0.059,0.076-0.169,0.181-0.176,0.214l0.03,0.022c0.101-0.084,0.212-0.159,0.301-0.254
			c0.243-0.258,1.32-1.749,1.411-1.913c0.158-0.287,0.318-0.579,0.368-0.895c0.017-0.12,0.028-0.242,0.019-0.362l-0.131-1.559
			c-0.05-0.692,0.02,0.273-0.279-3.858c-0.005-0.068-0.049-0.782,0.401-1.326c0.021-0.046,0.101-0.106,0.11-0.156L38.774,50.083z"/>
		<path class="st0" d="M42.005,46.615c-0.097,0.069-0.2,0.134-0.291,0.209c-0.201,0.165-0.635,0.592-0.657,0.612
			c-0.713,0.654-1.108,1.347-1.322,1.874c-0.202,0.539-0.224,0.913-0.224,0.913l0.009,0.166l0.14,2.257l0.19,2.458
			c0.015,0.181,0.035,0.361,0.043,0.542c0.013,0.311-0.036,0.743-0.244,0.987c-0.063,0.073-0.178,0.173-0.186,0.205l0.029,0.023
			c0.105-0.079,0.22-0.149,0.314-0.24c0.256-0.247,1.402-1.683,1.501-1.842c0.172-0.277,0.345-0.56,0.395-0.885
			c0.018-0.121,0.031-0.246,0.023-0.368l-0.108-1.586c-0.028-0.699-0.034,0.267-0.147-3.854c-0.002-0.067-0.018-0.777,0.457-1.299
			c0.023-0.045,0.106-0.101,0.117-0.151L42.005,46.615z"/>
	</g>
	<g>
		<path class="st0" d="M48.748,39.952c-0.1,0.064-0.205,0.124-0.3,0.194c-0.209,0.155-0.662,0.56-0.685,0.58
			c-1.487,1.239-1.711,2.694-1.711,2.694l-0.004,0.164c-0.013,0.748-0.037,1.482-0.033,2.23l0.054,2.484
			c0.005,0.183,0.015,0.366,0.013,0.548c-0.004,0.314-0.076,0.746-0.296,0.979c-0.066,0.07-0.185,0.164-0.195,0.196l0.027,0.024
			c0.109-0.074,0.226-0.138,0.324-0.224c0.267-0.234,1.481-1.615,1.587-1.77c0.188-0.267,0.366-0.55,0.448-0.859
			c0.028-0.117,0.051-0.238,0.053-0.359l0.017-1.564c0.016-0.694-0.006,0.274,0.088-3.866c0.002-0.068,0.025-0.782,0.525-1.282
			c0.025-0.044,0.111-0.096,0.124-0.145L48.748,39.952z"/>
		<path class="st0" d="M52.291,36.804c-0.104,0.06-0.212,0.115-0.31,0.18c-0.216,0.145-0.688,0.529-0.712,0.547
			c-0.771,0.584-1.232,1.234-1.494,1.741c-0.247,0.523-0.307,0.89-0.307,0.89l-0.007,0.166l-0.075,2.259l-0.044,2.464
			c-0.002,0.181,0.001,0.363-0.009,0.543c-0.017,0.311-0.106,0.736-0.337,0.959c-0.07,0.067-0.193,0.155-0.205,0.186l0.027,0.025
			c0.112-0.069,0.233-0.128,0.336-0.209c0.278-0.221,1.556-1.542,1.67-1.691c0.198-0.259,0.397-0.525,0.477-0.843
			c0.03-0.119,0.054-0.242,0.058-0.364l0.042-1.588c0.041-0.695-0.063,0.258,0.216-3.853c0.004-0.067,0.056-0.775,0.579-1.25
			c0.027-0.043,0.116-0.091,0.131-0.139L52.291,36.804z"/>
	</g>
	<g>
		<path class="st0" d="M59.635,30.809c-0.106,0.054-0.216,0.104-0.317,0.165c-0.222,0.134-0.712,0.495-0.737,0.512
			c-1.599,1.092-1.96,2.518-1.96,2.518l-0.02,0.163c-0.083,0.745-0.181,1.467-0.241,2.22l-0.182,2.477
			c-0.012,0.182-0.02,0.365-0.039,0.546c-0.034,0.312-0.146,0.735-0.387,0.946c-0.073,0.064-0.2,0.146-0.213,0.176l0.025,0.027
			c0.115-0.063,0.238-0.116,0.344-0.192c0.288-0.207,1.628-1.466,1.749-1.61c0.212-0.248,0.418-0.511,0.524-0.817
			c0.039-0.114,0.073-0.232,0.087-0.352l0.165-1.554c0.082-0.689-0.032,0.272,0.454-3.839c0.008-0.067,0.099-0.776,0.645-1.226
			c0.029-0.041,0.12-0.085,0.138-0.133L59.635,30.809z"/>
		<path class="st0" d="M63.459,28.008c-0.109,0.049-0.222,0.094-0.326,0.15c-0.229,0.124-0.736,0.461-0.762,0.477
			c-0.822,0.509-1.348,1.106-1.649,1.595c-0.296,0.497-0.39,0.857-0.39,0.857l-0.023,0.165l-0.289,2.241l-0.278,2.448
			c-0.019,0.18-0.034,0.361-0.06,0.54c-0.046,0.308-0.176,0.722-0.427,0.922c-0.076,0.06-0.207,0.136-0.221,0.166l0.024,0.028
			c0.119-0.058,0.245-0.105,0.354-0.176c0.298-0.194,1.696-1.386,1.823-1.524c0.222-0.239,0.445-0.484,0.555-0.793
			c0.041-0.115,0.077-0.235,0.092-0.356l0.193-1.576c0.11-0.683-0.092,0.245,0.578-3.819c0.011-0.067,0.129-0.766,0.695-1.188
			c0.031-0.04,0.124-0.079,0.144-0.126L63.459,28.008z"/>
	</g>
	<g>
		<path class="st0" d="M71.339,22.738c-0.111,0.044-0.225,0.083-0.332,0.134c-0.234,0.112-0.756,0.424-0.783,0.439
			c-1.696,0.934-2.192,2.318-2.192,2.318l-0.035,0.16c-0.152,0.735-0.322,1.438-0.447,2.192l-0.417,2.447
			c-0.03,0.18-0.054,0.362-0.091,0.54c-0.063,0.307-0.216,0.717-0.476,0.905c-0.078,0.057-0.213,0.126-0.229,0.155l0.022,0.029
			c0.121-0.052,0.248-0.092,0.361-0.158c0.307-0.179,1.76-1.304,1.894-1.436c0.233-0.229,0.469-0.464,0.596-0.768
			c0.05-0.11,0.095-0.224,0.12-0.342l0.313-1.531c0.147-0.677-0.058,0.267,0.818-3.776c0.015-0.066,0.173-0.763,0.759-1.158
			c0.033-0.038,0.127-0.073,0.15-0.119L71.339,22.738z"/>
		<path class="st0" d="M75.411,20.311c-0.113,0.039-0.23,0.072-0.339,0.118c-0.24,0.101-0.777,0.388-0.804,0.401
			c-1.754,0.831-2.261,2.251-2.261,2.251l-0.039,0.162l-0.501,2.202l-0.51,2.409c-0.036,0.178-0.068,0.356-0.111,0.531
			c-0.075,0.302-0.244,0.702-0.512,0.877c-0.081,0.053-0.219,0.116-0.236,0.144l0.021,0.03c0.124-0.046,0.254-0.081,0.369-0.141
			c0.315-0.164,1.82-1.217,1.961-1.342c0.244-0.217,0.489-0.439,0.628-0.736c0.052-0.111,0.099-0.227,0.126-0.346l0.342-1.55
			c0.077-0.341,0.062-0.274,0.143-0.63c0.078-0.366,0.255-1.129,0.792-3.121c0.017-0.065,0.202-0.749,0.805-1.116
			c0.034-0.037,0.131-0.067,0.155-0.111L75.411,20.311z"/>
	</g>
	<g>
		<path class="st0" d="M83.759,15.817c-0.115,0.033-0.232,0.06-0.343,0.101c-0.244,0.089-0.794,0.349-0.822,0.361
			c-1.779,0.766-2.404,2.095-2.404,2.095l-0.051,0.156c-0.226,0.709-0.453,1.409-0.65,2.145L78.84,23.07
			c-0.047,0.177-0.088,0.355-0.142,0.528c-0.092,0.299-0.283,0.693-0.56,0.855c-0.084,0.049-0.224,0.105-0.243,0.132l0.019,0.031
			c0.125-0.04,0.256-0.068,0.375-0.123c0.322-0.149,1.877-1.129,2.024-1.247c0.254-0.205,0.511-0.416,0.666-0.707
			c0.058-0.109,0.111-0.224,0.148-0.337l0.457-1.492c0.211-0.66-0.083,0.26,1.175-3.677c0.021-0.065,0.245-0.742,0.866-1.079
			c0.036-0.035,0.134-0.06,0.16-0.104L83.759,15.817z"/>
		<path class="st0" d="M88.042,13.786c-0.116,0.028-0.236,0.05-0.348,0.085c-0.249,0.078-0.811,0.311-0.839,0.321
			c-0.904,0.343-1.539,0.82-1.916,1.265c-0.385,0.431-0.546,0.766-0.546,0.766l-0.054,0.157l-0.709,2.143l-0.738,2.347
			c-0.053,0.173-0.102,0.348-0.162,0.518c-0.104,0.293-0.31,0.675-0.594,0.823c-0.086,0.045-0.229,0.094-0.249,0.12l0.018,0.032
			c0.128-0.034,0.26-0.056,0.381-0.105c0.33-0.133,1.929-1.035,2.081-1.146c0.263-0.192,0.529-0.39,0.696-0.672
			c0.062-0.105,0.12-0.216,0.158-0.332l0.489-1.509c0.11-0.332,0.088-0.266,0.202-0.612c0.115-0.352,0.354-1.114,1.083-3.038
			c0.023-0.063,0.272-0.726,0.909-1.032c0.038-0.033,0.137-0.054,0.165-0.096L88.042,13.786z"/>
	</g>
	<g>
		<path class="st0" d="M96.783,10.113c-0.117,0.022-0.237,0.038-0.351,0.067c-0.252,0.065-0.824,0.27-0.853,0.279
			c-1.845,0.589-2.596,1.85-2.596,1.85l-0.065,0.15c-0.296,0.675-0.578,1.375-0.848,2.083l-0.875,2.319
			c-0.063,0.171-0.122,0.344-0.192,0.512c-0.121,0.289-0.348,0.662-0.64,0.796c-0.088,0.04-0.233,0.083-0.255,0.108l0.016,0.033
			c0.129-0.028,0.262-0.043,0.385-0.086c0.335-0.117,1.978-0.941,2.135-1.044c0.273-0.179,0.549-0.365,0.731-0.639
			c0.068-0.103,0.132-0.211,0.177-0.325l0.595-1.447c0.273-0.636-0.108,0.251,1.523-3.543c0.027-0.062,0.315-0.714,0.966-0.989
			c0.04-0.031,0.139-0.047,0.17-0.088L96.783,10.113z"/>
		<path class="st0" d="M101.239,8.495c-0.119,0.016-0.24,0.026-0.355,0.05c-0.255,0.053-0.837,0.23-0.867,0.237
			c-0.939,0.24-1.605,0.683-2.025,1.086c-0.425,0.391-0.618,0.709-0.618,0.709l-0.069,0.151l-0.912,2.062l-0.96,2.262
			c-0.07,0.167-0.135,0.336-0.211,0.499c-0.131,0.281-0.373,0.641-0.671,0.76c-0.09,0.036-0.238,0.071-0.26,0.096l0.015,0.033
			c0.13-0.022,0.265-0.03,0.39-0.067c0.341-0.1,2.021-0.842,2.182-0.937c0.281-0.165,0.565-0.336,0.758-0.601
			c0.072-0.099,0.14-0.203,0.189-0.315l0.632-1.453c0.141-0.319,0.113-0.256,0.26-0.589c0.153-0.325,0.453-1.092,1.365-2.93
			c0.029-0.061,0.341-0.695,1.005-0.937c0.041-0.029,0.141-0.04,0.174-0.079L101.239,8.495z"/>
	</g>
	<g>
		<path class="st0" d="M110.293,5.682c-0.119,0.01-0.24,0.014-0.356,0.032c-0.257,0.04-0.847,0.187-0.877,0.194
			c-1.895,0.404-2.764,1.584-2.764,1.584l-0.079,0.143c-0.359,0.647-0.699,1.34-1.039,2.007l-1.095,2.221
			c-0.08,0.164-0.155,0.33-0.24,0.49c-0.148,0.275-0.411,0.624-0.714,0.729c-0.091,0.032-0.24,0.059-0.264,0.083l0.013,0.034
			c0.131-0.015,0.265-0.017,0.392-0.048c0.345-0.083,2.06-0.742,2.227-0.829c0.289-0.152,0.582-0.309,0.79-0.564
			c0.078-0.095,0.152-0.197,0.208-0.306c0.239-0.478,0.477-0.947,0.726-1.399c0.333-0.605-0.131,0.239,1.858-3.373
			c0.033-0.059,0.383-0.679,1.058-0.888c0.042-0.027,0.143-0.033,0.178-0.071L110.293,5.682z"/>
		<path class="st0" d="M114.882,4.491c-0.12,0.004-0.241,0.002-0.359,0.015c-0.259,0.027-0.856,0.145-0.886,0.15
			c-0.96,0.137-1.654,0.56-2.115,0.902c-0.461,0.347-0.684,0.644-0.684,0.644l-0.083,0.144l-1.107,1.961l-1.174,2.155
			c-0.085,0.159-0.166,0.321-0.258,0.476c-0.158,0.267-0.433,0.601-0.741,0.69c-0.093,0.027-0.243,0.047-0.268,0.069l0.012,0.035
			c0.132-0.009,0.266-0.004,0.395-0.028c0.349-0.066,2.094-0.638,2.264-0.717c0.295-0.137,0.595-0.279,0.812-0.523
			c0.081-0.091,0.159-0.188,0.219-0.294l0.769-1.383c0.356-0.595-0.171,0.214,1.951-3.362c0.035-0.057,0.407-0.657,1.091-0.832
			c0.043-0.025,0.145-0.026,0.181-0.062L114.882,4.491z"/>
	</g>
	<g>
		<path class="st0" d="M124.165,2.566c-0.119-0.002-0.24-0.01-0.358-0.004c-0.26,0.014-0.862,0.102-0.892,0.105
			c-0.961,0.106-1.691,0.432-2.176,0.73c-0.486,0.296-0.728,0.576-0.728,0.576l-0.092,0.14l-1.225,1.908l-1.304,2.1
			c-0.095,0.155-0.186,0.313-0.287,0.464c-0.174,0.259-0.469,0.58-0.781,0.654c-0.094,0.022-0.245,0.035-0.271,0.056l0.01,0.035
			c0.132-0.002,0.265,0.009,0.395-0.009c0.352-0.048,2.124-0.534,2.298-0.604c0.303-0.122,0.609-0.249,0.841-0.483
			c0.087-0.087,0.17-0.18,0.236-0.284l0.852-1.346c0.39-0.569-0.154,0.224,2.174-3.169c0.038-0.056,0.446-0.637,1.139-0.778
			c0.045-0.023,0.146-0.019,0.184-0.052L124.165,2.566z"/>
		<path class="st0" d="M128.844,1.807c-0.12-0.008-0.24-0.022-0.359-0.021c-0.261,0.001-0.867,0.059-0.897,0.061
			c-1.926,0.187-2.931,1.291-2.931,1.291l-0.096,0.135l-1.29,1.839l-1.376,2.026c-0.1,0.15-0.197,0.302-0.303,0.447
			c-0.182,0.254-0.491,0.543-0.802,0.623c-0.094,0.022-0.245,0.035-0.271,0.056l0.009,0.036c0.131-0.002,0.263,0.01,0.392-0.008
			c0.352-0.041,2.147-0.429,2.323-0.492c0.307-0.107,0.619-0.218,0.859-0.439c0.09-0.082,0.177-0.171,0.246-0.271l0.899-1.298
			c0.406-0.571-0.16,0.225,2.26-3.181c0.04-0.053,0.468-0.613,1.166-0.719c0.046-0.021,0.147-0.011,0.186-0.043L128.844,1.807z"/>
	</g>
	<g>
		<path class="st0" d="M138.268,0.784c-0.119-0.014-0.238-0.034-0.356-0.039c-0.26-0.012-0.868,0.015-0.898,0.015
			c-0.967,0.011-1.725,0.255-2.236,0.512c-0.509,0.274-0.776,0.535-0.776,0.535l-0.105,0.13l-1.402,1.774l-1.499,1.957
			c-0.11,0.145-0.215,0.293-0.33,0.432c-0.198,0.24-0.523,0.53-0.84,0.572c-0.096,0.013-0.248,0.01-0.275,0.029l0.006,0.036
			c0.131,0.011,0.264,0.036,0.394,0.031c0.355-0.013,2.167-0.318,2.347-0.37c0.313-0.091,0.631-0.187,0.884-0.396
			c0.095-0.078,0.187-0.162,0.263-0.259l0.978-1.253c0.446-0.531-0.205,0.164,2.463-2.971c0.044-0.051,0.505-0.589,1.208-0.659
			c0.047-0.018,0.147-0.004,0.188-0.034L138.268,0.784z"/>
		<path class="st0" d="M142.997,0.454c-0.118-0.02-0.237-0.046-0.355-0.057c-0.26-0.034-0.867,0.008-0.897,0.004
			c-1.934,0.017-3.04,1.001-3.04,1.001l-0.109,0.124l-1.46,1.699l-1.563,1.876l-0.344,0.418c-0.205,0.241-0.537,0.532-0.855,0.574
			c-0.096,0.013-0.247,0.01-0.275,0.029l0.005,0.036c0.131,0.011,0.261,0.036,0.391,0.031c0.351-0.041,2.174-0.257,2.357-0.295
			c0.316-0.075,0.638-0.155,0.898-0.35c0.097-0.073,0.192-0.153,0.271-0.245L139.04,4.1c0.458-0.527-0.181,0.208,2.553-2.939
			c0.045-0.043,0.521-0.609,1.227-0.641c0.047-0.016,0.147,0.003,0.189-0.024L142.997,0.454z"/>
	</g>
	<g>
		<path class="st0" d="M152.474,0.333c-0.117-0.026-0.234-0.058-0.351-0.075c-0.258-0.038-0.865-0.073-0.895-0.076
			c-0.963-0.104-1.741,0.112-2.273,0.337c-0.533,0.222-0.823,0.454-0.823,0.454l-0.116,0.118l-1.563,1.624l-1.678,1.796
			c-0.123,0.133-0.242,0.269-0.369,0.397c-0.22,0.219-0.571,0.474-0.891,0.484c-0.097,0.003-0.248-0.015-0.277,0.001l0.003,0.037
			c0.13,0.024,0.259,0.062,0.389,0.071c0.355,0.023,2.188-0.097,2.372-0.131c0.32-0.059,0.646-0.122,0.918-0.304
			c0.102-0.068,0.201-0.143,0.286-0.231l1.092-1.148c0.242-0.251,0.194-0.202,0.446-0.464c0.255-0.243,0.8-0.884,2.284-2.296
			c0.048-0.047,0.558-0.535,1.264-0.534c0.048-0.014,0.147,0.011,0.19-0.015L152.474,0.333z"/>
		<path class="st0" d="M157.213,0.453c-0.116-0.026-0.232-0.058-0.349-0.075c-0.257-0.038-0.863-0.073-0.894-0.076
			c-1.926-0.179-3.12,0.69-3.12,0.69l-0.12,0.113l-1.612,1.543c-0.585,0.565-1.162,1.136-1.732,1.746
			c-0.127,0.133-0.25,0.27-0.381,0.397c-0.226,0.219-0.585,0.475-0.905,0.485c-0.097,0.003-0.247-0.015-0.277,0.001l0.002,0.037
			c0.129,0.024,0.257,0.062,0.387,0.071c0.354,0.029,2.189-0.115,2.375-0.108c0.322-0.043,0.649-0.089,0.927-0.257
			c0.104-0.063,0.206-0.132,0.293-0.216l1.127-1.092c0.505-0.478-0.199,0.189,2.816-2.667c0.05-0.047,0.575-0.535,1.282-0.533
			c0.049-0.014,0.146,0.011,0.191-0.014L157.213,0.453z"/>
	</g>
	<g>
		<path class="st0" d="M166.662,1.207c-0.114-0.037-0.227-0.081-0.342-0.11c-0.253-0.064-0.854-0.16-0.884-0.165
			c-1.913-0.28-3.16,0.528-3.16,0.528l-0.127,0.106l-1.708,1.458l-1.837,1.618c-0.135,0.12-0.266,0.244-0.405,0.358
			c-0.239,0.2-0.611,0.404-0.933,0.406c-0.097-0.002-0.246-0.027-0.276-0.013l0,0.037c0.127,0.031,0.253,0.075,0.382,0.09
			c0.352,0.041,2.186,0.12,2.373,0.1c0.324-0.026,0.654-0.056,0.942-0.21c0.107-0.057,0.214-0.122,0.306-0.201l1.194-1.033
			c0.535-0.452-0.211,0.178,2.981-2.518c0.053-0.053,0.606-0.483,1.309-0.412c0.049-0.009,0.145,0.026,0.191,0.005L166.662,1.207z"
			/>
		<path class="st0" d="M171.366,1.804c-0.113-0.037-0.226-0.081-0.34-0.11c-0.252-0.064-0.852-0.16-0.882-0.166
			c-1.9-0.372-3.169,0.372-3.169,0.372l-0.13,0.1l-1.75,1.377l-1.892,1.614c-0.139,0.12-0.274,0.243-0.417,0.357
			c-0.246,0.195-0.626,0.413-0.946,0.391c-0.096-0.007-0.244-0.039-0.275-0.027l-0.002,0.037c0.126,0.037,0.25,0.088,0.378,0.109
			c0.35,0.059,2.188,0.123,2.375,0.108c0.326-0.028,0.658-0.059,0.949-0.192c0.109-0.052,0.217-0.111,0.312-0.185l1.223-0.973
			c0.548-0.425-0.216,0.168,3.053-2.371c0.054-0.041,0.623-0.474,1.326-0.401c0.05-0.009,0.144,0.026,0.191,0.005L171.366,1.804z"/>
	</g>
	<g>
		<path class="st0" d="M180.708,3.421c-0.11-0.049-0.218-0.104-0.33-0.144c-0.245-0.091-0.842-0.207-0.871-0.217
			c-1.877-0.467-3.194,0.21-3.194,0.21l-0.136,0.093l-1.837,1.281l-1.98,1.426l-0.438,0.329c-0.258,0.182-0.652,0.38-0.971,0.342
			c-0.096-0.012-0.242-0.052-0.273-0.041l-0.004,0.036c0.124,0.044,0.244,0.1,0.371,0.128c0.173,0.042,0.719,0.087,1.241,0.154
			c0.521,0.075,1.022,0.138,1.116,0.14c0.325,0.006,0.656,0.01,0.956-0.114c0.112-0.046,0.224-0.1,0.323-0.169l1.285-0.908
			c0.575-0.396-0.227,0.156,3.204-2.208c0.055-0.032,0.656-0.456,1.348-0.317c0.05-0.004,0.142,0.04,0.189,0.024L180.708,3.421z"/>
		<path class="st0" d="M185.329,4.487c-0.109-0.049-0.217-0.104-0.328-0.144c-0.244-0.089-0.832-0.245-0.861-0.253
			c-1.854-0.561-3.187,0.054-3.187,0.054l-0.139,0.087c-0.627,0.389-1.255,0.801-1.879,1.234l-2.035,1.417
			c-0.149,0.105-0.296,0.215-0.448,0.313c-0.263,0.17-0.662,0.349-0.978,0.294c-0.095-0.016-0.239-0.064-0.271-0.055l-0.005,0.036
			c0.122,0.05,0.24,0.113,0.366,0.147c0.342,0.094,2.163,0.343,2.351,0.347c0.327,0.006,0.659,0.01,0.965-0.113
			c0.114-0.046,0.228-0.099,0.33-0.168l1.31-0.853c0.585-0.369-0.231,0.146,3.262-2.056c0.058-0.036,0.665-0.41,1.357-0.267
			c0.05-0.004,0.141,0.04,0.19,0.024L185.329,4.487z"/>
	</g>
	<g>
		<path class="st0" d="M194.479,6.973c-0.106-0.054-0.211-0.114-0.319-0.16c-0.239-0.101-0.818-0.286-0.847-0.296
			c-1.822-0.652-3.196-0.109-3.196-0.109l-0.144,0.079l-1.949,1.093c-0.711,0.41-1.407,0.799-2.112,1.249
			c-0.156,0.097-0.31,0.199-0.469,0.289c-0.274,0.156-0.685,0.314-0.998,0.244c-0.094-0.021-0.235-0.076-0.268-0.068l-0.007,0.036
			c0.119,0.056,0.233,0.124,0.357,0.165c0.338,0.107,2.145,0.447,2.323,0.496c0.322,0.039,0.651,0.075,0.962-0.019
			c0.116-0.035,0.232-0.077,0.338-0.136l1.365-0.777c0.61-0.337-0.24,0.133,3.398-1.88c0.06-0.033,0.692-0.374,1.376-0.197
			c0.051-0.001,0.139,0.047,0.188,0.034L194.479,6.973z"/>
		<path class="st0" d="M198.972,8.489c-0.104-0.059-0.206-0.125-0.312-0.176c-0.234-0.113-0.804-0.326-0.832-0.338
			c-1.79-0.742-3.174-0.262-3.174-0.262l-0.146,0.072c-0.665,0.34-1.336,0.711-1.995,1.069l-2.16,1.209
			c-0.159,0.09-0.315,0.184-0.476,0.268c-0.278,0.143-0.692,0.281-1.001,0.196c-0.093-0.026-0.232-0.087-0.264-0.082l-0.009,0.036
			c0.116,0.062,0.228,0.136,0.35,0.183c0.331,0.127,2.118,0.557,2.304,0.58c0.324,0.039,0.654,0.076,0.97-0.017
			c0.118-0.034,0.237-0.076,0.345-0.134c0.466-0.254,0.931-0.516,1.393-0.746c0.617-0.31-0.244,0.122,3.441-1.725
			c0.061-0.03,0.7-0.343,1.375-0.132c0.05,0.002,0.137,0.054,0.186,0.043L198.972,8.489z"/>
	</g>
	<g>
		<path class="st0" d="M207.84,11.846c-0.1-0.064-0.198-0.134-0.302-0.191c-0.228-0.124-0.786-0.365-0.814-0.378
			c-1.749-0.829-3.168-0.423-3.168-0.423l-0.151,0.065l-2.043,0.897c-0.74,0.323-1.487,0.688-2.228,1.058
			c-0.165,0.081-0.327,0.167-0.494,0.242c-0.288,0.128-0.711,0.245-1.015,0.144c-0.092-0.03-0.227-0.099-0.26-0.094l-0.011,0.035
			c0.113,0.067,0.22,0.147,0.339,0.199c0.323,0.148,2.092,0.651,2.27,0.703c0.317,0.07,0.64,0.139,0.958,0.076
			c0.119-0.023,0.238-0.054,0.349-0.102l1.432-0.639c0.639-0.276-0.252,0.109,3.56-1.539c0.063-0.027,0.724-0.305,1.387-0.061
			c0.051,0.004,0.134,0.061,0.184,0.052L207.84,11.846z"/>
		<path class="st0" d="M212.17,13.777c-0.097-0.069-0.192-0.144-0.293-0.205c-0.222-0.135-0.768-0.403-0.795-0.418
			c-1.709-0.913-3.133-0.568-3.133-0.568l-0.155,0.063l-2.09,0.878l-2.264,0.991c-0.166,0.074-0.33,0.153-0.499,0.22
			c-0.29,0.115-0.715,0.212-1.014,0.096c-0.09-0.035-0.222-0.11-0.255-0.107l-0.012,0.035c0.11,0.073,0.213,0.158,0.33,0.217
			c0.317,0.159,2.052,0.764,2.236,0.804c0.319,0.071,0.643,0.14,0.967,0.079c0.121-0.023,0.243-0.052,0.356-0.1l1.464-0.624
			c0.644-0.248-0.254,0.098,3.588-1.382c0.063-0.024,0.729-0.273,1.38,0.003c0.05,0.006,0.131,0.067,0.181,0.061L212.17,13.777z"/>
	</g>
	<g>
		<path class="st0" d="M220.674,17.97c-0.094-0.074-0.185-0.153-0.282-0.219c-0.215-0.146-0.747-0.44-0.773-0.456
			c-1.66-0.996-3.11-0.729-3.11-0.729l-0.157,0.05l-2.118,0.695c-0.767,0.249-1.557,0.566-2.325,0.851
			c-0.171,0.065-0.341,0.135-0.514,0.193c-0.298,0.099-0.731,0.174-1.024,0.044c-0.088-0.039-0.216-0.121-0.249-0.12l-0.014,0.034
			c0.106,0.078,0.205,0.168,0.318,0.232c0.309,0.175,2.013,0.863,2.195,0.913c0.313,0.091,0.625,0.198,0.948,0.164
			c0.12-0.012,0.242-0.03,0.357-0.068l1.485-0.498c0.662-0.213-0.261,0.084,3.688-1.187c0.065-0.021,0.749-0.233,1.385,0.074
			c0.05,0.009,0.127,0.073,0.178,0.07L220.674,17.97z"/>
		<path class="st0" d="M224.802,20.301c-0.09-0.078-0.178-0.162-0.272-0.233c-0.208-0.156-0.726-0.476-0.751-0.493
			c-0.804-0.537-1.572-0.757-2.136-0.84c-0.56-0.09-0.933-0.017-0.933-0.017l-0.16,0.048l-2.163,0.671l-2.346,0.767
			c-0.172,0.058-0.343,0.12-0.517,0.17c-0.299,0.086-0.731,0.142-1.018-0.003c-0.086-0.044-0.21-0.131-0.243-0.132l-0.015,0.033
			c0.102,0.083,0.197,0.178,0.307,0.248c0.3,0.19,1.968,0.96,2.146,1.019c0.31,0.101,0.626,0.202,0.954,0.173
			c0.122-0.011,0.246-0.028,0.363-0.065l1.517-0.482c0.677-0.2-0.282,0.057,3.706-1.038c0.065-0.018,0.751-0.201,1.372,0.136
			c0.049,0.011,0.124,0.079,0.174,0.078L224.802,20.301z"/>
	</g>
	<g>
		<path class="st0" d="M232.865,25.287c-0.086-0.082-0.169-0.17-0.26-0.245c-0.2-0.166-0.701-0.51-0.725-0.528
			c-1.556-1.152-3.024-1.026-3.024-1.026l-0.16,0.034l-2.173,0.488c-0.799,0.193-1.606,0.419-2.399,0.632
			c-0.177,0.048-0.352,0.101-0.53,0.142c-0.306,0.07-0.744,0.103-1.022-0.055c-0.084-0.048-0.203-0.141-0.237-0.143l-0.017,0.032
			c0.098,0.088,0.187,0.187,0.294,0.262c0.29,0.204,1.92,1.055,2.096,1.122c0.309,0.111,0.609,0.247,0.933,0.245
			c0.121,0,0.244-0.007,0.361-0.033l1.525-0.353c0.679-0.148-0.268,0.059,3.782-0.827c0.067-0.014,0.767-0.16,1.371,0.207
			c0.049,0.014,0.119,0.085,0.171,0.086L232.865,25.287z"/>
		<path class="st0" d="M236.754,27.997c-0.082-0.087-0.161-0.179-0.248-0.258c-0.192-0.176-0.676-0.544-0.7-0.563
			c-0.749-0.612-1.492-0.904-2.044-1.041c-0.552-0.138-0.931-0.099-0.931-0.099l-0.164,0.032l-2.215,0.461l-2.408,0.539
			c-0.177,0.041-0.353,0.086-0.531,0.12c-0.306,0.057-0.741,0.071-1.012-0.101c-0.082-0.052-0.197-0.151-0.229-0.155l-0.018,0.032
			c0.094,0.093,0.179,0.196,0.282,0.276c0.281,0.218,1.866,1.146,2.038,1.222c0.299,0.131,0.604,0.261,0.932,0.264
			c0.123,0.001,0.248-0.005,0.367-0.03l1.555-0.334c0.692-0.134-0.277,0.015,3.791-0.686c0.067-0.012,0.767-0.128,1.352,0.267
			c0.048,0.016,0.115,0.091,0.166,0.094L236.754,27.997z"/>
	</g>
	<g>
		<path class="st0" d="M244.307,33.727c-0.078-0.09-0.152-0.186-0.235-0.269c-0.183-0.184-0.649-0.575-0.671-0.595
			c-1.439-1.295-2.911-1.31-2.911-1.31l-0.163,0.019l-2.209,0.278l-2.452,0.406c-0.18,0.031-0.36,0.067-0.541,0.091
			c-0.311,0.041-0.75,0.031-1.012-0.153c-0.079-0.056-0.189-0.16-0.222-0.165l-0.02,0.031c0.089,0.097,0.169,0.204,0.268,0.289
			c0.27,0.231,1.81,1.234,1.978,1.318c0.296,0.142,0.591,0.293,0.91,0.327c0.12,0.011,0.243,0.017,0.363,0.001l1.551-0.205
			c0.689-0.083-0.272,0.033,3.841-0.463c0.068-0.008,0.779-0.086,1.344,0.337c0.047,0.018,0.111,0.096,0.161,0.102L244.307,33.727z"
			/>
		<path class="st0" d="M247.923,36.791c-0.074-0.094-0.143-0.193-0.223-0.281c-0.174-0.193-0.621-0.606-0.643-0.627
			c-0.687-0.681-1.399-1.042-1.935-1.231c-0.545-0.18-0.921-0.182-0.921-0.182l-0.166,0.017l-2.248,0.247l-2.447,0.306
			c-0.18,0.024-0.359,0.052-0.54,0.069c-0.31,0.028-0.744,0-0.997-0.197c-0.076-0.059-0.181-0.169-0.214-0.176l-0.021,0.03
			c0.084,0.101,0.16,0.213,0.254,0.302c0.259,0.244,1.748,1.32,1.912,1.411c0.285,0.159,0.576,0.318,0.902,0.352
			c0.122,0.013,0.247,0.019,0.368,0.006l1.579-0.184c0.698-0.064-0.271-0.018,3.842-0.328c0.067-0.005,0.775-0.055,1.32,0.395
			c0.046,0.02,0.106,0.101,0.156,0.11L247.923,36.791z"/>
	</g>
	<g>
		<path class="st0" d="M254.899,43.21c-0.069-0.097-0.134-0.199-0.208-0.29c-0.165-0.201-0.591-0.634-0.612-0.657
			c-1.309-1.427-2.772-1.581-2.772-1.581l-0.164,0.003l-2.228,0.071l-2.479,0.171c-0.182,0.014-0.365,0.033-0.547,0.039
			c-0.314,0.011-0.749-0.04-0.992-0.249c-0.074-0.063-0.173-0.177-0.205-0.186l-0.023,0.028c0.079,0.105,0.148,0.219,0.239,0.313
			c0.246,0.256,1.684,1.402,1.843,1.501c0.277,0.173,0.565,0.342,0.878,0.408c0.119,0.023,0.241,0.04,0.361,0.036l1.563-0.057
			c0.694-0.017-0.274,0.007,3.866-0.096c0.068-0.001,0.783-0.012,1.305,0.464c0.045,0.023,0.101,0.106,0.151,0.117L254.899,43.21z"
			/>
		<path class="st0" d="M258.211,46.601c-0.065-0.101-0.125-0.206-0.195-0.301c-0.155-0.209-0.561-0.662-0.58-0.686
			c-0.619-0.743-1.293-1.171-1.809-1.41c-0.533-0.223-0.903-0.265-0.903-0.265l-0.167,0.001l-2.26,0.033l-2.464,0.073
			c-0.181,0.006-0.363,0.018-0.543,0.017c-0.311-0.002-0.74-0.071-0.974-0.291c-0.07-0.066-0.164-0.186-0.196-0.195l-0.024,0.028
			c0.074,0.109,0.139,0.227,0.225,0.325c0.234,0.267,1.614,1.481,1.768,1.587c0.268,0.185,0.543,0.371,0.865,0.436
			c0.12,0.024,0.244,0.042,0.366,0.041l1.589-0.033c0.698,0.007-0.263-0.048,3.858,0.035c0.067,0.001,0.777,0.019,1.276,0.518
			c0.044,0.025,0.096,0.111,0.145,0.124L258.211,46.601z"/>
	</g>
	<g>
		<path class="st0" d="M264.547,53.652c-0.059-0.103-0.114-0.211-0.18-0.309c-0.145-0.216-0.528-0.688-0.546-0.712
			c-1.167-1.545-2.609-1.838-2.609-1.838l-0.163-0.012c-0.747-0.048-1.476-0.109-2.228-0.137l-2.483-0.064
			c-0.183-0.004-0.366-0.002-0.548-0.013c-0.313-0.019-0.741-0.111-0.964-0.342c-0.067-0.07-0.155-0.193-0.186-0.204l-0.026,0.026
			c0.069,0.112,0.127,0.233,0.208,0.335c0.221,0.278,1.542,1.556,1.692,1.67c0.257,0.201,0.533,0.392,0.839,0.486
			c0.116,0.034,0.236,0.062,0.356,0.07l1.561,0.091c0.692,0.049-0.273-0.019,3.857,0.271c0.068,0.005,0.78,0.062,1.255,0.585
			c0.043,0.027,0.09,0.116,0.139,0.131L264.547,53.652z"/>
		<path class="st0" d="M267.525,57.34c-0.055-0.106-0.104-0.217-0.165-0.318c-0.135-0.223-0.495-0.713-0.512-0.738
			c-0.547-0.797-1.172-1.291-1.67-1.573c-0.511-0.272-0.875-0.349-0.875-0.349l-0.166-0.015l-2.253-0.182l-2.459-0.161
			c-0.181-0.011-0.363-0.016-0.542-0.035c-0.309-0.031-0.73-0.141-0.941-0.382c-0.064-0.073-0.146-0.2-0.176-0.213l-0.027,0.025
			c0.064,0.116,0.116,0.239,0.193,0.345c0.208,0.288,1.466,1.628,1.609,1.748c0.249,0.21,0.505,0.421,0.819,0.516
			c0.117,0.036,0.239,0.065,0.361,0.075l1.584,0.118c0.69,0.076-0.252-0.078,3.84,0.397c0.067,0.008,0.771,0.092,1.22,0.637
			c0.041,0.029,0.085,0.12,0.133,0.137L267.525,57.34z"/>
	</g>
	<g>
		<path class="st0" d="M273.163,64.96c-0.049-0.109-0.093-0.221-0.149-0.325c-0.124-0.229-0.46-0.735-0.476-0.761
			c-1.014-1.649-2.421-2.078-2.421-2.078l-0.161-0.028c-0.741-0.117-1.453-0.252-2.208-0.344l-2.465-0.3
			c-0.182-0.021-0.364-0.037-0.544-0.065c-0.31-0.049-0.727-0.181-0.927-0.432c-0.06-0.076-0.136-0.207-0.166-0.221l-0.028,0.024
			c0.058,0.118,0.104,0.244,0.175,0.353c0.193,0.298,1.387,1.696,1.525,1.824c0.238,0.223,0.488,0.444,0.793,0.56
			c0.112,0.045,0.229,0.084,0.347,0.103l1.544,0.239c0.684,0.114-0.27-0.045,3.812,0.637c0.067,0.011,0.77,0.136,1.193,0.702
			c0.04,0.031,0.079,0.124,0.126,0.144L273.163,64.96z"/>
		<path class="st0" d="M275.78,68.912c-0.044-0.111-0.083-0.226-0.134-0.332c-0.113-0.235-0.425-0.757-0.439-0.784
			c-0.471-0.845-1.037-1.402-1.517-1.722c-0.482-0.319-0.837-0.431-0.837-0.431l-0.164-0.031l-2.224-0.395l-2.431-0.394
			c-0.179-0.028-0.359-0.051-0.536-0.086c-0.305-0.061-0.713-0.21-0.9-0.47c-0.057-0.078-0.126-0.213-0.155-0.229l-0.029,0.023
			c0.052,0.121,0.093,0.249,0.159,0.362c0.179,0.307,1.303,1.76,1.434,1.894c0.228,0.233,0.463,0.468,0.766,0.592
			c0.113,0.047,0.231,0.088,0.352,0.109l1.565,0.268c0.344,0.061,0.276,0.049,0.636,0.113c0.37,0.06,1.133,0.205,3.153,0.644
			c0.066,0.014,0.758,0.165,1.153,0.751c0.038,0.033,0.073,0.127,0.119,0.149L275.78,68.912z"/>
	</g>
	<g>
		<path class="st0" d="M280.669,77.035c-0.039-0.113-0.072-0.229-0.117-0.338c-0.101-0.239-0.387-0.776-0.401-0.803
			c-0.851-1.74-2.21-2.3-2.21-2.3l-0.158-0.043c-0.723-0.189-1.425-0.388-2.171-0.549l-2.424-0.533
			c-0.179-0.038-0.359-0.071-0.535-0.117c-0.303-0.078-0.706-0.25-0.881-0.518c-0.053-0.081-0.116-0.219-0.144-0.236l-0.03,0.021
			c0.046,0.123,0.08,0.253,0.141,0.368c0.164,0.315,1.218,1.821,1.343,1.961c0.217,0.244,0.441,0.491,0.739,0.632
			c0.114,0.052,0.222,0.104,0.339,0.134l1.513,0.385c0.669,0.179-0.264-0.071,3.731,0.997c0.066,0.018,0.754,0.209,1.12,0.813
			c0.037,0.035,0.067,0.131,0.112,0.155L280.669,77.035z"/>
		<path class="st0" d="M282.901,81.217c-0.033-0.115-0.061-0.233-0.102-0.344c-0.09-0.245-0.35-0.795-0.362-0.823
			c-0.744-1.793-2.143-2.364-2.143-2.364l-0.16-0.046l-2.175-0.606l-2.381-0.624c-0.176-0.045-0.352-0.085-0.525-0.137
			c-0.298-0.089-0.689-0.277-0.851-0.554c-0.049-0.084-0.105-0.225-0.132-0.243l-0.031,0.02c0.04,0.126,0.069,0.257,0.123,0.376
			c0.149,0.323,1.128,1.877,1.245,2.023c0.205,0.254,0.415,0.51,0.705,0.663c0.108,0.057,0.222,0.109,0.339,0.142l1.531,0.416
			c0.337,0.094,0.27,0.075,0.622,0.173c0.361,0.096,1.123,0.304,3.083,0.938c0.064,0.02,0.738,0.237,1.075,0.858
			c0.035,0.036,0.06,0.134,0.104,0.16L282.901,81.217z"/>
	</g>
	<g>
		<path class="st0" d="M286.989,89.771c-0.027-0.116-0.049-0.235-0.084-0.348c-0.077-0.248-0.31-0.81-0.321-0.839
			c-0.678-1.814-1.975-2.503-1.975-2.503l-0.153-0.058c-0.692-0.262-1.392-0.517-2.116-0.75l-2.36-0.763
			c-0.174-0.055-0.35-0.105-0.521-0.167c-0.294-0.107-0.678-0.316-0.826-0.6c-0.045-0.086-0.094-0.229-0.12-0.249l-0.032,0.018
			c0.034,0.127,0.056,0.259,0.104,0.38c0.133,0.329,1.036,1.93,1.147,2.081c0.193,0.264,0.391,0.531,0.674,0.7
			c0.106,0.063,0.217,0.122,0.334,0.161l1.469,0.528c0.649,0.242-0.256-0.096,3.615,1.351c0.063,0.024,0.729,0.28,1.035,0.917
			c0.033,0.038,0.054,0.137,0.096,0.165L286.989,89.771z"/>
		<path class="st0" d="M288.816,94.146c-0.022-0.118-0.038-0.238-0.068-0.352c-0.065-0.252-0.271-0.825-0.28-0.854
			c-0.293-0.923-0.751-1.573-1.176-1.973c-0.412-0.405-0.738-0.583-0.738-0.583l-0.154-0.061l-2.105-0.812l-2.308-0.85
			c-0.17-0.062-0.342-0.118-0.509-0.186c-0.287-0.118-0.659-0.342-0.792-0.633c-0.04-0.088-0.083-0.234-0.108-0.255l-0.033,0.017
			c0.028,0.129,0.043,0.263,0.086,0.386c0.117,0.336,0.94,1.977,1.043,2.134c0.179,0.272,0.364,0.548,0.637,0.728
			c0.102,0.067,0.21,0.13,0.324,0.174l1.483,0.561c0.326,0.125,0.261,0.101,0.602,0.232c0.34,0.135,1.104,0.404,2.987,1.225
			c0.062,0.026,0.711,0.307,0.986,0.958c0.031,0.039,0.047,0.139,0.088,0.17L288.816,94.146z"/>
	</g>
	<g>
		<path class="st0" d="M292.063,103.054c-0.016-0.118-0.026-0.239-0.05-0.354c-0.053-0.255-0.229-0.837-0.237-0.866
			c-0.497-1.872-1.72-2.683-1.72-2.683l-0.146-0.072c-0.657-0.329-1.36-0.639-2.046-0.945l-2.273-0.986
			c-0.168-0.072-0.338-0.138-0.502-0.216c-0.282-0.134-0.644-0.38-0.763-0.677c-0.036-0.09-0.071-0.237-0.096-0.26l-0.034,0.015
			c0.021,0.13,0.03,0.264,0.067,0.389c0.1,0.341,0.843,2.021,0.938,2.183c0.166,0.281,0.337,0.566,0.602,0.762
			c0.099,0.073,0.204,0.142,0.316,0.193c0.492,0.215,0.951,0.438,1.424,0.662c0.621,0.304-0.245-0.12,3.462,1.693
			c0.061,0.03,0.698,0.349,0.94,1.013c0.029,0.041,0.04,0.141,0.079,0.174L292.063,103.054z"/>
		<path class="st0" d="M293.468,107.581c-0.01-0.119-0.014-0.241-0.033-0.357c-0.04-0.257-0.188-0.848-0.194-0.878
			c-0.188-0.951-0.619-1.631-0.994-2.072c-0.37-0.443-0.677-0.651-0.677-0.651l-0.148-0.076l-2.014-1.011l-2.212-1.068
			c-0.163-0.078-0.329-0.151-0.488-0.235c-0.274-0.145-0.622-0.404-0.726-0.707c-0.032-0.091-0.059-0.241-0.083-0.264l-0.034,0.014
			c0.015,0.131,0.017,0.266,0.048,0.393c0.083,0.346,0.741,2.06,0.828,2.226c0.151,0.288,0.308,0.58,0.562,0.786
			c0.095,0.077,0.196,0.15,0.305,0.204l1.42,0.701c0.312,0.156,0.25,0.125,0.576,0.289c0.308,0.172,1.081,0.501,2.868,1.501
			c0.059,0.032,0.677,0.374,0.886,1.049c0.027,0.042,0.033,0.143,0.07,0.177L293.468,107.581z"/>
	</g>
	<g>
		<path class="st0" d="M295.84,116.761c-0.004-0.119-0.002-0.24-0.014-0.358c-0.027-0.259-0.145-0.856-0.15-0.886
			c-0.309-1.913-1.444-2.838-1.444-2.838l-0.138-0.086l-1.964-1.132l-2.163-1.201c-0.16-0.087-0.322-0.17-0.478-0.264
			c-0.268-0.161-0.603-0.44-0.692-0.748c-0.027-0.093-0.047-0.243-0.069-0.268l-0.035,0.011c0.009,0.131,0.004,0.265,0.028,0.394
			c0.066,0.349,0.639,2.095,0.718,2.265c0.137,0.296,0.28,0.596,0.524,0.817c0.091,0.082,0.189,0.161,0.295,0.222
			c0.455,0.265,0.936,0.518,1.373,0.79c0.588,0.362-0.232-0.143,3.275,2.019c0.057,0.036,0.659,0.415,0.834,1.1
			c0.025,0.044,0.026,0.145,0.062,0.181L295.84,116.761z"/>
		<path class="st0" d="M296.815,121.4c0.002-0.12,0.01-0.241,0.003-0.359c-0.014-0.26-0.102-0.863-0.106-0.893
			c-0.095-0.965-0.5-1.675-0.81-2.154c-0.324-0.477-0.609-0.714-0.609-0.714l-0.139-0.09l-1.902-1.2l-2.093-1.276
			c-0.155-0.093-0.312-0.182-0.462-0.281c-0.258-0.17-0.578-0.462-0.652-0.774c-0.019-0.095-0.045-0.243-0.065-0.268l-0.035,0.01
			c0.01,0.13,0.003,0.264,0.018,0.393c0.048,0.352,0.533,2.123,0.603,2.297c0.122,0.302,0.249,0.608,0.481,0.837
			c0.087,0.086,0.18,0.168,0.283,0.233l1.342,0.835c0.582,0.383-0.22-0.178,3.274,2.108c0.055,0.038,0.636,0.438,0.777,1.13
			c0.023,0.045,0.019,0.146,0.052,0.183L296.815,121.4z"/>
	</g>
	<g>
		<path class="st0" d="M298.291,130.765c0.008-0.119,0.022-0.24,0.021-0.358c-0.001-0.26-0.059-0.866-0.06-0.896
			c-0.058-0.965-0.346-1.71-0.62-2.209c-0.133-0.25-0.274-0.438-0.382-0.563c-0.106-0.125-0.174-0.189-0.174-0.189l-0.135-0.098
			l-1.843-1.315l-2.031-1.403c-0.15-0.102-0.303-0.201-0.449-0.309c-0.25-0.186-0.555-0.496-0.614-0.812
			c-0.018-0.095-0.023-0.247-0.042-0.273l-0.036,0.008c-0.005,0.132-0.023,0.265-0.011,0.395c0.031,0.354,0.427,2.148,0.488,2.325
			c0.107,0.308,0.219,0.621,0.44,0.864c0.083,0.091,0.172,0.179,0.271,0.25l1.302,0.916c0.569,0.418-0.203-0.192,3.072,2.321
			c0.054,0.041,0.614,0.476,0.719,1.175c0.021,0.046,0.011,0.146,0.043,0.186L298.291,130.765z"/>
		<path class="st0" d="M298.834,135.473c0.014-0.119,0.034-0.239,0.039-0.357c0.012-0.261-0.013-0.869-0.024-0.898
			c-0.114-1.931-1.154-2.989-1.154-2.989l-0.129-0.103l-1.772-1.377l-1.953-1.472c-0.145-0.107-0.292-0.211-0.431-0.324
			c-0.233-0.195-0.538-0.514-0.599-0.829c-0.018-0.095-0.023-0.246-0.043-0.273l-0.036,0.007c-0.005,0.131-0.023,0.263-0.011,0.392
			c0.059,0.349,0.33,2.164,0.392,2.342c0.091,0.312,0.187,0.629,0.395,0.88c0.078,0.094,0.162,0.185,0.258,0.259l1.251,0.96
			c0.55,0.432-0.217-0.171,3.065,2.41c0.06,0.042,0.616,0.494,0.677,1.197c0.018,0.047,0.004,0.147,0.034,0.188L298.834,135.473z"/>
	</g>
	<g>
		<path class="st0" d="M299.405,144.935c0.02-0.118,0.046-0.236,0.057-0.354c0.025-0.259,0.029-0.867,0.03-0.898
			c0.036-0.966-0.158-1.735-0.423-2.256c-0.248-0.522-0.495-0.801-0.495-0.801l-0.124-0.111l-1.701-1.485l-1.879-1.591
			c-0.139-0.116-0.281-0.229-0.415-0.35c-0.23-0.209-0.502-0.547-0.529-0.867c-0.008-0.096,0.002-0.248-0.015-0.276l-0.036,0.005
			c-0.018,0.131-0.049,0.262-0.051,0.392c-0.005,0.355,0.208,2.18,0.251,2.363c0.075,0.317,0.155,0.639,0.35,0.902
			c0.073,0.098,0.153,0.194,0.245,0.275l1.202,1.036c0.263,0.23,0.211,0.184,0.486,0.424c0.279,0.243,0.893,0.759,2.381,2.175
			c0.049,0.046,0.563,0.532,0.597,1.238c0.016,0.048-0.004,0.147,0.024,0.189L299.405,144.935z"/>
		<path class="st0" d="M299.524,149.674c0.02-0.117,0.046-0.235,0.058-0.352c0.025-0.258,0.029-0.866,0.031-0.896
			c0.081-1.933-0.846-3.084-0.846-3.084l-0.118-0.114l-1.623-1.538c-0.601-0.558-1.188-1.107-1.803-1.65
			c-0.139-0.12-0.282-0.237-0.416-0.362c-0.231-0.216-0.504-0.562-0.53-0.881c-0.008-0.096,0.002-0.247-0.015-0.276l-0.036,0.004
			c-0.018,0.13-0.049,0.259-0.051,0.39c-0.002,0.177,0.05,0.723,0.108,1.247c0.041,0.525,0.072,1.029,0.091,1.121
			c0.059,0.32,0.122,0.644,0.304,0.913c0.068,0.101,0.143,0.199,0.23,0.282l1.148,1.074c0.503,0.482-0.199-0.19,2.806,2.688
			c0.049,0.047,0.563,0.549,0.597,1.255c0.016,0.048-0.004,0.147,0.024,0.19L299.524,149.674z"/>
	</g>
</g>
</svg>
