<?xml version="1.0" encoding="utf-8"?>
<!-- Generator: Adobe Illustrator 17.0.0, SVG Export Plug-In . SVG Version: 6.00 Build 0)  -->
<!DOCTYPE svg PUBLIC "-//W3C//DTD SVG 1.1//EN" "http://www.w3.org/Graphics/SVG/1.1/DTD/svg11.dtd">
<svg version="1.1" id="Capa_1" xmlns="http://www.w3.org/2000/svg" xmlns:xlink="http://www.w3.org/1999/xlink" x="0px" y="0px"
	 width="190.541px" height="225.135px" viewBox="99.23 4.243 190.541 225.135"
	 style="enable-background:new 99.23 4.243 190.541 225.135;" xml:space="preserve">
<style type="text/css">
	.st0{fill:#B27D3D;}
	.st1{fill:#EAC765;}
</style>
<g>
	<g>
		<g id="JymDbI_29_">
			<g>
				<path class="st0" d="M287.667,68.393c-0.683,0.667-1.27,1.386-2.067,1.992c-2.613,1.987-5.574,3.763-8.977,5.178
					c-2.502,1.041-5.065,2.086-8.071,2.484c-1.123,0.149-2.28,0.265-3.423,0.272c-4.933,0.03-9.867,0.011-14.801,0.016
					c-6.481,0.007-12.961,0.031-19.442,0.03c-38.677-0.007-77.355-0.02-116.032-0.017c-0.633,0-7.239-0.001-11.939,2.548
					c-0.411,0.123-0.907,0.57-1.364,0.631c-0.072-0.065-0.144-0.13-0.216-0.195c0.613-0.52,1.185-1.065,1.852-1.552
					c11.683-8.531,22.059-8.365,23.265-8.365c33.629,0,67.257-0.001,100.886-0.006c6.974-0.001,13.949-0.025,20.923-0.024
					c7.689,0.001,15.379,0.02,23.068,0.029c1.709,0.002,3.419,0.034,5.125-0.011c2.936-0.077,6.988-0.591,9.16-1.958
					c0.655-0.412,1.523-1.145,1.819-1.212C287.512,68.287,287.589,68.34,287.667,68.393z"/>
			</g>
		</g>
		<g id="JymDbI_27_">
			<g>
				<path class="st0" d="M276.566,60.462c0.218,0.933,0.53,1.809,0.636,2.809c0.348,3.277,0.335,6.744-0.216,10.407
					c-0.405,2.693-0.837,5.441-2.055,8.237c-0.455,1.045-0.955,2.101-1.541,3.09c-2.531,4.268-5.105,8.511-7.658,12.766
					c-3.353,5.59-6.692,11.188-10.052,16.773c-20.054,33.335-40.113,66.666-60.16,100.005c-0.328,0.545-3.753,6.239-4.005,11.604
					c-0.108,0.417,0.018,1.076-0.166,1.501c-0.093,0.029-0.186,0.057-0.279,0.086c-0.128-0.796-0.298-1.571-0.37-2.396
					c-1.255-14.466,4.266-23.325,4.891-24.365c17.431-28.986,34.862-57.973,52.289-86.961c3.614-6.012,7.209-12.036,10.825-18.047
					c3.987-6.627,7.988-13.246,11.982-19.869c0.887-1.472,1.801-2.93,2.647-4.423c1.456-2.57,3.116-6.328,3.07-8.904
					c-0.014-0.777-0.192-1.903-0.095-2.193C276.395,60.542,276.48,60.502,276.566,60.462z"/>
			</g>
		</g>
		<g id="JymDbI_26_">
			<g>
				<path class="st0" d="M203.451,208.803c-0.897-0.224-1.794-0.344-2.692-0.691c-2.942-1.138-5.862-2.663-8.676-4.727
					c-2.069-1.518-4.17-3.082-5.916-5.329c-0.652-0.84-1.292-1.722-1.831-2.649c-2.325-3.997-4.607-8.02-6.91-12.03
					c-3.026-5.267-6.066-10.526-9.085-15.797c-18.016-31.46-36.026-62.923-54.05-94.378c-0.295-0.514-3.372-5.888-7.774-8.444
					c-0.298-0.273-0.917-0.454-1.183-0.796c0.023-0.091,0.046-0.182,0.069-0.273c0.737,0.24,1.476,0.435,2.209,0.735
					c12.845,5.261,17.537,13.783,18.099,14.764c15.669,27.35,31.339,54.7,47.012,82.048c3.251,5.672,6.521,11.332,9.77,17.005
					c3.582,6.254,7.149,12.518,10.723,18.776c0.794,1.391,1.564,2.798,2.398,4.163c1.435,2.35,3.769,5.39,5.967,6.477
					c0.663,0.328,1.703,0.669,1.899,0.877C203.469,208.624,203.459,208.714,203.451,208.803z"/>
			</g>
		</g>
	</g>
	<g>
		<g id="JymDbI_25_">
			<g>
				<path class="st1" d="M101.334,165.228c0.683-0.667,1.27-1.386,2.067-1.992c2.613-1.987,5.574-3.763,8.977-5.178
					c2.502-1.041,5.065-2.086,8.071-2.484c1.123-0.149,2.28-0.265,3.423-0.272c4.933-0.03,9.867-0.011,14.801-0.016
					c6.481-0.007,12.961-0.031,19.442-0.03c38.677,0.007,77.355,0.02,116.032,0.017c0.633,0,7.239,0.001,11.939-2.548
					c0.411-0.123,0.907-0.57,1.364-0.631c0.072,0.065,0.144,0.13,0.216,0.195c-0.613,0.52-1.185,1.065-1.852,1.552
					c-11.683,8.531-22.059,8.365-23.265,8.365c-33.629,0-67.257,0.001-100.886,0.006c-6.974,0.001-13.949,0.025-20.923,0.024
					c-7.689-0.001-15.379-0.02-23.068-0.029c-1.709-0.002-3.419-0.034-5.125,0.011c-2.936,0.077-6.988,0.591-9.16,1.958
					c-0.655,0.412-1.523,1.145-1.819,1.212C101.489,165.334,101.411,165.281,101.334,165.228z"/>
			</g>
		</g>
		<g id="JymDbI_23_">
			<g>
				<path class="st1" d="M112.434,173.159c-0.218-0.933-0.53-1.809-0.636-2.809c-0.348-3.277-0.335-6.744,0.216-10.407
					c0.405-2.693,0.837-5.441,2.055-8.237c0.455-1.045,0.955-2.101,1.541-3.09c2.531-4.268,5.105-8.511,7.658-12.766
					c3.353-5.59,6.692-11.188,10.052-16.773c20.054-33.335,40.113-66.666,60.16-100.005c0.328-0.545,3.753-6.239,4.005-11.604
					c0.108-0.417-0.018-1.076,0.166-1.501c0.093-0.029,0.186-0.057,0.279-0.086c0.128,0.796,0.298,1.571,0.37,2.396
					c1.255,14.466-4.266,23.325-4.891,24.365c-17.431,28.986-34.862,57.973-52.289,86.961c-3.614,6.012-7.209,12.036-10.825,18.047
					c-3.987,6.627-7.988,13.246-11.982,19.869c-0.887,1.472-1.801,2.93-2.647,4.423c-1.456,2.57-3.116,6.328-3.07,8.904
					c0.014,0.777,0.192,1.903,0.095,2.193C112.605,173.08,112.52,173.119,112.434,173.159z"/>
			</g>
		</g>
		<g id="JymDbI_22_">
			<g>
				<path class="st1" d="M185.549,24.818c0.897,0.224,1.794,0.344,2.692,0.691c2.942,1.138,5.862,2.663,8.676,4.727
					c2.069,1.518,4.17,3.082,5.916,5.329c0.652,0.84,1.292,1.722,1.831,2.649c2.325,3.997,4.607,8.02,6.91,12.03
					c3.026,5.267,6.066,10.526,9.085,15.797c18.016,31.46,36.026,62.923,54.05,94.378c0.295,0.514,3.372,5.888,7.774,8.444
					c0.298,0.273,0.917,0.454,1.183,0.796c-0.023,0.091-0.046,0.182-0.069,0.273c-0.737-0.24-1.476-0.435-2.209-0.735
					c-12.845-5.261-17.537-13.783-18.099-14.764c-15.669-27.35-31.339-54.7-47.012-82.048c-3.251-5.672-6.521-11.332-9.77-17.005
					c-3.582-6.254-7.149-12.518-10.723-18.776c-0.794-1.391-1.564-2.798-2.398-4.163c-1.435-2.35-3.769-5.39-5.967-6.477
					c-0.663-0.328-1.703-0.669-1.899-0.877C185.53,24.997,185.54,24.908,185.549,24.818z"/>
			</g>
		</g>
	</g>
</g>
</svg>
