<?xml version="1.0" encoding="utf-8"?>
<!-- Generator: Adobe Illustrator 17.0.0, SVG Export Plug-In . SVG Version: 6.00 Build 0)  -->
<!DOCTYPE svg PUBLIC "-//W3C//DTD SVG 1.1//EN" "http://www.w3.org/Graphics/SVG/1.1/DTD/svg11.dtd">
<svg version="1.1" id="Capa_1" xmlns="http://www.w3.org/2000/svg" xmlns:xlink="http://www.w3.org/1999/xlink" x="0px" y="0px"
	 width="300px" height="300px" viewBox="0 0 300 300" style="enable-background:new 0 0 300 300;" xml:space="preserve">
<style type="text/css">
	.st0{fill:#D8D8D8;}
	.st1{fill:#CC9752;}
	.st2{fill:#F4D68C;}
</style>
<g>
	<g>
		<path class="st0" d="M207.639,30.625l0.578-1.207l-2.469-1.115l3.949-8.704l-1.016-0.459c0,0-0.742,0.381-1.856,0.952
			c-1.1,0.559-2.569,1.366-4.017,2.21c-2.896,1.664-5.632,3.391-5.632,3.391l-0.159,0.425c0,0,1.554,0.613,3.107,1.226
			c0.776,0.31,1.558,0.604,2.134,0.849c0.571,0.258,0.951,0.431,0.951,0.431l-1.398,3.222c0,0-0.675-0.124-1.349-0.249
			c-0.683-0.095-1.367-0.19-1.367-0.19l-0.199,0.486c0,0,0.418,0.164,1.045,0.41c0.628,0.244,1.435,0.64,2.256,1.002
			c1.637,0.739,3.273,1.478,3.273,1.478l0.226-0.474l-1.952-1.589l1.451-3.199L207.639,30.625z M206.357,21.367l-2.616,6.028
			c0,0-1.131-0.538-2.306-0.974c-1.165-0.459-2.329-0.918-2.329-0.918s1.758-1.073,3.58-2.12
			C204.512,22.309,206.357,21.367,206.357,21.367z"/>
		<path class="st0" d="M212.301,38.309c0,0,0.627,0.361,1.567,0.903c0.933,0.553,2.212,1.235,3.435,2.007
			c1.218,0.781,2.436,1.563,3.349,2.149c0.457,0.292,0.838,0.536,1.105,0.706c0.269,0.166,0.412,0.278,0.412,0.278l2.872-3.849
			l-0.452-0.316l-3.446,2.446c0,0-1.151-0.738-2.302-1.475c-0.575-0.37-1.15-0.739-1.581-1.016
			c-0.445-0.255-0.741-0.425-0.741-0.425l3.633-6.068c0,0,0.76,0.415,1.479,0.897c0.728,0.467,1.457,0.934,1.457,0.934l-0.555,2.453
			l0.446,0.286l3.042-4.691l-0.465-0.298l-2.007,1.523c0,0-0.733-0.47-1.466-0.94c-0.724-0.485-1.488-0.903-1.488-0.903l3.24-5.412
			c0,0,0.325,0.187,0.812,0.468c0.473,0.303,1.104,0.707,1.735,1.111c1.262,0.809,2.523,1.618,2.523,1.618l-0.764,3.37l0.551,0.358
			l2.316-3.424c0,0-2.702-1.735-5.404-3.47c-1.363-0.849-2.775-1.616-3.812-2.227c-1.044-0.6-1.741-1-1.741-1l-0.255,0.46
			l1.836,1.745l-6.87,11.927l-2.209-0.583L212.301,38.309z"/>
		<path class="st0" d="M236.636,36.431l2.439,1.155l0.326-0.413c0,0-1.485-1.16-2.97-2.321c-1.535-1.093-3.071-2.186-3.071-2.186
			l-0.303,0.43l1.652,1.91l-8.13,11.106l-2.15-0.795l-0.303,0.429c0,0,0.59,0.419,1.475,1.048c0.441,0.316,0.956,0.684,1.508,1.079
			c0.533,0.42,1.102,0.868,1.67,1.315c1.137,0.895,2.275,1.791,3.128,2.462c0.82,0.712,1.366,1.186,1.366,1.186l3.275-3.516
			l-0.417-0.361l-3.656,2.014l-4.297-3.383L236.636,36.431z"/>
		<path class="st0" d="M234.826,54.181c0,0,0.548,0.473,1.369,1.183c0.808,0.725,1.837,1.744,2.891,2.736
			c1.053,0.993,2.102,1.991,2.831,2.797c0.749,0.786,1.248,1.31,1.248,1.31l3.631-3.151l-0.38-0.399l-3.862,1.628
			c0,0-0.236-0.248-0.589-0.619c-0.344-0.381-0.843-0.849-1.339-1.319c-0.99-0.943-1.98-1.887-1.98-1.887l4.846-5.152l2.505,2.388
			l-1.057,2.268l0.365,0.384l3.973-3.934l-0.381-0.399l-2.295,1.069l-2.521-2.403l4.322-4.595c0,0,1.084,1.034,2.169,2.068
			c1.104,1.014,2.115,2.121,2.115,2.121l-1.486,3.15l0.453,0.475l2.994-2.851c0,0-0.554-0.581-1.385-1.452
			c-0.811-0.891-1.98-1.992-3.143-3.098c-1.167-1.102-2.312-2.229-3.209-3.031c-0.909-0.789-1.516-1.315-1.516-1.315l-0.347,0.395
			l1.455,2.057l-9.261,10.182l-2.069-1.002L234.826,54.181z"/>
		<path class="st0" d="M256.104,76.248l11.267-7.905l1.914,1.662l0.436-0.295l-3.253-4.577c0,0-3.296,0.865-6.6,1.89
			c-3.293,1.002-6.51,2.1-6.51,2.1s1.762-2.951,3.44-6.006c1.67-3.031,3.208-6.126,3.208-6.126s-0.859-0.992-1.719-1.984
			c-0.43-0.496-0.86-0.991-1.183-1.363c-0.326-0.369-0.559-0.601-0.559-0.601l-0.388,0.356c0,0,0.322,0.539,0.605,1.11
			c0.29,0.563,0.58,1.126,0.58,1.126l-10.338,9.157c0,0-0.464-0.327-0.928-0.653c-0.455-0.334-0.946-0.631-0.946-0.631l-0.387,0.355
			c0,0,0.246,0.235,0.575,0.624c0.333,0.385,0.777,0.899,1.221,1.412c0.889,1.026,1.778,2.052,1.778,2.052l0.402-0.338l-1.029-2.027
			l9.601-8.367c0,0-1.679,3.418-3.462,6.713c-0.878,1.643-1.815,3.294-2.528,4.52c-0.715,1.219-1.192,2.031-1.192,2.031l0.498,0.635
			c0,0,3.701-1.276,7.504-2.42c1.908-0.583,3.805-1.116,5.228-1.497c1.433-0.378,2.388-0.63,2.388-0.63l-10.883,7.911
			c0,0-0.44-0.363-0.881-0.725c-0.431-0.368-0.896-0.708-0.896-0.708l-0.419,0.316c0,0,0.263,0.314,0.61,0.82
			c0.355,0.5,0.828,1.166,1.301,1.833c0.949,1.332,1.897,2.663,1.897,2.663l0.435-0.294L256.104,76.248z"/>
		<path class="st0" d="M257.457,80.233c0,0,0.39,0.609,0.976,1.523c0.578,0.919,1.398,2.113,2.09,3.385
			c0.721,1.254,1.443,2.508,1.984,3.449c0.277,0.467,0.494,0.863,0.631,1.149c0.144,0.282,0.226,0.443,0.226,0.443l4.336-2.066
			l-0.251-0.491c0,0-1.036,0.127-2.072,0.254c-1.047,0.145-2.094,0.291-2.094,0.291l-2.726-4.739l6.043-3.674l1.726,2.999
			l-1.63,1.909l0.264,0.459l4.878-2.732l-0.275-0.479l-2.49,0.414l-1.737-3.018l5.39-3.277l2.991,5.196l-2.253,2.628l0.3,0.584
			l3.646-1.949c0,0-0.344-0.727-0.959-1.763c-0.6-1.044-1.4-2.436-2.201-3.828c-0.773-1.409-1.681-2.735-2.321-3.755
			c-0.65-1.014-1.083-1.689-1.083-1.689l-0.44,0.288l0.823,2.392l-11.639,7.347l-1.694-1.538L257.457,80.233z"/>
		<path class="st0" d="M269.874,105.078l14.171-5.357c0,0,0.353,0.523,0.707,1.046c0.349,0.526,0.664,1.066,0.664,1.066l0.495-0.177
			c0,0-0.125-0.369-0.314-0.924c-0.214-0.545-0.5-1.271-0.785-1.997c-0.572-1.452-1.145-2.903-1.145-2.903l-0.487,0.199l0.439,2.609
			l-10.227,3.962c0,0,2.036-3.089,3.946-6.364c1.846-3.225,3.602-6.65,3.602-6.65s-0.134-0.295-0.334-0.736
			c-0.203-0.441-0.456-1.037-0.762-1.607c-0.589-1.152-1.178-2.303-1.178-2.303l-0.469,0.239l0.584,2.453l-12.409,6.062l-1.5-1.718
			l-0.468,0.238c0,0,0.633,1.233,1.266,2.466c0.572,1.262,1.144,2.524,1.144,2.524l0.478-0.218l-0.457-2.351l11.769-5.631
			c0,0-2.072,4.116-4.274,7.944c-1.08,1.915-2.319,3.829-3.198,5.212c-0.902,1.376-1.504,2.294-1.504,2.294L269.874,105.078z"/>
		<path class="st0" d="M289.345,116.207l-2.884,1.952l0.148,0.64l4.029-0.925c0,0-0.211-0.911-0.526-2.277
			c-0.279-1.375-0.838-3.162-1.336-4.963c-0.507-1.8-1.009-3.601-1.49-4.919c-0.449-1.328-0.748-2.214-0.748-2.214l-3.91,1.341
			l0.211,0.622l3.476,0.136c0,0,0.345,1.022,0.69,2.045c0.296,1.038,0.592,2.075,0.592,2.075l-13.432,3.958
			c0,0-0.305-0.528-0.609-1.056c-0.293-0.53-0.63-1.044-0.63-1.044l-0.501,0.158c0,0,0.149,0.402,0.314,1.024
			c0.175,0.619,0.409,1.444,0.642,2.269c0.467,1.65,0.934,3.299,0.934,3.299l0.509-0.13l-0.068-2.435l13.498-3.73
			c0,0,0.294,1.038,0.588,2.076C289.119,115.152,289.345,116.207,289.345,116.207z"/>
		<path class="st0" d="M276.486,130.615c0.325,2.487,1.462,4.252,3.119,5.381c1.674,1.121,3.734,1.613,6.073,1.397
			c2.35-0.218,4.443-1.023,5.749-2.518c1.32-1.491,1.951-3.691,1.579-6.59c-0.491-2.802-1.77-4.765-3.48-5.866
			c-1.702-1.108-3.942-1.339-6.202-0.853c-2.338,0.502-4.209,1.514-5.467,3.02C276.599,126.097,276.028,128.079,276.486,130.615z
			 M277.336,130.813c-0.593-3.403,1.529-5.871,6.476-6.865c4.263-0.859,7.703,0.578,8.329,4.101
			c0.526,3.875-1.707,6.395-6.715,6.926C281.102,135.432,277.729,133.939,277.336,130.813z"/>
		<path class="st0" d="M282.733,150.161c5.158,0.039,4.395-8.21,8.255-8.465c1.645-0.103,2.747,1.183,2.763,2.846
			c0.06,2.336-1.467,3.451-3.489,3.801l0.021,0.859l3.586,0.053c0.331-1.14,0.691-2.997,0.652-4.508
			c-0.023-0.761-0.132-1.475-0.356-2.111c-0.242-0.635-0.573-1.194-0.985-1.648c-0.824-0.91-1.969-1.4-3.375-1.295
			c-2.402,0.185-3.272,2.313-4.215,4.382c-0.958,2.077-1.833,4.093-3.888,4.117c-1.84,0.02-3.003-1.472-3.047-3.299
			c-0.011-1.265,0.366-2.097,1.075-2.712c0.711-0.615,1.741-1.01,2.923-1.381l-0.064-0.836l-4.011,0.514
			c-0.498,1.32-0.735,2.809-0.741,4.193C277.916,147.951,280.033,150.144,282.733,150.161z"/>
	</g>
	<g>
		<path class="st1" d="M69.815,25.133c0.418,0.181,0.787,0.356,1.169,0.507c0.7,0.277,1.397,0.554,2.101,0.811
			c0.502,0.183,1.03,0.306,1.527,0.493c0.93,0.346,1.863,0.693,2.766,1.143c0.908,0.446,1.756,0.986,2.635,1.467
			c0.59,0.323,1.214,0.588,1.799,0.912c0.685,0.379,1.347,0.791,2.01,1.195c0.662,0.402,1.324,0.799,1.967,1.221
			c0.743,0.489,1.472,0.972,2.183,1.515c0.485,0.373,0.647,0.866,0.483,1.47c-0.432,1.66-0.891,3.282-1.538,4.811
			c-0.061,0.145-0.151,0.276-0.259,0.472c-0.17-0.758-0.683-1.13-1.244-1.483c-1.337-0.835-2.696-1.74-4.056-2.504
			c-0.77-0.438-1.593-0.787-2.387-1.198l-3.198-1.662c-0.488-0.243-0.995-0.454-1.497-0.678l-0.072,0.08l0.189,0.32l3.152,4.781
			c0.227,0.337,0.268,0.661,0.195,1.029c-0.331,1.567-0.548,3.202-0.834,4.792c-0.185,1.025-0.494,2.013-0.715,3.012
			c-0.163,0.755-0.68,1.194-1.252,1.615l-1.889,1.452c-1.499,1.171-3.007,2.331-4.419,3.608c-1.43,1.254-2.907,2.456-4.256,3.799
			c-0.299,0.284-0.542,0.59-0.668,0.987c-0.021,0.066-0.065,0.123-0.178,0.179c-0.03-0.206-0.081-0.413-0.085-0.618
			c-0.02-1.548,0.031-3.139,0.308-4.681c0.143-0.749,0.47-1.367,1.088-1.867c1.094-0.874,2.108-1.845,3.199-2.723
			c0.229-0.177,0.347-0.373,0.405-0.667c0.14-0.717,0.347-1.425,0.53-2.143c0.122-0.478-0.254-1.06-0.715-1.24
			c-1.011-0.396-2.11-0.394-3.168-0.63c-0.795-0.172-1.609-0.413-2.405-0.514c-1.706-0.234-3.445-0.401-5.204-0.568
			c-0.748-0.071-1.508-0.112-2.254-0.225c-0.447-0.068-0.895-0.21-1.293-0.405c-0.43-0.211-0.548-0.652-0.504-1.127
			c0.16-1.77,0.439-3.556,0.97-5.344c0.043-0.146,0.121-0.286,0.181-0.425c0.053,0.009,0.087,0.005,0.094,0.017
			c0.421,0.766,1.242,0.83,2.012,0.925l4.942,0.678c0.601,0.088,1.211,0.127,1.803,0.233c0.748,0.133,1.477,0.334,2.217,0.469
			c0.958,0.172,1.925,0.292,2.893,0.519c0.75,0.168,1.532,0.396,1.767,1.199c0.167,0.569,0.221,1.208,0.165,1.799
			c-0.181,1.973-0.559,3.959-0.98,5.863c-0.027,0.137-0.053,0.275-0.093,0.479c0.129-0.086,0.209-0.132,0.28-0.188l2.67-2.101
			c0.904-0.682,1.843-1.317,2.765-1.974c0.259-0.182,0.244-0.312,0.076-0.549L67.73,32.928c-0.072-0.102-0.125-0.238-0.128-0.365
			c-0.034-1.153,0.286-2.294,0.595-3.436c0.255-0.996,0.66-1.907,1.034-2.862C69.383,25.884,69.61,25.523,69.815,25.133z"/>
		<path class="st1" d="M88.141,41.33c0.021-0.212,0.023-0.43,0.069-0.636c0.395-1.718,0.884-3.486,1.66-5.065l0.132-0.262
			c0.249-0.499,0.59-0.892,1.134-1.116c0.524-0.216,1.025-0.494,1.517-0.778c0.163-0.094,0.328-0.27,0.389-0.446
			c0.474-1.418,1.028-2.749,1.508-4.149c0.304-0.883,0.266-1.775-0.447-2.511c-0.407-0.419-0.779-0.878-1.224-1.258
			c-0.533-0.455-1.123-0.851-1.703-1.259c-1.051-0.738-2.115-1.495-3.199-2.148c-0.561-0.343-1.201-0.574-1.787-0.892
			c-0.404-0.219-0.775-0.492-1.147-0.76c-0.505-0.364-0.569-0.871-0.355-1.454c0.63-1.745,1.375-3.465,2.434-5.034
			c0.085-0.129,0.197-0.245,0.307-0.378c0.04,0.039,0.082,0.061,0.08,0.082c-0.084,0.683,0.398,1.01,0.911,1.313l1.391,0.816
			c0.754,0.451,1.521,0.881,2.232,1.373c1.029,0.713,2.009,1.477,2.993,2.226c0.372,0.285,0.794,0.545,1.111,0.882
			c0.393,0.42,0.723,0.897,1.043,1.371c0.338,0.501,0.33,1.078,0.204,1.638c-0.146,0.632-0.274,1.292-0.515,1.914
			c-1.037,2.627-2.041,5.199-2.947,7.745c-0.022,0.08-0.044,0.161-0.083,0.303c0.161-0.069,0.266-0.115,0.372-0.16
			c2.714-1.191,5.37-2.517,8.155-3.538c0.081-0.032,0.165-0.06,0.242-0.102c0.382-0.207,0.48-0.482,0.322-0.889l-4.631-11.845
			c-0.113-0.286-0.148-0.556-0.008-0.844c0.526-1.078,1.035-2.175,1.64-3.241c0.507-0.854,1.112-1.658,1.726-2.467
			c0.157-0.207,0.442-0.387,0.704-0.477c4.28-1.445,2.739-0.997,7.083-2.237l4.164-1.243c0.22-0.057,0.413-0.21,0.614-0.327
			l0.814-0.487l0.104,0.062c-0.101,0.203-0.178,0.419-0.305,0.608c-0.928,1.349-1.856,2.747-2.954,4.024
			c-0.67,0.775-1.479,1.363-2.53,1.626c-0.393,0.108-1.186,0.315-2.268,0.681c-1.078,0.376-2.46,0.857-4.062,1.415
			c-0.339,0.116-0.389,0.238-0.284,0.535c1.438,4.07,2.836,8.155,4.316,12.21c0.338,0.927,0.261,1.692-0.137,2.518
			c-0.65,1.302-1.245,2.715-2.014,3.953c-0.067,0.11-0.143,0.214-0.219,0.317c-0.03,0.041-0.075,0.07-0.112,0.104
			c-0.022-0.025-0.05-0.044-0.047-0.055c0.119-0.465-0.047-0.884-0.217-1.308l-0.922-2.356c-0.019-0.048-0.051-0.091-0.077-0.136
			l-0.175-0.06c-0.016,0.142-0.001,0.298-0.053,0.425c-0.634,1.559-1.362,2.997-2.231,4.402c-0.159,0.261-0.354,0.436-0.629,0.56
			c-3.757,1.634-7.431,3.458-11.016,5.444c-0.291,0.167-0.496,0.371-0.612,0.694c-0.089,0.248-0.226,0.476-0.34,0.712L88.141,41.33z
			"/>
		<path class="st1" d="M116.952,23.411l-3.255-12.294c-0.079-0.297-0.084-0.571,0.087-0.844c0.638-1.043,1.287-2.005,2.013-2.979
			c0.602-0.791,1.291-1.54,1.991-2.283c0.179-0.19,0.482-0.341,0.752-0.404c2.192-0.561,4.432-0.884,6.654-1.301
			c2.219-0.438,4.462-0.713,6.704-0.994c1.438-0.167,2.866-0.441,4.308-0.576c0.226-0.024,0.441-0.146,0.657-0.231l0.879-0.359
			l0.093,0.076c-0.131,0.186-0.24,0.387-0.395,0.555c-1.123,1.207-2.261,2.393-3.541,3.508c-0.781,0.666-1.672,1.126-2.75,1.229
			c-0.812,0.077-1.62,0.197-2.429,0.306l-5.01,0.914l-2.502,0.471l-2.48,0.581c-0.349,0.082-0.413,0.198-0.342,0.505
			c0.966,4.207,1.891,8.425,2.901,12.621c0.23,0.959,0.068,1.715-0.421,2.501c-0.781,1.278-1.569,2.471-2.465,3.653
			c-0.078,0.103-0.165,0.2-0.253,0.295c-0.035,0.038-0.082,0.062-0.123,0.093c-0.019-0.027-0.045-0.049-0.041-0.059
			c0.17-0.453,0.053-0.888-0.068-1.329C117.703,26.252,116.952,23.411,116.952,23.411z"/>
		<path class="st1" d="M52.438,37.625c0.004,0.227,0.033,0.453,0.008,0.679c-0.206,1.88-0.475,3.727-0.902,5.616
			c-0.108,0.452-0.228,0.896-0.588,1.253c-0.171,0.17-0.162,0.333,0.006,0.507l4.021,4.215c0.154,0.163,0.254,0.161,0.448,0.014
			c0.516-0.393,0.724-0.966,0.996-1.51c0.046-0.091,0.074-0.191,0.111-0.286l0.096-0.007c0.02,0.234,0.069,0.467,0.058,0.699
			l-0.128,2.45c-0.005,0.15,0.056,0.339,0.156,0.444l4.468,4.662c0.333,0.347,0.472,0.77,0.475,1.234
			c0.025,1.661-0.048,3.235-0.218,4.879c-0.019,0.165-0.065,0.324-0.091,0.452c-0.463-0.483-0.9-0.962-1.361-1.416l-4.946-4.847
			c-0.307-0.301-0.309-0.3-0.618,0.024c-1.23,1.317-2.518,2.582-3.702,3.941l-3.54,4.087c-0.354,0.421-0.684,0.863-1.099,1.385
			c-0.076-0.29-0.154-0.493-0.178-0.703c-0.088-0.782-0.16-1.588-0.222-2.357c-0.017-0.18-0.103-0.392-0.231-0.511
			c-0.393-0.364-0.776-0.724-1.408-0.735c-0.57-0.015-1.012,0.188-1.442,0.513c-0.916,0.689-1.497,1.65-2.026,2.639
			c-0.129,0.255-0.258,0.509-0.434,0.856c-0.075-0.277-0.15-0.461-0.173-0.654c-0.194-1.656-0.28-3.344-0.174-5.074
			c0.035-0.576,0.249-1.078,0.564-1.553c0.588-0.921,1.211-1.806,2.107-2.479c0.74-0.556,1.53-0.787,2.281-0.42
			c0.695,0.339,1.279,0.898,1.466,1.733c0.126,0.562,0.191,1.141,0.296,1.764c0.112-0.106,0.213-0.188,0.298-0.285
			c1.484-1.787,3.141-3.419,4.736-5.106c0.191-0.198,0.19-0.318,0.002-0.499c-0.754-0.721-1.474-1.478-2.248-2.176
			c-0.351-0.316-0.462-0.685-0.453-1.141c0.015-0.791,0.034-1.588,0.09-2.426c-0.113,0.091-0.195,0.146-0.265,0.213
			c-4.19,4.28-8.273,8.686-11.904,13.458c-0.206,0.264-0.304,0.612-0.498,1.017c-0.063-0.256-0.134-0.446-0.154-0.647
			c-0.171-1.765-0.239-3.565-0.054-5.414c0.058-0.591,0.297-1.088,0.713-1.575c4.285-5.125,8.992-9.872,13.868-14.429
			c0.692-0.602,1.25-1.297,1.535-2.161c0.037-0.111,0.096-0.217,0.145-0.325L52.438,37.625z"/>
		<path class="st1" d="M144.194,19.628c0.883-0.83,0.925-2.637,0.043-3.5c-1.041-1.028-2.124-1.936-3.104-3.009
			c-1.375-1.487-2.993-2.767-4.53-4.169c-0.251-0.226-0.529-0.445-0.798-0.643c-0.345-0.259-0.421-0.522-0.152-0.864
			c0.526-0.663,1.066-1.29,1.668-1.889c0.693-0.684,1.451-1.322,2.208-1.968c0.216-0.185,0.479-0.325,0.787-0.474
			c-0.353,0.569,0.128,0.703,0.457,0.954c0.441,0.335,0.817,0.735,1.219,1.106c1.314,1.185,2.59,2.518,3.858,3.767l2.67,2.607
			c1.154,1.17,1.197,2.591,0.348,3.915c-1.017,1.585-2.346,2.874-3.552,4.231c-1.328,1.458-2.708,2.947-4.239,4.19
			c-0.356,0.29-0.677,0.625-1.015,0.933c-0.082,0.075-0.182,0.128-0.334,0.145c0.037-0.131,0.081-0.259,0.108-0.392
			c0.057-0.277,0.123-0.555,0.155-0.836c0.095-0.821-0.438-1.345-0.892-1.909c-0.288-0.36-0.555-0.74-0.855-1.093
			c-0.163-0.192-0.377-0.339-0.555-0.521c-1.009-1.035-2.027-1.984-3.076-2.975c-0.153-0.143-0.307-0.29-0.48-0.408
			c-0.176-0.12-0.171-0.243-0.06-0.39c0.467-0.617,0.91-1.261,1.434-1.843c0.712-0.807,1.488-1.528,2.277-2.23
			c0.373-0.336,0.391-0.312,0.741,0.041l2.263,2.296c0.52,0.517,1.09,0.982,1.596,1.502c0.265,0.272,0.447,0.619,0.682,0.918
			c0.29,0.373,0.615,0.699,0.883,1.1c0.119,0.175,0.165,0.41,0.2,0.624C144.19,19.081,144.18,19.325,144.194,19.628z"/>
		<path class="st1" d="M146.256,7.944c0.12-0.161,0.223-0.338,0.365-0.482c1.978-2.011,4.18-3.91,6.824-5.2
			c0.633-0.32,1.381-0.48,2.097-0.66c2.37-0.641,4.791-0.356,7.171,0.036c1.067,0.175,2.031,0.659,2.909,1.227
			c0.248,0.169,0.482,0.365,0.743,0.516c1.046,0.614,1.688,1.531,2.288,2.453c0.362,0.556,0.258,0.829-0.352,1.266l-3.124,2.207
			c-0.254,0.174-0.385,0.378-0.414,0.679l-0.931,9.309c-0.034,0.329-0.076,0.671-0.197,0.975c-0.119,0.299-0.295,0.613-0.528,0.825
			c-1.241,1.127-2.512,2.178-3.876,3.061c-0.099,0.064-0.203,0.119-0.307,0.172c-0.036,0.018-0.081,0.019-0.145,0.033
			c0.054-0.314,0.105-0.612,0.156-0.909c0.047-0.305,0.1-0.611,0.121-0.919l0.586-9.07c0.028-0.479,0.217-0.817,0.567-1.107
			l2.929-2.374c0.295-0.235,0.334-0.454,0.104-0.736c-0.392-0.482-0.786-0.969-1.212-1.432c-0.191-0.207-0.444-0.368-0.682-0.535
			c-0.372-0.262-0.731-0.557-1.144-0.756c-0.833-0.393-1.671-0.929-2.572-1.06c-1.54-0.21-3.138-0.335-4.687-0.225
			c-2.034,0.107-4.027,0.64-5.521,2.082c-0.305,0.293-0.714,0.492-1.072,0.735L146.256,7.944z"/>
		<path class="st1" d="M165.142,12.816c0.15-0.152,0.285-0.32,0.453-0.452c1.26-0.985,2.589-1.914,4.067-2.67
			c0.411-0.21,0.869-0.35,1.317-0.5c0.125-0.042,0.283-0.021,0.422-0.004c1.45,0.172,2.88,0.486,4.32,0.725
			c1.435,0.273,2.883,0.478,4.306,0.81l1.223,0.283c0.453,0.111,0.693,0.407,0.597,0.825l-1.18,4.986l-1.148,4.788l-0.53,2.337
			c-0.086,0.353-0.197,0.703-0.329,1.042c-0.244,0.628-0.649,1.12-1.221,1.455c-1.255,0.716-2.495,1.52-3.722,2.325
			c-0.207,0.135-0.448,0.209-0.673,0.311l-0.051-0.077c0.102-0.146,0.237-0.279,0.3-0.441c0.201-0.512,0.441-1.022,0.552-1.555
			l1.003-5.245l1.4-6.705c0.136-0.652-0.015-0.847-0.682-0.967c-1.46-0.251-2.914-0.541-4.379-0.758l-4.409-0.567
			c-0.458-0.06-0.898-0.079-1.328,0.083c-0.079,0.03-0.172,0.026-0.259,0.038L165.142,12.816z"/>
		<path class="st1" d="M132.63,26.661l0.255-0.513c0.163-0.308,0.077-0.687-0.19-0.91c-1.18-1.001-2.37-1.942-3.589-2.85
			c-1.014-0.764-2.051-1.518-3.104-2.274l-2.013-1.44c-0.203-0.15-0.354-0.368-0.534-0.551c-0.218-0.219-0.207-0.451-0.046-0.689
			c0.491-0.725,0.962-1.472,1.508-2.173c0.545-0.7,1.161-1.359,1.771-2.027c0.19-0.208,0.422-0.38,0.689-0.616
			c0.014,0.123,0.042,0.182,0.021,0.213c-0.229,0.342-0.027,0.591,0.212,0.773c0.641,0.487,1.301,0.945,1.945,1.414
			c1.277,0.964,2.532,1.961,3.758,2.945l3.051,2.5c0.583,0.475,0.711,0.942,0.288,1.595c-0.427,0.659-0.885,1.298-1.377,1.893
			c-0.673,0.814-1.383,1.581-2.069,2.355c-0.144,0.163-0.331,0.284-0.497,0.424L132.63,26.661z"/>
		<path class="st1" d="M168.476,7.463c0.154-0.146,0.293-0.308,0.465-0.434c1.317-0.965,2.706-1.891,4.241-2.613
			c0.494-0.218,1.028-0.377,1.561-0.527c0.185-0.052,0.416-0.023,0.619,0.013c4.406,0.71,8.761,1.697,13.083,2.8
			c0.585,0.166,1.158,0.278,1.754,0.187c0.116-0.018,0.242,0.003,0.411,0.078c-0.178,0.124-0.343,0.269-0.537,0.368
			c-1.567,0.803-3.128,1.53-4.816,2.162c-0.727,0.262-1.475,0.328-2.266,0.144l-3.151-0.731c-1.057-0.214-2.121-0.389-3.181-0.583
			c-2.124-0.372-4.24-0.796-6.385-1.028c-0.393-0.051-0.758-0.065-1.12,0.117c-0.178,0.09-0.406,0.099-0.61,0.144L168.476,7.463z"/>
		<path class="st1" d="M150.105,24.365c0.025-0.134,0.043-0.237,0.063-0.34c0.082-0.479,0.234-0.96,0.237-1.437l0.019-8.656
			c0.005-0.366,0.287-0.776,0.557-1.059c0.618-0.655,1.292-1.273,1.998-1.861c0.697-0.579,1.452-1.104,2.199-1.645
			c0.137-0.099,0.303-0.164,0.456-0.245l0.084,0.054c-0.069,0.14-0.151,0.275-0.204,0.421c-0.1,0.277-0.25,0.558-0.261,0.841
			l-0.302,8.517c-0.034,0.794-0.292,1.523-0.904,2.108c-1.127,1.076-2.235,2.137-3.456,3.029c-0.102,0.076-0.212,0.15-0.321,0.219
			C150.235,24.333,150.19,24.338,150.105,24.365z"/>
		<path class="st2" d="M186.928,19.87c-0.329,0.69-0.238,0.835,0.311,1.311c0.804,0.697,1.551,1.447,2.287,2.189
			c0.243,0.241,0.446,0.532,0.61,0.846c0.211,0.393,0.132,0.729-0.236,0.948c-0.652,0.379-1.323,0.822-2.01,1.16
			c-0.976,0.489-1.969,0.918-2.939,1.368c-0.16,0.074-0.34,0.102-0.52,0.154c-0.001-0.063-0.01-0.092,0-0.104
			c0.421-0.477,0.391-0.91-0.105-1.421c-0.614-0.618-1.211-1.302-1.86-1.874c-0.31-0.281-0.674-0.503-0.991-0.781
			c-0.348-0.305-0.34-0.803,0.05-1.078c0.681-0.479,1.382-0.947,2.12-1.355c0.802-0.43,1.641-0.762,2.484-1.123
			C186.365,20.012,186.625,19.96,186.928,19.87z"/>
		<path class="st2" d="M193.87,7.719c-0.365,0.549,0.119,0.823,0.371,1.113c0.47,0.542,0.993,1.081,1.497,1.608
			c0.458,0.486,0.936,0.953,1.376,1.445c0.364,0.407,0.314,0.806-0.161,1.038c-0.841,0.411-1.69,0.804-2.552,1.151
			c-0.851,0.344-1.722,0.607-2.594,0.956c-0.17,0.066-0.358,0.093-0.632,0.163c0.446-0.688-0.083-0.973-0.485-1.338
			c-0.444-0.403-0.851-0.846-1.268-1.283l-1.536-1.639c-0.273-0.298-0.261-0.462,0.023-0.718c0.117-0.105,0.248-0.202,0.389-0.277
			c1.58-0.838,3.236-1.592,5.037-2.124C193.471,7.774,193.619,7.763,193.87,7.719z"/>
		<path class="st2" d="M187.525,20.933c0.034-0.095,0.037-0.119,0.05-0.134c0.427-0.483,0.441-0.493-0.005-0.993
			c-0.221-0.248-0.476-0.483-0.755-0.668c-0.968-0.624-1.76-1.485-2.599-2.307c0.201-0.153,0.369-0.303,0.561-0.419
			c0.571-0.347,1.128-0.663,1.729-0.94c0.938-0.424,1.914-0.791,2.883-1.19c0.366-0.151,0.628-0.065,0.884,0.229
			c0.651,0.757,1.425,1.358,2.222,1.971c0.423,0.336,0.788,0.754,1.11,1.178c0.088,0.116-0.008,0.425-0.112,0.589
			c-0.099,0.156-0.306,0.258-0.485,0.349c-1.6,0.79-3.239,1.618-4.949,2.207C187.902,20.858,187.736,20.883,187.525,20.933z"/>
		<path class="st1" d="M88.018,32.353c-0.529-0.661-1.132-1.155-1.812-1.577c-0.68-0.427-1.34-0.82-1.984-1.273
			c-0.137-0.096-0.215-0.408-0.172-0.592c0.181-0.797,0.401-1.565,0.702-2.309c0.384-0.954,0.853-1.889,1.308-2.836
			c0.073-0.153,0.188-0.29,0.311-0.477c0.27,0.623,0.892,0.784,1.356,1.126c0.83,0.611,1.767,1.089,2.408,1.907
			c0.094,0.12,0.165,0.333,0.124,0.472c-0.23,0.774-0.45,1.549-0.742,2.292c-0.375,0.951-0.812,1.871-1.215,2.794
			C88.232,32.038,88.123,32.179,88.018,32.353z"/>
		<path class="st1" d="M62.136,52.44c-0.023-0.181-0.063-0.362-0.063-0.544c0-0.211-0.094-0.332-0.292-0.38
			c-0.881-0.219-1.744-0.403-2.613-0.577c-0.161-0.032-0.328-0.042-0.493-0.058c-0.547-0.05-0.593-0.048-0.575-0.595
			c0.031-1.067,0.112-2.137,0.263-3.175c0.088-0.655,0.255-1.308,0.401-1.964c0.037-0.165,0.107-0.325,0.167-0.502
			c1.271,0.127,2.499,0.285,3.653,0.727c0.36,0.138,0.588,0.369,0.548,0.775l-0.382,3.978c-0.069,0.636-0.228,1.26-0.352,1.882
			c-0.03,0.154-0.102,0.299-0.154,0.448L62.136,52.44z"/>
	</g>
	<g>
		<path class="st1" d="M7.057,189.73c0.296-0.344,0.572-0.643,0.827-0.96c0.47-0.583,0.939-1.164,1.39-1.756
			c0.315-0.421,0.608-0.892,0.947-1.313c0.635-0.789,1.265-1.579,1.951-2.301c0.694-0.73,1.459-1.375,2.177-2.067
			c0.482-0.465,0.919-0.978,1.4-1.438c0.563-0.538,1.152-1.044,1.732-1.554c0.582-0.51,1.143-1.018,1.762-1.508
			c0.704-0.563,1.411-1.119,2.142-1.633c0.497-0.349,1.025-0.356,1.543-0.017c1.378,0.927,2.831,1.844,4.104,2.919
			c0.121,0.102,0.221,0.226,0.377,0.388c-0.777-0.065-1.283,0.311-1.785,0.739c-1.202,1.024-2.429,2.036-3.613,3.115
			c-0.661,0.605-1.278,1.293-1.892,1.923l-2.525,2.543c-0.376,0.391-0.726,0.81-1.087,1.221l0.056,0.092l0.362-0.084l5.508-1.567
			c0.39-0.115,0.713-0.058,1.045,0.122l4.28,2.247c0.932,0.48,1.793,1.068,2.689,1.574c0.674,0.38,0.963,0.997,1.18,1.672
			c0.243,0.755,0.467,1.518,0.776,2.249c0.708,1.763,1.375,3.544,2.109,5.296l2.343,5.198c0.187,0.367,0.412,0.687,0.759,0.923
			c0.057,0.039,0.1,0.098,0.121,0.222c-0.207-0.032-0.421-0.044-0.621-0.101c-1.531-0.42-2.939-0.988-4.333-1.711
			c-0.68-0.356-1.181-0.849-1.484-1.582l-0.836-1.925l-0.773-1.952c-0.104-0.27-0.258-0.44-0.524-0.582
			c-0.65-0.345-1.271-0.752-1.909-1.138c-0.425-0.257-1.093-0.073-1.4,0.311c-0.674,0.843-0.99,1.887-1.523,2.822
			c-0.404,0.708-0.846,1.399-1.209,2.139c-0.79,1.581-1.466,3.187-2.125,4.805c-0.285,0.69-0.544,1.4-0.869,2.075
			c-0.195,0.405-0.461,0.789-0.764,1.109c-0.328,0.346-0.787,0.327-1.231,0.146c-1.654-0.678-3.307-1.466-4.853-2.509
			c-0.123-0.087-0.229-0.205-0.34-0.306c0.025-0.049,0.032-0.083,0.046-0.086c0.852-0.17,1.176-0.941,1.513-1.655l2.104-4.505
			c0.259-0.545,0.474-1.113,0.746-1.644c0.338-0.669,0.754-1.306,1.128-1.98c0.476-0.871,0.904-1.766,1.391-2.615
			c0.38-0.663,0.826-1.338,1.665-1.322c0.596,0.011,1.225,0.15,1.777,0.378c1.827,0.766,3.52,1.752,5.271,2.702
			c0.125,0.066,0.249,0.132,0.434,0.23c-0.045-0.148-0.066-0.237-0.1-0.322c-0.883-2.087-1.519-4.264-2.259-6.402
			c-0.1-0.3-0.229-0.325-0.505-0.235l-12.299,3.951c-0.119,0.038-0.265,0.047-0.388,0.013c-1.128-0.309-2.119-0.958-3.072-1.61
			c-0.831-0.556-1.622-1.203-2.419-1.849C7.651,190.367,7.371,190.042,7.057,189.73z"/>
		<path class="st1" d="M28.015,177.133c-0.197-0.084-0.405-0.151-0.59-0.256c-1.576-0.882-2.985-1.906-4.303-3.113l-0.212-0.205
			c-0.405-0.387-0.682-0.83-0.738-1.415c-0.053-0.564-0.173-1.124-0.301-1.678c-0.041-0.183-0.167-0.393-0.309-0.506
			c-1.142-0.889-2.281-1.814-3.474-2.693c-0.756-0.556-1.62-0.787-2.534-0.33c-0.521,0.262-1.069,0.478-1.564,0.787
			c-0.592,0.371-1.145,0.814-1.705,1.243c-1.017,0.78-2.041,1.563-3.03,2.405c-0.517,0.435-0.933,0.976-1.404,1.437
			c-0.328,0.318-0.699,0.59-1.065,0.863c-0.496,0.372-1.001,0.28-1.496-0.099c-1.507-1.122-2.808-2.367-4.042-3.84
			c-0.098-0.12-0.176-0.262-0.271-0.406c0.049-0.026,0.082-0.06,0.102-0.051c0.628,0.285,1.083-0.075,1.525-0.473l1.19-1.08
			c0.653-0.582,1.29-1.183,1.971-1.712c0.976-0.765,2.008-1.47,3.054-2.185c0.391-0.27,0.758-0.592,1.176-0.793
			c0.518-0.249,1.071-0.419,1.619-0.582c0.578-0.171,1.128,0.01,1.626,0.298c0.567,0.328,1.151,0.65,1.645,1.07
			c2.178,1.781,4.368,3.509,6.528,5.14c0.068,0.045,0.135,0.091,0.256,0.172c-0.014-0.175-0.023-0.29-0.031-0.404l-0.56-4.412
			c-0.198-1.47-0.246-2.955-0.378-4.432c-0.007-0.087-0.009-0.176-0.026-0.261c-0.085-0.427-0.319-0.603-0.755-0.574l-12.689,0.856
			c-0.307,0.021-0.576-0.026-0.809-0.246c-0.862-0.825-1.801-1.638-2.584-2.536c-0.655-0.739-1.251-1.556-1.839-2.383
			c-0.151-0.212-0.238-0.536-0.246-0.813c-0.124-4.507-0.12-2.906-0.016-7.414l0.054-4.337c0.011-0.226-0.078-0.457-0.129-0.683
			l-0.222-0.921l0.09-0.081c0.164,0.157,0.347,0.295,0.489,0.472c1.011,1.287,2.067,2.587,2.961,4.015
			c0.54,0.869,0.861,1.816,0.8,2.896c-0.021,0.406-0.036,1.225-0.04,2.365c0.039,1.14,0.089,2.601,0.147,4.294
			c0.01,0.358,0.111,0.442,0.426,0.431c4.314-0.151,8.63-0.258,12.943-0.454c0.985-0.044,1.693,0.259,2.365,0.888
			c1.058,1.012,2.165,2.008,3.151,3.113c0.086,0.097,0.163,0.201,0.238,0.305c0.03,0.041,0.045,0.092,0.067,0.138
			c-0.03,0.014-0.057,0.034-0.066,0.029c-0.409-0.253-0.859-0.221-1.315-0.187l-2.525,0.171c-0.051,0.003-0.102,0.022-0.153,0.033
			l-0.108,0.149c0.131,0.058,0.285,0.091,0.391,0.179c1.29,1.075,2.493,2.199,3.521,3.456c0.184,0.232,0.295,0.471,0.334,0.77
			l0.783,6.099l1.079,6.051c0.075,0.327,0.212,0.583,0.488,0.791c0.212,0.159,0.391,0.357,0.584,0.537L28.015,177.133z"/>
		<path class="st1" d="M19.587,144.242l-12.706-0.559c-0.307-0.013-0.57-0.089-0.78-0.335c-0.803-0.918-1.529-1.824-2.242-2.807
			c-0.576-0.809-1.085-1.689-1.586-2.578c-0.128-0.228-0.182-0.561-0.162-0.837c0.119-2.256,0.464-4.493,0.735-6.735
			c0.152-1.119,0.266-2.244,0.452-3.359l0.589-3.339c0.267-1.424,0.442-2.866,0.728-4.287c0.045-0.223-0.008-0.465-0.024-0.697
			l-0.081-0.947l0.101-0.066c0.138,0.181,0.298,0.345,0.412,0.543c0.413,0.717,0.817,1.435,1.192,2.167
			c0.397,0.736,0.779,1.487,1.108,2.261c0.402,0.944,0.576,1.931,0.352,2.992c-0.169,0.798-0.295,1.606-0.433,2.41l-0.612,5.055
			c-0.095,0.843-0.216,1.684-0.289,2.528l-0.185,2.538c-0.026,0.357,0.066,0.452,0.38,0.476c4.304,0.33,8.606,0.703,12.913,0.988
			c0.984,0.065,1.657,0.446,2.262,1.147c0.986,1.127,1.892,2.236,2.751,3.446c0.075,0.106,0.142,0.218,0.206,0.33
			c0.026,0.044,0.035,0.097,0.052,0.145c-0.032,0.01-0.06,0.028-0.069,0.021c-0.382-0.298-0.832-0.316-1.288-0.332
			C22.522,144.372,19.587,144.242,19.587,144.242z"/>
		<path class="st1" d="M13.757,210.076c0.219,0.064,0.445,0.103,0.656,0.193c1.754,0.751,3.464,1.549,5.07,2.555
			c0.38,0.247,0.786,0.486,1.023,0.934c0.114,0.213,0.274,0.252,0.49,0.144l5.225-2.577c0.202-0.098,0.228-0.194,0.142-0.421
			c-0.238-0.602-0.718-0.974-1.131-1.407c-0.071-0.072-0.154-0.13-0.232-0.195l0.024-0.095c0.225,0.052,0.458,0.078,0.672,0.16
			c0.745,0.297,1.512,0.598,2.291,0.859c0.143,0.049,0.343,0.046,0.473-0.018l5.784-2.869c0.431-0.214,0.878-0.222,1.327-0.089
			c1.592,0.472,3.146,0.974,4.596,1.661c0.147,0.07,0.281,0.163,0.392,0.228c-0.598,0.297-1.185,0.571-1.756,0.875l-6.103,3.273
			c-0.379,0.203-0.379,0.205-0.175,0.604c1.777,3.135,3.548,6.277,5.551,9.276c0.297,0.464,0.594,0.927,0.954,1.489
			c-0.295-0.017-0.509-0.006-0.713-0.048l-2.292-0.506c-0.179-0.037-0.408-0.017-0.56,0.07c-0.465,0.267-0.923,0.525-1.117,1.122
			c-0.173,0.532-0.125,1.024,0.042,1.541c0.339,1.111,1.1,1.94,1.905,2.727c0.208,0.196,0.417,0.393,0.7,0.661
			c-0.289-0.009-0.488,0.008-0.681-0.026c-1.647-0.302-3.331-0.691-4.893-1.347c-0.527-0.213-0.923-0.58-1.298-1.012
			c-0.718-0.827-1.391-1.677-1.78-2.724c-0.336-0.857-0.273-1.708,0.3-2.314c0.536-0.566,1.244-0.956,2.083-0.877
			c0.568,0.051,1.117,0.175,1.756,0.253c-0.069-0.137-0.121-0.256-0.187-0.367c-1.15-2.017-2.331-4.017-3.452-6.05
			c-0.125-0.246-0.236-0.282-0.465-0.156c-0.913,0.505-1.85,0.965-2.749,1.496c-0.407,0.24-0.787,0.234-1.211,0.084
			c-0.736-0.266-1.472-0.533-2.27-0.822c0.054,0.134,0.084,0.228,0.129,0.314c1.31,2.699,2.898,5.248,4.37,7.858
			c0.756,1.294,1.602,2.533,2.401,3.801c0.821,1.254,1.592,2.541,2.488,3.744c0.194,0.273,0.501,0.467,0.835,0.769
			c-0.265-0.015-0.47-0.003-0.669-0.043c-0.876-0.176-1.753-0.379-2.626-0.627c-0.854-0.262-1.694-0.577-2.531-0.953
			c-0.533-0.24-0.958-0.603-1.302-1.144c-1.851-2.782-3.447-5.719-5.12-8.609c-0.805-1.462-1.539-2.964-2.31-4.446l-1.141-2.23
			c-0.363-0.752-0.697-1.518-1.046-2.277c-0.38-0.836-0.886-1.572-1.636-2.099c-0.096-0.067-0.181-0.155-0.271-0.234L13.757,210.076
			z"/>
		<path class="st1" d="M24.079,117.107c-0.53-1.089-2.242-1.669-3.327-1.084c-1.294,0.686-2.482,1.45-3.799,2.066
			c-1.83,0.87-3.534,2.033-5.33,3.085c-0.296,0.172-0.576,0.375-0.844,0.572c-0.35,0.252-0.624,0.247-0.87-0.112
			c-0.491-0.702-0.917-1.403-1.313-2.157c-0.446-0.865-0.829-1.78-1.22-2.696c-0.112-0.262-0.168-0.555-0.218-0.893
			c0.438,0.507,0.71,0.088,1.047-0.152c0.451-0.322,0.946-0.562,1.42-0.835c1.523-0.902,3.177-1.724,4.746-2.562l3.282-1.772
			c1.461-0.753,2.829-0.368,3.84,0.838c1.21,1.444,2.046,3.097,2.983,4.652c0.998,1.701,2.005,3.461,2.737,5.29
			c0.171,0.426,0.395,0.832,0.588,1.246c0.047,0.1,0.068,0.211,0.039,0.361c-0.114-0.074-0.224-0.154-0.343-0.22
			c-0.248-0.137-0.493-0.282-0.752-0.396c-0.756-0.335-1.414,0.018-2.088,0.282c-0.43,0.168-0.872,0.31-1.298,0.491
			c-0.232,0.098-0.436,0.259-0.663,0.375c-1.275,0.658-2.494,1.345-3.751,2.052c-0.182,0.104-0.368,0.207-0.533,0.337
			c-0.167,0.132-0.283,0.091-0.39-0.059c-0.449-0.629-0.932-1.243-1.331-1.917c-0.556-0.919-1.027-1.877-1.457-2.838
			c-0.209-0.456-0.181-0.466,0.26-0.695l2.867-1.477c0.649-0.343,1.263-0.748,1.91-1.076c0.338-0.172,0.724-0.242,1.08-0.377
			c0.441-0.166,0.852-0.378,1.315-0.515c0.202-0.061,0.44-0.035,0.655-0.005C23.556,116.949,23.786,117.031,24.079,117.107z"/>
		<path class="st1" d="M13.541,111.653c-0.118-0.163-0.256-0.314-0.351-0.492c-0.664-1.245-1.278-2.534-1.802-3.882
			c-0.511-1.344-0.862-2.727-1.114-4.194c-0.117-0.701-0.047-1.465-0.006-2.204c0.088-2.462,1.141-4.67,2.192-6.84
			c0.487-0.966,1.213-1.753,2.072-2.397c0.239-0.185,0.491-0.351,0.714-0.555c0.894-0.817,1.957-1.155,3.011-1.452
			c0.636-0.179,0.866,0.002,1.103,0.718l1.183,3.654c0.094,0.297,0.235,0.477,0.516,0.597l8.597,3.691
			c0.303,0.131,0.616,0.274,0.866,0.479c0.246,0.202,0.487,0.462,0.61,0.744c0.691,1.518,1.331,3.053,1.767,4.618
			c0.032,0.113,0.053,0.229,0.073,0.345c0.007,0.04-0.006,0.083-0.012,0.148c-0.283-0.146-0.552-0.284-0.821-0.422
			c-0.277-0.136-0.553-0.279-0.841-0.392l-8.474-3.286c-0.449-0.17-0.715-0.452-0.888-0.875l-1.398-3.515
			c-0.137-0.353-0.334-0.456-0.671-0.321c-0.576,0.23-1.156,0.46-1.724,0.729c-0.253,0.12-0.482,0.314-0.712,0.491
			c-0.36,0.277-0.748,0.531-1.059,0.866c-0.628,0.676-1.363,1.326-1.788,2.136c-0.687,1.399-1.26,2.898-1.621,4.41
			c-0.229,0.996-0.407,1.996-0.384,2.989c0.044,0.999,0.251,1.979,0.714,2.907c0.189,0.379,0.257,0.829,0.382,1.244L13.541,111.653z
			"/>
		<path class="st1" d="M23.874,95.098c-0.1-0.189-0.221-0.369-0.297-0.57c-0.568-1.501-1.062-3.053-1.346-4.695
			c-0.079-0.457-0.078-0.937-0.089-1.41c0-0.131,0.074-0.272,0.138-0.397l1.995-3.901l1.002-1.948l1.091-1.9l0.627-1.087
			c0.238-0.401,0.59-0.542,0.96-0.324l4.4,2.627l4.22,2.537l2.069,1.21c0.311,0.188,0.612,0.4,0.895,0.628
			c0.527,0.423,0.876,0.959,1.028,1.608c0.345,1.436,0.668,2.823,1.066,4.234c0.068,0.239,0.068,0.492,0.099,0.738l-0.089,0.025
			c-0.109-0.141-0.196-0.31-0.332-0.42c-0.428-0.346-0.844-0.73-1.319-0.996l-4.699-2.537l-5.973-3.357
			c-0.581-0.326-0.811-0.241-1.12,0.363l-2.025,3.957c-0.678,1.318-1.241,2.69-1.871,4.031c-0.191,0.42-0.34,0.835-0.311,1.296
			c0.005,0.084-0.026,0.172-0.04,0.259L23.874,95.098z"/>
		<path class="st1" d="M27.351,130.232l-0.414-0.396c-0.246-0.246-0.633-0.278-0.926-0.089c-1.31,0.827-2.542,1.688-3.782,2.581
			c-1.032,0.741-2.062,1.507-3.098,2.288l-1.976,1.494c-0.202,0.15-0.461,0.228-0.681,0.346c-0.268,0.144-0.488,0.064-0.676-0.162
			c-0.545-0.685-1.118-1.356-1.624-2.086c-0.505-0.729-0.95-1.512-1.406-2.293c-0.142-0.243-0.237-0.516-0.382-0.84
			c0.122,0.023,0.186,0.015,0.209,0.043c0.258,0.32,0.556,0.202,0.802,0.027c0.656-0.467,1.29-0.961,1.93-1.436
			c1.281-0.936,2.622-1.835,3.922-2.713l3.298-2.169c0.627-0.415,1.112-0.398,1.608,0.2c0.502,0.603,0.975,1.23,1.396,1.877
			c0.576,0.884,1.096,1.79,1.631,2.674c0.112,0.186,0.172,0.4,0.256,0.6L27.351,130.232z"/>
		<path class="st1" d="M19.756,90.297c-0.094-0.191-0.207-0.374-0.277-0.576c-0.532-1.551-1.016-3.164-1.186-4.819
			c-0.062-0.539-0.057-1.098-0.043-1.654c0.005-0.192,0.1-0.405,0.194-0.588l1.525-2.978c0.531-0.98,1.101-1.939,1.652-2.909
			c1.108-1.935,2.205-3.878,3.446-5.732c0.328-0.511,0.602-1.028,0.689-1.626c0.017-0.116,0.073-0.231,0.194-0.371
			c0.065,0.208,0.156,0.409,0.193,0.625c0.304,1.741,0.565,3.472,0.592,5.229c0.024,0.768-0.122,1.51-0.532,2.211
			c-2.214,3.701-4.194,7.536-6.073,11.417c-0.164,0.362-0.285,0.706-0.219,1.107c0.033,0.198-0.025,0.418-0.042,0.627L19.756,90.297
			z"/>
		<path class="st1" d="M30.355,112.888c-0.12-0.063-0.213-0.112-0.306-0.161c-0.436-0.222-0.838-0.507-1.294-0.653l-8.252-2.608
			c-0.344-0.113-0.647-0.504-0.84-0.847c-0.442-0.786-0.832-1.615-1.183-2.466c-0.346-0.839-0.623-1.718-0.917-2.595
			c-0.054-0.161-0.067-0.339-0.098-0.509l0.077-0.064c0.113,0.108,0.218,0.227,0.34,0.321c0.235,0.179,0.458,0.406,0.725,0.502
			l8.034,2.844c0.747,0.27,1.367,0.735,1.743,1.495c0.693,1.398,1.378,2.772,1.868,4.203c0.041,0.12,0.071,0.244,0.099,0.367
			C30.363,112.755,30.355,112.799,30.355,112.888z"/>
		<path class="st2" d="M37.147,76.44c0.56,0.522,0.725,0.478,1.337,0.094c0.891-0.568,1.825-1.058,2.797-1.508
			c0.314-0.151,0.66-0.254,1.001-0.32c0.435-0.085,0.731,0.091,0.833,0.51c0.181,0.748,0.365,1.495,0.47,2.245
			c0.142,1.071,0.284,2.146,0.426,3.22c0.024,0.176-0.002,0.357-0.005,0.545c-0.06-0.018-0.091-0.018-0.099-0.031
			c-0.331-0.547-0.751-0.648-1.381-0.324c-0.777,0.399-1.567,0.789-2.345,1.213c-0.371,0.205-0.715,0.471-1.075,0.69
			c-0.391,0.242-0.863,0.086-1.01-0.371c-0.264-0.802-0.458-1.586-0.612-2.404c-0.161-0.89-0.243-1.802-0.338-2.717
			C37.117,77.023,37.144,76.758,37.147,76.44z"/>
		<path class="st2" d="M27.648,66.167c0.408,0.51,0.83,0.141,1.192-0.006c0.674-0.274,1.322-0.626,1.974-0.949
			c0.595-0.295,1.178-0.615,1.773-0.89c0.492-0.228,0.857-0.062,0.94,0.465c0.146,0.93,0.274,1.862,0.353,2.794
			c0.078,0.919,0.087,1.843,0.125,2.756c0.007,0.179-0.028,0.363-0.051,0.64c-0.509-0.624-0.978-0.23-1.432,0.053
			c-0.513,0.305-1.053,0.564-1.589,0.833l-2.006,0.984c-0.363,0.173-0.516,0.112-0.676-0.237c-0.065-0.143-0.12-0.298-0.15-0.456
			c-0.33-1.762-0.587-3.592-0.536-5.456C27.571,66.557,27.608,66.415,27.648,66.167z"/>
		<path class="st2" d="M38.331,76.185c-0.081-0.062-0.103-0.071-0.113-0.088c-0.335-0.554-0.34-0.571-0.946-0.292
			c-0.3,0.138-0.598,0.313-0.855,0.525c-0.889,0.734-1.894,1.264-2.981,1.786c-0.08-0.235-0.169-0.438-0.216-0.652
			c-0.14-0.638-0.296-1.278-0.379-1.934c-0.13-1.027-0.195-2.074-0.292-3.123c-0.037-0.397,0.121-0.623,0.475-0.78
			c0.891-0.411,1.774-0.916,2.591-1.496c0.442-0.306,0.945-0.532,1.442-0.715c0.136-0.05,0.402,0.135,0.527,0.283
			c0.119,0.142,0.156,0.371,0.191,0.57c0.326,1.8,0.511,3.537,0.589,5.365C38.369,75.8,38.344,75.966,38.331,76.185z"/>
		<path class="st1" d="M19.441,174.542c-0.789,0.305-1.439,0.731-2.042,1.251c-0.6,0.517-1.206,1.035-1.839,1.513
			c-0.136,0.102-0.453,0.082-0.611-0.016c-0.674-0.419-1.348-0.859-1.974-1.369c-0.801-0.653-1.559-1.38-2.333-2.098
			c-0.125-0.116-0.223-0.266-0.365-0.44c0.676-0.07,1.012-0.614,1.476-0.952c0.824-0.606,1.561-1.354,2.554-1.722
			c0.144-0.054,0.367-0.057,0.483,0.025c0.64,0.456,1.343,0.895,1.96,1.398c0.801,0.643,1.555,1.335,2.32,1.997
			C19.202,174.243,19.306,174.39,19.441,174.542z"/>
		<path class="st1" d="M30.829,205.243c-0.181-0.032-0.367-0.047-0.542-0.101c-0.203-0.063-0.347-0.008-0.45,0.165l-1.352,2.33
			c-0.082,0.146-0.145,0.303-0.212,0.458c-0.222,0.512-0.235,0.557-0.74,0.371c-0.981-0.362-1.957-0.769-2.926-1.213
			c-0.606-0.278-1.185-0.629-1.776-0.961c-0.148-0.084-0.282-0.197-0.435-0.307c0.489-1.169,0.99-2.286,1.791-3.268
			c0.246-0.305,0.535-0.453,0.901-0.29c1.19,0.546,2.482,1.024,3.689,1.551c0.593,0.253,1.148,0.588,1.711,0.89
			c0.139,0.074,0.259,0.185,0.387,0.278L30.829,205.243z"/>
	</g>
	<g>
		<path class="st1" d="M144.197,298.855c-0.236-0.384-0.436-0.737-0.66-1.076l-1.245-1.886c-0.304-0.448-0.662-0.865-0.96-1.314
			c-0.558-0.841-1.117-1.678-1.596-2.547c-0.484-0.879-0.865-1.802-1.305-2.693c-0.296-0.598-0.652-1.168-0.943-1.764
			c-0.341-0.7-0.644-1.404-0.952-2.121c-0.307-0.723-0.617-1.442-0.897-2.17c-0.323-0.839-0.636-1.679-0.904-2.53
			c-0.182-0.578-0.027-1.084,0.454-1.477c1.306-1.057,2.613-2.075,4.031-3c0.134-0.085,0.283-0.143,0.485-0.244
			c-0.3,0.722-0.095,1.317,0.16,1.923c0.61,1.451,1.2,2.924,1.867,4.374c0.374,0.815,0.843,1.592,1.254,2.4
			c0.548,1.092,1.078,2.144,1.649,3.198c0.257,0.475,0.549,0.934,0.83,1.4l0.105-0.026l0.031-0.371l0.192-5.723
			c0.01-0.406,0.163-0.698,0.436-0.961l3.454-3.397c0.772-0.683,1.551-1.372,2.327-2.057c0.57-0.532,1.246-0.625,1.957-0.633
			l2.385-0.03c3.799-0.219,7.595-0.504,11.361-1.041c0.409-0.051,0.785-0.152,1.119-0.396c0.055-0.04,0.125-0.06,0.25-0.038
			c-0.095,0.183-0.173,0.379-0.29,0.546c-0.881,1.263-1.85,2.48-2.967,3.595c-0.548,0.547-1.17,0.882-1.96,0.956
			c-1.4,0.059-2.794,0.203-4.192,0.299c-0.289,0.02-0.498,0.117-0.715,0.33c-0.528,0.518-1.106,0.997-1.67,1.487
			c-0.377,0.31-0.407,1-0.135,1.42c0.596,0.92,1.491,1.511,2.216,2.304c0.549,0.595,1.07,1.223,1.662,1.788
			c1.257,1.202,2.58,2.37,3.92,3.549c0.568,0.482,1.162,0.936,1.703,1.447c0.325,0.306,0.607,0.674,0.817,1.059
			c0.228,0.416,0.069,0.85-0.24,1.222c-0.576,0.69-1.178,1.383-1.821,2.021c-0.644,0.623-1.328,1.221-2.063,1.781
			c-0.12,0.092-0.265,0.158-0.395,0.234c-0.038-0.039-0.069-0.055-0.067-0.07c0.101-0.865-0.532-1.404-1.106-1.937l-3.632-3.347
			c-0.438-0.408-0.914-0.819-1.335-1.251c-0.533-0.553-1.011-1.149-1.537-1.699c-0.682-0.714-1.402-1.387-2.059-2.105
			c-0.514-0.56-1.02-1.186-0.747-1.982c0.193-0.566,0.518-1.126,0.906-1.586c1.29-1.536,2.751-2.837,4.197-4.153
			c0.101-0.1,0.202-0.2,0.352-0.348c-0.155,0-0.246-0.007-0.337,0c-2.264,0.088-4.531,0.126-6.796,0.181
			c-0.317,0.01-0.38,0.113-0.379,0.406l-0.01,12.918c0,0.125-0.036,0.266-0.106,0.369c-0.639,0.944-1.559,1.667-2.47,2.397
			c-0.783,0.627-1.64,1.19-2.497,1.759C144.982,298.477,144.589,298.648,144.197,298.855z"/>
		<path class="st1" d="M138.597,275.052c-0.14,0.163-0.268,0.342-0.424,0.486c-1.319,1.204-2.722,2.222-4.276,3.132l-0.26,0.141
			c-0.493,0.271-0.999,0.403-1.574,0.282c-0.553-0.125-1.128-0.153-1.69-0.231c-0.186-0.024-0.422,0.016-0.572,0.12
			c-1.196,0.823-2.425,1.634-3.627,2.509c-0.76,0.555-1.245,1.31-1.086,2.317c0.091,0.575,0.13,1.162,0.274,1.726
			c0.173,0.675,0.427,1.334,0.666,1.997c0.434,1.203,0.868,2.412,1.37,3.607c0.259,0.616,0.645,1.19,0.938,1.799
			c0.201,0.425,0.348,0.851,0.497,1.283c0.203,0.584-0.038,1.038-0.55,1.397c-1.515,1.019-3.11,1.946-4.888,2.663
			c-0.144,0.058-0.303,0.09-0.47,0.137c-0.01-0.054-0.032-0.097-0.018-0.112c0.464-0.514,0.259-1.055,0.014-1.595l-0.667-1.457
			c-0.356-0.797-0.735-1.583-1.032-2.39c-0.424-1.197-0.779-2.407-1.145-3.607c-0.138-0.453-0.334-0.899-0.398-1.357
			c-0.08-0.567-0.073-1.145-0.061-1.716c0.013-0.602,0.353-1.072,0.781-1.461c0.487-0.443,0.971-0.903,1.523-1.249
			c2.344-1.456,4.672-3.093,6.882-4.646c0.064-0.051,0.128-0.102,0.241-0.192c-0.171-0.039-0.283-0.065-0.395-0.091l-4.377-0.782
			l-4.332-1.001c-0.085-0.02-0.17-0.044-0.257-0.053c-0.433-0.046-0.673,0.125-0.778,0.548l-3.058,12.345
			c-0.073,0.299-0.2,0.541-0.482,0.698c-1.059,0.604-2.096,1.161-3.198,1.653c-0.907,0.404-1.87,0.727-2.841,1.04
			c-0.248,0.08-0.586,0.067-0.852-0.008c-2.18-0.595-2.866-0.839-3.555-1.076c-0.69-0.232-1.38-0.465-3.521-1.186l-2.065-0.677
			l-2.04-0.746c-0.214-0.077-0.461-0.062-0.693-0.08l-0.95-0.062l-0.05-0.109c0.201-0.109,0.389-0.242,0.603-0.325
			c1.553-0.61,3.091-1.141,4.722-1.543c0.997-0.255,2.002-0.279,3.016,0.101c0.771,0.261,3.096,1.083,6.377,1.948
			c0.345,0.097,0.456,0.026,0.542-0.277c1.176-4.154,2.394-8.296,3.526-12.461c0.259-0.952,0.765-1.536,1.57-1.989
			c1.299-0.748,2.558-1.397,3.916-2.026c0.118-0.053,0.241-0.095,0.363-0.136c0.049-0.016,0.102-0.015,0.152-0.022
			c0.004,0.033,0.015,0.065,0.007,0.072c-0.366,0.315-0.473,0.753-0.579,1.197l-0.608,2.456c-0.012,0.05-0.01,0.104-0.015,0.155
			l0.109,0.147c0.096-0.108,0.174-0.244,0.29-0.319c1.419-0.91,2.857-1.722,4.369-2.328c0.278-0.112,0.537-0.133,0.831-0.064
			c2.009,0.396,4.032,0.73,6.047,1.102c2.025,0.308,4.065,0.527,6.096,0.806c0.334,0.04,0.616,0.014,0.899-0.191
			c0.217-0.155,0.461-0.267,0.691-0.398L138.597,275.052z"/>
		<path class="st1" d="M104.726,273.027l-4.441,11.918c-0.107,0.288-0.26,0.512-0.555,0.629c-1.105,0.436-2.21,0.898-3.365,1.271
			c-0.952,0.308-1.951,0.53-2.955,0.742c-0.257,0.054-0.593,0.007-0.851-0.095l-6.184-2.784c-2.033-0.986-4.032-2.044-6.048-3.065
			c-1.299-0.643-2.543-1.387-3.828-2.059c-0.2-0.108-0.448-0.129-0.676-0.182L74.89,279.2l-0.032-0.115
			c0.216-0.078,0.422-0.181,0.647-0.231c1.63-0.362,3.253-0.687,4.91-0.801c1-0.051,2.018,0.04,2.961,0.575
			c0.713,0.395,1.448,0.753,2.177,1.12l2.278,1.138l2.327,1.036c1.557,0.676,3.089,1.411,4.665,2.04
			c0.334,0.131,0.453,0.072,0.573-0.22c1.64-3.993,3.321-7.97,4.919-11.979c0.366-0.916,0.937-1.443,1.792-1.812
			c1.376-0.592,2.731-1.17,4.128-1.571c0.122-0.035,0.248-0.06,0.372-0.083c0.049-0.009,0.101,0,0.152,0
			c0,0.034,0.007,0.067-0.001,0.073c-0.396,0.261-0.552,0.684-0.708,1.114C105.754,270.275,104.726,273.027,104.726,273.027z"/>
		<path class="st1" d="M165.586,298.744c0.129-0.182,0.236-0.384,0.386-0.561c1.252-1.456,2.536-2.858,3.985-4.097
			c0.351-0.3,0.707-0.586,1.208-0.66c0.238-0.035,0.326-0.172,0.29-0.411l-0.838-5.765c-0.032-0.222-0.114-0.279-0.358-0.276
			c-0.65,0.01-1.153,0.348-1.691,0.624c-0.09,0.046-0.171,0.109-0.256,0.165l-0.082-0.051c0.119-0.2,0.215-0.416,0.359-0.596
			c0.509-0.637,1.036-1.255,1.527-1.892c0.091-0.118,0.15-0.306,0.13-0.449l-0.944-6.388c-0.071-0.476,0.062-0.897,0.328-1.272
			c0.945-1.338,1.892-2.719,2.992-3.899c0.111-0.121,0.241-0.222,0.337-0.309c0.098,0.661,0.177,1.304,0.29,1.941l1.229,6.815
			c0.077,0.423,0.078,0.424,0.519,0.345l2.66-0.478l2.634-0.609c1.75-0.427,3.526-0.754,5.249-1.289
			c0.529-0.15,1.059-0.301,1.701-0.483c-0.107,0.279-0.161,0.488-0.263,0.672l-1.179,2.057c-0.089,0.161-0.14,0.387-0.104,0.559
			c0.111,0.525,0.215,1.042,0.721,1.402c0.451,0.321,0.932,0.419,1.473,0.41c1.15-0.021,2.183-0.457,3.19-0.946
			c0.253-0.131,0.506-0.262,0.851-0.44c-0.097,0.272-0.144,0.461-0.237,0.632c-0.803,1.45-1.712,2.863-2.803,4.198
			c-0.363,0.445-0.832,0.718-1.356,0.952c-0.997,0.469-2.026,0.802-3.15,0.82c-0.929,0.015-1.708-0.263-2.11-0.999
			c-0.372-0.681-0.524-1.475-0.192-2.258c0.224-0.527,0.506-1.032,0.782-1.596c-0.153,0.02-0.284,0.026-0.409,0.055l-3.395,0.782
			c-1.13,0.269-2.283,0.425-3.423,0.64c-0.271,0.047-0.341,0.144-0.291,0.4c0.198,1.024,0.347,2.058,0.574,3.076
			c0.103,0.461-0.02,0.824-0.293,1.185c-0.479,0.627-0.958,1.254-1.478,1.934c0.144-0.013,0.242-0.014,0.338-0.031l4.428-0.791
			c1.476-0.264,2.927-0.651,4.391-0.973c2.936-0.619,5.813-1.471,8.694-2.301c0.322-0.092,0.604-0.316,0.998-0.529
			c-0.097,0.243-0.149,0.439-0.25,0.612c-0.884,1.525-1.875,3.02-3.1,4.405c-0.391,0.442-0.865,0.744-1.482,0.916
			c-1.617,0.419-3.253,0.762-4.879,1.145c-1.626,0.384-3.255,0.752-4.905,1.018l-4.933,0.88c-1.652,0.241-3.31,0.435-4.966,0.652
			c-0.91,0.116-1.765,0.383-2.496,0.945c-0.094,0.072-0.203,0.128-0.306,0.184L165.586,298.744z"/>
		<path class="st1" d="M80.322,260.358c-1.211,0.184-2.291,1.636-2.06,2.835c0.272,1.414,0.591,2.846,0.764,4.298
			c0.258,2.015,0.865,3.952,1.32,5.969c0.075,0.329,0.183,0.655,0.283,0.982c0.127,0.419,0.037,0.679-0.376,0.795
			c-0.806,0.227-1.623,0.449-2.464,0.596c-0.967,0.169-1.962,0.263-2.961,0.365c-0.283,0.025-0.589,0.004-0.918-0.064
			c0.612-0.251,0.304-0.65,0.184-1.052c-0.16-0.538-0.231-1.091-0.339-1.635l-0.985-5.288c-0.227-1.215-0.494-2.423-0.671-3.67
			c-0.248-1.647,0.54-2.832,1.985-3.402c1.716-0.661,3.563-0.971,5.349-1.41c1.966-0.487,3.892-0.806,5.859-0.939
			c0.462-0.038,0.921-0.131,1.378-0.194c0.111-0.015,0.224-0.003,0.359,0.068c-0.106,0.086-0.217,0.167-0.316,0.26
			c-0.207,0.195-0.422,0.385-0.611,0.597c-0.553,0.619-0.416,1.345-0.369,2.061c0.03,0.456,0.03,0.917,0.074,1.374
			c0.024,0.249,0.115,0.489,0.157,0.738c0.236,1.409,0.486,2.831,0.76,4.263c0.043,0.203,0.085,0.41,0.159,0.604
			c0.076,0.197,0,0.295-0.177,0.353c-0.748,0.252-1.461,0.487-2.219,0.648c-1.027,0.212-2.08,0.357-3.142,0.495
			c-0.502,0.065-0.503,0.035-0.588-0.45l-0.54-3.149c-0.125-0.725-0.308-1.455-0.414-2.182c-0.055-0.381-0.001-0.774-0.016-1.16
			c-0.019-0.475-0.083-0.949-0.077-1.421c0.003-0.209,0.101-0.427,0.195-0.622C80.009,260.808,80.158,260.614,80.322,260.358z"/>
		<path class="st1" d="M71.857,268.744c-0.193,0.064-0.38,0.151-0.581,0.189c-2.781,0.503-5.604,0.671-8.577,0.287
			c-0.717-0.085-1.412-0.399-2.088-0.683c-2.23-0.947-4.149-2.447-5.831-4.183c-0.755-0.776-1.25-1.743-1.624-2.728
			c-0.106-0.28-0.191-0.567-0.32-0.837c-0.511-1.091-0.539-2.17-0.478-3.287c0.032-0.668,0.274-0.83,1.018-0.826l3.87-0.042
			c0.315-0.003,0.531-0.083,0.732-0.314l6.15-7.05c0.218-0.248,0.45-0.502,0.724-0.679c0.269-0.173,0.592-0.326,0.902-0.36
			c1.657-0.192,3.258-0.26,4.9-0.215c0.119,0.003,0.238,0.016,0.355,0.031c0.041,0.005,0.078,0.03,0.14,0.054
			c-0.226,0.225-0.441,0.439-0.655,0.653c-0.215,0.223-0.437,0.442-0.632,0.681l-5.73,7.055c-0.3,0.374-0.652,0.544-1.112,0.584
			c-1.258,0.112-2.481,0.152-3.742,0.215c-0.374,0.016-0.532,0.172-0.511,0.539c0.035,0.627,0.068,1.258,0.143,1.889
			c0.033,0.282,0.143,0.564,0.237,0.842c0.141,0.441,0.28,0.869,0.505,1.265c0.461,0.792,0.864,1.676,1.516,2.314
			c1.126,1.075,2.296,2.184,3.666,2.935c1.771,1.022,3.67,1.794,5.697,1.519c0.415-0.058,0.874,0.002,1.309,0.008L71.857,268.744z"
			/>
		<path class="st1" d="M59.301,253.801c-0.213,0.04-0.423,0.102-0.639,0.115c-0.81,0.049-1.627,0.079-2.448,0.067
			c-0.803-0.031-1.612-0.102-2.425-0.231c-0.453-0.072-0.902-0.228-1.349-0.37c-0.125-0.04-0.24-0.15-0.341-0.247
			c-2.155-1.973-4.137-4.119-6.154-6.231l-0.864-0.91c-0.302-0.355-0.322-0.739-0.002-1.024l3.845-3.385l3.704-3.241l1.784-1.6
			c0.274-0.239,0.567-0.459,0.87-0.659c0.564-0.372,1.165-0.527,1.845-0.486l4.399,0.245c0.245,0.012,0.482,0.094,0.721,0.144
			l-0.004,0.093c-0.167,0.059-0.352,0.088-0.497,0.183c-0.459,0.3-0.948,0.575-1.347,0.946l-3.853,3.697l-5.02,4.657
			c-0.488,0.453-0.48,0.701-0.012,1.192c1.002,1.092,2.086,2.104,3.16,3.124c1.079,1.014,2.127,2.064,3.229,3.053
			c0.348,0.303,0.704,0.564,1.157,0.672c0.083,0.02,0.159,0.075,0.238,0.113L59.301,253.801z"/>
		<path class="st1" d="M93.81,261.307l-0.507,0.277c-0.312,0.161-0.461,0.519-0.37,0.852c0.402,1.464,0.819,2.944,1.268,4.435
			c0.384,1.216,0.807,2.405,1.233,3.622l0.822,2.316c0.081,0.237,0.078,0.501,0.12,0.753c0.052,0.305-0.09,0.486-0.361,0.59
			c-0.824,0.316-1.643,0.663-2.497,0.929c-0.854,0.265-1.741,0.457-2.629,0.659c-0.275,0.061-0.57,0.078-0.92,0.11
			c0.06-0.108,0.072-0.173,0.106-0.185c0.382-0.143,0.361-0.462,0.274-0.756l-0.746-2.33c-0.486-1.525-0.949-3.036-1.388-4.534
			l-0.539-1.891l-0.496-1.933c-0.193-0.74-0.026-1.198,0.688-1.472c0.722-0.279,1.452-0.511,2.194-0.708
			c1.025-0.288,2.054-0.516,3.067-0.764c0.213-0.052,0.437-0.046,0.655-0.067L93.81,261.307z"/>
		<path class="st1" d="M53.446,256.277c-0.208,0.028-0.415,0.078-0.626,0.08c-1.622,0.012-3.267-0.06-4.932-0.365
			c-0.538-0.098-1.076-0.267-1.608-0.442c-0.184-0.061-0.361-0.213-0.509-0.355l-4.624-4.83c-1.503-1.645-2.933-3.357-4.397-5.038
			c-0.398-0.458-0.817-0.868-1.343-1.148c-0.104-0.053-0.193-0.144-0.287-0.304c0.216,0.003,0.432-0.02,0.647,0.013
			c1.725,0.263,3.509,0.496,5.205,0.994c0.738,0.212,1.38,0.596,1.91,1.21c2.874,3.21,5.869,6.317,9.023,9.255
			c0.287,0.274,0.572,0.501,0.968,0.567c0.195,0.032,0.383,0.159,0.574,0.243L53.446,256.277z"/>
		<path class="st1" d="M78.243,253.083c-0.097,0.094-0.172,0.167-0.247,0.24c-0.343,0.341-0.742,0.642-1.021,1.03l-5.022,7.049
			c-0.213,0.292-0.682,0.465-1.071,0.548c-0.892,0.189-1.809,0.316-2.735,0.4c-0.919,0.09-1.841,0.085-2.747,0.071
			c-0.168-0.001-0.338-0.047-0.507-0.072l-0.036-0.095c0.137-0.073,0.281-0.134,0.407-0.221c0.241-0.167,0.523-0.306,0.696-0.53
			l5.176-6.77c0.487-0.628,1.116-1.069,1.944-1.18c1.544-0.23,3.088-0.491,4.614-0.535c0.129-0.004,0.257,0.004,0.384,0.012
			C78.12,253.03,78.158,253.053,78.243,253.083z"/>
		<path class="st2" d="M45.581,235.473c0.666-0.372,0.677-0.544,0.51-1.255c-0.244-1.041-0.412-2.092-0.575-3.131
			c-0.054-0.341-0.051-0.697-0.016-1.039c0.045-0.435,0.303-0.663,0.739-0.636c0.777,0.048,1.556,0.094,2.313,0.215
			c1.071,0.171,2.122,0.402,3.166,0.602c0.172,0.033,0.333,0.116,0.509,0.179c-0.036,0.052-0.046,0.082-0.06,0.085
			c-0.616,0.144-0.843,0.515-0.74,1.224c0.148,0.857,0.299,1.711,0.478,2.571c0.087,0.412,0.251,0.808,0.345,1.221
			c0.103,0.454-0.192,0.857-0.666,0.853c-0.827-0.008-1.663-0.038-2.495-0.137c-0.905-0.111-1.824-0.29-2.721-0.482
			C46.117,235.686,45.877,235.577,45.581,235.473z"/>
		<path class="st2" d="M32.926,241.358c0.613-0.236,0.381-0.742,0.346-1.128c-0.066-0.717-0.214-1.433-0.335-2.144
			c-0.094-0.66-0.205-1.324-0.277-1.982c-0.058-0.545,0.213-0.843,0.733-0.755c0.922,0.151,1.824,0.333,2.739,0.538
			c0.912,0.196,1.808,0.459,2.702,0.692c0.176,0.046,0.343,0.133,0.604,0.236c-0.759,0.303-0.498,0.845-0.385,1.379
			c0.124,0.589,0.196,1.19,0.279,1.79c0.11,0.735,0.184,1.501,0.306,2.224c0.059,0.393-0.045,0.52-0.43,0.569
			c-0.158,0.02-0.324,0.026-0.485,0.008c-1.785-0.218-3.542-0.582-5.311-1.194C33.28,241.546,33.154,241.469,32.926,241.358z"/>
		<path class="st2" d="M45.716,234.254c-0.083,0.058-0.099,0.076-0.118,0.081c-0.625,0.146-0.642,0.145-0.572,0.816
			c0.034,0.333,0.104,0.674,0.222,0.988c0.4,1.093,0.65,2.169,0.822,3.356c-0.251,0.007-0.474,0.032-0.695,0.014
			c-0.658-0.054-1.323-0.095-1.982-0.208c-1.046-0.166-2.017-0.461-3.04-0.693c-0.383-0.091-0.545-0.314-0.581-0.704
			c-0.091-0.996-0.351-1.954-0.661-2.903c-0.164-0.509-0.24-1.046-0.262-1.575c-0.004-0.146,0.253-0.343,0.432-0.416
			c0.17-0.07,0.396-0.031,0.601-0.007c1.822,0.233,3.608,0.528,5.331,1.046C45.368,234.095,45.516,234.171,45.716,234.254z"/>
		<path class="st1" d="M133.516,282.413c0.05,0.843,0.258,1.59,0.571,2.32c0.31,0.726,0.619,1.458,0.882,2.206
			c0.056,0.16-0.06,0.457-0.202,0.578c-0.605,0.518-1.229,1.029-1.906,1.474c-0.866,0.569-1.791,1.075-2.71,1.598
			c-0.149,0.085-0.322,0.133-0.531,0.217c0.14-0.665-0.276-1.148-0.458-1.692c-0.322-0.991-0.808-1.945-0.858-2.991
			c-0.007-0.153,0.058-0.367,0.171-0.453c0.632-0.487,1.253-0.951,1.924-1.41c0.857-0.572,1.746-1.084,2.611-1.617
			C133.158,282.552,133.329,282.497,133.516,282.413z"/>
		<path class="st1" d="M166.251,280.985c-0.086,0.164-0.158,0.338-0.263,0.489c-0.122,0.176-0.115,0.33,0.019,0.48l1.796,1.981
			c0.113,0.122,0.243,0.228,0.369,0.338c0.418,0.364,0.456,0.39,0.124,0.818c-0.646,0.833-1.333,1.648-2.052,2.445
			c-0.45,0.498-0.962,0.951-1.459,1.415c-0.126,0.111-0.276,0.197-0.428,0.304c-0.964-0.857-1.875-1.713-2.56-2.754
			c-0.214-0.325-0.266-0.646,0.002-0.948l2.619-2.975c0.423-0.493,0.912-0.926,1.372-1.378c0.113-0.111,0.255-0.193,0.383-0.289
			L166.251,280.985z"/>
	</g>
	<g>
		<path class="st1" d="M290.649,200.511c-0.437,0.112-0.833,0.198-1.223,0.311l-2.186,0.621c-0.518,0.156-1.022,0.375-1.537,0.525
			c-0.968,0.282-1.932,0.567-2.902,0.765c-0.982,0.2-1.975,0.288-2.954,0.443c-0.658,0.104-1.307,0.274-1.961,0.374
			c-0.758,0.121-1.556,0.184-2.335,0.263c-0.78,0.077-1.557,0.159-2.333,0.209c-0.895,0.058-1.788,0.107-2.678,0.108
			c-0.604,0.001-1.042-0.298-1.275-0.876c-0.652-1.577-1.174-3.104-1.645-4.737c-0.042-0.153-0.053-0.313-0.09-0.536
			c0.6,0.502,1.228,0.485,1.881,0.422c1.564-0.148,3.143-0.272,4.724-0.476c0.888-0.114,1.768-0.33,2.66-0.481
			c1.196-0.2,2.395-0.379,3.558-0.614c0.53-0.104,1.054-0.246,1.583-0.375l0.007-0.108l-0.345-0.14l-5.405-1.89
			c-0.385-0.13-0.617-0.364-0.788-0.703l-2.22-4.307c-0.44-0.915-0.819-1.895-1.271-2.829c-0.338-0.701-0.227-1.373-0.023-2.053
			l0.679-2.281c0.474-1.84,0.864-3.701,1.305-5.549c0.439-1.849,0.693-3.737,1.058-5.602c0.074-0.405,0.09-0.794-0.044-1.184
			c-0.022-0.065-0.02-0.137,0.038-0.25c0.146,0.145,0.31,0.277,0.435,0.438c0.943,1.214,1.815,2.498,2.547,3.893
			c0.359,0.684,0.493,1.377,0.329,2.154l-0.944,4.091c-0.067,0.282-0.037,0.51,0.102,0.78c0.339,0.658,0.62,1.35,0.925,2.035
			c0.202,0.456,0.839,0.686,1.325,0.552c1.033-0.302,1.881-0.977,2.849-1.436c0.732-0.347,1.487-0.659,2.203-1.057
			c1.515-0.847,3.05-1.759,4.54-2.697c0.624-0.401,1.239-0.833,1.888-1.2c0.389-0.22,0.825-0.38,1.255-0.468
			c0.466-0.095,0.832,0.185,1.095,0.591c0.992,1.512,1.885,3.107,2.493,4.839c0.052,0.142,0.072,0.3,0.106,0.446
			c-0.048,0.025-0.073,0.049-0.086,0.044c-0.796-0.353-1.499,0.093-2.18,0.484l-4.28,2.48c-0.513,0.299-1.038,0.635-1.581,0.908
			c-0.687,0.346-1.398,0.626-2.08,0.965c-0.884,0.44-1.742,0.927-2.623,1.342c-0.687,0.325-1.435,0.622-2.115,0.124
			c-0.483-0.353-0.921-0.829-1.245-1.336c-1.089-1.688-1.88-3.463-2.73-5.238c-0.065-0.126-0.13-0.252-0.227-0.439
			c-0.046,0.148-0.08,0.233-0.1,0.321c-0.567,2.191-1.22,4.36-1.836,6.538c-0.085,0.305-0.01,0.394,0.272,0.482l12.33,3.852
			c0.119,0.037,0.243,0.114,0.321,0.212c0.712,0.892,1.129,1.987,1.555,3.076c0.366,0.936,0.649,1.923,0.937,2.912
			C290.522,199.646,290.568,200.074,290.649,200.511z"/>
		<path class="st1" d="M266.266,198.746c0.112,0.182,0.252,0.36,0.333,0.549c0.709,1.598,1.306,3.262,1.705,5.015l0.059,0.291
			c0.114,0.553,0.091,1.076-0.194,1.589c-0.262,0.501-0.529,1.007-0.756,1.528c-0.077,0.171-0.108,0.409-0.053,0.584
			c0.435,1.391,0.848,2.811,1.33,4.223c0.306,0.894,0.884,1.583,1.89,1.733c0.574,0.085,1.145,0.223,1.725,0.253
			c0.694,0.036,1.396-0.01,2.098-0.041c1.273-0.055,2.553-0.11,3.839-0.234c0.663-0.064,1.323-0.262,1.99-0.36
			c0.46-0.067,0.926-0.073,1.388-0.082c0.629-0.014,0.983,0.349,1.156,0.937c0.516,1.75,0.939,3.557,1.099,5.473
			c0.013,0.155-0.004,0.317-0.007,0.491c-0.055-0.007-0.102,0.002-0.112-0.017c-0.353-0.598-0.93-0.563-1.516-0.49l-1.584,0.203
			c-0.862,0.104-1.759,0.211-2.629,0.247c-1.265,0.048-2.521,0.027-3.771,0.019c-0.472-0.003-0.954,0.052-1.409-0.023
			c-0.564-0.093-1.112-0.272-1.653-0.454c-0.569-0.192-0.918-0.658-1.164-1.184c-0.279-0.598-0.577-1.2-0.746-1.832
			c-0.684-2.672-1.505-5.359-2.364-7.953c-0.03-0.076-0.06-0.153-0.113-0.289c-0.087,0.152-0.145,0.252-0.202,0.351
			c-1.297,2.668-2.815,5.216-4.291,7.788c-0.043,0.076-0.091,0.15-0.125,0.231c-0.166,0.404-0.082,0.68,0.289,0.906l10.864,6.613
			c0.263,0.159,0.454,0.352,0.512,0.663c0.217,1.164,0.459,2.334,0.605,3.535c0.12,0.99,0.148,2.01,0.164,3.033
			c0.004,0.262-0.107,0.582-0.256,0.815c-2.551,3.723-1.665,2.386-4.266,6.075l-2.604,3.472c-0.135,0.182-0.192,0.425-0.277,0.642
			l-0.334,0.894l-0.118,0.015c-0.046-0.225-0.118-0.445-0.135-0.675c-0.123-1.666-0.209-3.321-0.083-4.979
			c0.089-1.001,0.367-1.965,1.014-2.832c0.47-0.663,1.916-2.66,3.765-5.5c0.193-0.302,0.157-0.43-0.107-0.602
			c-3.612-2.364-7.201-4.765-10.836-7.091c-0.83-0.532-1.24-1.191-1.437-2.099c-0.318-1.459-0.625-2.896-0.751-4.34
			c-0.011-0.126-0.011-0.254-0.01-0.38c0.002-0.049,0.016-0.101,0.025-0.152c0.032,0.006,0.066,0.005,0.07,0.014
			c0.192,0.444,0.57,0.672,0.965,0.908l2.162,1.315c0.044,0.027,0.096,0.041,0.145,0.061l0.178-0.057
			c-0.075-0.124-0.182-0.239-0.219-0.373c-0.453-1.632-0.807-3.253-0.944-4.885c-0.025-0.3,0.03-0.555,0.181-0.816
			c2.002-3.576,3.814-7.256,5.464-11.006c0.139-0.306,0.186-0.588,0.089-0.913c-0.077-0.25-0.091-0.507-0.153-0.769L266.266,198.746
			z"/>
		<path class="st1" d="M254.169,230.448l10.051,7.793c0.243,0.188,0.412,0.401,0.438,0.719c0.095,1.191,0.215,2.389,0.235,3.609
			c0.02,1.007-0.055,2.035-0.184,3.029c-0.03,0.257-0.184,0.556-0.364,0.766c-2.9,3.465-5.999,6.756-9.192,9.949
			c-1.045,1.003-2.069,2.026-3.091,3.053c-0.16,0.161-0.252,0.394-0.368,0.597l-0.461,0.839l-0.119-0.002
			c-0.012-0.23-0.05-0.459-0.033-0.691c0.126-1.674,0.286-3.332,0.656-4.962c0.223-0.996,0.67-1.882,1.464-2.618
			c0.581-0.571,1.133-1.173,1.693-1.767c1.153-1.246,2.351-2.448,3.46-3.733l3.314-3.863c0.233-0.272,0.215-0.401-0.028-0.602
			c-3.323-2.755-6.619-5.544-9.971-8.264c-0.772-0.627-1.075-1.305-1.181-2.239c-0.165-1.498-0.323-2.974-0.301-4.437
			c0.002-0.128,0.015-0.256,0.029-0.383c0.006-0.05,0.029-0.098,0.044-0.146c0.032,0.01,0.066,0.012,0.069,0.023
			c0.134,0.458,0.491,0.733,0.855,1.01C251.848,228.647,254.169,230.448,254.169,230.448z"/>
		<path class="st1" d="M296.894,180.017c-0.145-0.179-0.308-0.341-0.43-0.537c-1.017-1.626-1.972-3.266-2.724-5.017
			c-0.182-0.423-0.348-0.848-0.27-1.348c0.037-0.238-0.067-0.362-0.306-0.398l-5.756-0.902c-0.221-0.036-0.301,0.027-0.37,0.26
			c-0.184,0.624-0.012,1.204,0.091,1.799c0.017,0.1,0.054,0.196,0.081,0.294l-0.073,0.064c-0.155-0.172-0.333-0.328-0.462-0.519
			c-0.456-0.674-0.889-1.36-1.351-2.017c-0.085-0.122-0.247-0.234-0.39-0.257l-6.382-0.985c-0.475-0.073-0.839-0.324-1.116-0.689
			c-1.042-1.305-2.044-2.613-2.852-4.013c-0.082-0.142-0.14-0.296-0.195-0.413c0.66,0.102,1.298,0.216,1.94,0.296l6.874,0.84
			c0.427,0.052,0.428,0.051,0.484-0.394c0.264-1.784,0.394-3.582,0.522-5.381c0.124-1.798,0.318-3.592,0.321-5.397
			c0.014-0.551,0.028-1.101,0.044-1.768c0.235,0.185,0.418,0.298,0.563,0.45l1.613,1.736c0.127,0.133,0.328,0.249,0.503,0.265
			c0.535,0.05,1.059,0.103,1.553-0.273c0.441-0.335,0.677-0.765,0.829-1.284c0.322-1.104,0.213-2.219,0.046-3.326
			c-0.049-0.281-0.098-0.561-0.164-0.943c0.226,0.174,0.396,0.275,0.53,0.414c1.145,1.197,2.224,2.484,3.175,3.921
			c0.317,0.478,0.439,1.006,0.506,1.576c0.148,1.09,0.185,2.171-0.143,3.249c-0.263,0.891-0.76,1.553-1.583,1.718
			c-0.761,0.154-1.565,0.065-2.213-0.484c-0.437-0.37-0.834-0.789-1.29-1.219c-0.027,0.152-0.06,0.279-0.069,0.407
			c-0.187,2.314-0.304,4.636-0.656,6.933c-0.036,0.273,0.036,0.368,0.295,0.396c1.037,0.113,2.069,0.277,3.108,0.36
			c0.471,0.038,0.78,0.262,1.044,0.63c0.456,0.643,0.912,1.285,1.406,1.982c0.031-0.141,0.059-0.235,0.072-0.332l0.566-4.461
			c0.147-1.491,0.239-2.987,0.359-4.48c0.288-2.986,0.304-5.982,0.378-8.976c0.008-0.335-0.122-0.67-0.209-1.109
			c0.203,0.165,0.375,0.273,0.51,0.42c1.193,1.296,2.326,2.683,3.284,4.262c0.306,0.504,0.453,1.045,0.434,1.684
			c-0.403,6.657-1.015,13.321-2.284,19.885c-0.161,0.904-0.161,1.799,0.158,2.664c0.041,0.11,0.061,0.231,0.09,0.348
			L296.894,180.017z"/>
		<path class="st1" d="M234.833,250.015c-0.174,1.221,0.893,2.685,2.099,2.81c1.423,0.148,2.875,0.257,4.305,0.512
			c1.005,0.18,2.026,0.282,3.058,0.363l3.057,0.173c0.335,0.024,0.675,0.014,1.015,0.014c0.435,0,0.656,0.163,0.647,0.594
			c-0.017,0.843-0.042,1.694-0.145,2.547c-0.109,0.991-0.334,1.947-0.551,2.909c-0.062,0.275-0.187,0.544-0.344,0.846
			c-0.062-0.662-0.53-0.482-0.947-0.483c-0.558-0.002-1.104-0.095-1.652-0.15c-1.801-0.185-3.546-0.372-5.325-0.608l-3.726-0.471
			c-1.637-0.239-2.535-1.342-2.658-2.9c-0.154-1.873,0.147-3.668,0.264-5.496c0.113-2.029,0.34-4.007,0.814-5.907
			c0.11-0.443,0.166-0.898,0.251-1.344c0.02-0.108,0.071-0.207,0.176-0.319c0.051,0.127,0.096,0.258,0.156,0.381
			c0.123,0.254,0.238,0.513,0.383,0.755c0.424,0.709,1.171,0.807,1.86,0.963c0.442,0.104,0.88,0.237,1.326,0.329
			c0.243,0.05,0.498,0.031,0.746,0.064c1.407,0.182,2.83,0.356,4.27,0.509c0.211,0.022,0.424,0.047,0.635,0.038
			c0.214-0.01,0.286,0.091,0.285,0.274c-0.003,0.767,0.031,1.54-0.039,2.313c-0.095,1.052-0.261,2.109-0.436,3.172
			c-0.083,0.502-0.112,0.495-0.597,0.436l-3.205-0.46c-0.733-0.1-1.474-0.129-2.197-0.24c-0.378-0.058-0.735-0.224-1.106-0.321
			c-0.457-0.12-0.926-0.195-1.372-0.338c-0.198-0.063-0.377-0.221-0.535-0.369C235.17,250.447,235.029,250.247,234.833,250.015z"/>
		<path class="st1" d="M240.329,260.578c0.002,0.2,0.027,0.402,0,0.601c-0.38,2.759-0.962,5.627-2.263,8.28
			c-0.312,0.634-0.813,1.211-1.277,1.784c-0.767,0.947-1.658,1.759-2.616,2.483c-0.976,0.699-2.04,1.281-3.107,1.847
			c-0.958,0.503-2.022,0.7-3.068,0.776c-0.297,0.022-0.594,0.02-0.888,0.066c-1.207,0.143-2.275-0.198-3.312-0.568
			c-0.626-0.223-0.709-0.503-0.488-1.219c0.371-1.236,0.776-2.418,1.136-3.663c0.089-0.304,0.076-0.536-0.085-0.796l-4.91-7.963
			c-0.173-0.282-0.347-0.579-0.435-0.893c-0.086-0.31-0.137-0.665-0.08-0.974c0.306-1.643,0.682-3.242,1.234-4.763
			c0.04-0.11,0.09-0.216,0.141-0.321c0.018-0.036,0.053-0.064,0.096-0.113c0.148,0.282,0.288,0.549,0.428,0.816
			c0.148,0.271,0.291,0.546,0.462,0.804l5.041,7.563c0.269,0.397,0.323,0.78,0.22,1.221l-0.896,3.651
			c-0.093,0.365,0.009,0.562,0.363,0.648c0.606,0.147,1.216,0.297,1.837,0.408c0.278,0.05,0.578,0.025,0.869,0.015
			c0.456-0.016,0.922,0.003,1.372-0.087c0.916-0.171,1.877-0.299,2.669-0.748c1.36-0.758,2.715-1.619,3.887-2.637
			c1.527-1.353,2.78-3.001,3.114-5.022c0.066-0.415,0.274-0.818,0.414-1.225L240.329,260.578z"/>
		<path class="st1" d="M222.351,268.167c-0.024,0.217-0.026,0.438-0.082,0.642c-0.406,1.543-0.9,3.085-1.619,4.578
			c-0.2,0.416-0.48,0.803-0.745,1.193c-0.074,0.109-0.213,0.188-0.334,0.258c-1.25,0.757-2.577,1.373-3.869,2.053
			c-1.305,0.655-2.588,1.356-3.913,1.97l-1.144,0.516c-0.428,0.186-0.798,0.096-0.975-0.294l-2.088-4.679l-1.994-4.501l-0.997-2.179
			c-0.147-0.333-0.27-0.679-0.371-1.027c-0.187-0.648-0.163-1.284,0.088-1.896c0.564-1.329,1.055-2.735,1.545-4.11
			c0.083-0.233,0.23-0.437,0.347-0.654l0.087,0.031c0.008,0.178-0.019,0.365,0.029,0.532c0.151,0.529,0.269,1.079,0.505,1.57
			l2.386,4.777l2.957,6.179c0.287,0.601,0.526,0.665,1.13,0.356c1.31-0.691,2.656-1.317,3.936-2.063l3.856-2.21
			c0.401-0.229,0.764-0.479,1.008-0.868c0.045-0.07,0.12-0.127,0.179-0.192L222.351,268.167z"/>
		<path class="st1" d="M239.747,237.411l0.117,0.57c0.063,0.348,0.36,0.596,0.703,0.605c1.507,0.04,3.034,0.071,4.58,0.074
			c1.275-0.005,2.602,0.004,3.863-0.067l2.439-0.111c0.249-0.008,0.499,0.073,0.75,0.106c0.305,0.04,0.436,0.23,0.457,0.522
			c0.063,0.886,0.156,1.776,0.162,2.677c0.015,0.908-0.078,1.8-0.173,2.686c-0.028,0.277-0.111,0.552-0.184,0.896
			c-0.086-0.089-0.144-0.12-0.146-0.156c-0.022-0.407-0.336-0.484-0.64-0.486c-0.814-0.005-1.624,0.024-2.43,0.035
			c-1.596,0.015-3.144,0.04-4.725-0.005l-3.98-0.167c-0.759-0.03-1.146-0.324-1.2-1.092c-0.055-0.776-0.073-1.554-0.036-2.318
			c0.046-1.049,0.173-2.06,0.216-3.123c0.012-0.221,0.082-0.435,0.125-0.651L239.747,237.411z"/>
		<path class="st1" d="M222.951,274.445c-0.034,0.209-0.047,0.422-0.107,0.626c-0.462,1.566-1.012,3.13-1.789,4.646
			c-0.251,0.491-0.586,0.927-0.917,1.373c-0.115,0.153-0.317,0.27-0.5,0.364c-1.995,0.997-3.942,2.092-5.983,2.995
			c-2.038,0.906-4.051,1.873-6.116,2.715c-0.566,0.223-1.089,0.482-1.508,0.916c-0.081,0.084-0.194,0.144-0.374,0.188
			c0.067-0.207,0.109-0.421,0.203-0.618c0.758-1.588,1.557-3.117,2.515-4.642c0.419-0.649,0.973-1.155,1.714-1.488l2.949-1.33
			l2.881-1.469l2.878-1.475c0.961-0.489,1.878-1.059,2.819-1.584c0.344-0.197,0.643-0.406,0.822-0.769
			c0.088-0.179,0.263-0.323,0.398-0.483L222.951,274.445z"/>
		<path class="st1" d="M227.264,249.842c0.062,0.121,0.109,0.214,0.156,0.307c0.226,0.429,0.396,0.902,0.684,1.283l5.245,6.885
			c0.216,0.29,0.245,0.793,0.211,1.192c-0.076,0.918-0.221,1.838-0.436,2.719c-0.205,0.878-0.49,1.748-0.759,2.627
			c-0.049,0.161-0.142,0.312-0.216,0.468l-0.1,0.007c-0.03-0.153-0.046-0.31-0.093-0.456c-0.088-0.28-0.139-0.593-0.302-0.825
			l-4.933-6.95c-0.455-0.651-0.692-1.386-0.558-2.217c0.248-1.529,0.498-3.023,0.88-4.532c0.033-0.125,0.078-0.247,0.123-0.367
			C227.179,249.944,227.211,249.914,227.264,249.842z"/>
		<path class="st2" d="M200.752,275.778c-0.157-0.748-0.318-0.808-1.043-0.853c-1.062-0.066-2.111-0.209-3.146-0.352
			c-0.338-0.043-0.679-0.154-0.999-0.304c-0.406-0.185-0.547-0.499-0.388-0.897c0.288-0.697,0.554-1.453,0.894-2.141
			c0.478-0.981,1.007-1.925,1.505-2.872c0.082-0.156,0.208-0.287,0.319-0.438c0.039,0.05,0.064,0.067,0.063,0.082
			c-0.045,0.635,0.242,0.96,0.946,1.065c0.863,0.118,1.753,0.301,2.615,0.359c0.417,0.035,0.841-0.008,1.262,0.02
			c0.461,0.031,0.758,0.432,0.614,0.887c-0.251,0.794-0.524,1.59-0.863,2.362c-0.375,0.831-0.841,1.603-1.291,2.402
			C201.114,275.324,200.939,275.523,200.752,275.778z"/>
		<path class="st2" d="M202.611,289.649c-0.043-0.658-0.594-0.582-0.971-0.66c-0.704-0.149-1.445-0.257-2.166-0.37
			c-0.659-0.108-1.322-0.189-1.97-0.313c-0.536-0.103-0.739-0.449-0.502-0.923c0.419-0.837,0.855-1.665,1.329-2.464
			c0.467-0.792,1.001-1.526,1.482-2.333c0.095-0.155,0.228-0.291,0.404-0.513c0.063,0.817,0.657,0.723,1.198,0.769
			c0.597,0.051,1.19,0.156,1.786,0.25l2.216,0.37c0.398,0.071,0.488,0.209,0.417,0.585c-0.029,0.154-0.074,0.311-0.141,0.456
			c-0.747,1.626-1.605,3.229-2.714,4.746C202.894,289.363,202.784,289.461,202.611,289.649z"/>
		<path class="st2" d="M199.633,275.296c0.03,0.096,0.043,0.117,0.042,0.137c-0.046,0.643-0.051,0.659,0.607,0.786
			c0.327,0.063,0.671,0.095,1.006,0.072c1.148-0.092,2.3,0.113,3.466,0.255c-0.068,0.244-0.109,0.465-0.192,0.673
			c-0.242,0.625-0.494,1.212-0.803,1.797c-0.488,0.906-1.041,1.79-1.569,2.696c-0.2,0.342-0.46,0.433-0.842,0.355
			c-0.977-0.207-1.957-0.213-2.963-0.22c-0.54-0.01-1.084-0.121-1.597-0.262c-0.141-0.039-0.252-0.343-0.268-0.536
			c-0.016-0.184,0.087-0.391,0.174-0.572c0.791-1.6,1.593-3.249,2.594-4.756C199.379,275.585,199.496,275.464,199.633,275.296z"/>
		<path class="st1" d="M271.761,205.793c0.818,0.204,1.592,0.229,2.38,0.148c0.784-0.08,1.573-0.156,2.363-0.184
			c0.169-0.006,0.418,0.194,0.492,0.366c0.316,0.733,0.619,1.484,0.844,2.264c0.288,0.999,0.498,2.035,0.726,3.071
			c0.038,0.168,0.033,0.348,0.041,0.567c-0.592-0.332-1.195-0.088-1.777-0.082c-1.041,0.012-2.091,0.192-3.102-0.073
			c-0.148-0.039-0.333-0.165-0.382-0.299c-0.273-0.748-0.555-1.492-0.758-2.253c-0.251-0.988-0.503-1.981-0.755-2.972
			C271.788,206.176,271.786,205.996,271.761,205.793z"/>
		<path class="st1" d="M280.122,174.132c0.131,0.13,0.275,0.25,0.389,0.395c0.132,0.168,0.281,0.207,0.463,0.124l2.428-1.13
			c0.15-0.072,0.291-0.165,0.433-0.253c0.472-0.291,0.508-0.321,0.818,0.123c0.602,0.863,1.176,1.759,1.722,2.682
			c0.341,0.577,0.62,1.199,0.917,1.812c0.073,0.154,0.123,0.325,0.182,0.502c-1.106,0.667-2.196,1.284-3.394,1.63
			c-0.374,0.108-0.696,0.063-0.904-0.282c-0.703-1.142-1.354-2.248-2.081-3.383c-0.345-0.549-0.612-1.144-0.906-1.716
			c-0.072-0.141-0.109-0.3-0.161-0.451L280.122,174.132z"/>
	</g>
</g>
</svg>
