<?xml version="1.0" encoding="utf-8"?>
<!-- Generator: Adobe Illustrator 17.0.0, SVG Export Plug-In . SVG Version: 6.00 Build 0)  -->
<!DOCTYPE svg PUBLIC "-//W3C//DTD SVG 1.1//EN" "http://www.w3.org/Graphics/SVG/1.1/DTD/svg11.dtd">
<svg version="1.1" id="Capa_1" xmlns="http://www.w3.org/2000/svg" xmlns:xlink="http://www.w3.org/1999/xlink" x="0px" y="0px"
	 width="300px" height="300px" viewBox="0 0 300 300" style="enable-background:new 0 0 300 300;" xml:space="preserve">
<style type="text/css">
	.st0{fill:#F4D68C;}
	.st1{fill:#CE9549;}
</style>
<g>
	<g>
		<path class="st0" d="M296.408,185.171c-2.052,1.696-3.881,3.195-5.738,4.588c-1.515,1.113-2.912,2.248-4.674,3.05
			c-0.497,0.24-1.412-0.057-1.957-0.383c-0.523-0.313-0.911-0.932-1.196-1.49l-4.351-7.501l-4.183-7.831
			c-0.262-0.509-0.417-1.092-0.814-1.922c0.492,0.285,0.719,0.389,0.911,0.534c0.635,0.48,1.158,0.582,1.812,0.051l7.623-6.303
			c1.39-1.164,1.546-1.204,2.693,0.121c1.619,1.872,3.178,3.873,4.541,6.047c0.942,1.502,1.832,3.066,2.698,4.67l2.172,4.839
			C296.182,184.183,296.296,184.789,296.408,185.171z"/>
		<path class="st1" d="M292.093,158.555c-0.967,1.088-1.842,2.072-2.717,3.057c-0.729,0.764-1.396,1.535-2.254,2.178
			c-0.254,0.188-0.809,0.129-1.157,0.012c-0.341-0.113-0.609-0.408-0.871-0.688c-1.139-1.258-2.301-2.474-3.368-3.73
			c-1.149-1.353-2.206-2.741-3.286-4.077c-0.22-0.272-0.36-0.597-0.624-1.042c0.301,0.12,0.438,0.16,0.558,0.226
			c0.395,0.22,0.704,0.229,1.053-0.137l4.047-4.239c0.735-0.765,0.822-0.794,1.561-0.134c1.044,0.932,2.062,1.925,2.981,3.014
			c1.269,1.505,2.439,3.133,3.636,4.777C291.849,158.042,291.984,158.359,292.093,158.555z"/>
		<path class="st1" d="M282.535,201.547c-1.251,0.762-2.355,1.452-3.495,2.082c-0.98,0.48-1.957,0.962-2.972,1.308
			c-0.297,0.101-0.806-0.126-1.102-0.346c-0.284-0.211-0.474-0.586-0.609-0.922c-0.589-1.503-1.236-2.983-1.918-4.529l-1.921-4.908
			c-0.129-0.327-0.166-0.68-0.286-1.188c0.251,0.207,0.37,0.288,0.464,0.388c0.311,0.331,0.602,0.435,1.042,0.194l5.1-2.803
			c0.925-0.504,1.017-0.505,1.525,0.353c0.717,1.212,1.393,2.474,1.944,3.798c0.761,1.829,1.391,3.746,2.041,5.687
			C282.456,200.982,282.491,201.327,282.535,201.547z"/>
	</g>
	<g>
		<path class="st0" d="M269.332,241.194c-2.556,0.714-4.668,1.473-7.082,1.859c-1.891,0.352-3.769,0.698-5.627,0.783
			c-0.543,0.025-1.258-0.619-1.626-1.142c-0.353-0.502-0.467-1.235-0.511-1.871c-0.244-2.901-0.394-5.577-0.741-8.474l-0.789-8.989
			c-0.059-0.592,0.047-1.183,0.087-2.058c0.321,0.453,0.482,0.639,0.591,0.845c0.362,0.683,0.799,0.989,1.652,0.8
			c3.329-0.66,6.369-1.639,9.587-2.595c1.713-0.514,1.871-0.487,2.403,1.207c0.749,2.393,1.393,4.88,1.79,7.447
			c0.351,3.413,0.397,6.953,0.435,10.583C269.509,240.184,269.378,240.793,269.332,241.194z"/>
		<path class="st1" d="M276.323,215.164c-1.302,0.636-2.475,1.204-3.776,1.654c-1.019,0.377-2.035,0.756-3.075,0.997
			c-0.304,0.07-0.786-0.21-1.058-0.46c-0.26-0.24-0.412-0.635-0.512-0.984l-1.35-4.666l-1.419-5.1
			c-0.096-0.34-0.097-0.697-0.166-1.216c0.228,0.233,0.338,0.326,0.421,0.436c0.275,0.364,0.554,0.498,1.014,0.303l5.335-2.262
			c0.967-0.406,1.058-0.397,1.478,0.513c0.592,1.285,1.136,2.616,1.552,3.995c0.574,1.906,1.008,3.884,1.46,5.889
			C276.301,214.592,276.301,214.939,276.323,215.164z"/>
		<path class="st1" d="M250.027,250.509c-1.485,0.121-2.83,0.231-4.175,0.341c-1.072,0.061-2.142,0.126-3.194,0.049
			c-0.307-0.023-0.68-0.437-0.863-0.76c-0.175-0.31-0.203-0.737-0.195-1.105c0.034-1.655,0.023-3.295,0.113-4.897
			c0.07-1.753,0.35-3.351,0.349-5.155c0.009-0.358,0.111-0.703,0.197-1.226c0.148,0.294,0.224,0.417,0.271,0.548
			c0.154,0.434,0.378,0.647,0.869,0.596l5.694-0.587c1.031-0.102,1.115-0.066,1.246,0.94c0.184,1.42,0.31,2.87,0.3,4.327
			c-0.035,1.992-0.134,4.102-0.389,6.078C250.205,249.983,250.084,250.298,250.027,250.509z"/>
	</g>
	<g>
		<path class="st0" d="M221.898,281.45c-2.661-0.447-5.026-0.855-7.328-1.354c-1.852-0.402-3.689-0.804-5.404-1.442
			c-0.501-0.186-0.893-1.065-1.02-1.697c-0.121-0.606,0.067-1.337,0.278-1.95c0.953-2.759,1.786-5.499,2.734-8.111l1.566-4.153
			l1.384-4.315c0.178-0.58,0.504-1.094,0.88-1.902c0.114,0.55,0.187,0.787,0.205,1.023c0.061,0.782,0.336,1.239,1.18,1.391
			c3.201,0.569,6.534,1.147,9.922,1.666c1.747,0.186,1.88,0.273,1.703,2.07c-0.289,2.482-0.802,4.874-1.53,7.303
			c-1.021,3.334-2.365,6.672-3.757,10.084C222.491,280.641,222.118,281.132,221.898,281.45z"/>
		<path class="st1" d="M238.77,260.369c-1.483-0.027-2.826-0.051-4.169-0.075c-1.068-0.045-2.134-0.087-3.168-0.269
			c-0.302-0.053-0.63-0.504-0.778-0.846c-0.142-0.327-0.126-0.757-0.082-1.124c0.202-1.652,0.356-3.292,0.607-4.886
			c0.27-1.717,0.628-3.386,0.932-5.038c0.095-0.337,0.19-0.679,0.333-1.188c0.116,0.309,0.18,0.439,0.213,0.575
			c0.109,0.45,0.309,0.685,0.8,0.683l5.694-0.019c1.031,0.001,1.11,0.046,1.139,1.065c0.04,1.439,0.02,2.901-0.137,4.357
			c-0.197,2.034-0.585,4.038-1.079,5.936C239.001,259.86,238.848,260.163,238.77,260.369z"/>
		<path class="st1" d="M200.373,281.944c-1.415-0.45-2.682-0.848-3.92-1.29c-0.996-0.356-1.991-0.707-2.912-1.183
			c-0.269-0.139-0.441-0.67-0.478-1.042c-0.035-0.357,0.111-0.766,0.265-1.107c0.693-1.533,1.337-3.07,2.057-4.535
			c0.776-1.578,1.62-3.084,2.407-4.59c0.16-0.307,0.402-0.56,0.704-0.975c0.012,0.322,0.032,0.463,0.02,0.598
			c-0.041,0.446,0.077,0.732,0.556,0.909c1.833,0.71,3.663,1.333,5.465,1.851c0.972,0.301,1.034,0.367,0.755,1.361
			c-0.407,1.374-0.828,2.872-1.467,4.106c-0.866,1.747-1.886,3.451-2.91,5.188C200.746,281.521,200.509,281.768,200.373,281.944z"/>
	</g>
	<g>
		<path class="st0" d="M162.089,298.695c-2.243-1.452-4.231-2.75-6.127-4.107c-1.525-1.092-3.036-2.177-4.341-3.432
			c-0.382-0.367-0.381-1.328-0.24-1.96c0.137-0.606,0.605-1.206,1.047-1.689c1.992-2.173,3.869-4.378,5.8-6.422
			c2.078-2.221,4.202-4.206,6.173-6.358c0.397-0.469,0.903-0.821,1.574-1.426c-0.12,0.554-0.15,0.802-0.229,1.028
			c-0.263,0.748-0.198,1.278,0.508,1.743l8.349,5.391c1.536,0.978,1.622,1.114,0.711,2.602c-1.287,2.1-2.715,4.183-4.369,6.131
			c-2.287,2.668-4.856,5.371-7.545,7.602C162.959,298.184,162.418,298.474,162.089,298.695z"/>
		<path class="st1" d="M186.09,286.4c-1.357-0.59-2.572-1.113-3.754-1.677c-0.951-0.454-1.901-0.903-2.765-1.469
			c-0.252-0.165-0.367-0.711-0.364-1.086c0.003-0.359,0.191-0.753,0.38-1.077c0.85-1.459,1.652-2.927,2.522-4.316
			c0.937-1.496,1.935-2.914,2.875-4.338c0.191-0.29,0.458-0.519,0.801-0.903c-0.022,0.322-0.017,0.465-0.044,0.598
			c-0.088,0.441-0.001,0.738,0.455,0.962c1.718,0.805,3.53,1.809,5.259,2.493c0.933,0.397,0.987,0.469,0.605,1.432
			c-0.528,1.396-1.161,2.659-1.92,3.846c-1.045,1.655-2.237,3.253-3.438,4.882C186.505,286.015,186.244,286.239,186.09,286.4z"/>
		<path class="st1" d="M142.252,290.488c-1.089-0.967-2.074-1.842-3.06-2.717c-0.766-0.722-1.535-1.413-2.182-2.237
			c-0.188-0.254-0.13-0.809-0.013-1.157c0.112-0.329,0.409-0.625,0.689-0.887c1.256-1.139,2.471-2.302,3.726-3.368
			c1.352-1.149,2.738-2.206,4.073-3.286c0.271-0.22,0.596-0.359,1.042-0.624c-0.12,0.301-0.16,0.438-0.226,0.558
			c-0.219,0.395-0.228,0.704,0.139,1.053l4.244,4.047c0.765,0.731,0.795,0.798,0.135,1.562c-0.931,1.044-1.923,2.062-3.01,2.981
			c-1.503,1.269-3.129,2.439-4.772,3.636C142.764,290.245,142.448,290.38,142.252,290.488z"/>
	</g>
	<g>
		<path class="st0" d="M100.464,290.27c-1.475-2.208-2.777-4.174-3.97-6.157c-0.979-1.549-1.886-3.229-2.515-5.029
			c-0.187-0.517,0.204-1.396,0.587-1.905c0.367-0.488,1.024-0.811,1.611-1.04c2.615-0.967,5.312-2.425,7.896-3.489l8.243-3.377
			c0.545-0.242,1.121-0.268,1.976-0.542c-0.334,0.457-0.465,0.683-0.625,0.845c-0.53,0.536-0.697,1.082-0.244,1.802l5.475,8.205
			c1.013,1.498,1.037,1.657-0.403,2.664c-2.034,1.421-4.19,2.77-6.497,3.905c-3.221,1.669-6.546,2.733-9.96,3.811
			C101.473,290.144,100.857,290.197,100.464,290.27z"/>
		<path class="st1" d="M127.391,288.79c-1.004-1.073-1.905-2.03-2.76-3.01c-0.688-0.785-1.379-1.556-1.92-2.517
			c-0.16-0.272-0.044-0.817,0.109-1.151c0.147-0.32,0.473-0.581,0.773-0.78l4.054-2.932c1.466-1.006,2.956-1.918,4.396-2.858
			c0.293-0.191,0.63-0.298,1.101-0.516c-0.151,0.287-0.205,0.42-0.283,0.532c-0.26,0.371-0.301,0.677,0.027,1.061l3.796,4.451
			c0.684,0.808,0.704,0.897-0.029,1.567c-1.035,0.944-2.128,1.857-3.307,2.661c-1.629,1.111-3.37,2.11-5.131,3.134
			C127.927,288.599,127.597,288.702,127.391,288.79z"/>
		<path class="st1" d="M85.625,274.784c-0.63-1.315-1.215-2.458-1.664-3.763c-0.378-1.02-0.758-2.036-0.999-3.077
			c-0.07-0.304,0.209-0.787,0.459-1.059c0.24-0.26,0.634-0.412,0.983-0.513l4.67-1.366l5.096-1.42
			c0.34-0.096,0.696-0.098,1.215-0.167c-0.233,0.228-0.326,0.338-0.435,0.422c-0.363,0.275-0.497,0.554-0.301,1.014l2.266,5.337
			c0.407,0.968,0.398,1.059-0.511,1.479c-1.284,0.592-2.614,1.137-3.991,1.553c-1.904,0.575-3.881,1.01-5.885,1.462
			C86.198,274.762,85.85,274.762,85.625,274.784z"/>
	</g>
	<g>
		<path class="st0" d="M47.577,257.507c-0.237-1.274-0.463-2.488-0.683-3.671c-0.129-1.225-0.255-2.418-0.381-3.612
			c-0.163-1.909-0.321-3.804-0.22-5.654c0.029-0.541,0.744-1.184,1.304-1.497c0.537-0.3,1.281-0.339,1.921-0.32l8.463,0.188
			l9.064,0.106c0.598,0,1.178,0.164,2.049,0.289c-0.485,0.274-0.687,0.415-0.904,0.503c-0.719,0.291-1.069,0.694-0.966,1.557
			l0.63,4.991l0.923,4.85c0.339,1.749,0.296,1.902-1.45,2.262c-2.435,0.469-5.085,0.983-7.549,0.954
			c-3.443,0.006-6.986-0.296-10.614-0.62C48.567,257.782,47.972,257.593,47.577,257.507z"/>
		<path class="st1" d="M72.728,267.188c-0.515-1.332-0.846-2.722-1.204-3.996c-0.273-1.048-0.548-2.092-0.682-3.147
			c-0.039-0.308,0.29-0.759,0.568-1.003c0.266-0.234,0.676-0.346,1.035-0.411c1.616-0.292,3.207-0.625,4.781-0.851
			c1.684-0.224,3.497-0.569,5.196-0.842c0.35-0.061,0.706-0.028,1.231-0.045c-0.257,0.203-0.36,0.303-0.479,0.375
			c-0.391,0.237-0.554,0.5-0.406,0.975l1.71,5.512c0.306,0.999,0.288,1.089-0.664,1.415c-1.344,0.46-2.729,0.869-4.148,1.145
			c-1.961,0.381-3.981,0.616-6.028,0.866C73.301,267.222,72.954,267.188,72.728,267.188z"/>
		<path class="st1" d="M40.369,237.294c0.026-1.484,0.05-2.828,0.073-4.172c0.045-1.069,0.087-2.135,0.268-3.169
			c0.053-0.302,0.504-0.63,0.845-0.779c0.327-0.142,0.756-0.127,1.123-0.083c1.651,0.2,3.29,0.354,4.883,0.603
			c1.716,0.269,3.385,0.626,5.035,0.929c0.345,0.055,0.689,0.183,1.2,0.322c-0.309,0.117-0.439,0.181-0.575,0.214
			c-0.449,0.109-0.685,0.31-0.682,0.801l0.021,5.698c-0.001,1.032-0.045,1.111-1.064,1.141c-1.438,0.041-2.9,0.022-4.355-0.134
			c-2.023-0.205-4.051-0.57-5.946-1.065C40.878,237.524,40.575,237.372,40.369,237.294z"/>
	</g>
	<g>
		<path class="st0" d="M12.54,206.089c0.711-2.596,1.353-4.9,2.079-7.133c0.585-1.796,1.168-3.578,1.974-5.213
			c0.236-0.478,1.15-0.775,1.793-0.835c0.617-0.057,1.326,0.205,1.917,0.479c2.657,1.233,5.308,2.345,7.82,3.557
			c2.702,1.308,5.217,2.717,8.065,3.84c0.562,0.236,1.043,0.612,1.813,1.068c-0.56,0.056-0.804,0.104-1.042,0.098
			c-0.787-0.02-1.27,0.205-1.505,1.027l-2.66,9.675c-0.465,1.77-0.568,1.894-2.256,1.487c-2.369-0.584-4.764-1.308-7.099-2.29
			c-3.211-1.364-6.462-3.019-9.656-4.783C13.285,206.764,12.848,206.336,12.54,206.089z"/>
		<path class="st1" d="M31.727,225.081c0.173-1.468,0.33-2.796,0.487-4.125c0.151-1.054,0.298-2.106,0.581-3.112
			c0.083-0.294,0.566-0.573,0.922-0.685c0.341-0.108,0.769-0.048,1.131,0.034c1.63,0.368,3.253,0.688,4.821,1.097
			c1.689,0.442,3.322,0.966,4.942,1.434c0.33,0.095,0.624,0.281,1.087,0.494c-0.311,0.078-0.444,0.126-0.578,0.141
			c-0.443,0.051-0.698,0.226-0.776,0.734l-0.572,5.661c-0.103,1.021-0.155,1.095-1.177,1.021c-1.442-0.105-2.901-0.272-4.34-0.574
			c-2.046-0.378-3.811-1.098-5.73-1.733C32.212,225.361,31.924,225.179,31.727,225.081z"/>
		<path class="st1" d="M14.278,184.643c0.589-1.358,1.113-2.574,1.676-3.757c0.454-0.952,0.902-1.902,1.469-2.768
			c0.165-0.253,0.711-0.368,1.086-0.365c0.359,0.003,0.753,0.19,1.077,0.379c1.459,0.848,2.927,1.649,4.315,2.518
			c1.495,0.936,2.913,1.932,4.337,2.87c0.29,0.191,0.519,0.457,0.902,0.801c-0.322-0.021-0.465-0.017-0.598-0.043
			c-0.441-0.087-0.738,0-0.961,0.457c-0.811,1.722-1.802,3.531-2.476,5.258c-0.396,0.933-0.468,0.987-1.432,0.607
			c-1.392-0.527-2.688-1.149-3.86-1.911c-1.655-1.043-3.252-2.234-4.881-3.434C14.663,185.057,14.44,184.796,14.278,184.643z"/>
	</g>
	<g>
		<path class="st0" d="M1.623,144.835c1.671-2.081,3.163-3.925,4.704-5.671c1.24-1.404,2.472-2.795,3.852-3.963
			c0.407-0.341,1.388-0.239,1.981-0.035c0.576,0.197,1.135,0.726,1.568,1.215c1.961,2.206,3.966,4.301,5.805,6.433l5.673,6.798
			c0.427,0.444,0.726,0.984,1.261,1.715c-0.539-0.177-0.782-0.233-0.999-0.335c-0.718-0.339-1.251-0.33-1.786,0.325l-6.205,7.748
			c-1.128,1.426-1.273,1.497-2.661,0.436c-1.96-1.499-3.889-3.136-5.66-4.981c-2.453-2.551-4.814-5.381-6.77-8.288
			C2.043,145.753,1.809,145.185,1.623,144.835z"/>
		<path class="st1" d="M11.346,169.973c0.723-1.286,1.366-2.439,2.046-3.555c0.547-0.897,1.089-1.794,1.74-2.594
			c0.19-0.234,0.745-0.291,1.117-0.248c0.357,0.041,0.73,0.269,1.034,0.49c1.368,0.997,2.749,1.949,4.044,2.959
			c1.396,1.088,2.708,2.228,4.033,3.312c0.27,0.221,0.471,0.509,0.819,0.891c-0.319-0.055-0.461-0.066-0.591-0.106
			c-0.431-0.134-0.735-0.078-1.003,0.352l-3.085,4.98c-0.488,0.884-0.565,0.93-1.487,0.451c-1.29-0.68-2.426-1.454-3.562-2.327
			c-1.544-1.212-3.015-2.564-4.517-3.928C11.687,170.425,11.491,170.142,11.346,169.973z"/>
		<path class="st1" d="M11.82,125.947c1.073-1.005,2.03-1.907,3.011-2.763c0.8-0.686,1.536-1.385,2.502-1.926
			c0.272-0.16,0.817-0.045,1.152,0.108c0.32,0.147,0.581,0.473,0.78,0.772l2.949,4.053c1.006,1.464,1.918,2.953,2.858,4.392
			c0.191,0.293,0.298,0.63,0.516,1.1c-0.287-0.15-0.42-0.204-0.532-0.282c-0.371-0.259-0.677-0.299-1.061,0.028l-4.452,3.801
			c-0.808,0.685-0.898,0.705-1.567-0.027c-0.944-1.034-1.858-2.126-2.661-3.303c-1.111-1.627-2.11-3.367-3.135-5.127
			C12.01,126.482,11.908,126.153,11.82,125.947z"/>
	</g>
	<g>
		<path class="st0" d="M16.439,84.411c2.337-1.24,4.418-2.334,6.503-3.317c1.645-0.808,3.542-1.463,5.327-1.939
			c0.532-0.134,1.364,0.348,1.831,0.782c0.448,0.417,0.704,1.106,0.872,1.715c0.69,2.705,1.729,5.469,2.59,8.19l2.538,8.576
			c0.174,0.564,0.184,1.158,0.316,2.017c-0.405-0.374-0.6-0.522-0.749-0.7c-0.49-0.59-0.982-0.799-1.787-0.441
			c-2.943,1.407-5.747,2.987-8.751,4.571c-1.588,0.853-1.748,0.86-2.605-0.681c-1.209-2.176-2.333-4.465-3.23-6.884
			c-1.353-3.391-1.9-6.743-2.706-10.291C16.464,85.43,16.472,84.81,16.439,84.411z"/>
		<path class="st1" d="M15.061,111.339c1.167-0.887,2.208-1.684,3.268-2.432c0.816-0.613,1.808-1.172,2.768-1.626
			c0.286-0.131,0.816,0.042,1.133,0.23c0.304,0.18,0.53,0.533,0.698,0.852c0.704,1.421,1.65,2.871,2.433,4.321l2.401,4.676
			c0.161,0.312,0.233,0.659,0.403,1.15c-0.27-0.18-0.397-0.248-0.5-0.337c-0.342-0.297-0.643-0.37-1.057-0.084l-4.803,3.313
			c-0.871,0.597-0.962,0.607-1.554-0.193c-0.835-1.129-1.633-2.313-2.313-3.571c-0.94-1.738-1.759-3.577-2.6-5.438
			C15.196,111.893,15.127,111.554,15.061,111.339z"/>
		<path class="st1" d="M33.359,71.261c1.324-0.522,2.705-0.86,3.985-1.215c1.048-0.273,2.093-0.549,3.148-0.684
			c0.308-0.039,0.759,0.289,1.004,0.566c0.235,0.266,0.346,0.675,0.411,1.034c0.292,1.614,0.627,3.204,0.853,4.778l0.857,5.201
			c0.062,0.349,0.028,0.705,0.046,1.23c-0.203-0.256-0.303-0.36-0.375-0.478c-0.237-0.391-0.501-0.553-0.976-0.405l-5.515,1.714
			c-0.999,0.306-1.089,0.288-1.416-0.663c-0.461-1.343-0.87-2.727-1.147-4.145c-0.382-1.96-0.618-3.978-0.869-6.024
			C33.325,71.834,33.359,71.487,33.359,71.261z"/>
	</g>
	<g>
		<path class="st0" d="M54.513,35.216c2.542-0.297,5.05-0.251,7.397-0.25c1.908,0.026,3.803,0.057,5.625,0.341
			c0.533,0.083,1.099,0.861,1.352,1.451c0.243,0.566,0.207,1.313,0.123,1.951c-0.378,2.87-0.643,5.698-1.049,8.424
			c-0.419,2.959-0.747,6.07-1.067,8.977c-0.059,0.598-0.279,1.161-0.489,2.021c-0.223-0.512-0.342-0.728-0.408-0.954
			c-0.217-0.748-0.581-1.138-1.447-1.12c-3.27,0.087-6.753,0.106-9.983,0.489c-1.766,0.164-1.914,0.105-2.097-1.676
			c-0.276-2.534-0.404-5.112-0.116-7.557c0.337-3.441,0.99-6.951,1.674-10.543C54.141,36.178,54.389,35.602,54.513,35.216z"/>
		<path class="st1" d="M42.282,59.242c1.471-0.268,2.803-0.51,4.136-0.752c1.065-0.167,2.127-0.337,3.185-0.364
			c0.309-0.008,0.723,0.366,0.938,0.668c0.206,0.29,0.276,0.71,0.305,1.076c0.129,1.644,0.303,3.268,0.371,4.865
			c0.039,1.691,0.077,3.434,0.235,5.206c0.026,0.356-0.042,0.708-0.076,1.235c-0.176-0.277-0.265-0.391-0.324-0.516
			c-0.196-0.415-0.441-0.604-0.926-0.505l-5.63,1.149c-1.02,0.204-1.107,0.177-1.337-0.808c-0.324-1.39-0.592-2.815-0.726-4.26
			c-0.184-1.998-0.218-4.038-0.263-6.108C42.153,59.78,42.243,59.455,42.282,59.242z"/>
		<path class="st1" d="M75.409,30.202c1.469,0.172,2.798,0.329,4.128,0.485c1.055,0.15,2.107,0.297,3.114,0.58
			c0.294,0.083,0.573,0.565,0.686,0.921c0.108,0.341,0.049,0.768-0.032,1.13c-0.367,1.629-0.685,3.252-1.094,4.819
			c-0.44,1.688-0.963,3.32-1.43,4.94c-0.095,0.33-0.281,0.624-0.494,1.087c-0.078-0.311-0.126-0.444-0.142-0.578
			c-0.051-0.442-0.227-0.698-0.735-0.776l-5.656-0.556c-1.022-0.102-1.096-0.155-1.023-1.176c0.104-1.441,0.27-2.9,0.57-4.338
			c0.379-2.042,1.078-3.835,1.72-5.741C75.129,30.688,75.311,30.4,75.409,30.202z"/>
	</g>
	<g>
		<path class="st0" d="M109.359,5.803c2.503,0.968,4.724,1.838,6.866,2.785c1.723,0.762,3.43,1.521,4.969,2.487
			c0.45,0.282,0.649,1.223,0.641,1.87c-0.008,0.62-0.343,1.301-0.677,1.862c-1.503,2.524-2.884,5.056-4.351,7.439
			c-1.557,2.643-3.279,4.821-4.681,7.573c-0.292,0.537-0.715,0.98-1.248,1.703c0.002-0.565-0.02-0.812,0.011-1.049
			c0.102-0.783-0.072-1.287-0.862-1.602l-9.321-3.61c-1.712-0.649-1.825-0.765-1.241-2.398c0.826-2.306,1.794-4.623,3.011-6.854
			c1.7-3.027,3.642-6.234,5.782-9.065C108.611,6.477,109.082,6.085,109.359,5.803z"/>
		<path class="st1" d="M88.453,22.874c1.457,0.306,2.761,0.577,4.041,0.893c1.03,0.255,2.058,0.505,3.026,0.887
			c0.283,0.112,0.509,0.621,0.584,0.987c0.071,0.351-0.032,0.772-0.15,1.125c-0.533,1.591-1.017,3.18-1.584,4.705
			c-0.611,1.643-1.298,3.221-1.928,4.794c-0.128,0.32-0.343,0.596-0.601,1.037c-0.045-0.318-0.079-0.456-0.081-0.591
			c-0.005-0.447-0.152-0.719-0.648-0.847c-1.913-0.545-3.716-0.824-5.602-1.224c-1.001-0.203-1.069-0.263-0.892-1.276
			c0.251-1.43,0.565-2.871,1.011-4.278c0.666-1.852,1.52-3.621,2.359-5.454C88.125,23.331,88.335,23.061,88.453,22.874z"/>
		<path class="st1" d="M130.494,9.759c1.287,0.723,2.441,1.366,3.558,2.046c0.898,0.547,1.796,1.089,2.597,1.739
			c0.234,0.19,0.291,0.745,0.249,1.117c-0.041,0.357-0.268,0.73-0.489,1.034c-0.996,1.367-1.946,2.748-2.954,4.044
			c-1.087,1.395-2.226,2.708-3.308,4.032c-0.22,0.27-0.509,0.471-0.89,0.819c0.055-0.319,0.065-0.461,0.106-0.591
			c0.133-0.43,0.077-0.735-0.353-1.003c-1.63-1-3.31-2.094-4.981-3.068c-0.885-0.488-0.931-0.565-0.453-1.487
			c0.672-1.323,1.449-2.435,2.32-3.577c1.21-1.543,2.561-3.015,3.924-4.516C130.042,10.1,130.324,9.904,130.494,9.759z"/>
	</g>
	<g>
		<path class="st0" d="M171.397,1.305c1.899,1.872,3.581,3.542,5.159,5.251c1.265,1.393,2.534,2.7,3.536,4.271
			c0.291,0.471,0.091,1.413-0.175,1.988c-0.258,0.561-0.825,0.975-1.362,1.379l-7.006,5.123l-7.346,4.947
			c-0.481,0.338-1.052,0.611-1.834,1.061c0.232-0.518,0.312-0.755,0.436-0.96c0.412-0.68,0.458-1.211-0.139-1.809l-7.066-6.952
			c-1.302-1.266-1.358-1.417-0.159-2.692c1.694-1.799,3.521-3.553,5.54-5.128c1.395-1.089,2.856-2.133,4.359-3.157
			c1.503-1.017,3.028-1.799,4.586-2.707C170.438,1.63,171.029,1.455,171.397,1.305z"/>
		<path class="st1" d="M145.385,8.376c1.182,0.852,2.252,1.623,3.322,2.395c0.836,0.635,1.672,1.265,2.4,1.992
			c0.213,0.231,0.212,0.791,0.131,1.148c-0.077,0.333-0.343,0.69-0.595,0.968c-1.134,1.26-2.223,2.539-3.363,3.726
			c-1.228,1.279-2.499,2.471-3.716,3.679c-0.248,0.246-0.556,0.418-0.973,0.726c0.088-0.312,0.114-0.452,0.167-0.578
			c0.178-0.415,0.155-0.723-0.245-1.034l-4.635-3.599c-0.834-0.628-0.869-0.689-0.294-1.54c0.82-1.132,1.702-2.245,2.69-3.268
			c1.366-1.414,2.864-2.742,4.376-4.098C144.901,8.67,145.202,8.503,145.385,8.376z"/>
		<path class="st1" d="M189.131,13.405c0.888,1.167,1.686,2.209,2.435,3.269c0.613,0.82,1.183,1.779,1.633,2.753
			c0.131,0.286-0.041,0.816-0.228,1.133c-0.18,0.304-0.532,0.531-0.851,0.698c-1.419,0.701-2.878,1.681-4.322,2.45l-4.672,2.401
			c-0.311,0.161-0.658,0.233-1.149,0.403c0.18-0.27,0.247-0.397,0.337-0.5c0.297-0.342,0.369-0.643,0.083-1.058l-3.317-4.805
			c-0.598-0.872-0.608-0.963,0.191-1.555c1.128-0.835,2.311-1.634,3.568-2.314c1.737-0.941,3.574-1.76,5.434-2.601
			C188.577,13.541,188.916,13.472,189.131,13.405z"/>
	</g>
	<g>
		<path class="st0" d="M229.947,22.373c0.991,2.449,1.885,4.594,2.627,6.796c0.54,1.854,1.072,3.695,1.343,5.543
			c0.079,0.54-0.487,1.318-0.968,1.738c-0.462,0.402-1.177,0.588-1.802,0.695c-2.805,0.464-5.542,1.032-8.384,1.671l-8.826,1.672
			c-0.581,0.117-1.176,0.069-2.047,0.115c0.416-0.365,0.583-0.544,0.776-0.674c0.639-0.428,0.899-0.895,0.624-1.729
			c-1.004-3.237-2.358-6.045-3.605-9.222c-0.686-1.66-0.675-1.82,0.95-2.518c2.296-0.984,4.696-1.873,7.202-2.523
			c3.452-0.879,6.88-1.136,10.499-1.576C228.928,22.297,229.545,22.367,229.947,22.373z"/>
		<path class="st1" d="M203.321,18.159c0.758,1.257,1.456,2.339,2.072,3.509c0.479,0.98,0.96,1.957,1.305,2.971
			c0.101,0.296-0.127,0.805-0.347,1.101c-0.211,0.284-0.587,0.474-0.923,0.608c-1.51,0.602-2.978,1.217-4.527,1.901l-4.912,1.919
			c-0.327,0.129-0.681,0.166-1.188,0.286c0.208-0.251,0.288-0.37,0.389-0.463c0.332-0.311,0.436-0.602,0.195-1.041l-2.798-5.098
			c-0.503-0.925-0.504-1.016,0.355-1.525c1.213-0.717,2.477-1.392,3.802-1.942c1.831-0.761,3.749-1.39,5.692-2.039
			C202.755,18.238,203.1,18.204,203.321,18.159z"/>
		<path class="st1" d="M241.267,40.554c0.269,1.472,0.511,2.805,0.754,4.138c0.168,1.065,0.338,2.128,0.367,3.187
			c0.008,0.309-0.365,0.724-0.667,0.939c-0.29,0.206-0.71,0.276-1.075,0.305c-1.643,0.13-3.266,0.304-4.862,0.374
			c-1.688,0.037-3.451,0.102-5.212,0.25c-0.355,0.026-0.708-0.041-1.234-0.076c0.277-0.176,0.39-0.265,0.516-0.325
			c0.415-0.197,0.603-0.442,0.504-0.927l-1.152-5.633c-0.205-1.021-0.177-1.108,0.806-1.338c1.389-0.324,2.812-0.594,4.257-0.728
			c1.996-0.185,4.036-0.22,6.104-0.266C240.713,40.445,241.059,40.51,241.267,40.554z"/>
	</g>
	<g>
		<path class="st0" d="M274.937,65.34c-0.098,2.645-0.328,5.086-0.577,7.423c-0.215,1.89-0.433,3.764-0.896,5.542
			c-0.135,0.52-0.968,1.001-1.582,1.193c-0.589,0.183-1.332,0.071-1.961-0.076c-2.83-0.667-5.629-1.217-8.312-1.895
			c-2.803-0.79-5.894-1.416-8.773-2.022c-0.592-0.119-1.133-0.392-1.972-0.687c0.534-0.17,0.761-0.266,0.994-0.309
			c0.769-0.14,1.195-0.461,1.262-1.321c0.21-3.225,0.58-6.717,0.587-10.01c0.012-1.765,0.085-1.906,1.883-1.91
			c2.595-0.05,4.997,0.234,7.474,0.715c3.405,0.681,6.847,1.682,10.367,2.722C274.013,64.874,274.563,65.178,274.937,65.34z"/>
		<path class="st1" d="M252.238,50.735c0.121,1.485,0.23,2.829,0.339,4.173c0.061,1.072,0.124,2.141,0.047,3.192
			c-0.023,0.307-0.438,0.68-0.761,0.863c-0.31,0.175-0.737,0.202-1.105,0.195c-1.656-0.036-3.297-0.025-4.9-0.116
			c-1.756-0.069-3.353-0.353-5.146-0.363c-0.358-0.009-0.704-0.111-1.227-0.198c0.295-0.147,0.417-0.224,0.548-0.27
			c0.435-0.154,0.648-0.377,0.597-0.868l-0.584-5.691c-0.101-1.031-0.065-1.114,0.941-1.245c1.421-0.183,2.872-0.309,4.33-0.298
			c1.989,0.042,4.116,0.125,6.07,0.403C251.711,50.556,252.026,50.678,252.238,50.735z"/>
		<path class="st1" d="M277.687,86.686c-0.306,1.458-0.576,2.763-0.892,4.044c-0.254,1.03-0.504,2.059-0.886,3.028
			c-0.111,0.283-0.621,0.51-0.987,0.585c-0.351,0.072-0.772-0.031-1.125-0.149c-1.59-0.531-3.179-1.014-4.703-1.58
			c-1.642-0.61-3.22-1.296-4.792-1.925c-0.32-0.128-0.596-0.342-1.037-0.601c0.318-0.046,0.456-0.08,0.591-0.082
			c0.447-0.005,0.719-0.153,0.847-0.649c0.548-1.916,0.796-3.704,1.207-5.598c0.203-1.002,0.262-1.07,1.275-0.894
			c1.429,0.25,2.87,0.563,4.276,1.007c1.879,0.65,3.628,1.513,5.466,2.347C277.231,86.358,277.5,86.568,277.687,86.686z"/>
	</g>
	<g>
		<path class="st0" d="M298.377,123.009c-1.216,2.385-2.306,4.501-3.464,6.529c-0.932,1.632-1.859,3.249-2.975,4.677
			c-0.326,0.418-1.283,0.517-1.925,0.441c-0.616-0.073-1.261-0.477-1.786-0.867c-2.363-1.757-4.745-3.396-6.971-5.104
			c-2.443-1.83-4.548-3.751-6.999-5.462c-0.506-0.346-0.906-0.813-1.574-1.417c0.563,0.061,0.812,0.066,1.044,0.121
			c0.77,0.183,1.29,0.064,1.682-0.688l4.523-8.877c0.818-1.632,0.945-1.732,2.514-0.982c2.216,1.062,4.429,2.265,6.531,3.708
			c2.831,2.009,5.895,4.26,8.375,6.708C297.781,122.196,298.124,122.704,298.377,123.009z"/>
		<path class="st1" d="M283.616,100.423c-0.45,1.414-0.849,2.68-1.291,3.917c-0.356,0.995-0.707,1.989-1.184,2.909
			c-0.139,0.269-0.67,0.44-1.042,0.476c-0.357,0.034-0.767-0.112-1.108-0.266c-1.534-0.694-3.071-1.34-4.536-2.061
			c-1.578-0.777-3.085-1.623-4.592-2.411c-0.307-0.16-0.56-0.402-0.976-0.704c0.322-0.012,0.463-0.031,0.598-0.019
			c0.446,0.041,0.733-0.076,0.909-0.554c0.697-1.826,1.353-3.668,1.868-5.467c0.302-0.972,0.368-1.033,1.361-0.753
			c1.377,0.407,2.873,0.83,4.093,1.476c1.747,0.868,3.453,1.889,5.19,2.915C283.193,100.05,283.44,100.287,283.616,100.423z"/>
		<path class="st1" d="M292.251,143.602c-0.852,1.183-1.623,2.254-2.394,3.325c-0.635,0.837-1.265,1.673-1.992,2.402
			c-0.213,0.213-0.77,0.213-1.137,0.133c-0.351-0.077-0.699-0.342-0.98-0.594c-1.26-1.132-2.538-2.22-3.726-3.358
			c-1.279-1.226-2.47-2.496-3.679-3.712c-0.246-0.247-0.418-0.556-0.725-0.972c0.311,0.088,0.452,0.113,0.577,0.167
			c0.415,0.177,0.724,0.154,1.034-0.247l3.599-4.64c0.602-0.832,0.663-0.868,1.539-0.296c1.132,0.818,2.245,1.699,3.268,2.687
			c1.414,1.364,2.742,2.861,4.098,4.371C291.957,143.117,292.124,143.418,292.251,143.602z"/>
	</g>
</g>
</svg>
