<?xml version="1.0" encoding="utf-8"?>
<!-- Generator: Adobe Illustrator 17.0.0, SVG Export Plug-In . SVG Version: 6.00 Build 0)  -->
<!DOCTYPE svg PUBLIC "-//W3C//DTD SVG 1.1//EN" "http://www.w3.org/Graphics/SVG/1.1/DTD/svg11.dtd">
<svg version="1.1" id="Capa_1" xmlns="http://www.w3.org/2000/svg" xmlns:xlink="http://www.w3.org/1999/xlink" x="0px" y="0px"
	 width="213px" height="209.502px" viewBox="89.167 8.333 213 209.502" style="enable-background:new 89.167 8.333 213 209.502;"
	 xml:space="preserve">
<style type="text/css">
	.st0{fill:#EAC765;}
	.st1{fill:#B27D3D;}
</style>
<g>
	<g id="_x35_Stse8_5_">
		<g>
			<g>
				<path class="st0" d="M202.917,37.977c-1.284,0.097-2.569,0.192-3.853,0.292c-0.161,0.013-0.335,0.108-0.478,0.07
					c-0.96-0.255-1.212,0.336-1.178,1.07c0.078,1.72,0.218,3.439,0.361,5.156c0.121,1.45,0.258,2.899,0.43,4.344
					c0.179,1.503,0.405,3.001,0.615,4.5c0.26,1.861,0.508,3.723,0.791,5.581c0.308,2.018,0.673,4.028,0.969,6.047
					c0.187,1.275,0.282,2.562,0.435,3.842c0.208,1.736,0.437,3.47,0.65,5.206c0.169,1.378,0.297,2.761,0.494,4.135
					c0.32,2.239,0.716,4.468,1.014,6.709c0.253,1.901,0.406,3.814,0.614,5.721c0.252,2.308,0.539,4.612,0.767,6.921
					c0.133,1.351,0.481,2.779,0.189,4.046c-0.323,1.402-1.214,2.693-1.961,3.972c-0.446,0.764-1.086,1.417-1.65,2.111
					c-0.139,0.171-0.323,0.305-0.486,0.456c-0.071-0.051-0.143-0.102-0.214-0.152c0.192-0.531,0.536-1.059,0.548-1.594
					c0.043-2.01,0.037-4.026-0.065-6.033c-0.079-1.541-0.322-3.073-0.506-4.608c-0.197-1.636-0.393-3.273-0.621-4.905
					c-0.31-2.219-0.698-4.428-0.967-6.652c-0.447-3.689-0.741-7.398-1.258-11.076c-0.456-3.244-1.152-6.454-1.696-9.687
					c-0.338-2.01-0.59-4.035-0.877-6.054c-0.134-0.942-0.259-1.885-0.437-3.185c-0.833,0.907-1.425,1.691-2.157,2.31
					c-0.769,0.65-1.644,1.19-2.524,1.688c-0.636,0.359-1.029-0.213-1.273-0.648c-0.851-1.515-1.664-3.053-2.43-4.613
					c-1.287-2.62-2.503-5.274-3.794-7.892c-0.751-1.521-1.584-3.002-2.394-4.493c-0.631-1.161-1.378-1.246-2.382-0.335
					c-0.312,0.283-0.705,0.478-1.061,0.712c-0.076-0.084-0.153-0.167-0.229-0.251c0.382-0.509,0.731-1.046,1.152-1.519
					c0.834-0.936,1.674-1.873,2.574-2.745c1.42-1.375,2.573-1.375,3.613,0.265c1.259,1.986,2.269,4.133,3.342,6.233
					c0.876,1.715,1.692,3.462,2.525,5.199c0.853,1.778,1.684,3.566,2.549,5.338c0.245,0.502,0.483,1.055,1.273,0.678
					c0.692-0.33,1.062-0.692,0.926-1.561c-0.291-1.857-0.479-3.73-0.672-5.601c-0.109-1.056-0.139-2.121-0.208-3.181
					c-0.128-1.966,0.406-3.701,1.962-5.247c-0.35-0.142-0.591-0.326-0.827-0.32c-1.595,0.039-3.194,0.064-4.78,0.214
					c-0.547,0.052-1.053,0.47-1.595,0.675c-0.211,0.08-0.469,0.034-0.705,0.046c0.036-0.209,0.006-0.465,0.117-0.621
					c0.749-1.051,1.519-2.088,2.301-3.115c0.608-0.799,1.401-1.341,2.42-1.416c3.008-0.222,6.016-0.473,9.029-0.598
					c3.077-0.128,6.114,0.373,9.079,1.116c3.279,0.821,6.487,1.92,9.753,2.801c1.546,0.417,3.121,1.183,4.765,0.153
					c0.301-0.188,0.82-0.027,1.577-0.027c-0.871,0.897-1.444,1.728-2.224,2.248c-2.615,1.744-2.956,4.538-3.57,7.237
					c-0.313,1.374-0.741,2.722-1.075,4.091c-0.288,1.178-0.424,2.4-0.793,3.55c-0.65,2.024-1.862,3.585-3.922,4.433
					c-0.783,0.322-1.446,0.935-2.272,1.302c1.552-1.882,1.531-4.205,2.05-6.352c0.81-3.345,1.566-6.707,2.503-10.016
					c0.208-0.735,1.075-1.283,1.696-1.98c-0.127-0.087-0.284-0.265-0.476-0.318c-3.403-0.932-6.805-1.866-10.219-2.756
					c-0.891-0.232-1.817-0.338-2.732-0.464c-0.448-0.062-1.031,1-0.974,1.7c0.057,0.706,0.077,1.416,0.156,2.12
					c0.386,3.397,0.75,6.797,1.192,10.186c0.354,2.71,0.85,5.402,1.205,8.111c0.327,2.492,0.518,5.002,0.829,7.496
					c0.268,2.153,0.706,4.287,0.911,6.445c0.179,1.887,0.513,3.833-0.528,5.621c-0.146,0.251-0.314,0.509-0.53,0.697
					c-0.798,0.695-1.608,1.376-2.442,2.028c-0.171,0.134-0.46,0.117-0.695,0.17c-0.029-0.182-0.135-0.397-0.074-0.542
					c0.808-1.943,0.018-3.848-0.126-5.765c-0.059-0.785-0.234-1.56-0.326-2.343c-0.281-2.391-0.498-4.791-0.834-7.175
					c-0.321-2.273-0.769-4.529-1.145-6.794c-0.296-1.785-0.606-3.568-0.838-5.361c-0.432-3.33-0.851-6.662-1.199-10.001
					c-0.264-2.525,0.542-4.663,2.593-6.261c0.177-0.138,0.314-0.328,0.47-0.493C203.027,38.174,202.972,38.075,202.917,37.977z"/>
				<path class="st0" d="M114.416,135.208c0.934,0.165,1.47-0.282,1.997-0.986c2.41-3.222,4.863-6.413,7.345-9.58
					c1.123-1.433,2.362-2.775,3.527-4.177c1.84-2.213,3.593-4.503,5.523-6.633c0.887-0.979,1.208-1.794,0.296-3.123
					c-1.373,1.5-2.696,2.915-3.986,4.361c-1.643,1.843-3.233,3.733-4.898,5.555c-0.661,0.723-1.549,0.692-2.394,0.292
					c-0.669-0.317-1.31-0.696-2.068-1.105c-0.022,2.328,0.837,4.197,2.179,6.093c-0.52,0-0.831,0.098-0.996-0.016
					c-1.247-0.86-2.523-1.692-3.676-2.669c-1.235-1.047-1.734-2.568-1.98-4.103c-0.357-2.231-0.693-4.481-0.788-6.734
					c-0.105-2.483,0.034-4.979,0.142-7.466c0.073-1.684,0.216-3.37,0.437-5.041c0.21-1.588,0.595-3.153,0.837-4.738
					c0.091-0.597-0.019-1.223-0.007-1.835c0.01-0.491,0.067-0.981,0.104-1.472c0.125-0.024,0.251-0.049,0.376-0.073
					c0.905,0.803,1.974,1.484,2.675,2.437c1.008,1.368,2.387,1.835,3.885,2.023c2.389,0.3,4.798,0.433,7.197,0.646
					c2.162,0.192,4.347,0.264,6.473,0.653c0.995,0.182,1.947,0.894,2.788,1.537c0.927,0.708,1.703,1.611,2.678,2.559
					c-1.982-0.222-3.695-0.458-5.416-0.593c-1.491-0.117-2.991-0.119-4.487-0.171c-0.066-0.002-0.134,0.015-0.2,0.008
					c-2.65-0.288-5.326-0.44-7.936-0.936c-1.004-0.191-1.855-1.172-2.784-1.781c-0.212-0.139-0.458-0.225-0.689-0.335
					c-0.097,0.236-0.244,0.464-0.284,0.709c-0.405,2.469-0.823,4.937-1.169,7.415c-0.115,0.821-0.041,1.67-0.042,2.506
					c-0.003,2.577-0.017,5.154,0.016,7.73c0.005,0.384,0.24,0.766,0.368,1.149c0.344-0.207,0.761-0.347,1.021-0.631
					c2.737-2.995,5.391-6.068,8.201-8.993c0.919-0.957,1.168-1.82,0.741-2.984c-0.054-0.149-0.093-0.303-0.222-0.728
					c0.585,0.387,1.039,0.575,1.336,0.905c1.154,1.28,3.091,1.875,3.42,3.882c0.02,0.125,0.191,0.284,0.154,0.35
					c-1.041,1.833,0.843,1.641,1.557,2.192c1.074,0.829,2.26,1.534,2.713,2.912c0.098,0.297,0.123,0.773-0.046,0.979
					c-1.597,1.94-3.263,3.823-4.869,5.755c-1.181,1.42-2.315,2.88-3.447,4.34c-0.822,1.061-1.607,2.15-2.409,3.227
					c0.076,0.097,0.151,0.193,0.227,0.29c0.761-0.311,1.529-0.609,2.283-0.937c1.89-0.822,3.713-1.897,5.682-2.406
					c1.39-0.359,3.029-0.175,4.459,0.172c1.329,0.323,2.528,1.183,3.761,2.06c-0.423,0.083-0.855,0.267-1.268,0.231
					c-1.925-0.169-3.488,0.844-5.149,1.519c-2.354,0.957-4.694,1.952-7.031,2.951c-0.981,0.419-1.839,1.21-3.024,0.98
					c-0.6-0.116-1.22-0.193-1.785-0.41c-0.817-0.313-1.338-0.112-1.88,0.572c-1.091,1.375-2.243,2.709-3.457,3.976
					c-0.285,0.298-0.988,0.471-1.378,0.341c-1.039-0.349-2.01-0.899-3.013-1.357c-0.263-0.12-0.564-0.164-0.817-0.299
					c-0.34-0.181-0.65-0.417-0.973-0.63C114.304,135.452,114.36,135.33,114.416,135.208z"/>
				<path class="st0" d="M144.301,132.849c-2.098,0.533-3.652,1.881-5.244,3.253c-1.824,1.571-3.84,2.916-5.752,4.387
					c-1.33,1.023-2.644,2.07-3.927,3.151c-0.926,0.78-2.003,1.121-3.164,1.19c-0.683,0.041-0.891,0.427-0.666,0.903
					c0.524,1.109,1.187,2.152,1.762,3.238c0.294,0.555,0.43,1.211,0.795,1.706c1.719,2.336,3.496,4.63,5.244,6.945
					c0.502,0.665,0.882,0.526,1.438-0.017c1.254-1.224,2.63-2.323,3.893-3.539c1.719-1.655,3.389-3.361,5.06-5.066
					c2.435-2.485,4.86-4.98,7.273-7.487c2.793-2.902,5.482-5.909,8.378-8.703c2.162-2.086,4.838-3.068,7.925-2.503
					c0.486,0.089,0.987,0.098,1.51,0.146c-1.368,1.039-2.694,1.914-3.862,2.966c-1.479,1.332-2.841,2.796-4.231,4.225
					c-1.272,1.309-2.521,2.64-3.766,3.974c-1.518,1.628-2.992,3.297-4.536,4.899c-2.419,2.508-4.868,4.987-7.33,7.452
					c-1.705,1.707-3.395,3.438-5.209,5.025c-0.865,0.757-2,1.204-3.234,1.919c0.472,0.473,0.972,0.984,1.484,1.484
					c0.612,0.597,1.215,1.205,1.856,1.77c2.132,1.877,4.283,3.734,6.421,5.605c0.945,0.828,1.769,1.859,2.837,2.467
					c1.784,1.017,3.155,2.912,5.54,2.756c0.322-0.021,0.662,0.222,0.994,0.343c0.011,0.095,0.021,0.191,0.032,0.286
					c-0.589,0.181-1.167,0.423-1.77,0.532c-1.329,0.24-2.667,0.523-4.009,0.568c-0.714,0.024-1.568-0.242-2.145-0.667
					c-2.337-1.723-4.647-3.493-6.861-5.37c-2.304-1.953-4.487-4.049-6.72-6.085c-2.643-2.41-5.279-4.828-7.934-7.226
					c-0.255-0.23-0.647-0.303-0.927-0.512c-0.223-0.167-0.432-0.406-0.544-0.658c-0.426-0.953-0.784-1.937-1.214-2.888
					c-0.921-2.038-1.891-4.053-2.802-6.095c-0.708-1.588-1.248-3.263-2.092-4.771c-0.297-0.53-1.275-0.679-1.942-1.002
					c-0.054,0.088-0.108,0.176-0.162,0.263c-0.181-0.309-0.362-0.619-0.631-1.079c1.05,0.081,1.992,0.07,2.898,0.243
					c1.495,0.286,2.955,0.78,4.457,0.997c0.541,0.078,1.247-0.273,1.731-0.628c2.983-2.187,5.914-4.446,8.886-6.648
					c1.236-0.916,2.476-1.852,3.816-2.595c1.308-0.726,2.714-0.593,4.079,0.076c0.425,0.209,0.948,0.22,1.428,0.314
					c0.322,0.063,0.647,0.113,0.971,0.169C144.323,132.659,144.312,132.754,144.301,132.849z"/>
				<path class="st0" d="M244.976,97.654c1.613,1.14,3.174,2.007,4.403,3.213c0.594,0.584,0.696,1.79,0.793,2.738
					c0.327,3.205,0.588,6.417,0.801,9.631c0.112,1.686,0.067,3.382,0.1,5.073c0.012,0.588,1.615,1.453,2.606,1.335
					c-0.233-0.486-0.564-0.919-0.643-1.394c-0.145-0.873-0.147-1.771-0.2-2.659c-0.201-3.384-0.423-6.768-0.589-10.154
					c-0.113-2.304-0.743-4.47-1.573-6.596c-0.059-0.151-0.066-0.326-0.07-0.491c-0.002-0.089,0.054-0.179,0.131-0.415
					c1.67,1.149,3.782,1.529,4.728,3.623c0.423,0.936,1.456,0.588,2.167,0.464c3.422-0.599,6.825-1.306,10.236-1.971
					c0.774-0.151,1.591-0.179,2.32-0.448c1.381-0.51,2.407,0.078,3.418,0.867c0.835,0.651,1.679,1.292,2.5,1.96
					c0.244,0.199,0.425,0.474,0.707,0.796c-0.295,0.108-0.523,0.275-0.629,0.217c-1.545-0.831-3.065-0.171-4.566,0.097
					c-3.274,0.584-6.522,1.312-9.8,1.868c-2.041,0.346-2.576,0.107-5.363-1.527c0,0.54-0.057,1.027,0.011,1.495
					c0.156,1.07,0.486,2.126,0.544,3.198c0.189,3.499,0.316,7.002,0.409,10.504c0.038,1.443,0.534,1.91,2.011,1.885
					c1.098-0.018,2.202,0.122,3.298,0.246c1.999,0.226,4.004,0.751,5.989,0.676c2.424-0.091,4.009,1.037,5.455,2.685
					c0.261,0.297,0.473,0.698,0.802,0.862c1.058,0.529,0.853,1.673,1.275,2.502c0.068,0.133-0.314,0.65-0.586,0.777
					c-1.248,0.582-2.509,1.149-3.805,1.608c-2.7,0.955-5.413,1.874-8.142,2.741c-3.351,1.065-6.717,2.085-10.09,3.078
					c-1.337,0.393-2.462-0.334-3.399-1.095c-1.425-1.156-2.687-2.512-4.019-3.783c0.058-0.08,0.117-0.16,0.175-0.24
					c0.16,0.046,0.353,0.049,0.474,0.144c1.268,0.995,2.63,1.214,4.181,0.715c2.432-0.783,4.907-1.431,7.338-2.217
					c3.122-1.01,6.221-2.093,9.323-3.163c0.332-0.114,0.622-0.35,1.188-0.679c-0.617-0.204-0.984-0.391-1.369-0.443
					c-2.11-0.285-4.236-0.47-6.335-0.82c-1.874-0.312-3.759-0.673-5.562-1.252c-0.927-0.298-1.721-1.075-2.508-1.718
					c-0.786-0.642-1.521-1.356-2.209-2.102c-0.255-0.277-0.813-0.628-0.262-1.175c0.046-0.046-0.149-0.428-0.307-0.569
					c-0.909-0.81-1.828-1.609-2.768-2.382c-0.868-0.714-1.2-1.671-1.178-2.727c0.086-4.015-0.521-7.968-0.993-11.934
					C245.282,99.771,245.14,98.848,244.976,97.654z"/>
				<path class="st0" d="M178.744,170.197c-1.935-0.658-3.698-1.227-5.439-1.859c-1.373-0.498-2.724-0.929-4.22-0.542
					c-0.264,0.068-0.629-0.25-0.944-0.388c-0.567,0.183-1.168,0.351-1.75,0.569c-1.023,0.384-1.175,1.053-0.622,2.028
					c1.21,2.135,2.358,4.305,3.549,6.452c0.299,0.539,0.665,1.04,1.127,1.754c-1.113,0.558-2.089,1.161-3.144,1.553
					c-2.03,0.754-2.038,0.699-3.062-1.277c-0.594-1.146-1.23-2.271-1.852-3.414c-1.234,0.802-1.386,1.12-0.853,2.331
					c1.206,2.736,2.394,5.484,3.743,8.15c1.228,2.427,0.247,3.022-2.062,3.663c-0.374,0.104-0.8,0.127-1.112,0.328
					c-0.769,0.495-1.166-0.052-1.417-0.547c-0.743-1.464-1.403-2.97-2.07-4.471c-0.546-1.228-1.063-2.469-1.577-3.711
					c-0.285-0.687-0.588-1.373-0.795-2.085c-0.303-1.041,0.189-2.043,1.211-2.494c1.019-0.451,2.057-0.861,3.099-1.255
					c1.154-0.437,1.286-0.716,0.741-1.805c-0.234-0.468-0.468-0.937-0.737-1.385c-0.687-1.144-0.545-1.843,0.63-2.493
					c1.233-0.683,2.503-1.302,3.759-1.942c0.552-0.281,1.11-0.553,1.671-0.817c0.5-0.235,0.61-0.502,0.098-0.845
					c-2.428-1.625-4.85-3.259-7.294-4.86c-0.286-0.187-0.693-0.189-1.044-0.28c-0.332-0.086-0.663-0.177-1.225-0.327
					c0.527-0.436,0.841-0.781,1.226-0.999c0.979-0.553,2.014-1.009,2.981-1.58c1.074-0.634,2.019-0.444,2.942,0.268
					c4.55,3.51,9.601,6.008,15.171,7.421c2.55,0.647,5.108,1.293,7.697,1.741c1.031,0.178,2.155-0.168,3.235-0.299
					c0.422-0.051,0.836-0.167,1.476-0.299c-0.198,0.435-0.255,0.771-0.453,0.958c-1.035,0.978-2.016,2.059-3.198,2.821
					c-0.743,0.479-1.81,0.645-2.724,0.625c-1.703-0.036-3.399-0.327-5.101-0.469c-0.279-0.023-0.77,0.104-0.834,0.281
					c-0.404,1.112-0.762,2.246-1.044,3.395c-0.432,1.756,0.623,3.122,1.397,4.502c1.124,2.003,2.424,3.906,3.613,5.873
					c0.717,1.185,1.395,2.395,2.04,3.62c0.848,1.61,0.316,3.427-1.219,4.419c-0.854,0.551-1.667,1.167-2.532,1.699
					c-0.235,0.144-0.593,0.088-0.894,0.124c-0.005-0.242-0.109-0.55,0.001-0.717c0.733-1.111,0.3-2.07-0.281-3.058
					c-2.021-3.437-3.979-6.912-6.043-10.323c-1.222-2.019-1.146-3.855,0.387-5.626c0.981-1.134,1.996-2.24,2.986-3.368
					C178.212,170.976,178.395,170.678,178.744,170.197z"/>
				<path class="st0" d="M222.896,166.536c0-0.852-0.076-1.468,0.016-2.058c0.2-1.284-0.086-2.672,0.769-3.824
					c0.171-0.231,0.289-0.53,0.508-0.692c2.654-1.956,5.327-3.888,7.986-5.837c0.589-0.431,1.186-0.866,1.691-1.385
					c0.117-0.12-0.032-0.692-0.227-0.891c-1.578-1.613-3.212-3.17-4.797-4.776c-2.662-2.696-5.305-5.412-7.949-8.127
					c-2.424-2.489-4.849-4.976-7.252-7.484c-2.23-2.327-4.434-4.678-6.644-7.025c-0.76-0.807-1.582-1.571-2.233-2.459
					c-1.06-1.447-1.367-3.192-1.526-4.927c-0.114-1.242-0.022-2.502,0.21-3.807c0.111,0.133,0.283,0.249,0.325,0.4
					c0.602,2.211,1.925,3.977,3.493,5.569c3.544,3.599,7.135,7.151,10.674,10.754c1.14,1.16,2.142,2.455,3.271,3.627
					c0.79,0.821,1.705,1.519,2.534,2.305c0.733,0.695,1.426,1.433,2.13,2.157c2.829,2.908,5.635,5.839,8.496,8.715
					c0.778,0.782,1.703,1.425,2.596,2.085c0.807,0.597,1.044,0.51,1.412-0.434c0.105-0.269,0.089-0.586,0.196-0.854
					c0.171-0.429,0.399-0.836,0.603-1.252c0.094,0.025,0.187,0.05,0.281,0.075c0.035,0.242,0.089,0.482,0.102,0.725
					c0.074,1.293,0.098,2.591,0.229,3.878c0.039,0.378,0.3,0.802,0.583,1.076c1.645,1.593,3.314,3.161,5.001,4.709
					c1.088,0.998,2.208,1.96,3.337,2.912c0.738,0.622,1.11,1.408,1.089,2.347c-0.026,1.16-0.115,2.32-0.21,3.478
					c-0.023,0.279-0.177,0.546-0.351,1.051c-1.008-0.785-1.978-1.413-2.795-2.201c-2.736-2.638-5.428-5.321-8.108-8.016
					c-0.489-0.492-0.837-0.462-1.35-0.065c-2.323,1.793-4.659,3.568-7.011,5.323c-0.843,0.629-1.755,1.164-2.614,1.772
					c-1.179,0.834-2.336,1.699-3.507,2.545C223.624,166.092,223.374,166.233,222.896,166.536z"/>
				<path class="st0" d="M121.953,95.304c-0.211-0.377-0.4-0.768-0.638-1.127c-1.526-2.305-1.691-4.793-0.923-7.365
					c0.646-2.164,1.306-4.332,2.127-6.433c0.667-1.708,1.574-3.323,2.393-4.97c0.233-0.469-0.081-2.552-0.577-2.872
					c-0.728-0.471-1.318-0.037-1.961,0.398c-2.905,1.968-4.17,4.83-4.719,8.161c-0.344,2.084-0.257,4.085,0.557,6.05
					c0.118,0.285,0.043,0.651,0.073,1.332c-0.477-0.397-0.87-0.563-0.981-0.842c-1.001-2.52-2.458-4.924-2.424-7.742
					c0.035-2.943,0.722-5.745,2.3-8.276c1.12-1.797,2.62-3.199,4.5-4.177c1.351-0.703,1.981-0.473,2.539,0.91
					c0.592,1.468,1.16,2.946,1.859,4.727c0.778-1.209,1.411-2.179,2.03-3.156c1.411-2.226,2.712-4.53,4.249-6.665
					c1.745-2.424,3.707-4.69,5.55-7.044c0.272-0.347,0.384-0.814,0.616-1.198c0.138-0.229,0.366-0.404,0.553-0.604
					c0.176,0.184,0.407,0.339,0.519,0.556c0.741,1.441,1.032,2.986,0.933,4.597c-0.017,0.273-0.179,0.567-0.348,0.797
					c-2.259,3.085-4.583,6.124-6.772,9.258c-0.752,1.077-1.171,2.387-1.754,3.584c-0.126,0.26-0.271,0.525-0.466,0.734
					c-0.552,0.591-1.133,1.155-1.853,1.88c0.721,0.424,1.241,0.789,1.808,1.054c2.465,1.15,4.939,2.283,7.42,3.398
					c1.138,0.511,2.316,0.933,3.448,1.457c2.227,1.031,3.492,2.739,3.579,5.25c0.009,0.274,0.164,0.546,0.263,0.815
					c0.205,0.554,0.419,1.106,0.512,1.726c-1.089-2.496-3.527-2.987-5.642-3.891c-2.414-1.031-4.878-1.946-7.31-2.935
					c-1.544-0.628-3.08-1.278-4.598-1.964c-0.443-0.2-0.814-0.556-1.342-0.928c-1.544,2.337-2.515,4.956-3.318,7.597
					c-0.783,2.574-1.206,5.257-1.787,7.892C122.228,95.295,122.09,95.3,121.953,95.304z"/>
				<path class="st0" d="M268.041,82.57c-0.477-0.918-0.911-1.893-1.467-2.795c-0.944-1.532-1.922-3.048-2.977-4.505
					c-0.346-0.478-0.986-0.737-1.469-1.125c-0.179-0.144-0.294-0.369-0.438-0.557c0.234-0.072,0.491-0.247,0.698-0.201
					c1.635,0.366,3.296,0.671,4.871,1.22c0.63,0.219,1.176,0.933,1.563,1.545c1.376,2.178,2.822,4.334,3.947,6.642
					c1.139,2.336,2.144,4.788,2.78,7.298c0.317,1.251,0.875,2.101,1.652,2.983c0.395,0.449,0.64,1.031,1.038,1.697
					c-1.985,0.259-3.391-0.546-4.716-1.447c-0.807-0.548-1.614-1.21-2.157-2.002c-0.533-0.778-0.75-1.779-1.072-2.694
					c-0.379-1.078-0.576-2.25-1.128-3.225c-0.393-0.694-1.326-0.52-1.995-0.172c-1.935,1.006-3.844,2.06-5.756,3.109
					c-2.621,1.439-5.239,2.886-7.851,4.342c-1.618,0.902-3.222,1.828-4.833,2.743c-1.276,0.725-2.677,0.639-4.063,0.615
					c-1.828-0.032-3.557-0.541-5.549-1.244c0.416-0.25,0.671-0.538,0.92-0.533c3.019,0.063,5.395-1.43,7.727-3.08
					c0.556-0.393,1.23-0.616,1.825-0.959c0.441-0.254,0.842-0.576,1.362-0.938c-1.003-0.473-1.839-0.839-2.649-1.254
					c-1.841-0.944-1.765-1.69-0.935-3.004c1.672-2.648,3.281-5.335,4.89-8.021c0.892-1.489,1.709-3.023,2.6-4.512
					c0.625-1.044,1.327-2.041,1.975-3.071c0.171-0.271,0.404-0.599,0.378-0.88c-0.09-1.005,0.479-1.121,1.232-1.009
					c1.137,0.169,2.269,0.367,3.403,0.559c0.941,0.159,1.004,0.762,0.644,1.455c-0.559,1.076-1.151,2.137-1.789,3.168
					c-2.174,3.512-4.381,7.004-6.56,10.513c-0.662,1.066-1.266,2.168-1.908,3.247c-0.311,0.523-0.309,0.951,0.148,1.429
					c0.468,0.489,0.787,0.218,1.211-0.024c2.802-1.596,5.585-3.234,8.448-4.714c0.848-0.438,1.927-0.488,2.913-0.581
					C265.953,82.497,266.966,82.57,268.041,82.57z"/>
				<path class="st0" d="M213.342,163.505c0,0.588-0.135,1.218,0.028,1.757c0.341,1.123,0.825,2.205,1.278,3.292
					c0.997,2.391,2.02,4.772,3.018,7.163c0.596,1.427,1.251,2.838,1.71,4.309c0.232,0.744,0.077,1.607,0.12,2.415
					c0.029,0.554,0.098,1.106,0.149,1.659c0.589-0.136,1.219-0.183,1.761-0.425c1.412-0.631,2.756-1.419,4.181-2.012
					c1.574-0.655,3.248-1.074,4.805-1.76c1.81-0.797,3.523-1.81,5.314-2.654c0.915-0.431,2.021-0.523,2.844-1.067
					c2.187-1.445,4.301-3.007,6.378-4.607c1.976-1.522,3.885-3.131,5.791-4.741c1.096-0.926,2.153-1.902,3.169-2.914
					c0.235-0.234,0.283-0.702,0.325-1.073c0.106-0.935,0.159-1.876,0.233-2.814c0.113-0.012,0.226-0.024,0.339-0.036
					c0.138,0.198,0.383,0.389,0.399,0.597c0.157,2.146,0.376,4.296,0.369,6.444c-0.004,1.154-0.963,1.914-1.813,2.637
					c-1.656,1.407-3.254,2.883-4.948,4.241c-2.43,1.947-4.837,3.944-7.415,5.679c-2.625,1.766-5.475,3.194-8.169,4.862
					c-1.37,0.848-2.613,1.9-4.038,2.951c-0.782-0.55-1.729,0.167-2.679,0.464c-2.382,0.743-4.754,1.527-7.093,2.395
					c-0.712,0.264-1.385,0.773-1.929,1.317c-0.812,0.813-1.494,1.756-2.358,2.796c-0.055-1.821,0.13-3.456,0.742-5.015
					c0.299-0.762,0.703-1.5,1.161-2.181c0.81-1.206,0.384-2.366-0.074-3.493c-1.609-3.955-3.264-7.892-4.906-11.834
					c-0.464-1.114-0.506-2.233-0.186-3.398c0.45-1.638,0.848-3.29,1.269-4.937C213.191,163.516,213.267,163.511,213.342,163.505z"/>
				<path class="st0" d="M192.506,116.199c-0.846,0.482-1.569,0.732-2.074,1.212c-1.787,1.701-3.572,3.414-5.225,5.243
					c-3.294,3.645-6.483,7.386-9.751,11.056c-1.762,1.979-3.619,3.875-5.393,5.844c-1.686,1.871-3.294,3.811-4.982,5.68
					c-2.535,2.807-5.127,5.564-7.661,8.372c-1.178,1.305-2.346,2.63-3.396,4.038c-1.166,1.562-2.69,1.703-4.406,1.439
					c-0.588-0.091-1.189-0.1-1.778-0.191c-0.342-0.052-0.671-0.191-0.938-0.27c1.744-1.949,3.377-3.784,5.022-5.608
					c1.202-1.334,2.423-2.652,3.63-3.982c1.804-1.988,3.582-4,5.411-5.965c2.609-2.803,5.298-5.533,7.872-8.367
					c2.901-3.195,5.694-6.487,8.569-9.705c1.234-1.381,2.564-2.676,3.838-4.022c0.466-0.492,0.908-1.007,1.341-1.529
					c1.081-1.305,2.561-1.909,4.051-2.627c1.417-0.683,2.779-0.923,4.272-0.837C191.361,116.004,191.81,116.1,192.506,116.199z"/>
				<path class="st0" d="M209.465,166.506c-0.627,1.611-0.01,3.125,0.286,4.668c0.321,1.674,0.564,3.364,0.906,5.033
					c0.383,1.867,0.836,3.721,1.267,5.578c0.364,1.572,0.8,3.131,1.092,4.716c0.257,1.395-0.649,2.384-1.498,3.305
					c-0.759,0.824-1.686,1.492-2.443,2.317c-0.705,0.768-1.445,0.739-2.083,0.13c-1.069-1.02-2.115-2.09-3.005-3.265
					c-3.479-4.593-6.892-9.236-10.333-13.858c-0.806-1.083-1.596-2.181-2.451-3.225c-0.654-0.798-0.376-1.56,0.129-2.161
					c1.005-1.195,2.133-2.287,3.226-3.407c0.113-0.115,0.329-0.13,0.879-0.33c-1.373,1.727-0.044,2.561,0.661,3.525
					c2.21,3.021,4.461,6.013,6.718,9c1.295,1.715,2.624,3.404,3.957,5.089c0.162,0.205,0.445,0.314,0.891,0.33
					c-0.183-0.846-0.385-1.689-0.547-2.539c-0.307-1.618-0.584-3.242-0.889-4.86c-0.194-1.029-0.267-2.114-0.66-3.065
					c-0.551-1.333-0.377-2.471,0.481-3.521c1.012-1.237,2.098-2.414,3.152-3.618C209.288,166.403,209.376,166.455,209.465,166.506z"
					/>
				<path class="st0" d="M239.055,79.466c0.198-0.23,0.262-0.373,0.369-0.42c2.554-1.117,4.085-3.414,5.99-5.261
					c2.206-2.139,4.218-4.477,6.353-6.691c1.097-1.137,2.101-2.446,3.97-2.498c-0.013-0.103-0.027-0.205-0.04-0.308
					c-0.395-0.323-0.783-0.655-1.186-0.967c-1.115-0.863-2.275-1.672-3.349-2.583c-2.172-1.844-4.206-3.861-6.465-5.588
					c-3.27-2.499-6.647-4.865-10.062-7.164c-1.569-1.056-3.34-1.811-5.01-2.72c-1.014-0.552-2.005-0.51-3.016-0.001
					c-0.538,0.271-1.067,0.404-1.405-0.571c2.295-0.758,4.505-1.736,6.817-2.166c1.618-0.301,3.201,0.703,4.584,1.595
					c2.842,1.832,5.659,3.71,8.396,5.694c2.125,1.54,4.124,3.257,6.158,4.921c1.049,0.859,2.068,1.757,3.071,2.669
					c1.181,1.074,2.275,2.252,3.518,3.247c0.702,0.562,1.628,0.845,2.452,1.255c0.195,0.097,0.559,0.202,0.557,0.298
					c-0.029,1.414,1.117,1.081,1.887,1.318c0.355,0.109,0.69,0.281,1.137,0.467c-1.032,1.119-2.287,1.021-3.448,1.113
					c-0.936,0.074-1.681,0.366-2.36,1.039c-1.608,1.592-3.328,3.074-4.914,4.687c-2.222,2.26-4.336,4.625-6.561,6.882
					c-0.479,0.486-1.197,0.848-1.867,1.015c-1.623,0.404-3.282,0.667-4.931,0.963C239.539,79.718,239.348,79.573,239.055,79.466z"/>
				<path class="st0" d="M261.709,163.685c-0.728-0.878-1.378-1.468-1.788-2.194c-1.123-1.991-2.997-3.04-4.884-4.067
					c-3.854-2.096-7.803-4.03-11.562-6.282c-1.077-0.645-1.765-2.089-2.389-3.292c-0.5-0.964-0.634-2.119-0.936-3.207
					c0.143-0.009,0.231-0.04,0.258-0.012c2.981,3.065,7.21,3.985,10.683,6.206c2.155,1.378,4.407,2.605,6.548,4.003
					c0.689,0.45,1.161,1.231,1.762,1.892c1.613-2.939,3.238-5.726,4.688-8.602c1.176-2.333,2.253-4.731,3.17-7.177
					c0.906-2.418,2.025-4.831,1.77-7.669c0.224,0.22,0.502,0.407,0.663,0.666c0.676,1.095,1.338,2.2,1.963,3.326
					c0.306,0.551,0.584,1.147-0.005,1.732c-0.1,0.099-0.169,0.329-0.127,0.458c0.52,1.59-0.34,2.946-0.865,4.279
					c-1.88,4.771-3.893,9.488-6.593,13.878c-0.798,1.298-1.788,2.539-1.675,4.246C262.42,162.339,262.042,162.836,261.709,163.685z"
					/>
				<path class="st0" d="M164.949,63.047c0.797-0.431,1.457-0.843,2.16-1.16c2.299-1.036,4.593-2.089,6.93-3.032
					c1.516-0.612,2.819-1.404,3.545-2.965c0.099,0.034,0.198,0.068,0.296,0.102c-0.056,0.543-0.065,1.097-0.177,1.629
					c-0.275,1.312-0.572,2.621-0.908,3.919c-0.307,1.184-1.306,1.763-2.31,2.127c-2.938,1.065-5.833,2.208-8.482,3.885
					c-1.468,0.93-2.894,1.927-4.343,2.888c-0.44,0.292-0.485,1.219-1.506,0.767c0.125-0.921,0.255-1.891,0.391-2.861
					c0.013-0.097,0.1-0.198,0.082-0.282c-0.423-1.911,0.988-2.687,2.22-3.545c0.504-0.352,0.599-0.66,0.496-1.31
					c-0.269-1.695-0.339-3.422-0.491-5.136c-0.1-1.121-0.165-2.248-0.317-3.362c-0.271-1.992-1.62-2.865-3.448-3.245
					c-2.537-0.528-5.082-1.032-7.593-1.665c-1.635-0.411-2.027-1.105-1.451-3.336c0.253-0.979,0.834-1.873,1.306-2.892
					c0.597,0.989,1.469,1.266,2.325,1.447c1.578,0.334,3.199,0.474,4.765,0.85c1.385,0.333,2.755,0.791,4.065,1.351
					c1.408,0.602,1.826,1.949,1.937,3.336c0.14,1.754-0.051,3.557,0.269,5.27C165.148,58.176,164.612,60.51,164.949,63.047z"/>
				<path class="st0" d="M195.246,161.485c-0.287,0.465-0.387,0.786-0.605,0.953c-1.261,0.962-2.493,1.984-3.855,2.781
					c-0.596,0.349-1.506,0.387-2.22,0.263c-2.281-0.396-4.56-0.848-6.796-1.443c-2.252-0.599-4.481-1.315-6.668-2.122
					c-3.447-1.272-6.637-3.043-9.586-5.251c-1.016-0.761-2.045-1.544-3.418-1.577c-0.233-0.005-0.462-0.16-1.003-0.36
					c0.778-0.435,1.305-0.714,1.818-1.018c0.792-0.471,1.552-0.998,2.365-1.429c1.21-0.643,2.359-0.345,3.443,0.368
					c1.988,1.307,3.892,2.772,5.985,3.879c1.928,1.02,4.025,1.758,6.107,2.438c3.027,0.989,6.078,1.943,9.178,2.654
					c1.401,0.322,2.943,0.027,4.421,0.003C194.594,161.623,194.775,161.567,195.246,161.485z"/>
				<path class="st0" d="M154.826,64.977c-0.124-2.244-1.072-3.304-3.163-3.679c-2.75-0.493-5.478-1.123-8.238-1.549
					c-1.344-0.207-1.8-1.137-2.001-2.139c-0.253-1.258-0.226-2.58-0.231-3.874c-0.001-0.327,0.336-0.655,0.646-0.982
					c0.586,2.078,2.411,1.755,3.774,2.092c2.324,0.575,4.689,1.021,7.061,1.348c1.591,0.22,1.807,1.497,2.298,2.544
					c1.001,2.134,1.251,4.472,1.665,6.765c0.304,1.682,0.745,3.341,1.015,5.027c0.179,1.112,0.164,2.255,0.236,3.384
					c-0.097,0.014-0.193,0.027-0.29,0.041c-0.412-0.723-0.823-1.447-1.236-2.17c-0.663-1.162-1.679-1.838-2.979-2.04
					c-1.922-0.299-3.86-0.498-5.772-0.843c-0.377-0.068-0.901-0.563-0.958-0.925c-0.188-1.174-0.213-2.377-0.255-3.57
					c-0.021-0.603,0.329-0.952,0.946-0.871c1.868,0.245,3.738,0.489,5.596,0.803C153.587,64.448,154.201,64.76,154.826,64.977z"/>
				<path class="st0" d="M183.161,69.887c0.059-0.602,0.03-1.229,0.191-1.802c0.575-2.043-0.092-3.91-0.736-5.782
					c-1.279-3.722-2.587-7.434-3.861-11.158c-0.38-1.11-0.776-2.226-1.005-3.371c-0.205-1.021-0.876-1.097-1.553-0.849
					c-2.776,1.016-5.527,2.102-8.272,3.197c-0.867,0.346-1.69,0.802-2.687,1.283c-0.033-0.244-0.166-0.577-0.101-0.864
					c0.212-0.925,0.561-1.822,0.738-2.752c0.228-1.205,0.98-1.913,2.03-2.338c2.386-0.966,4.792-1.885,7.187-2.828
					c0.55-0.216,1.093-0.452,1.638-0.68c1.506-0.63,3.035-0.072,3.548,1.702c1.208,4.184,2.676,8.292,3.949,12.458
					c0.553,1.809,1.267,3.693,1.222,5.527c-0.055,2.227-0.814,4.441-1.311,6.651c-0.131,0.582-0.418,1.128-0.633,1.691
					C183.389,69.943,183.275,69.915,183.161,69.887z"/>
				<path class="st0" d="M224.838,72.146c1.245-1.053,2.57-1.958,3.614-3.117c1.098-1.22,1.914-2.691,2.877-4.036
					c1.363-1.906,2.746-3.797,4.126-5.691c0.097-0.134,0.23-0.243,0.352-0.356c1.303-1.203,1.319-1.818-0.035-2.925
					c-2.787-2.279-5.7-4.382-8.875-6.097c-0.466-0.252-0.988-0.399-1.484-0.595c-0.006-0.114-0.012-0.228-0.017-0.343
					c0.647-0.232,1.285-0.496,1.944-0.687c0.663-0.192,1.367-0.252,2.018-0.474c0.988-0.337,1.907-0.251,2.737,0.339
					c2.961,2.107,5.944,4.189,8.823,6.405c0.748,0.576,1.145,1.605,1.708,2.432c-0.306,0.284-0.521,0.438-0.68,0.637
					c-1.917,2.378-3.844,4.749-5.728,7.152c-0.671,0.856-1.293,1.761-1.832,2.705c-1,1.753-2.579,2.694-4.328,3.565
					c-1.523,0.759-3.159,0.797-4.732,1.201C225.162,72.303,224.955,72.176,224.838,72.146z"/>
				<path class="st0" d="M226.639,155.979c0.358-1.772-0.698-2.455-1.574-3.314c-2.101-2.062-4.107-4.22-6.188-6.303
					c-1.53-1.532-3.137-2.988-4.673-4.514c-1.026-1.019-2.141-2.001-2.923-3.192c-0.506-0.772-0.673-1.896-0.649-2.854
					c0.031-1.263,0.381-2.522,0.63-3.775c0.059-0.298,0.262-0.567,0.471-0.997c0.384,0.756,0.595,1.428,1.007,1.934
					c1.221,1.498,2.461,2.992,3.808,4.376c1.925,1.978,3.959,3.851,5.934,5.782c1.658,1.623,3.236,3.334,4.962,4.88
					c1.82,1.631,1.732,2.793,1.057,4.901c-0.269,0.84-0.674,1.64-1.059,2.438C227.351,155.525,227.09,155.629,226.639,155.979z"/>
				<path class="st0" d="M155.894,83.223c-0.551-0.84-0.963-1.836-1.684-2.488c-1.341-1.212-2.863-2.223-4.309-3.319
					c-1.051-0.796-2.122-1.567-3.146-2.396c-1.623-1.315-3.206-2.68-4.823-4.003c-0.93-0.761-1.658-0.607-2.394,0.388
					c-1.273,1.722-2.579,3.42-3.853,5.14c-0.17,0.229-0.211,0.549-0.359,0.799c-0.136,0.229-0.327,0.575-0.513,0.587
					c-0.206,0.013-0.552-0.249-0.632-0.466c-0.45-1.228-0.935-2.459-1.202-3.732c-0.112-0.535,0.15-1.261,0.469-1.754
					c0.839-1.294,1.785-2.52,2.721-3.748c0.612-0.803,1.247-1.596,1.934-2.334c0.927-0.996,2.044-0.885,3.391,0.247
					c2.462,2.069,4.913,4.151,7.401,6.188c0.837,0.685,1.759,1.269,2.664,1.866c1.166,0.769,2.091,1.753,2.594,3.055
					c0.741,1.918,1.407,3.865,2.105,5.8C156.138,83.11,156.016,83.166,155.894,83.223z"/>
				<path class="st0" d="M158.462,80.698c-0.156-0.433-0.459-0.834-0.389-1.153c0.33-1.496,0.721-2.983,1.186-4.443
					c0.121-0.378,0.571-0.669,0.905-0.96c2.385-2.072,5.171-3.53,7.937-4.977c2.852-1.492,5.854-2.696,8.743-4.123
					c1.086-0.537,2.038-1.346,3.079-2.05c0,0.316,0.044,0.794-0.009,1.262c-0.102,0.886-0.061,1.865-0.441,2.624
					c-0.577,1.154-1.073,2.475-2.414,3.057c-2.251,0.977-4.568,1.823-6.745,2.943c-2.362,1.215-4.604,2.665-6.882,4.04
					c-1.004,0.606-1.997,1.238-2.939,1.934C159.838,79.336,159.278,79.947,158.462,80.698z"/>
				<path class="st0" d="M246.28,135.823c0.799,0.706,1.407,1.169,1.924,1.717c1.174,1.246,2.619,1.544,4.193,1.176
					c3.465-0.811,6.905-1.726,10.376-2.509c0.433-0.098,1.243,0.208,1.44,0.567c0.691,1.262,1.191,2.629,1.802,4.044
					c-1.225,0.241-2.223,0.39-3.194,0.64c-1.681,0.434-3.33,1.007-5.023,1.38c-1.736,0.382-3.503,0.734-5.269,0.815
					c-0.73,0.033-1.644-0.519-2.213-1.073c-1.618-1.577-3.122-3.278-3.754-5.542C246.479,136.738,246.42,136.43,246.28,135.823z"/>
				<path class="st0" d="M249.135,59.367c-0.2,0.476-0.228,0.657-0.33,0.771c-1.322,1.464-2.647,2.925-3.985,4.375
					c-1.884,2.042-3.9,3.977-5.637,6.137c-1.762,2.189-4.022,3.319-6.651,3.899c-1.188,0.262-2.4,0.421-3.605,0.603
					c-0.313,0.047-0.64,0.007-0.96,0.007c-0.026-0.09-0.053-0.18-0.079-0.271c0.423-0.176,0.836-0.385,1.271-0.522
					c1.46-0.46,2.661-1.217,3.709-2.397c2.753-3.099,5.636-6.083,8.46-9.12c0.495-0.532,0.949-1.102,1.434-1.644
					c0.731-0.816,1.475-1.541,2.722-1.535C246.629,59.676,247.774,59.489,249.135,59.367z"/>
				<path class="st0" d="M125.604,86.632c0.785,0,1.4-0.13,1.935,0.021c3.145,0.891,6.281,1.819,9.402,2.792
					c1.74,0.542,2.659,2.131,3.606,3.455c0.762,1.064,0.848,2.612,1.297,4.166c-0.577-0.423-1.02-0.659-1.349-1.005
					c-0.991-1.043-2.229-1.603-3.581-1.971c-2.426-0.66-4.819-1.618-7.288-1.893c-2.325-0.259-3.027-1.484-3.352-3.423
					C126.168,88.143,125.893,87.538,125.604,86.632z"/>
				<path class="st0" d="M277.446,118.616c-0.293-0.044-0.592-0.064-0.877-0.138c-0.342-0.089-0.673-0.326-1.007-0.321
					c-1.57,0.022-3.138,0.142-4.708,0.157c-1.65,0.016-3.316-0.2-4.947-0.036c-1.774,0.179-3.262-0.243-4.614-1.325
					c-0.257-0.206-0.529-0.411-0.726-0.669c-0.525-0.686-1.013-1.399-1.574-2.182c0.594,0.138,1.2,0.41,1.8,0.395
					c2.501-0.064,4.998-0.236,7.498-0.325c1.524-0.054,3.055-0.102,4.575-0.018c1.188,0.066,1.826,1.084,2.572,1.856
					c0.71,0.735,1.383,1.507,2.072,2.263C277.489,118.386,277.468,118.501,277.446,118.616z"/>
				<path class="st0" d="M163.382,45.998c0.096-0.67,0.14-1.309,0.285-1.924c0.216-0.916,0.285-1.985,0.819-2.676
					c0.598-0.774,1.594-1.308,2.512-1.752c1.553-0.751,3.186-1.337,4.774-2.017c1.005-0.43,1.499-1.309,1.924-2.259
					c0.149-0.333,0.462-0.593,0.701-0.886c0.129,0.069,0.258,0.137,0.387,0.206c-0.513,1.689-0.945,3.409-1.572,5.054
					c-0.327,0.858-0.921,1.654-1.543,2.344c-0.393,0.436-1.044,0.662-1.608,0.919C167.903,43.991,165.732,44.948,163.382,45.998z"/>
				<path class="st0" d="M221.2,168.118c1.235,2.543,3.893,2.409,6.03,3.212c1.148,0.432,1.466,0.652,1.254,1.825
					c-0.183,1.01-0.41,2.012-0.606,3.019c-0.138,0.709-0.574,0.986-1.232,0.767c-1.723-0.572-3.452-1.138-5.14-1.805
					c-1.305-0.516-1.69-1.405-1.413-2.767c0.286-1.402,0.563-2.806,0.844-4.209C221.025,168.146,221.113,168.132,221.2,168.118z"/>
				<path class="st0" d="M187.261,172.152c-0.888,2.24,1.009,3.08,1.661,4.461c0.234,0.497,0.622,0.928,0.974,1.361
					c0.923,1.138,0.932,1.256-0.176,2.137c-0.77,0.612-1.573,1.183-2.36,1.774c-0.543,0.408-1.01,0.376-1.428-0.199
					c-1.154-1.587-2.335-3.156-3.465-4.76c-0.126-0.179-0.062-0.567,0.032-0.814c0.399-1.055,1.035-1.855,2.151-2.315
					C185.479,173.455,186.195,172.839,187.261,172.152z"/>
				<path class="st0" d="M235.488,177.106c-0.777-3.212-3.152-5.044-4.618-7.472c-0.669-1.108-1.146-2.123-0.579-3.482
					c0.403-0.966,0.457-2.078,0.673-3.157c1.07,1.399,2.115,2.767,3.163,4.134c0.56,0.731,1.062,1.52,1.7,2.176
					c0.975,1.002,1.043,2.189,0.88,3.436c-0.141,1.077-0.345,2.149-0.574,3.211C236.066,176.262,235.817,176.533,235.488,177.106z"
					/>
				<path class="st0" d="M212.455,43.017c0,0.625-0.021,0.907,0.003,1.186c0.17,1.966,0.427,3.929,0.483,5.898
					c0.02,0.685-0.252,1.613-0.736,2.03c-1.199,1.035-2.597,1.839-3.826,2.675c-0.184-1.931-0.359-3.678-0.512-5.426
					c-0.074-0.847-0.135-1.698-0.135-2.548c0-0.296,0.109-0.72,0.321-0.869C209.421,44.997,210.832,44.092,212.455,43.017z"/>
				<path class="st0" d="M144.294,143.499c-0.081,0.073-0.123,0.144-0.178,0.157c-2.762,0.639-3.854,3.194-5.631,4.951
					c-0.764,0.755-1.648,1.043-2.988,0.637c-0.78-0.237-1.567-0.455-2.359-0.652c-0.669-0.166-0.86-0.502-0.382-1.039
					c1.233-1.386,2.459-2.782,3.757-4.105c0.327-0.334,0.903-0.45,1.385-0.6c0.56-0.174,1.151-0.416,1.712-0.379
					c1.003,0.066,1.999,0.294,2.988,0.505C143.167,143.095,143.715,143.316,144.294,143.499z"/>
				<path class="st0" d="M252.731,144.762c1.434,1.192,2.864,0.962,4.307,0.601c1.515-0.379,1.827-0.223,2.333,1.229
					c0.314,0.9,0.546,1.832,0.905,2.712c0.24,0.589-0.043,0.859-0.486,0.935c-1.103,0.191-2.218,0.34-3.335,0.419
					c-1.298,0.092-2.582-0.827-2.981-2.076c-0.299-0.936-0.57-1.883-0.811-2.836C252.6,145.496,252.695,145.206,252.731,144.762z"/>
				<path class="st0" d="M160.516,61.186c-0.09-0.247-0.239-0.489-0.258-0.741c-0.073-0.965-0.514-1.29-1.506-1.182
					c-0.806,0.087-1.651-0.052-2.458-0.203c-0.224-0.042-0.563-0.523-0.522-0.742c0.232-1.25,0.541-2.488,0.871-3.717
					c0.142-0.528,0.426-0.749,1.104-0.596c0.986,0.222,2.03,0.185,3.047,0.28c0.724,0.068,1.177,0.403,1.055,1.22
					c-0.136,0.909-0.268,1.818-0.407,2.726c-0.059,0.389-0.12,0.778-0.198,1.164c-0.124,0.606-0.264,1.21-0.397,1.814
					C160.737,61.201,160.626,61.193,160.516,61.186z"/>
				<path class="st0" d="M149.933,161.626c-0.465,0.655-1.018,1.104-1.093,1.622c-0.089,0.612,0.202,1.294,0.385,1.929
					c0.254,0.882,0.034,1.188-0.876,1.208c-1.195,0.026-2.389,0.123-3.582,0.113c-0.265-0.002-0.665-0.27-0.765-0.513
					c-0.273-0.663-0.45-1.372-0.609-2.076c-0.195-0.867,0.436-1.785,1.63-1.962C146.609,161.71,148.232,161.725,149.933,161.626z"/>
				<path class="st0" d="M249.201,67.306c-1.25,1.288-2.386,2.605-3.676,3.749c-1.403,1.244-3.293,0.653-5.058,1.065
					c-0.034-0.241-0.185-0.579-0.082-0.699c1.087-1.267,2.141-2.579,3.356-3.714C244.669,66.841,248.563,66.651,249.201,67.306z"/>
				<path class="st0" d="M119.894,105.462c0.752-0.859,1.292-1.751,2.079-2.273c0.485-0.322,1.496-0.336,2.004-0.036
					c1.031,0.609,1.908,1.496,2.784,2.337c0.17,0.163,0.188,0.807,0.033,0.934c-0.8,0.658-1.654,1.265-2.546,1.792
					c-0.295,0.174-0.896,0.23-1.126,0.048C121.966,107.35,120.887,106.339,119.894,105.462z"/>
			</g>
		</g>
	</g>
	<g id="VObKmm_5_">
		<g>
			<g>
				<path class="st1" d="M91.164,112.928c0.249-0.607,0.564-0.872,1.305-0.595c0.989,0.369,1.943,0.36,2.671-0.695
					c0.533-0.772,1.24-1.427,1.885-2.119c1.714-1.84,3.248-2.02,5.444-0.84c1.782,0.957,3.024,2.498,4.467,3.825
					c0.225,0.207,0.43,0.493,0.512,0.78c0.081,0.283,0.095,0.682-0.054,0.899c-0.098,0.144-0.536,0.041-0.817,0.083
					c-0.316,0.047-0.698,0.04-0.927,0.217c-1.419,1.097-2.822,2.218-4.192,3.375c-0.978,0.826-2.19,1.099-3.226,0.514
					c-2.377-1.341-4.87-2.528-6.659-4.706c-0.106-0.129-0.271-0.209-0.409-0.313C91.164,113.211,91.164,113.069,91.164,112.928z"/>
				<path class="st1" d="M190.468,216.901c-0.629-0.839-1.453-1.598-1.832-2.538c-0.381-0.943,0.319-1.632,1.221-2.101
					c1.06-0.552,2.054-1.232,2.981-1.798c0.615,0.985,1.105,1.829,1.655,2.631c0.432,0.631,0.065,0.956-0.385,1.288
					c-1.142,0.84-2.284,1.679-3.427,2.518C190.61,216.901,190.539,216.901,190.468,216.901z"/>
				<path class="st1" d="M300.17,114.413c-0.526,0.744-0.749,1.868-1.885,1.894c-0.526,0.012-1.153-0.281-1.575-0.629
					c-0.834-0.688-1.57-1.498-2.32-2.283c-0.46-0.481-0.722-0.914,0.276-1.138c0.371-0.083,0.703-0.492,0.978-0.816
					c0.643-0.758,1.006-0.78,1.685-0.082c0.934,0.96,1.893,1.895,2.841,2.841C300.17,114.272,300.17,114.342,300.17,114.413z"/>
				<path class="st1" d="M209.5,202.561c0.918-0.855,1.837-1.71,2.755-2.566c0.179-0.167,0.361-0.333,0.527-0.513
					c0.801-0.86,1.796-0.914,2.673-0.165c2.705,2.313,5.411,4.626,8.133,6.92c0.533,0.449,1.097,0.896,1.72,1.188
					c0.304,0.143,0.828,0.026,1.161-0.148c0.486-0.254,0.889-0.665,1.501-1.145c-0.399-0.411-0.699-0.89-1.131-1.136
					c-1.728-0.986-3.494-1.907-5.255-2.834c-0.209-0.11-0.482-0.089-0.715-0.164c-0.464-0.149-0.92-0.321-1.507-0.53
					c1.237-1.302,2.306-2.351,3.282-3.481c0.674-0.78,1.394-0.873,2.237-0.43c2,1.051,3.989,2.123,5.981,3.188
					c1.344,0.719,2.659,1.499,4.037,2.144c1.132,0.53,2.527-0.047,2.962-1.184c0.096-0.25-0.137-0.833-0.384-0.975
					c-1.744-1-3.527-1.931-5.305-2.871c-0.935-0.495-1.659,0.058-2.383,0.537c-0.195,0.129-0.355,0.311-0.731,0.344
					c0.164-0.335,0.302-0.687,0.497-1.003c0.844-1.368,1.653-2.762,2.575-4.076c0.792-1.13,1.597-1.238,2.826-0.629
					c0.84,0.416,1.704,0.782,2.55,1.188c0.756,0.362,1.275,0.257,1.731-0.541c0.746-1.304,1.597-2.549,2.432-3.8
					c0.512-0.766,1.298-0.804,2.548-0.177c0.188,0.094,0.351,0.241,0.543,0.323c1.589,0.681,1.883,0.587,2.546-0.954
					c0.587-1.364,1.149-2.738,1.709-4.112c0.358-0.878,1.016-1.089,1.869-0.869c1.463,0.376,1.966-0.026,2.196-1.536
					c0.207-1.363,0.531-2.711,0.868-4.05c0.199-0.79,1.494-1.093,2.77-0.753c0.93,0.248,1.872,0.449,2.68,0.64
					c0.314-2.385,0.564-4.572,0.93-6.74c0.055-0.327,0.658-0.789,1.01-0.792c0.826-0.007,1.656,0.218,2.481,0.364
					c1.482,0.263,2.195-0.221,2.39-1.667c0.192-1.423,0.235-2.882,0.598-4.257c0.151-0.571,0.896-1.233,1.49-1.381
					c0.895-0.224,1.893-0.053,2.846-0.013c0.838,0.035,1.314-0.163,1.249-1.17c-0.092-1.423-0.073-2.856-0.047-4.284
					c0.024-1.308,0.867-2.125,2.216-2.232c0.317-0.025,0.641,0.014,0.953-0.035c1.02-0.159,1.174-0.48,0.989-1.507
					c-0.278-1.542-0.527-3.094-0.692-4.651c-0.139-1.302,0.185-1.65,1.447-1.941c0.916-0.211,1.834-0.422,2.74-0.67
					c0.907-0.249,1.1-0.789,0.702-1.642c-0.452-0.971-0.9-1.949-1.26-2.955c-0.491-1.369-0.009-1.973,1.389-2.523
					c3.766-1.483,7.495-3.061,11.217-4.652c0.378-0.162,0.799-0.633,0.873-1.023c0.234-1.23-0.224-1.528-1.397-1.071
					c-2.012,0.786-4.039,1.534-6.047,2.33c-0.489,0.194-0.927,0.495-0.804,1.176c0.059,0.33,0.01,0.68-0.223,1.113
					c-0.762-0.875-1.526-1.748-2.286-2.625c-0.391-0.451-0.756-0.928-1.167-1.36c-0.905-0.952-0.715-1.827,0.499-2.315
					c3.256-1.309,6.534-2.567,9.745-3.98c1.23-0.541,2.407-1.358,2.369-3.022c-0.004-0.161,0.201-0.326,0.461-0.72
					c1.177,1.482,2.323,2.806,3.324,4.233c0.526,0.749,0.112,1.632-0.46,2.159c-0.808,0.745-1.765,1.355-2.727,1.9
					c-0.748,0.424-1.023,0.715-0.511,1.605c0.808,1.403,1.447,2.911,2.055,4.416c0.134,0.333-0.019,1.057-0.283,1.229
					c-1.297,0.843-2.622,1.685-4.037,2.297c-2.828,1.224-5.728,2.28-8.576,3.458c-0.374,0.155-0.619,0.62-0.923,0.942
					c0.405,0.164,0.843,0.52,1.207,0.456c0.984-0.174,1.955-0.475,2.897-0.82c1.443-0.528,2.879-1.087,4.273-1.732
					c0.595-0.275,0.831-0.015,0.922,0.409c0.271,1.26,0.432,2.544,0.701,3.805c0.176,0.826-0.213,1.288-0.874,1.581
					c-0.86,0.381-1.744,0.706-2.623,1.044c-0.695,0.267-0.875,0.641-0.74,1.455c0.307,1.852,0.493,3.736,0.552,5.612
					c0.037,1.159-1.005,1.916-2.349,2.057c-0.902,0.095-1.796,0.338-2.697,0.36c-0.99,0.024-1.128,0.654-1.195,1.373
					c-0.182,1.947-0.286,3.903-0.517,5.844c-0.18,1.516-1.212,2.326-2.811,2.39c-1.888,0.076-1.874,0.207-2.092,2.079
					c-0.232,1.991-0.74,3.949-1.182,6.202c-2.304-0.303-4.435-0.545-6.554-0.87c-2.473-0.38-4.935-0.835-7.402-1.252
					c-0.626-0.106-1.014,0.163-1.16,0.785c-0.086,0.367-0.188,0.73-0.356,1.378c1.331,0.335,2.669,0.749,4.037,0.994
					c1.479,0.264,2.984,0.453,4.483,0.496c0.47,0.013,0.956-0.552,1.617-0.967c0,0,0.324,0.254,0.292,0.448
					c-0.261,1.541-0.57,3.075-0.906,4.602c-0.286,1.302-0.928,1.649-2.252,1.521c-1.019-0.099-2.055-0.02-3.139-0.02
					c-0.286-0.137-0.688-0.414-1.132-0.528c-1.51-0.39-3.035-0.722-4.554-1.078c-1.218-0.286-2.426-0.638-3.659-0.826
					c-0.406-0.062-0.933,0.214-1.303,0.478c-0.578,0.412-0.365,0.886,0.175,1.142c2.491,1.181,5.263,1.376,7.853,2.203
					c1.221,0.39,2.022-0.173,2.801-1.037c0.09,0.071,0.18,0.143,0.27,0.214c-0.065,0.441-0.066,0.903-0.205,1.319
					c-0.482,1.445-0.985,2.884-1.535,4.304c-0.324,0.836-1.04,0.954-1.834,0.779c-1.057-0.233-2.113-0.477-3.17-0.711
					c-0.537-0.119-0.836,0.015-1.154,0.576c-1.064,1.875-2.216,3.704-3.413,5.498c-0.666,0.999-1.312,1.078-2.445,0.549
					c-1.696-0.791-2.026-0.66-3.008,1.001c-0.583,0.986-1.255,1.92-1.88,2.882c-0.926,1.424-2.549,1.145-3.723,0.672
					c-0.798-0.321-1.521-0.831-2.323-1.14c-1.025-0.395-1.354,0.526-1.81,1.128c-1.013,1.335-1.947,2.735-3.026,4.012
					c-0.823,0.974-1.942,1.083-3.119,0.55c-0.223-0.101-0.462-0.167-0.689-0.262c-0.794-0.333-1.648-1.029-2.361-0.904
					c-0.683,0.119-1.205,1.1-1.818,1.681c-1.216,1.152-2.386,2.365-3.705,3.385c-0.387,0.299-1.254,0.167-1.824-0.012
					c-0.612-0.192-1.151-0.648-1.692-1.032c-1.567-1.113-1.672-1.043-3.041,0.383c-1.042,1.085-2.266,1.993-3.392,3
					c-0.789,0.705-1.577,0.494-2.26-0.069c-1.126-0.929-2.154-1.977-3.282-2.903c-0.243-0.199-0.84-0.263-1.091-0.102
					c-0.909,0.581-1.729,1.3-2.604,1.937c-0.815,0.594-1.624,1.208-2.496,1.708c-0.811,0.465-1.972,0.108-2.838-1.012
					c-1.619-2.093-3.133-4.267-4.665-6.426c-0.646-0.91-1.158-1.922-1.856-2.787c-0.547-0.677-1.291-1.193-1.938-1.792
					c-0.196-0.182-0.357-0.401-0.719-0.815c1.635-0.979,3.125-1.964,4.712-2.749c0.355-0.175,1.202,0.207,1.564,0.583
					c0.624,0.647,1.052,1.486,1.551,2.252c1.082,1.66,1.313,1.675,2.866,0.331c0.894-0.774,1.812-1.528,2.771-2.219
					c1.175-0.847,2.045-0.655,2.985,0.477c0.582,0.7,1.168,1.429,1.884,1.973c0.39,0.297,1.054,0.234,1.59,0.335
					c-0.021,0.513-0.265,1.229-0.018,1.5c1.732,1.903,3.54,3.739,5.379,5.541c0.753,0.738,1.573,0.343,2.019-0.373
					c0.201-0.323,0.033-1.18-0.274-1.465c-1.505-1.396-3.075-2.733-4.704-3.983C211.214,203.237,210.312,202.958,209.5,202.561z
					 M269.112,169.358c-0.883-0.065-1.688,0.023-2.222,0.874c-0.483,0.77-0.268,1.332,0.64,1.469
					c2.265,0.342,4.53,0.687,6.802,0.975c1.086,0.138,1.146-0.889,1.35-1.532c0.085-0.267-0.442-1.024-0.77-1.078
					C272.991,169.751,271.048,169.579,269.112,169.358z M204.429,210.665c0.674-0.43,1.369-0.651,1.626-1.116
					c0.167-0.301-0.231-1.004-0.51-1.441c-0.392-0.613-0.861-1.195-1.384-1.701c-1.074-1.04-2.153-2.089-3.345-2.981
					c-0.341-0.255-1.073,0.012-1.626,0.04c0.122,0.541,0.103,1.178,0.392,1.607c0.912,1.349,1.898,2.653,2.939,3.905
					C203.033,209.593,203.727,210.055,204.429,210.665z M286.808,151.983c-0.548,0-0.975-0.059-1.381,0.011
					c-1.496,0.256-2.991,0.525-4.473,0.848c-1.007,0.219-1.999,0.515-2.985,0.819c-0.727,0.224-0.899,0.887-0.635,1.437
					c0.144,0.301,0.824,0.531,1.23,0.488c2.238-0.235,4.465-0.578,6.699-0.855c1.258-0.156,1.644-0.604,1.547-1.901
					C286.792,152.586,286.808,152.34,286.808,151.983z M277.77,164.706c2.152-0.028,2.937-0.584,3.098-2.489
					c0.075-0.879-0.232-1.264-1.131-1.124c-0.552,0.086-1.11,0.128-1.661,0.217c-1.234,0.198-2.504,0.297-3.681,0.677
					c-0.491,0.159-0.783,0.932-1.166,1.427c0.42,0.291,0.805,0.745,1.266,0.842C275.681,164.505,276.9,164.596,277.77,164.706z
					 M248.622,189.28c-0.3,0.267-0.839,0.548-1.008,0.975c-0.1,0.253,0.296,0.93,0.625,1.086c1.688,0.797,3.422,1.501,5.151,2.208
					c1.016,0.415,1.943-0.095,2.252-1.301c0.273-1.066-0.518-1.167-1.293-1.255c-0.267-0.03-0.517-0.195-0.782-0.272
					C252,190.259,250.43,189.805,248.622,189.28z M246.303,198.642c0.373-0.304,0.939-0.553,0.955-0.833
					c0.019-0.332-0.362-0.828-0.701-1.012c-0.756-0.41-1.595-0.669-2.398-0.993c-1.112-0.448-2.211-0.935-3.343-1.322
					c-0.292-0.1-0.69,0.113-1.039,0.182c0.12,0.309,0.185,0.659,0.377,0.914c0.18,0.238,0.478,0.404,0.752,0.55
					c0.796,0.425,1.595,0.848,2.413,1.227C244.262,197.791,245.227,198.18,246.303,198.642z"/>
				<path class="st1" d="M278.624,71.439c-0.95-0.356-1.901-0.708-2.848-1.071c-0.611-0.234-1.206-0.516-1.826-0.725
					c-1.341-0.45-1.963-1.827-1.386-3.104c0.316-0.701,0.556-1.442,0.923-2.114c0.327-0.599,0.155-0.902-0.413-1.116
					c-1.42-0.535-2.841-1.067-4.259-1.609c-1.167-0.447-1.39-0.963-1.023-2.182c0.56-1.863,1.027-3.758,1.663-5.594
					c0.475-1.371,1.12-2.689,1.755-3.998c0.554-1.141,0.189-2.432-0.941-3.015c-0.519-0.268-1.035-0.54-1.662-0.868
					c-0.446,1.971-0.728,3.942-1.363,5.793c-0.522,1.524,0.227,1.916,1.512,2.166c-0.057,0.118-0.114,0.236-0.172,0.355
					c-0.949-0.071-1.909-0.078-2.844-0.231c-1.149-0.188-2.27-0.546-3.418-0.742c-1.102-0.187-1.109-0.895-0.919-1.705
					c0.141-0.603,0.34-1.198,0.564-1.777c0.316-0.817-0.056-1.17-0.807-1.259c-1.05-0.125-2.107-0.195-3.156-0.328
					c-1.382-0.175-2.615-1.918-2.386-3.275c0.133-0.785,0.192-1.583,0.311-2.605c-1.697,0-3.251-0.066-4.796,0.024
					c-0.998,0.058-2.276-0.893-2.306-1.952c-0.027-0.934-0.006-1.87-0.006-2.693c-1.939,0-3.673,0.002-5.406-0.001
					c-1.419-0.002-1.878-0.558-1.89-2.018c-0.007-0.816-0.227-1.63-0.338-2.356c-1.81,0.44-3.45,0.902-5.117,1.222
					c-1.202,0.23-1.64-0.088-1.848-1.234c-0.342-1.882-0.596-3.78-0.897-5.67c-0.04-0.253-0.13-0.497-0.149-0.566
					c-2.035,0.889-3.984,1.74-5.881,2.569c-1.862-0.776-1.334-2.857-2.334-4.111c-2.339,1.221-4.604,2.404-7.036,3.674
					c0.061-1.102,0.268-2.002,0.114-2.835c-0.158-0.852-0.669-1.64-0.944-2.27c-2.186,1.186-4.273,2.329-6.375,3.442
					c-0.187,0.099-0.652,0.073-0.684-0.011c-0.094-0.246-0.156-0.675-0.015-0.812c0.744-0.726,0.354-1.42-0.038-2.051
					c-1.742-2.804-3.523-5.584-5.296-8.369c-0.107-0.168-0.242-0.341-0.406-0.448c-0.674-0.439-0.607-0.796,0.01-1.265
					c0.946-0.72,1.839-1.512,2.747-2.281c0.765-0.648,1.235-0.628,1.781,0.187c0.748,1.118,1.449,2.268,2.165,3.408
					c1.146,1.824,2.321,3.631,3.412,5.486c0.369,0.628,0.523,1.383,0.795,2.138c1.337-0.222,1.625-0.608,1.018-1.988
					c-0.781-1.777-1.667-3.508-2.504-5.261c-0.26-0.545-0.668-0.715-1.268-0.66c-0.29,0.027-0.601-0.174-0.902-0.272
					c0.163-0.272,0.265-0.623,0.499-0.804c1.107-0.858,2.232-1.696,3.386-2.49c1.127-0.776,2.175-0.422,3.049,1.264
					c1.273,2.458,2.621,4.894,3.232,7.65c0.184,0.831,0.703,1.582,1.009,2.392c0.203,0.538,0.301,1.116,0.456,1.713
					c1.326-0.095,1.684-0.51,1.283-1.809c-0.672-2.179-1.397-4.341-2.041-6.327c-0.761-0.269-1.309-0.463-1.858-0.657
					c-0.002-0.128-0.004-0.256-0.007-0.385c0.441-0.211,0.869-0.456,1.326-0.625c1.303-0.483,2.636-0.887,3.92-1.414
					c0.876-0.359,1.296,0.113,1.564,0.749c0.552,1.309,1.058,2.641,1.495,3.992c0.212,0.655,0.384,0.71,1.023,0.427
					c1.423-0.631,2.891-1.179,4.379-1.639c1.184-0.366,2.131,0.312,2.681,1.724c0.826,2.119,1.313,4.305,1.516,6.58
					c0.17,1.905,0.538,3.794,0.848,5.685c0.144,0.88,0.83,1.098,1.725,1.225c-0.315-3.545-0.724-6.986-1.932-10.498
					c1.133-0.111,2.433-0.249,3.735-0.364c2.024-0.179,2.043-0.176,2.507,1.838c0.218,0.947,0.306,1.925,0.546,2.866
					c0.064,0.251,0.472,0.593,0.72,0.591c1.93-0.01,3.86-0.142,5.79-0.135c1.115,0.004,1.674,0.707,1.742,1.825
					c0.125,2.064,0.339,4.125,0.401,6.191c0.053,1.752-0.057,3.508-0.091,5.263c-0.015,0.777,0.673,1.317,1.636,1.308
					c0.331-2.299,0.707-4.591,0.951-6.896c0.045-0.431-0.441-0.918-0.685-1.378c-0.119-0.223-0.244-0.443-0.367-0.664
					c0.053-0.107,0.105-0.214,0.158-0.321c1.852,0.292,3.713,0.535,5.551,0.898c0.794,0.157,1.091,1.239,0.923,2.518
					c-0.37,2.807-0.709,5.618-1.054,8.429c-0.085,0.693-0.131,1.392-0.219,2.085c-0.095,0.747,0.124,1.281,1.022,1.509
					c0.553-2.887,1.435-5.719,1.249-8.986c1.136-0.483,2.62-0.106,3.857,0.522c2.839,1.444,1.36,4.023,1.246,6.045
					c0.814,0.177,1.518,0.258,2.17,0.485c1.624,0.564,3.237,1.165,4.832,1.808c0.865,0.349,1.188,1.363,0.896,2.496
					c-0.31,1.204-0.624,2.407-0.917,3.535c1.491,0.564,3.011,1.114,4.51,1.713c2.022,0.807,2.425,1.884,1.57,3.866
					c-1.266,2.936-2.409,5.929-3.781,8.813c-0.651,1.369-0.033,2.169,0.795,3.051C278.73,71.23,278.677,71.334,278.624,71.439z
					 M246.276,28.367c0,0.225-0.022,0.436,0.003,0.642c0.218,1.8,0.431,3.6,0.676,5.396c0.084,0.615,0.127,1.291,0.426,1.8
					c0.209,0.357,0.815,0.49,1.262,0.681c0.038,0.016,0.316-0.292,0.309-0.442c-0.096-2.097-0.192-4.196-0.35-6.289
					c-0.146-1.936-0.179-1.934-2.118-1.892C246.455,28.262,246.426,28.29,246.276,28.367z M274.206,63.001
					c0.766-1.933,1.537-3.815,2.258-5.716c0.511-1.345,0.269-2.124-0.865-3.059c-0.135,0.204-0.314,0.384-0.387,0.601
					c-0.67,1.966-1.391,3.92-1.943,5.919C273.06,61.504,272.776,62.534,274.206,63.001z M229.342,20.145
					c0.498,1.908,0.911,3.839,1.519,5.707c0.435,1.335,0.762,1.37,2.27,0.642c-0.348-1.365-0.658-2.783-1.077-4.168
					C231.668,21.054,231.155,19.828,229.342,20.145z"/>
				<path class="st1" d="M111.125,157.22c-1.273,1.783-2.384,3.232-2.81,5.084c-0.149,0.649-0.169,1.127,0.579,1.405
					c0.269,0.1,0.497,0.404,0.656,0.667c0.077,0.127,0.014,0.434-0.098,0.553c-0.101,0.106-0.409,0.154-0.535,0.078
					c-1.783-1.077-3.613-2.093-5.293-3.313c-0.829-0.602-0.5-1.705-0.192-2.535c0.405-1.09,0.993-2.112,1.47-3.097
					c-1.693-1.001-3.414-1.937-5.04-3.016c-0.782-0.519-1.145-1.426-0.578-2.327c1.18-1.875,2.421-3.712,3.67-5.541
					c0.765-1.121,1.618-2.181,2.379-3.305c0.466-0.688,0.066-1.73-0.724-1.939c-0.167-0.044-0.471,0.172-0.615,0.348
					c-1.033,1.256-2.077,2.505-3.039,3.814c-0.424,0.577-0.812,1.262-0.129,1.997c0.139,0.15,0.06,0.501,0.112,1.126
					c-1.47-0.914-2.691-1.661-3.898-2.431c-0.348-0.222-0.697-0.47-0.972-0.773c-0.599-0.661-0.951-1.376-0.3-2.238
					c1.069-1.415,2.09-2.867,3.174-4.27c1.132-1.465,2.336-2.874,3.451-4.35c0.17-0.224,0.095-0.697,0.018-1.028
					c-0.096-0.415-0.31-0.803-0.473-1.202c0.072-0.062,0.144-0.125,0.217-0.187c0.466,0.314,0.951,0.605,1.394,0.948
					c1.174,0.91,2.361,1.81,3.471,2.794c0.252,0.223,0.415,0.884,0.269,1.155c-0.506,0.944-1.117,1.845-1.786,2.683
					c-0.41,0.514-0.407,0.741,0.147,1.122c1.059,0.729,2.041,1.571,3.088,2.319c0.207,0.148,0.639,0.212,0.837,0.095
					c0.601-0.354,1.239-0.183,1.183,0.472c-0.069,0.804-0.289,1.622-0.596,2.372c-0.308,0.751-0.803,1.425-1.248,2.188
					c1.469,0.981,2.796,1.895,4.153,2.764c0.773,0.495,1.159,1.626,0.732,2.447c-0.579,1.111-1.193,2.203-1.765,3.317
					c-0.167,0.326-0.242,0.698-0.424,1.243c1.065,0.226,2.035,0.331,2.928,0.65s1.778,0.764,2.528,1.335
					c0.311,0.237,0.423,0.974,0.345,1.436c-0.2,1.191-0.49,2.378-0.872,3.524c-0.312,0.934,0.068,1.201,0.882,1.329
					c1.171,0.184,2.349,0.366,3.494,0.661c0.426,0.11,0.801,0.505,1.144,0.828c0.304,0.287,0.477,0.728,0.804,0.974
					c1.008,0.76,0.895,1.74,0.609,2.747c-0.676,2.376-0.684,2.335,1.773,2.642c1.136,0.141,2.272,0.383,3.367,0.715
					c1.228,0.373,1.649,1.515,1.371,3.286c-0.112,0.714-0.215,1.429-0.352,2.344c0.443,0,0.773-0.013,1.102,0.002
					c1.44,0.067,2.883,0.1,4.318,0.224c1.623,0.14,2.218,0.942,1.926,2.49c-0.186,0.988-0.406,1.969-0.603,2.954
					c-0.187,0.936,0.082,1.104,1.059,0.986c1.882-0.227,3.777-0.341,5.665-0.517c0.708-0.066,0.943,0.273,0.929,0.929
					c-0.02,0.874-0.005,1.749-0.005,2.757c1.227-0.445,2.366-0.857,3.504-1.271c0.296-0.108,0.586-0.235,0.885-0.334
					c1.875-0.623,2.701,0.234,2.552,2.149c-0.176,2.263-0.007,4.557,0.075,6.835c0.018,0.509,0.425,0.801,0.982,0.536
					c1.128-0.538,2.319-0.984,3.355-1.663c1.352-0.887,2.298-0.602,2.685,0.931c0.654,2.587,1.433,5.143,2.03,7.742
					c0.264,1.15,1.072,1.517,2.312,1.96c-0.819,0.451-1.349,0.827-1.937,1.05c-1.259,0.478-2.533,0.933-3.834,1.269
					c-0.3,0.077-0.846-0.273-1.086-0.578c-1.135-1.444-1.369-3.237-1.789-4.954c-0.354-1.45-0.667-2.913-1.082-4.345
					c-0.083-0.285-0.55-0.458-0.84-0.683c-0.21,0.273-0.616,0.562-0.596,0.818c0.107,1.355-0.038,2.873,2.014,3.538
					c-0.891,0.507-1.497,0.904-2.147,1.207c-0.904,0.423-1.829,0.808-2.767,1.149c-0.843,0.306-1.651-0.15-1.932-1.248
					c-0.336-1.311-0.615-2.663-0.682-4.009c-0.115-2.297,0.053-4.61-0.106-6.902c-0.057-0.825,0.284-1.861-0.749-2.548
					c-0.782-0.52-1.05-0.145-1.206,0.446c-0.238,0.904-0.383,1.837-0.509,2.765c-0.169,1.246-0.281,2.5-0.422,3.75
					c-0.109,0.967,0.503,1.275,1.289,1.475c0.316,0.081,0.6,0.285,0.899,0.433c-0.041,0.105-0.082,0.21-0.123,0.315
					c-1.77,0.308-3.529,0.743-5.312,0.889c-1.743,0.143-2.401-0.515-2.254-2.206c0.219-2.529,0.627-5.041,0.952-7.561
					c0.04-0.312,0.013-0.64,0.101-0.936c0.486-1.649,0.404-2.225-2.073-2.525c-0.233,1.26-0.47,2.535-0.704,3.811
					c-0.063,0.343-0.105,0.69-0.173,1.032c-0.242,1.221-0.048,1.56,1.113,2.075c0.166,0.074,0.295,0.334,0.335,0.53
					c0.015,0.072-0.279,0.301-0.43,0.299c-1.867-0.025-3.739-0.009-5.599-0.153c-1.023-0.079-1.562-1.05-1.38-2.061
					c0.628-3.494,1.252-6.99,1.872-10.486c0.189-1.064-0.575-1.92-1.445-1.497c-0.427,0.207-0.707,0.94-0.839,1.487
					c-0.352,1.457-0.63,2.937-0.856,4.42c-0.147,0.964-0.183,1.966,1.274,2.163c-0.038,0.103-0.075,0.207-0.113,0.31
					c-0.476,0.044-0.958,0.162-1.426,0.119c-1.292-0.117-2.591-0.232-3.862-0.477c-1.343-0.26-1.814-0.701-1.622-1.853
					c0.337-2.024,0.696-4.045,1.085-6.06c0.31-1.604,0.69-3.194,1.012-4.796c0.061-0.305,0.127-0.729-0.028-0.931
					c-0.293-0.383-0.714-0.709-1.15-0.914c-0.106-0.05-0.6,0.416-0.703,0.717c-0.537,1.577-0.973,3.189-1.511,4.767
					c-0.321,0.943-0.069,1.531,0.841,1.886c0.153,0.06,0.275,0.2,0.465,0.633c-0.413,0.077-0.842,0.266-1.237,0.21
					c-1.196-0.17-2.416-0.321-3.554-0.7c-0.81-0.27-1.561-0.827-2.213-1.4c-0.227-0.199-0.186-0.86-0.078-1.258
					c0.666-2.441,1.422-4.858,2.073-7.304c0.33-1.24,0.514-2.521,0.741-3.787c0.167-0.934-0.473-1.638-1.669-1.661
					c-0.215-0.004-0.578,0.197-0.631,0.375c-0.602,2.023-1.183,4.053-1.679,6.103c-0.046,0.191,0.536,0.53,0.821,0.805
					c0.267,0.257,0.527,0.521,0.79,0.783c-0.406,0.103-0.851,0.37-1.211,0.282c-1.683-0.408-3.348-0.895-5.009-1.391
					c-0.805-0.24-1.33-0.6-1.009-1.671c1.035-3.45,1.98-6.928,2.934-10.402c0.165-0.6,0.287-1.236,0.271-1.851
					C111.705,158.215,111.401,157.835,111.125,157.22z M105.466,155.369c1.049-1.859,2.1-3.652,3.076-5.484
					c0.404-0.757,0.49-1.569-0.357-2.211c-0.921,1.183-1.812,2.281-2.654,3.416C103.98,153.181,103.971,153.84,105.466,155.369z"/>
				<path class="st1" d="M287.568,71.929c0.316,0.158,0.651,0.287,0.945,0.479c0.933,0.611,1.876,1.211,2.767,1.879
					c1.129,0.847,1.312,1.777,0.54,2.913c-1.195,1.76-2.485,3.456-3.669,5.223c-0.961,1.434-1.842,2.923-2.708,4.417
					c-0.101,0.174,0.115,0.532,0.184,0.805c0.242-0.086,0.554-0.104,0.715-0.269c1.002-1.026,1.936-2.121,2.962-3.122
					c0.859-0.837,1.217-1.69,0.53-2.787c-0.049-0.079-0.041-0.203-0.035-0.305c0.003-0.064,0.051-0.125,0.147-0.337
					c0.799,0.564,1.605,1.073,2.339,1.67c0.618,0.503,1.185,1.079,1.717,1.675c0.884,0.989,1.16,1.821,0.152,2.95
					c-1.443,1.617-2.894,3.229-4.325,4.857c-0.9,1.024-1.774,2.07-2.652,3.113c-0.625,0.742-0.646,1.589-0.342,2.452
					c0.206,0.583,0.748,0.765,1.177,0.415c1.375-1.122,2.671-2.341,4.012-3.504c0.979-0.85,1.394-1.781,0.604-2.99
					c-0.14-0.214-0.144-0.517-0.288-1.077c0.588,0.31,1.03,0.457,1.362,0.735c0.799,0.669,1.547,1.397,2.313,2.104
					c1.975,1.822,1.769,3.85-0.45,5.64c-2.653,2.14-5.386,4.209-7.467,6.96c-0.228,0.302-0.209,0.791-0.304,1.193
					c0.373-0.052,0.823,0.013,1.107-0.174c1.372-0.903,2.733-1.83,4.027-2.84c0.607-0.475,1.224-1.086,0.705-2.044
					c-0.082-0.15,0.078-0.431,0.126-0.652c0.126-0.086,0.252-0.173,0.378-0.259c1.191,1.311,2.401,2.606,3.566,3.939
					c0.631,0.723,0.648,1.388-0.105,2.175c-2.496,2.61-5.73,4.111-8.725,5.97c-0.929,0.577-1.906,1.055-2.215,2.631
					c-0.951-1.074-1.785-1.963-2.559-2.902c-0.966-1.173-0.716-2.754,0.549-3.544c0.532-0.332,1.118-0.58,1.684-0.856
					c0.606-0.296,0.944-0.653,0.357-1.281c-0.708-0.758-1.42-1.512-2.111-2.285c-0.389-0.436-0.798-0.875-1.086-1.376
					c-0.198-0.344-0.344-0.707,0.153-1.15c0.98-0.872,1.789-1.934,2.71-2.876c0.509-0.521,0.655-0.914,0.026-1.473
					c-1.089-0.966-2.141-1.978-3.157-3.022c-0.457-0.47-0.837-1.037-1.15-1.614c-0.105-0.193,0.026-0.613,0.184-0.833
					c0.706-0.981,1.454-1.932,2.2-2.884c0.787-1.004,0.729-1.377-0.342-2.095c-0.946-0.634-1.925-1.227-2.816-1.931
					c-0.591-0.467-1.202-1.037-0.572-1.941c0.666-0.956,1.306-1.931,1.932-2.913c0.238-0.373,0.405-0.791,0.587-1.152
					c-1.435-0.715-2.808-1.342-4.124-2.07c-1.641-0.908-2.028-2.207-1.137-3.802c0.762-1.364,1.644-2.661,2.422-4.016
					c0.687-1.196,1.301-2.434,1.953-3.65c0.489-0.913,0.334-1.659-0.513-2.286c-0.23-0.171-0.36-0.476-0.436-0.995
					c0.506,0.09,1.036,0.113,1.511,0.286c0.85,0.311,1.723,0.623,2.482,1.101c0.875,0.551,1.735,1.198,2.397,1.977
					c0.253,0.298,0.096,1.158-0.144,1.622c-1.082,2.099-2.268,4.144-3.4,6.218c-0.501,0.918-0.998,1.842-1.429,2.794
					c-0.401,0.886-0.444,1.756,0.75,2.482c0.627-0.889,1.283-1.835,1.958-2.767c0.298-0.411,0.628-0.799,0.955-1.187
					c0.781-0.927,1.281-1.933,0.858-3.214C287.424,72.06,287.496,71.994,287.568,71.929z"/>
				<path class="st1" d="M180.987,209.689c-1.844,1.376-3.513,2.62-5.433,4.052c-0.938-1.901-1.851-3.616-2.641-5.387
					c-1.062-2.382-2.019-4.811-3.048-7.208c-0.159-0.37-0.397-0.791-0.72-0.983c-0.307-0.182-0.795-0.174-1.158-0.078
					c-0.118,0.031-0.197,0.634-0.115,0.925c0.7,2.471,1.37,4.957,2.841,7.123c0.13,0.192,0.173,0.443,0.301,0.784
					c-1.215,0.703-2.404,1.405-3.607,2.082c-0.669,0.377-1.336,0.322-1.742-0.36c-0.549-0.925-1.104-1.873-1.46-2.88
					c-0.923-2.611-1.739-5.259-2.597-7.893c-0.022-0.067-0.044-0.139-0.04-0.207c0.062-1.198-0.354-1.84-1.855-1.221
					c1.571-1.935,7.116-4.221,8.063-3.431c-0.074,0.107-0.135,0.233-0.228,0.326c-1.216,1.219-1.357,1.895-0.592,3.388
					c0.297,0.58,0.728,0.758,1.377,0.326c1.355-0.903,2.748-1.752,4.153-2.576c0.779-0.457,1.348-0.209,1.73,0.709
					c0.734,1.767,1.41,3.558,2.165,5.316c0.852,1.984,1.735,3.956,2.677,5.898c0.181,0.373,0.688,0.596,1.062,0.865
					C180.3,209.387,180.519,209.46,180.987,209.689z"/>
				<path class="st1" d="M149.67,32.594c0,0.409,0.088,0.695-0.014,0.872c-0.765,1.318-1.52,2.646-2.371,3.909
					c-1.078,1.6-1.214,1.569-2.897,0.538c-0.788-0.483-1.653-0.843-2.307-1.172c-0.949,2.113-1.849,4.101-2.733,6.097
					c-0.275,0.621-0.643,0.784-1.338,0.603c-3.494-0.909-6.995-1.797-10.515-2.598c-0.733-0.167-1.699-0.433-2.171,0.678
					c-0.084,0.196-0.512,0.246-0.78,0.364c-0.104-0.077-0.208-0.154-0.312-0.231c0.508-1.762,0.901-3.569,1.558-5.274
					c0.535-1.387,1.973-1.047,2.979-0.841c3.435,0.7,6.834,1.581,10.24,2.419c1.029,0.253,1.799-0.177,2.465-1.558
					c-0.502-0.274-0.992-0.594-1.522-0.822c-1.645-0.708-3.293-1.412-4.964-2.056c-0.987-0.38-1.911-0.371-2.475,0.786
					c-0.141,0.289-0.481,0.48-0.902,0.88c-0.047-0.496-0.192-0.843-0.084-1.065c0.807-1.651,1.632-3.295,2.518-4.904
					c0.614-1.116,1.663-1.078,2.755-0.879c2.11,0.383,3.89,1.532,5.774,2.439c1.446,0.696,2.89,1.399,4.31,2.147
					C147.857,33.436,148.764,33.659,149.67,32.594z"/>
				<path class="st1" d="M98.03,137.129c-1.362-1.313-2.745-2.606-4.08-3.947c-1.056-1.06-1.054-1.799-0.075-2.925
					c0.571-0.656,1.156-1.302,1.762-1.926c0.438-0.451,0.536-0.686-0.034-1.245c-1.154-1.132-2.226-2.386-3.133-3.724
					c-1.023-1.51-0.836-2.277,0.446-3.591c1.632-1.674,1.948-1.643,3.39,0.259c0.442,0.582,0.897,1.167,1.425,1.668
					c0.581,0.552,0.376,0.963-0.089,1.398c-1.671,1.565-1.672,1.564-0.335,3.713c0.562-0.481,1.132-0.925,1.651-1.422
					c0.855-0.816,1.646-1.7,2.521-2.492c0.966-0.874,0.85-1.82,0.137-3.104c0.589,0.228,0.998,0.268,1.221,0.493
					c1.196,1.207,2.363,2.445,3.506,3.703c0.645,0.709,0.52,1.586-0.144,2.233c-1.531,1.492-3,3.047-4.544,4.525
					c-1.038,0.993-2.144,1.918-3.251,2.835c-0.89,0.738-0.825,1.529-0.292,2.425c0.168,0.283,0.239,0.625,0.354,0.94
					C98.321,137.007,98.175,137.068,98.03,137.129z"/>
				<path class="st1" d="M186.88,197.312c0.557,1.259,1.13,2.511,1.667,3.779c0.713,1.683,1.462,3.355,2.076,5.075
					c0.559,1.566-0.363,3.007-1.663,4.053c-1.548,1.246-3.134,2.446-4.724,3.64c-0.471,0.354-0.996,0.645-1.525,0.907
					c-0.175,0.087-0.546,0.076-0.64-0.041c-0.129-0.16-0.104-0.465-0.098-0.707c0.003-0.126,0.103-0.251,0.162-0.376
					c0.947-2.008,0.696-3.935-0.25-5.892c-0.691-1.43-1.178-2.958-1.79-4.428c-0.449-1.079,0.041-1.789,0.829-2.434
					c1.773-1.449,3.534-2.914,5.311-4.359c0.128-0.104,0.433-0.193,0.506-0.126c0.207,0.19,0.337,0.465,0.497,0.707
					C187.12,197.178,187,197.245,186.88,197.312z"/>
				<path class="st1" d="M122.644,56.514c-0.126,1.689-0.104,3.342-0.437,4.92c-0.132,0.626-0.973,1.392-1.625,1.553
					c-1.083,0.267-2.274,0.077-3.419,0.116c-2.208,0.074-4.416,0.156-6.623,0.272c-0.692,0.036-1.377,0.276-2.065,0.276
					c-1.236,0.001-2.177,0.428-2.817,1.51c-0.079,0.133-0.408,0.258-0.524,0.199c-0.231-0.119-0.56-0.37-0.559-0.566
					c0.003-1.379,0.056-2.758,0.138-4.135c0.081-1.376,0.976-2.058,2.219-2.25c1.789-0.276,3.59-0.528,5.396-0.636
					c2.536-0.151,5.086-0.087,7.619-0.268C120.789,57.446,121.598,56.915,122.644,56.514z"/>
				<path class="st1" d="M176.684,15.897c0.033-0.469-0.043-0.81,0.081-0.914c1.424-1.206,2.791-2.51,4.347-3.522
					c1.8-1.17,3-0.717,4.21,1.079c2.033,3.017,4.121,5.997,6.197,8.985c0.399,0.574,0.886,0.994,1.684,0.756
					c0.176-0.052,0.408,0.083,0.614,0.131c-0.059,0.22-0.056,0.496-0.192,0.648c-0.227,0.255-0.589,0.391-0.813,0.648
					c-0.712,0.819-1.747,1.184-2.472,2.093c-0.87,1.091-1.88,1.021-2.845-0.263c-1.105-1.47-2.108-3.015-3.173-4.516
					c-1.306-1.842-2.637-3.667-3.942-5.51c-0.491-0.694-1.022-0.785-1.767-0.357C178.071,15.469,177.432,15.618,176.684,15.897z"/>
				<path class="st1" d="M290.89,124.774c-1.927-0.441-3.507-1.061-4.753-2.31c-1.219-1.221-2.418-2.464-3.573-3.746
					c-0.231-0.256-0.221-0.73-0.322-1.104c0.369,0.009,0.817-0.114,1.094,0.05c1.45,0.861,2.321-0.216,3.347-0.882
					c1.092-0.71,2.164-1.51,3.358-1.986c1.209-0.483,2.483-0.27,3.581,0.592c1.537,1.207,3.09,2.394,4.656,3.563
					c0.61,0.456,0.677,0.85-0.114,1.04c-2.283,0.55-3.732,2.36-5.566,3.586C291.978,123.994,291.373,124.436,290.89,124.774z"/>
				<path class="st1" d="M135.034,43.693c-0.403,1.78-0.71,3.592-1.278,5.318c-0.137,0.416-1.174,0.832-1.735,0.761
					c-2.861-0.363-5.697-0.91-8.55-1.344c-1.31-0.2-2.637-0.286-3.955-0.433c-0.622-0.069-1.059,0.048-1.236,0.771
					c-0.052,0.213-0.521,0.325-0.8,0.483c-0.139-0.248-0.437-0.529-0.392-0.738c0.36-1.699,0.81-3.378,1.178-5.075
					c0.176-0.812,0.713-1.015,1.394-0.934c2.424,0.288,4.846,0.594,7.263,0.935c1.996,0.281,3.983,0.635,5.979,0.917
					c0.228,0.032,0.499-0.175,0.737-0.297c0.354-0.182,0.695-0.387,1.042-0.583C134.798,43.549,134.916,43.621,135.034,43.693z"/>
				<path class="st1" d="M103.529,91.846c-0.235-0.024-0.499-0.132-0.7-0.06c-1.856,0.665-3.757,1.246-5.525,2.099
					c-0.848,0.409-1.439,1.35-2.306,2.208c-0.357-0.592-0.824-1.359-1.281-2.132c-0.088-0.148-0.155-0.314-0.202-0.481
					c-0.287-1.021-0.565-2.045-0.846-3.068c1.185-0.772,2.29-1.735,3.572-2.277c2.577-1.09,5.232-2.009,7.894-2.88
					c1.193-0.39,1.057-1.388,1.401-2.416c0.3,0.292,0.594,0.465,0.722,0.721c0.681,1.361,1.343,2.732,1.969,4.119
					c0.499,1.106,0.128,1.892-1.006,2.339c-1.114,0.44-2.223,0.895-3.32,1.374c-0.172,0.075-0.269,0.318-0.401,0.484L103.529,91.846
					z"/>
				<path class="st1" d="M166.21,25.616c0.248,1.204-0.629,1.941-1.23,2.74c-0.708,0.941-1.552,1.789-2.405,2.605
					c-0.186,0.178-0.773,0.2-0.988,0.041c-1.182-0.875-2.281-1.86-3.453-2.749c-2.079-1.576-4.174-3.134-6.296-4.652
					c-0.841-0.602-1.723-0.78-2.367,0.349c-0.057,0.101-0.209,0.148-0.589,0.135c0.078-0.391,0.053-0.846,0.251-1.161
					c0.868-1.381,1.777-2.737,2.716-4.07c0.728-1.033,1.699-0.506,2.439-0.115c1.251,0.66,2.436,1.471,3.569,2.324
					c2.063,1.554,4.06,3.196,6.099,4.782c1.023,0.796,1.338,0.75,2.286-0.199L166.21,25.616z"/>
				<path class="st1" d="M158.366,28.946c-0.522,0.913-1.034,1.832-1.57,2.737c-0.248,0.418-0.543,0.809-0.812,1.214
					c-1.183,1.78-1.927,1.837-3.634,0.656c-2.555-1.768-5.146-3.485-7.747-5.186c-0.511-0.334-1.119-0.549-1.711-0.726
					c-1.167-0.349-1.792,0.582-2.73,1.337c0.069-0.476,0.025-0.834,0.173-1.075c0.923-1.507,1.818-3.039,2.863-4.46
					c0.829-1.127,1.48-1.085,2.93-0.411c2.599,1.208,4.895,2.881,7.211,4.531c0.88,0.627,1.784,1.225,2.712,1.778
					c0.209,0.125,0.588,0.071,0.848-0.018c0.425-0.146,0.817-0.388,1.223-0.589C158.203,28.805,158.284,28.875,158.366,28.946z"/>
				<path class="st1" d="M110.82,57.25c-0.144-0.343-0.349-0.599-0.339-0.845c0.053-1.327,0.061-2.667,0.271-3.973
					c0.282-1.756,0.379-1.974,2.178-2.037c3.051-0.107,6.112,0.052,9.167,0.132c1.048,0.027,2.104,0.273,3.137,0.187
					c0.725-0.06,1.417-0.511,2.212-0.822c-0.082,0.677-0.162,1.477-0.279,2.271c-0.098,0.672-0.292,1.333-0.349,2.007
					c-0.129,1.519-0.934,2.171-2.422,1.964c-1.003-0.14-2.016-0.234-3.027-0.275c-2.389-0.097-4.779-0.192-7.169-0.21
					C112.124,55.634,111.876,55.791,110.82,57.25z"/>
				<path class="st1" d="M167.19,17.956c0.188-0.512,0.213-0.861,0.4-1.043c1.333-1.296,2.676-2.585,4.079-3.803
					c0.229-0.199,0.936-0.207,1.148-0.009c1.683,1.573,3.333,3.186,4.927,4.849c1.306,1.364,2.499,2.836,3.801,4.204
					c0.22,0.231,0.738,0.19,1.121,0.252c0.245,0.04,0.496,0.04,0.744,0.057c0.06,0.12,0.12,0.24,0.181,0.359
					c-1.383,1.171-2.71,2.422-4.188,3.457c-0.359,0.251-1.403-0.001-1.804-0.374c-1.145-1.066-2.097-2.336-3.169-3.484
					c-1.449-1.552-2.952-3.053-4.405-4.602c-0.65-0.692-1.256-0.798-1.962-0.1C167.939,17.844,167.682,17.831,167.19,17.956z"/>
				<path class="st1" d="M199.211,27.022c-0.247-0.464-0.453-0.666-0.424-0.827c0.323-1.823-1.104-2.705-2.042-3.841
					c-0.358-0.434-0.791-0.807-1.191-1.207c-0.976-0.974-1.156-1.704-0.309-2.815c1.585-2.076,3.289-4.062,4.984-6.052
					c0.191-0.224,0.636-0.232,0.963-0.341c-0.043,0.322,0.008,0.701-0.146,0.955c-0.722,1.191-0.391,2.123,0.924,3.229
					c1.168,0.982,2.27,2.076,3.224,3.262c0.292,0.364,0.173,1.275-0.063,1.798c-0.382,0.846-0.99,1.598-1.55,2.353
					c-0.538,0.724-1.042,1.523-1.734,2.07C201.098,26.197,200.151,26.534,199.211,27.022z"/>
				<path class="st1" d="M103.5,91.877c0.84,1.229,1.689,2.451,2.515,3.689c0.308,0.461,0.621,0.933,0.828,1.442
					c0.38,0.936,0.105,1.598-0.816,2.049c-2.923,1.431-5.825,2.912-8.797,4.234c-1.06,0.471-1.617,0.962-1.269,2.271
					c-1.678-1.634-3.009-3.384-4.09-5.627c0.957-0.563,1.85-1.144,2.791-1.631c1.813-0.94,3.651-1.829,5.481-2.735
					c0.649-0.321,1.282-0.692,1.961-0.928c1.064-0.37,1.497-1.064,1.373-2.16c-0.023-0.206,0.031-0.42,0.051-0.632
					C103.529,91.846,103.5,91.877,103.5,91.877z"/>
				<path class="st1" d="M166.242,25.647c-1.402-1.514-2.801-3.032-4.21-4.54c-0.288-0.309-0.637-0.563-0.915-0.879
					c-0.504-0.574-1.052-0.566-1.7-0.271c-0.272,0.124-0.613,0.095-0.923,0.136c-0.075-0.134-0.15-0.267-0.225-0.401
					c1.127-1.353,2.162-2.799,3.412-4.026c0.884-0.868,2.031-0.688,2.976,0.286c2.145,2.211,4.241,4.47,6.341,6.726
					c0.69,0.741,1.322,1.525,2.498,0.881c0.128-0.07,0.355,0.038,0.536,0.063c-0.05,0.175-0.051,0.392-0.158,0.519
					c-1.006,1.19-1.987,2.406-3.063,3.531c-1.019,1.065-1.657,0.918-2.606-0.087c-0.64-0.678-1.326-1.312-1.993-1.966
					C166.21,25.616,166.242,25.647,166.242,25.647z"/>
				<path class="st1" d="M105.869,75.453c0.441,1.39,0.786,2.649,1.242,3.867c0.55,1.469-0.068,2.502-1.624,2.852
					c-2.294,0.516-4.581,1.087-6.828,1.776c-0.652,0.2-1.408,0.66-1.344,1.664c0.015,0.228-0.335,0.479-0.516,0.719
					c-0.221-0.193-0.552-0.344-0.646-0.586c-0.425-1.095-0.832-2.201-1.156-3.329c-0.566-1.968,0.296-3.303,2.696-4.066
					c1.98-0.629,4-1.128,5.997-1.706c0.347-0.101,0.67-0.298,0.991-0.475C105.064,75.957,105.432,75.718,105.869,75.453z"/>
				<path class="st1" d="M110.912,66.087c0.164,1.449,0.259,2.751,0.47,4.034c0.255,1.548-0.55,2.442-2.145,2.484
					c-2.351,0.063-4.705,0.181-7.043,0.422c-0.679,0.07-1.509,0.375-1.64,1.372c-0.03,0.226-0.421,0.405-0.646,0.606
					c-0.18-0.232-0.475-0.444-0.52-0.7c-0.206-1.156-0.39-2.321-0.49-3.49c-0.174-2.041,0.929-3.184,3.431-3.468
					c2.064-0.235,4.143-0.333,6.213-0.514c0.36-0.032,0.715-0.162,1.064-0.274C110.024,66.425,110.432,66.262,110.912,66.087z"/>
				<path class="st1" d="M191.431,17.193c-0.38-1.954-1.817-2.704-2.816-3.749c-0.608-0.637-0.672-1.031-0.008-1.577
					c0.837-0.69,1.684-1.377,2.447-2.146c0.605-0.609,1.113-0.594,1.664-0.017c0.762,0.798,1.611,1.543,2.217,2.448
					c0.294,0.44,0.398,1.449,0.111,1.759C193.946,15.102,192.652,16.114,191.431,17.193z"/>
				<path class="st1" d="M106.059,109.746c-1.162-1.037-2.256-1.984-3.314-2.968c-0.515-0.479-0.983-0.959-0.021-1.572
					c0.536-0.342,0.998-0.906,1.298-1.474c0.223-0.421,0.131-1.008,0.194-1.675c0.34,0.141,0.724,0.205,0.976,0.423
					c0.743,0.642,1.463,1.317,2.14,2.029c1.234,1.298,1.011,3.519-0.427,4.607C106.627,109.325,106.348,109.531,106.059,109.746z"/>
				<path class="st1" d="M202.41,27.219c0.465-0.523,0.84-1.026,1.296-1.439c0.746-0.677,1.545-1.296,2.324-1.936
					c0.107-0.088,0.218-0.188,0.344-0.23c0.412-0.136,2.505,1.063,2.772,1.57c0.48,0.908-0.056,1.445-0.615,2.103
					c-1.285,1.513-2.712,1.265-4.258,0.588C203.732,27.638,203.158,27.479,202.41,27.219z"/>
				<path class="st1" d="M281.858,123.634c0.524-0.403,0.921-0.656,1.252-0.976c0.481-0.466,0.87-0.699,1.463-0.09
					c0.732,0.752,1.568,1.404,2.367,2.091c0.588,0.506,0.936,1.025,0.288,1.745c-0.757,0.842-1.592,1.042-2.281,0.388
					C283.878,125.777,282.881,124.687,281.858,123.634z"/>
			</g>
		</g>
	</g>
</g>
</svg>
