<?xml version="1.0" encoding="utf-8"?>
<!-- Generator: Adobe Illustrator 17.0.0, SVG Export Plug-In . SVG Version: 6.00 Build 0)  -->
<!DOCTYPE svg PUBLIC "-//W3C//DTD SVG 1.1//EN" "http://www.w3.org/Graphics/SVG/1.1/DTD/svg11.dtd">
<svg version="1.1" id="Capa_1" xmlns="http://www.w3.org/2000/svg" xmlns:xlink="http://www.w3.org/1999/xlink" x="0px" y="0px"
	 width="300px" height="300px" viewBox="0 0 300 300" style="enable-background:new 0 0 300 300;" xml:space="preserve">
<style type="text/css">
	.st0{fill:#D8D8D8;}
	.st1{fill:#E8B667;}
	.st2{fill:#F4D68C;}
</style>
<g>
	<g>
		<path class="st0" d="M117.979,27.998c0,0-0.172,0.084-0.43,0.21c-0.259,0.122-0.602,0.294-0.938,0.487
			c-0.673,0.373-1.347,0.745-1.347,0.745l0.162,0.589c0,0,2.194-0.656,4.435-1.125c1.115-0.258,2.23-0.516,3.066-0.71
			c0.839-0.178,1.406-0.264,1.406-0.264l-0.117-0.6c0,0-0.211-0.007-0.529-0.017c-0.318-0.011-0.742-0.028-1.161-0.011
			c-0.843,0.017-1.687,0.034-1.687,0.034l-3.527-15.808c0.745-0.278,1.701-0.609,2.686-0.8c3.326-0.598,5.543,0.311,5.939,2.84
			c0.416,2.649-1.033,4.739-5.026,5.755l0.159,0.763c0,0,0.252-0.057,0.505-0.114c0.255-0.045,0.509-0.091,0.509-0.091
			c2.399-0.428,4.283-1.359,5.545-2.57c1.268-1.143,1.907-2.589,1.701-4.121c-0.25-1.866-1.497-2.972-3.252-3.463
			c-1.746-0.454-3.995-0.336-6.196,0.06c0,0-0.595,0.104-1.477,0.318c-0.884,0.204-2.062,0.475-3.24,0.747
			c-2.367,0.501-4.684,1.198-4.684,1.198l0.162,0.591c0,0,0.865-0.064,1.731-0.128c0.43-0.039,0.865-0.054,1.192-0.059
			c0.326-0.009,0.544-0.014,0.544-0.014L117.979,27.998z"/>
		<path class="st0" d="M133.193,26.559c0,0,0.969-0.145,2.43-0.291c1.465-0.111,3.418-0.26,5.371-0.408
			c1.957-0.088,3.919-0.106,5.388-0.155c1.47-0.065,2.45-0.001,2.45-0.001l0.349-5.585l-0.752-0.019c0,0-0.521,1.134-1.042,2.267
			c-0.503,1.154-1.005,2.309-1.005,2.309s-1.854,0.047-3.708,0.094c-0.928,0.006-1.853,0.057-2.545,0.125
			c-0.693,0.053-1.155,0.089-1.155,0.089l-0.575-8.217c0,0,1.183-0.09,2.366-0.18c1.186-0.034,2.371-0.067,2.371-0.067l1.247,2.724
			l0.724-0.018l-0.127-6.51l-0.76,0.019l-1.118,2.783c0,0-1.195,0.034-2.389,0.068c-1.192,0.091-2.384,0.181-2.384,0.181
			l-0.513-7.328c0,0,0.517-0.039,1.294-0.098c0.776-0.071,1.811-0.132,2.849-0.142c2.074-0.052,4.148-0.105,4.148-0.105
			s0.434,0.936,0.868,1.871c0.422,0.94,0.844,1.881,0.844,1.881l0.905,0.022l0.038-4.814c0,0-1.112-0.052-2.781,0.012
			c-1.668,0.053-3.894,0.07-6.116,0.185c-2.22,0.169-4.44,0.338-6.105,0.464c-1.661,0.168-2.764,0.328-2.764,0.328l0.072,0.608
			c0,0,0.865,0.066,1.73,0.133c0.431,0.028,0.862,0.07,1.187,0.117c0.324,0.041,0.539,0.068,0.539,0.068l1.499,15.958
			c0,0-0.183,0.057-0.458,0.143c-0.275,0.079-0.639,0.205-1,0.345c-0.722,0.268-1.444,0.536-1.444,0.536L133.193,26.559z"/>
		<path class="st0" d="M170.689,28.146l3.344-17.323c0,0,0.867-0.003,1.734-0.006c0.864,0.034,1.727,0.069,1.727,0.069l0.131-0.598
			c0,0-2.105-0.51-4.244-0.854c-2.131-0.379-4.263-0.759-4.263-0.759l-0.093,0.605l3.424,1.259l-2.275,12.569
			c0,0-0.579-0.994-1.448-2.485c-0.882-1.521-2.117-3.456-3.428-5.378c-1.305-1.93-2.681-3.882-3.748-5.327
			c-1.088-1.402-1.814-2.337-1.814-2.337s-1.788-0.136-3.577-0.271c-0.894-0.08-1.789-0.126-2.461-0.13
			c-0.672-0.018-1.12-0.029-1.12-0.029l-0.021,0.612c0,0,0.843,0.196,1.687,0.393c0.421,0.09,0.84,0.21,1.154,0.301
			c0.314,0.089,0.523,0.148,0.523,0.148l-0.949,16.055c0,0-0.189,0.026-0.473,0.064c-0.284,0.036-0.661,0.086-1.04,0.165
			c-0.754,0.142-1.508,0.284-1.508,0.284l-0.021,0.611c0,0,1.88,0,3.749,0.186c1.871,0.142,3.742,0.283,3.742,0.283l0.059-0.609
			l-3.089-0.876l1.072-15.156c0,0,0.875,1.113,2.187,2.783c1.291,1.632,2.934,3.961,4.474,6.263
			c1.547,2.295,2.991,4.573,4.011,6.381c1,1.769,1.666,2.948,1.666,2.948L170.689,28.146z"/>
		<path class="st0" d="M190.725,28.073c1.043-2.833-1.147-4.97-3.491-6.975c-2.363-1.909-4.886-3.606-4.291-5.862
			c0.487-1.856,2.584-2.45,4.804-1.817c3.115,0.913,3.944,3.202,3.609,5.556l1.123,0.38l1.486-3.904
			c-1.363-0.881-3.629-2.22-5.65-2.796c-2.037-0.581-3.969-0.644-5.47-0.157c-1.507,0.498-2.595,1.605-2.981,3.189
			c-1.217,5.249,9.555,7.967,7.933,12.6c-0.345,1.014-1.114,1.665-2.081,1.965c-0.966,0.293-2.13,0.24-3.33-0.075
			c-3.284-0.915-3.668-3.277-3.757-6.152l-1.113-0.256l-0.831,4.634c1.542,0.988,3.301,2.105,5.103,2.588
			c2.155,0.559,4.059,0.675,5.636,0.133C188.988,30.607,190.187,29.551,190.725,28.073z"/>
		<path class="st0" d="M205.332,38.829l-3.196-0.885l-0.274,0.546c0,0,1.971,0.985,3.913,2.026c1.91,1.099,3.821,2.198,3.821,2.198
			l0.313-0.525l-1.985-1.847c0,0,0.126-1.212,0.315-3.03c0.184-1.84,0.367-4.257,0.487-6.687c0.265-4.868,0.253-9.873,0.253-9.873
			s-0.234-0.119-0.467-0.238c-0.238-0.11-0.475-0.221-0.475-0.221s-3.981,3.068-7.673,6.271c-1.852,1.59-3.651,3.218-4.993,4.498
			c-1.321,1.269-2.202,2.114-2.202,2.114l-2.682-0.311l-0.206,0.547c0,0,1.671,0.659,3.342,1.318
			c0.842,0.313,1.666,0.671,2.275,0.961c0.614,0.278,1.023,0.463,1.023,0.463l0.238-0.534c0,0-0.635-0.471-1.269-0.942
			c-0.63-0.487-1.291-0.911-1.291-0.911s1.064-1.062,2.13-2.054c1.081-0.999,2.162-1.999,2.162-1.999s1.721,0.778,3.441,1.555
			c0.87,0.369,1.693,0.836,2.328,1.149c0.63,0.323,1.05,0.538,1.05,0.538s-0.083,1.474-0.165,2.948
			C205.438,37.367,205.332,38.829,205.332,38.829z M205.958,23.659c0,0,0.017,2.023-0.046,4.088c-0.075,2.041-0.15,4.081-0.15,4.081
			s-0.372-0.19-0.929-0.476c-0.56-0.281-1.292-0.684-2.061-1.012c-1.522-0.688-3.044-1.376-3.044-1.376s1.536-1.336,3.071-2.673
			C204.378,24.975,205.958,23.659,205.958,23.659z"/>
		<path class="st0" d="M230.224,56.41l10.812-11.833l2.939,1.837l0.424-0.442c0,0-1.412-1.341-2.823-2.682
			c-1.471-1.276-2.942-2.552-2.942-2.552s-0.93,0.43-2.325,1.076c-1.393,0.659-3.204,1.519-5.04,2.474
			c-3.659,1.875-7.158,3.878-7.158,3.878s0.237-1.002,0.593-2.504c0.352-1.515,0.791-3.539,1.163-5.548
			c0.774-4.035,1.366-8.197,1.366-8.197s-1.469-1.078-3.02-2.035c-1.533-0.983-3.067-1.965-3.067-1.965l-0.323,0.521l2.491,2.423
			l-8.8,13.462l-2.863-1.075l-0.322,0.52c0,0,1.546,0.991,3.092,1.982c0.784,0.479,1.53,1.014,2.088,1.418
			c0.561,0.4,0.935,0.666,0.935,0.666l0.353-0.499c0,0-0.517-0.565-1.034-1.13c-0.26-0.284-0.519-0.567-0.714-0.78
			c-0.203-0.202-0.338-0.337-0.338-0.337l8.258-12.319c0,0-0.133,1.116-0.395,2.821c-0.255,1.697-0.622,3.941-1.033,6.154
			c-0.408,2.215-0.86,4.399-1.217,6.022c-0.385,1.637-0.641,2.729-0.641,2.729l0.858,0.675c0,0,4.011-2.325,8.24-4.479
			c4.169-2.125,8.52-4.034,8.52-4.034l-10.29,11.816l-2.712-1.432l-0.39,0.471c0,0,1.672,1.449,3.344,2.898
			c0.854,0.705,1.634,1.491,2.238,2.06c0.6,0.573,1.001,0.954,1.001,0.954l0.423-0.441L230.224,56.41z"/>
		<path class="st0" d="M250.189,53.748l2.751,2.109l0.463-0.401c0,0-0.418-0.482-1.044-1.205c-0.621-0.728-1.459-1.689-2.355-2.599
			c-1.762-1.845-3.523-3.691-3.523-3.691l-0.433,0.433l1.852,2.947l-11.604,11.057l-2.564-1.683l-0.432,0.432
			c0,0,1.527,1.602,3.054,3.204c0.78,0.786,1.506,1.621,2.042,2.255c0.543,0.627,0.905,1.046,0.905,1.046l0.462-0.4l-1.439-2.727
			L250.189,53.748z"/>
		<path class="st0" d="M240.94,69.54c0,0,0.168,0.178,0.427,0.52c0.264,0.337,0.642,0.819,1.095,1.397
			c0.889,1.169,2.167,2.658,3.263,4.283c2.333,3.149,4.391,6.482,4.391,6.482l4.886-2.74l-0.406-0.633c0,0-1.239,0.18-2.479,0.361
			c-1.229,0.196-2.458,0.392-2.458,0.392s-0.249-0.39-0.624-0.975c-0.402-0.567-0.938-1.322-1.474-2.078
			c-0.536-0.755-1.073-1.51-1.475-2.077c-0.397-0.57-0.68-0.937-0.68-0.937l6.586-4.947c0,0,0.188,0.23,0.44,0.596
			c0.258,0.363,0.601,0.846,0.945,1.329c0.687,0.967,1.375,1.933,1.375,1.933l-1.592,2.513l0.415,0.593l5.398-3.641l-0.436-0.623
			l-2.963,0.585c0,0-0.693-0.974-1.385-1.948c-0.346-0.487-0.693-0.974-0.953-1.339c-0.255-0.369-0.444-0.601-0.444-0.601
			l5.874-4.412c0,0,0.317,0.411,0.764,1.049c0.451,0.634,1.053,1.48,1.655,2.326c0.6,0.847,1.201,1.694,1.651,2.329
			c0.421,0.655,0.702,1.092,0.702,1.092l-2.253,3.496l0.489,0.763l4.065-2.58c0,0-0.601-0.937-1.503-2.343
			c-0.874-1.425-2.228-3.197-3.5-5.025c-1.254-1.843-2.702-3.539-3.714-4.868c-0.516-0.656-0.947-1.203-1.248-1.586
			c-0.296-0.387-0.486-0.591-0.486-0.591l-0.471,0.391c0,0,0.411,0.767,0.797,1.549c0.389,0.777,0.779,1.553,0.779,1.553
			l-12.582,9.93c0,0-0.599-0.481-1.197-0.963c-0.593-0.484-1.204-0.947-1.204-0.947L240.94,69.54z"/>
		<path class="st0" d="M259.894,101.9l16.376-6.564l1.844,2.937l0.574-0.214c0,0-0.794-2.015-1.588-4.029
			c-0.388-1.011-0.8-2.012-1.149-2.746c-0.334-0.74-0.557-1.233-0.557-1.233l-0.56,0.249c0,0,0.223,0.882,0.445,1.764
			c0.238,0.874,0.398,1.775,0.398,1.775l-11.8,4.891c0,0,0.568-1.024,1.297-2.558c0.746-1.54,1.723-3.636,2.67-5.797
			c0.981-2.173,1.762-4.331,2.403-6.013c0.612-1.688,1.021-2.813,1.021-2.813s-0.803-1.605-1.724-3.147
			c-0.895-1.555-1.79-3.111-1.79-3.111l-0.526,0.314l1.094,3.299l-14.008,7.902l-2.045-2.272l-0.525,0.313
			c0,0,0.935,1.626,1.869,3.252c0.485,0.803,0.909,1.64,1.224,2.268c0.32,0.626,0.534,1.043,0.534,1.043l0.543-0.28
			c0,0-0.216-0.774-0.432-1.549c-0.109-0.389-0.219-0.777-0.301-1.068c-0.095-0.285-0.159-0.475-0.159-0.475l13.319-7.311
			c0,0-0.11,0.335-0.302,0.922c-0.211,0.588-0.513,1.428-0.875,2.436c-0.742,2.005-1.721,4.603-2.816,7.141
			c-1.132,2.562-2.309,5.029-3.208,6.834c-0.439,0.9-0.845,1.652-1.133,2.178c-0.285,0.522-0.448,0.82-0.448,0.82L259.894,101.9z"/>
		<path class="st0" d="M283.454,118.214c0,0-0.835,0.608-1.669,1.217c-0.853,0.6-1.707,1.2-1.707,1.2l0.16,0.892l4.73-0.898
			c0,0-0.057-0.319-0.157-0.877c-0.091-0.56-0.244-1.356-0.475-2.301c-0.465-1.888-0.953-4.44-1.675-6.932
			c-0.732-2.488-1.355-5.01-2.029-6.837c-0.623-1.843-1.039-3.072-1.039-3.072l-4.543,1.592l0.291,0.858l4.131,0.402
			c0,0,0.12,0.354,0.299,0.885c0.176,0.532,0.433,1.235,0.623,1.959c0.409,1.438,0.818,2.876,0.818,2.876l-15.698,4.42l-1.542-2.893
			l-0.584,0.181c0,0,0.633,2.232,1.266,4.464c0.343,1.109,0.581,2.245,0.778,3.093c0.195,0.848,0.326,1.413,0.326,1.413l0.596-0.136
			l-0.044-3.294l15.8-4.039L283.454,118.214z"/>
		<path class="st0" d="M267.956,136.578c0.118,1.695,0.53,3.161,1.07,4.428c0.514,1.269,1.243,2.333,2.136,3.196
			c1.788,1.723,4.233,2.654,6.947,2.656c2.769,0.002,5.184-0.831,6.88-2.727c0.848-0.946,1.516-2.156,1.957-3.64
			c0.448-1.483,0.525-3.236,0.388-5.256c-0.076-0.982-0.209-1.9-0.408-2.748c-0.233-0.845-0.519-1.621-0.851-2.327
			c-0.664-1.412-1.512-2.542-2.495-3.387c-1.98-1.693-4.587-2.223-7.244-1.772c-2.742,0.464-4.965,1.667-6.458,3.578
			c-0.761,0.959-1.325,2.095-1.643,3.418C267.925,133.322,267.857,134.834,267.956,136.578z M268.932,136.938
			c-0.135-2.353,0.333-4.264,1.627-5.735c1.297-1.466,3.39-2.49,6.296-2.907c2.507-0.359,4.749,0.011,6.447,1.118
			c1.679,1.103,2.906,2.938,3.05,5.398c0.485,5.408-2.479,8.611-8.328,8.715C272.929,143.617,269.325,141.18,268.932,136.938z"/>
	</g>
	<g>
		<path class="st1" d="M170.239,292.964c-0.009-1.178-1.074-1.851-2.016-2.583c-0.646-0.5-1.269-1.015-1.869-1.541
			c-1.324-1.158-2.647-2.302-3.842-3.511c-1.529-1.548-2.938-3.257-4.327-4.892l-0.22-0.299c-1.043-1.256-0.998-2.699,0.138-3.953
			c2.442-2.627,4.805-5.432,7.491-7.819c0.118-0.105,0.224-0.22,0.33-0.334c0.028-0.03,0.035-0.075,0.07-0.157
			c-0.172,0.009-0.314,0.009-0.453,0.026c-2.813,0.346-5.618,0.762-8.452,0.917c-0.364,0.028-0.726,0.083-1.087,0.142
			c-0.401,0.065-0.573,0.245-0.546,0.646l0.633,9.901c0.124,1.966,0.185,3.938,0.397,5.894c0.106,0.965-0.313,1.757-1.064,2.462
			c-1.822,1.669-3.862,3.145-6.18,4.483c-0.456,0.261-1.014,0.423-1.504,0.621c-1.662-2.14-3.19-4.216-4.641-6.263
			c-0.971,0.733-1.878,1.494-2.903,2.139c-1.606,0.957-3.315,1.847-5.035,2.751c-0.656,0.345-1.375,0.434-2.225,0.365
			c-7.704-0.842-15.337-2.261-22.857-4.155c-2.044-0.563-4.1-1.305-6.258-1.305c-0.048-0.001-0.103-0.042-0.265-0.112
			c0.323-0.164,0.569-0.324,0.864-0.436c2.374-0.918,4.763-1.746,7.235-2.393c1.194-0.3,2.469-0.31,3.722-0.014
			c8.336,1.91,16.835,3.076,25.363,3.505c0.855,0.022,1.499-0.215,2.192-0.571c-0.752-0.881-1.492-1.742-2.188-2.618
			c-0.452-0.576-0.874-1.192-1.268-1.799c-1.165-1.809-2.236-3.635-3.336-5.425c-0.653-1.076-1.416-2.046-2.071-3.145
			c-0.421-0.694-0.847-1.389-1.157-2.112c-0.457-1.066-0.246-2.145,0.069-3.168c0.127-0.41,0.565-0.779,0.952-1.065
			c1.796-1.286,3.647-2.699,5.577-3.808c0.239-0.14,0.492-0.26,0.74-0.383c0.066-0.033,0.146-0.043,0.265-0.077
			c-0.005,0.083,0.011,0.144-0.014,0.182c-0.896,1.416-0.736,2.882,0.08,4.283c0.848,1.49,1.915,2.772,2.91,4.165
			c0.394,0.546,0.727,1.127,1.097,1.692c1.102,1.673,2.247,3.386,3.443,5.026c0.124,0.168,0.291,0.314,0.564,0.443
			c0.008-0.166,0.025-0.332,0.024-0.497l-0.051-7.54c-0.004-0.968,0.297-1.863,1.053-2.598c0.877-0.852,1.757-1.683,2.661-2.473
			c0.904-0.775,1.829-1.546,2.792-2.313c0.177-0.137,0.382-0.241,0.615-0.337c-0.888,1.836-0.302,3.667-0.304,5.491l0.242,0.126
			c0.1-0.172,0.161-0.377,0.306-0.51c1.52-1.418,2.985-2.767,4.446-4.189c0.692-0.678,1.56-1.035,2.591-1.143
			c0.781-0.082,1.557-0.206,2.332-0.334c0.77-0.157,1.535-0.343,2.308-0.48c5.884-0.977,11.669-2.485,17.317-4.38
			c0.641-0.215,1.179-0.518,1.598-1.02c0.12-0.144,0.291-0.251,0.438-0.375l0.101,0.058c-0.088,0.258-0.147,0.529-0.272,0.773
			c-1.043,2.006-2.221,4.058-3.75,5.889c-0.798,0.931-1.766,1.593-3.071,1.944c-1.843,0.543-3.731,0.906-5.598,1.356
			c-1.862,0.477-3.758,0.791-5.65,1.123c-0.431,0.076-0.763,0.211-1.06,0.528c-1.042,1.146-2.155,2.167-3.288,3.213
			c-0.402,0.371-0.469,0.812-0.456,1.279c0.019,0.71,0.284,1.295,0.826,1.856c0.98,1.015,1.801,2.152,2.813,3.169
			c1.051,1.033,2.238,1.949,3.396,2.919l1.223,1.058c1.148,0.913,2.299,1.829,3.444,2.739c0.505,0.406,0.973,0.815,1.383,1.274
			c0.449,0.498,0.32,1.065-0.159,1.638c-1.694,1.956-3.543,3.819-5.761,5.545c-0.19,0.147-0.401,0.279-0.609,0.413
			C170.413,292.907,170.332,292.927,170.239,292.964z"/>
		<path class="st1" d="M251.969,198.736c0.193,0.671,0.653,1.021,1.223,1.319c0.59,0.309,1.2,0.332,1.846,0.33
			c1.091,0.003,2.178,0.006,3.266,0.009c1.592-0.011,3.148-0.042,4.743-0.138c1.467-0.09,2.947-0.245,4.435-0.43
			c0.419-0.052,0.842-0.207,1.265-0.318l0.032-0.135c-0.147-0.075-0.291-0.157-0.443-0.222l-6.03-2.6
			c-0.46-0.192-0.737-0.505-0.9-0.978c-0.684-1.944-1.548-3.851-2.23-5.756c-0.272-0.749-0.502-1.511-0.722-2.273
			c-0.251-0.765-0.503-1.534-0.753-2.297c-0.149-0.425-0.11-0.832,0.041-1.276c2.054-6.123,3.656-12.407,4.64-18.801l0.009-0.046
			c0.298-0.986,0.283-1.966-0.301-2.839c-0.081-0.118-0.102-0.283-0.152-0.426l0.095-0.094c0.204,0.196,0.437,0.368,0.608,0.595
			c1.739,2.262,3.163,4.667,4.156,7.483c0.135,0.383,0.159,0.872,0.095,1.289c-0.337,1.734-0.764,3.453-1.166,5.174
			c-0.093,0.387-0.081,0.715,0.043,1.089c0.306,1.024,0.552,2.086,0.831,3.146c0.059,0.222,0.127,0.556,0.271,0.609
			c0.403,0.149,0.876,0.345,1.269,0.223c1.383-0.428,2.699-1.169,4.032-1.902c0.942-0.51,1.867-0.899,2.809-1.365
			c0.461-0.232,0.921-0.472,1.375-0.735l2.546-1.53c0.861-0.528,1.745-1.043,2.591-1.615c0.671-0.467,1.323-0.99,1.987-1.496
			c0.631-0.48,1.291-0.832,1.975-0.468c0.235,0.125,0.437,0.405,0.584,0.681c1.341,2.433,2.407,4.969,3.143,7.848
			c0.089,0.348,0.097,0.743,0.143,1.118l-0.15,0.081c-0.151-0.233-0.295-0.476-0.456-0.694c-0.223-0.301-0.491-0.381-0.832-0.155
			c-1.17,0.775-2.343,1.502-3.566,2.233c-0.906,0.554-1.788,1.173-2.692,1.692c-0.738,0.424-1.495,0.766-2.244,1.123
			c-1.302,0.626-2.618,1.192-3.969,1.781c-0.641,0.285-1.246,0.723-1.884,0.996c-0.871,0.372-1.762,0.829-2.628,0.899
			c-0.713,0.058-1.535-0.143-1.965-0.917c-0.528-0.952-1.073-1.899-1.47-2.914c-0.752-2.003-1.58-4.061-2.417-6.026
			c-0.045-0.1-0.091-0.199-0.17-0.374c-0.83,3.167-1.903,6.186-2.964,9.288l0.567,0.209c4.967,1.827,9.918,3.695,14.912,5.449
			c0.9,0.316,1.389,0.91,1.686,1.877c0.726,2.417,1.421,4.972,1.653,7.684c0.039,0.5,0.032,1.025-0.007,1.549
			c-0.01,0.132-0.211,0.384-0.337,0.434c-0.728,0.291-1.457,0.548-2.184,0.778c-1.314,0.412-2.605,0.841-3.919,1.134
			c-1.682,0.36-3.35,0.619-5.004,0.849c-0.712,0.099-1.415,0.103-2.12,0.147c-0.304,0.019-0.61,0.056-0.912,0.063
			c-1.931,0.048-3.828,0.08-5.777,0.017c-0.881-0.025-1.745-0.138-2.62-0.167c-0.688-0.022-1.418,0.148-2.069,0.022
			c-1.3-0.25-2.326-0.891-2.642-2.407c-0.437-2.226-0.991-4.456-1.293-6.723c-0.044-0.34-0.039-0.69-0.057-1.033L251.969,198.736z"
			/>
		<path class="st1" d="M108.472,281.686c0.896,0.319,1.627,0.503,2.418,0.321c0.76-0.182,1.567-0.216,2.358-0.363l0.12,0.172
			c-0.279,0.171-0.54,0.381-0.844,0.511c-2.184,0.945-4.478,1.806-7.01,2.361c-1.175,0.277-2.377,0.347-3.61,0.441
			c-0.48,0.031-1.054-0.071-1.545-0.236c-7.236-2.493-14.323-5.47-21.063-9.104c-1.263-0.616-2.502-1.283-3.771-1.878
			c-0.593-0.282-1.247-0.411-2.047-0.666c0.417-0.113,0.705-0.233,1.028-0.276c2.458-0.342,4.87-0.532,7.415-0.715
			c0.813-0.047,1.618,0.007,2.441,0.284c0.402,0.135,0.57,0.047,0.713-0.24c2.464-4.961,4.92-9.927,7.439-14.859
			c0.591-1.158,1.485-2.062,2.936-2.415c2.092-0.566,4.123-1.212,6.201-1.574c0.179-0.032,0.364-0.043,0.547-0.056
			c0.057-0.004,0.118,0.018,0.231,0.038c-0.081,0.102-0.144,0.172-0.197,0.249c-0.495,0.719-1.125,1.376-1.473,2.164
			c-2.386,5.425-4.73,10.871-7.036,16.332c-0.246,0.583-0.633,0.936-1.271,1.121c-1.021,0.296-2.062,0.57-3.12,0.829
			c-0.175,0.043-0.399-0.004-0.601-0.01l0.07,0.258l0.539,0.244c5.419,2.562,11.079,4.569,16.771,6.427
			c0.831,0.237,0.929,0.2,1.123-0.443l4.791-15.916c0.266-0.893,0.871-1.521,1.699-1.953c2.028-1.084,4.037-1.919,6.169-2.795
			c0.26-0.102,0.532-0.175,0.801-0.253c0.069-0.02,0.149-0.008,0.338-0.015c-0.159,0.178-0.284,0.28-0.36,0.408
			c-0.253,0.425-0.604,0.832-0.718,1.293l-4.001,16.497c-0.047,0.195-0.188,0.406-0.372,0.526c-1.978,1.314-4.163,2.249-6.505,3.078
			C108.917,281.529,108.757,281.586,108.472,281.686z"/>
		<path class="st1" d="M187.333,262.011c-0.469,0.498-0.648,1.057-0.487,1.61c0.2,0.682,0.459,1.358,0.811,1.977
			c0.198,0.349,0.63,0.581,0.965,0.86c1.685,1.393,3.614,2.637,5.612,3.652c1.143,0.594,2.186,1.329,3.356,1.92
			c0.925,0.466,1.974,0.786,2.941,1.22c1.684,0.744,3.419,1.35,4.837,2.432c0.848,0.644,1.142,1.793,0.575,2.839
			c-1.172,2.223-2.549,4.32-4.295,6.33c-0.188,0.218-0.412,0.421-0.715,0.727c-0.103-0.268-0.204-0.443-0.239-0.637
			c-0.181-0.995-1.094-1.5-1.942-2.02c-1.906-1.14-4.155-2.075-6.265-3.022c-0.825-0.375-1.515-0.908-2.269-1.358
			c-1.336-0.784-2.715-1.57-3.974-2.493c-1.187-0.86-2.184-1.886-3.356-2.73c-1.114-0.804-1.253-1.93-1.227-3.067
			c0.017-0.707,0.34-1.501,0.752-2.15c0.626-0.961,1.255-1.927,1.886-2.896c0.621-0.98,1.225-1.981,1.81-2.965
			c0.607-1.028,1.162-2.068,1.791-3.056c0.906-1.403,1.784-2.905,2.662-4.312c0.206-0.337,0.519-0.617,0.836-0.986
			c0.119,0.218,0.198,0.311,0.223,0.416c0.208,0.895,0.869,1.475,1.578,2.016c1.354,1.047,2.757,1.873,4.419,2.483
			c0.669,0.241,1.206,0.745,1.816,1.119l1.545,0.909c1.411,0.821,2.836,1.574,4.251,2.323c0.138,0.074,0.239,0.361,0.177,0.513
			c-0.495,1.251-1.027,2.472-1.683,3.643c-0.633,1.153-1.385,2.283-2.122,3.429c-0.135,0.21-0.329,0.399-0.524,0.631
			c-1.406-0.778-2.792-1.657-4.14-2.481c-0.944-0.583-1.948-1.097-2.799-1.755c-1.149-0.895-2.634-1.252-3.774-2.148
			c-0.882-0.688-1.735-1.399-2.546-2.138C187.596,262.643,187.507,262.321,187.333,262.011z"/>
		<path class="st1" d="M229.321,229.969c-0.072,0.818,0.546,1.182,0.995,1.641l10.291,10.532c0.386,0.392,0.512,0.837,0.427,1.414
			c-0.184,1.175-0.368,2.355-0.551,3.525c-0.144,1.018-0.248,2.035-0.414,3.012c1.151,0.321,2.374,0.03,3.496-0.554
			c1.265-0.65,2.569-1.344,3.687-2.406c1.09-1.073,2.121-2.203,3.14-3.336c1.019-1.134,1.993-2.303,2.824-3.587
			c0.86-1.281,1.272-2.609,1.512-3.955c0.173-0.897,0.264-1.828,0.392-2.745c0.034-0.246,0.134-0.497,0.203-0.745l0.129-0.022
			c0.047,0.345,0.127,0.682,0.132,1.04c0.076,3.334-0.281,6.631-1.124,10.156c-0.508,1.795-1.018,3.666-2.301,5.349
			c-1.245,1.695-2.735,3.2-4.202,4.72c-1.226,1.279-2.596,2.458-4.049,3.443c-1.702,1.154-3.503,2.033-5.401,2.038
			c-0.441,0.008-0.869-0.077-1.248-0.205c-0.134-0.045-0.189-0.337-0.148-0.524c0.264-1.236,0.591-2.429,0.806-3.688
			c0.225-1.226,0.424-2.441,0.593-3.643c0.022-0.157-0.064-0.33-0.161-0.442l-9.862-11.288c-0.465-0.527-0.721-1.09-0.636-1.833
			c0.286-2.242,0.495-4.559,0.971-6.785c0.061-0.287,0.151-0.569,0.238-0.85c0.026-0.082,0.092-0.155,0.139-0.232L229.321,229.969z"
			/>
		<path class="st1" d="M222.004,265.932c-0.08-0.154-0.144-0.299-0.227-0.432l-7.813-12.496c-0.338-0.543-0.702-1.103-0.857-1.721
			c-0.139-0.556-0.125-1.215,0.02-1.801c0.28-1.135,0.586-2.253,0.935-3.35c0.346-1.101,0.692-2.243,1.12-3.327
			c0.088-0.226,0.204-0.444,0.353-0.768c0.098,0.186,0.191,0.277,0.19,0.373c-0.01,0.979,0.549,1.687,1.06,2.409l10.82,15.274
			c0.314,0.44,0.409,0.901,0.27,1.474c-0.693,3.006-1.91,5.859-3.532,8.765c-0.398,0.695-0.935,1.277-1.736,1.714
			c-4.362,2.542-8.812,4.933-13.373,7.102c-0.936,0.436-1.743,1.147-2.612,1.737c-0.17,0.115-0.32,0.253-0.593,0.342
			c0.097-0.271,0.153-0.551,0.295-0.812c1.316-2.463,2.703-4.756,4.331-7.143c0.727-1.031,1.736-1.799,2.896-2.405
			c1.39-0.687,2.697-1.525,4.052-2.277c1.336-0.785,2.709-1.508,3.997-2.371C221.728,266.141,221.846,266.047,222.004,265.932z"/>
		<path class="st1" d="M257.295,232.663c-3.607-2.826-7.19-5.632-10.772-8.439c-1.422-1.115-2.823-2.257-4.276-3.331
			c-0.825-0.611-1.235-1.458-1.346-2.457c-0.22-2.259-0.488-4.604-0.446-6.879c0.003-0.221,0.042-0.442,0.074-0.767
			c0.15,0.127,0.257,0.177,0.304,0.263c0.398,0.727,0.945,1.292,1.633,1.767l14.505,10.094c0.498,0.347,0.499,0.346,0.926-0.255
			c2.2-3.24,4.328-6.536,6.217-9.969c0.556-0.994,1.366-1.915,1.267-3.149l0.135-0.035c0.131,0.348,0.303,0.678,0.383,1.051
			c0.483,2.435,0.773,4.94,0.751,7.62c0.003,0.776-0.246,1.47-0.696,2.173c-1.358,2.069-2.623,4.201-4.098,6.191
			c-1.428,2.022-2.846,4.051-4.41,5.971C257.411,232.555,257.368,232.59,257.295,232.663z"/>
		<path class="st1" d="M292.82,158.385c-0.299-0.397-0.582-0.817-0.903-1.174c-0.172-0.191-0.402-0.382-0.619-0.397l-26.172-1.815
			c-0.542-0.038-1.078-0.23-1.601-0.399c-1.32-0.424-2.411-1.136-3.344-2.235c-1.39-1.598-2.762-3.146-3.911-4.828
			c-0.128-0.188-0.228-0.395-0.27-0.678c0.117,0.059,0.242,0.107,0.35,0.179c1.073,0.721,2.249,1.118,3.567,1.141l14.435,0.308
			l11.595,0.149c0.27,0.003,0.57-0.149,0.803-0.045c0.344,0.154,0.688,0.413,0.95,0.739c1.898,2.374,3.658,5.06,4.943,8.075
			c0.095,0.213,0.165,0.448,0.241,0.677c0.021,0.061,0.023,0.135,0.034,0.202L292.82,158.385z"/>
		<path class="st1" d="M263.76,157.08c0.255,0.274,0.57,0.509,0.754,0.834c0.719,1.253,1.683,1.638,3.007,1.765
			c7.43,0.711,14.849,1.52,22.269,2.315c1.872,0.2,3.453,1.12,4.6,3.096c0.751,1.294,1.477,2.631,2.153,4.032
			c0.676,1.401,1.203,2.853,1.705,4.397c0.131,0.414,0.217,0.863,0.324,1.298l-0.17,0.145c-0.281-0.514-0.584-1.002-0.84-1.536
			c-0.369-0.77-0.77-1.489-1.436-1.784c-0.727-0.322-1.453-0.7-2.22-0.828l-22.961-3.748c-0.257-0.042-0.529-0.004-0.785-0.049
			c-0.147-0.025-0.304-0.107-0.41-0.219c-1.388-1.503-2.635-3.295-3.729-5.071c-0.767-1.198-1.362-2.438-2.12-3.652
			c-0.159-0.261-0.222-0.59-0.329-0.886L263.76,157.08z"/>
		<path class="st1" d="M133.516,260.231l-0.731,0.686c-0.146,0.146-0.331,0.296-0.39,0.476c-0.181,0.553-0.373,1.113-0.452,1.684
			l-1.783,13.215c-0.008,0.058-0.035,0.119-0.021,0.174c0.228,0.932-0.451,1.429-1.25,1.879l-1.11,0.647l0.052,0.131
			c2.276,0.271,4.544,0.621,6.979,0.843c-0.307,0.287-0.487,0.501-0.723,0.665c-2.051,1.358-4.243,2.589-6.708,3.593
			c-0.48,0.193-0.956,0.257-1.508,0.145c-2.513-0.492-5.052-0.847-7.548-1.421c-0.238-0.055-0.477-0.11-0.927-0.213
			c0.382-0.273,0.619-0.507,0.926-0.656c1.082-0.51,2.193-1.017,3.252-1.617c0.213-0.118,0.372-0.371,0.414-0.588l2.199-11.402
			c0.072-0.374,0.115-0.756,0.221-1.122c0.178-0.614,0.323-1.249,0.616-1.816c0.229-0.444,0.586-0.889,1.011-1.18
			c2.097-1.426,4.23-2.686,6.49-3.872c0.244-0.124,0.509-0.212,0.765-0.311c0.05-0.019,0.11-0.017,0.165-0.024L133.516,260.231z"/>
		<path class="st1" d="M232.861,264.784c0.123-0.489,0.21-0.978,0.373-1.463c0.131-0.391,0.095-0.674-0.115-0.957l-11.232-15.172
			c-0.536-0.731-1.023-1.527-1.119-2.495c-0.029-0.271-0.036-0.556,0.01-0.831c0.395-2.368,0.867-4.653,1.556-6.901
			c0.061-0.216,0.167-0.422,0.252-0.632l0.127-0.015c0.087,0.242,0.14,0.507,0.267,0.725c0.381,0.656,0.718,1.355,1.194,1.932
			l12.044,14.471c0.322,0.383,0.433,0.781,0.346,1.315c-0.568,2.944-1.42,6.006-2.844,8.989c-0.177,0.361-0.431,0.709-0.651,1.064
			L232.861,264.784z"/>
		<path class="st1" d="M249.812,241.683c-0.41-1.441-1.644-2.091-2.593-2.985l-9.567-8.862c-0.599-0.561-1.14-1.21-1.569-1.909
			c-0.254-0.414-0.303-0.992-0.333-1.53c-0.108-2.4-0.108-4.743,0.13-7.069c0.017-0.237,0.075-0.473,0.113-0.708l0.117-0.02
			c0.054,0.143,0.088,0.299,0.165,0.426c0.258,0.42,0.45,0.93,0.807,1.232l13.111,11.035c0.554,0.468,0.716,1.201,0.711,1.974
			c-0.029,2.459-0.197,5.031-0.803,7.617c-0.042,0.167-0.096,0.335-0.154,0.502C249.912,241.487,249.858,241.584,249.812,241.683z"
			/>
		<path class="st1" d="M272.712,208.56c0.097,0.266,0.226,0.516,0.285,0.802c0.48,2.412,0.978,4.975,0.849,7.626
			c-0.045,1.143-0.33,2.353-0.548,3.545c-0.052,0.284-0.21,0.591-0.365,0.86c-3.622,5.967-7.556,11.755-11.969,17.166
			c-0.46,0.592-0.759,1.318-1.164,1.956c-0.15,0.246-0.279,0.502-0.548,0.78c-0.026-0.31-0.092-0.611-0.075-0.93
			c0.149-2.568,0.198-5.217,0.654-7.829c0.219-1.201,0.717-2.397,1.457-3.464c4.001-5.47,7.522-11.286,10.651-17.293
			c0.304-0.602,0.31-1.356,0.438-2.036c0.072-0.381,0.115-0.761,0.17-1.14L272.712,208.56z"/>
		<path class="st1" d="M210.453,271.936c0.048-0.196,0.067-0.396,0.148-0.586c0.24-0.562,0.16-1.052-0.072-1.505l-6.474-12.577
			c-0.506-0.974-0.618-1.937-0.172-3.054c0.825-1.986,1.529-4.082,2.492-6.02c0.106-0.215,0.248-0.414,0.369-0.615
			c1.013,2.637,2.659,4.885,4.015,7.287c1.301,2.318,2.709,4.575,4.031,6.881c0.336,0.586,0.411,1.277,0.123,2.029
			c-0.488,1.279-1.011,2.564-1.613,3.845c-0.62,1.249-1.333,2.467-2.165,3.68c-0.157,0.228-0.347,0.444-0.523,0.666L210.453,271.936
			z"/>
		<path class="st2" d="M76.436,262.158c-0.063,0.102-0.074,0.151-0.108,0.17c-0.195,0.108-0.55,0.168-0.564,0.321
			c-0.028,0.319,0.075,0.694,0.213,1.035c0.377,0.974,0.827,1.874,1.315,2.803c0.298,0.556,0.704,1.088,1.07,1.632
			c0.445,0.662,0.331,1.308-0.402,1.452c-1.332,0.261-2.701,0.487-4.121,0.594c-1.535,0.132-3.067,0.011-4.638-0.023
			c-0.313-0.01-0.646-0.093-0.971-0.143l-0.055-0.126c0.1-0.046,0.192-0.105,0.3-0.137c0.571-0.167,0.67-0.445,0.343-1.023
			c-0.514-0.909-1.078-1.803-1.521-2.713c-0.408-0.909-0.717-1.831-1.018-2.742c-0.163-0.492,0.036-0.807,0.556-0.856
			c0.867-0.082,1.716-0.22,2.595-0.221c2.044-0.044,4.103-0.088,6.158-0.132C75.842,262.041,76.118,262.115,76.436,262.158z"/>
		<path class="st1" d="M173.027,280.176c-1.072-1.039-2.079-2.044-3.07-3.049l-1.176-1.178c-0.291-0.295-0.345-0.631-0.067-0.977
			c0.733-0.913,1.419-1.845,2.196-2.706c0.959-1.076,1.986-2.04,2.964-3.129c0.366-0.395,0.829-0.72,1.243-1.075l0.155,0.086
			c-0.172,0.331-0.343,0.663-0.536,1.035c0.478,0.461,0.976,0.942,1.476,1.425c0.897,0.814,1.797,1.631,2.692,2.443
			c0.121,0.111,0.181,0.398,0.092,0.523c-0.743,1.047-1.502,2.104-2.368,3.115c-0.877,1.015-1.861,2.022-2.856,2.935
			C173.583,279.803,173.34,279.947,173.027,280.176z"/>
		<path class="st2" d="M82.428,254.495c-0.463,0.116-0.925,0.232-1.426,0.358c0.056,0.367,0.114,0.747,0.172,1.129
			c0.238,1.256,0.288,2.494,0.927,3.736c0.266,0.512,0.083,0.871-0.475,0.969c-1.941,0.347-3.918,0.642-5.899,0.774
			c-0.961,0.075-1.974,0.01-2.978-0.016c-0.267-0.007-0.547-0.072-0.822-0.111l-0.051-0.126c0.23-0.072,0.446-0.187,0.693-0.207
			c0.45-0.037,0.437-0.293,0.34-0.622c-0.188-0.641-0.402-1.28-0.534-1.916c-0.135-0.735-0.192-1.463-0.281-2.19
			c-0.039-0.314-0.109-0.631-0.13-0.942c-0.028-0.416,0.188-0.653,0.618-0.693c1.255-0.131,2.5-0.261,3.767-0.394
			c1.44-0.112,2.887-0.146,4.314-0.173c0.565-0.011,1.154,0.13,1.728,0.2L82.428,254.495z"/>
		<path class="st2" d="M86.472,246.299c-0.074,0.101-0.085,0.135-0.109,0.146c-1.337,0.592-0.931,0.763-0.704,1.842
			c0.245,1.163,0.374,2.253,0.323,3.396c-0.017,0.434-0.187,0.792-0.659,0.901c-1.668,0.404-3.309,0.757-5.015,0.953
			c-1.328,0.157-2.722,0.131-4.114,0.158c-0.256,0.003-0.531-0.045-0.786-0.088l-0.058-0.173c0.388-0.086,0.772-0.226,1.183-0.28
			c0.478-0.061,0.669-0.278,0.702-0.719c0.089-1.298-0.049-2.663-0.343-4c-0.127-0.587,0.056-0.973,0.598-1.182
			c0.324-0.125,0.66-0.243,1.009-0.293c2.396-0.308,4.898-0.705,7.321-0.73C86.013,246.226,86.21,246.27,86.472,246.299z"/>
		<path class="st1" d="M100.292,273.622c-0.447-1.502-0.847-2.93-1.235-4.349c-0.26-0.952-0.125-1.338,0.807-1.675
			c1.24-0.448,2.477-0.872,3.725-1.241c1.256-0.392,2.541-0.778,3.843-1.055c0.233-0.051,0.481-0.062,0.806-0.103
			c-0.066,0.114-0.078,0.181-0.12,0.198c-0.65,0.272-0.605,0.739-0.419,1.31c0.41,1.258,0.798,2.53,1.173,3.811
			c0.052,0.179-0.092,0.49-0.265,0.569c-1.026,0.47-2.07,0.94-3.187,1.298c-1.412,0.449-2.91,0.811-4.397,1.163
			C100.78,273.601,100.514,273.602,100.292,273.622z"/>
		<path class="st1" d="M268.687,169.124c0.104,0.106,0.192,0.25,0.315,0.309c0.162,0.078,0.377,0.177,0.524,0.114
			c0.688-0.296,1.368-0.634,2.04-1.001c0.334-0.183,0.642-0.439,0.958-0.673c0.285-0.211,0.541-0.223,0.732,0.098
			c0.667,1.12,1.361,2.238,1.969,3.437c0.606,1.169,1.093,2.412,1.547,3.641c0.093,0.243,0.135,0.519,0.186,0.719
			c-0.593,0.347-1.146,0.692-1.712,0.981c-0.665,0.338-1.333,0.672-2.016,0.897c-0.22,0.072-0.533-0.124-0.74-0.298
			c-0.214-0.18-0.373-0.463-0.516-0.731c-1.147-2.093-2.082-4.162-3.054-6.367c-0.113-0.267-0.201-0.549-0.293-0.826
			c-0.024-0.071-0.018-0.156-0.026-0.234L268.687,169.124z"/>
	</g>
	<g>
		<path class="st1" d="M16.813,78.013c0.962,0.699,2.109,0.23,3.233-0.106c0.776-0.227,1.576-0.412,2.357-0.581
			c1.728-0.369,3.445-0.745,5.137-0.981c1.083-0.151,2.156-0.267,3.225-0.365l3.259-0.213l0.373,0.002
			c1.637-0.086,2.767,0.809,3.09,2.463c0.351,1.769,0.702,3.541,1.056,5.328c0.343,1.785,0.566,3.534,0.775,5.351
			c0.019,0.16,0.052,0.316,0.086,0.472c0.009,0.041,0.042,0.073,0.088,0.151c0.089-0.147,0.169-0.263,0.233-0.388
			c0.648-1.26,1.401-2.463,2.093-3.699l1.057-1.844c0.365-0.607,0.76-1.196,1.138-1.795c0.196-0.307,0.371-0.629,0.541-0.952
			c0.189-0.359,0.149-0.603-0.19-0.82l-8.33-5.388c-1.653-1.071-3.273-2.197-4.971-3.192c-0.839-0.49-1.222-1.296-1.336-2.317
			c-0.313-2.499-0.226-4.981,0.077-7.646c0.064-0.521,0.269-1.065,0.404-1.575c2.68-0.083,5.284-0.052,7.788-0.001
			c-0.007-1.216-0.076-2.399,0.02-3.605c0.189-1.862,0.493-3.765,0.793-5.687c0.118-0.73,0.463-1.371,1.041-1.998
			c5.25-5.697,10.958-10.953,16.957-15.846c1.664-1.31,3.439-2.574,4.774-4.237c0.029-0.038,0.095-0.059,0.246-0.148
			c-0.06,0.358-0.073,0.657-0.162,0.956c-0.737,2.367-1.428,4.865-2.383,7.228c-0.46,1.15-1.267,2.109-2.223,2.973
			c-6.498,5.55-12.504,11.67-17.929,18.267c-0.53,0.673-0.724,1.331-0.853,2.099c1.157-0.078,2.291-0.157,3.41-0.193
			c0.733-0.018,1.477,0.009,2.2,0.056c2.146,0.144,4.248,0.373,6.34,0.557c1.241,0.108,2.5,0.097,3.77,0.224
			c0.807,0.075,1.617,0.146,2.381,0.327c1.127,0.268,1.866,1.081,2.5,1.945c0.254,0.347,0.289,0.92,0.289,1.402
			c-0.031,2.22-0.032,4.519-0.278,6.743c-0.03,0.276-0.085,0.55-0.134,0.823c-0.013,0.073-0.052,0.143-0.095,0.259
			c-0.064-0.054-0.122-0.077-0.138-0.12c-0.603-1.565-1.874-2.311-3.484-2.491c-1.7-0.206-3.368-0.12-5.08-0.153
			c-0.674-0.01-1.339-0.09-2.014-0.13c-1.994-0.11-4.077-0.231-6.077-0.226c-0.209-0.001-0.427,0.046-0.694,0.187
			c0.128,0.106,0.251,0.218,0.385,0.316l6.084,4.454c0.779,0.574,1.318,1.348,1.454,2.391c0.316,2.417,0.531,4.777,0.604,7.229
			c0.004,0.223-0.037,0.449-0.1,0.691c-0.938-1.801-2.762-2.424-4.225-3.511l-0.247,0.119c0.077,0.182,0.205,0.353,0.225,0.548
			c0.205,2.048,0.437,4.038,0.732,6.071c0.125,0.955-0.113,1.86-0.651,2.746c-0.849,1.325-1.36,2.834-2.097,4.219
			c-2.632,5.345-5.018,10.828-6.799,16.52c-0.215,0.641-0.321,1.245-0.131,1.891c0.05,0.184,0.042,0.387,0.061,0.581l-0.103,0.047
			c-0.161-0.226-0.35-0.436-0.478-0.684c-1.05-2.051-1.87-4.177-2.484-6.514c-0.334-1.217-0.25-2.375,0.262-3.626
			c0.731-1.776,1.411-3.572,2.239-5.307c0.797-1.747,1.536-3.523,2.457-5.211c0.201-0.389,0.294-0.734,0.22-1.159
			c-0.244-1.49-0.521-3.055-0.65-4.568c-0.055-0.542-0.368-0.857-0.751-1.125c-0.581-0.407-1.21-0.543-1.988-0.445
			c-1.419,0.172-2.796,0.168-4.185,0.392c-1.451,0.232-2.916,0.63-4.391,0.979l-1.589,0.348c-1.433,0.343-2.823,0.762-4.214,1.154
			c-0.614,0.17-1.239,0.295-1.851,0.352c-0.671,0.063-1.047-0.377-1.215-1.1c-0.627-2.557-0.998-5.138-1.034-7.932
			c-0.003-0.239,0.019-0.486,0.037-0.732C16.753,78.186,16.786,78.109,16.813,78.013z"/>
		<path class="st1" d="M43.805,199.745c-0.661-0.24-1.217-0.078-1.796,0.204c-0.599,0.291-0.977,0.766-1.357,1.285l-1.932,2.612
			c-0.929,1.283-1.892,2.587-2.753,3.92c-0.792,1.229-1.538,2.507-2.266,3.809c-0.205,0.366-0.328,0.797-0.487,1.201l0.091,0.105
			c0.148-0.074,0.299-0.141,0.442-0.224l5.675-3.302c0.428-0.256,0.846-0.293,1.328-0.146c0.99,0.301,1.962,0.581,2.951,0.847
			c1.007,0.255,2.004,0.51,2.987,0.794c1.55,0.439,3.008,1.073,4.532,1.549c0.434,0.132,0.743,0.402,1.015,0.785
			c3.676,5.324,7.811,10.338,12.367,14.938l0.032,0.035c0.609,0.834,1.381,1.43,2.445,1.468c0.144,0.005,0.289,0.086,0.434,0.131
			l0.019,0.132c-0.28,0.047-0.557,0.132-0.842,0.134c-2.863,0.056-5.607-0.277-8.495-1.127c-0.395-0.114-0.797-0.391-1.073-0.71
			c-1.182-1.316-2.342-2.655-3.484-4.006c-0.243-0.315-0.501-0.512-0.868-0.642c-1.013-0.359-2.022-0.788-3.047-1.189
			c-0.215-0.084-0.526-0.226-0.655-0.142c-0.36,0.235-0.799,0.499-0.934,0.886c-0.472,1.361-0.653,2.854-0.85,4.354
			c-0.132,1.045-0.435,2.072-0.608,3.095c-0.086,0.506-0.165,1.017-0.223,1.536l-0.276,2.945c-0.087,1.004-0.189,2.01-0.241,3.036
			c-0.05,0.839-0.024,1.679-0.006,2.506c0.011,0.79-0.098,1.527-0.799,1.861c-0.241,0.114-0.587,0.11-0.897,0.065
			c-2.741-0.383-5.394-1.054-8.173-2.149c-0.334-0.135-0.658-0.361-0.988-0.545l0.023-0.168c0.278,0.016,0.559,0.045,0.832,0.044
			c0.375-0.001,0.6-0.168,0.621-0.576c0.072-1.398,0.246-2.819,0.358-4.213c0.09-1.053,0.112-2.125,0.228-3.156
			c0.095-0.841,0.267-1.651,0.422-2.461c0.321-1.424,0.64-2.842,0.962-4.271c0.148-0.682,0.151-1.425,0.308-2.097
			c0.213-0.917,0.37-1.901,0.826-2.637c0.375-0.606,1.025-1.147,1.908-1.035c1.086,0.137,2.178,0.259,3.239,0.538
			c2.1,0.558,4.149,1.191,6.274,1.654c0.108,0.023,0.215,0.045,0.404,0.084c-0.505-0.645-1.006-1.286-1.507-1.925l-1.408-1.984
			c-0.93-1.327-1.913-2.619-2.766-4.022l-0.505,0.331c-4.423,2.906-8.87,5.774-13.25,8.746c-0.789,0.536-1.561,0.578-2.522,0.246
			c-2.412-0.83-4.864-1.796-7.154-3.239c-0.43-0.263-0.852-0.578-1.255-0.918c-0.102-0.086-0.187-0.395-0.154-0.526
			c0.194-0.755,0.415-1.491,0.657-2.209c0.42-1.285,0.918-2.619,1.46-3.847c0.7-1.561,1.472-3.052,2.261-4.513
			c0.339-0.629,0.751-1.195,1.13-1.786c0.164-0.255,0.314-0.522,0.486-0.768c1.123-1.588,2.282-3.16,3.461-4.674
			c0.539-0.692,1.14-1.317,1.679-2.002c0.423-0.538,0.714-1.224,1.2-1.671c0.969-0.895,2.095-1.338,3.515-0.698
			c2.12,0.939,4.113,1.879,6.168,2.958c0.303,0.165,0.585,0.375,0.876,0.563L43.805,199.745z"/>
		<path class="st1" d="M62.654,35.11c-0.784,0.536-1.362,1.019-1.682,1.767c-0.307,0.718-0.739,1.411-1.111,2.111l-0.214-0.011
			c0.032-0.322,0.03-0.643,0.104-0.967c0.538-2.319,1.172-4.725,2.258-7.052c0.511-1.062,1.132-2.118,1.793-3.161
			c0.258-0.408,0.678-0.813,1.099-1.113c6.304-4.336,12.949-8.171,19.836-11.518c1.277-0.583,2.529-1.23,3.76-1.904
			c0.576-0.316,1.066-0.772,1.743-1.271c-0.156,0.406-0.23,0.71-0.387,0.998c-1.183,2.19-2.435,4.307-3.84,6.38
			c-0.442,0.689-0.959,1.312-1.667,1.818c-0.345,0.247-0.374,0.436-0.228,0.721c2.525,4.93,5.058,9.856,7.527,14.815
			c0.58,1.163,0.778,2.424,0.206,3.815c-0.83,1.941-1.491,4.011-2.426,5.913c-0.08,0.165-0.18,0.322-0.277,0.479
			c-0.03,0.049-0.084,0.086-0.166,0.166c-0.034-0.127-0.053-0.219-0.083-0.307c-0.285-0.828-0.441-1.729-0.868-2.477
			c-2.945-5.144-5.929-10.266-8.95-15.367c-0.323-0.545-0.378-1.067-0.15-1.696c0.364-1.005,0.757-2.014,1.174-3.027
			c0.069-0.168,0.238-0.322,0.362-0.483l-0.248-0.095l-0.513,0.294c-2.597,1.491-5.214,2.95-7.705,4.614
			c-2.552,1.57-4.975,3.329-7.411,5.069c-0.703,0.501-0.733,0.6-0.332,1.138l9.937,13.325c0.556,0.742,0.695,1.593,0.557,2.527
			c-0.342,2.271-0.809,4.46-1.437,6.623c-0.072,0.271-0.175,0.535-0.271,0.799c-0.025,0.068-0.082,0.125-0.188,0.283
			c-0.049-0.235-0.056-0.397-0.114-0.534c-0.191-0.457-0.31-0.984-0.612-1.35L61.264,43.389c-0.128-0.154-0.215-0.394-0.202-0.613
			c0.15-2.337,0.696-4.653,1.406-7.05C62.517,35.563,62.566,35.4,62.654,35.11z"/>
		<path class="st1" d="M31.458,110.155c-0.112-0.671-0.448-1.145-0.989-1.345c-0.667-0.245-1.365-0.439-2.073-0.526
			c-0.399-0.049-0.848,0.158-1.275,0.26c-2.168,0.51-4.169,1.364-6.242,2.345c-1.17,0.561-2.391,0.959-3.574,1.545
			c-0.95,0.459-1.791,1.121-2.693,1.646c-1.575,0.917-3.142,1.94-4.857,2.435c-1.028,0.297-2.124-0.15-2.616-1.226
			c-1.001-2.245-2.03-4.641-2.54-7.223c-0.06-0.28-0.086-0.58-0.147-1.004c0.277,0.077,0.478,0.1,0.654,0.187
			c0.905,0.446,1.863,0.016,2.793-0.354c2.118-0.833,4.038-2.135,6.13-3.243c0.801-0.436,1.647-0.672,2.465-1.007
			c1.456-0.597,2.893-1.241,4.341-1.719c1.369-0.452,2.825-0.628,4.204-1.066c1.321-0.412,2.306,0.146,3.2,0.841
			c0.555,0.434,0.993,1.163,1.262,1.877c0.799,2.153,1.676,4.367,2.52,6.464c0.466,1.086,0.928,2.165,1.398,3.26
			c0.616,1.559,1.237,3.13,1.858,4.701c0.151,0.367,0.158,0.777,0.294,1.258c-0.245-0.034-0.365-0.025-0.465-0.068
			c-0.848-0.367-1.693-0.178-2.533,0.075c-1.596,0.477-3.155,1.098-4.638,2.069c-0.599,0.392-1.328,0.523-1.997,0.789
			c-0.553,0.222-1.118,0.456-1.647,0.7c-1.456,0.68-2.914,1.361-4.367,2.039c-0.143,0.067-0.433-0.023-0.517-0.164
			c-0.681-1.137-1.363-2.295-1.966-3.53c-0.544-1.193-0.983-2.466-1.452-3.738c-0.086-0.233-0.119-0.501-0.186-0.795
			c1.501-0.658,2.943-1.27,4.407-1.862c1.039-0.409,2.061-0.907,3.104-1.196c1.404-0.39,2.626-1.356,3.989-1.749
			c1.065-0.303,2.1-0.579,3.191-0.785C30.794,109.989,31.105,110.109,31.458,110.155z"/>
		<path class="st1" d="M32.208,162.998c-0.617-0.545-1.276-0.266-1.913-0.181l-14.591,1.974c-0.545,0.077-0.978-0.089-1.392-0.5
			c-0.837-0.848-1.678-1.7-2.512-2.545c-0.745-0.722-1.459-1.416-2.157-2.131c-0.935,0.731-1.469,1.89-1.653,3.137
			c-0.228,1.402-0.444,2.863-0.252,4.394c0.156,1.524,0.496,3.019,0.795,4.514c0.337,1.489,0.65,2.978,1.178,4.413
			c0.527,1.453,1.359,2.574,2.306,3.567l1.934,1.962c0.179,0.173,0.324,0.403,0.484,0.606l-0.058,0.117
			c-0.307-0.167-0.627-0.304-0.921-0.512c-2.611-1.954-5.216-4.17-7.447-6.971c-1.148-1.478-2.356-3.003-2.953-5.037
			c-0.561-2.021-0.934-4.108-1.272-6.194c-0.308-1.747-0.396-3.553-0.339-5.304c0.087-2.054,0.453-4.023,1.585-5.547
			c0.257-0.358,0.581-0.65,0.911-0.879c0.116-0.08,0.383,0.049,0.509,0.194c0.835,0.948,1.591,1.921,2.476,2.845
			c0.85,0.912,1.708,1.796,2.574,2.649c0.113,0.111,0.303,0.146,0.451,0.134l14.943-1.177c0.7-0.058,1.305,0.072,1.851,0.583
			c1.634,1.568,3.336,3.12,4.865,4.827c0.195,0.219,0.369,0.46,0.543,0.697c0.051,0.07,0.071,0.166,0.105,0.25L32.208,162.998z"/>
		<path class="st1" d="M7.702,135.684c0.171,0.027,0.326,0.062,0.483,0.075l14.691,1.165c0.638,0.052,1.304,0.092,1.891,0.336
			c0.528,0.219,1.046,0.624,1.426,1.088c0.747,0.902,1.424,1.811,2.133,2.748c0.716,0.937,1.39,1.895,2.01,2.886
			c0.129,0.206,0.233,0.429,0.402,0.743c-0.208-0.032-0.336-0.011-0.413-0.07c-0.777-0.592-1.678-0.565-2.564-0.585l-18.714-0.415
			c-0.541-0.01-0.967-0.208-1.341-0.661c-0.965-1.172-1.9-2.428-2.73-3.769c-0.797-1.34-1.532-2.767-2.201-4.282
			c-0.324-0.733-0.438-1.508-0.361-2.416c0.274-2.507,0.64-5.007,0.952-7.51l1.278-7.466c0.211-1.011,0.139-2.078,0.192-3.125
			c0.011-0.204-0.008-0.407,0.087-0.679c0.158,0.239,0.347,0.45,0.469,0.719c0.575,1.257,1.114,2.505,1.65,3.784
			c0.561,1.284,1.077,2.591,1.512,3.949c0.393,1.197,0.364,2.458,0.188,3.755c-0.341,3.079-0.865,6.14-1.031,9.235
			C7.702,135.338,7.706,135.489,7.702,135.684z"/>
		<path class="st1" d="M13.356,183.851c4.418-1.215,8.806-2.421,13.195-3.628c1.742-0.479,3.495-0.924,5.222-1.451
			c0.982-0.299,1.91-0.125,2.787,0.377c1.002,0.575,1.98,1.167,2.925,1.79c0.97,0.616,1.947,1.251,2.862,1.939
			c0.178,0.132,0.335,0.295,0.579,0.512c-0.191,0.045-0.295,0.101-0.393,0.088c-0.826-0.111-1.607-0.006-2.398,0.264l-16.743,5.651
			c-0.575,0.194-0.575,0.195-0.339,0.894l0.951,2.781l1.076,2.735l1.08,2.733c0.365,0.909,0.799,1.789,1.198,2.683
			c0.474,1.037,0.777,2.215,1.773,2.895l-0.056,0.131c-0.35-0.105-0.71-0.167-1.049-0.328c-2.217-1.072-4.506-2.284-6.585-3.922
			c-0.592-0.473-1.021-1.079-1.326-1.857l-1.353-3.46l-1.194-3.518c-0.384-1.177-0.824-2.337-1.16-3.529l-1.019-3.573
			C13.375,184.008,13.372,183.952,13.356,183.851z"/>
		<path class="st1" d="M51.876,256.609c0.497-0.003,1.003,0.02,1.482-0.025c0.256-0.024,0.546-0.095,0.688-0.261l17.075-19.918
			c0.354-0.412,0.828-0.728,1.276-1.048c1.128-0.806,2.353-1.26,3.79-1.351c2.108-0.161,4.165-0.34,6.194-0.258
			c0.225,0.012,0.452,0.052,0.716,0.171c-0.119,0.061-0.233,0.135-0.358,0.182c-1.229,0.448-2.239,1.143-3.046,2.191l-8.855,11.403
			l-7.034,9.219c-0.163,0.214-0.22,0.547-0.443,0.672c-0.329,0.184-0.741,0.305-1.16,0.32c-3.037,0.105-6.241-0.094-9.432-0.857
			c-0.228-0.051-0.458-0.135-0.688-0.21c-0.062-0.02-0.122-0.062-0.183-0.094L51.876,256.609z"/>
		<path class="st1" d="M70.264,234.071c-0.372,0.042-0.749,0.155-1.119,0.109c-1.429-0.176-2.303,0.355-3.2,1.348
			c-5.005,5.538-10.081,11.007-15.147,16.487c-1.277,1.383-2.961,2.105-5.235,1.852c-1.487-0.168-3.003-0.372-4.522-0.672
			c-1.492-0.327-3.005-0.735-4.539-1.255c-0.412-0.14-0.825-0.336-1.239-0.509l-0.016-0.222c0.581,0.079,1.156,0.125,1.738,0.235
			c0.84,0.16,1.659,0.263,2.293-0.096c0.693-0.392,1.43-0.751,1.99-1.29l16.705-16.193c0.187-0.182,0.318-0.421,0.507-0.601
			c0.108-0.103,0.268-0.181,0.421-0.199c2.048-0.229,4.181-0.113,6.288,0.042c1.417,0.103,2.792,0.34,4.194,0.483
			c0.305,0.028,0.606,0.173,0.908,0.264L70.264,234.071z"/>
		<path class="st1" d="M64.956,68.021c-0.039-0.333-0.077-0.668-0.116-0.998c-0.03-0.205-0.041-0.443-0.15-0.598
			c-0.336-0.475-0.671-0.964-1.082-1.368l-9.541-9.316c-0.042-0.041-0.075-0.099-0.127-0.121c-0.883-0.372-0.879-1.215-0.765-2.126
			c0.056-0.422,0.085-0.859,0.148-1.271l-0.138-0.039c-1.587,1.654-3.183,3.3-4.841,5.097c-0.047-0.416-0.115-0.694-0.096-0.972
			c0.143-2.448,0.446-4.957,1.107-7.537c0.135-0.496,0.394-0.89,0.802-1.278c1.878-1.738,3.667-3.572,5.637-5.21
			c0.185-0.16,0.369-0.32,0.718-0.622c-0.006,0.472,0.041,0.802-0.021,1.138c-0.215,1.195-0.496,2.36-0.657,3.554
			c-0.031,0.242,0.078,0.521,0.226,0.684l7.842,8.564c0.258,0.281,0.538,0.543,0.768,0.846c0.387,0.509,0.81,1.004,1.092,1.579
			c0.22,0.45,0.366,1.002,0.347,1.52c-0.076,2.566-0.38,4.991-0.767,7.523c-0.046,0.271-0.132,0.536-0.204,0.802
			c-0.014,0.052-0.052,0.099-0.079,0.148L64.956,68.021z"/>
		<path class="st1" d="M2.143,145.078c0.318,0.39,0.657,0.751,0.948,1.17c0.234,0.338,0.482,0.478,0.835,0.477l18.877,0.028
			c0.904,0.005,1.835,0.089,2.69,0.59c0.234,0.138,0.468,0.303,0.66,0.504c1.663,1.73,3.211,3.476,4.601,5.372
			c0.137,0.177,0.239,0.386,0.358,0.579l-0.063,0.111c-0.247-0.075-0.491-0.19-0.741-0.218c-0.754-0.086-1.516-0.232-2.264-0.195
			l-18.799,1.029c-0.499,0.03-0.886-0.119-1.262-0.507c-2.029-2.211-3.946-4.719-5.527-7.637c-0.182-0.357-0.309-0.767-0.461-1.155
			L2.143,145.078z"/>
		<path class="st1" d="M10.585,172.456c1.406,0.529,2.661-0.073,3.945-0.302l12.819-2.395c0.808-0.147,1.652-0.194,2.47-0.121
			c0.483,0.043,0.989,0.345,1.413,0.647c1.946,1.352,3.899,2.729,5.608,4.306c0.171,0.157,0.317,0.345,0.474,0.518l-0.058,0.106
			c-0.143-0.042-0.285-0.109-0.43-0.123c-0.483-0.045-0.996-0.197-1.451-0.091l-16.667,3.954c-0.698,0.164-1.392-0.14-2.014-0.604
			c-1.953-1.489-3.999-3.143-5.637-5.187c-0.11-0.133-0.214-0.276-0.314-0.423C10.683,172.653,10.637,172.551,10.585,172.456z"/>
		<path class="st1" d="M23.579,210.584c-0.273-0.079-0.553-0.123-0.821-0.244c-1.136-0.513-2.277-1.057-3.408-1.675
			c-1.097-0.635-2.17-1.35-3.223-2.178c-0.903-0.712-1.718-1.655-2.559-2.534c-0.205-0.207-0.352-0.519-0.463-0.81
			c-2.686-6.455-4.862-13.107-6.692-19.853c-0.173-0.73-0.549-1.411-0.839-2.113c-0.11-0.267-0.241-0.523-0.307-0.905
			c0.267,0.164,0.548,0.29,0.797,0.494c1.965,1.655,4.021,3.285,5.898,5.195c0.877,0.88,1.464,2.016,1.886,3.245
			c2.082,6.456,4.619,12.758,7.568,18.86c0.311,0.599,0.92,1.048,1.398,1.552c0.267,0.282,0.551,0.541,0.827,0.809L23.579,210.584z"
			/>
		<path class="st1" d="M9.748,122.831c0.127,0.155,0.275,0.289,0.378,0.467c0.303,0.527,0.743,0.754,1.245,0.836l13.96,2.286
			c1.084,0.173,1.92,0.656,2.54,1.677c1.178,1.856,2.404,3.665,3.367,5.591c0.107,0.213,0.18,0.445,0.267,0.662
			c-2.716-0.755-5.506-0.772-8.242-1.113c-2.636-0.335-5.289-0.547-7.928-0.858c-0.671-0.079-1.267-0.43-1.694-1.108
			c-0.726-1.152-1.436-2.336-2.096-3.581c-0.33-0.622-0.647-1.26-0.946-1.917c-0.273-0.653-0.525-1.324-0.755-2.017
			c-0.087-0.262-0.144-0.542-0.215-0.815L9.748,122.831z"/>
		<path class="st2" d="M97.414,20.999c-0.044-0.111-0.077-0.149-0.072-0.188c0.028-0.222,0.191-0.547,0.076-0.648
			c-0.239-0.211-0.601-0.348-0.956-0.437c-0.995-0.245-2.017-0.491-3.055-0.653c-0.622-0.086-1.288-0.069-1.94-0.092
			c-0.794-0.028-1.244-0.502-0.927-1.183c0.583-1.222,1.191-2.517,1.974-3.665c0.83-1.257,1.815-2.48,2.779-3.721
			c0.193-0.248,0.457-0.47,0.689-0.704l0.133,0.03c-0.022,0.108-0.029,0.218-0.068,0.325c-0.204,0.562-0.04,0.806,0.618,0.881
			c1.028,0.102,2.095,0.215,3.102,0.431c0.972,0.206,1.895,0.498,2.804,0.79c0.491,0.158,0.626,0.505,0.357,0.956
			c-0.449,0.752-0.841,1.523-1.362,2.237c-1.218,1.623-2.414,3.332-3.563,5.014C97.859,20.585,97.637,20.765,97.414,20.999z"/>
		<path class="st1" d="M25.378,87.84c1.482-0.238,2.898-0.444,4.304-0.638l1.657-0.238c0.413-0.057,0.715,0.099,0.824,0.527
			c0.287,1.128,0.619,2.229,0.837,3.361c0.259,1.407,0.521,2.834,0.783,4.26c0.093,0.527,0.072,1.089,0.105,1.631l-0.163,0.073
			c-0.161-0.334-0.322-0.667-0.503-1.042c-0.66,0.107-1.348,0.219-2.038,0.331c-1.188,0.236-2.38,0.473-3.564,0.708
			c-0.158,0.032-0.425-0.091-0.476-0.238c-0.438-1.237-0.786-2.454-1.081-3.751c-0.287-1.306-0.465-2.676-0.666-4.047
			C25.361,88.516,25.37,88.225,25.378,87.84z"/>
		<path class="st2" d="M100.016,30.383c0.18-0.444,0.361-0.888,0.556-1.369c-0.328-0.171-0.666-0.347-1.007-0.525
			c-1.149-0.551-2.209-1.329-3.572-1.517c-0.567-0.085-0.748-0.446-0.496-0.957c0.862-1.795,1.848-3.449,2.894-5.183
			c0.508-0.826,1.159-1.61,1.774-2.411c0.163-0.215,0.381-0.403,0.581-0.588l0.133,0.038c-0.081,0.223-0.119,0.46-0.251,0.666
			c-0.237,0.388-0.024,0.526,0.298,0.644c0.634,0.247,1.281,0.474,1.877,0.761c0.669,0.323,1.287,0.707,1.923,1.062
			c0.275,0.154,0.571,0.284,0.832,0.45c0.35,0.222,0.412,0.538,0.189,0.91c-0.654,1.092-1.238,2.201-1.93,3.249
			c-0.78,1.187-1.595,2.42-2.419,3.585c-0.325,0.466-0.786,0.862-1.181,1.288L100.016,30.383z"/>
		<path class="st2" d="M104.198,38.5c-0.037-0.119-0.058-0.149-0.052-0.175c0.315-1.437-0.062-1.207-1.061-1.657
			c-1.075-0.481-2.055-1.092-2.941-1.806c-0.337-0.269-0.524-0.618-0.334-1.067c0.692-1.519,1.379-3.061,2.227-4.571
			c0.664-1.159,1.49-2.326,2.321-3.394c0.152-0.202,0.361-0.376,0.544-0.564l0.173,0.054c-0.16,0.37-0.278,0.755-0.484,1.104
			c-0.24,0.407-0.18,0.688,0.158,0.985c1.005,0.885,2.172,1.554,3.42,2.108c0.545,0.242,0.746,0.619,0.594,1.182
			c-0.091,0.337-0.196,0.68-0.362,0.992c-0.576,1.088-1.173,2.149-1.803,3.182c-0.613,1.078-1.261,2.126-1.961,3.134
			C104.527,38.169,104.375,38.304,104.198,38.5z"/>
		<path class="st1" d="M74.017,33.364c1.467,0.525,2.848,1.044,4.214,1.568c0.916,0.352,1.146,0.69,0.867,1.646
			c-0.371,1.273-0.76,2.53-1.198,3.763c-0.446,1.223-0.928,2.444-1.458,3.688c-0.097,0.22-0.233,0.428-0.392,0.716
			c-0.052-0.122-0.099-0.171-0.089-0.215c0.165-0.69-0.236-0.93-0.804-1.116c-1.25-0.412-2.499-0.85-3.746-1.304
			c-0.174-0.063-0.338-0.365-0.3-0.553c0.227-1.112,0.465-2.238,0.836-3.357c0.462-1.428,1.07-2.833,1.698-4.199
			C73.747,33.774,73.903,33.557,74.017,33.364z"/>
		<path class="st1" d="M57.652,230.837c-0.147,0.021-0.316,0.006-0.437,0.07c-0.159,0.084-0.368,0.198-0.404,0.353
			c-0.17,0.727-0.302,1.473-0.406,2.229c-0.051,0.376-0.028,0.775-0.027,1.167c0.001,0.354-0.142,0.566-0.515,0.529
			c-1.302-0.129-2.618-0.234-3.948-0.456c-1.305-0.205-2.538-0.605-3.829-0.945c-0.252-0.069-0.501-0.198-0.692-0.276
			c0.072-0.681,0.121-1.327,0.225-1.952c0.121-0.733,0.249-1.466,0.473-2.147c0.072-0.219,0.417-0.354,0.681-0.417
			c0.273-0.065,0.596-0.025,0.898,0.018c2.364,0.328,4.638,0.763,6.934,1.347c0.283,0.068,0.563,0.164,0.842,0.254
			c0.071,0.023,0.137,0.078,0.204,0.118L57.652,230.837z"/>
	</g>
</g>
</svg>
