<?xml version="1.0" encoding="utf-8"?>
<!-- Generator: Adobe Illustrator 17.0.0, SVG Export Plug-In . SVG Version: 6.00 Build 0)  -->
<!DOCTYPE svg PUBLIC "-//W3C//DTD SVG 1.1//EN" "http://www.w3.org/Graphics/SVG/1.1/DTD/svg11.dtd">
<svg version="1.1" id="Capa_1" xmlns="http://www.w3.org/2000/svg" xmlns:xlink="http://www.w3.org/1999/xlink" x="0px" y="0px"
	 width="236.986px" height="189.498px" viewBox="77.135 23.968 236.986 189.498"
	 style="enable-background:new 77.135 23.968 236.986 189.498;" xml:space="preserve">
<style type="text/css">
	.st0{fill:#CE9549;}
	.st1{fill:#EAC765;}
</style>
<g>
	<g>
		<path class="st0" d="M118.933,150.662l-33.612-34.905l30.624-30.624l24.522,23.852l-6.747,6.166l-17.045-16.425L99.23,116.188
			l19.073,19.074l40.724-40.741l8.701,8.701L118.933,150.662z M86.417,115.768l32.535,33.786l47.664-46.34l-7.588-7.588
			l-40.724,40.741l-20.179-20.179l18.539-18.558l17.069,16.449l5.595-5.113l-23.375-22.735L86.417,115.768z"/>
	</g>
	<g>
		<path class="st0" d="M179.53,90.309l-8.009-7.763l50.333-49.931l0.275,0.274l34.283,34.162l-22.836,22.591l-7.805-7.805
			l14.986-15.025l-18.411-18.411L179.53,90.309z M172.637,82.54l6.89,6.677l42.824-41.915l19.511,19.51l-14.986,15.025l6.703,6.703
			l21.723-21.491l-33.45-33.332L172.637,82.54z"/>
	</g>
	<g>
		<path class="st0" d="M185.191,116.061l-0.285-0.283l-50.759-50.55l34.521-34.383l25.471,25.106l-7.82,8.29L168.57,46.909
			l-18.53,18.323l42.397,43.135L185.191,116.061z M135.255,65.228l49.917,49.713l6.18-6.562l-42.417-43.155l19.63-19.411
			l17.729,17.313l6.75-7.155l-24.375-24.024L135.255,65.228z"/>
	</g>
	<g>
		<path class="st0" d="M236.154,113.205l-37.819-37.704l8.168-7.862l37.535,37.787L236.154,113.205z M199.453,75.511l36.704,36.593
			l6.774-6.684l-36.44-36.684L199.453,75.511z"/>
	</g>
	<g>
		<path class="st0" d="M179.347,141.833l-7.818-8.257l39.947-38.743l8.357,8.357l-0.289,0.276L179.347,141.833z M172.628,133.598
			l6.747,7.128l39.339-37.551l-7.246-7.245L172.628,133.598z"/>
	</g>
	<g>
		<path class="st0" d="M222.587,205.926l-27.498-27.003l7.59-8.546L222.58,189.8l18.537-18.885l-42.095-42.816l6.568-7.011
			l0.286,0.282l51.253,50.619L222.587,205.926z M196.167,178.886l26.42,25.943l33.428-32.842l-50.403-49.779l-5.505,5.877
			l42.107,42.829l-19.621,19.989l-19.874-19.396L196.167,178.886z"/>
	</g>
	<g>
		<path class="st0" d="M183.912,166.539l-0.279-0.281l-37.716-38.033l7.751-7.582l38.194,37.794L183.912,166.539z M147.026,128.234
			l36.883,37.192l6.849-6.982l-37.094-36.705L147.026,128.234z"/>
	</g>
	<g>
		<path class="st0" d="M166.496,201.278l-0.273-0.276l-31.717-31.917l23.606-23.481l6.597,6.349l-17.004,16.575l19.062,18.41
			l43.698-43.016l6.99,7.363L166.496,201.278z M135.611,169.088l30.893,31.087l49.854-48.91l-5.912-6.227L166.77,188.03
			l-20.189-19.498l17.003-16.575l-5.464-5.259L135.611,169.088z"/>
	</g>
	<g>
		<path class="st0" d="M273.995,151.6l-25.55-25.129l8.309-9.073l17.407,16.887l17.348-17.779l-18.612-18.68l-43.679,43.277
			l-7.756-8.353l50.453-50.873l34.567,34.89L273.995,151.6z M249.53,126.443l24.44,24.037l31.428-33.695l-33.483-33.797
			l-49.369,49.781l6.695,7.211L272.9,96.722l19.707,19.778l-18.43,18.889l-17.389-16.87L249.53,126.443z"/>
	</g>
	<g>
		<g>
			<path class="st1" d="M119.072,157.286l-40.395-41.474l37.094-37.094l26.805,26.185l14.442-14.235l14.314,14.674L119.072,157.286z
				 M81.971,115.833l37.128,38.12l48.93-48.637l-11.045-11.323l-38.687,38.131l-15.808-15.808l14.231-14.053l14.425,13.807
				l9.638-9.638L115.79,82.015L81.971,115.833z M105.817,116.327l12.493,12.493l11.215-11.055l-12.778-12.232L105.817,116.327z"/>
		</g>
		<g>
			<path class="st1" d="M274.014,156.715l-27.677-26.706l-14.457,14.555l-14.321-14.68l54.276-54.276l40.875,40.874L274.014,156.715
				z M248.458,128.797l25.493,24.598l35.475-36.881l-37.591-37.59l-50.98,50.979l11.039,11.317l40.531-40.807l15.809,15.809
				l-14.629,14.735l-14.076-13.475L248.458,128.797z M260.797,115.449l12.767,12.221l11.36-11.442l-12.492-12.493L260.797,115.449z"
				/>
		</g>
		<g>
			<path class="st1" d="M182.858,119.609l-54.586-54.586l40.044-40.045l29.248,28.466l-13.931,13.932l-15.164-14.428l-12.445,12.444
				l40.115,41.208L182.858,119.609z M131.588,65.023l51.286,51.286l9.952-9.748L152.728,65.37l15.699-15.698L183.591,64.1
				l10.633-10.633l-25.885-25.195L131.588,65.023z"/>
		</g>
		<g>
			<path class="st1" d="M222.714,211.907l-31.647-30.993l13.936-13.934l17.569,16.949l12.437-12.437l-39.686-40.64l12.819-13.612
				l54.619,54.619L222.714,211.907z M194.402,180.898l28.296,27.71l36.748-36.748l-51.252-51.252l-9.62,10.216l39.734,40.689
				l-15.705,15.705l-17.569-16.949L194.402,180.898z"/>
		</g>
		<g>
			<path class="st1" d="M166.418,208.502l-38.938-39.099l28.214-28.215l12.904,12.904l-14.234,14.234l12.42,12.42l41.107-40.389
				l13.108,13.564L166.418,208.502z M130.793,169.406l35.628,35.777l51.29-51.29l-9.862-10.206l-41.079,40.362l-15.722-15.722
				l14.234-14.234l-9.587-9.587L130.793,169.406z"/>
		</g>
		<g>
			<path class="st1" d="M182.061,93.863l-14-13.593l53.975-53.974l40.637,40.638l-26.434,26.379l-13.942-13.941l12.372-12.321
				l-12.42-12.421L182.061,93.863z M171.401,80.246l10.655,10.343l40.211-39.257l15.722,15.722l-12.372,12.32l10.623,10.623
				l23.115-23.065l-37.319-37.32L171.401,80.246z"/>
		</g>
		<g>
			<path class="st1" d="M233.593,117.168l-38.172-38.917l13.476-13.866l38.719,38.728L233.593,117.168z M198.699,78.243
				l34.908,35.59l10.694-10.719L208.92,67.726L198.699,78.243z"/>
		</g>
		<g>
			<path class="st1" d="M180.974,169.785l-38.896-38.896l14.443-14.108l38.729,38.73L180.974,169.785z M145.414,130.909l35.56,35.56
				l10.959-10.958l-35.432-35.431L145.414,130.909z"/>
		</g>
		<g>
			<path class="st1" d="M182.156,144.906l-14.166-13.722l42.403-40.616l13.68,14.278L182.156,144.906z M171.37,131.193
				l10.797,10.458l38.588-36.879l-10.434-10.888L171.37,131.193z"/>
		</g>
	</g>
	<g>
		<polygon class="st0" points="179.814,85.548 176.013,81.61 222.68,36.573 252.42,66.425 234.095,84.968 230.203,81.122 
			244.711,66.44 222.606,44.251 		"/>
	</g>
	<g>
		
			<rect x="198.328" y="88.15" transform="matrix(-0.7061 -0.7082 0.7082 -0.7061 313.6689 311.9705)" class="st0" width="46.507" height="5.472"/>
	</g>
	<g>
		<polygon class="st0" points="184.165,111.929 138.467,65.177 168.907,35.633 189.217,55.691 185.372,59.585 168.874,43.291 
			146.219,65.279 188.079,108.104 		"/>
	</g>
	<g>
		
			<rect x="193.093" y="93.512" transform="matrix(-0.6909 -0.723 0.723 -0.6909 245.926 340.8359)" class="st0" width="5.472" height="48.66"/>
	</g>
	<g>
		<polygon class="st0" points="222.886,202.248 199.853,179.191 203.725,175.324 222.845,194.464 245.214,171.594 203.007,129.011 
			206.893,125.158 252.895,171.568 		"/>
	</g>
	<g>
		<polygon class="st0" points="274.156,146.576 253.954,127.032 257.759,123.099 273.986,138.798 294.876,116.751 272.647,93.65 
			229.863,135.618 226.03,131.711 272.759,85.875 302.442,116.722 		"/>
	</g>
	<g>
		
			<rect x="146.019" y="140.438" transform="matrix(-0.7067 -0.7075 0.7075 -0.7067 186.7327 363.7588)" class="st0" width="45.49" height="5.473"/>
	</g>
	<g>
		<polygon class="st0" points="118.666,146.829 88.221,115.415 116.766,88.437 136.965,108.054 133.152,111.979 116.714,96.015 
			96.007,115.586 118.724,139.025 158.582,99.093 162.456,102.959 		"/>
	</g>
	<g>
		<polygon class="st0" points="166.736,197.933 137.188,169.176 157.01,149.117 160.902,152.963 144.957,169.099 166.727,190.288 
			209.812,148.152 213.638,152.064 		"/>
	</g>
</g>
</svg>
