<?xml version="1.0" encoding="utf-8"?>
<!-- Generator: Adobe Illustrator 17.0.0, SVG Export Plug-In . SVG Version: 6.00 Build 0)  -->
<!DOCTYPE svg PUBLIC "-//W3C//DTD SVG 1.1//EN" "http://www.w3.org/Graphics/SVG/1.1/DTD/svg11.dtd">
<svg version="1.1" id="Capa_1" xmlns="http://www.w3.org/2000/svg" xmlns:xlink="http://www.w3.org/1999/xlink" x="0px" y="0px"
	 width="300px" height="300px" viewBox="0 0 300 300" style="enable-background:new 0 0 300 300;" xml:space="preserve">
<style type="text/css">
	.st0{fill:#AA7439;}
	.st1{fill:#EAC765;}
	.st2{fill:#D8D8D8;}
</style>
<g>
	<g>
		<g>
			<path class="st0" d="M133.876,28.862c0.116-0.351,0.154-0.68-0.135-0.977l-1.425-1.495l-1.309-1.325l-1.334-1.253
				c-0.443-0.407-0.935-0.76-1.379-1.174c-0.342-0.319-0.339-0.398-0.083-0.79c0.79-1.188,1.651-2.41,2.696-3.377
				c0.075-0.071,0.154-0.148,0.247-0.186c0.059-0.025,0.172-0.01,0.218,0.033l1.238,1.216l1.981,1.896l1.473,1.496
				c0.125,0.131,0.25,0.261,0.432,0.451c-0.041-0.421-0.155-0.727-0.362-0.977c-0.521-0.627-1.071-1.234-1.611-1.855
				c-0.178-0.205-0.318-0.445-0.503-0.644c-0.624-0.669-1.256-1.339-1.921-1.982c-0.549-0.53-1.149-1.013-1.713-1.538
				c-0.338-0.313-0.626-0.689-0.954-1.008c-0.29-0.279-0.62-0.52-0.907-0.805c-0.302-0.3-0.616-0.605-0.846-0.958
				c-0.217-0.332-0.139-0.708,0.11-1.051c0.87-1.222,1.809-2.344,2.931-3.338c0.096-0.085,0.203-0.16,0.309-0.236
				c0.03-0.021,0.071-0.027,0.115-0.044c-0.001,0.741,0.507,1.18,1.001,1.635c0.411,0.379,0.777,0.799,1.18,1.181
				c0.664,0.629,1.35,1.23,1.99,1.866c0.817,0.799,1.617,1.649,2.377,2.536c0.662,0.766,1.294,1.552,1.883,2.36
				c0.474,0.651,0.579,1.392,0.334,2.172c-0.068,0.217-0.132,0.439-0.162,0.664c-0.096,0.715-0.47,1.285-0.897,1.793l-1.613,1.916
				l-1.583,1.968c-0.449,0.56-0.937,1.077-1.404,1.605c-0.092,0.104-0.21,0.181-0.315,0.271L133.876,28.862z"/>
			<path class="st0" d="M93.238,41.812c-0.009-0.063-0.023-0.125-0.026-0.188c-0.018-0.324-0.172-0.542-0.463-0.686l-2.184-1.082
				c-1.297-0.604-2.563-1.243-3.954-1.639c-0.353-0.099-0.683-0.306-1.014-0.484c-0.069-0.037-0.141-0.184-0.124-0.257
				c0.169-0.734,0.335-1.475,0.565-2.201c0.234-0.73,0.525-1.458,0.815-2.168c0.043-0.103,0.097-0.212,0.177-0.286
				c0.049-0.046,0.171-0.065,0.235-0.038l1.587,0.714l2.514,1.107l1.873,0.892l0.49,0.243l0.064-0.065
				c-0.158-0.183-0.292-0.406-0.482-0.542c-0.439-0.315-0.901-0.598-1.37-0.872c-0.547-0.32-1.105-0.626-1.674-0.916
				c-0.808-0.412-1.627-0.817-2.465-1.191c-0.663-0.296-1.357-0.532-2.031-0.823c-0.492-0.208-0.955-0.46-1.44-0.683l-0.809-0.331
				c-0.389-0.175-0.775-0.359-1.159-0.548c-0.366-0.18-0.577-0.544-0.475-0.943c0.186-0.729,0.395-1.459,0.653-2.177
				c0.265-0.767,0.628-1.457,0.963-2.185c0.069-0.148,0.177-0.28,0.291-0.456c0.27,0.741,0.906,0.983,1.537,1.241
				c0.51,0.208,0.988,0.478,1.49,0.696c0.841,0.364,1.692,0.696,2.513,1.075c1.049,0.485,2.074,0.974,3.099,1.55
				c0.819,0.453,1.598,0.966,2.398,1.433c0.637,0.372,0.991,0.947,1.202,1.614c0.095,0.301,0.056,0.641,0.115,0.957
				c0.156,0.848-0.003,1.644-0.291,2.4c-0.658,1.661-1.232,3.447-1.814,5.132c-0.157,0.467-0.357,0.915-0.541,1.365
				c-0.054,0.131-0.135,0.247-0.203,0.37L93.238,41.812z"/>
			<path class="st0" d="M100.007,38.22c0.102-0.829-0.368-1.483-0.676-2.178c-1.432-3.245-2.855-6.494-4.353-9.708
				c-0.277-0.593-0.283-1.081-0.058-1.632c0.22-0.54,0.48-1.067,0.747-1.644c-0.453-0.202-0.797-0.355-1.143-0.509l-1.625-0.659
				c-0.248-0.1-0.335-0.297-0.248-0.535c0.24-0.654,0.47-1.319,0.776-1.955c0.393-0.814,0.848-1.62,1.32-2.378
				c0.091-0.15,0.238-0.272,0.39-0.44c0.136,0.58,0.637,0.639,1.031,0.811c0.492,0.216,1,0.396,1.486,0.614
				c0.526,0.237,1.027,0.519,1.551,0.749l2.87,1.234c1.021,0.435,2.062,0.924,3.071,1.392c0.214,0.101,0.42,0.217,0.634,0.328
				c-0.03,0.366-0.548,1.432-1.112,2.457c-0.57,1.012-1.15,2.077-1.431,2.304c-0.209-0.145-0.386-0.305-0.592-0.404
				c-0.714-0.345-1.441-0.672-2.178-0.991c-0.57-0.246-1.151-0.473-1.734-0.704c-0.051-0.02-0.11-0.021-0.233-0.042
				c0.067,0.163,0.116,0.282,0.165,0.402l3.214,7.787c0.225,0.533,0.222,1.016,0.049,1.499c-0.478,1.285-0.958,2.638-1.601,3.845
				c-0.07,0.134-0.158,0.255-0.238,0.382L100.007,38.22z"/>
			<path class="st0" d="M75.309,53.137c-0.036-0.037-0.057-0.048-0.061-0.063c-0.188-0.737-0.645-1.321-1.099-1.91l-5.321-6.913
				c-0.252-0.323-0.312-0.629-0.26-1.001c0.114-0.778,0.213-1.589,0.35-2.351c0.03-0.183,0.106-0.426,0.022-0.547
				c-0.197-0.281-0.437-0.584-0.738-0.734c-0.567-0.284-1.195-0.314-1.834-0.189c-1.417,0.26-2.626,0.98-3.757,1.865
				c-0.378,0.296-0.744,0.608-1.134,0.887c-0.809,0.586-1.446,1.346-2.059,2.12c-0.47,0.605-0.631,1.302-0.739,2.019
				c-0.062,0.41-0.18,0.813-0.278,1.216c-0.019,0.078-0.07,0.148-0.106,0.222l-0.076-0.004c-0.027-0.442-0.093-0.887-0.067-1.331
				c0.096-1.654,0.345-3.314,0.817-4.97c0.352-1.312,1.077-2.388,2.053-3.336c0.515-0.493,1.075-0.944,1.638-1.383
				c0.733-0.555,1.426-1.177,2.236-1.611c0.775-0.436,1.586-0.798,2.488-0.928c0.684-0.099,1.323-0.106,1.931,0.128
				c0.257,0.099,0.474,0.302,0.687,0.483c0.157,0.134,0.292,0.299,0.412,0.468c0.058,0.082,0.098,0.211,0.081,0.31
				c-0.181,1.053-0.372,2.097-0.529,3.137c-0.023,0.152,0.009,0.35,0.095,0.471l5.417,7.511c0.531,0.73,0.762,1.491,0.631,2.372
				L75.824,50.9c-0.092,0.619-0.202,1.231-0.348,1.83c-0.026,0.106-0.063,0.208-0.1,0.31C75.365,53.072,75.338,53.097,75.309,53.137
				z"/>
			<path class="st0" d="M137.291,14.776c0.034-0.083,0.059-0.171,0.105-0.247c1.276-2.11,2.967-3.94,5.029-5.496
				c1.055-0.808,2.26-1.34,3.559-1.7c0.807-0.215,1.666-0.279,2.508-0.369c0.507-0.055,1.025,0,1.532-0.051
				c0.783-0.076,1.421,0.312,2.078,0.603c0.448,0.204,0.886,0.429,1.311,0.667c0.783,0.438,1.406,1.002,1.664,1.858
				c0.073,0.243,0.222,0.465,0.301,0.707c0.032,0.097,0.015,0.263-0.052,0.327l-1.727,1.609c-0.372,0.352-0.738,0.709-1.09,1.076
				c-0.057,0.059-0.068,0.175-0.071,0.266l-0.14,5.2c-0.04,1.221-0.066,2.445-0.18,3.659c-0.05,0.533-0.236,1.082-0.614,1.487
				c-0.949,0.994-1.922,2.017-2.989,2.895c-0.103,0.084-0.219,0.15-0.329,0.223l-0.069-0.041c0.076-0.275,0.163-0.548,0.225-0.828
				c0.046-0.211,0.082-0.43,0.083-0.645l0.053-8.944c0.003-0.228,0.202-0.491,0.376-0.675c0.689-0.718,1.411-1.456,2.146-2.105
				c0.159-0.144,0.204-0.27,0.106-0.464c-0.233-0.458-0.372-0.956-0.76-1.349c-0.396-0.385-0.84-0.687-1.347-0.913l-1.645-0.707
				c-0.374-0.158-0.758-0.252-1.18-0.245c-1.228,0.035-2.464,0.018-3.652,0.361c-0.981,0.279-1.887,0.672-2.586,1.46
				c-0.693,0.782-1.49,1.466-2.23,2.187c-0.1,0.098-0.23,0.167-0.346,0.249L137.291,14.776z"/>
			<path class="st0" d="M49.082,62.106c-0.052-0.231-0.109-0.394-0.122-0.56c-0.106-1.419-0.176-2.892,0.032-4.304
				c0.066-0.497,0.337-0.855,0.691-1.179c0.181-0.166,0.375-0.319,0.544-0.496c2.237-2.437,4.672-4.675,7.06-6.96
				c0.188-0.187,0.394-0.355,0.595-0.529c0.133-0.113,0.271-0.151,0.416-0.03c0.102,0.085,0.216,0.159,0.304,0.257l2.157,2.407
				c0.52,0.595,1.012,1.213,1.521,1.817l1.956,2.313c0.415,0.506,0.859,1.008,1.167,1.572c0.238,0.435,0.373,0.955,0.398,1.444
				c0.07,1.424,0.009,2.823-0.178,4.183c-0.017,0.128-0.067,0.248-0.102,0.371l-0.077,0.004c-0.063-0.169-0.106-0.347-0.192-0.505
				c-0.192-0.352-0.357-0.735-0.617-1.034c-0.838-0.964-1.716-1.893-2.574-2.84L60.6,56.391l-2.471-2.718
				c-0.44-0.479-0.477-0.474-0.947-0.028c-1.83,1.669-3.513,3.485-5.225,5.272c-0.613,0.648-1.246,1.279-1.816,1.966
				C49.803,61.274,49.464,61.665,49.082,62.106z"/>
			<path class="st0" d="M121.705,30.311c0.017-0.428,0.068-0.812,0.041-1.193c-0.034-0.462-0.105-0.929-0.21-1.382l-2.813-12.066
				c-0.024-0.104-0.018-0.232,0.023-0.331c0.389-0.935,0.972-1.772,1.598-2.59c0.486-0.63,1.009-1.259,1.532-1.858
				c0.168-0.19,0.377-0.287,0.647-0.333l5.894-1.051c0.157-0.032,0.308-0.134,0.452-0.213c0.125-0.07,0.234-0.165,0.351-0.25
				l0.092,0.057c-0.094,0.176-0.164,0.369-0.285,0.526c-0.939,1.238-1.903,2.488-2.999,3.588c-0.287,0.29-0.604,0.472-1.024,0.53
				c-0.717,0.1-1.427,0.254-2.142,0.371c-0.216,0.036-0.278,0.113-0.235,0.324l1.962,9.698c0.181,0.914,0.116,1.783-0.401,2.619
				c-0.699,1.119-1.37,2.236-2.173,3.231C121.924,30.099,121.818,30.194,121.705,30.311z"/>
			<path class="st0" d="M72.884,30.036c-0.059,0.384-0.13,0.767-0.167,1.151c-0.014,0.141,0.007,0.311,0.08,0.424l7.531,11.527
				c0.469,0.712,0.657,1.418,0.461,2.213c-0.296,1.151-0.532,2.341-0.762,3.53c-0.042,0.21-0.142,0.403-0.277,0.591
				c-0.037-0.176-0.045-0.365-0.118-0.527c-0.119-0.266-0.26-0.528-0.426-0.767l-7.88-11.325c-0.229-0.327-0.302-0.649-0.241-1.029
				c0.271-1.782,0.675-3.499,1.369-5.177c0.068-0.165,0.15-0.326,0.231-0.486c0.026-0.051,0.07-0.094,0.106-0.14L72.884,30.036z"/>
			<path class="st0" d="M103.063,37.045c0.077-0.307,0.134-0.623,0.239-0.919c0.463-1.319,1.015-2.613,1.741-3.835
				c0.149-0.251,0.339-0.404,0.608-0.509c1.1-0.463,2.244-0.803,3.37-1.194l3.387-1.147c2.293-0.651,4.578-1.336,6.89-1.914
				c0.553-0.124,0.996-0.318,1.31-0.81c0.082-0.128,0.209-0.225,0.315-0.337l0.072,0.036c-0.03,0.118-0.037,0.25-0.092,0.353
				c-0.336,0.622-0.646,1.258-1.016,1.844l-1.414,2.13c-0.298,0.451-0.675,0.815-1.151,1.027c-0.188,0.083-0.407,0.087-0.608,0.144
				l-3.24,0.926l-3.191,1.082c-2.146,0.67-4.221,1.535-6.313,2.352c-0.239,0.094-0.434,0.212-0.551,0.458
				c-0.064,0.133-0.17,0.241-0.256,0.361L103.063,37.045z"/>
			<path class="st0" d="M57.704,40.54c0.006,0.253,0.036,0.505,0.014,0.756c-0.132,1.494-0.296,2.971-0.664,4.408
				c-0.264,1.005-0.749,1.892-1.528,2.653c-1.41,1.349-2.849,2.669-4.225,4.053l-4.036,4.242c-0.317,0.325-0.583,0.701-0.834,1.077
				c-0.106,0.162-0.108,0.393-0.153,0.592l-0.097,0.471l-0.086,0c-0.04-0.204-0.1-0.405-0.115-0.612
				c-0.058-0.782-0.091-1.569-0.084-2.362c0.027-0.775,0.096-1.555,0.221-2.339c0.086-0.535,0.316-0.991,0.701-1.431
				c0.728-0.833,1.474-1.651,2.23-2.459c0.782-0.782,1.59-1.538,2.392-2.3l2.416-2.274c0.815-0.747,1.667-1.454,2.488-2.195
				c0.513-0.457,0.871-1.008,1.04-1.674c0.053-0.208,0.136-0.411,0.206-0.616L57.704,40.54z"/>
			<path class="st0" d="M86.104,47.868c-0.015-0.118-0.053-0.24-0.042-0.353c0.034-0.326-0.082-0.596-0.257-0.876l-5.899-9.467
				c-0.212-0.34-0.146-0.722-0.089-1.064c0.126-0.78,0.315-1.554,0.555-2.288c0.226-0.713,0.515-1.412,0.793-2.118
				c0.058-0.147,0.156-0.28,0.236-0.419l0.086,0.008c0.014,0.144,0.055,0.291,0.036,0.43c-0.033,0.242,0.019,0.442,0.141,0.652
				l5.615,9.638c0.23,0.394,0.219,0.818,0.142,1.205c-0.186,0.937-0.407,1.851-0.629,2.765c-0.118,0.529-0.296,1.036-0.451,1.547
				c-0.038,0.127-0.107,0.24-0.162,0.36L86.104,47.868z"/>
			<path class="st0" d="M109.579,30.218c-0.049-0.144-0.085-0.25-0.121-0.357l-3.375-9.934c-0.211-0.607-0.19-1.155,0.089-1.717
				c0.668-1.327,1.406-2.678,2.37-3.848c0.092-0.111,0.204-0.208,0.37-0.292c-0.007,0.078,0.005,0.162-0.023,0.232
				c-0.137,0.334-0.073,0.656,0.026,0.979l3.075,10.032c0.099,0.319,0.085,0.591-0.055,0.868c-0.625,1.262-1.257,2.542-2.038,3.688
				c-0.057,0.084-0.121,0.163-0.185,0.241C109.69,30.136,109.658,30.154,109.579,30.218z"/>
			<path class="st0" d="M115.609,27.726c0.045-0.141,0.074-0.291,0.14-0.421c0.237-0.469,0.203-0.954,0.068-1.444l-2.366-8.54
				c-0.09-0.321-0.08-0.602,0.091-0.881c0.606-0.975,1.206-1.997,1.873-2.933c0.327-0.458,0.725-0.873,1.104-1.303
				c0.102-0.116,0.23-0.213,0.346-0.318l0.084,0.043c-0.089,0.19-0.193,0.376-0.261,0.572c-0.056,0.163-0.13,0.353-0.092,0.507
				l2.16,8.831c0.117,0.466,0.031,0.89-0.148,1.263c-0.352,0.74-0.751,1.434-1.172,2.152c-0.459,0.762-0.98,1.475-1.468,2.2
				c-0.08,0.119-0.194,0.212-0.292,0.317L115.609,27.726z"/>
			<path class="st0" d="M68.93,58.292c-0.068-0.12-0.114-0.166-0.118-0.212c-0.039-0.466-0.319-0.806-0.621-1.149l-5.571-6.365
				c-0.13-0.15-0.182-0.417-0.173-0.625c0.061-1.442,0.219-2.892,0.58-4.331c0.028-0.112,0.071-0.221,0.11-0.33
				c0.012-0.034,0.032-0.066,0.065-0.133c0.072,0.087,0.124,0.15,0.176,0.213l5.717,6.918c0.326,0.397,0.374,0.895,0.36,1.377
				c-0.042,1.426-0.136,2.827-0.398,4.179C69.031,57.965,68.986,58.09,68.93,58.292z"/>
			<path class="st0" d="M141.401,27.834c0.019-0.444,0.073-0.878,0.05-1.307c-0.067-1.221-0.158-2.44-0.254-3.659
				c-0.078-0.988-0.195-1.972-0.263-2.96c-0.027-0.393,0-0.798,0.069-1.186c0.039-0.221,0.179-0.444,0.326-0.624
				c0.928-1.131,1.938-2.268,3.105-3.147c0.162-0.126,0.345-0.226,0.541-0.352c0.015,0.074,0.034,0.11,0.023,0.123
				c-0.42,0.507-0.363,1.117-0.349,1.713c0.016,0.666,0.045,1.332,0.079,1.997l0.257,4.771c0.03,0.5-0.103,0.928-0.402,1.285
				c-0.91,1.062-1.839,2.203-2.88,3.129c-0.08,0.073-0.169,0.134-0.256,0.197C141.421,27.834,141.386,27.84,141.401,27.834z"/>
			<path class="st1" d="M156.975,27.34c0.282-0.606,0.324-0.663-0.269-1.148c-0.772-0.599-1.654-1.052-2.503-1.568
				c-0.147-0.089-0.305-0.162-0.444-0.265c-0.229-0.17-0.294-0.592-0.093-0.814c0.482-0.533,0.971-1.069,1.506-1.555
				c0.576-0.524,1.203-0.997,1.824-1.483c0.166-0.132,0.358-0.209,0.571-0.33c-0.033,0.205-0.117,0.379-0.065,0.484
				c0.09,0.183,0.235,0.393,0.406,0.469c0.892,0.396,1.63,1.027,2.407,1.575c0.228,0.161,0.434,0.365,0.616,0.58
				c0.221,0.262,0.216,0.571-0.035,0.819c-0.552,0.546-1.1,1.093-1.68,1.586c-0.6,0.511-1.238,0.961-1.854,1.43
				C157.244,27.212,157.104,27.268,156.975,27.34z"/>
			<path class="st1" d="M160.133,15.479c0.248-0.604-0.157-0.775-0.517-1.002c-0.462-0.291-0.911-0.609-1.359-0.93
				c-0.481-0.35-0.958-0.699-1.434-1.029c-0.318-0.227-0.353-0.425-0.072-0.705c0.526-0.533,1.065-1.046,1.65-1.482
				c0.67-0.508,1.394-0.958,2.111-1.426c0.12-0.078,0.264-0.122,0.461-0.21c-0.191,0.511,0.231,0.663,0.483,0.864
				c0.468,0.372,0.979,0.693,1.473,1.028c0.458,0.311,0.929,0.603,1.374,0.924c0.345,0.248,0.376,0.596,0.054,0.878
				c-0.596,0.523-1.2,1.036-1.826,1.511c-0.625,0.474-1.284,0.898-1.923,1.338C160.485,15.323,160.339,15.376,160.133,15.479z"/>
			<path class="st1" d="M154.88,18.175c0.117-0.151,0.207-0.298,0.327-0.415c1.029-1.008,2.132-1.991,3.355-2.737
				c0.275-0.173,0.49-0.167,0.745,0.038c0.65,0.52,1.373,0.908,2.116,1.261c0.398,0.189,0.764,0.457,1.098,0.74
				c0.092,0.078,0.072,0.355,0.018,0.514c-0.051,0.151-0.198,0.281-0.325,0.395c-1.141,1.027-2.303,1.995-3.569,2.792
				c-0.115,0.073-0.244,0.123-0.44,0.221c0.063-0.137,0.077-0.215,0.123-0.257c0.226-0.214,0.171-0.391-0.062-0.549
				c-0.316-0.214-0.616-0.471-0.96-0.624C156.444,19.202,155.671,18.726,154.88,18.175z"/>
			<path class="st0" d="M133.73,10.546c0.932-1.639,1.495-3.301,0.438-5.069c-0.205,0.115-0.369,0.207-0.532,0.299l-0.063-0.047
				c0.1-0.159,0.183-0.33,0.304-0.476c0.482-0.579,0.98-1.158,1.511-1.701c0.532-0.526,1.093-1.032,1.697-1.506
				c0.176-0.138,0.362-0.269,0.556-0.386c0.292-0.176,0.515-0.138,0.648,0.135c0.304,0.62,0.519,1.287,0.402,1.957
				c-0.149,0.852-0.289,1.72-0.785,2.493c-0.559,0.872-1.26,1.626-1.989,2.35l-1.729,1.715c-0.109,0.108-0.248,0.189-0.372,0.282
				L133.73,10.546z"/>
		</g>
		<g>
			<path class="st0" d="M40.545,95.388c-0.224-0.294-0.474-0.511-0.882-0.441l-2.037,0.331l-1.832,0.331l-1.789,0.392
				c-0.586,0.136-1.156,0.342-1.748,0.474c-0.456,0.102-0.52,0.054-0.699-0.378c-0.534-1.323-1.052-2.723-1.261-4.132
				c-0.017-0.102-0.035-0.211-0.014-0.309c0.013-0.063,0.089-0.148,0.149-0.161l1.702-0.335l2.682-0.562l2.065-0.37
				c0.178-0.029,0.356-0.059,0.616-0.101c-0.37-0.204-0.687-0.283-1.01-0.253c-0.811,0.076-1.622,0.186-2.44,0.281
				c-0.269,0.031-0.547,0.011-0.815,0.051c-0.904,0.136-1.814,0.279-2.72,0.465c-0.747,0.153-1.484,0.376-2.236,0.544
				c-0.449,0.102-0.922,0.127-1.371,0.217c-0.394,0.081-0.78,0.217-1.177,0.293c-0.418,0.079-0.847,0.166-1.269,0.157
				c-0.397-0.009-0.663-0.286-0.804-0.685c-0.516-1.408-0.91-2.817-1.098-4.306c-0.016-0.127-0.017-0.258-0.02-0.388
				c-0.001-0.036,0.017-0.074,0.029-0.12c0.611,0.419,1.26,0.248,1.914,0.098c0.545-0.125,1.099-0.19,1.641-0.307
				c0.894-0.193,1.776-0.419,2.663-0.588c1.118-0.224,2.295-0.39,3.443-0.523c1.004-0.114,2.008-0.192,3.006-0.221
				c0.804-0.024,1.474,0.309,1.98,0.953c0.141,0.179,0.288,0.357,0.457,0.509c0.536,0.483,0.796,1.116,0.975,1.755l0.664,2.411
				l0.729,2.418c0.209,0.687,0.36,1.382,0.532,2.066c0.034,0.135,0.031,0.275,0.046,0.413L40.545,95.388z"/>
			<path class="st0" d="M28.268,136.235c-0.057-0.028-0.116-0.052-0.17-0.085c-0.277-0.168-0.545-0.165-0.828-0.005l-2.125,1.19
				c-1.257,0.726-2.476,1.412-3.593,2.335c-0.28,0.235-0.637,0.39-0.97,0.563c-0.069,0.036-0.232,0.012-0.283-0.043
				c-0.511-0.555-1.031-1.112-1.501-1.711c-0.467-0.605-0.922-1.259-1.318-1.898c-0.061-0.094-0.12-0.2-0.136-0.308
				c-0.01-0.066,0.043-0.178,0.101-0.215l1.485-0.905l2.333-1.449l1.793-1.042l0.477-0.267l-0.018-0.09
				c-0.241,0.027-0.499,0.012-0.719,0.091c-0.508,0.184-1.003,0.405-1.493,0.637c-0.573,0.271-1.141,0.558-1.701,0.863
				c-0.796,0.434-1.592,0.881-2.374,1.36c-0.619,0.379-1.205,0.819-1.825,1.21c-0.463,0.287-0.935,0.526-1.389,0.801l-0.729,0.48
				c-0.364,0.221-0.733,0.437-1.105,0.646c-0.355,0.2-0.774,0.168-1.046-0.142c-0.497-0.566-0.984-1.15-1.431-1.77
				c-0.462-0.65-0.838-1.341-1.247-2.029c-0.083-0.141-0.131-0.304-0.212-0.498c0.764,0.196,1.322-0.191,1.892-0.566
				c0.46-0.303,0.952-0.545,1.415-0.836c0.775-0.488,1.529-1.002,2.306-1.466c0.992-0.591,1.974-1.161,3.03-1.68
				c0.837-0.42,1.701-0.773,2.538-1.169c0.667-0.315,1.342-0.282,2.011-0.079c0.303,0.092,0.56,0.316,0.854,0.446
				c0.788,0.35,1.354,0.932,1.814,1.596c0.996,1.482,2.148,2.966,3.21,4.399c0.297,0.394,0.554,0.812,0.821,1.219
				c0.078,0.118,0.128,0.251,0.191,0.377L28.268,136.235z"/>
			<path class="st0" d="M29.13,128.619c-0.625-0.553-1.431-0.534-2.179-0.673c-3.486-0.652-6.971-1.316-10.469-1.896
				c-0.646-0.107-1.052-0.377-1.379-0.874c-0.32-0.487-0.608-0.999-0.933-1.546c-0.422,0.259-0.744,0.457-1.066,0.655l-1.463,0.967
				c-0.222,0.148-0.434,0.109-0.582-0.098c-0.404-0.567-0.822-1.133-1.173-1.745c-0.44-0.782-0.868-1.617-1.222-2.434
				c-0.072-0.16-0.089-0.35-0.142-0.571c0.555,0.216,0.888-0.165,1.253-0.392c0.456-0.284,0.893-0.602,1.349-0.879
				c0.494-0.3,1.01-0.553,1.497-0.856l2.644-1.67c0.921-0.601,1.915-1.182,2.875-1.749c0.204-0.12,0.417-0.224,0.63-0.337
				c0.284,0.232,0.87,1.261,1.394,2.304c0.54,1.049,1.068,2.124,1.102,2.485c-0.238,0.09-0.47,0.146-0.668,0.259
				c-0.689,0.394-1.371,0.808-2.051,1.236c-0.526,0.331-1.043,0.682-1.564,1.032c-0.045,0.031-0.079,0.079-0.166,0.168
				c0.172,0.037,0.298,0.064,0.425,0.091l8.24,1.749c0.566,0.116,0.963,0.391,1.263,0.807c0.797,1.122,1.643,2.283,2.274,3.496
				c0.071,0.133,0.121,0.275,0.181,0.412L29.13,128.619z"/>
			<path class="st0" d="M27.428,157.452c-0.051,0.009-0.072,0.019-0.086,0.014c-0.718-0.262-1.457-0.217-2.201-0.177l-8.711,0.464
				c-0.409,0.025-0.699-0.099-0.964-0.353l-1.694-1.623c-0.135-0.129-0.294-0.329-0.441-0.328c-0.344,0.003-0.729,0.029-1.021,0.192
				c-0.549,0.306-0.927,0.806-1.216,1.404c-0.656,1.317-0.672,2.717-0.585,4.151c0.035,0.478,0.091,0.956,0.105,1.435
				c0.042,0.997,0.209,1.962,0.525,2.903c0.243,0.729,0.734,1.256,1.272,1.75c0.308,0.283,0.577,0.608,0.859,0.917
				c0.054,0.059,0.085,0.141,0.126,0.213l-0.046,0.06c-0.384-0.229-0.792-0.425-1.147-0.698c-1.304-1.017-2.618-2.154-3.64-3.489
				c-0.819-1.04-1.348-2.242-1.581-3.583c-0.122-0.703-0.185-1.419-0.236-2.132c-0.066-0.917-0.077-1.844-0.012-2.756
				c0.072-0.885,0.226-1.757,0.622-2.574c0.301-0.619,0.652-1.149,1.186-1.518c0.226-0.156,0.516-0.219,0.785-0.292
				c0.199-0.054,0.411-0.072,0.618-0.075c0.101-0.001,0.23,0.039,0.303,0.109c0.772,0.745,1.531,1.494,2.306,2.212
				c0.113,0.105,0.296,0.191,0.444,0.188l9.258-0.208c0.902-0.023,1.663,0.217,2.321,0.825c0.916,0.847,1.825,1.676,2.607,2.598
				c0.074,0.081,0.138,0.17,0.203,0.258C27.405,157.368,27.41,157.405,27.428,157.452z"/>
			<path class="st0" d="M30.862,84.612c-0.049-0.075-0.108-0.145-0.145-0.226c-1.023-2.248-1.58-4.681-1.703-7.265
				c-0.02-1.297,0.178-2.621,0.623-3.893c0.276-0.79,0.706-1.538,1.104-2.287c0.233-0.455,0.58-0.845,0.848-1.278
				c0.404-0.673,1.06-0.997,1.674-1.373c0.419-0.257,0.849-0.492,1.283-0.71c0.799-0.402,1.612-0.599,2.462-0.329
				c0.241,0.077,0.507,0.079,0.751,0.15c0.097,0.028,0.225,0.136,0.24,0.228l0.359,2.344c0.082,0.509,0.172,1.014,0.277,1.514
				c0.017,0.08,0.106,0.156,0.18,0.209l4.206,3.062c0.984,0.724,1.978,1.44,2.914,2.222c0.411,0.343,0.76,0.808,0.883,1.351
				c0.319,1.37,0.527,2.693,0.673,4.085c0.012,0.133,0.001,0.266,0,0.399l-0.073,0.034c-0.185-0.218-0.361-0.445-0.557-0.654
				c-0.148-0.158-0.308-0.311-0.485-0.434l-7.343-5.109c-0.186-0.131-0.292-0.445-0.346-0.694c-0.221-0.988-0.344-1.948-0.489-2.941
				c-0.03-0.213-0.108-0.322-0.323-0.35c-0.509-0.066-0.995-0.232-1.538-0.134c-0.55,0.103-1.08,0.277-1.55,0.57l-1.506,0.962
				c-0.34,0.22-0.633,0.485-0.864,0.838c-0.673,1.03-1.341,2.067-1.779,3.211c-0.322,0.969-0.508,1.94-0.251,2.964
				c0.255,1.015,0.371,2.061,0.549,3.08c0.024,0.138,0.008,0.285,0.01,0.427L30.862,84.612z"/>
			<path class="st0" d="M19.946,184.145c-0.216-0.089-0.38-0.135-0.521-0.219c-1.213-0.72-2.397-1.513-3.488-2.474
				c-0.38-0.334-0.53-0.759-0.606-1.232c-0.039-0.242-0.06-0.488-0.114-0.727c-0.382-1.609-0.606-3.25-0.917-4.873l-0.435-2.441
				c-0.146-0.814-0.221-1.638-0.335-2.456l-0.099-0.79c-0.021-0.173,0.025-0.308,0.206-0.359c0.128-0.036,0.253-0.088,0.383-0.105
				l3.205-0.412c0.785-0.091,1.574-0.146,2.36-0.223l3.016-0.3c0.652-0.055,1.318-0.136,1.959-0.07
				c0.491,0.05,1.012,0.232,1.417,0.49c1.187,0.753,2.24,1.605,3.3,2.522c0.097,0.086,0.17,0.195,0.255,0.293l-0.04,0.066
				c-0.176-0.044-0.349-0.109-0.529-0.128c-0.401-0.041-0.812-0.121-1.206-0.077c-1.27,0.145-2.534,0.341-3.801,0.511l-2.185,0.272
				l-3.642,0.495c-0.644,0.091-0.661,0.125-0.548,0.762c0.458,2.431,0.788,4.889,1.399,7.289l0.601,2.608
				C19.699,183.073,19.816,183.577,19.946,184.145z"/>
			<path class="st0" d="M34.862,106.246c-0.343-0.256-0.631-0.515-0.96-0.707c-0.4-0.233-0.825-0.438-1.258-0.608L21.1,100.433
				c-0.099-0.039-0.202-0.116-0.26-0.206c-0.551-0.848-0.91-1.803-1.231-2.781c-0.247-0.758-0.458-1.539-0.673-2.317
				c-0.062-0.246-0.023-0.473,0.091-0.722l2.467-5.455c0.063-0.148,0.065-0.329,0.08-0.493c0.012-0.143-0.004-0.287-0.008-0.431
				l0.099-0.044c0.092,0.177,0.212,0.344,0.273,0.533c0.49,1.474,0.976,2.976,1.263,4.502c0.077,0.4,0.047,0.765-0.142,1.144
				c-0.323,0.648-0.598,1.32-0.905,1.976c-0.093,0.198-0.064,0.293,0.134,0.376l9.109,3.862c0.853,0.366,1.55,0.918,1.941,1.814
				c0.527,1.208,1.067,2.392,1.432,3.617C34.811,105.946,34.829,106.087,34.862,106.246z"/>
			<path class="st0" d="M7.043,146.36c0.285,0.266,0.562,0.541,0.859,0.789c0.109,0.091,0.262,0.171,0.396,0.174l13.765,0.317
				c0.852,0.016,1.542,0.262,2.091,0.873c0.815,0.897,1.598,1.766,2.446,2.63c0.151,0.154,0.255,0.345,0.336,0.563
				c-0.167-0.069-0.328-0.17-0.503-0.202c-0.287-0.052-0.583-0.085-0.874-0.084l-13.797,0.079c-0.399,0.003-0.707-0.119-0.987-0.384
				c-1.281-1.232-2.454-2.537-3.466-4.057c-0.099-0.149-0.186-0.307-0.273-0.465c-0.028-0.05-0.038-0.111-0.056-0.167L7.043,146.36z
				"/>
			<path class="st0" d="M29.881,125.432c-0.209-0.237-0.437-0.463-0.623-0.716c-0.825-1.127-1.578-2.313-2.174-3.602
				c-0.122-0.264-0.14-0.508-0.075-0.789c0.244-1.168,0.584-2.311,0.913-3.457l0.976-3.44c0.726-2.269,1.502-4.526,2.302-6.77
				c0.211-0.526,0.302-1.001,0.074-1.537c-0.06-0.14-0.068-0.299-0.099-0.45l0.07-0.039c0.081,0.091,0.186,0.172,0.239,0.276
				c0.323,0.628,0.671,1.243,0.945,1.88l0.968,2.374c0.203,0.5,0.289,1.016,0.193,1.529c-0.038,0.202-0.159,0.385-0.226,0.582
				c-0.349,1.067-0.748,2.119-1.06,3.198l-0.919,3.242c-0.669,2.146-1.102,4.354-1.627,6.538c-0.058,0.25-0.071,0.478,0.065,0.713
				c0.073,0.128,0.103,0.276,0.152,0.415L29.881,125.432z"/>
			<path class="st0" d="M7.08,164.812c0.206,0.139,0.427,0.257,0.616,0.418c1.158,0.955,2.307,1.926,3.297,3.042
				c0.699,0.785,1.164,1.686,1.298,2.767c0.244,1.937,0.65,3.849,0.974,5.774c0.304,1.93,0.785,3.824,1.221,5.727
				c0.103,0.442,0.231,0.882,0.393,1.304c0.069,0.18,0.253,0.314,0.387,0.465l0.322,0.349l-0.05,0.071
				c-0.187-0.083-0.384-0.149-0.56-0.254c-1.325-0.797-2.611-1.689-3.786-2.78c-0.401-0.372-0.655-0.819-0.811-1.383
				c-0.559-2.143-0.902-4.333-1.294-6.511c-0.209-1.088-0.332-2.188-0.465-3.286l-0.429-3.291c-0.095-0.681-0.356-1.287-0.817-1.803
				c-0.137-0.162-0.249-0.346-0.373-0.521L7.08,164.812z"/>
			<path class="st0" d="M29.217,145.552c-0.106-0.054-0.229-0.092-0.315-0.165c-0.251-0.213-0.54-0.27-0.869-0.284l-11.144-0.493
				c-0.4-0.017-0.68-0.288-0.931-0.529c-0.574-0.545-1.06-1.136-1.548-1.751c-0.462-0.589-0.877-1.223-1.305-1.852
				c-0.089-0.131-0.143-0.287-0.214-0.432l0.055-0.066c0.127,0.07,0.271,0.119,0.376,0.214c0.181,0.164,0.376,0.235,0.618,0.252
				l11.124,0.821c0.455,0.034,0.8,0.282,1.076,0.565c0.668,0.684,1.306,1.385,1.927,2.085c0.342,0.395,0.662,0.83,1.001,1.248
				c0.083,0.103,0.139,0.225,0.207,0.338L29.217,145.552z"/>
			<path class="st0" d="M27.935,116.199c-0.146-0.041-0.254-0.072-0.363-0.102l-10.103-2.83c-0.62-0.169-1.06-0.496-1.365-1.043
				c-0.722-1.302-1.394-2.667-1.843-4.133c-0.04-0.139-0.056-0.286-0.031-0.47c0.06,0.049,0.136,0.087,0.178,0.15
				c0.197,0.302,0.5,0.431,0.822,0.532l10.015,3.132c0.319,0.099,0.535,0.264,0.684,0.536c0.716,1.238,1.391,2.475,1.899,3.768
				c0.037,0.094,0.065,0.191,0.094,0.288C27.931,116.061,27.928,116.098,27.935,116.199z"/>
			<path class="st0" d="M29.287,109.816c-0.09-0.117-0.198-0.225-0.268-0.353c-0.252-0.46-0.671-0.706-1.152-0.872l-8.383-2.875
				c-0.315-0.107-0.542-0.274-0.675-0.573c-0.467-1.052-0.948-2.117-1.37-3.206c-0.192-0.528-0.309-1.092-0.449-1.646
				c-0.038-0.15-0.045-0.31-0.066-0.465l0.083-0.045c0.107,0.181,0.201,0.372,0.324,0.538c0.103,0.138,0.217,0.306,0.366,0.363
				l8.507,3.209c0.45,0.167,0.752,0.477,0.958,0.836c0.398,0.703,0.774,1.436,1.123,2.187c0.368,0.808,0.66,1.64,0.981,2.453
				c0.052,0.133,0.065,0.28,0.096,0.42L29.287,109.816z"/>
			<path class="st0" d="M28.086,165.627c-0.138-0.012-0.202-0.001-0.243-0.023c-0.41-0.232-0.849-0.194-1.303-0.139l-8.402,0.981
				c-0.197,0.022-0.449-0.086-0.618-0.211c-1.172-0.866-2.301-1.815-3.219-2.935c-0.073-0.087-0.135-0.184-0.2-0.279
				c-0.02-0.03-0.034-0.064-0.068-0.129c0.112-0.01,0.194-0.017,0.275-0.024l8.94-0.786c0.512-0.043,0.939,0.201,1.316,0.487
				c1.094,0.849,2.224,1.717,3.209,2.697C27.869,165.359,27.949,165.467,28.086,165.627z"/>
			<path class="st0" d="M43.946,88.603c-0.355-0.266-0.683-0.557-1.05-0.781c-1.044-0.635-2.102-1.25-3.161-1.86
				c-0.859-0.494-1.736-0.955-2.589-1.458c-0.339-0.2-0.658-0.452-0.94-0.728c-0.161-0.157-0.265-0.399-0.332-0.622
				c-0.211-0.707-0.399-1.424-0.552-2.152c-0.133-0.716-0.226-1.441-0.273-2.18c-0.013-0.205,0.007-0.413,0.013-0.647
				c0.069,0.029,0.109,0.034,0.114,0.05c0.183,0.635,0.718,0.933,1.217,1.259c0.558,0.364,1.124,0.716,1.691,1.064l4.079,2.487
				c0.429,0.258,0.708,0.61,0.835,1.06c0.198,0.685,0.365,1.36,0.529,2.049c0.171,0.694,0.312,1.388,0.409,2.084
				c0.015,0.107,0.016,0.216,0.019,0.323C43.958,88.586,43.943,88.618,43.946,88.603z"/>
			<path class="st1" d="M52.372,75.521c-0.344-0.579-0.361-0.642-1.099-0.43c-0.478,0.138-0.943,0.319-1.405,0.513l-1.337,0.633
				c-0.156,0.071-0.304,0.162-0.466,0.218c-0.268,0.093-0.652-0.091-0.723-0.384c-0.171-0.701-0.339-1.411-0.44-2.13
				c-0.118-0.781-0.112-1.534-0.148-2.312c-0.008-0.207,0.03-0.414,0.05-0.658c0.15,0.143,0.247,0.312,0.363,0.328
				c0.2,0.029,0.454,0.027,0.612-0.072c0.823-0.517,1.752-0.774,2.636-1.11c0.259-0.099,0.542-0.154,0.82-0.183
				c0.339-0.035,0.59,0.144,0.655,0.493c0.143,0.768,0.288,1.534,0.371,2.296c0.086,0.789,0.102,1.575,0.146,2.353
				C52.416,75.225,52.385,75.373,52.372,75.521z"/>
			<path class="st1" d="M44.367,66.176c-0.359-0.548-0.726-0.308-1.113-0.138c-0.497,0.219-1.009,0.412-1.523,0.603
				c-0.552,0.205-1.11,0.401-1.673,0.589c-0.377,0.126-0.561,0.042-0.625-0.342c-0.119-0.72-0.23-1.449-0.269-2.188
				c-0.045-0.844-0.011-1.702,0.003-2.563c0.002-0.143,0.047-0.289,0.084-0.503c0.314,0.448,0.675,0.184,0.981,0.088
				c0.57-0.176,1.11-0.426,1.673-0.637c0.529-0.19,1.049-0.402,1.578-0.576c0.41-0.135,0.715,0.038,0.758,0.457
				c0.079,0.776,0.144,1.552,0.165,2.324c0.038,0.785,0.023,1.575,0.028,2.356C44.435,65.795,44.397,65.946,44.367,66.176z"/>
			<path class="st1" d="M43.597,72.023c-0.059-0.183-0.13-0.341-0.16-0.506c-0.261-1.429-0.361-2.831-0.323-4.292
				c0.011-0.327,0.136-0.501,0.446-0.598c0.79-0.246,1.512-0.627,2.217-1.045c0.381-0.221,0.794-0.384,1.233-0.484
				c0.119-0.029,0.336,0.145,0.435,0.278c0.095,0.127,0.114,0.319,0.133,0.485c0.203,1.525,0.357,3.044,0.307,4.547
				c-0.005,0.137-0.034,0.273-0.063,0.491c-0.078-0.13-0.134-0.186-0.144-0.248c-0.05-0.309-0.227-0.364-0.486-0.259
				c-0.352,0.142-0.731,0.246-1.048,0.445C45.357,71.337,44.476,71.665,43.597,72.023z"/>
			<path class="st0" d="M25.352,85.154c-0.826-1.697-1.879-3.101-3.934-3.228c-0.021,0.235-0.037,0.421-0.054,0.608l-0.075,0.025
				c-0.075-0.173-0.169-0.338-0.221-0.52c-0.433-1.462-0.723-2.922-0.825-4.458c-0.015-0.224-0.018-0.451-0.005-0.679
				c0.019-0.341,0.176-0.504,0.476-0.46c0.683,0.1,1.354,0.299,1.841,0.775c0.619,0.605,1.255,1.212,1.614,2.059
				c0.405,0.955,0.632,1.961,0.819,2.973l0.427,2.39c0.027,0.151,0.016,0.311,0.022,0.467L25.352,85.154z"/>
		</g>
		<g>
			<path class="st0" d="M42.014,208.921c-0.367,0.014-0.687,0.094-0.867,0.471c-0.304,0.626-0.599,1.232-0.878,1.85
				c-0.499,1.107-0.993,2.229-1.46,3.373c-0.229,0.561-0.392,1.15-0.628,1.714c-0.181,0.435-0.257,0.46-0.71,0.356
				c-1.392-0.32-2.774-0.731-4.107-1.335c-0.096-0.043-0.198-0.089-0.27-0.161c-0.046-0.046-0.076-0.155-0.053-0.211
				c0.211-0.527,0.453-1.046,0.689-1.581l1.097-2.533l0.896-1.914c0.079-0.164,0.159-0.327,0.275-0.565
				c-0.379,0.187-0.627,0.402-0.79,0.685c-0.409,0.712-0.789,1.443-1.185,2.171c-0.131,0.24-0.308,0.457-0.43,0.701
				c-0.413,0.823-0.824,1.654-1.198,2.507c-0.305,0.702-0.516,1.418-0.798,2.126c-0.167,0.423-0.404,0.818-0.587,1.238
				c-0.162,0.372-0.275,0.768-0.444,1.138c-0.178,0.39-0.355,0.794-0.607,1.135c-0.236,0.322-0.614,0.38-1.018,0.265
				c-1.418-0.401-2.836-0.864-4.201-1.542c-0.113-0.06-0.219-0.135-0.326-0.208c-0.03-0.02-0.05-0.058-0.08-0.094
				c0.692-0.26,0.929-0.893,1.185-1.518c0.213-0.521,0.482-1.014,0.701-1.528c0.361-0.847,0.689-1.704,1.065-2.532
				c0.48-1.056,0.975-2.096,1.508-3.106c0.453-0.874,0.987-1.753,1.538-2.59c0.447-0.676,1.104-1.034,1.917-1.079
				c0.226-0.012,0.455-0.031,0.676-0.082c0.702-0.162,1.361-0.01,1.984,0.211l4.791,1.606c0.675,0.225,1.324,0.504,1.976,0.758
				c0.128,0.05,0.241,0.134,0.36,0.201L42.014,208.921z"/>
			<path class="st0" d="M68.471,242.44c-0.056,0.031-0.11,0.066-0.168,0.092c-0.3,0.133-0.449,0.353-0.479,0.672l-0.222,2.394
				c-0.109,1.423-0.288,2.861-0.184,4.316c0.027,0.37-0.054,0.754-0.108,1.13c-0.011,0.078-0.123,0.197-0.197,0.206
				c-0.739,0.089-1.485,0.184-2.236,0.213c-0.76,0.03-1.526-0.009-2.297-0.029c-0.113-0.003-0.236-0.013-0.335-0.06
				c-0.061-0.029-0.124-0.134-0.121-0.202l0.095-1.715c0.043-0.91,0.065-1.804,0.146-2.73l0.199-2.088l0.061-0.55l-0.083-0.039
				c-0.117,0.214-0.279,0.417-0.342,0.644c-0.146,0.526-0.253,1.063-0.35,1.602c-0.113,0.63-0.211,1.266-0.289,1.907
				c-0.107,0.906-0.18,1.793-0.231,2.701c-0.038,0.716-0.007,1.439-0.036,2.162c-0.022,0.533-0.104,1.064-0.146,1.6l-0.036,0.882
				c-0.032,0.43-0.072,0.86-0.119,1.29c-0.044,0.409-0.311,0.734-0.716,0.773c-0.741,0.072-1.49,0.124-2.246,0.123
				c-0.793-0.001-1.595-0.067-2.4-0.12c-0.165-0.011-0.329-0.062-0.537-0.104c0.602-0.514,0.598-1.185,0.612-1.859
				c0.007-0.54,0.094-1.084,0.13-1.638c0.056-0.924,0.077-1.846,0.153-2.758c0.097-1.163,0.216-2.315,0.374-3.453
				c0.127-0.916,0.325-1.816,0.472-2.718c0.117-0.719,0.53-1.25,1.083-1.683c0.25-0.196,0.585-0.281,0.862-0.448
				c0.743-0.448,1.554-0.586,2.375-0.593l5.42-0.067c0.483-0.004,0.978,0.019,1.474,0.024c0.143,0.002,0.283,0.035,0.424,0.053
				L68.471,242.44z"/>
			<path class="st0" d="M62.722,237.361c-0.805,0.187-1.256,0.86-1.799,1.392c-2.537,2.478-5.082,4.949-7.568,7.479
				c-0.459,0.467-0.91,0.641-1.499,0.617c-0.576-0.023-1.154-0.088-1.782-0.143c-0.035,0.499-0.062,0.88-0.089,1.261l-0.066,1.77
				c-0.009,0.27-0.164,0.421-0.415,0.42c-0.69-0.002-1.385,0.009-2.081-0.063c-0.891-0.091-1.785-0.253-2.684-0.407
				c-0.175-0.03-0.344-0.122-0.559-0.201c0.498-0.332,0.368-0.815,0.386-1.238c0.024-0.531,0.001-1.058,0.036-1.59
				c0.043-0.581,0.137-1.153,0.174-1.73l0.181-3.149l0.188-3.334c0.016-0.233,0.048-0.464,0.074-0.7
				c0.724-0.191,4.762,0.34,5.379,0.685c-0.065,0.248-0.154,0.472-0.177,0.701c-0.081,0.797-0.141,1.601-0.189,2.41
				c-0.03,0.619-0.024,1.23-0.028,1.85c0,0.054,0.021,0.108,0.046,0.229c0.129-0.12,0.224-0.208,0.318-0.295l6.165-5.74
				c0.42-0.397,0.877-0.568,1.399-0.582c1.41-0.038,2.797-0.015,4.145,0.173c0.148,0.021,0.291,0.063,0.435,0.095L62.722,237.361z"
				/>
			<path class="st0" d="M85.356,255.283c-0.022,0.047-0.026,0.071-0.038,0.079c-0.62,0.428-1.008,1.06-1.402,1.691l-4.619,7.401
				c-0.214,0.349-0.478,0.509-0.842,0.586l-2.316,0.479c-0.184,0.038-0.441,0.056-0.525,0.178c-0.195,0.283-0.395,0.613-0.428,0.945
				c-0.062,0.621,0.135,1.212,0.464,1.785c0.732,1.247,1.784,2.201,3.044,2.895c0.415,0.24,0.842,0.464,1.246,0.721
				c0.842,0.537,1.752,0.912,2.687,1.225c0.721,0.246,1.425,0.163,2.146-0.008c0.41-0.093,0.833-0.131,1.249-0.188
				c0.08-0.011,0.165,0.01,0.248,0.016l0.023,0.072c-0.409,0.186-0.805,0.409-1.234,0.548c-1.61,0.538-3.224,0.834-4.929,0.95
				c-1.329,0.086-2.625-0.157-3.867-0.721c-0.658-0.283-1.251-0.692-1.857-1.07c-0.773-0.498-1.564-0.983-2.277-1.557
				c-0.69-0.557-1.326-1.171-1.773-1.956c-0.324-0.617-0.547-1.223-0.536-1.881c0.005-0.278,0.12-0.553,0.216-0.818
				c0.071-0.195,0.179-0.379,0.295-0.551c0.057-0.084,0.163-0.165,0.261-0.182c1.047-0.194,2.063-0.337,3.109-0.58
				c0.152-0.034,0.328-0.135,0.411-0.258l5.146-7.699c0.499-0.752,1.135-1.241,2.016-1.44c1.226-0.277,2.434-0.559,3.646-0.684
				c0.107-0.011,0.215-0.01,0.322-0.009C85.276,255.252,85.308,255.269,85.356,255.283z"/>
			<path class="st0" d="M27.652,210.682c-0.091-0.002-0.183,0.006-0.272-0.009c-2.471-0.427-4.716-1.396-6.892-2.781
				c-1.109-0.711-2.128-1.613-2.877-2.723c-0.479-0.684-0.835-1.469-1.209-2.229c-0.226-0.457-0.352-0.964-0.575-1.423
				c-0.339-0.71-0.265-1.421-0.199-2.147c0.036-0.493,0.096-0.983,0.172-1.466c0.14-0.889,0.453-1.672,1.166-2.215
				c0.202-0.154,0.359-0.371,0.558-0.531c0.08-0.064,0.241-0.106,0.324-0.065l2.102,1.058c0.458,0.226,0.918,0.444,1.383,0.646
				c0.075,0.033,0.188,0.002,0.274-0.027l4.918-1.692c1.157-0.391,2.313-0.796,3.489-1.115c0.516-0.14,1.095-0.159,1.603,0.054
				c1.307,0.522,2.601,1.074,3.781,1.769c0.114,0.067,0.215,0.153,0.322,0.23l-0.015,0.08c-0.284,0.026-0.569,0.04-0.851,0.08
				c-0.213,0.03-0.431,0.074-0.632,0.148l-8.391,3.092c-0.214,0.077-0.529-0.017-0.761-0.116c-0.917-0.392-1.826-0.822-2.737-1.266
				c-0.197-0.096-0.332-0.094-0.476,0.065c-0.339,0.376-0.748,0.678-0.968,1.175c-0.224,0.508-0.354,1.03-0.392,1.587l-0.096,1.795
				c-0.02,0.407,0.025,0.801,0.177,1.195c0.421,1.157,0.925,2.284,1.655,3.28c0.597,0.825,1.275,1.539,2.251,1.919
				c0.976,0.373,1.863,0.894,2.826,1.319c0.131,0.058,0.245,0.153,0.367,0.23L27.652,210.682z"/>
			<path class="st0" d="M102.927,276.713c-0.197,0.127-0.329,0.236-0.479,0.304c-1.289,0.589-2.62,1.112-4.036,1.464
				c-0.493,0.123-0.928,0.005-1.361-0.2l-0.659-0.327c-3.007-1.375-6.053-2.668-8.965-4.237l-0.708-0.364
				c-0.155-0.081-0.24-0.194-0.177-0.372c0.044-0.125,0.073-0.257,0.134-0.374l1.5-2.862c0.376-0.695,0.783-1.374,1.171-2.062
				l1.484-2.644c0.329-0.566,0.644-1.158,1.067-1.647c0.324-0.375,0.772-0.7,1.218-0.887c1.3-0.545,2.62-0.957,3.947-1.236
				c0.123-0.024,0.254-0.022,0.384-0.037l0.031,0.07c-0.137,0.12-0.29,0.225-0.409,0.362c-0.263,0.304-0.561,0.587-0.75,0.936
				c-0.609,1.121-1.172,2.269-1.759,3.403l-1.028,1.943l-1.681,3.265c-0.293,0.576-0.28,0.62,0.302,0.903
				c2.262,1.002,4.486,2.093,6.779,3.024l2.49,0.982C101.903,276.309,102.384,276.499,102.927,276.713z"/>
			<path class="st0" d="M47.66,219.81c-0.404,0.134-0.78,0.219-1.126,0.379c-0.42,0.194-0.83,0.424-1.217,0.682l-10.3,6.885
				c-0.088,0.059-0.21,0.099-0.316,0.094c-1.003-0.04-1.982-0.297-2.958-0.601c-0.757-0.236-1.506-0.517-2.263-0.788
				c-0.242-0.087-0.412-0.244-0.559-0.476l-0.796-1.267l-0.745-1.297l-1.499-2.59c-0.08-0.139-0.233-0.242-0.364-0.345
				c-0.114-0.09-0.245-0.157-0.368-0.234l0.019-0.105c0.201,0.024,0.409,0.02,0.603,0.076c1.506,0.432,2.979,0.914,4.385,1.558
				c0.368,0.169,0.646,0.404,0.843,0.78c0.329,0.646,0.77,1.227,1.143,1.848c0.115,0.186,0.212,0.215,0.393,0.101l8.382-5.256
				c0.793-0.492,1.64-0.745,2.589-0.546c1.28,0.269,2.548,0.513,3.747,0.924C47.389,219.676,47.513,219.744,47.66,219.81z"/>
			<path class="st0" d="M64.536,265.652c0.383-0.082,0.771-0.156,1.147-0.26c0.138-0.038,0.292-0.119,0.372-0.227l8.171-11.082
				c0.503-0.688,1.103-1.115,1.926-1.223l3.574-0.517c0.209-0.031,0.422-0.001,0.643,0.064c-0.151,0.095-0.324,0.166-0.45,0.29
				c-0.207,0.203-0.403,0.426-0.569,0.665l-7.86,11.339c-0.226,0.329-0.501,0.507-0.875,0.578c-1.736,0.327-3.508,0.579-5.346,0.549
				c-0.18-0.003-0.362-0.021-0.543-0.038c-0.057-0.006-0.114-0.031-0.171-0.047L64.536,265.652z"/>
			<path class="st0" d="M60.577,234.879c-0.318,0.039-0.639,0.1-0.958,0.11c-0.708,0.022-1.424,0.027-2.13-0.012
				c-0.693-0.051-1.386-0.138-2.076-0.271c-0.283-0.055-0.49-0.183-0.678-0.402l-2.342-2.706l-2.212-2.813
				c-1.515-1.845-2.859-3.819-4.235-5.767c-0.326-0.463-0.678-0.801-1.26-0.913c-0.155-0.028-0.284-0.116-0.425-0.177l0.009-0.08
				c0.12-0.013,0.246-0.053,0.36-0.036c0.699,0.096,1.426,0.147,2.117,0.28c0.85,0.159,1.681,0.368,2.505,0.566
				c0.521,0.125,0.987,0.355,1.345,0.733c0.141,0.149,0.219,0.356,0.339,0.526c1.324,1.817,2.765,3.547,4.134,5.331
				c1.488,1.686,2.916,3.426,4.443,5.078c0.178,0.186,0.362,0.322,0.638,0.342c0.149,0.011,0.291,0.069,0.436,0.106L60.577,234.879z
				"/>
			<path class="st0" d="M79.712,276.169c0.233-0.091,0.458-0.205,0.699-0.269c1.431-0.372,2.864-0.717,4.362-0.92
				c1.049-0.131,2.058-0.004,3.026,0.496c0.873,0.436,1.723,0.92,2.617,1.314l2.668,1.209l2.67,1.204
				c0.896,0.386,1.814,0.723,2.72,1.086c0.422,0.166,0.858,0.309,1.297,0.415c0.188,0.045,0.403-0.03,0.605-0.055l0.472-0.066
				l0.03,0.081c-0.176,0.106-0.343,0.231-0.53,0.316c-1.415,0.637-2.888,1.187-4.459,1.534c-0.533,0.111-1.057,0.091-1.594-0.136
				c-2.053-0.823-4.078-1.725-6.084-2.658c-1.967-1.017-3.924-2.05-5.906-3.035c-0.609-0.319-1.239-0.483-1.917-0.416
				c-0.212,0.02-0.429,0.009-0.644,0.012L79.712,276.169z"/>
			<path class="st0" d="M76.65,247.007c-0.104,0.055-0.205,0.132-0.313,0.159c-0.314,0.078-0.526,0.281-0.727,0.542l-6.81,8.835
				c-0.244,0.317-0.622,0.384-0.959,0.447c-0.766,0.142-1.549,0.226-2.337,0.278c-0.756,0.049-1.522,0.035-2.29,0.033
				c-0.16,0-0.321-0.043-0.482-0.067l-0.023-0.082c0.131-0.064,0.255-0.155,0.394-0.187c0.24-0.057,0.411-0.176,0.565-0.364
				l7.068-8.629c0.289-0.353,0.694-0.496,1.088-0.565c0.953-0.166,1.903-0.297,2.843-0.416c0.531-0.067,1.063-0.069,1.59-0.094
				c0.13-0.006,0.259,0.021,0.389,0.033L76.65,247.007z"/>
			<path class="st0" d="M51.856,231.198c-0.118,0.096-0.205,0.167-0.292,0.239l-8.114,6.652c-0.494,0.41-1.012,0.581-1.629,0.513
				c-1.471-0.163-2.947-0.417-4.406-0.888c-0.139-0.045-0.273-0.113-0.413-0.236c0.076-0.021,0.151-0.063,0.227-0.061
				c0.366,0.007,0.646-0.167,0.913-0.373l8.309-6.408c0.264-0.204,0.526-0.289,0.839-0.259c1.411,0.134,2.798,0.303,4.133,0.642
				c0.097,0.025,0.192,0.058,0.286,0.092C51.743,231.121,51.77,231.145,51.856,231.198z"/>
			<path class="st0" d="M47.404,226.421c-0.146,0.006-0.296,0.031-0.439,0.014c-0.517-0.061-0.957,0.141-1.368,0.44l-7.16,5.222
				c-0.268,0.197-0.534,0.286-0.852,0.222c-1.121-0.227-2.252-0.454-3.384-0.735c-0.554-0.137-1.095-0.356-1.642-0.549
				c-0.148-0.052-0.287-0.136-0.43-0.205l0.009-0.093c0.213,0.014,0.427,0.043,0.637,0.035c0.175-0.007,0.381-0.007,0.512-0.096
				l7.504-5.134c0.395-0.273,0.826-0.346,1.246-0.315c0.826,0.062,1.648,0.169,2.448,0.325c0.865,0.168,1.705,0.413,2.545,0.623
				c0.138,0.034,0.263,0.11,0.394,0.166L47.404,226.421z"/>
			<path class="st0" d="M92.405,259.464c-0.089,0.107-0.116,0.165-0.159,0.186c-0.426,0.207-0.647,0.588-0.862,0.991l-4.015,7.446
				c-0.095,0.174-0.329,0.32-0.529,0.388c-1.373,0.45-2.767,0.772-4.232,0.919c-0.114,0.011-0.229,0.007-0.345,0.007
				c-0.036,0-0.072-0.008-0.146-0.017c0.056-0.098,0.097-0.168,0.138-0.239l4.484-7.774c0.258-0.444,0.705-0.657,1.157-0.806
				c1.345-0.449,2.661-0.8,4.029-1.048C92.06,259.491,92.195,259.487,92.405,259.464z"/>
			<path class="st0" d="M38.421,202.238c-0.421,0.139-0.846,0.24-1.239,0.413c-1.119,0.492-2.228,1.007-3.335,1.527
				c-0.897,0.421-1.778,0.877-2.678,1.289c-0.358,0.164-0.746,0.281-1.133,0.353c-0.22,0.041-0.476-0.013-0.695-0.087
				c-1.387-0.47-2.752-1.038-4.053-1.792c-0.18-0.105-0.349-0.236-0.531-0.378c0.064-0.04,0.091-0.07,0.107-0.065
				c0.618,0.217,1.183-0.057,1.732-0.278c0.618-0.249,1.231-0.511,1.841-0.777l4.373-1.919c0.457-0.204,0.91-0.233,1.362-0.085
				c1.374,0.45,2.706,0.945,3.943,1.59c0.095,0.05,0.183,0.112,0.271,0.172C38.414,202.218,38.431,202.249,38.421,202.238z"/>
			<path class="st1" d="M32.51,187.855c-0.68-0.047-0.743-0.069-0.971,0.65c-0.296,0.932-0.418,1.918-0.61,2.895
				c-0.033,0.169-0.047,0.343-0.096,0.509c-0.081,0.274-0.453,0.483-0.731,0.373c-0.665-0.264-1.335-0.536-1.974-0.867
				c-0.689-0.357-1.348-0.779-2.016-1.191c-0.179-0.111-0.333-0.259-0.528-0.413c0.204-0.041,0.4-0.025,0.478-0.109
				c0.136-0.147,0.271-0.353,0.286-0.541c0.064-0.975,0.4-1.887,0.646-2.807c0.072-0.27,0.193-0.535,0.332-0.78
				c0.17-0.299,0.461-0.402,0.78-0.253c0.702,0.326,1.404,0.649,2.066,1.02c0.686,0.384,1.325,0.825,1.981,1.237
				C32.284,187.653,32.391,187.762,32.51,187.855z"/>
			<path class="st1" d="M20.284,189.049c-0.652-0.021-0.672,0.418-0.76,0.835c-0.113,0.535-0.256,1.068-0.403,1.6l-0.437,1.696
				c-0.103,0.378-0.276,0.481-0.636,0.315c-0.672-0.311-1.353-0.632-1.991-1.021c-0.707-0.451-1.38-0.974-2.066-1.483
				c-0.114-0.085-0.206-0.205-0.357-0.36c0.545,0,0.542-0.449,0.643-0.756c0.187-0.57,0.311-1.161,0.455-1.742
				c0.133-0.539,0.244-1.083,0.391-1.612c0.114-0.41,0.429-0.561,0.805-0.357c0.696,0.377,1.386,0.764,2.047,1.186
				c0.66,0.421,1.285,0.89,1.919,1.337C20.016,188.774,20.116,188.892,20.284,189.049z"/>
			<path class="st1" d="M24.654,193.025c-0.182-0.057-0.35-0.09-0.502-0.161c-1.293-0.615-2.599-1.303-3.754-2.18
				c-0.257-0.197-0.325-0.401-0.222-0.712c0.263-0.792,0.377-1.605,0.452-2.426c0.04-0.439,0.164-0.877,0.315-1.289
				c0.041-0.113,0.308-0.191,0.476-0.197c0.159-0.005,0.332,0.088,0.483,0.167c1.357,0.712,2.665,1.463,3.848,2.371
				c0.108,0.083,0.2,0.185,0.359,0.335c-0.15-0.011-0.228,0.002-0.284-0.025c-0.278-0.137-0.426-0.023-0.493,0.25
				c-0.097,0.372-0.226,0.742-0.228,1.111C25.086,191.195,24.894,192.09,24.654,193.025z"/>
			<path class="st0" d="M24.953,215.506c-1.85-0.301-3.596-0.246-4.887,1.372c0.178,0.153,0.319,0.274,0.461,0.396l-0.023,0.076
				c-0.183-0.038-0.371-0.057-0.548-0.119c-1.414-0.499-2.825-1.074-4.172-1.855c-0.19-0.117-0.376-0.246-0.552-0.388
				c-0.265-0.213-0.306-0.436-0.097-0.658c0.476-0.504,1.025-0.942,1.692-1.067c0.848-0.16,1.707-0.333,2.6-0.139
				c0.992,0.226,1.996,0.592,2.948,1.011c0.745,0.322,1.471,0.68,2.199,1.021c0.138,0.065,0.261,0.167,0.391,0.252L24.953,215.506z"
				/>
		</g>
		<g>
			<path class="st0" d="M136.603,272.924c-0.197,0.311-0.313,0.62-0.106,0.981l1.02,1.806c0.628,1.035,1.271,2.073,1.947,3.102
				c0.332,0.505,0.723,0.971,1.054,1.483c0.255,0.394,0.232,0.471-0.111,0.786c-1.056,0.971-2.181,1.88-3.436,2.643
				c-0.09,0.054-0.186,0.114-0.286,0.132c-0.063,0.009-0.17-0.033-0.203-0.086l-0.907-1.489l-1.462-2.334l-1.066-1.819
				c-0.09-0.158-0.179-0.316-0.309-0.545c-0.062,0.418-0.026,0.744,0.115,1.038c0.354,0.738,0.739,1.464,1.113,2.202
				c0.123,0.243,0.201,0.511,0.332,0.75c0.443,0.805,0.894,1.612,1.383,2.403c0.404,0.648,0.868,1.28,1.291,1.896
				c0.253,0.376,0.443,0.794,0.685,1.181c0.214,0.343,0.475,0.659,0.684,1.007c0.22,0.366,0.451,0.74,0.589,1.14
				c0.13,0.376-0.037,0.721-0.361,0.991c-1.135,0.928-2.328,1.897-3.654,2.562c-0.114,0.059-0.236,0.104-0.356,0.151
				c-0.034,0.013-0.076,0.009-0.123,0.013c0.18-0.718-0.207-1.27-0.575-1.835c-0.307-0.47-0.56-0.969-0.859-1.44
				c-0.492-0.776-1.011-1.529-1.478-2.307c-0.597-0.992-1.171-1.987-1.7-2.996c-0.456-0.905-0.879-1.827-1.254-2.758
				c-0.302-0.75-0.224-1.494,0.202-2.19c0.118-0.193,0.234-0.393,0.317-0.603c0.265-0.669,0.766-1.129,1.302-1.514
				c1.357-0.987,2.718-2.031,4.044-3.022c0.57-0.43,1.168-0.808,1.749-1.203c0.114-0.078,0.247-0.123,0.371-0.184L136.603,272.924z"
				/>
			<path class="st0" d="M179.231,270.275c-0.007,0.063-0.009,0.127-0.021,0.189c-0.062,0.318,0.034,0.568,0.281,0.779l1.85,1.582
				c1.116,0.933,2.179,1.838,3.431,2.568c0.317,0.182,0.586,0.463,0.864,0.716c0.058,0.053,0.092,0.213,0.057,0.28
				c-0.344,0.671-0.686,1.351-1.086,1.999c-0.406,0.649-0.863,1.297-1.325,1.89c-0.067,0.089-0.146,0.182-0.242,0.234
				c-0.058,0.032-0.181,0.021-0.236-0.021l-1.362-1.08l-2.165-1.688l-1.596-1.322l-0.415-0.355l-0.079,0.048
				c0.108,0.217,0.183,0.465,0.333,0.643c0.348,0.413,0.726,0.801,1.113,1.18c0.452,0.444,0.917,0.878,1.397,1.298
				c0.682,0.597,1.376,1.189,2.096,1.757c0.57,0.449,1.185,0.848,1.766,1.294c0.429,0.334,0.818,0.699,1.232,1.029l0.702,0.518
				c0.334,0.265,0.663,0.537,0.989,0.814c0.31,0.264,0.425,0.668,0.228,1.03c-0.359,0.662-0.74,1.321-1.167,1.955
				c-0.452,0.654-0.969,1.249-1.474,1.87c-0.104,0.126-0.24,0.229-0.394,0.371c-0.08-0.785-0.636-1.175-1.185-1.58
				c-0.443-0.327-0.84-0.705-1.273-1.039c-0.725-0.559-1.468-1.088-2.172-1.657c-0.896-0.72-1.773-1.46-2.624-2.269
				c-0.683-0.64-1.312-1.329-1.972-1.977c-0.526-0.517-0.728-1.161-0.769-1.86c-0.019-0.316,0.103-0.635,0.124-0.956
				c0.057-0.86,0.407-1.593,0.872-2.255c1.046-1.45,2.043-3.028,3.02-4.527c0.267-0.415,0.57-0.8,0.859-1.192
				c0.084-0.114,0.191-0.207,0.287-0.309L179.231,270.275z"/>
			<path class="st0" d="M171.788,272.095c-0.303,0.778-0.008,1.528,0.12,2.277c0.591,3.497,1.171,6.997,1.833,10.48
				c0.123,0.643,0.009,1.117-0.345,1.596c-0.346,0.469-0.727,0.916-1.128,1.41c0.389,0.307,0.686,0.54,0.982,0.774l1.413,1.038
				c0.216,0.158,0.252,0.37,0.109,0.58c-0.393,0.576-0.78,1.163-1.233,1.705c-0.581,0.691-1.219,1.365-1.863,1.982
				c-0.125,0.123-0.298,0.205-0.486,0.33c0.011-0.596-0.461-0.776-0.8-1.041c-0.424-0.33-0.872-0.63-1.29-0.962
				c-0.452-0.359-0.868-0.756-1.32-1.108l-2.479-1.903c-0.882-0.656-1.771-1.393-2.634-2.096c-0.183-0.151-0.354-0.314-0.534-0.475
				c0.119-0.347,0.883-1.251,1.68-2.104c0.798-0.864,1.625-1.736,1.952-1.891c0.166,0.192,0.299,0.39,0.474,0.537
				c0.607,0.51,1.232,1.007,1.868,1.497c0.492,0.379,1,0.743,1.509,1.11c0.044,0.032,0.101,0.047,0.215,0.098
				c-0.025-0.174-0.043-0.302-0.061-0.43l-1.202-8.337c-0.087-0.571,0.034-1.039,0.321-1.465c0.78-1.126,1.577-2.325,2.497-3.336
				c0.101-0.112,0.216-0.209,0.324-0.312L171.788,272.095z"/>
			<path class="st0" d="M199.376,263.707c0.026,0.045,0.043,0.061,0.043,0.076c0.004,0.762,0.304,1.44,0.6,2.122l3.47,8.003
				c0.165,0.374,0.149,0.686,0.009,1.036c-0.291,0.748-0.612,1.45-0.923,2.172c-0.074,0.171-0.207,0.388-0.154,0.526
				c0.122,0.321,0.281,0.673,0.536,0.892c0.478,0.408,1.081,0.594,1.743,0.656c1.435,0.087,2.78-0.322,4.092-0.911
				c0.438-0.197,0.868-0.412,1.313-0.59c0.936-0.354,1.748-0.918,2.524-1.536c0.602-0.476,0.926-1.115,1.204-1.787
				c0.159-0.384,0.371-0.748,0.564-1.116c0.037-0.071,0.104-0.128,0.156-0.191l0.073,0.023c-0.081,0.437-0.125,0.886-0.257,1.312
				c-0.493,1.587-1.136,3.142-1.995,4.64c-0.683,1.143-1.636,2.036-2.815,2.719c-0.618,0.355-1.271,0.659-1.923,0.952l-1.263,0.563
				c-0.432,0.162-0.867,0.313-1.309,0.435c-0.857,0.237-1.731,0.393-2.637,0.302c-0.687-0.069-1.307-0.216-1.839-0.591
				c-0.225-0.158-0.385-0.408-0.548-0.635c-0.12-0.168-0.21-0.361-0.285-0.554c-0.036-0.094-0.044-0.229-0.003-0.321
				c0.432-0.98,0.872-1.948,1.277-2.921c0.059-0.143,0.077-0.343,0.022-0.481l-3.415-8.608c-0.336-0.838-0.375-1.634-0.033-2.458
				c0.47-1.16,0.948-2.254,1.512-3.371c0.051-0.097,0.111-0.187,0.171-0.277C199.306,263.757,199.338,263.74,199.376,263.707z"/>
			<path class="st0" d="M129.883,285.765c-0.054,0.074-0.099,0.155-0.162,0.219c-1.749,1.744-3.829,3.083-6.205,4.081
				c-0.608,0.255-1.242,0.462-1.893,0.614c-0.646,0.126-1.309,0.193-1.981,0.199c-0.835,0.007-1.683-0.145-2.522-0.267
				c-0.505-0.073-0.994-0.256-1.498-0.333c-0.78-0.113-1.317-0.6-1.878-1.064c-0.385-0.309-0.754-0.636-1.109-0.973
				c-0.653-0.619-1.119-1.321-1.16-2.216c-0.012-0.254-0.102-0.506-0.12-0.76c-0.007-0.102,0.05-0.259,0.13-0.304l2.066-1.13
				c0.447-0.249,0.888-0.505,1.318-0.772c0.069-0.043,0.109-0.153,0.133-0.241l1.404-5.008c0.336-1.174,0.66-2.355,1.066-3.504
				c0.178-0.504,0.492-0.991,0.956-1.29c1.168-0.758,2.362-1.528,3.603-2.102c0.12-0.056,0.248-0.09,0.372-0.135l0.057,0.057
				c-0.14,0.248-0.291,0.491-0.418,0.747c-0.096,0.193-0.184,0.396-0.237,0.605l-2.225,8.662c-0.058,0.22-0.315,0.426-0.529,0.561
				c-0.844,0.533-1.715,1.038-2.598,1.536c-0.191,0.108-0.266,0.22-0.217,0.429c0.117,0.492,0.133,1,0.417,1.463
				c0.29,0.472,0.646,0.875,1.083,1.222l1.423,1.096c0.324,0.247,0.674,0.433,1.084,0.532c0.598,0.143,1.198,0.285,1.801,0.394
				c0.607,0.088,1.22,0.13,1.836,0.116c1.018-0.026,1.992-0.18,2.86-0.77c0.86-0.585,1.799-1.049,2.69-1.563
				c0.121-0.067,0.264-0.109,0.397-0.166L129.883,285.765z"/>
			<path class="st0" d="M226.988,261.399c-0.005,0.238,0.011,0.41-0.016,0.575c-0.221,1.433-0.557,2.81-1.089,4.149
				c-0.184,0.468-0.532,0.752-0.952,0.983c-0.215,0.118-0.44,0.221-0.646,0.353l-2.089,1.336c-0.707,0.427-1.43,0.828-2.145,1.244
				c-1.439,0.813-2.853,1.672-4.312,2.447l-0.709,0.362c-0.156,0.079-0.299,0.082-0.41-0.071c-0.078-0.107-0.171-0.207-0.233-0.323
				l-1.505-2.86c-0.359-0.704-0.686-1.423-1.033-2.133l-1.334-2.721c-0.279-0.592-0.588-1.187-0.749-1.81
				c-0.124-0.477-0.134-1.026-0.032-1.493c0.304-1.35,0.679-2.736,1.193-4.004c0.048-0.12,0.125-0.225,0.188-0.337l0.076,0.015
				c0.02,0.179,0.019,0.364,0.064,0.538c0.101,0.389,0.168,0.801,0.348,1.154c0.579,1.139,1.204,2.254,1.805,3.382l1.017,1.952
				l1.735,3.239c0.31,0.572,0.348,0.576,0.909,0.254l3.219-1.849l3.128-1.998l2.253-1.445
				C226.092,262.037,226.513,261.737,226.988,261.399z"/>
			<path class="st0" d="M148.781,274.46c-0.121,0.41-0.264,0.769-0.33,1.145c-0.08,0.456-0.124,0.925-0.132,1.391l-0.205,12.387
				c-0.002,0.107-0.039,0.229-0.102,0.315c-0.604,0.808-1.372,1.474-2.177,2.111c-0.624,0.494-1.282,0.956-1.935,1.43
				c-0.209,0.152-0.435,0.204-0.709,0.195l-5.966-0.445c-0.16-0.012-0.331,0.056-0.491,0.106c-0.139,0.044-0.268,0.114-0.402,0.173
				l-0.076-0.075c0.134-0.153,0.249-0.327,0.405-0.456c1.212-1.001,2.447-1.946,3.776-2.745c0.348-0.209,0.7-0.306,1.121-0.258
				c0.72,0.071,1.443,0.135,2.167,0.15c0.219,0.009,0.297-0.054,0.307-0.269l0.447-9.884c0.047-0.932,0.321-1.775,1.026-2.449
				c0.951-0.909,1.874-1.823,2.897-2.586C148.517,274.611,148.643,274.546,148.781,274.46z"/>
			<path class="st0" d="M196.071,286.69c0.151-0.359,0.313-0.714,0.443-1.077c0.048-0.134,0.07-0.304,0.026-0.432l-4.476-13.021
				c-0.28-0.805-0.289-1.536,0.094-2.261c0.56-1.066,1.098-2.109,1.607-3.22c0.092-0.194,0.235-0.358,0.411-0.508
				c-0.007,0.18-0.045,0.366-0.014,0.541c0.051,0.287,0.123,0.576,0.226,0.849l4.867,12.91c0.142,0.373,0.134,0.704-0.018,1.058
				c-0.696,1.671-1.527,3.188-2.601,4.673c-0.106,0.144-0.225,0.28-0.343,0.416c-0.037,0.043-0.091,0.074-0.137,0.111
				L196.071,286.69z"/>
			<path class="st0" d="M168.537,272.485c-0.15,0.278-0.284,0.57-0.457,0.832c-0.774,1.164-1.627,2.282-2.632,3.287
				c-0.206,0.206-0.428,0.307-0.715,0.343c-1.18,0.176-2.372,0.247-3.562,0.336l-3.569,0.272c-2.383,0.128-4.773,0.132-7.159,0.2
				c-0.567-0.012-1.045,0.061-1.469,0.46c-0.111,0.104-0.258,0.166-0.388,0.247l-0.061-0.053c0.058-0.107,0.097-0.233,0.176-0.319
				c0.477-0.518,0.934-1.056,1.436-1.532c0.615-0.59,1.261-1.182,1.894-1.751c0.4-0.363,0.855-0.621,1.37-0.708
				c0.203-0.034,0.417,0.017,0.626,0.012c1.124-0.044,2.253-0.018,3.374-0.115l3.364-0.257c2.249-0.114,4.472-0.467,6.704-0.732
				c0.255-0.032,0.473-0.099,0.647-0.308c0.094-0.113,0.224-0.192,0.337-0.286L168.537,272.485z"/>
			<path class="st0" d="M213.375,280.226c0.056-0.247,0.087-0.5,0.17-0.74c0.49-1.422,1.008-2.82,1.711-4.13
				c0.49-0.932,1.194-1.641,2.14-2.181l5.081-2.912c1.66-1.026,3.291-2.101,4.936-3.151c0.38-0.248,0.756-0.509,1.09-0.814
				c0.141-0.133,0.199-0.357,0.29-0.54l0.207-0.435l0.083,0.02c-0.01,0.208-0.001,0.419-0.036,0.624
				c-0.251,1.569-0.676,3.029-1.288,4.51c-0.212,0.501-0.545,0.89-1.023,1.226c-1.79,1.309-3.718,2.401-5.644,3.491
				c-0.967,0.538-1.916,1.108-2.899,1.616l-2.949,1.524c-0.608,0.321-1.088,0.772-1.412,1.379c-0.101,0.19-0.232,0.367-0.349,0.55
				L213.375,280.226z"/>
			<path class="st0" d="M187.63,266.166c-0.014,0.118-0.007,0.246-0.045,0.353c-0.112,0.308-0.066,0.599,0.035,0.913l3.397,10.625
				c0.122,0.381-0.035,0.737-0.174,1.055c-0.31,0.736-0.697,1.395-1.105,2.065c-0.393,0.637-0.844,1.246-1.287,1.864
				c-0.092,0.129-0.22,0.234-0.332,0.35l-0.081-0.029c0.022-0.143,0.018-0.295,0.071-0.427c0.091-0.226,0.09-0.434,0.023-0.667
				l-3.077-10.722c-0.126-0.439-0.012-0.847,0.158-1.205c0.41-0.863,0.846-1.703,1.287-2.527c0.253-0.456,0.544-0.923,0.82-1.376
				c0.068-0.114,0.162-0.207,0.244-0.31L187.63,266.166z"/>
			<path class="st0" d="M160.538,277.503c0.012,0.151,0.021,0.264,0.03,0.376l0.838,10.458c0.056,0.64-0.099,1.166-0.507,1.641
				c-0.972,1.131-2.02,2.22-3.237,3.165c-0.116,0.085-0.248,0.151-0.43,0.191c0.026-0.073,0.035-0.158,0.079-0.219
				c0.215-0.289,0.231-0.617,0.214-0.954l-0.528-10.48c-0.018-0.335,0.063-0.588,0.265-0.835c0.914-1.1,1.842-2.16,2.881-3.083
				c0.076-0.067,0.157-0.128,0.238-0.187C160.41,277.554,160.445,277.545,160.538,277.503z"/>
			<path class="st0" d="M154.074,278.444c-0.078,0.125-0.143,0.263-0.238,0.373c-0.345,0.395-0.43,0.873-0.419,1.381l0.211,8.86
				c0.009,0.333-0.069,0.603-0.303,0.831c-0.825,0.803-1.655,1.614-2.53,2.395c-0.428,0.393-0.915,0.681-1.386,1.007
				c-0.127,0.087-0.274,0.149-0.413,0.222l-0.071-0.063c0.132-0.162,0.278-0.316,0.391-0.489c0.094-0.144,0.211-0.309,0.213-0.468
				l0.054-9.092c0-0.48,0.186-0.87,0.451-1.186c0.521-0.615,1.078-1.263,1.662-1.832c0.631-0.623,1.311-1.184,1.963-1.765
				c0.107-0.095,0.24-0.157,0.361-0.235L154.074,278.444z"/>
			<path class="st0" d="M206.807,260.256c0.037,0.133,0.07,0.189,0.063,0.235c-0.075,0.463,0.114,0.861,0.324,1.267l3.852,7.531
				c0.089,0.177,0.075,0.449,0.016,0.65c-0.41,1.385-0.908,2.771-1.615,4.067c-0.056,0.098-0.127,0.189-0.192,0.282
				c-0.021,0.029-0.049,0.054-0.098,0.108c-0.048-0.102-0.084-0.176-0.119-0.249l-3.856-8.104c-0.219-0.465-0.139-0.947-0.002-1.399
				c0.385-1.378,0.815-2.718,1.394-3.972C206.63,260.55,206.704,260.439,206.807,260.256z"/>
			<path class="st0" d="M129.059,272.09c-0.125,0.425-0.283,0.833-0.365,1.255c-0.231,1.2-0.438,2.406-0.639,3.612
				c-0.163,0.977-0.289,1.961-0.462,2.936c-0.069,0.388-0.194,0.774-0.354,1.133c-0.091,0.205-0.281,0.385-0.467,0.524
				c-1.176,0.877-2.42,1.681-3.78,2.327c-0.187,0.082-0.388,0.133-0.61,0.207c0.004-0.075-0.006-0.115,0.007-0.125
				c0.53-0.387,0.623-0.993,0.754-1.575c0.146-0.65,0.279-1.303,0.407-1.957l0.907-4.691c0.092-0.494,0.323-0.867,0.703-1.16
				c1.152-0.878,2.317-1.697,3.551-2.351c0.095-0.051,0.196-0.088,0.296-0.127C129.039,272.085,129.074,272.088,129.059,272.09z"/>
			<path class="st1" d="M113.863,268.788c-0.426,0.533-0.479,0.573-0.017,1.168c0.599,0.772,1.341,1.431,2.036,2.143
				c0.12,0.123,0.256,0.233,0.364,0.367c0.18,0.222,0.14,0.647-0.108,0.813c-0.596,0.398-1.2,0.795-1.837,1.134
				c-0.686,0.365-1.407,0.668-2.127,0.984c-0.193,0.085-0.402,0.128-0.64,0.201c0.082-0.191,0.207-0.343,0.182-0.455
				c-0.045-0.192-0.132-0.437-0.279-0.551c-0.766-0.605-1.326-1.399-1.944-2.123c-0.181-0.212-0.331-0.462-0.453-0.715
				c-0.15-0.309-0.069-0.607,0.235-0.786c0.668-0.393,1.332-0.788,2.014-1.122c0.706-0.347,1.433-0.625,2.144-0.928
				C113.567,268.861,113.718,268.832,113.863,268.788z"/>
			<path class="st1" d="M107.898,279.52c-0.388,0.524-0.038,0.791,0.255,1.099c0.376,0.397,0.733,0.816,1.088,1.239l1.145,1.33
				c0.253,0.299,0.239,0.5-0.102,0.702c-0.637,0.373-1.292,0.764-1.97,1.052c-0.773,0.326-1.586,0.584-2.395,0.86
				c-0.135,0.046-0.286,0.053-0.499,0.09c0.31-0.448-0.061-0.701-0.257-0.958c-0.362-0.477-0.779-0.914-1.175-1.362
				c-0.368-0.416-0.753-0.815-1.105-1.236c-0.273-0.326-0.218-0.671,0.163-0.865c0.706-0.36,1.417-0.707,2.14-1.013
				c0.722-0.305,1.464-0.553,2.191-0.821C107.519,279.584,107.673,279.569,107.898,279.52z"/>
			<path class="st1" d="M113.652,278.186c-0.15,0.117-0.274,0.238-0.418,0.322c-1.24,0.712-2.554,1.41-3.926,1.846
				c-0.309,0.1-0.515,0.04-0.712-0.221c-0.503-0.666-1.108-1.22-1.741-1.748c-0.339-0.282-0.628-0.632-0.882-0.99
				c-0.07-0.098,0.018-0.362,0.109-0.503c0.086-0.134,0.261-0.223,0.412-0.303c1.357-0.714,2.719-1.365,4.14-1.824
				c0.129-0.042,0.266-0.059,0.48-0.106c-0.095,0.117-0.128,0.189-0.182,0.219c-0.271,0.151-0.261,0.337-0.074,0.548
				c0.254,0.283,0.479,0.618,0.782,0.827C112.391,276.792,113.019,277.458,113.652,278.186z"/>
			<path class="st0" d="M132.319,290.713c-1.3,1.356-2.247,2.827-1.65,4.805c0.227-0.061,0.407-0.109,0.588-0.157l0.05,0.062
				c-0.135,0.129-0.258,0.274-0.41,0.385c-1.212,0.872-2.493,1.75-3.895,2.367c-0.204,0.09-0.416,0.171-0.633,0.236
				c-0.326,0.098-0.533,0.005-0.596-0.292c-0.145-0.677-0.192-1.377,0.084-1.998c0.35-0.789,0.697-1.595,1.364-2.221
				c0.751-0.697,1.615-1.264,2.504-1.833c0.689-0.432,1.397-0.83,2.091-1.237c0.132-0.077,0.286-0.121,0.429-0.18L132.319,290.713z"
				/>
		</g>
		<g>
			<path class="st0" d="M243.021,231.569c0.145,0.342,0.334,0.614,0.745,0.646l2.046,0.175c1.227,0.09,2.465,0.17,3.714,0.218
				c0.609,0.02,1.201-0.047,1.808-0.029c0.465,0.013,0.516,0.075,0.583,0.54c0.226,1.446,0.285,2.851,0.171,4.296
				c-0.008,0.104-0.017,0.214-0.061,0.305c-0.028,0.058-0.121,0.123-0.183,0.12l-1.724-0.09l-2.725-0.108
				c-0.7-0.039-1.384-0.084-2.098-0.158c-0.183-0.019-0.367-0.037-0.633-0.065c0.308,0.289,0.598,0.447,0.924,0.502
				c0.825,0.146,1.631,0.234,2.443,0.341c0.268,0.035,0.531,0.123,0.799,0.149c0.906,0.088,1.818,0.172,2.738,0.213
				c0.758,0.034,1.524-0.003,2.29,0.017c0.46,0.012,0.917,0.099,1.379,0.127c0.41,0.025,0.825-0.004,1.235,0.027
				c0.432,0.033,0.88,0.064,1.281,0.174c0.38,0.105,0.573,0.443,0.608,0.862c0.105,1.453,0.15,2.926-0.025,4.425
				c-0.015,0.128-0.046,0.256-0.074,0.383c-0.008,0.036-0.035,0.068-0.057,0.11c-0.488-0.558-1.156-0.551-1.824-0.565
				c-0.556-0.011-1.106-0.084-1.658-0.103c-0.907-0.029-1.813-0.025-2.738-0.102c-1.17-0.089-2.329-0.199-3.474-0.353
				c-0.997-0.134-1.984-0.303-2.955-0.518c-0.782-0.173-1.348-0.661-1.681-1.412c-0.093-0.209-0.192-0.419-0.318-0.608
				c-0.4-0.602-0.499-1.282-0.518-1.95c-0.055-1.696-0.058-3.337-0.132-5.006c-0.036-0.721-0.014-1.436-0.016-2.146
				c0-0.14,0.036-0.276,0.055-0.414L243.021,231.569z"/>
			<path class="st0" d="M265.106,195.051c0.048,0.041,0.1,0.079,0.144,0.124c0.227,0.232,0.487,0.295,0.8,0.212l2.35-0.623
				c1.407-0.385,2.766-0.742,4.071-1.359c0.33-0.157,0.713-0.219,1.079-0.304c0.076-0.018,0.227,0.046,0.263,0.112
				c0.357,0.665,0.723,1.333,1.03,2.031c0.315,0.707,0.562,1.442,0.792,2.162c0.035,0.106,0.067,0.224,0.056,0.332
				c-0.007,0.067-0.085,0.161-0.151,0.183l-1.661,0.507l-2.615,0.822l-1.992,0.562l-0.527,0.14l-0.005,0.092
				c0.24,0.034,0.486,0.114,0.719,0.091c0.537-0.051,1.07-0.143,1.602-0.245c0.621-0.12,1.242-0.256,1.859-0.412
				c0.878-0.222,1.758-0.456,2.634-0.726c0.693-0.213,1.369-0.493,2.065-0.718c0.509-0.167,1.056-0.269,1.557-0.424l0.824-0.283
				c0.407-0.124,0.818-0.241,1.23-0.351c0.393-0.105,0.791,0.03,0.978,0.398c0.339,0.671,0.673,1.362,0.942,2.071
				c0.267,0.739,0.475,1.507,0.697,2.275c0.045,0.157,0.052,0.328,0.083,0.535c-0.691-0.381-1.327-0.144-1.972,0.077
				c-0.52,0.179-1.056,0.291-1.576,0.457c-0.871,0.279-1.728,0.59-2.594,0.846c-1.092,0.332-2.235,0.617-3.371,0.863
				c-0.913,0.199-1.836,0.325-2.743,0.5c-0.723,0.14-1.367-0.061-1.966-0.425c-0.27-0.164-0.464-0.446-0.717-0.646
				c-0.676-0.536-1.081-1.242-1.364-2.002c-0.606-1.689-1.302-3.392-2-5.055c-0.191-0.456-0.336-0.925-0.495-1.386
				c-0.046-0.134-0.062-0.275-0.092-0.412L265.106,195.051z"/>
			<path class="st0" d="M262.376,202.21c0.47,0.692,1.253,0.876,1.943,1.197c3.213,1.503,6.421,3.016,9.663,4.452
				c0.599,0.265,0.925,0.628,1.119,1.193c0.19,0.552,0.343,1.121,0.523,1.732c0.473-0.146,0.833-0.258,1.193-0.369l1.653-0.573
				c0.252-0.088,0.447,0.003,0.539,0.24c0.251,0.651,0.516,1.304,0.706,1.986c0.255,0.879,0.394,1.762,0.552,2.651
				c0.031,0.173,0.001,0.362-0.002,0.589c-0.484-0.348-0.899-0.062-1.308,0.068c-0.511,0.162-1.011,0.361-1.52,0.517
				c-0.551,0.169-1.112,0.286-1.657,0.458l-2.974,0.958l-3.237,0.967c-0.227,0.065-0.457,0.114-0.691,0.171
				c-0.44-0.615-1.253-4.522-1.206-5.253c0.252-0.028,0.49-0.025,0.71-0.085c0.762-0.211,1.524-0.443,2.286-0.689
				c0.59-0.19,1.176-0.402,1.765-0.613c0.051-0.018,0.096-0.057,0.202-0.122c-0.157-0.079-0.273-0.136-0.388-0.194l-7.541-3.753
				c-0.519-0.253-0.836-0.619-1.025-1.099c-0.258-0.649-0.487-1.292-0.71-1.949c-0.233-0.661-0.437-1.325-0.6-1.995
				c-0.036-0.147-0.05-0.297-0.074-0.445L262.376,202.21z"/>
			<path class="st0" d="M271.165,174.746c0.052,0.004,0.075-0.001,0.087,0.008c0.63,0.43,1.358,0.569,2.088,0.713l8.557,1.696
				c0.402,0.077,0.65,0.268,0.859,0.582c0.432,0.662,0.827,1.324,1.247,1.992c0.098,0.158,0.203,0.391,0.346,0.426
				c0.334,0.082,0.714,0.152,1.038,0.066c0.608-0.161,1.1-0.552,1.529-1.061c0.918-1.124,1.317-2.469,1.581-3.882
				c0.086-0.472,0.151-0.949,0.257-1.416c0.221-0.974,0.276-1.954,0.188-2.946c-0.053-0.766-0.397-1.397-0.795-2.008
				c-0.227-0.35-0.407-0.731-0.603-1.099c-0.038-0.071-0.047-0.158-0.069-0.237l0.06-0.047c0.314,0.316,0.66,0.607,0.937,0.958
				c1.023,1.308,1.968,2.726,2.684,4.28c0.534,1.209,0.746,2.504,0.637,3.862c-0.057,0.711-0.176,1.421-0.304,2.124
				c-0.146,0.909-0.356,1.813-0.653,2.68c-0.291,0.84-0.657,1.648-1.245,2.342c-0.446,0.526-0.919,0.953-1.528,1.178
				c-0.258,0.095-0.554,0.085-0.833,0.089c-0.206,0.003-0.416-0.032-0.617-0.081c-0.098-0.024-0.213-0.094-0.266-0.18
				c-0.562-0.913-1.11-1.826-1.682-2.713c-0.084-0.13-0.239-0.258-0.383-0.292l-9.023-2.086c-0.88-0.2-1.557-0.621-2.043-1.371
				c-0.687-1.047-1.327-2.065-1.902-3.159c-0.051-0.097-0.091-0.198-0.132-0.299C271.167,174.833,271.171,174.796,271.165,174.746z"
				/>
			<path class="st0" d="M249.721,244.401c0.029,0.085,0.069,0.168,0.085,0.256c0.223,1.221,0.322,2.458,0.303,3.709
				c-0.01,0.625-0.049,1.254-0.118,1.886c-0.081,0.619-0.198,1.234-0.34,1.855c-0.293,1.269-0.804,2.513-1.54,3.644
				c-0.461,0.699-1.039,1.342-1.641,1.934c-0.355,0.364-0.791,0.653-1.149,1.015c-0.552,0.558-1.264,0.715-1.947,0.933
				c-0.466,0.149-0.938,0.274-1.41,0.382c-0.864,0.203-1.703,0.19-2.472-0.297c-0.217-0.136-0.477-0.208-0.697-0.34
				c-0.088-0.053-0.185-0.188-0.175-0.28c0.087-0.77,0.184-1.549,0.244-2.343c0.044-0.516,0.079-1.031,0.098-1.544
				c0.003-0.083-0.065-0.178-0.123-0.248l-3.32-4.006c-0.775-0.945-1.561-1.884-2.276-2.873c-0.314-0.434-0.539-0.973-0.526-1.532
				c0.032-1.404,0.116-2.784,0.366-4.117c0.024-0.129,0.071-0.251,0.107-0.376l0.081-0.013c0.123,0.255,0.235,0.515,0.371,0.764
				c0.103,0.188,0.219,0.375,0.36,0.538l5.849,6.759c0.148,0.173,0.168,0.497,0.154,0.747c-0.054,0.985-0.146,1.975-0.251,2.972
				c-0.023,0.215,0.026,0.341,0.227,0.42c0.475,0.188,0.904,0.467,1.452,0.504c0.56,0.037,1.101-0.018,1.642-0.17
				c0.573-0.169,1.169-0.326,1.723-0.53c0.382-0.132,0.728-0.319,1.036-0.607c0.898-0.84,1.793-1.69,2.491-2.699
				c0.289-0.417,0.544-0.843,0.73-1.294c0.174-0.463,0.275-0.956,0.275-1.486c-0.001-1.051,0.139-2.1,0.212-3.137
				c0.01-0.141,0.061-0.279,0.093-0.419L249.721,244.401z"/>
			<path class="st0" d="M285.004,150.719c0.187,0.14,0.334,0.225,0.451,0.341c0.995,0.998,1.944,2.059,2.761,3.258
				c0.284,0.418,0.324,0.866,0.279,1.343c-0.023,0.244-0.064,0.488-0.071,0.732c-0.005,1.654-0.199,3.298-0.305,4.947
				c-0.143,1.646-0.202,3.301-0.448,4.937l-0.102,0.789c-0.023,0.173-0.101,0.293-0.29,0.297c-0.133,0.003-0.267,0.023-0.398,0.008
				l-3.208-0.389c-0.783-0.105-1.561-0.245-2.342-0.364l-2.997-0.451c-0.646-0.107-1.311-0.192-1.915-0.413
				c-0.463-0.17-0.923-0.474-1.25-0.824c-0.479-0.51-0.922-1.037-1.347-1.58c-0.445-0.545-0.861-1.105-1.247-1.679
				c-0.072-0.108-0.116-0.231-0.173-0.347l0.055-0.054c0.16,0.086,0.311,0.192,0.48,0.254c0.378,0.138,0.757,0.318,1.149,0.371
				c1.266,0.172,2.539,0.292,3.809,0.44l2.184,0.274l3.651,0.416c0.646,0.07,0.671,0.042,0.721-0.604
				c0.185-2.468,0.431-4.932,0.443-7.409l0.068-2.676C284.977,151.819,284.99,151.302,285.004,150.719z"/>
			<path class="st0" d="M251.228,222.452c0.27,0.334,0.484,0.657,0.756,0.926c0.33,0.326,0.691,0.63,1.068,0.902l10.061,7.229
				c0.086,0.062,0.167,0.163,0.201,0.264c0.326,0.962,0.443,1.979,0.516,3.009c0.067,0.808,0.035,1.584,0.041,2.384
				c0,0.254-0.092,0.466-0.262,0.68l-1.856,2.347c-0.614,0.786-1.224,1.575-1.886,2.321c-0.104,0.122-0.15,0.298-0.203,0.455
				c-0.047,0.136-0.065,0.281-0.096,0.421l-0.106,0.018c-0.046-0.195-0.122-0.387-0.135-0.586c-0.052-0.773-0.09-1.542-0.099-2.308
				c-0.026-0.781-0.028-1.564,0.015-2.344c0.022-0.409,0.139-0.756,0.413-1.079c0.469-0.552,0.896-1.138,1.352-1.701
				c0.138-0.17,0.133-0.269-0.038-0.4l-7.864-6.005c-0.739-0.57-1.268-1.271-1.401-2.219c-0.19-1.287-0.444-2.588-0.495-3.867
				C251.204,222.757,251.221,222.615,251.228,222.452z"/>
			<path class="st0" d="M288.186,190.534c-0.21-0.329-0.41-0.664-0.635-0.978c-0.083-0.116-0.211-0.23-0.341-0.267l-13.256-3.723
				c-0.822-0.227-1.429-0.636-1.808-1.363c-0.571-1.07-1.099-2.1-1.727-3.151c-0.108-0.186-0.161-0.397-0.185-0.627
				c0.145,0.108,0.276,0.245,0.437,0.319c0.265,0.122,0.544,0.226,0.826,0.297l13.387,3.337c0.388,0.095,0.655,0.29,0.861,0.617
				c0.955,1.517,1.752,3.068,2.359,4.795c0.058,0.169,0.103,0.344,0.148,0.519c0.014,0.055,0.009,0.117,0.013,0.176L288.186,190.534
				z"/>
			<path class="st0" d="M260.836,205.099c0.144,0.282,0.31,0.558,0.427,0.851c0.522,1.301,0.961,2.641,1.222,4.041
				c0.053,0.287,0.012,0.528-0.12,0.785c-0.547,1.059-1.18,2.072-1.764,3.112c-0.604,1.028-1.168,2.08-1.801,3.09l-1.936,3.009
				c-0.64,1.007-1.283,2.011-2,2.965c-0.331,0.46-0.534,0.901-0.444,1.479c0.024,0.151-0.007,0.308-0.014,0.463l-0.077,0.02
				c-0.056-0.109-0.138-0.213-0.164-0.327c-0.16-0.691-0.347-1.377-0.458-2.064c-0.139-0.844-0.212-1.68-0.314-2.52
				c-0.075-0.537-0.033-1.061,0.184-1.536c0.086-0.187,0.247-0.335,0.36-0.511l1.823-2.837c0.598-0.951,1.128-1.944,1.697-2.913
				c0.553-0.978,1.138-1.939,1.67-2.929l1.537-3c0.118-0.229,0.185-0.446,0.111-0.709c-0.04-0.142-0.032-0.294-0.046-0.441
				L260.836,205.099z"/>
			<path class="st0" d="M292.721,172.626c-0.172-0.187-0.363-0.357-0.514-0.56c-0.896-1.212-1.758-2.434-2.441-3.758
				c-0.481-0.932-0.706-1.92-0.566-3c0.339-3.888,0.674-7.78,0.692-11.684c0.011-0.453-0.004-0.911-0.056-1.359
				c-0.022-0.192-0.167-0.366-0.259-0.546l-0.224-0.418l0.066-0.057c0.16,0.127,0.335,0.239,0.479,0.385
				c1.084,1.099,2.107,2.281,2.973,3.626c0.296,0.459,0.43,0.954,0.44,1.538c-0.026,4.425-0.532,8.832-1.096,13.218
				c-0.078,0.683,0.023,1.335,0.34,1.947c0.099,0.191,0.172,0.399,0.256,0.6L292.721,172.626z"/>
			<path class="st0" d="M266.506,185.807c0.09,0.079,0.199,0.146,0.264,0.238c0.19,0.268,0.456,0.395,0.772,0.491l10.671,3.248
				c0.383,0.116,0.586,0.448,0.77,0.743c0.414,0.669,0.743,1.364,1.062,2.081c0.302,0.686,0.547,1.404,0.804,2.12
				c0.054,0.149,0.068,0.314,0.1,0.472l-0.07,0.05c-0.105-0.099-0.233-0.183-0.311-0.301c-0.135-0.204-0.306-0.321-0.536-0.398
				l-10.569-3.566c-0.433-0.146-0.704-0.472-0.902-0.815c-0.478-0.828-0.922-1.665-1.351-2.497c-0.234-0.468-0.43-0.966-0.657-1.454
				c-0.055-0.12-0.079-0.252-0.117-0.377L266.506,185.807z"/>
			<path class="st0" d="M260.426,214.536c0.131,0.076,0.229,0.133,0.326,0.189l9.077,5.262c0.558,0.318,0.904,0.746,1.065,1.353
				c0.382,1.446,0.705,2.942,0.732,4.447c0.005,0.145-0.015,0.292-0.084,0.465c-0.046-0.063-0.111-0.119-0.135-0.19
				c-0.117-0.343-0.378-0.543-0.665-0.721l-8.917-5.531c-0.284-0.175-0.453-0.389-0.531-0.691c-0.33-1.344-0.703-2.728-0.875-4.109
				c-0.013-0.101-0.017-0.202-0.02-0.303C260.397,214.672,260.409,214.637,260.426,214.536z"/>
			<path class="st0" d="M257.525,220.384c0.059,0.136,0.136,0.268,0.173,0.409c0.132,0.51,0.477,0.853,0.901,1.133l7.402,4.873
				c0.279,0.182,0.457,0.4,0.513,0.725l0.291,1.718c0.077,0.565,0.149,1.134,0.208,1.707c0.058,0.561,0.034,1.138,0.036,1.713
				c0,0.155-0.031,0.312-0.049,0.469l-0.091,0.023c-0.059-0.202-0.104-0.411-0.183-0.604c-0.066-0.16-0.136-0.351-0.265-0.443
				l-7.44-5.225c-0.394-0.273-0.61-0.65-0.723-1.05c-0.221-0.788-0.398-1.588-0.521-2.383c-0.137-0.862-0.233-1.755-0.341-2.622
				c-0.019-0.143,0.005-0.288,0.009-0.432L257.525,220.384z"/>
			<path class="st0" d="M272.544,166.668c0.131,0.045,0.196,0.05,0.229,0.082c0.339,0.325,0.774,0.396,1.228,0.455l8.385,1.116
				c0.196,0.027,0.413,0.194,0.545,0.357c0.898,1.124,1.803,2.329,2.414,3.639c0.049,0.102,0.084,0.212,0.124,0.319
				c0.012,0.034,0.017,0.07,0.033,0.142c-0.111-0.018-0.192-0.031-0.273-0.044l-8.858-1.438c-0.506-0.084-0.859-0.425-1.153-0.795
				c-0.863-1.093-1.767-2.216-2.463-3.404C272.687,166.981,272.637,166.857,272.544,166.668z"/>
			<path class="st0" d="M238.054,237.318c0.279,0.346,0.525,0.71,0.825,1.018c0.855,0.874,1.727,1.731,2.603,2.584
				c0.71,0.691,1.446,1.354,2.148,2.053c0.279,0.278,0.526,0.601,0.732,0.939c0.117,0.193,0.16,0.454,0.17,0.688
				c0.045,1.46-0.033,2.911-0.296,4.377c-0.037,0.203-0.107,0.401-0.169,0.628c-0.06-0.045-0.098-0.06-0.098-0.077
				c-0.023-0.664-0.468-1.084-0.871-1.524c-0.451-0.491-0.912-0.972-1.376-1.45l-3.337-3.418c-0.352-0.356-0.536-0.767-0.551-1.237
				c-0.053-1.436-0.018-2.816,0.138-4.215c0.012-0.108,0.037-0.214,0.06-0.32C238.039,237.332,238.061,237.305,238.054,237.318z"/>
			<path class="st1" d="M226.635,247.898c0.193,0.649,0.194,0.714,0.956,0.685c0.989-0.038,1.967-0.257,2.962-0.408
				c0.175-0.023,0.334-0.081,0.506-0.096c0.281-0.026,0.607,0.247,0.605,0.55c0.003,0.734-0.032,1.437-0.121,2.146
				c-0.099,0.761-0.269,1.516-0.428,2.277c-0.042,0.204-0.129,0.397-0.207,0.63c-0.11-0.176-0.163-0.364-0.27-0.408
				c-0.187-0.076-0.432-0.136-0.608-0.077c-0.918,0.306-1.877,0.333-2.811,0.447c-0.281,0.024-0.574,0.001-0.855-0.046
				c-0.342-0.057-0.542-0.293-0.513-0.641c0.069-0.756,0.117-1.534,0.217-2.302c0.107-0.791,0.282-1.562,0.427-2.333
				C226.522,248.176,226.587,248.039,226.635,247.898z"/>
			<path class="st1" d="M232.102,258.952c0.214,0.621,0.626,0.476,1.04,0.403c0.533-0.094,1.073-0.158,1.615-0.22
				c0.582-0.066,1.168-0.123,1.757-0.17c0.394-0.032,0.552,0.094,0.52,0.485c-0.059,0.731-0.128,1.47-0.269,2.2
				c-0.161,0.835-0.401,1.663-0.623,2.499c-0.037,0.139-0.115,0.27-0.203,0.47c-0.197-0.515-0.603-0.337-0.929-0.328
				c-0.604,0.018-1.207,0.104-1.807,0.166c-0.557,0.058-1.11,0.139-1.663,0.181c-0.428,0.033-0.681-0.21-0.621-0.629
				c0.112-0.776,0.237-1.549,0.404-2.307c0.163-0.762,0.4-1.487,0.585-2.249C231.944,259.307,232.017,259.169,232.102,258.952z"/>
			<path class="st1" d="M234.283,253.464c0.009,0.188,0.037,0.356,0.022,0.521c-0.126,1.419-0.344,2.839-0.742,4.247
				c-0.089,0.316-0.252,0.456-0.575,0.476c-0.828,0.041-1.596,0.267-2.41,0.46c-0.43,0.111-0.888,0.143-1.331,0.143
				c-0.122,0-0.289-0.223-0.353-0.376c-0.061-0.146-0.033-0.339-0.011-0.506c0.098-0.753,0.214-1.492,0.354-2.231
				c0.128-0.754,0.286-1.496,0.491-2.225c0.037-0.133,0.099-0.258,0.179-0.464c0.043,0.146,0.084,0.214,0.079,0.277
				c-0.026,0.314,0.131,0.41,0.407,0.37c0.373-0.053,0.765-0.063,1.119-0.182C232.396,253.679,233.312,253.556,234.283,253.464z"/>
			<path class="st0" d="M255.22,245.264c0.385,1.852,1.014,3.433,3.003,4.093c0.083-0.218,0.149-0.391,0.215-0.564l0.078-0.006
				c0.032,0.188,0.078,0.367,0.08,0.553c0.015,1.483-0.049,2.985-0.32,4.507c-0.039,0.222-0.092,0.444-0.159,0.662
				c-0.101,0.328-0.292,0.448-0.571,0.331c-0.635-0.264-1.235-0.622-1.59-1.205c-0.452-0.741-0.92-1.488-1.062-2.4
				c-0.161-1.03-0.137-2.066-0.073-3.098c0.049-0.801,0.14-1.596,0.213-2.389c0.01-0.154,0.06-0.307,0.091-0.46L255.22,245.264z"/>
		</g>
	</g>
	<g>
		<path class="st2" d="M175.231,22.452c0.78-3.928-5.391-4.59-4.976-7.561c0.18-1.262,1.287-1.917,2.5-1.679
			c1.71,0.305,2.294,1.634,2.25,3.228l0.632,0.113l0.568-2.725c-0.782-0.422-2.079-0.974-3.185-1.17
			c-1.111-0.217-2.152-0.035-2.943,0.459c-0.79,0.488-1.328,1.284-1.472,2.369c-0.243,1.851,1.18,2.847,2.562,3.867
			c1.382,1.043,2.74,2.016,2.453,3.585c-0.258,1.406-1.541,2.062-2.908,1.816c-1.888-0.333-2.242-1.729-2.417-3.661l-0.628-0.08
			l-0.253,3.128c0.903,0.58,1.976,0.996,3.008,1.201C172.88,25.783,174.824,24.508,175.231,22.452z"/>
		<path class="st2" d="M184.267,27.205l-1.864-0.068l-0.102,0.395l4.767,1.355l0.118-0.391l-1.312-0.795
			c0,0-0.203-3.143-0.513-6.316c-0.152-1.586-0.325-3.177-0.465-4.373c-0.15-1.177-0.25-1.962-0.25-1.962l-0.546-0.126
			c0,0-1.889,2.599-3.668,5.225c-1.79,2.623-3.468,5.27-3.468,5.27s-0.381,0.031-0.762,0.061c-0.383,0.049-0.767,0.097-0.767,0.097
			l-0.076,0.382c0,0,0.249,0.044,0.622,0.11c0.369,0.085,0.862,0.198,1.354,0.312c0.985,0.228,1.969,0.455,1.969,0.455l0.088-0.379
			l-1.588-0.824l2.065-3.234c0,0,1.015,0.234,2.03,0.468c0.507,0.117,1.015,0.234,1.396,0.322c0.376,0.107,0.626,0.178,0.626,0.178
			L184.267,27.205z M183.25,17.411c0,0,0.159,1.303,0.319,2.605c0.14,1.308,0.281,2.617,0.281,2.617s-0.219-0.071-0.555-0.149
			c-0.336-0.077-0.783-0.18-1.231-0.284c-0.895-0.207-1.791-0.413-1.791-0.413s0.736-1.096,1.472-2.192
			C182.497,18.503,183.25,17.411,183.25,17.411z"/>
		<path class="st2" d="M188.249,29.222l4.877,1.652c1.325,0.416,2.428,0.509,3.336,0.176c0.899-0.315,1.572-0.978,1.923-1.866
			c0.803-2.01-0.648-3.419-2.255-4.147c1.907,0.208,3.342-0.443,3.865-1.777c0.412-1.054,0.18-1.918-0.391-2.612
			c-0.568-0.699-1.474-1.218-2.413-1.517l-5.249-1.775l-0.121,0.39l1.589,1.026l-3.311,10.158l-1.73-0.098L188.249,29.222z
			 M193.565,23.857l1.577-4.635c0.406,0.059,1.062,0.222,1.608,0.407c1.502,0.488,1.995,1.586,1.434,3.078
			c-0.599,1.592-1.844,2.067-3.339,1.584L193.565,23.857z M196.561,28.703c-0.635,1.666-1.74,2.086-3.736,1.443
			c-0.485-0.164-0.885-0.358-1.207-0.564l1.739-5.11l1.187,0.402C196.55,25.52,197.224,26.967,196.561,28.703z"/>
		<path class="st2" d="M206.024,23.578l1.853,0.329l0.169-0.372c0,0-1.245-0.562-2.49-1.125c-0.618-0.292-1.251-0.546-1.73-0.729
			c-0.476-0.188-0.794-0.314-0.794-0.314l-0.154,0.378l1.521,1.099l-4.161,9.84l-1.74-0.186l-0.154,0.378
			c0,0,0.289,0.114,0.723,0.284c0.436,0.166,1.014,0.396,1.575,0.664c1.133,0.513,2.266,1.026,2.266,1.026l0.169-0.372l-1.341-1.115
			L206.024,23.578z"/>
		<path class="st2" d="M204.187,35.428c0,0,0.292,0.132,0.731,0.33c0.444,0.187,1.016,0.478,1.585,0.775
			c1.142,0.585,2.284,1.171,2.284,1.171c0.913,0.473,1.817,0.731,2.67,0.851c0.845,0.134,1.661,0.085,2.432-0.131
			c1.54-0.433,2.903-1.532,3.892-3.221c0.89-1.521,1.133-3.082,0.646-4.554c-0.243-0.736-0.667-1.449-1.277-2.119
			c-0.608-0.673-1.441-1.232-2.441-1.755c0,0-1.306-0.669-2.612-1.337c-0.652-0.336-1.304-0.673-1.811-0.888
			c-0.501-0.227-0.836-0.378-0.836-0.378l-0.173,0.37c0,0,0.367,0.293,0.734,0.586c0.368,0.289,0.726,0.594,0.726,0.594
			l-4.652,9.617c0,0-0.428-0.081-0.862-0.145c-0.432-0.068-0.863-0.135-0.863-0.135L204.187,35.428z M216.12,34.419
			c-2.008,3.508-4.53,3.914-7.058,2.675l-1.604-0.822l4.958-9.922l1.778,0.911c0.864,0.442,1.513,0.949,1.976,1.497
			c0.461,0.552,0.715,1.182,0.83,1.806C217.224,31.824,216.838,33.153,216.12,34.419z"/>
		<path class="st2" d="M226.466,42.804c-1.653,2.322-3.587,2.583-5.05,1.605c-1.512-0.967-2.115-2.852-0.705-5.099l3.748-5.925
			l1.835,0.626l0.223-0.342c0,0-1.162-0.745-2.324-1.489c-0.584-0.368-1.156-0.754-1.604-1.014c-0.448-0.258-0.747-0.43-0.747-0.43
			l-0.209,0.351c0,0,0.336,0.327,0.672,0.654c0.333,0.33,0.652,0.682,0.652,0.682l-3.954,6.431c-1.54,2.537-0.262,4.902,1.577,6.078
			c1.886,1.23,4.507,1.243,6.422-1.403l4.093-5.715l1.738,0.713l0.242-0.329l-3.822-2.718l-0.231,0.337l1.339,1.474L226.466,42.804z
			"/>
		<path class="st2" d="M228.48,49.216l-1.6-0.67l-0.245,0.327l3.955,3.109l0.258-0.317l-1.073-1.431l3.073-3.884l0.52,0.409
			c0.651,0.511,0.789,1.044,0.655,1.812c0,0-0.189,1.139-0.419,2.296c-0.229,1.145-0.459,2.29-0.459,2.29
			c-0.161,0.817,0.002,1.327,0.585,1.832c0.544,0.471,1.133,0.76,1.408,0.875l0.272-0.304c-0.588-0.508-0.783-0.898-0.636-1.605
			c0,0,0.185-0.895,0.369-1.79c0.176-0.902,0.353-1.805,0.353-1.805c0.269-1.47-0.361-2.334-0.781-2.778
			c2.414,1.461,4.06,1.218,5.128-0.008c0.754-0.868,0.896-1.764,0.573-2.681c-0.328-0.91-1.087-1.879-2.226-2.741l-4.098-3.219
			l-0.245,0.327l1.155,1.496L228.48,49.216z M236.473,41.768c0.378,0.203,0.878,0.501,1.301,0.833
			c1.486,1.133,1.701,2.547,0.718,3.703c-1.153,1.356-2.772,1.439-4.167,0.381l-1.075-0.845L236.473,41.768z"/>
		<path class="st2" d="M246.178,50.357l1.643,0.927l0.286-0.292l-3.959-3.762l-0.274,0.302c0,0,0.261,0.393,0.511,0.795
			c0.251,0.4,0.503,0.799,0.503,0.799l-7.278,7.821c0,0-0.383-0.205-0.765-0.411c-0.381-0.207-0.768-0.403-0.768-0.403l-0.274,0.303
			l3.608,3.431l0.286-0.292l-0.894-1.492L246.178,50.357z M246.034,47.581c1.168,0.676,3.58,1.697,3.987,1.29
			c0.233-0.238,0.144-0.683-0.18-1.402c-0.815,0.042-2.624-0.195-3.809-0.402L246.034,47.581z"/>
		<path class="st2" d="M246.956,66.644l-1.525-1.082l-0.304,0.273l3.248,3.749l0.314-0.261l-0.661-1.383
			c0,0,1.565-2.725,3.058-5.534c1.501-2.801,2.928-5.683,2.928-5.683l-0.383-0.409c0,0-3.017,1.121-5.957,2.325
			c-2.948,1.195-5.817,2.471-5.817,2.471s-0.336-0.184-0.672-0.369c-0.334-0.186-0.675-0.362-0.675-0.362l-0.275,0.276l2.795,2.925
			l0.284-0.267l-0.873-1.561l3.517-1.552c0,0,0.719,0.754,1.439,1.508c0.367,0.37,0.708,0.764,0.961,1.062
			c0.256,0.295,0.426,0.492,0.426,0.492L246.956,66.644z M251.546,57.914c0,0-0.592,1.176-1.184,2.351
			c-0.615,1.174-1.23,2.347-1.23,2.347s-0.15-0.174-0.376-0.434c-0.221-0.265-0.528-0.607-0.851-0.934
			c-0.634-0.665-1.269-1.33-1.269-1.33s1.222-0.506,2.444-1.012C250.312,58.408,251.546,57.914,251.546,57.914z"/>
		<path class="st2" d="M259.158,78.343c3.427-2.258-0.62-6.988,1.882-8.845c1.029-0.761,2.223-0.395,2.939,0.611
			c1.006,1.415,0.48,2.757-0.682,3.842l0.367,0.526l2.338-1.507c-0.246-0.854-0.792-2.146-1.439-3.063
			c-1.316-1.85-3.314-2.525-5.079-1.185c-2.918,2.225,0.846,7.027-1.79,8.806c-1.182,0.803-2.567,0.361-3.372-0.772
			c-1.111-1.564-0.293-2.847,0.955-4.324l-0.39-0.498l-2.404,2.013c0.242,1.035,0.596,2.166,1.214,3.017
			c0.727,1.022,1.659,1.644,2.634,1.873C257.304,79.066,258.278,78.929,259.158,78.343z"/>
		<path class="st2" d="M262.114,88.124l-1.294-1.357l-0.353,0.205c0,0,0.618,1.074,1.236,2.149c0.311,0.536,0.624,1.071,0.825,1.491
			c0.211,0.414,0.352,0.69,0.352,0.69l0.361-0.191c0,0-0.079-0.378-0.157-0.756c-0.078-0.379-0.163-0.755-0.163-0.755
			s2.074-2.341,4.096-4.78c2.027-2.429,3.998-4.953,3.998-4.953l-0.28-0.486c0,0-0.784,0.12-1.96,0.301
			c-1.165,0.18-2.743,0.451-4.316,0.746c-3.143,0.579-6.225,1.253-6.225,1.253l-1.18-0.982l-0.325,0.214l2.184,3.404l0.332-0.204
			l-0.558-1.692l3.774-0.814c0,0,0.578,0.868,1.08,1.782c0.519,0.903,1.038,1.807,1.038,1.807L262.114,88.124z M268.373,80.518
			c0,0-0.827,1.036-1.655,2.071c-0.836,1.021-1.672,2.042-1.672,2.042s-0.458-0.797-0.916-1.594
			c-0.444-0.806-0.947-1.575-0.947-1.575s1.301-0.248,2.602-0.496C267.079,80.742,268.373,80.518,268.373,80.518z"/>
		<path class="st2" d="M267.657,98.827c-0.575-0.327-1.146-0.959-1.508-1.761c-0.299-0.658-0.425-1.304-0.417-1.923
			c-0.009-0.611,0.136-1.203,0.421-1.768c0.57-1.129,1.697-2.152,3.293-2.963c1.579-0.803,3.067-1.092,4.318-0.871
			c1.254,0.218,2.276,0.945,2.809,2.175c0.803,1.775,0.512,3.427-1.148,4.801l0.264,0.583l2.562-1.223
			c-0.059-0.851-0.469-2.974-1.076-4.316c-0.738-1.717-2.046-2.875-3.54-3.381c-1.51-0.502-3.274-0.315-5.186,0.691
			c-1.683,0.885-2.803,2.167-3.302,3.619c-0.508,1.46-0.334,3.059,0.393,4.76c0.605,1.342,1.729,2.473,2.608,3.157l3.53-1.51
			c0,0,0.289,0.322,0.539,0.663c0.258,0.338,0.516,0.676,0.516,0.676l0.377-0.156c0,0-0.458-1.205-1.012-2.37
			c-0.531-1.174-1.062-2.348-1.062-2.348l-0.37,0.17l0.314,1.821L267.657,98.827z"/>
		<path class="st2" d="M269.715,104.162l-1.046-1.39l-0.378,0.154c0,0,0.461,1.169,0.922,2.338c0.231,0.584,0.462,1.169,0.636,1.607
			c0.154,0.445,0.256,0.742,0.256,0.742l0.384-0.138c0,0-0.02-0.452-0.068-0.895c-0.051-0.443-0.102-0.886-0.102-0.886l4.636-1.741
			l0.243,0.616c0.306,0.769,0.104,1.313-0.411,1.902c0,0-0.776,0.876-1.551,1.753c-0.781,0.859-1.562,1.719-1.562,1.719
			c-0.555,0.615-0.673,1.133-0.425,1.863c0.231,0.681,0.599,1.227,0.752,1.475l0.39-0.12c-0.208-0.748-0.209-1.171,0.287-1.702
			c0,0,0.615-0.669,1.23-1.338c0.612-0.68,1.224-1.359,1.224-1.359c0.992-1.12,0.852-2.169,0.762-2.782
			c1.297,2.504,2.879,3.128,4.416,2.634c2.19-0.7,2.307-2.791,1.388-5.502c0,0-0.093-0.313-0.279-0.765
			c-0.179-0.455-0.418-1.061-0.656-1.667c-0.478-1.212-0.956-2.425-0.956-2.425l-0.378,0.154l0.239,1.87L269.715,104.162z
			 M280.425,101.896c0.216,0.37,0.523,0.871,0.685,1.385c0.6,1.769,0.136,3.063-1.323,3.553c-1.671,0.56-3.174-0.179-3.735-1.836
			c0,0-0.107-0.325-0.239-0.64c-0.126-0.318-0.251-0.636-0.251-0.636L280.425,101.896z"/>
		<path class="st2" d="M275.26,122.315l-0.843-1.672l-0.397,0.096c0,0,0.279,1.207,0.557,2.415c0.14,0.604,0.28,1.207,0.385,1.66
			c0.108,0.452,0.149,0.76,0.149,0.76l0.4-0.08c0,0,0.047-0.387,0.059-0.768c0.016-0.382,0.032-0.765,0.032-0.765
			s2.662-1.654,5.301-3.417c2.641-1.752,5.257-3.612,5.257-3.612l-0.126-0.546c0,0-0.786-0.108-1.965-0.27
			c-1.196-0.152-2.787-0.341-4.372-0.508c-3.172-0.341-6.313-0.572-6.313-0.572l-0.845-1.279l-0.373,0.113l1.104,3.888l0.376-0.101
			l-0.044-1.783l3.844,0.296c0,0,0.071,0.25,0.178,0.626c0.099,0.378,0.268,0.872,0.373,1.383c0.234,1.015,0.468,2.03,0.468,2.03
			L275.26,122.315z M283.448,116.802c0,0-1.091,0.758-2.182,1.516c-1.095,0.741-2.19,1.482-2.19,1.482s-0.206-0.895-0.413-1.791
			c-0.092-0.451-0.239-0.887-0.327-1.22c-0.094-0.331-0.157-0.552-0.157-0.552s1.32,0.132,2.639,0.264
			C282.133,116.651,283.448,116.802,283.448,116.802z"/>
		<path class="st2" d="M275.326,126.784c0,0,0.226,1.263,0.451,2.527c0.113,0.631,0.227,1.263,0.312,1.737
			c0.091,0.473,0.115,0.794,0.115,0.794c0.508,4.054,3.436,6.174,7.288,5.829c3.55-0.321,5.607-2.921,5.033-7.426
			c0,0-0.049-0.363-0.122-0.909c-0.097-0.542-0.225-1.264-0.354-1.986c-0.258-1.444-0.516-2.889-0.516-2.889l-0.401,0.076
			l-0.135,1.881l-10.52,1.859l-0.751-1.569L275.326,126.784z M283.147,135.866c-4.003,0.424-5.935-1.367-6.286-4.159
			c0,0-0.045-0.449-0.135-0.891c-0.08-0.444-0.159-0.887-0.159-0.887l10.947-1.789c0,0,0.088,0.492,0.175,0.983
			c0.098,0.49,0.148,0.987,0.148,0.987C288.329,133.98,286.042,135.558,283.147,135.866z"/>
		<path class="st2" d="M278.379,147.549l-0.491-1.808l-0.408,0.016l0.127,4.962h0.408l0.368-1.487c0,0,2.94-1.1,5.878-2.308
			c2.939-1.198,5.873-2.503,5.873-2.503l-0.015-0.56c0,0-0.754-0.261-1.886-0.652c-1.141-0.385-2.662-0.885-4.182-1.363
			c-3.04-0.962-6.071-1.812-6.071-1.812l-0.573-1.422l-0.388,0.036l0.306,4.034l0.389-0.024l0.312-1.758l3.707,1.052
			c0,0,0.077,1.039,0.155,2.079c0.026,1.042,0.052,2.084,0.052,2.084L278.379,147.549z M287.503,143.758c0,0-1.22,0.527-2.441,1.055
			c-1.221,0.51-2.442,1.021-2.442,1.021s-0.023-0.919-0.046-1.838c-0.068-0.917-0.135-1.833-0.135-1.833s1.267,0.39,2.534,0.781
			C286.238,143.351,287.503,143.758,287.503,143.758z"/>
	</g>
</g>
</svg>
