<?xml version="1.0" encoding="utf-8"?>
<!-- Generator: Adobe Illustrator 17.0.0, SVG Export Plug-In . SVG Version: 6.00 Build 0)  -->
<!DOCTYPE svg PUBLIC "-//W3C//DTD SVG 1.1//EN" "http://www.w3.org/Graphics/SVG/1.1/DTD/svg11.dtd">
<svg version="1.1" id="Capa_1" xmlns="http://www.w3.org/2000/svg" xmlns:xlink="http://www.w3.org/1999/xlink" x="0px" y="0px"
	 width="300px" height="300px" viewBox="0 0 300 300" style="enable-background:new 0 0 300 300;" xml:space="preserve">
<style type="text/css">
	.st0{fill:#AAAAAA;}
</style>
<g>
	<g>
		<path class="st0" d="M293.532,150.066c-0.03,0.128-0.074,0.254-0.089,0.383c-0.049,0.422-0.047,0.845,0.031,1.261
			c0.057,0.306,0.118,0.617,0.289,0.888c0.064,0.101,0.134,0.202,0.216,0.289l1.075,1.126c0.471,0.505-0.186-0.2,2.625,2.815
			c0.038,0.049,0.544,0.575,0.543,1.24c0.013,0.047-0.009,0.137,0.014,0.18l0.04-0.005c0.023-0.108,0.053-0.215,0.068-0.324
			c0.197-1.908-0.675-2.8-0.675-2.8l-0.111-0.121l-1.519-1.624l-1.682-1.746l-0.372-0.384c-0.204-0.228-0.438-0.588-0.431-0.906
			c0.002-0.096,0.027-0.245,0.013-0.274L293.532,150.066z"/>
	</g>
	<g>
		<path class="st0" d="M293.305,157.982c-0.037,0.126-0.087,0.25-0.108,0.377c-0.07,0.419-0.089,0.842-0.033,1.261
			c0.042,0.308,0.087,0.622,0.244,0.902c0.059,0.105,0.124,0.209,0.202,0.3l1.017,1.184c0.445,0.53-0.176-0.21,2.479,2.955
			c0.051,0.053,0.483,0.601,0.449,1.266c0.01,0.047-0.016,0.136,0.005,0.181l0.04-0.003c0.029-0.107,0.063-0.212,0.084-0.32
			c0.201-0.941,0.034-1.655-0.128-2.126c-0.17-0.472-0.374-0.705-0.374-0.705l-0.104-0.127l-1.435-1.705l-1.591-1.835l-0.352-0.404
			c-0.193-0.239-0.407-0.611-0.385-0.928c0.007-0.096,0.039-0.243,0.027-0.273L293.305,157.982z"/>
	</g>
	<g>
		<path class="st0" d="M292.648,165.872c-0.043,0.124-0.099,0.245-0.127,0.371c-0.091,0.415-0.131,0.836-0.096,1.258
			c0.026,0.31,0.055,0.626,0.198,0.915c0.053,0.108,0.113,0.215,0.186,0.311l0.955,1.238c0.406,0.556-0.14-0.24,2.302,3.085
			c0.038,0.054,0.438,0.625,0.373,1.288c0.008,0.048-0.023,0.135-0.004,0.181l0.04,0c0.034-0.105,0.074-0.209,0.1-0.315
			c0.231-0.932,0.173-1.644,0.014-2.126c-0.145-0.481-0.337-0.725-0.337-0.725l-0.098-0.132l-1.346-1.782l-1.496-1.921
			c-0.11-0.141-0.222-0.284-0.331-0.423c-0.18-0.249-0.376-0.632-0.338-0.948c0.012-0.095,0.051-0.241,0.041-0.272L292.648,165.872z
			"/>
	</g>
	<g>
		<path class="st0" d="M291.56,173.713c-0.049,0.121-0.111,0.239-0.145,0.364c-0.112,0.41-0.173,0.828-0.159,1.252
			c0.01,0.312,0.024,0.629,0.151,0.925c0.048,0.111,0.102,0.221,0.17,0.321l0.891,1.29c0.194,0.285,0.156,0.229,0.359,0.527
			c0.194,0.299,0.68,0.951,1.745,2.676c0.035,0.056,0.405,0.649,0.307,1.308c0.006,0.048-0.03,0.134-0.013,0.181l0.04,0.002
			c0.039-0.103,0.084-0.204,0.116-0.309c0.277-0.919,0.248-1.635,0.149-2.119c-0.104-0.485-0.291-0.742-0.291-0.742l-0.091-0.138
			l-1.253-1.855l-1.396-2.002c-0.103-0.147-0.207-0.296-0.309-0.441c-0.167-0.259-0.343-0.652-0.289-0.966
			c0.016-0.095,0.063-0.238,0.054-0.269L291.56,173.713z"/>
	</g>
	<g>
		<path class="st0" d="M290.044,181.481c-0.055,0.118-0.123,0.233-0.163,0.356c-0.132,0.403-0.214,0.818-0.222,1.242
			c-0.005,0.312-0.008,0.63,0.105,0.933c0.042,0.113,0.09,0.227,0.153,0.33l0.824,1.339c0.341,0.598-0.085-0.248,1.9,3.308
			c0.033,0.058,0.371,0.672,0.24,1.325c0.003,0.049-0.037,0.132-0.022,0.18l0.039,0.004c0.044-0.101,0.094-0.2,0.131-0.303
			c0.646-1.81,0.025-2.862,0.025-2.862l-0.078-0.141c-0.366-0.641-0.763-1.287-1.147-1.921l-1.292-2.078
			c-0.095-0.153-0.192-0.307-0.286-0.458c-0.154-0.268-0.31-0.671-0.24-0.981c0.021-0.094,0.075-0.234,0.068-0.266L290.044,181.481z
			"/>
	</g>
	<g>
		<path class="st0" d="M288.104,189.154c-0.061,0.115-0.134,0.226-0.181,0.347c-0.152,0.396-0.255,0.806-0.283,1.23
			c-0.021,0.312-0.04,0.629,0.058,0.939c0.036,0.116,0.079,0.232,0.136,0.339l0.748,1.382c0.304,0.61-0.12-0.241,1.694,3.403
			c0.03,0.06,0.337,0.692,0.173,1.338c0.001,0.049-0.043,0.13-0.031,0.179l0.039,0.006c0.049-0.098,0.104-0.195,0.146-0.296
			c0.735-1.775,0.169-2.862,0.169-2.862l-0.071-0.145c-0.329-0.66-0.641-1.312-1.007-1.972l-1.184-2.149
			c-0.087-0.158-0.176-0.317-0.262-0.474c-0.14-0.276-0.275-0.688-0.19-0.995c0.026-0.092,0.087-0.23,0.081-0.262L288.104,189.154z"
			/>
	</g>
	<g>
		<path class="st0" d="M285.745,196.709c-0.067,0.112-0.145,0.219-0.197,0.337c-0.171,0.388-0.294,0.793-0.344,1.215
			c-0.036,0.311-0.071,0.627,0.01,0.942c0.03,0.118,0.067,0.236,0.119,0.346l0.635,1.409c0.272,0.627-0.108-0.248,1.519,3.498
			c0.026,0.062,0.301,0.711,0.105,1.349c-0.002,0.049-0.05,0.128-0.04,0.178l0.039,0.008c0.054-0.096,0.114-0.189,0.16-0.288
			c0.822-1.736,0.312-2.854,0.312-2.854L288,202.699l-0.88-2.019c-0.321-0.733-0.704-1.48-1.056-2.209
			c-0.079-0.163-0.159-0.327-0.238-0.488c-0.126-0.284-0.24-0.704-0.14-1.006c0.03-0.091,0.098-0.225,0.094-0.258L285.745,196.709z"
			/>
	</g>
	<g>
		<path class="st0" d="M282.976,204.123c-0.072,0.108-0.156,0.211-0.214,0.326c-0.19,0.379-0.333,0.777-0.403,1.197
			c-0.046,0.311-0.114,0.619-0.061,0.933c0.02,0.117,0.046,0.236,0.088,0.347l0.558,1.443c0.24,0.643-0.095-0.254,1.338,3.584
			c0.023,0.063,0.264,0.728,0.038,1.356c-0.004,0.049-0.056,0.126-0.049,0.175l0.038,0.01c0.059-0.093,0.123-0.183,0.174-0.28
			c0.906-1.693,0.453-2.84,0.453-2.84l-0.056-0.153l-0.776-2.069c-0.297-0.758-0.566-1.493-0.9-2.251
			c-0.071-0.167-0.142-0.336-0.212-0.501c-0.111-0.291-0.204-0.717-0.089-1.014c0.035-0.09,0.109-0.22,0.106-0.253L282.976,204.123z
			"/>
	</g>
	<g>
		<path class="st0" d="M279.805,211.375c-0.077,0.105-0.166,0.202-0.229,0.315c-0.203,0.371-0.371,0.759-0.488,1.164
			c-0.081,0.3-0.16,0.606-0.123,0.923c0.014,0.119,0.034,0.239,0.071,0.353l0.484,1.475c0.207,0.657-0.082-0.26,1.154,3.661
			c0.02,0.065,0.227,0.743-0.03,1.359c-0.007,0.049-0.062,0.123-0.057,0.173l0.037,0.012c0.063-0.09,0.131-0.177,0.188-0.27
			c0.987-1.645,0.594-2.818,0.594-2.818l-0.048-0.156l-0.67-2.114l-0.765-2.293c-0.057-0.169-0.114-0.339-0.17-0.505
			c-0.086-0.293-0.164-0.728-0.033-1.017c0.039-0.088,0.119-0.214,0.118-0.247L279.805,211.375z"/>
	</g>
	<g>
		<path class="st0" d="M276.243,218.444c-0.079,0.102-0.183,0.189-0.256,0.296c-0.244,0.348-0.443,0.721-0.573,1.123
			c-0.095,0.296-0.19,0.598-0.169,0.918c0.008,0.12,0.022,0.241,0.053,0.357l0.408,1.503c0.173,0.669-0.068-0.264,0.966,3.728
			c0.018,0.066,0.194,0.76-0.128,1.342c-0.011,0.047-0.073,0.116-0.073,0.166l0.037,0.015c0.072-0.084,0.148-0.165,0.214-0.253
			c0.578-0.768,0.729-1.488,0.789-1.98c0.05-0.498-0.034-0.796-0.034-0.796l-0.04-0.159l-0.561-2.153l-0.647-2.337
			c-0.048-0.172-0.096-0.345-0.144-0.515c-0.071-0.298-0.105-0.725,0.052-1.002c0.049-0.083,0.139-0.203,0.138-0.237
			L276.243,218.444z"/>
	</g>
	<g>
		<path class="st0" d="M272.264,225.288c-0.092,0.093-0.195,0.178-0.274,0.281c-0.26,0.336-0.478,0.699-0.627,1.095
			c-0.11,0.291-0.219,0.589-0.214,0.911c0.002,0.12,0.01,0.243,0.035,0.36l0.331,1.528c0.127,0.676-0.021-0.275,0.753,3.772
			c0.011,0.065,0.128,0.753-0.214,1.324c-0.013,0.047-0.079,0.113-0.081,0.162l0.036,0.017c0.076-0.08,0.156-0.157,0.225-0.242
			c0.604-0.745,0.862-1.41,0.925-1.914c0.075-0.496,0.006-0.799,0.006-0.799l-0.032-0.161l-0.451-2.186l-0.527-2.376
			c-0.039-0.175-0.079-0.351-0.117-0.524c-0.056-0.302-0.068-0.732,0.102-1.001c0.051-0.081,0.15-0.195,0.153-0.228L272.264,225.288
			z"/>
	</g>
	<g>
		<path class="st0" d="M267.916,231.904c-0.096,0.088-0.203,0.168-0.287,0.267c-0.276,0.323-0.51,0.675-0.679,1.064
			c-0.124,0.286-0.247,0.579-0.259,0.901c-0.004,0.121-0.003,0.244,0.016,0.363l0.253,1.548c0.054,0.341,0.043,0.274,0.099,0.63
			c0.06,0.363,0.19,1.138,0.422,3.159c0.008,0.066,0.089,0.761-0.28,1.316c-0.016,0.046-0.084,0.109-0.089,0.158l0.035,0.019
			c0.079-0.076,0.163-0.149,0.236-0.23c0.642-0.713,0.92-1.375,1.037-1.855c0.119-0.479,0.067-0.785,0.067-0.785l-0.023-0.163
			l-0.339-2.214l-0.406-2.408c-0.03-0.177-0.061-0.356-0.09-0.531c-0.041-0.306-0.031-0.737,0.152-0.997
			c0.055-0.079,0.159-0.188,0.164-0.22L267.916,231.904z"/>
	</g>
	<g>
		<path class="st0" d="M263.217,238.274c-0.1,0.084-0.21,0.158-0.299,0.252c-0.291,0.309-0.542,0.65-0.729,1.031
			c-0.138,0.28-0.275,0.567-0.303,0.89c-0.01,0.121-0.015,0.244-0.002,0.365l0.174,1.564c0.057,0.69-0.002-0.286,0.289,3.793
			c0.005,0.067,0.05,0.768-0.345,1.304c-0.018,0.045-0.089,0.104-0.096,0.154l0.034,0.02c0.083-0.072,0.17-0.141,0.247-0.219
			c1.351-1.365,1.237-2.584,1.237-2.584l-0.011-0.161c-0.047-0.728-0.11-1.466-0.197-2.212l-0.282-2.434
			c-0.021-0.179-0.042-0.36-0.063-0.537c-0.025-0.309,0.006-0.74,0.201-0.992c0.059-0.076,0.167-0.18,0.174-0.212L263.217,238.274z"
			/>
	</g>
	<g>
		<path class="st0" d="M258.181,244.381c-0.104,0.079-0.217,0.148-0.31,0.237c-0.305,0.294-0.572,0.623-0.778,0.995
			c-0.151,0.274-0.303,0.554-0.346,0.876c-0.016,0.12-0.027,0.244-0.02,0.365l0.062,1.547c0.016,0.684-0.006-0.27,0.09,3.812
			c0.001,0.067,0.011,0.772-0.41,1.289c-0.02,0.045-0.094,0.1-0.104,0.149l0.033,0.022c0.086-0.068,0.176-0.132,0.257-0.206
			c1.414-1.298,1.363-2.526,1.363-2.526l-0.002-0.162l-0.056-2.202c-0.029-0.807-0.096-1.637-0.149-2.446
			c-0.012-0.181-0.024-0.363-0.036-0.541c-0.009-0.311,0.044-0.742,0.25-0.983c0.062-0.073,0.176-0.172,0.184-0.203L258.181,244.381
			z"/>
	</g>
	<g>
		<path class="st0" d="M252.823,250.209c-0.108,0.073-0.224,0.137-0.321,0.222c-0.318,0.279-0.601,0.595-0.825,0.957
			c-0.16,0.271-0.339,0.53-0.408,0.841c-0.026,0.116-0.046,0.236-0.049,0.355l-0.024,1.547c-0.019,0.686,0.007-0.271-0.105,3.825
			c-0.002,0.067-0.029,0.774-0.474,1.271c-0.022,0.044-0.099,0.095-0.111,0.144l0.031,0.024c0.089-0.064,0.182-0.124,0.266-0.194
			c1.474-1.229,1.486-2.462,1.486-2.462l0.006-0.163l0.058-2.21c0.009-0.814,0.037-1.597,0.012-2.424
			c-0.003-0.182-0.005-0.365-0.008-0.544c0.007-0.312,0.081-0.741,0.299-0.973c0.066-0.07,0.184-0.163,0.194-0.194L252.823,250.209z
			"/>
	</g>
	<g>
		<path class="st0" d="M247.158,255.74c-0.111,0.068-0.23,0.126-0.331,0.206c-0.326,0.269-0.635,0.559-0.892,0.893
			c-0.187,0.248-0.376,0.502-0.46,0.81c-0.032,0.115-0.058,0.234-0.067,0.354l-0.104,1.55c-0.054,0.687,0.021-0.271-0.302,3.828
			c-0.006,0.067-0.068,0.774-0.537,1.249c-0.024,0.043-0.103,0.091-0.12,0.136l0.03,0.026c0.096-0.055,0.189-0.113,0.277-0.178
			c1.531-1.156,1.606-2.391,1.606-2.391l0.014-0.163l0.171-2.212l0.15-2.414c0.011-0.178,0.022-0.357,0.032-0.532
			c0.035-0.299,0.124-0.733,0.355-0.952c0.069-0.067,0.191-0.154,0.203-0.185L247.158,255.74z"/>
	</g>
	<g>
		<path class="st0" d="M241.202,260.956c-0.118,0.058-0.243,0.105-0.351,0.175c-0.356,0.232-0.681,0.503-0.951,0.828
			c-0.199,0.239-0.4,0.484-0.5,0.789c-0.037,0.114-0.07,0.232-0.085,0.351l-0.184,1.548c-0.09,0.685,0.035-0.271-0.5,3.821
			c-0.005,0.073-0.114,0.765-0.626,1.189c-0.028,0.04-0.111,0.08-0.13,0.127l0.029,0.027c0.098-0.051,0.199-0.097,0.292-0.155
			c0.827-0.49,1.24-1.098,1.478-1.534c0.233-0.444,0.267-0.752,0.267-0.752l0.023-0.162l0.285-2.208l0.275-2.411
			c0.02-0.178,0.04-0.357,0.06-0.532c0.046-0.303,0.174-0.712,0.423-0.91c0.075-0.06,0.206-0.135,0.22-0.165L241.202,260.956z"/>
	</g>
	<g>
		<path class="st0" d="M234.945,265.807c-0.12,0.052-0.247,0.093-0.359,0.158c-0.367,0.214-0.704,0.47-0.99,0.782
			c-0.211,0.229-0.423,0.465-0.539,0.765c-0.043,0.112-0.082,0.229-0.103,0.348l-0.264,1.542c-0.138,0.671,0.09-0.254-0.718,3.774
			c-0.014,0.065-0.163,0.747-0.694,1.149c-0.03,0.038-0.115,0.075-0.136,0.12l0.027,0.029c0.1-0.046,0.203-0.087,0.299-0.14
			c1.695-0.911,1.884-2.161,1.884-2.161l0.031-0.162l0.4-2.198l0.4-2.402c0.029-0.177,0.058-0.355,0.087-0.53
			c0.061-0.301,0.211-0.705,0.469-0.891c0.078-0.056,0.212-0.125,0.227-0.154L234.945,265.807z"/>
	</g>
	<g>
		<path class="st0" d="M228.436,270.312c-0.122,0.046-0.251,0.08-0.366,0.14c-0.376,0.196-0.725,0.435-1.027,0.734
			c-0.222,0.219-0.446,0.445-0.577,0.74c-0.049,0.11-0.094,0.225-0.121,0.343l-0.344,1.532c-0.178,0.657,0.118-0.226-0.94,3.703
			c-0.017,0.064-0.202,0.74-0.752,1.116c-0.032,0.037-0.119,0.069-0.142,0.114l0.026,0.03c0.102-0.041,0.207-0.077,0.305-0.125
			c1.726-0.846,2.014-2.032,2.014-2.032l0.041-0.157l0.514-2.182l0.525-2.387c0.038-0.176,0.077-0.353,0.115-0.527
			c0.077-0.299,0.247-0.696,0.514-0.869c0.08-0.052,0.217-0.115,0.234-0.143L228.436,270.312z"/>
	</g>
	<g>
		<path class="st0" d="M221.693,274.458c-0.124,0.04-0.254,0.068-0.371,0.122c-0.385,0.178-0.745,0.4-1.061,0.684
			c-0.232,0.209-0.467,0.423-0.614,0.712c-0.055,0.108-0.105,0.221-0.138,0.338l-0.426,1.515c-0.207,0.649,0.082-0.257-1.157,3.621
			c-0.021,0.064-0.241,0.731-0.809,1.08c-0.034,0.035-0.122,0.063-0.147,0.107l0.024,0.032c0.104-0.036,0.21-0.067,0.311-0.11
			c1.764-0.76,2.115-1.934,2.115-1.934l0.051-0.154c0.226-0.7,0.452-1.392,0.651-2.119l0.65-2.365
			c0.048-0.174,0.095-0.35,0.142-0.522c0.092-0.296,0.283-0.685,0.558-0.845c0.083-0.048,0.222-0.104,0.241-0.131L221.693,274.458z"
			/>
	</g>
	<g>
		<path class="st0" d="M214.735,278.231c-0.126,0.034-0.257,0.055-0.376,0.104c-0.393,0.159-0.764,0.363-1.094,0.632
			c-0.243,0.197-0.488,0.4-0.649,0.683c-0.06,0.105-0.117,0.216-0.156,0.331l-0.526,1.453c-0.242,0.64,0.096-0.253-1.348,3.568
			c-0.024,0.063-0.28,0.72-0.864,1.041c-0.035,0.034-0.125,0.057-0.152,0.099l0.022,0.033c0.105-0.031,0.213-0.057,0.316-0.095
			c1.799-0.673,2.212-1.831,2.212-1.831l0.059-0.151l0.775-2.062c0.281-0.749,0.526-1.551,0.782-2.32
			c0.057-0.172,0.114-0.346,0.17-0.516c0.108-0.291,0.318-0.672,0.601-0.818c0.085-0.044,0.227-0.093,0.247-0.12L214.735,278.231z"
			/>
	</g>
	<g>
		<path class="st0" d="M207.582,281.62c-0.127,0.028-0.259,0.043-0.381,0.085c-0.4,0.139-0.78,0.326-1.123,0.578
			c-0.25,0.192-0.514,0.362-0.695,0.625c-0.068,0.098-0.132,0.201-0.179,0.311l-0.605,1.424c-0.276,0.628,0.109-0.249-1.537,3.504
			c-0.027,0.062-0.318,0.706-0.918,0.999c-0.037,0.032-0.128,0.051-0.157,0.092l0.02,0.034c0.107-0.026,0.216-0.046,0.32-0.079
			c1.829-0.584,2.303-1.722,2.303-1.722l0.067-0.149l0.885-2.025c0.314-0.751,0.635-1.465,0.923-2.24
			c0.066-0.17,0.132-0.34,0.197-0.508c0.123-0.286,0.353-0.657,0.642-0.789c0.087-0.04,0.231-0.082,0.252-0.107L207.582,281.62z"/>
	</g>
	<g>
		<path class="st0" d="M200.255,284.612c-0.128,0.021-0.26,0.03-0.384,0.066c-0.404,0.125-0.795,0.286-1.161,0.495
			c-0.267,0.159-0.537,0.323-0.732,0.576c-0.073,0.095-0.142,0.195-0.195,0.302l-0.68,1.395c-0.309,0.615,0.122-0.243-1.724,3.429
			c-0.031,0.06-0.356,0.691-0.969,0.953c-0.039,0.03-0.13,0.045-0.162,0.084l0.018,0.035c0.108-0.02,0.217-0.035,0.323-0.063
			c1.855-0.492,2.39-1.607,2.39-1.607l0.075-0.145l0.993-1.982l1.049-2.177c0.077-0.16,0.154-0.322,0.23-0.48
			c0.143-0.269,0.389-0.636,0.685-0.753c0.089-0.036,0.235-0.071,0.257-0.095L200.255,284.612z"/>
	</g>
	<g>
		<path class="st0" d="M192.774,287.199c-0.128,0.017-0.261,0.015-0.389,0.038c-0.417,0.079-0.821,0.207-1.194,0.405
			c-0.275,0.145-0.553,0.296-0.761,0.54c-0.078,0.091-0.153,0.188-0.211,0.292l-0.755,1.361c-0.342,0.6,0.135-0.237-1.907,3.344
			c-0.036,0.05-0.387,0.694-1.025,0.882c-0.041,0.026-0.134,0.032-0.168,0.068l0.016,0.036c0.11-0.01,0.221-0.014,0.329-0.031
			c1.884-0.368,2.475-1.472,2.475-1.472l0.082-0.142l1.099-1.933l1.165-2.125c0.086-0.157,0.172-0.315,0.256-0.469
			c0.157-0.263,0.43-0.592,0.736-0.681c0.093-0.024,0.239-0.056,0.263-0.078L192.774,287.199z"/>
	</g>
	<g>
		<path class="st0" d="M185.153,289.339c-0.131,0.002-0.264-0.009-0.392,0.009c-0.421,0.058-0.83,0.166-1.213,0.345
			c-0.282,0.132-0.568,0.268-0.789,0.502c-0.083,0.087-0.162,0.18-0.227,0.282l-0.828,1.324c-0.374,0.582,0.148-0.23-2.087,3.244
			c-0.037,0.055-0.434,0.627-1.078,0.795c-0.042,0.024-0.135,0.025-0.171,0.059l0.014,0.037c0.11-0.004,0.221-0.003,0.33-0.015
			c0.957-0.093,1.597-0.432,1.995-0.741c0.4-0.303,0.563-0.567,0.563-0.567l0.09-0.137l1.202-1.878l1.279-2.067
			c0.094-0.152,0.189-0.306,0.281-0.456c0.171-0.255,0.462-0.571,0.771-0.644c0.093-0.022,0.244-0.035,0.269-0.056L185.153,289.339z
			"/>
	</g>
	<g>
		<path class="st0" d="M177.424,291.049c-0.131-0.004-0.263-0.022-0.392-0.01c-0.423,0.037-0.837,0.124-1.229,0.284
			c-0.289,0.117-0.581,0.24-0.815,0.462c-0.087,0.083-0.172,0.172-0.242,0.27l-0.899,1.282c-0.412,0.545,0.191-0.186-2.267,3.1
			c-0.04,0.053-0.468,0.604-1.119,0.74c-0.043,0.022-0.136,0.018-0.174,0.05l0.012,0.038c0.11,0.001,0.221,0.008,0.33,0.002
			c1.922-0.095,2.63-1.141,2.63-1.141l0.097-0.133l1.303-1.817l1.39-2.002c0.102-0.148,0.205-0.296,0.306-0.442
			c0.184-0.246,0.492-0.548,0.805-0.605c0.094-0.017,0.245-0.023,0.271-0.042L177.424,291.049z"/>
	</g>
	<g>
		<path class="st0" d="M169.614,292.333c-0.13-0.011-0.261-0.035-0.39-0.03c-0.424,0.016-0.842,0.082-1.242,0.222
			c-0.294,0.103-0.593,0.21-0.838,0.421c-0.092,0.079-0.181,0.163-0.256,0.258l-0.968,1.235c-0.215,0.271-0.172,0.217-0.396,0.5
			c-0.227,0.289-0.708,0.914-2.04,2.449c-0.043,0.051-0.5,0.58-1.158,0.683c-0.045,0.02-0.137,0.011-0.177,0.041l0.01,0.038
			c0.11,0.007,0.22,0.02,0.33,0.019c0.959-0.009,1.635-0.251,2.067-0.489c0.433-0.234,0.623-0.484,0.623-0.484l0.104-0.128l1.4-1.75
			l1.498-1.93c0.11-0.142,0.221-0.286,0.33-0.426c0.198-0.237,0.521-0.522,0.837-0.564c0.095-0.013,0.246-0.011,0.273-0.028
			L169.614,292.333z"/>
	</g>
	<g>
		<path class="st0" d="M161.744,293.188c-0.129-0.017-0.259-0.048-0.388-0.05c-0.424-0.006-0.845,0.039-1.252,0.159
			c-0.3,0.088-0.604,0.18-0.86,0.378c-0.096,0.074-0.19,0.154-0.27,0.245l-1.034,1.185c-0.469,0.509,0.21-0.161-2.594,2.792
			c-0.046,0.048-0.531,0.554-1.193,0.623c-0.046,0.017-0.137,0.004-0.179,0.032l0.008,0.039c0.109,0.012,0.219,0.031,0.328,0.035
			c1.92,0.079,2.739-0.827,2.739-0.827l0.111-0.117c0.504-0.528,1.003-1.108,1.494-1.661l1.601-1.853l0.352-0.409
			c0.21-0.227,0.549-0.496,0.866-0.522c0.096-0.008,0.246,0.002,0.274-0.015L161.744,293.188z"/>
	</g>
	<g>
		<path class="st0" d="M153.839,293.615c-0.128-0.024-0.256-0.061-0.385-0.069c-0.423-0.027-0.846-0.003-1.259,0.095
			c-0.304,0.073-0.613,0.149-0.879,0.334c-0.1,0.069-0.198,0.144-0.283,0.231l-1.096,1.131c-0.492,0.472,0.194-0.186-2.742,2.63
			c-0.048,0.046-0.56,0.527-1.225,0.562c-0.046,0.015-0.137-0.003-0.18,0.023l0.006,0.039c0.109,0.018,0.217,0.042,0.326,0.052
			c1.913,0.176,2.78-0.687,2.78-0.687l0.118-0.111c0.532-0.502,1.061-1.012,1.582-1.556l1.699-1.77l0.374-0.391
			c0.222-0.216,0.575-0.467,0.893-0.477c0.096-0.003,0.245,0.014,0.275-0.001L153.839,293.615z"/>
	</g>
	<g>
		<path class="st0" d="M145.922,293.615c-0.127-0.03-0.252-0.074-0.381-0.089c-0.421-0.048-0.845-0.046-1.263,0.032
			c-0.307,0.057-0.62,0.118-0.896,0.289c-0.103,0.064-0.205,0.134-0.295,0.216c-0.386,0.358-0.768,0.718-1.155,1.05
			c-0.517,0.446,0.204-0.176-2.882,2.484c-0.051,0.044-0.588,0.498-1.254,0.499c-0.047,0.013-0.137-0.009-0.181,0.014l0.004,0.039
			c0.107,0.023,0.214,0.053,0.323,0.068c1.901,0.272,2.815-0.545,2.815-0.545l0.124-0.105c0.559-0.484,1.114-0.948,1.663-1.447
			l1.793-1.681l0.395-0.372c0.234-0.204,0.6-0.438,0.918-0.432c0.096,0.002,0.244,0.027,0.274,0.013L145.922,293.615z"/>
	</g>
	<g>
		<path class="st0" d="M138.017,293.188c-0.125-0.037-0.248-0.087-0.375-0.108c-0.418-0.07-0.841-0.089-1.263-0.032
			c-0.31,0.042-0.626,0.087-0.911,0.243c-0.107,0.059-0.213,0.123-0.306,0.201l-1.208,0.959c-0.541,0.419,0.214-0.166-3.015,2.334
			c-0.053,0.041-0.615,0.467-1.281,0.435c-0.048,0.01-0.136-0.016-0.182,0.005l0.002,0.04c0.106,0.029,0.211,0.063,0.319,0.084
			c1.885,0.368,2.842-0.402,2.842-0.402l0.129-0.098l1.739-1.351c0.631-0.485,1.26-1.046,1.88-1.566
			c0.138-0.117,0.278-0.235,0.415-0.351c0.245-0.192,0.623-0.407,0.94-0.385c0.096,0.007,0.242,0.039,0.273,0.027L138.017,293.188z"
			/>
	</g>
	<g>
		<path class="st0" d="M130.147,292.332c-0.123-0.043-0.243-0.099-0.369-0.127c-0.414-0.091-0.835-0.131-1.26-0.096
			c-0.312,0.028-0.63,0.056-0.92,0.179c-0.109,0.048-0.218,0.102-0.315,0.171l-1.26,0.896c-0.564,0.391,0.223-0.154-3.142,2.178
			c-0.055,0.038-0.64,0.435-1.304,0.369c-0.048,0.008-0.135-0.023-0.182-0.004l-0.001,0.04c0.104,0.034,0.208,0.074,0.314,0.1
			c1.863,0.463,2.863-0.257,2.863-0.257l0.134-0.092l1.813-1.261c0.659-0.467,1.308-0.925,1.959-1.434
			c0.145-0.11,0.291-0.221,0.433-0.329c0.255-0.18,0.645-0.374,0.96-0.336c0.095,0.011,0.24,0.051,0.271,0.041L130.147,292.332z"/>
	</g>
	<g>
		<path class="st0" d="M122.337,291.048c-0.12-0.049-0.237-0.111-0.362-0.145c-0.408-0.116-0.83-0.162-1.251-0.17
			c-0.31-0.005-0.626-0.008-0.924,0.106c-0.111,0.042-0.223,0.091-0.324,0.155l-1.309,0.83c-0.585,0.361,0.231-0.143-3.261,2.014
			c-0.058,0.035-0.664,0.402-1.324,0.303c-0.049,0.005-0.134-0.03-0.182-0.013l-0.003,0.039c0.103,0.039,0.204,0.084,0.308,0.116
			c1.837,0.555,2.876-0.113,2.876-0.113l0.139-0.085l1.882-1.166l2.031-1.302c0.15-0.1,0.302-0.202,0.45-0.301
			c0.265-0.166,0.665-0.341,0.978-0.287c0.095,0.016,0.237,0.063,0.269,0.054L122.337,291.048z"/>
	</g>
	<g>
		<path class="st0" d="M114.608,289.338c-0.118-0.055-0.231-0.123-0.354-0.163c-0.404-0.126-0.809-0.248-1.232-0.271
			c-0.31-0.021-0.626-0.039-0.93,0.059c-0.114,0.037-0.228,0.08-0.333,0.138l-1.354,0.762c-0.605,0.331,0.239-0.131-3.372,1.845
			c-0.059,0.032-0.686,0.368-1.34,0.235c-0.048,0.001-0.13-0.043-0.178-0.031l-0.005,0.039c0.098,0.05,0.196,0.105,0.299,0.14
			c1.806,0.646,2.882,0.032,2.882,0.032l0.144-0.077l1.946-1.069l2.103-1.197c0.155-0.088,0.311-0.178,0.463-0.265
			c0.271-0.141,0.675-0.274,0.987-0.211c0.094,0.021,0.234,0.075,0.266,0.068L114.608,289.338z"/>
	</g>
	<g>
		<path class="st0" d="M106.987,287.198c-0.113-0.067-0.22-0.146-0.339-0.198c-0.389-0.172-0.793-0.295-1.213-0.344
			c-0.309-0.036-0.624-0.07-0.934,0.013c-0.116,0.031-0.233,0.068-0.34,0.121l-1.397,0.692c-0.623,0.3,0.246-0.118-3.474,1.67
			c-0.064,0.036-0.704,0.325-1.339,0.126c-0.049-0.002-0.128-0.049-0.177-0.04l-0.007,0.039c0.096,0.054,0.19,0.114,0.289,0.161
			c0.862,0.427,1.598,0.437,2.093,0.399c0.499-0.048,0.775-0.187,0.775-0.187l0.148-0.07l2.005-0.968l2.17-1.088
			c0.16-0.08,0.32-0.161,0.478-0.241c0.279-0.128,0.692-0.244,0.993-0.143c0.091,0.03,0.226,0.098,0.258,0.094L106.987,287.198z"/>
	</g>
	<g>
		<path class="st0" d="M99.506,284.612c-0.109-0.072-0.212-0.157-0.328-0.215c-0.38-0.19-0.778-0.333-1.195-0.403
			c-0.307-0.051-0.62-0.101-0.935-0.034c-0.118,0.025-0.236,0.056-0.347,0.104l-1.436,0.62c-0.638,0.253,0.265-0.069-3.556,1.462
			c-0.062,0.024-0.715,0.27-1.341,0.045c-0.048-0.004-0.126-0.056-0.175-0.048l-0.009,0.039c0.093,0.059,0.184,0.123,0.281,0.175
			c1.687,0.927,2.841,0.396,2.841,0.396l0.152-0.062l2.06-0.864l2.231-0.976c0.164-0.072,0.33-0.145,0.492-0.216
			c0.286-0.113,0.705-0.208,1.002-0.093c0.089,0.035,0.221,0.109,0.253,0.106L99.506,284.612z"/>
	</g>
	<g>
		<path class="st0" d="M92.179,281.619c-0.105-0.077-0.204-0.167-0.317-0.23c-0.37-0.209-0.76-0.371-1.174-0.461
			c-0.305-0.067-0.616-0.132-0.934-0.08c-0.119,0.019-0.24,0.044-0.353,0.086l-1.471,0.546c-0.324,0.118-0.26,0.095-0.599,0.219
			c-0.345,0.13-1.08,0.404-3.019,1.019c-0.063,0.021-0.73,0.234-1.345-0.023c-0.048-0.006-0.123-0.062-0.172-0.057l-0.011,0.038
			c0.09,0.063,0.178,0.132,0.271,0.188c0.823,0.493,1.526,0.64,2.019,0.662c0.493,0.024,0.783-0.084,0.783-0.084l0.156-0.054
			l2.108-0.758l2.286-0.861c0.168-0.064,0.338-0.128,0.504-0.191c0.292-0.099,0.717-0.172,1.008-0.043
			c0.088,0.039,0.215,0.12,0.247,0.119L92.179,281.619z"/>
	</g>
	<g>
		<path class="st0" d="M85.026,278.23c-0.101-0.082-0.195-0.176-0.305-0.245c-0.359-0.226-0.741-0.407-1.151-0.518
			c-0.301-0.081-0.609-0.162-0.931-0.127c-0.12,0.013-0.242,0.032-0.358,0.068l-1.502,0.47c-0.668,0.191,0.28-0.056-3.668,1.01
			c-0.065,0.017-0.744,0.196-1.346-0.09c-0.048-0.009-0.12-0.068-0.17-0.065l-0.014,0.037c0.087,0.067,0.171,0.14,0.262,0.201
			c1.598,1.066,2.773,0.721,2.773,0.721l0.156-0.041c0.705-0.185,1.419-0.391,2.134-0.618l2.335-0.743
			c0.172-0.055,0.345-0.111,0.515-0.165c0.298-0.084,0.728-0.136,1.012,0.007c0.086,0.043,0.209,0.13,0.241,0.131L85.026,278.23z"/>
	</g>
	<g>
		<path class="st0" d="M78.069,274.457c-0.097-0.087-0.186-0.185-0.292-0.259c-0.347-0.243-0.721-0.443-1.125-0.574
			c-0.298-0.096-0.602-0.191-0.926-0.173c-0.121,0.007-0.245,0.02-0.362,0.05c-0.513,0.136-1.003,0.239-1.509,0.359
			c-0.668,0.146,0.264-0.058-3.724,0.815c-0.066,0.014-0.755,0.158-1.343-0.157c-0.048-0.011-0.116-0.073-0.166-0.074l-0.016,0.036
			c0.083,0.072,0.164,0.148,0.252,0.213c1.544,1.142,2.739,0.857,2.739,0.857l0.159-0.033l2.15-0.474
			c0.79-0.189,1.589-0.408,2.374-0.616c0.175-0.046,0.352-0.093,0.524-0.139c0.303-0.068,0.736-0.099,1.013,0.058
			c0.083,0.047,0.202,0.14,0.235,0.142L78.069,274.457z"/>
	</g>
	<g>
		<path class="st0" d="M71.326,270.311c-0.093-0.092-0.177-0.194-0.279-0.273c-0.335-0.259-0.698-0.477-1.097-0.627
			c-0.296-0.106-0.59-0.224-0.906-0.236c-0.119-0.003-0.241,0-0.358,0.02l-1.523,0.271c-0.677,0.112,0.268-0.044-3.774,0.624
			c-0.066,0.011-0.765,0.119-1.337-0.224c-0.047-0.014-0.112-0.079-0.163-0.082l-0.017,0.035c0.08,0.075,0.156,0.156,0.241,0.225
			c1.487,1.214,2.699,0.991,2.699,0.991l0.161-0.025l2.179-0.364c0.798-0.143,1.577-0.273,2.384-0.454
			c0.178-0.037,0.357-0.075,0.533-0.112c0.307-0.053,0.743-0.062,1.012,0.108c0.081,0.051,0.195,0.149,0.228,0.153L71.326,270.311z"
			/>
	</g>
	<g>
		<path class="st0" d="M64.817,265.805c-0.088-0.096-0.167-0.202-0.265-0.285c-0.324-0.272-0.675-0.509-1.049-0.701
			c-0.279-0.137-0.564-0.273-0.883-0.298c-0.119-0.009-0.241-0.013-0.36,0.002l-1.541,0.193c-0.684,0.077,0.27-0.031-3.814,0.431
			c-0.067,0.007-0.773,0.08-1.328-0.29c-0.047-0.016-0.109-0.084-0.159-0.089l-0.019,0.034c0.076,0.079,0.148,0.163,0.229,0.236
			c1.426,1.283,2.652,1.122,2.652,1.122l0.162-0.017l2.203-0.253l2.397-0.311c0.176-0.023,0.354-0.047,0.529-0.07
			c0.305-0.03,0.746-0.022,1.005,0.162c0.079,0.055,0.187,0.158,0.22,0.164L64.817,265.805z"/>
	</g>
	<g>
		<path class="st0" d="M58.56,260.954c-0.083-0.1-0.15-0.217-0.241-0.309c-0.295-0.306-0.623-0.573-0.993-0.777
			c-0.272-0.15-0.551-0.301-0.869-0.341c-0.119-0.015-0.241-0.025-0.361-0.016l-1.554,0.114c-0.69,0.042,0.273-0.017-3.845,0.236
			c-0.071,0.007-0.78,0.042-1.29-0.384c-0.044-0.02-0.1-0.094-0.149-0.103l-0.021,0.033c0.069,0.086,0.133,0.177,0.207,0.258
			c0.639,0.719,1.32,1.001,1.79,1.155c0.48,0.144,0.788,0.119,0.788,0.119l0.164-0.009l2.221-0.14l2.418-0.189
			c0.178-0.014,0.358-0.029,0.533-0.043c0.306-0.013,0.732,0.036,0.974,0.242c0.073,0.063,0.172,0.177,0.206,0.182L58.56,260.954z"
			/>
	</g>
	<g>
		<path class="st0" d="M52.603,255.738c-0.074-0.108-0.138-0.225-0.223-0.322c-0.28-0.319-0.595-0.602-0.956-0.824
			c-0.265-0.163-0.537-0.327-0.854-0.383c-0.118-0.021-0.24-0.037-0.361-0.035l-1.563,0.034c-0.686-0.006,0.271,0.036-3.844,0.017
			c-0.066-0.001-0.764-0.018-1.26-0.462c-0.043-0.022-0.096-0.099-0.144-0.11l-0.023,0.032c0.064,0.089,0.124,0.183,0.195,0.267
			c1.216,1.491,2.483,1.435,2.483,1.435l0.164,0l2.233-0.026l2.434-0.065c0.179-0.005,0.36-0.01,0.537-0.015
			c0.307,0.003,0.732,0.073,0.963,0.291c0.07,0.066,0.163,0.184,0.194,0.194L52.603,255.738z"/>
	</g>
	<g>
		<path class="st0" d="M46.939,250.207c-0.069-0.111-0.127-0.231-0.207-0.332c-0.264-0.332-0.566-0.629-0.916-0.869
			c-0.257-0.176-0.521-0.353-0.836-0.425c-0.118-0.027-0.239-0.049-0.36-0.053l-1.569-0.046c-0.345-0.012-0.277-0.01-0.638-0.022
			c-0.369-0.009-1.145-0.037-3.178-0.191c-0.066-0.005-0.765-0.057-1.239-0.525c-0.042-0.024-0.091-0.103-0.139-0.117l-0.025,0.031
			c0.06,0.092,0.115,0.189,0.181,0.276c1.159,1.533,2.379,1.589,2.379,1.589l0.165,0.008l2.239,0.089l2.442,0.06
			c0.18,0.004,0.361,0.008,0.539,0.012c0.308,0.018,0.73,0.11,0.951,0.339c0.067,0.069,0.154,0.192,0.185,0.203L46.939,250.207z"/>
	</g>
	<g>
		<path class="st0" d="M41.581,244.38c-0.063-0.114-0.115-0.236-0.191-0.341c-0.248-0.344-0.535-0.655-0.874-0.912
			c-0.249-0.188-0.505-0.378-0.816-0.466c-0.116-0.033-0.237-0.061-0.358-0.071l-1.569-0.127c-0.677-0.079,0.268,0.031-3.776-0.442
			c-0.066-0.008-0.764-0.097-1.215-0.587c-0.041-0.026-0.086-0.107-0.133-0.124l-0.027,0.029c0.055,0.095,0.106,0.194,0.168,0.284
			c1.084,1.586,2.303,1.705,2.303,1.705l0.16,0.02c0.729,0.089,1.455,0.176,2.205,0.232l2.445,0.186
			c0.18,0.013,0.362,0.027,0.539,0.04c0.308,0.034,0.726,0.147,0.936,0.386c0.063,0.072,0.145,0.199,0.175,0.211L41.581,244.38z"/>
	</g>
	<g>
		<path class="st0" d="M36.545,238.272c-0.057-0.117-0.104-0.241-0.174-0.35c-0.231-0.355-0.503-0.68-0.829-0.952
			c-0.24-0.2-0.487-0.403-0.795-0.506c-0.115-0.039-0.234-0.073-0.355-0.089l-1.526-0.238c-0.675-0.114,0.267,0.045-3.761-0.637
			c-0.066-0.011-0.76-0.136-1.188-0.648c-0.04-0.028-0.08-0.111-0.127-0.13l-0.028,0.028c0.051,0.097,0.096,0.198,0.154,0.291
			c1.006,1.635,2.222,1.818,2.222,1.818l0.16,0.029l2.173,0.365c0.788,0.133,1.623,0.22,2.426,0.323
			c0.18,0.023,0.361,0.045,0.538,0.068c0.307,0.05,0.72,0.184,0.918,0.433c0.06,0.075,0.135,0.205,0.165,0.22L36.545,238.272z"/>
	</g>
	<g>
		<path class="st0" d="M31.846,231.902c-0.052-0.119-0.092-0.246-0.157-0.357c-0.214-0.366-0.47-0.703-0.783-0.991
			c-0.236-0.208-0.447-0.439-0.744-0.564c-0.109-0.047-0.223-0.09-0.34-0.115l-1.515-0.319c-0.67-0.149,0.265,0.059-3.736-0.833
			c-0.066-0.015-0.755-0.176-1.158-0.708c-0.039-0.03-0.075-0.115-0.121-0.137l-0.029,0.026c0.046,0.1,0.087,0.203,0.139,0.298
			c0.926,1.681,2.135,1.928,2.135,1.928l0.159,0.037l2.159,0.478c0.796,0.165,1.565,0.338,2.374,0.477
			c0.179,0.032,0.359,0.064,0.536,0.096c0.305,0.066,0.712,0.221,0.898,0.479c0.056,0.078,0.125,0.211,0.154,0.227L31.846,231.902z"
			/>
	</g>
	<g>
		<path class="st0" d="M27.498,225.286c-0.046-0.122-0.079-0.249-0.139-0.364c-0.203-0.371-0.421-0.733-0.703-1.048
			c-0.208-0.231-0.421-0.464-0.708-0.606c-0.107-0.053-0.219-0.102-0.334-0.133l-1.502-0.398c-0.664-0.184,0.262,0.073-3.701-1.028
			c-0.065-0.018-0.747-0.215-1.124-0.766c-0.038-0.031-0.067-0.12-0.109-0.145l-0.031,0.025c0.034,0.105,0.073,0.208,0.12,0.307
			c0.843,1.723,2.041,2.033,2.041,2.033l0.157,0.045l2.139,0.591l2.341,0.609c0.172,0.045,0.346,0.089,0.516,0.133
			c0.287,0.091,0.689,0.265,0.863,0.532c0.052,0.08,0.115,0.217,0.143,0.234L27.498,225.286z"/>
	</g>
	<g>
		<path class="st0" d="M23.52,218.442c-0.034-0.127-0.056-0.258-0.105-0.378c-0.159-0.394-0.363-0.764-0.63-1.092
			c-0.196-0.241-0.399-0.485-0.679-0.642c-0.105-0.059-0.214-0.113-0.328-0.15l-1.484-0.477c-0.656-0.219,0.259,0.087-3.655-1.223
			c-0.071-0.019-0.731-0.258-1.048-0.843c-0.034-0.035-0.057-0.125-0.099-0.152l-0.032,0.023c0.031,0.106,0.057,0.214,0.096,0.317
			c0.322,0.907,0.841,1.427,1.223,1.745c0.391,0.314,0.687,0.406,0.687,0.406l0.155,0.053l2.112,0.703l2.314,0.732
			c0.17,0.054,0.342,0.108,0.511,0.16c0.289,0.103,0.666,0.307,0.812,0.59c0.044,0.085,0.093,0.228,0.12,0.247L23.52,218.442z"/>
	</g>
	<g>
		<path class="st0" d="M19.958,211.373c-0.028-0.128-0.043-0.26-0.086-0.383c-0.14-0.401-0.326-0.781-0.577-1.122
			c-0.185-0.251-0.375-0.505-0.647-0.676c-0.102-0.064-0.209-0.124-0.321-0.167l-1.462-0.555c-0.633-0.264,0.236,0.136-3.568-1.429
			c-0.061-0.026-0.701-0.304-0.993-0.902c-0.032-0.037-0.051-0.127-0.092-0.156l-0.034,0.021c0.026,0.107,0.046,0.216,0.08,0.321
			c0.565,1.84,1.761,2.264,1.761,2.264l0.153,0.062l2.08,0.815l2.28,0.854c0.168,0.063,0.337,0.126,0.503,0.187
			c0.284,0.118,0.651,0.342,0.784,0.631c0.04,0.087,0.082,0.232,0.107,0.253L19.958,211.373z"/>
	</g>
	<g>
		<path class="st0" d="M16.787,204.121c-0.022-0.129-0.03-0.262-0.067-0.386c-0.12-0.407-0.287-0.796-0.521-1.149
			c-0.172-0.26-0.35-0.523-0.614-0.709c-0.099-0.069-0.203-0.135-0.313-0.184l-1.436-0.633c-0.315-0.141-0.253-0.113-0.582-0.261
			c-0.338-0.147-1.056-0.462-2.875-1.373c-0.06-0.029-0.686-0.341-0.949-0.953c-0.03-0.038-0.045-0.13-0.084-0.161l-0.035,0.019
			c0.021,0.108,0.036,0.218,0.064,0.324c0.247,0.927,0.648,1.522,0.986,1.882c0.337,0.361,0.62,0.486,0.62,0.486l0.15,0.07
			l2.041,0.925l2.24,0.975c0.165,0.071,0.331,0.143,0.494,0.214c0.278,0.133,0.635,0.376,0.753,0.671
			c0.036,0.089,0.071,0.235,0.095,0.258L16.787,204.121z"/>
	</g>
	<g>
		<path class="st0" d="M14.017,196.706c-0.015-0.13-0.017-0.262-0.048-0.388c-0.1-0.412-0.247-0.809-0.464-1.174
			c-0.159-0.268-0.324-0.541-0.579-0.74c-0.095-0.074-0.196-0.146-0.304-0.201l-1.405-0.709c-0.617-0.327,0.236,0.156-3.335-1.832
			c-0.058-0.033-0.669-0.378-0.901-1.003c-0.028-0.04-0.038-0.132-0.076-0.165l-0.036,0.017c0.015,0.109,0.025,0.22,0.047,0.327
			c0.401,1.879,1.483,2.451,1.483,2.451l0.141,0.079c0.633,0.36,1.297,0.707,1.964,1.044l2.193,1.094
			c0.162,0.08,0.325,0.161,0.484,0.24c0.272,0.148,0.616,0.41,0.72,0.71c0.031,0.091,0.059,0.239,0.082,0.262L14.017,196.706z"/>
	</g>
	<g>
		<path class="st0" d="M11.659,189.152c-0.009-0.13-0.004-0.263-0.028-0.39c-0.079-0.416-0.207-0.82-0.406-1.196
			c-0.146-0.276-0.297-0.557-0.543-0.769c-0.092-0.079-0.189-0.156-0.294-0.217c-0.46-0.261-0.905-0.522-1.341-0.792
			c-0.58-0.361,0.229,0.143-3.231-2.014c-0.057-0.036-0.65-0.414-0.851-1.05c-0.026-0.041-0.032-0.134-0.068-0.169l-0.037,0.015
			c0.01,0.109,0.014,0.22,0.031,0.328c0.307,1.896,1.36,2.526,1.36,2.526l0.137,0.087l1.871,1.159l2.138,1.212
			c0.158,0.089,0.317,0.179,0.472,0.266c0.265,0.162,0.596,0.442,0.685,0.748c0.027,0.092,0.047,0.241,0.069,0.266L11.659,189.152z"
			/>
	</g>
	<g>
		<path class="st0" d="M9.718,181.479c-0.002-0.13,0.009-0.262-0.009-0.39c-0.058-0.42-0.166-0.829-0.346-1.215
			c-0.132-0.284-0.269-0.572-0.504-0.797c-0.083-0.085-0.171-0.168-0.269-0.236l-1.276-0.869c-0.561-0.392,0.222,0.155-3.129-2.187
			c-0.055-0.039-0.629-0.449-0.798-1.094c-0.024-0.043-0.025-0.135-0.059-0.172l-0.037,0.013c0.004,0.11,0.002,0.22,0.015,0.329
			c0.211,1.908,1.232,2.595,1.232,2.595l0.132,0.094l1.809,1.26c0.654,0.458,1.346,0.899,2.041,1.334
			c0.153,0.097,0.308,0.195,0.459,0.292c0.256,0.176,0.574,0.474,0.648,0.783c0.022,0.093,0.035,0.243,0.056,0.269L9.718,181.479z"
			/>
	</g>
	<g>
		<path class="st0" d="M8.202,173.711c0.004-0.13,0.022-0.261,0.011-0.39c-0.037-0.422-0.124-0.836-0.285-1.231
			c-0.118-0.29-0.214-0.589-0.427-0.829c-0.078-0.09-0.163-0.177-0.257-0.25l-1.231-0.938c-0.541-0.422,0.214,0.167-3.017-2.355
			c-0.053-0.042-0.606-0.482-0.742-1.136c-0.022-0.044-0.018-0.136-0.05-0.175l-0.038,0.011c-0.001,0.11-0.009,0.22-0.002,0.329
			c0.114,1.916,1.1,2.657,1.1,2.657l0.128,0.101l1.745,1.357c0.647,0.491,1.271,0.976,1.936,1.449
			c0.148,0.106,0.298,0.212,0.444,0.316c0.248,0.19,0.55,0.504,0.608,0.817c0.017,0.094,0.023,0.244,0.042,0.271L8.202,173.711z"/>
	</g>
	<g>
		<path class="st0" d="M7.115,165.87c0.011-0.13,0.035-0.259,0.03-0.388c-0.018-0.423-0.085-0.841-0.196-1.247
			c-0.088-0.298-0.18-0.6-0.377-0.851c-0.074-0.094-0.154-0.186-0.244-0.264l-1.183-1.004c-0.519-0.451,0.205,0.178-2.895-2.516
			c-0.051-0.044-0.581-0.515-0.684-1.174c-0.02-0.045-0.011-0.137-0.041-0.177l-0.038,0.009c-0.007,0.109-0.02,0.219-0.019,0.329
			c0.017,1.918,0.965,2.712,0.965,2.712l0.122,0.108l1.675,1.451l1.849,1.554l0.408,0.342c0.232,0.204,0.523,0.534,0.564,0.849
			c0.013,0.095,0.011,0.245,0.029,0.273L7.115,165.87z"/>
	</g>
	<g>
		<path class="st0" d="M6.458,157.98c0.017-0.129,0.048-0.257,0.05-0.386c0.013-0.424,0-0.847-0.102-1.257
			c-0.072-0.302-0.149-0.609-0.333-0.871c-0.069-0.098-0.144-0.194-0.231-0.277l-1.131-1.067c-0.496-0.479,0.196,0.189-2.764-2.669
			c-0.048-0.047-0.554-0.545-0.623-1.209c-0.017-0.046-0.004-0.137-0.032-0.179l-0.039,0.007c-0.012,0.109-0.031,0.218-0.035,0.327
			c-0.08,1.916,0.826,2.76,0.826,2.76l0.117,0.115l1.599,1.539l1.768,1.652l0.391,0.364c0.221,0.216,0.455,0.564,0.489,0.88
			c0.008,0.096-0.002,0.245,0.015,0.274L6.458,157.98z"/>
	</g>
	<g>
		<path class="st0" d="M6.231,150.064c0.031-0.128,0.074-0.254,0.089-0.383c0.049-0.422,0.046-0.845-0.031-1.261
			c-0.057-0.306-0.118-0.617-0.289-0.888c-0.064-0.101-0.134-0.202-0.216-0.289l-1.075-1.126c-0.471-0.505,0.186,0.2-2.625-2.815
			c-0.038-0.049-0.544-0.575-0.543-1.24c-0.013-0.047,0.009-0.137-0.014-0.18l-0.039,0.005c-0.023,0.108-0.053,0.215-0.068,0.324
			c-0.197,1.908,0.675,2.8,0.675,2.8l0.111,0.121l1.519,1.624l1.682,1.746l0.372,0.384c0.204,0.228,0.438,0.588,0.431,0.906
			c-0.002,0.096-0.027,0.245-0.013,0.274L6.231,150.064z"/>
	</g>
	<g>
		<path class="st0" d="M6.458,142.148c0.037-0.126,0.087-0.25,0.108-0.377c0.07-0.419,0.089-0.842,0.033-1.261
			c-0.042-0.308-0.087-0.622-0.244-0.902c-0.059-0.105-0.124-0.209-0.202-0.3l-1.017-1.184c-0.445-0.53,0.176,0.21-2.479-2.955
			c-0.051-0.053-0.483-0.601-0.449-1.266c-0.01-0.047,0.016-0.136-0.005-0.181l-0.04,0.003c-0.029,0.106-0.063,0.212-0.084,0.32
			c-0.201,0.941-0.034,1.655,0.128,2.126c0.17,0.472,0.374,0.705,0.374,0.705l0.104,0.127l1.434,1.705l1.591,1.835l0.352,0.404
			c0.193,0.239,0.407,0.611,0.385,0.928c-0.007,0.096-0.039,0.243-0.027,0.273L6.458,142.148z"/>
	</g>
	<g>
		<path class="st0" d="M7.115,134.258c0.043-0.124,0.099-0.245,0.127-0.371c0.091-0.415,0.131-0.836,0.096-1.258
			c-0.026-0.31-0.055-0.626-0.198-0.915c-0.053-0.108-0.113-0.215-0.186-0.311L6,130.165c-0.406-0.556,0.14,0.24-2.302-3.085
			c-0.038-0.054-0.438-0.625-0.373-1.288c-0.008-0.048,0.023-0.135,0.004-0.181l-0.04,0c-0.034,0.105-0.074,0.209-0.1,0.315
			c-0.231,0.932-0.173,1.644-0.014,2.126c0.146,0.481,0.337,0.725,0.337,0.725l0.098,0.132l1.346,1.782l1.496,1.921
			c0.11,0.141,0.222,0.284,0.331,0.423c0.18,0.249,0.376,0.632,0.338,0.948c-0.012,0.095-0.051,0.241-0.041,0.272L7.115,134.258z"/>
	</g>
	<g>
		<path class="st0" d="M8.203,126.417c0.049-0.121,0.111-0.239,0.145-0.364c0.112-0.409,0.173-0.828,0.159-1.252
			c-0.01-0.311-0.024-0.629-0.151-0.925c-0.048-0.111-0.102-0.221-0.17-0.321l-0.891-1.29c-0.194-0.285-0.156-0.229-0.359-0.527
			c-0.194-0.299-0.68-0.951-1.745-2.676c-0.036-0.056-0.405-0.649-0.307-1.308c-0.006-0.048,0.03-0.134,0.013-0.181l-0.04-0.002
			c-0.039,0.103-0.084,0.204-0.116,0.309c-0.277,0.919-0.248,1.635-0.149,2.119c0.104,0.485,0.291,0.742,0.291,0.742l0.091,0.138
			l1.253,1.855l1.396,2.002c0.103,0.147,0.207,0.296,0.309,0.441c0.167,0.259,0.343,0.652,0.289,0.966
			c-0.016,0.095-0.063,0.238-0.054,0.269L8.203,126.417z"/>
	</g>
	<g>
		<path class="st0" d="M9.719,118.649c0.055-0.118,0.123-0.233,0.163-0.356c0.132-0.403,0.214-0.818,0.222-1.242
			c0.005-0.312,0.008-0.63-0.105-0.933c-0.042-0.113-0.091-0.227-0.153-0.33l-0.824-1.339c-0.341-0.598,0.085,0.248-1.9-3.308
			c-0.033-0.058-0.371-0.672-0.24-1.325c-0.003-0.049,0.037-0.132,0.022-0.18l-0.039-0.004c-0.044,0.101-0.094,0.2-0.131,0.303
			c-0.646,1.81-0.025,2.862-0.025,2.862l0.078,0.141c0.366,0.641,0.763,1.287,1.147,1.921l1.292,2.078
			c0.095,0.153,0.192,0.307,0.286,0.458c0.154,0.268,0.31,0.671,0.24,0.981c-0.021,0.094-0.075,0.234-0.068,0.266L9.719,118.649z"/>
	</g>
	<g>
		<path class="st0" d="M11.659,110.976c0.061-0.115,0.134-0.226,0.181-0.347c0.152-0.396,0.255-0.806,0.283-1.23
			c0.021-0.312,0.04-0.629-0.058-0.939c-0.036-0.116-0.079-0.232-0.136-0.339l-0.748-1.382c-0.304-0.61,0.12,0.241-1.694-3.403
			c-0.03-0.06-0.337-0.692-0.173-1.338c-0.001-0.049,0.043-0.13,0.031-0.179l-0.039-0.006c-0.049,0.098-0.104,0.195-0.146,0.296
			c-0.735,1.775-0.169,2.862-0.169,2.862l0.071,0.145c0.329,0.66,0.641,1.312,1.007,1.972l1.184,2.149
			c0.088,0.158,0.176,0.317,0.262,0.474c0.14,0.276,0.275,0.688,0.19,0.995c-0.026,0.092-0.087,0.23-0.081,0.262L11.659,110.976z"/>
	</g>
	<g>
		<path class="st0" d="M14.018,103.422c0.067-0.112,0.145-0.219,0.198-0.337c0.171-0.388,0.294-0.793,0.344-1.215
			c0.037-0.311,0.071-0.627-0.01-0.942c-0.03-0.118-0.067-0.236-0.119-0.346l-0.635-1.409c-0.272-0.627,0.108,0.248-1.518-3.498
			c-0.026-0.062-0.301-0.711-0.105-1.349c0.002-0.049,0.05-0.128,0.04-0.177l-0.039-0.008c-0.054,0.096-0.114,0.189-0.16,0.288
			c-0.822,1.736-0.312,2.854-0.312,2.854l0.063,0.149l0.88,2.019c0.321,0.733,0.704,1.48,1.056,2.209
			c0.079,0.163,0.159,0.327,0.238,0.488c0.126,0.284,0.24,0.704,0.14,1.005c-0.03,0.091-0.098,0.225-0.094,0.258L14.018,103.422z"/>
	</g>
	<g>
		<path class="st0" d="M16.787,96.007c0.072-0.108,0.156-0.211,0.214-0.326c0.19-0.379,0.333-0.777,0.403-1.197
			c0.046-0.311,0.114-0.619,0.061-0.933c-0.02-0.117-0.046-0.236-0.088-0.347l-0.558-1.443c-0.24-0.643,0.095,0.254-1.338-3.584
			c-0.023-0.063-0.264-0.728-0.038-1.356c0.004-0.049,0.056-0.126,0.049-0.175l-0.038-0.01c-0.059,0.093-0.123,0.183-0.174,0.279
			c-0.906,1.693-0.453,2.84-0.453,2.84l0.056,0.153l0.776,2.069c0.297,0.758,0.566,1.493,0.9,2.251
			c0.071,0.167,0.142,0.336,0.212,0.501c0.111,0.291,0.204,0.717,0.089,1.014c-0.035,0.09-0.109,0.22-0.106,0.253L16.787,96.007z"/>
	</g>
	<g>
		<path class="st0" d="M19.959,88.755c0.077-0.105,0.166-0.202,0.229-0.315c0.203-0.371,0.371-0.759,0.488-1.164
			c0.081-0.3,0.16-0.606,0.123-0.923c-0.014-0.119-0.034-0.239-0.071-0.353l-0.484-1.475c-0.207-0.657,0.082,0.26-1.154-3.661
			c-0.02-0.064-0.227-0.743,0.03-1.359c0.007-0.049,0.062-0.123,0.057-0.173L19.14,79.32c-0.063,0.09-0.131,0.177-0.188,0.27
			c-0.987,1.645-0.594,2.818-0.594,2.818l0.048,0.156l0.67,2.114l0.765,2.293c0.057,0.169,0.114,0.339,0.17,0.505
			c0.086,0.293,0.164,0.728,0.033,1.017c-0.039,0.088-0.119,0.214-0.119,0.247L19.959,88.755z"/>
	</g>
	<g>
		<path class="st0" d="M23.521,81.686c0.079-0.102,0.183-0.189,0.256-0.296c0.244-0.348,0.443-0.721,0.573-1.123
			c0.095-0.296,0.19-0.598,0.169-0.918c-0.008-0.12-0.022-0.241-0.053-0.357l-0.408-1.503c-0.173-0.669,0.068,0.264-0.966-3.728
			c-0.018-0.066-0.194-0.76,0.128-1.342c0.011-0.047,0.073-0.116,0.073-0.166l-0.037-0.015c-0.072,0.084-0.148,0.164-0.214,0.253
			c-0.578,0.768-0.729,1.488-0.789,1.98c-0.05,0.498,0.034,0.796,0.034,0.796l0.04,0.159l0.561,2.153l0.647,2.337
			c0.048,0.172,0.096,0.345,0.144,0.515c0.071,0.298,0.105,0.725-0.052,1.002c-0.049,0.083-0.139,0.203-0.138,0.237L23.521,81.686z"
			/>
	</g>
	<g>
		<path class="st0" d="M27.499,74.842c0.092-0.093,0.195-0.178,0.274-0.281c0.26-0.336,0.478-0.699,0.627-1.095
			c0.11-0.291,0.219-0.589,0.214-0.911c-0.002-0.12-0.01-0.243-0.035-0.36l-0.331-1.528c-0.127-0.676,0.021,0.275-0.753-3.772
			c-0.011-0.065-0.128-0.753,0.214-1.324c0.013-0.047,0.079-0.113,0.081-0.162l-0.036-0.017c-0.076,0.08-0.156,0.157-0.225,0.242
			c-0.604,0.745-0.862,1.41-0.925,1.914c-0.075,0.496-0.006,0.799-0.006,0.799l0.032,0.161l0.451,2.186l0.527,2.376
			c0.039,0.175,0.079,0.351,0.117,0.524c0.056,0.302,0.068,0.732-0.102,1.001c-0.051,0.081-0.15,0.195-0.153,0.228L27.499,74.842z"
			/>
	</g>
	<g>
		<path class="st0" d="M31.847,68.227c0.096-0.088,0.203-0.168,0.287-0.267c0.276-0.323,0.51-0.675,0.679-1.064
			c0.124-0.286,0.247-0.579,0.259-0.901c0.004-0.121,0.003-0.244-0.016-0.363l-0.253-1.548c-0.054-0.341-0.043-0.274-0.099-0.63
			c-0.06-0.363-0.19-1.138-0.422-3.159c-0.008-0.066-0.089-0.761,0.28-1.316c0.016-0.046,0.084-0.109,0.089-0.158l-0.035-0.019
			c-0.079,0.076-0.163,0.149-0.236,0.23c-0.641,0.713-0.92,1.375-1.037,1.855c-0.119,0.479-0.067,0.785-0.067,0.785l0.023,0.163
			l0.339,2.214l0.406,2.408c0.03,0.177,0.061,0.356,0.09,0.531c0.041,0.306,0.031,0.737-0.152,0.997
			c-0.055,0.079-0.159,0.188-0.164,0.22L31.847,68.227z"/>
	</g>
	<g>
		<path class="st0" d="M36.547,61.856c0.1-0.084,0.21-0.158,0.299-0.252c0.291-0.309,0.542-0.65,0.729-1.031
			c0.138-0.28,0.275-0.567,0.303-0.89c0.01-0.121,0.015-0.244,0.002-0.365l-0.174-1.564c-0.057-0.69,0.002,0.286-0.289-3.793
			c-0.005-0.067-0.05-0.768,0.345-1.304c0.018-0.045,0.089-0.104,0.096-0.154l-0.034-0.02c-0.083,0.072-0.17,0.141-0.247,0.219
			c-1.351,1.365-1.237,2.584-1.237,2.584l0.011,0.161c0.047,0.728,0.11,1.466,0.197,2.212l0.282,2.434
			c0.021,0.179,0.042,0.36,0.063,0.537c0.025,0.309-0.006,0.74-0.201,0.992c-0.059,0.076-0.167,0.18-0.174,0.212L36.547,61.856z"/>
	</g>
	<g>
		<path class="st0" d="M41.583,55.749c0.104-0.079,0.217-0.147,0.31-0.237c0.305-0.294,0.572-0.623,0.778-0.995
			c0.151-0.274,0.303-0.554,0.346-0.876c0.016-0.12,0.027-0.244,0.02-0.365l-0.062-1.547c-0.016-0.684,0.006,0.27-0.09-3.812
			c-0.001-0.067-0.011-0.772,0.41-1.289c0.02-0.045,0.094-0.1,0.104-0.149l-0.033-0.022c-0.086,0.068-0.176,0.132-0.257,0.206
			c-1.414,1.298-1.363,2.526-1.363,2.526l0.002,0.162l0.056,2.202c0.029,0.807,0.096,1.637,0.149,2.446
			c0.012,0.181,0.024,0.363,0.036,0.541c0.009,0.311-0.044,0.742-0.25,0.983c-0.062,0.073-0.176,0.172-0.184,0.203L41.583,55.749z"
			/>
	</g>
	<g>
		<path class="st0" d="M46.941,49.921c0.108-0.073,0.224-0.137,0.321-0.222c0.318-0.279,0.601-0.595,0.825-0.957
			c0.16-0.271,0.339-0.53,0.408-0.841c0.026-0.116,0.046-0.236,0.049-0.355l0.024-1.547c0.019-0.686-0.007,0.271,0.105-3.825
			c0.002-0.067,0.029-0.774,0.474-1.271c0.022-0.044,0.099-0.095,0.111-0.144l-0.031-0.024c-0.089,0.064-0.182,0.124-0.266,0.194
			c-1.474,1.229-1.486,2.462-1.486,2.462l-0.006,0.163l-0.058,2.21c-0.009,0.814-0.037,1.597-0.012,2.424
			c0.003,0.182,0.005,0.365,0.008,0.544c-0.007,0.312-0.081,0.741-0.299,0.973c-0.066,0.07-0.184,0.163-0.194,0.194L46.941,49.921z"
			/>
	</g>
	<g>
		<path class="st0" d="M52.605,44.39c0.111-0.068,0.23-0.126,0.331-0.206c0.326-0.269,0.635-0.559,0.892-0.893
			c0.187-0.248,0.376-0.502,0.46-0.81c0.032-0.115,0.058-0.234,0.067-0.354l0.104-1.55c0.054-0.687-0.021,0.271,0.302-3.828
			c0.006-0.067,0.068-0.774,0.537-1.249c0.024-0.043,0.103-0.091,0.12-0.136l-0.03-0.026c-0.096,0.055-0.189,0.113-0.277,0.178
			c-1.531,1.156-1.606,2.391-1.606,2.391l-0.014,0.163l-0.171,2.212l-0.15,2.414c-0.011,0.178-0.022,0.357-0.032,0.532
			c-0.035,0.299-0.124,0.733-0.355,0.952c-0.069,0.067-0.191,0.154-0.203,0.185L52.605,44.39z"/>
	</g>
	<g>
		<path class="st0" d="M58.561,39.174c0.118-0.058,0.243-0.105,0.351-0.175c0.356-0.232,0.681-0.503,0.951-0.828
			c0.199-0.239,0.4-0.484,0.5-0.789c0.037-0.114,0.07-0.232,0.085-0.351l0.184-1.548c0.09-0.685-0.036,0.271,0.5-3.821
			c0.005-0.073,0.114-0.765,0.626-1.189c0.028-0.04,0.111-0.08,0.13-0.127l-0.029-0.027c-0.098,0.051-0.199,0.097-0.292,0.155
			c-0.827,0.49-1.24,1.098-1.478,1.534c-0.233,0.444-0.267,0.752-0.267,0.752L59.8,32.921l-0.285,2.208L59.24,37.54
			c-0.02,0.178-0.04,0.357-0.06,0.532c-0.046,0.303-0.174,0.712-0.423,0.91c-0.075,0.06-0.206,0.135-0.22,0.165L58.561,39.174z"/>
	</g>
	<g>
		<path class="st0" d="M64.819,34.324c0.12-0.052,0.247-0.093,0.359-0.158c0.367-0.214,0.704-0.47,0.99-0.782
			c0.211-0.229,0.423-0.465,0.539-0.765c0.043-0.112,0.082-0.229,0.103-0.348l0.264-1.542c0.138-0.671-0.09,0.254,0.718-3.774
			c0.014-0.065,0.163-0.747,0.694-1.149c0.03-0.038,0.115-0.075,0.136-0.12l-0.027-0.029c-0.1,0.046-0.203,0.087-0.299,0.14
			c-1.695,0.911-1.884,2.161-1.884,2.161l-0.031,0.162l-0.4,2.198l-0.4,2.402c-0.029,0.177-0.058,0.355-0.087,0.53
			c-0.061,0.301-0.211,0.705-0.469,0.891c-0.078,0.056-0.212,0.125-0.227,0.154L64.819,34.324z"/>
	</g>
	<g>
		<path class="st0" d="M71.328,29.818c0.122-0.046,0.251-0.08,0.366-0.14c0.376-0.196,0.725-0.435,1.027-0.734
			c0.222-0.219,0.446-0.445,0.577-0.74c0.049-0.11,0.094-0.225,0.121-0.343l0.344-1.532c0.178-0.657-0.118,0.226,0.94-3.703
			c0.017-0.064,0.202-0.74,0.752-1.116c0.032-0.037,0.119-0.069,0.142-0.114l-0.026-0.03c-0.102,0.041-0.207,0.077-0.305,0.125
			c-1.726,0.846-2.014,2.032-2.014,2.032l-0.041,0.157l-0.514,2.182L72.17,28.25c-0.038,0.176-0.077,0.353-0.115,0.527
			c-0.077,0.299-0.247,0.696-0.514,0.869c-0.08,0.052-0.217,0.115-0.234,0.143L71.328,29.818z"/>
	</g>
	<g>
		<path class="st0" d="M78.071,25.672c0.124-0.04,0.254-0.068,0.371-0.122c0.385-0.178,0.745-0.4,1.061-0.684
			c0.232-0.209,0.467-0.423,0.614-0.712c0.055-0.108,0.105-0.221,0.138-0.338l0.426-1.515c0.207-0.649-0.082,0.257,1.157-3.621
			c0.021-0.064,0.241-0.731,0.809-1.08c0.034-0.035,0.122-0.063,0.147-0.107l-0.024-0.032c-0.104,0.036-0.21,0.067-0.311,0.11
			c-1.764,0.76-2.115,1.934-2.115,1.934l-0.051,0.154c-0.226,0.7-0.452,1.392-0.651,2.119l-0.65,2.365
			c-0.048,0.174-0.095,0.35-0.142,0.522c-0.092,0.296-0.283,0.685-0.558,0.845c-0.083,0.048-0.222,0.104-0.241,0.131L78.071,25.672z
			"/>
	</g>
	<g>
		<path class="st0" d="M85.028,21.899c0.126-0.034,0.257-0.055,0.376-0.104c0.393-0.159,0.764-0.363,1.094-0.632
			c0.243-0.197,0.488-0.4,0.649-0.683c0.06-0.106,0.117-0.216,0.156-0.331l0.526-1.453c0.242-0.64-0.096,0.253,1.348-3.568
			c0.024-0.063,0.28-0.72,0.864-1.041c0.035-0.034,0.125-0.057,0.152-0.099l-0.022-0.033c-0.105,0.031-0.213,0.057-0.316,0.095
			c-1.799,0.673-2.212,1.831-2.212,1.831l-0.059,0.151l-0.775,2.062c-0.281,0.749-0.526,1.551-0.782,2.32
			c-0.057,0.172-0.114,0.346-0.17,0.516c-0.108,0.291-0.318,0.672-0.601,0.818c-0.085,0.044-0.227,0.093-0.247,0.12L85.028,21.899z"
			/>
	</g>
	<g>
		<path class="st0" d="M92.181,18.51c0.127-0.028,0.259-0.043,0.381-0.085c0.4-0.139,0.78-0.326,1.123-0.578
			c0.25-0.192,0.514-0.362,0.695-0.625c0.068-0.098,0.132-0.201,0.179-0.311l0.605-1.424c0.276-0.628-0.109,0.248,1.537-3.504
			c0.027-0.062,0.318-0.706,0.918-0.999c0.037-0.032,0.128-0.051,0.157-0.092l-0.02-0.034c-0.107,0.026-0.215,0.046-0.32,0.079
			c-1.829,0.584-2.303,1.722-2.303,1.722l-0.067,0.149l-0.885,2.025c-0.314,0.751-0.635,1.465-0.923,2.24
			c-0.066,0.169-0.132,0.34-0.197,0.508c-0.123,0.286-0.353,0.657-0.642,0.789c-0.087,0.04-0.231,0.082-0.252,0.107L92.181,18.51z"
			/>
	</g>
	<g>
		<path class="st0" d="M99.509,15.518c0.128-0.021,0.26-0.03,0.384-0.066c0.404-0.125,0.795-0.286,1.161-0.495
			c0.267-0.159,0.537-0.323,0.732-0.576c0.073-0.095,0.142-0.195,0.195-0.302l0.68-1.395c0.309-0.615-0.122,0.243,1.724-3.429
			c0.031-0.06,0.356-0.691,0.969-0.953c0.039-0.03,0.13-0.045,0.162-0.084l-0.018-0.035c-0.108,0.02-0.217,0.035-0.323,0.063
			c-1.855,0.492-2.39,1.607-2.39,1.607l-0.075,0.145l-0.993,1.982l-1.049,2.177c-0.077,0.16-0.154,0.322-0.23,0.48
			c-0.143,0.269-0.389,0.636-0.685,0.753c-0.089,0.036-0.235,0.071-0.257,0.095L99.509,15.518z"/>
	</g>
	<g>
		<path class="st0" d="M106.99,12.931c0.128-0.017,0.261-0.015,0.389-0.038c0.417-0.079,0.821-0.207,1.194-0.405
			c0.275-0.145,0.553-0.296,0.761-0.54c0.078-0.091,0.153-0.188,0.211-0.292l0.755-1.361c0.342-0.6-0.135,0.237,1.907-3.344
			c0.036-0.05,0.387-0.694,1.025-0.882c0.041-0.026,0.134-0.032,0.168-0.068l-0.016-0.036c-0.11,0.01-0.221,0.014-0.329,0.031
			c-1.884,0.368-2.475,1.472-2.475,1.472l-0.082,0.142l-1.099,1.933l-1.165,2.125c-0.086,0.157-0.172,0.315-0.256,0.469
			c-0.157,0.263-0.43,0.592-0.736,0.681c-0.093,0.024-0.239,0.056-0.263,0.078L106.99,12.931z"/>
	</g>
	<g>
		<path class="st0" d="M114.611,10.792c0.131-0.002,0.264,0.009,0.392-0.009c0.421-0.058,0.83-0.166,1.213-0.345
			c0.282-0.132,0.568-0.268,0.789-0.502c0.083-0.087,0.162-0.18,0.227-0.282l0.828-1.324c0.374-0.582-0.148,0.23,2.087-3.244
			c0.037-0.055,0.434-0.627,1.078-0.795c0.042-0.024,0.135-0.025,0.171-0.059l-0.014-0.037c-0.11,0.004-0.221,0.003-0.33,0.015
			c-0.957,0.093-1.597,0.432-1.995,0.741c-0.4,0.303-0.563,0.567-0.563,0.567l-0.09,0.137l-1.202,1.878l-1.279,2.067
			c-0.094,0.152-0.189,0.306-0.281,0.456c-0.171,0.255-0.462,0.571-0.771,0.644c-0.093,0.022-0.244,0.035-0.269,0.056
			L114.611,10.792z"/>
	</g>
	<g>
		<path class="st0" d="M122.339,9.082c0.131,0.004,0.263,0.022,0.392,0.011c0.423-0.037,0.837-0.124,1.229-0.284
			c0.289-0.117,0.581-0.24,0.815-0.462c0.087-0.083,0.172-0.172,0.242-0.27l0.899-1.282c0.412-0.545-0.191,0.186,2.267-3.1
			c0.04-0.053,0.468-0.605,1.119-0.74c0.043-0.022,0.136-0.018,0.174-0.05l-0.012-0.038c-0.11-0.001-0.221-0.008-0.33-0.002
			c-1.922,0.095-2.63,1.141-2.63,1.141l-0.097,0.133l-1.303,1.817l-1.39,2.002c-0.102,0.148-0.205,0.296-0.306,0.442
			c-0.184,0.246-0.492,0.548-0.805,0.605c-0.094,0.017-0.245,0.023-0.271,0.042L122.339,9.082z"/>
	</g>
	<g>
		<path class="st0" d="M130.15,7.798c0.13,0.011,0.261,0.035,0.39,0.03c0.424-0.016,0.842-0.082,1.242-0.222
			c0.294-0.103,0.593-0.21,0.838-0.421c0.092-0.079,0.181-0.163,0.256-0.258l0.968-1.235c0.215-0.271,0.172-0.217,0.396-0.5
			c0.227-0.289,0.708-0.914,2.04-2.449c0.043-0.051,0.5-0.58,1.158-0.683c0.045-0.02,0.137-0.011,0.177-0.041l-0.01-0.038
			c-0.11-0.007-0.22-0.02-0.33-0.019c-0.959,0.009-1.635,0.251-2.067,0.489c-0.433,0.234-0.623,0.484-0.623,0.484l-0.104,0.128
			l-1.4,1.75l-1.498,1.93c-0.11,0.142-0.221,0.286-0.33,0.426c-0.198,0.237-0.521,0.522-0.837,0.565
			c-0.095,0.013-0.246,0.011-0.273,0.028L130.15,7.798z"/>
	</g>
	<g>
		<path class="st0" d="M138.019,6.942c0.129,0.017,0.259,0.048,0.388,0.05c0.424,0.006,0.845-0.039,1.252-0.159
			c0.3-0.088,0.604-0.18,0.86-0.378c0.096-0.074,0.19-0.154,0.27-0.245l1.034-1.185c0.469-0.509-0.21,0.161,2.594-2.792
			c0.046-0.048,0.531-0.554,1.193-0.623c0.046-0.017,0.137-0.004,0.179-0.032l-0.008-0.039c-0.109-0.012-0.219-0.031-0.328-0.035
			c-1.92-0.079-2.739,0.827-2.739,0.827l-0.111,0.117c-0.504,0.528-1.003,1.108-1.494,1.661l-1.601,1.853l-0.352,0.409
			c-0.21,0.227-0.549,0.496-0.866,0.522c-0.096,0.008-0.246-0.002-0.274,0.015L138.019,6.942z"/>
	</g>
	<g>
		<path class="st0" d="M145.924,6.515c0.128,0.024,0.256,0.061,0.385,0.069c0.423,0.027,0.846,0.003,1.259-0.095
			c0.304-0.073,0.613-0.149,0.879-0.334c0.1-0.069,0.198-0.144,0.283-0.231l1.096-1.131c0.492-0.472-0.194,0.186,2.742-2.63
			c0.048-0.046,0.56-0.527,1.225-0.562c0.046-0.015,0.137,0.003,0.18-0.023l-0.006-0.039c-0.109-0.018-0.217-0.042-0.326-0.052
			c-1.913-0.176-2.78,0.687-2.78,0.687l-0.118,0.111c-0.532,0.502-1.061,1.012-1.582,1.556l-1.699,1.77l-0.374,0.391
			c-0.222,0.216-0.575,0.467-0.893,0.477c-0.096,0.003-0.245-0.014-0.275,0.001L145.924,6.515z"/>
	</g>
	<g>
		<path class="st0" d="M153.842,6.516c0.127,0.03,0.252,0.074,0.381,0.089c0.421,0.048,0.845,0.046,1.263-0.032
			c0.307-0.057,0.62-0.118,0.896-0.289c0.103-0.064,0.205-0.134,0.295-0.216c0.386-0.358,0.768-0.718,1.155-1.05
			c0.517-0.446-0.204,0.176,2.882-2.484c0.051-0.044,0.588-0.498,1.254-0.499c0.047-0.013,0.137,0.01,0.181-0.014l-0.004-0.039
			c-0.107-0.023-0.214-0.053-0.323-0.068c-1.901-0.272-2.815,0.545-2.815,0.545l-0.124,0.105c-0.559,0.484-1.114,0.948-1.663,1.447
			l-1.793,1.681l-0.395,0.372c-0.234,0.204-0.6,0.438-0.918,0.432c-0.096-0.002-0.244-0.027-0.274-0.013L153.842,6.516z"/>
	</g>
	<g>
		<path class="st0" d="M161.747,6.942c0.125,0.037,0.248,0.087,0.375,0.108c0.418,0.07,0.841,0.089,1.263,0.032
			c0.31-0.042,0.626-0.087,0.911-0.243c0.107-0.059,0.213-0.123,0.306-0.201l1.208-0.959c0.541-0.419-0.214,0.166,3.015-2.334
			c0.053-0.041,0.615-0.467,1.281-0.435c0.048-0.01,0.136,0.016,0.182-0.005l-0.002-0.04c-0.106-0.029-0.211-0.063-0.319-0.084
			c-1.885-0.368-2.842,0.402-2.842,0.402l-0.129,0.098l-1.739,1.351c-0.631,0.485-1.26,1.046-1.88,1.566
			c-0.138,0.117-0.278,0.235-0.415,0.351c-0.245,0.192-0.623,0.407-0.94,0.385c-0.096-0.007-0.242-0.039-0.273-0.027L161.747,6.942z
			"/>
	</g>
	<g>
		<path class="st0" d="M169.616,7.798c0.123,0.043,0.243,0.099,0.369,0.127c0.414,0.091,0.835,0.131,1.26,0.096
			c0.312-0.028,0.63-0.056,0.92-0.179c0.109-0.048,0.217-0.102,0.315-0.171l1.26-0.896c0.564-0.391-0.223,0.154,3.142-2.178
			c0.055-0.038,0.64-0.435,1.304-0.369c0.048-0.008,0.135,0.023,0.182,0.004l0.001-0.04c-0.104-0.034-0.208-0.074-0.314-0.1
			c-1.863-0.463-2.863,0.258-2.863,0.258l-0.134,0.092l-1.813,1.261c-0.659,0.467-1.308,0.925-1.959,1.434
			c-0.145,0.11-0.291,0.221-0.433,0.329c-0.255,0.18-0.645,0.374-0.96,0.336c-0.095-0.011-0.24-0.051-0.271-0.041L169.616,7.798z"/>
	</g>
	<g>
		<path class="st0" d="M177.427,9.082c0.12,0.049,0.237,0.111,0.362,0.145c0.408,0.116,0.83,0.162,1.251,0.17
			c0.31,0.005,0.626,0.008,0.924-0.106c0.111-0.042,0.223-0.091,0.324-0.155l1.309-0.83c0.585-0.361-0.231,0.143,3.261-2.014
			c0.058-0.035,0.664-0.402,1.324-0.303c0.049-0.005,0.134,0.03,0.182,0.013l0.003-0.039c-0.103-0.039-0.204-0.084-0.308-0.116
			c-1.837-0.555-2.876,0.113-2.876,0.113l-0.139,0.085l-1.882,1.166l-2.031,1.302c-0.15,0.1-0.302,0.202-0.45,0.301
			c-0.265,0.166-0.665,0.341-0.978,0.287c-0.095-0.016-0.237-0.063-0.269-0.054L177.427,9.082z"/>
	</g>
	<g>
		<path class="st0" d="M185.155,10.792c0.118,0.055,0.231,0.123,0.354,0.163c0.404,0.126,0.809,0.248,1.232,0.271
			c0.31,0.021,0.626,0.039,0.93-0.059c0.114-0.037,0.228-0.08,0.333-0.138l1.354-0.762c0.605-0.331-0.239,0.131,3.372-1.845
			c0.059-0.032,0.686-0.368,1.34-0.235c0.048-0.001,0.13,0.043,0.178,0.031l0.005-0.039c-0.098-0.05-0.196-0.105-0.299-0.14
			c-1.806-0.646-2.882-0.032-2.882-0.032l-0.144,0.077l-1.946,1.069l-2.103,1.197c-0.155,0.088-0.311,0.178-0.463,0.265
			c-0.271,0.141-0.675,0.274-0.987,0.211c-0.094-0.021-0.234-0.075-0.266-0.068L185.155,10.792z"/>
	</g>
	<g>
		<path class="st0" d="M192.776,12.932c0.113,0.067,0.22,0.146,0.339,0.198c0.389,0.172,0.793,0.295,1.213,0.344
			c0.309,0.036,0.624,0.07,0.934-0.013c0.116-0.031,0.233-0.068,0.34-0.121l1.397-0.692c0.623-0.3-0.246,0.118,3.474-1.67
			c0.064-0.036,0.704-0.325,1.339-0.126c0.049,0.002,0.128,0.05,0.177,0.04l0.007-0.039c-0.096-0.054-0.19-0.114-0.289-0.161
			c-0.862-0.427-1.598-0.437-2.093-0.399c-0.499,0.048-0.775,0.187-0.775,0.187l-0.148,0.07l-2.005,0.968l-2.17,1.088
			c-0.16,0.08-0.32,0.161-0.478,0.241c-0.279,0.128-0.692,0.244-0.993,0.143c-0.091-0.03-0.226-0.098-0.258-0.094L192.776,12.932z"
			/>
	</g>
	<g>
		<path class="st0" d="M200.257,15.519c0.109,0.072,0.212,0.157,0.328,0.215c0.38,0.19,0.778,0.333,1.195,0.403
			c0.307,0.051,0.62,0.101,0.935,0.034c0.118-0.025,0.236-0.056,0.347-0.104l1.436-0.62c0.638-0.253-0.265,0.069,3.556-1.462
			c0.062-0.024,0.715-0.27,1.341-0.045c0.048,0.004,0.126,0.056,0.175,0.048l0.009-0.039c-0.093-0.059-0.184-0.123-0.281-0.175
			c-1.687-0.927-2.841-0.396-2.841-0.396l-0.152,0.062l-2.06,0.864l-2.231,0.976c-0.164,0.072-0.33,0.145-0.492,0.216
			c-0.286,0.113-0.705,0.208-1.002,0.093c-0.089-0.035-0.221-0.109-0.253-0.106L200.257,15.519z"/>
	</g>
	<g>
		<path class="st0" d="M207.584,18.511c0.105,0.077,0.204,0.167,0.317,0.23c0.37,0.209,0.76,0.371,1.174,0.461
			c0.305,0.067,0.616,0.132,0.934,0.08c0.119-0.019,0.24-0.044,0.353-0.086l1.471-0.546c0.324-0.118,0.26-0.095,0.599-0.219
			c0.345-0.13,1.08-0.404,3.019-1.019c0.063-0.021,0.73-0.234,1.345,0.023c0.048,0.006,0.123,0.062,0.172,0.057l0.011-0.038
			c-0.09-0.063-0.178-0.132-0.271-0.188c-0.823-0.493-1.526-0.64-2.019-0.662c-0.493-0.024-0.783,0.084-0.783,0.084l-0.156,0.054
			l-2.108,0.758l-2.286,0.861c-0.168,0.064-0.338,0.128-0.504,0.191c-0.292,0.099-0.717,0.172-1.008,0.043
			c-0.088-0.039-0.215-0.12-0.247-0.119L207.584,18.511z"/>
	</g>
	<g>
		<path class="st0" d="M214.737,21.9c0.101,0.082,0.195,0.176,0.305,0.245c0.359,0.226,0.741,0.407,1.151,0.518
			c0.301,0.081,0.609,0.162,0.931,0.127c0.12-0.013,0.242-0.032,0.358-0.068l1.502-0.47c0.668-0.191-0.28,0.056,3.668-1.01
			c0.065-0.017,0.744-0.196,1.346,0.09c0.048,0.009,0.12,0.068,0.17,0.065l0.014-0.037c-0.087-0.067-0.171-0.14-0.262-0.201
			c-1.598-1.066-2.773-0.721-2.773-0.721l-0.156,0.041c-0.705,0.185-1.419,0.391-2.134,0.618l-2.335,0.743
			c-0.172,0.055-0.345,0.111-0.515,0.165c-0.298,0.084-0.728,0.136-1.012-0.007c-0.086-0.043-0.209-0.13-0.241-0.131L214.737,21.9z"
			/>
	</g>
	<g>
		<path class="st0" d="M221.695,25.674c0.097,0.087,0.186,0.185,0.292,0.259c0.347,0.243,0.721,0.443,1.125,0.574
			c0.298,0.096,0.602,0.191,0.926,0.173c0.121-0.007,0.245-0.02,0.362-0.05c0.513-0.136,1.003-0.239,1.509-0.359
			c0.668-0.146-0.264,0.058,3.724-0.815c0.066-0.014,0.755-0.158,1.343,0.157c0.048,0.011,0.116,0.073,0.166,0.074l0.016-0.036
			c-0.083-0.071-0.164-0.148-0.251-0.213c-1.544-1.142-2.739-0.857-2.739-0.857l-0.159,0.033l-2.15,0.474
			c-0.79,0.189-1.589,0.408-2.374,0.616c-0.175,0.046-0.352,0.093-0.524,0.139c-0.303,0.068-0.736,0.099-1.013-0.058
			c-0.083-0.047-0.202-0.14-0.235-0.142L221.695,25.674z"/>
	</g>
	<g>
		<path class="st0" d="M228.438,29.82c0.093,0.092,0.177,0.194,0.279,0.273c0.335,0.259,0.698,0.477,1.097,0.627
			c0.296,0.106,0.59,0.224,0.906,0.236c0.119,0.003,0.241,0,0.358-0.02l1.523-0.271c0.677-0.112-0.268,0.044,3.774-0.624
			c0.066-0.011,0.765-0.119,1.337,0.224c0.047,0.014,0.113,0.079,0.163,0.082l0.018-0.035c-0.08-0.075-0.156-0.156-0.241-0.225
			c-1.487-1.214-2.699-0.991-2.699-0.991l-0.161,0.025l-2.179,0.364c-0.798,0.143-1.577,0.273-2.384,0.454
			c-0.178,0.037-0.357,0.075-0.533,0.112c-0.307,0.053-0.743,0.062-1.012-0.108c-0.081-0.051-0.195-0.149-0.228-0.153L228.438,29.82
			z"/>
	</g>
	<g>
		<path class="st0" d="M234.947,34.325c0.088,0.096,0.167,0.202,0.265,0.285c0.324,0.272,0.675,0.509,1.049,0.701
			c0.279,0.137,0.564,0.273,0.883,0.298c0.119,0.009,0.241,0.013,0.36-0.002l1.541-0.193c0.684-0.077-0.27,0.031,3.814-0.431
			c0.067-0.007,0.773-0.08,1.328,0.29c0.047,0.016,0.109,0.084,0.159,0.089l0.019-0.034c-0.076-0.079-0.148-0.163-0.229-0.236
			c-1.426-1.283-2.652-1.122-2.652-1.122l-0.162,0.017l-2.203,0.253l-2.397,0.311c-0.176,0.023-0.354,0.047-0.529,0.07
			c-0.305,0.03-0.746,0.022-1.005-0.162c-0.079-0.055-0.187-0.158-0.22-0.164L234.947,34.325z"/>
	</g>
	<g>
		<path class="st0" d="M241.204,39.176c0.083,0.1,0.15,0.217,0.241,0.309c0.295,0.306,0.623,0.573,0.993,0.777
			c0.272,0.15,0.551,0.301,0.869,0.341c0.119,0.015,0.241,0.025,0.361,0.016l1.554-0.114c0.69-0.042-0.273,0.017,3.845-0.236
			c0.071-0.007,0.78-0.042,1.29,0.384c0.044,0.02,0.1,0.094,0.149,0.103l0.021-0.033c-0.069-0.086-0.133-0.177-0.207-0.258
			c-0.639-0.719-1.32-1.001-1.79-1.155c-0.48-0.144-0.788-0.119-0.788-0.119l-0.164,0.009l-2.221,0.14l-2.418,0.189
			c-0.178,0.014-0.358,0.029-0.533,0.043c-0.306,0.013-0.732-0.036-0.974-0.242c-0.073-0.063-0.172-0.177-0.206-0.182
			L241.204,39.176z"/>
	</g>
	<g>
		<path class="st0" d="M247.16,44.392c0.074,0.108,0.138,0.225,0.223,0.322c0.28,0.319,0.595,0.602,0.956,0.824
			c0.265,0.163,0.537,0.327,0.854,0.383c0.118,0.021,0.24,0.037,0.361,0.035l1.563-0.034c0.686,0.006-0.271-0.036,3.844-0.017
			c0.066,0.001,0.764,0.018,1.26,0.462c0.043,0.022,0.095,0.099,0.144,0.11l0.023-0.032c-0.064-0.089-0.124-0.183-0.195-0.267
			c-1.216-1.491-2.483-1.435-2.483-1.435l-0.164,0l-2.233,0.026l-2.434,0.065c-0.179,0.005-0.36,0.01-0.537,0.015
			c-0.307-0.003-0.732-0.073-0.963-0.291c-0.07-0.066-0.163-0.184-0.194-0.194L247.16,44.392z"/>
	</g>
	<g>
		<path class="st0" d="M252.824,49.923c0.069,0.111,0.127,0.231,0.207,0.332c0.264,0.332,0.566,0.629,0.916,0.869
			c0.257,0.176,0.521,0.353,0.836,0.425c0.118,0.027,0.239,0.049,0.36,0.053l1.569,0.046c0.345,0.012,0.277,0.01,0.638,0.022
			c0.369,0.009,1.145,0.037,3.178,0.191c0.066,0.005,0.765,0.057,1.239,0.525c0.042,0.024,0.091,0.103,0.139,0.117l0.025-0.031
			c-0.06-0.092-0.115-0.189-0.181-0.276c-1.159-1.533-2.379-1.589-2.379-1.589l-0.165-0.008l-2.239-0.089l-2.442-0.06
			c-0.18-0.004-0.361-0.008-0.539-0.012c-0.308-0.018-0.73-0.11-0.951-0.339c-0.067-0.069-0.154-0.192-0.185-0.203L252.824,49.923z"
			/>
	</g>
	<g>
		<path class="st0" d="M258.182,55.751c0.063,0.114,0.115,0.236,0.191,0.341c0.248,0.344,0.535,0.655,0.874,0.912
			c0.249,0.188,0.505,0.378,0.816,0.466c0.116,0.033,0.237,0.061,0.358,0.071l1.569,0.127c0.677,0.079-0.268-0.031,3.776,0.442
			c0.066,0.008,0.764,0.097,1.215,0.587c0.041,0.026,0.086,0.107,0.133,0.124l0.027-0.029c-0.055-0.095-0.106-0.194-0.168-0.284
			c-1.084-1.586-2.303-1.705-2.303-1.705l-0.161-0.02c-0.729-0.089-1.455-0.176-2.205-0.232l-2.445-0.186
			c-0.18-0.013-0.362-0.027-0.539-0.04c-0.308-0.034-0.726-0.147-0.936-0.386c-0.063-0.072-0.145-0.199-0.175-0.211L258.182,55.751z
			"/>
	</g>
	<g>
		<path class="st0" d="M263.218,61.858c0.057,0.117,0.104,0.241,0.174,0.35c0.231,0.355,0.503,0.68,0.829,0.952
			c0.24,0.2,0.487,0.403,0.795,0.506c0.115,0.039,0.234,0.073,0.355,0.089l1.526,0.238c0.675,0.114-0.267-0.045,3.761,0.637
			c0.066,0.011,0.76,0.136,1.188,0.648c0.04,0.028,0.08,0.111,0.127,0.13l0.028-0.028c-0.051-0.097-0.096-0.198-0.154-0.291
			c-1.006-1.635-2.222-1.818-2.222-1.818l-0.16-0.028l-2.173-0.365c-0.788-0.133-1.623-0.22-2.426-0.323
			c-0.18-0.023-0.361-0.045-0.539-0.068c-0.307-0.05-0.72-0.184-0.918-0.433c-0.06-0.075-0.135-0.205-0.165-0.22L263.218,61.858z"/>
	</g>
	<g>
		<path class="st0" d="M267.917,68.229c0.052,0.119,0.092,0.245,0.157,0.357c0.214,0.366,0.47,0.703,0.783,0.991
			c0.236,0.208,0.447,0.44,0.744,0.564c0.109,0.047,0.223,0.09,0.34,0.115l1.515,0.319c0.67,0.149-0.265-0.059,3.736,0.833
			c0.066,0.015,0.755,0.176,1.158,0.707c0.039,0.03,0.075,0.115,0.121,0.136l0.03-0.026c-0.046-0.1-0.087-0.203-0.139-0.298
			c-0.926-1.681-2.135-1.928-2.135-1.928l-0.159-0.037l-2.159-0.478c-0.796-0.165-1.565-0.338-2.374-0.477
			c-0.179-0.032-0.359-0.064-0.536-0.096c-0.305-0.066-0.712-0.221-0.898-0.479c-0.056-0.078-0.125-0.211-0.154-0.227
			L267.917,68.229z"/>
	</g>
	<g>
		<path class="st0" d="M272.265,74.844c0.046,0.122,0.08,0.249,0.139,0.364c0.203,0.371,0.421,0.733,0.703,1.048
			c0.208,0.231,0.421,0.464,0.708,0.606c0.107,0.053,0.219,0.102,0.334,0.133l1.502,0.398c0.664,0.184-0.262-0.073,3.701,1.029
			c0.065,0.018,0.747,0.215,1.124,0.766c0.039,0.031,0.067,0.12,0.109,0.145l0.031-0.025c-0.034-0.105-0.073-0.208-0.12-0.307
			c-0.843-1.723-2.041-2.033-2.041-2.033l-0.157-0.045l-2.139-0.591l-2.341-0.609c-0.172-0.045-0.346-0.089-0.516-0.133
			c-0.287-0.091-0.689-0.265-0.863-0.532c-0.052-0.08-0.115-0.217-0.143-0.234L272.265,74.844z"/>
	</g>
	<g>
		<path class="st0" d="M276.244,81.688c0.034,0.127,0.056,0.258,0.105,0.378c0.159,0.394,0.363,0.764,0.63,1.092
			c0.196,0.241,0.399,0.485,0.679,0.642c0.105,0.059,0.214,0.113,0.328,0.15l1.484,0.477c0.656,0.219-0.259-0.087,3.655,1.223
			c0.07,0.019,0.731,0.258,1.047,0.843c0.034,0.035,0.057,0.125,0.099,0.152l0.032-0.023c-0.031-0.106-0.057-0.214-0.096-0.317
			c-0.322-0.907-0.841-1.427-1.223-1.745c-0.391-0.314-0.687-0.406-0.687-0.406l-0.155-0.053l-2.112-0.703l-2.314-0.732
			c-0.17-0.054-0.342-0.108-0.511-0.16c-0.289-0.103-0.666-0.307-0.812-0.59c-0.044-0.085-0.094-0.228-0.12-0.247L276.244,81.688z"
			/>
	</g>
	<g>
		<path class="st0" d="M279.806,88.758c0.028,0.128,0.043,0.26,0.086,0.383c0.14,0.401,0.326,0.781,0.577,1.122
			c0.185,0.251,0.375,0.505,0.647,0.676c0.102,0.064,0.209,0.124,0.321,0.167l1.462,0.555c0.633,0.264-0.236-0.136,3.568,1.429
			c0.061,0.026,0.701,0.304,0.993,0.902c0.032,0.037,0.051,0.128,0.092,0.156l0.034-0.021c-0.026-0.107-0.046-0.216-0.08-0.321
			c-0.565-1.84-1.761-2.264-1.761-2.264l-0.153-0.062l-2.08-0.815l-2.28-0.854c-0.168-0.063-0.337-0.126-0.503-0.187
			c-0.284-0.118-0.651-0.342-0.784-0.631c-0.04-0.087-0.082-0.232-0.107-0.253L279.806,88.758z"/>
	</g>
	<g>
		<path class="st0" d="M282.977,96.01c0.022,0.129,0.03,0.262,0.067,0.386c0.12,0.407,0.287,0.796,0.521,1.149
			c0.172,0.26,0.35,0.523,0.614,0.709c0.099,0.069,0.203,0.135,0.313,0.184l1.436,0.633c0.315,0.141,0.253,0.113,0.582,0.261
			c0.338,0.147,1.056,0.462,2.875,1.373c0.06,0.029,0.686,0.341,0.949,0.953c0.03,0.038,0.045,0.13,0.084,0.161l0.035-0.019
			c-0.021-0.108-0.036-0.218-0.064-0.324c-0.247-0.927-0.648-1.522-0.986-1.882c-0.337-0.361-0.62-0.486-0.62-0.486l-0.15-0.07
			l-2.041-0.925l-2.24-0.975c-0.165-0.071-0.331-0.144-0.494-0.214c-0.278-0.133-0.635-0.376-0.753-0.671
			c-0.036-0.089-0.071-0.235-0.095-0.258L282.977,96.01z"/>
	</g>
	<g>
		<path class="st0" d="M285.746,103.424c0.015,0.13,0.017,0.262,0.048,0.388c0.1,0.412,0.247,0.809,0.464,1.174
			c0.159,0.268,0.324,0.541,0.579,0.74c0.095,0.074,0.196,0.146,0.304,0.201l1.405,0.709c0.618,0.327-0.236-0.156,3.335,1.832
			c0.058,0.033,0.669,0.378,0.901,1.003c0.028,0.04,0.038,0.132,0.076,0.165l0.036-0.017c-0.015-0.109-0.025-0.22-0.047-0.327
			c-0.401-1.879-1.483-2.451-1.483-2.451l-0.141-0.079c-0.633-0.36-1.297-0.707-1.964-1.044l-2.193-1.094
			c-0.162-0.08-0.324-0.161-0.484-0.24c-0.272-0.148-0.616-0.41-0.72-0.71c-0.031-0.091-0.059-0.239-0.082-0.262L285.746,103.424z"
			/>
	</g>
	<g>
		<path class="st0" d="M288.105,110.978c0.009,0.13,0.004,0.263,0.028,0.39c0.079,0.416,0.207,0.82,0.406,1.196
			c0.146,0.276,0.297,0.557,0.543,0.769c0.092,0.079,0.189,0.156,0.294,0.217c0.46,0.261,0.905,0.522,1.341,0.792
			c0.58,0.361-0.229-0.143,3.231,2.014c0.057,0.036,0.65,0.414,0.851,1.05c0.026,0.041,0.032,0.134,0.068,0.169l0.036-0.015
			c-0.01-0.11-0.014-0.22-0.031-0.328c-0.307-1.896-1.36-2.526-1.36-2.526l-0.137-0.087l-1.871-1.159l-2.138-1.212
			c-0.158-0.089-0.317-0.179-0.472-0.266c-0.265-0.162-0.596-0.442-0.685-0.748c-0.027-0.092-0.047-0.241-0.069-0.266
			L288.105,110.978z"/>
	</g>
	<g>
		<path class="st0" d="M290.045,118.651c0.002,0.13-0.009,0.262,0.009,0.39c0.058,0.42,0.166,0.829,0.346,1.215
			c0.132,0.284,0.269,0.572,0.504,0.797c0.083,0.085,0.171,0.168,0.269,0.236l1.276,0.869c0.561,0.392-0.222-0.155,3.129,2.187
			c0.055,0.039,0.629,0.449,0.798,1.094c0.024,0.043,0.025,0.135,0.059,0.172l0.037-0.013c-0.004-0.11-0.002-0.221-0.014-0.329
			c-0.211-1.908-1.232-2.595-1.232-2.595l-0.132-0.094l-1.809-1.26c-0.654-0.458-1.346-0.899-2.041-1.334
			c-0.153-0.097-0.308-0.195-0.459-0.292c-0.257-0.176-0.574-0.474-0.647-0.783c-0.022-0.093-0.035-0.243-0.056-0.269
			L290.045,118.651z"/>
	</g>
	<g>
		<path class="st0" d="M291.561,126.42c-0.004,0.13-0.022,0.261-0.011,0.39c0.037,0.422,0.124,0.836,0.285,1.231
			c0.118,0.29,0.214,0.589,0.427,0.829c0.078,0.09,0.163,0.177,0.257,0.25l1.231,0.938c0.541,0.422-0.214-0.167,3.017,2.355
			c0.053,0.042,0.606,0.482,0.742,1.136c0.022,0.044,0.018,0.136,0.05,0.175l0.038-0.011c0.001-0.11,0.009-0.22,0.002-0.329
			c-0.115-1.916-1.1-2.657-1.1-2.657l-0.128-0.101l-1.745-1.357c-0.647-0.491-1.271-0.976-1.936-1.449
			c-0.148-0.106-0.298-0.212-0.444-0.316c-0.248-0.19-0.55-0.504-0.608-0.817c-0.018-0.094-0.023-0.244-0.042-0.271L291.561,126.42z
			"/>
	</g>
	<g>
		<path class="st0" d="M292.648,134.26c-0.011,0.13-0.035,0.259-0.03,0.388c0.018,0.423,0.085,0.841,0.196,1.247
			c0.088,0.298,0.179,0.6,0.377,0.851c0.074,0.094,0.154,0.186,0.244,0.264l1.183,1.004c0.519,0.451-0.205-0.178,2.895,2.516
			c0.051,0.044,0.581,0.515,0.684,1.174c0.02,0.045,0.011,0.137,0.041,0.177l0.038-0.009c0.007-0.109,0.02-0.219,0.019-0.329
			c-0.017-1.918-0.965-2.712-0.965-2.712l-0.122-0.108l-1.675-1.451l-1.849-1.554l-0.408-0.342
			c-0.232-0.204-0.523-0.534-0.564-0.849c-0.013-0.095-0.011-0.245-0.029-0.273L292.648,134.26z"/>
	</g>
	<g>
		<path class="st0" d="M293.305,142.15c-0.017,0.129-0.048,0.257-0.05,0.386c-0.013,0.424,0,0.847,0.102,1.257
			c0.072,0.302,0.149,0.609,0.333,0.871c0.069,0.098,0.144,0.194,0.231,0.277l1.131,1.067c0.496,0.479-0.196-0.189,2.764,2.669
			c0.048,0.047,0.554,0.545,0.623,1.209c0.017,0.046,0.004,0.137,0.032,0.179l0.039-0.007c0.012-0.109,0.031-0.218,0.035-0.327
			c0.08-1.916-0.826-2.76-0.826-2.76l-0.117-0.115l-1.599-1.539l-1.768-1.652l-0.391-0.364c-0.221-0.216-0.454-0.564-0.489-0.88
			c-0.008-0.096,0.002-0.245-0.015-0.274L293.305,142.15z"/>
	</g>
</g>
</svg>
