<?xml version="1.0" encoding="utf-8"?>
<!-- Generator: Adobe Illustrator 17.0.0, SVG Export Plug-In . SVG Version: 6.00 Build 0)  -->
<!DOCTYPE svg PUBLIC "-//W3C//DTD SVG 1.1//EN" "http://www.w3.org/Graphics/SVG/1.1/DTD/svg11.dtd">
<svg version="1.1" id="Capa_1" xmlns="http://www.w3.org/2000/svg" xmlns:xlink="http://www.w3.org/1999/xlink" x="0px" y="0px"
	 width="300px" height="300px" viewBox="0 0 300 300" style="enable-background:new 0 0 300 300;" xml:space="preserve">
<style type="text/css">
	.st0{fill:#AAAAAA;}
</style>
<g>
	<g>
		<path class="st0" d="M284.655,150.003c-0.093,0.341-0.223,0.677-0.273,1.02c-0.164,1.125-0.187,2.251,0.001,3.366
			c0.138,0.82,0.286,1.654,0.742,2.397c0.17,0.278,0.358,0.554,0.581,0.796l2.902,3.182c0.634,0.717,0.509,0.575,1.171,1.325
			c0.331,0.382,0.859,0.99,1.777,2.048c0.901,1.071,2.009,2.588,3.701,4.895c0.11,0.148,1.252,1.735,1.11,3.628
			c0.025,0.136-0.056,0.387-0.001,0.517l0.11-0.003c0.088-0.3,0.193-0.598,0.26-0.902c0.586-2.67,0.361-4.696-0.013-6.029
			c-0.342-1.332-0.964-1.998-0.964-1.998l-0.297-0.359c-1.36-1.624-2.716-3.212-4.084-4.748c-1.508-1.694-3.026-3.329-4.541-4.915
			l-1.004-1.054c-0.551-0.622-1.173-1.589-1.134-2.437c0.012-0.256,0.091-0.654,0.056-0.733L284.655,150.003z"/>
	</g>
	<g>
		<path class="st0" d="M282.84,171.054c-0.126,0.325-0.287,0.641-0.37,0.975c-0.273,1.097-0.405,2.217-0.33,3.357
			c0.033,0.834,0.173,1.706,0.435,2.494c0.113,0.298,0.243,0.597,0.415,0.868l2.237,3.564c0.485,0.801,0.389,0.642,0.896,1.479
			c0.5,0.861,1.631,2.634,4.44,7.758c0.04,0.149,1.165,1.971,0.589,3.774c-0.002,0.137-0.131,0.368-0.101,0.504l0.109,0.015
			c0.146-0.279,0.308-0.552,0.433-0.838c1.013-2.537,0.891-4.64,0.699-6.023c-0.227-1.397-0.67-2.136-0.67-2.136l-0.223-0.398
			c-1.026-1.804-2.055-3.57-3.104-5.287l-1.747-2.797c-0.611-0.924-1.316-1.853-1.973-2.759c-0.296-0.403-0.594-0.81-0.886-1.208
			c-0.482-0.706-1.001-1.767-0.879-2.607c0.037-0.254,0.155-0.638,0.127-0.722L282.84,171.054z"/>
	</g>
	<g>
		<path class="st0" d="M278.028,191.603c-0.189,0.296-0.412,0.578-0.561,0.89c-0.488,1.024-0.842,2.093-0.993,3.215
			c-0.111,0.825-0.216,1.669-0.002,2.52c0.08,0.318,0.177,0.64,0.317,0.94l1.816,3.939c0.385,0.88,0.309,0.706,0.711,1.625
			c0.334,0.918,1.116,2.822,2.941,8.259c0.061,0.175,0.676,2.051-0.018,3.821c-0.017,0.138-0.168,0.353-0.153,0.495l0.105,0.031
			c0.172-0.26,0.359-0.513,0.513-0.784c2.696-4.777,1.507-7.967,1.507-7.967l-0.146-0.423c-0.618-1.894-1.524-3.869-2.347-5.753
			c-0.931-2.086-1.889-4.119-2.861-6.102c-0.215-0.44-0.431-0.883-0.643-1.317c-0.34-0.765-0.646-1.88-0.358-2.679
			c0.087-0.241,0.28-0.596,0.269-0.682L278.028,191.603z"/>
	</g>
	<g>
		<path class="st0" d="M269.891,211.085c-0.215,0.273-0.46,0.526-0.637,0.821c-0.604,0.955-0.973,2.033-1.384,3.071
			c-0.267,0.782-0.532,1.583-0.478,2.442c0.02,0.321,0.056,0.649,0.139,0.964l1.075,4.119c0.225,0.919,0.18,0.738,0.415,1.698
			c0.18,0.953,0.866,3.1,1.833,8.759c0.029,0.18,0.303,2.099-0.711,3.701c-0.042,0.131-0.232,0.314-0.243,0.454l0.099,0.048
			c0.219-0.224,0.453-0.438,0.655-0.675c1.78-2.078,2.548-3.952,2.684-5.401c0.195-1.412-0.007-2.259-0.007-2.259l-0.094-0.452
			c-0.442-2.049-0.898-4.064-1.388-6.038c-0.54-2.177-1.116-4.305-1.713-6.387c-0.14-0.466-0.282-0.937-0.42-1.397
			c-0.249-0.826-0.429-2.004-0.067-2.772c0.109-0.232,0.334-0.564,0.332-0.653L269.891,211.085z"/>
	</g>
	<g>
		<path class="st0" d="M258.827,229.061c-0.265,0.228-0.558,0.432-0.789,0.688c-0.759,0.84-1.405,1.764-1.874,2.802
			c-0.345,0.763-0.691,1.545-0.737,2.432c-0.017,0.331-0.02,0.671,0.025,1.004c0.226,1.463,0.27,2.785,0.393,4.211
			c0.061,0.928,0.049,0.744,0.112,1.714c0.047,0.988,0.23,3.068,0.363,8.87c0.006,0.188,0.038,2.184-1.135,3.684
			c-0.056,0.129-0.261,0.29-0.289,0.432l0.09,0.062c0.239-0.199,0.489-0.387,0.713-0.602c3.942-3.798,3.752-7.239,3.752-7.239
			l-0.014-0.453c-0.079-2.059-0.177-4.087-0.315-6.08c-0.198-2.235-0.561-4.53-0.884-6.727c-0.074-0.49-0.15-0.984-0.223-1.468
			c-0.098-0.842-0.062-2.012,0.442-2.695c0.152-0.206,0.438-0.49,0.453-0.577L258.827,229.061z"/>
	</g>
	<g>
		<path class="st0" d="M245.213,245.218c-0.306,0.175-0.635,0.322-0.913,0.53c-0.909,0.682-1.719,1.464-2.372,2.387
			c-0.48,0.679-0.964,1.376-1.165,2.225c-0.075,0.317-0.137,0.646-0.151,0.975l-0.193,4.309c-0.058,0.957-0.046,0.768-0.107,1.768
			c-0.045,1.057-0.196,3.128-1.07,8.748c-0.026,0.183-0.334,2.122-1.765,3.372c-0.078,0.115-0.311,0.236-0.363,0.368l0.079,0.076
			c0.273-0.152,0.556-0.29,0.817-0.46c4.596-2.996,4.994-6.36,4.994-6.36l0.056-0.449c0.185-2.113,0.346-4.199,0.463-6.256
			c0.129-2.268,0.209-4.501,0.256-6.696c0.011-0.487,0.022-0.977,0.033-1.458c0.049-0.831,0.291-1.956,0.917-2.53
			c0.189-0.173,0.525-0.399,0.556-0.48L245.213,245.218z"/>
	</g>
	<g>
		<path class="st0" d="M229.056,258.831c-0.317,0.143-0.653,0.255-0.947,0.435c-0.963,0.591-1.843,1.297-2.591,2.164
			c-0.56,0.624-1.189,1.172-1.525,1.969c-0.129,0.293-0.247,0.6-0.316,0.916l-0.919,4.135c-0.219,0.916-0.176,0.735-0.405,1.692
			c-0.25,0.97-0.696,3.04-2.304,8.689c-0.04,0.202-0.682,2.004-2.317,2.963c-0.097,0.097-0.351,0.172-0.424,0.291l0.067,0.088
			c0.298-0.098,0.605-0.18,0.894-0.298c2.576-0.959,3.985-2.508,4.802-3.667c0.819-1.161,1.025-2.003,1.025-2.003l0.122-0.443
			c0.54-2.016,1.052-4.008,1.515-5.978c0.497-2.194,1-4.271,1.354-6.48c0.074-0.497,0.149-0.997,0.223-1.487
			c0.156-0.845,0.535-1.968,1.211-2.482c0.204-0.155,0.557-0.346,0.597-0.426L229.056,258.831z"/>
	</g>
	<g>
		<path class="st0" d="M211.079,269.893c-0.341,0.08-0.696,0.126-1.02,0.247c-1.062,0.395-2.061,0.915-2.954,1.618
			c-0.657,0.516-1.322,1.05-1.768,1.812c-0.166,0.285-0.324,0.585-0.436,0.899c-0.494,1.331-0.941,2.791-1.513,4.033
			c-0.369,0.847-0.296,0.68-0.682,1.565c-0.409,0.894-1.194,2.814-3.726,8.003c-0.08,0.169-0.964,1.948-2.698,2.734
			c-0.109,0.088-0.366,0.136-0.456,0.248l0.052,0.096c0.304-0.066,0.614-0.117,0.913-0.204c5.26-1.542,6.662-4.67,6.662-4.67
			l0.194-0.407c0.853-1.896,1.745-3.603,2.456-5.604c0.806-2.154,1.556-4.289,2.26-6.398c0.157-0.467,0.315-0.939,0.47-1.4
			c0.296-0.789,0.862-1.807,1.625-2.18c0.23-0.113,0.615-0.233,0.668-0.302L211.079,269.893z"/>
	</g>
	<g>
		<path class="st0" d="M191.597,278.03c-0.343,0.046-0.693,0.056-1.026,0.144c-1.085,0.303-2.193,0.525-3.189,1.062
			c-0.739,0.374-1.489,0.763-2.057,1.418c-0.212,0.245-0.418,0.505-0.58,0.789l-2.142,3.709c-0.489,0.817-0.392,0.655-0.904,1.509
			c-0.262,0.429-0.681,1.113-1.408,2.302c-0.377,0.594-0.833,1.314-1.39,2.191c-0.591,0.816-1.289,1.779-2.114,2.917
			c-0.107,0.149-1.269,1.711-3.117,2.14c-0.122,0.064-0.386,0.062-0.493,0.154l0.036,0.104c0.313-0.005,0.629,0.005,0.94-0.022
			c2.723-0.245,4.589-1.044,5.739-1.825c1.134-0.875,1.588-1.624,1.588-1.624l0.252-0.39c1.133-1.779,2.231-3.543,3.275-5.303
			c1.152-1.94,2.245-3.871,3.289-5.783c0.232-0.424,0.466-0.85,0.695-1.268c0.422-0.714,1.163-1.556,1.946-1.894
			c0.24-0.09,0.631-0.172,0.693-0.237L191.597,278.03z"/>
	</g>
	<g>
		<path class="st0" d="M171.047,282.841c-0.349-0.023-0.699-0.083-1.043-0.063c-1.129,0.067-2.238,0.273-3.302,0.684
			c-0.783,0.302-1.579,0.618-2.237,1.219c-0.247,0.217-0.486,0.481-0.693,0.718l-2.708,3.193c-0.613,0.701-0.492,0.562-1.133,1.295
			c-0.665,0.734-2.008,2.339-6.015,6.546c-0.128,0.137-1.517,1.575-3.406,1.811c-0.13,0.051-0.39,0.021-0.509,0.102l0.02,0.107
			c0.31,0.027,0.619,0.071,0.93,0.076c5.47,0.088,7.769-2.486,7.769-2.486l0.31-0.331c1.4-1.516,2.765-3.023,4.077-4.534
			c1.455-1.591,2.813-3.546,4.138-5.327c0.293-0.402,0.589-0.807,0.879-1.204c0.525-0.67,1.377-1.48,2.215-1.614
			c0.253-0.04,0.655-0.043,0.727-0.094L171.047,282.841z"/>
	</g>
	<g>
		<path class="st0" d="M149.997,284.655c-0.341-0.093-0.677-0.223-1.021-0.273c-1.125-0.164-2.251-0.187-3.366,0.001
			c-0.82,0.138-1.654,0.286-2.397,0.742c-0.278,0.17-0.554,0.358-0.796,0.581l-3.182,2.902c-0.717,0.634-0.576,0.509-1.325,1.171
			c-0.382,0.331-0.99,0.859-2.048,1.777c-1.071,0.9-2.587,2.009-4.895,3.701c-0.148,0.11-1.735,1.252-3.628,1.11
			c-0.136,0.025-0.387-0.056-0.517-0.001l0.003,0.11c0.3,0.088,0.598,0.193,0.902,0.26c2.67,0.586,4.696,0.361,6.029-0.013
			c1.332-0.342,1.998-0.964,1.998-0.964l0.359-0.297c1.624-1.36,3.211-2.716,4.748-4.084c1.694-1.508,3.329-3.026,4.915-4.541
			l1.054-1.004c0.622-0.551,1.589-1.173,2.437-1.134c0.256,0.012,0.654,0.091,0.733,0.056L149.997,284.655z"/>
	</g>
	<g>
		<path class="st0" d="M128.946,282.84c-0.325-0.126-0.641-0.287-0.975-0.37c-1.097-0.273-2.217-0.405-3.357-0.33
			c-0.834,0.033-1.706,0.173-2.494,0.435c-0.298,0.113-0.597,0.243-0.868,0.415l-3.564,2.237c-0.801,0.485-0.642,0.389-1.479,0.896
			c-0.861,0.5-2.635,1.631-7.758,4.44c-0.149,0.04-1.971,1.165-3.774,0.589c-0.137-0.002-0.368-0.131-0.504-0.101l-0.015,0.11
			c0.279,0.146,0.552,0.308,0.838,0.433c2.537,1.013,4.64,0.891,6.023,0.699c1.398-0.227,2.137-0.67,2.137-0.67l0.398-0.223
			c1.804-1.026,3.57-2.055,5.287-3.104l2.797-1.747c0.924-0.611,1.853-1.316,2.759-1.973c0.403-0.296,0.81-0.594,1.208-0.886
			c0.706-0.482,1.767-1.001,2.607-0.878c0.254,0.037,0.638,0.154,0.722,0.127L128.946,282.84z"/>
	</g>
	<g>
		<path class="st0" d="M108.397,278.028c-0.296-0.189-0.578-0.412-0.89-0.561c-1.024-0.488-2.093-0.842-3.215-0.993
			c-0.825-0.111-1.669-0.216-2.519-0.002c-0.318,0.08-0.64,0.177-0.94,0.317l-3.939,1.816c-0.88,0.385-0.706,0.309-1.625,0.711
			c-0.918,0.334-2.823,1.116-8.259,2.941c-0.175,0.061-2.051,0.676-3.821-0.018c-0.138-0.017-0.353-0.168-0.495-0.153l-0.031,0.105
			c0.26,0.172,0.513,0.359,0.784,0.513c4.777,2.696,7.967,1.507,7.967,1.507l0.423-0.146c1.894-0.618,3.869-1.524,5.753-2.347
			c2.086-0.931,4.119-1.889,6.102-2.861c0.44-0.215,0.883-0.431,1.318-0.643c0.765-0.34,1.88-0.646,2.679-0.358
			c0.241,0.087,0.596,0.28,0.682,0.269L108.397,278.028z"/>
	</g>
	<g>
		<path class="st0" d="M88.915,269.891c-0.273-0.215-0.525-0.46-0.82-0.637c-0.955-0.604-2.033-0.973-3.071-1.384
			c-0.782-0.267-1.582-0.532-2.442-0.478c-0.321,0.02-0.649,0.056-0.964,0.139l-4.118,1.075c-0.919,0.225-0.738,0.18-1.698,0.415
			c-0.953,0.18-3.1,0.866-8.759,1.833c-0.18,0.029-2.1,0.303-3.701-0.712c-0.131-0.042-0.315-0.232-0.454-0.243l-0.048,0.099
			c0.224,0.219,0.438,0.452,0.675,0.655c2.078,1.78,3.952,2.548,5.401,2.684c1.413,0.195,2.259-0.007,2.259-0.007l0.451-0.094
			c2.049-0.442,4.064-0.898,6.038-1.388c2.177-0.54,4.305-1.116,6.387-1.713c0.466-0.14,0.937-0.282,1.397-0.42
			c0.826-0.249,2.004-0.429,2.772-0.067c0.232,0.109,0.564,0.333,0.653,0.332L88.915,269.891z"/>
	</g>
	<g>
		<path class="st0" d="M70.939,258.827c-0.229-0.265-0.432-0.558-0.689-0.789c-0.84-0.759-1.764-1.405-2.802-1.874
			c-0.763-0.345-1.545-0.69-2.432-0.736c-0.331-0.017-0.671-0.02-1.004,0.025c-1.463,0.226-2.785,0.27-4.211,0.394
			c-0.928,0.061-0.744,0.049-1.714,0.112c-0.988,0.047-3.068,0.23-8.87,0.363c-0.188,0.006-2.184,0.038-3.684-1.135
			c-0.128-0.056-0.29-0.261-0.431-0.289l-0.062,0.09c0.199,0.239,0.387,0.489,0.603,0.713c3.797,3.942,7.239,3.752,7.239,3.752
			l0.453-0.014c2.059-0.079,4.087-0.177,6.08-0.315c2.235-0.198,4.53-0.561,6.727-0.884c0.49-0.075,0.984-0.15,1.468-0.223
			c0.842-0.098,2.012-0.062,2.695,0.442c0.206,0.152,0.49,0.438,0.577,0.453L70.939,258.827z"/>
	</g>
	<g>
		<path class="st0" d="M54.782,245.213c-0.176-0.306-0.322-0.635-0.53-0.913c-0.682-0.909-1.464-1.719-2.387-2.372
			c-0.679-0.48-1.376-0.964-2.225-1.165c-0.317-0.075-0.646-0.137-0.975-0.151l-4.309-0.193c-0.957-0.058-0.768-0.046-1.768-0.107
			c-1.057-0.045-3.128-0.196-8.748-1.071c-0.183-0.026-2.122-0.334-3.372-1.765c-0.115-0.078-0.236-0.311-0.368-0.363l-0.076,0.079
			c0.152,0.273,0.29,0.556,0.46,0.817c2.996,4.596,6.36,4.994,6.36,4.994l0.449,0.056c2.113,0.185,4.199,0.346,6.256,0.463
			c2.268,0.129,4.501,0.21,6.696,0.256c0.487,0.011,0.977,0.022,1.457,0.033c0.831,0.049,1.956,0.291,2.53,0.917
			c0.173,0.189,0.399,0.525,0.48,0.556L54.782,245.213z"/>
	</g>
	<g>
		<path class="st0" d="M41.169,229.056c-0.143-0.317-0.255-0.653-0.435-0.946c-0.591-0.963-1.297-1.843-2.164-2.591
			c-0.624-0.56-1.172-1.188-1.969-1.525c-0.293-0.129-0.6-0.247-0.916-0.316l-4.135-0.92c-0.916-0.219-0.735-0.176-1.692-0.404
			c-0.97-0.25-3.04-0.696-8.689-2.304c-0.202-0.04-2.004-0.682-2.963-2.317c-0.097-0.097-0.172-0.351-0.291-0.424l-0.088,0.067
			c0.098,0.298,0.181,0.605,0.298,0.894c0.959,2.576,2.508,3.985,3.667,4.802c1.161,0.819,2.003,1.025,2.003,1.025l0.443,0.122
			c2.016,0.54,4.008,1.052,5.978,1.515c2.194,0.497,4.271,1,6.48,1.354c0.497,0.074,0.997,0.149,1.487,0.223
			c0.845,0.156,1.968,0.535,2.482,1.211c0.155,0.204,0.346,0.557,0.426,0.597L41.169,229.056z"/>
	</g>
	<g>
		<path class="st0" d="M30.107,211.079c-0.08-0.341-0.126-0.696-0.247-1.02c-0.395-1.062-0.915-2.061-1.618-2.954
			c-0.516-0.657-1.05-1.322-1.812-1.768c-0.285-0.167-0.585-0.324-0.899-0.436c-1.331-0.494-2.791-0.941-4.033-1.513
			c-0.847-0.369-0.68-0.296-1.565-0.682c-0.894-0.409-2.814-1.194-8.003-3.726c-0.169-0.08-1.948-0.964-2.734-2.698
			c-0.088-0.109-0.136-0.366-0.248-0.456l-0.096,0.052c0.066,0.304,0.117,0.614,0.204,0.913c1.542,5.26,4.67,6.662,4.67,6.662
			l0.407,0.194c1.896,0.853,3.603,1.745,5.604,2.456c2.154,0.806,4.288,1.555,6.398,2.26c0.467,0.157,0.939,0.315,1.4,0.47
			c0.789,0.296,1.807,0.862,2.18,1.625c0.113,0.23,0.233,0.615,0.302,0.668L30.107,211.079z"/>
	</g>
	<g>
		<path class="st0" d="M21.97,191.597c-0.046-0.343-0.056-0.694-0.144-1.026c-0.303-1.085-0.525-2.193-1.062-3.189
			c-0.374-0.739-0.763-1.489-1.418-2.057c-0.245-0.212-0.505-0.418-0.789-0.58l-3.708-2.142c-0.817-0.489-0.655-0.392-1.509-0.904
			c-0.429-0.262-1.113-0.681-2.302-1.408c-0.594-0.377-1.314-0.833-2.191-1.39c-0.816-0.592-1.779-1.289-2.917-2.114
			c-0.149-0.107-1.711-1.269-2.14-3.117c-0.064-0.122-0.062-0.386-0.154-0.493l-0.104,0.036c0.005,0.313-0.005,0.629,0.022,0.94
			c0.245,2.723,1.044,4.589,1.825,5.739c0.875,1.134,1.624,1.588,1.624,1.588l0.39,0.252c1.779,1.132,3.543,2.231,5.303,3.275
			c1.94,1.152,3.871,2.245,5.783,3.289c0.423,0.232,0.85,0.466,1.268,0.696c0.713,0.422,1.556,1.163,1.894,1.946
			c0.09,0.24,0.172,0.631,0.237,0.693L21.97,191.597z"/>
	</g>
	<g>
		<path class="st0" d="M17.159,171.047c0.023-0.349,0.083-0.699,0.063-1.043c-0.067-1.129-0.273-2.237-0.684-3.302
			c-0.303-0.783-0.619-1.579-1.219-2.237c-0.217-0.247-0.481-0.486-0.718-0.693l-3.193-2.708c-0.701-0.613-0.562-0.492-1.294-1.133
			c-0.734-0.665-2.339-2.008-6.546-6.015c-0.137-0.128-1.575-1.517-1.811-3.406c-0.051-0.131-0.021-0.39-0.102-0.509l-0.107,0.02
			c-0.027,0.31-0.071,0.619-0.076,0.93c-0.088,5.47,2.486,7.769,2.486,7.769l0.331,0.31c1.516,1.4,3.023,2.765,4.534,4.077
			c1.591,1.455,3.546,2.813,5.327,4.138c0.402,0.293,0.807,0.589,1.204,0.879c0.67,0.525,1.48,1.377,1.614,2.215
			c0.04,0.253,0.043,0.655,0.094,0.727L17.159,171.047z"/>
	</g>
	<g>
		<path class="st0" d="M15.345,149.997c0.093-0.341,0.223-0.677,0.273-1.02c0.164-1.125,0.187-2.252-0.001-3.366
			c-0.138-0.82-0.286-1.654-0.742-2.397c-0.17-0.278-0.358-0.554-0.581-0.796l-2.902-3.182c-0.634-0.717-0.509-0.575-1.171-1.325
			c-0.331-0.382-0.859-0.99-1.777-2.048c-0.901-1.071-2.009-2.588-3.701-4.895c-0.11-0.148-1.252-1.735-1.11-3.628
			c-0.025-0.136,0.056-0.387,0.001-0.517l-0.11,0.003c-0.088,0.3-0.193,0.598-0.26,0.902c-0.586,2.67-0.361,4.696,0.013,6.029
			c0.342,1.332,0.964,1.998,0.964,1.998l0.297,0.359c1.36,1.624,2.716,3.211,4.084,4.748c1.508,1.694,3.026,3.329,4.541,4.915
			l1.004,1.054c0.551,0.622,1.173,1.589,1.134,2.437c-0.012,0.256-0.091,0.654-0.056,0.733L15.345,149.997z"/>
	</g>
	<g>
		<path class="st0" d="M17.16,128.946c0.126-0.325,0.287-0.641,0.37-0.975c0.272-1.097,0.405-2.217,0.33-3.357
			c-0.033-0.834-0.173-1.706-0.435-2.494c-0.113-0.298-0.243-0.597-0.415-0.868l-2.237-3.564c-0.485-0.801-0.389-0.642-0.896-1.479
			c-0.5-0.861-1.631-2.635-4.44-7.758c-0.04-0.149-1.166-1.971-0.589-3.774c0.002-0.137,0.131-0.368,0.101-0.504l-0.109-0.015
			c-0.146,0.279-0.308,0.552-0.433,0.838c-1.013,2.537-0.891,4.64-0.699,6.023c0.227,1.398,0.67,2.136,0.67,2.136l0.223,0.398
			c1.026,1.804,2.055,3.57,3.104,5.287l1.747,2.797c0.611,0.924,1.316,1.853,1.972,2.759c0.296,0.403,0.594,0.81,0.886,1.208
			c0.482,0.706,1.001,1.767,0.878,2.607c-0.037,0.254-0.154,0.638-0.127,0.722L17.16,128.946z"/>
	</g>
	<g>
		<path class="st0" d="M21.972,108.397c0.189-0.296,0.412-0.578,0.561-0.89c0.488-1.024,0.842-2.093,0.993-3.215
			c0.111-0.826,0.216-1.669,0.002-2.52c-0.08-0.318-0.177-0.64-0.317-0.94l-1.816-3.94c-0.385-0.88-0.309-0.706-0.711-1.625
			c-0.334-0.917-1.116-2.822-2.941-8.258c-0.061-0.175-0.676-2.051,0.018-3.821c0.017-0.138,0.168-0.353,0.153-0.495l-0.105-0.032
			c-0.172,0.26-0.359,0.513-0.513,0.784c-2.697,4.777-1.507,7.967-1.507,7.967l0.146,0.423c0.619,1.894,1.524,3.869,2.347,5.753
			c0.931,2.086,1.889,4.119,2.861,6.102c0.215,0.44,0.431,0.883,0.643,1.318c0.34,0.765,0.646,1.88,0.358,2.679
			c-0.087,0.241-0.28,0.596-0.269,0.682L21.972,108.397z"/>
	</g>
	<g>
		<path class="st0" d="M30.109,88.915c0.215-0.273,0.46-0.525,0.637-0.821c0.604-0.955,0.973-2.033,1.384-3.071
			c0.267-0.782,0.532-1.582,0.478-2.442c-0.02-0.321-0.056-0.649-0.139-0.964l-1.075-4.118c-0.225-0.919-0.18-0.738-0.415-1.699
			c-0.18-0.953-0.866-3.1-1.833-8.759c-0.029-0.18-0.303-2.1,0.711-3.701c0.042-0.131,0.232-0.315,0.243-0.454l-0.099-0.048
			c-0.219,0.224-0.452,0.438-0.655,0.675c-1.78,2.078-2.548,3.952-2.684,5.401c-0.195,1.412,0.007,2.259,0.007,2.259l0.094,0.452
			c0.442,2.049,0.898,4.064,1.388,6.038c0.54,2.177,1.116,4.305,1.713,6.387c0.14,0.466,0.282,0.937,0.42,1.397
			c0.249,0.826,0.429,2.004,0.067,2.772c-0.109,0.232-0.334,0.564-0.332,0.653L30.109,88.915z"/>
	</g>
	<g>
		<path class="st0" d="M41.173,70.939c0.265-0.229,0.558-0.432,0.789-0.689c0.759-0.84,1.405-1.764,1.874-2.802
			c0.345-0.763,0.691-1.545,0.737-2.432c0.017-0.331,0.02-0.671-0.025-1.004c-0.226-1.463-0.27-2.785-0.393-4.211
			c-0.061-0.928-0.049-0.744-0.112-1.714c-0.047-0.988-0.23-3.068-0.363-8.87c-0.006-0.188-0.038-2.184,1.135-3.684
			c0.056-0.129,0.261-0.29,0.289-0.432l-0.09-0.062c-0.239,0.199-0.489,0.387-0.713,0.602c-3.942,3.798-3.752,7.239-3.752,7.239
			l0.014,0.453c0.079,2.059,0.177,4.087,0.315,6.08c0.198,2.235,0.561,4.53,0.884,6.727c0.074,0.49,0.15,0.984,0.223,1.467
			c0.098,0.842,0.062,2.012-0.442,2.695c-0.152,0.206-0.438,0.49-0.453,0.577L41.173,70.939z"/>
	</g>
	<g>
		<path class="st0" d="M54.787,54.782c0.306-0.175,0.635-0.322,0.913-0.53c0.909-0.682,1.719-1.464,2.372-2.387
			c0.48-0.679,0.964-1.375,1.165-2.225c0.075-0.317,0.137-0.646,0.151-0.975l0.193-4.309c0.058-0.957,0.046-0.768,0.107-1.768
			c0.045-1.057,0.196-3.128,1.07-8.748c0.026-0.183,0.334-2.122,1.765-3.372c0.078-0.115,0.311-0.236,0.363-0.368l-0.079-0.076
			c-0.273,0.152-0.556,0.29-0.817,0.46c-4.596,2.996-4.994,6.36-4.994,6.36l-0.056,0.449c-0.185,2.113-0.346,4.199-0.463,6.256
			c-0.129,2.268-0.209,4.501-0.256,6.696c-0.011,0.487-0.022,0.977-0.033,1.457c-0.049,0.831-0.291,1.956-0.917,2.53
			c-0.189,0.173-0.525,0.399-0.556,0.48L54.787,54.782z"/>
	</g>
	<g>
		<path class="st0" d="M70.944,41.169c0.317-0.143,0.653-0.255,0.946-0.435c0.963-0.591,1.843-1.297,2.591-2.164
			c0.56-0.624,1.188-1.172,1.525-1.969c0.129-0.293,0.247-0.6,0.316-0.916l0.919-4.135c0.219-0.916,0.176-0.735,0.405-1.692
			c0.25-0.97,0.696-3.04,2.304-8.689c0.04-0.202,0.682-2.004,2.317-2.963c0.097-0.097,0.351-0.172,0.424-0.291l-0.067-0.088
			c-0.298,0.098-0.605,0.18-0.894,0.298c-2.576,0.959-3.985,2.508-4.802,3.667c-0.819,1.161-1.025,2.003-1.025,2.003l-0.122,0.443
			c-0.54,2.016-1.052,4.008-1.515,5.978c-0.497,2.194-1,4.271-1.354,6.48c-0.074,0.497-0.149,0.997-0.223,1.487
			c-0.156,0.845-0.535,1.968-1.211,2.482c-0.204,0.155-0.557,0.346-0.597,0.426L70.944,41.169z"/>
	</g>
	<g>
		<path class="st0" d="M88.921,30.106c0.341-0.08,0.696-0.126,1.02-0.247c1.062-0.395,2.061-0.915,2.954-1.617
			c0.657-0.516,1.322-1.05,1.768-1.812c0.166-0.285,0.324-0.585,0.436-0.899c0.494-1.331,0.941-2.791,1.513-4.033
			c0.369-0.847,0.296-0.679,0.682-1.565c0.409-0.894,1.194-2.814,3.726-8.003c0.08-0.169,0.964-1.948,2.698-2.734
			c0.109-0.088,0.366-0.136,0.456-0.248l-0.052-0.096c-0.305,0.066-0.614,0.117-0.913,0.204c-5.26,1.542-6.662,4.67-6.662,4.67
			l-0.194,0.407c-0.853,1.896-1.745,3.603-2.456,5.604c-0.806,2.154-1.555,4.289-2.26,6.398c-0.157,0.467-0.315,0.939-0.47,1.4
			c-0.296,0.789-0.862,1.807-1.625,2.18c-0.23,0.112-0.615,0.233-0.668,0.302L88.921,30.106z"/>
	</g>
	<g>
		<path class="st0" d="M108.403,21.97c0.343-0.046,0.693-0.056,1.026-0.144c1.085-0.303,2.193-0.525,3.189-1.062
			c0.739-0.374,1.489-0.763,2.057-1.418c0.212-0.245,0.418-0.505,0.58-0.789l2.142-3.709c0.489-0.817,0.392-0.655,0.904-1.509
			c0.262-0.429,0.681-1.113,1.408-2.302c0.377-0.594,0.833-1.314,1.39-2.191c0.591-0.816,1.289-1.779,2.114-2.917
			c0.107-0.149,1.269-1.711,3.117-2.14c0.122-0.064,0.386-0.062,0.493-0.154l-0.036-0.104c-0.313,0.005-0.629-0.005-0.94,0.022
			c-2.723,0.245-4.589,1.044-5.739,1.825c-1.134,0.875-1.587,1.624-1.587,1.624l-0.252,0.39c-1.133,1.779-2.231,3.543-3.275,5.303
			c-1.152,1.94-2.245,3.871-3.289,5.783c-0.232,0.423-0.466,0.85-0.695,1.268c-0.422,0.714-1.163,1.556-1.946,1.894
			c-0.24,0.09-0.631,0.172-0.693,0.237L108.403,21.97z"/>
	</g>
	<g>
		<path class="st0" d="M128.953,17.159c0.349,0.023,0.699,0.083,1.043,0.063c1.129-0.067,2.238-0.273,3.302-0.684
			c0.783-0.302,1.579-0.618,2.237-1.219c0.247-0.217,0.486-0.481,0.693-0.718l2.708-3.193c0.613-0.701,0.492-0.562,1.133-1.294
			c0.665-0.734,2.008-2.339,6.016-6.546c0.128-0.137,1.517-1.575,3.406-1.811c0.13-0.051,0.39-0.021,0.509-0.102l-0.02-0.107
			c-0.31-0.027-0.619-0.071-0.93-0.076c-5.47-0.088-7.769,2.486-7.769,2.486l-0.31,0.331c-1.4,1.516-2.765,3.023-4.077,4.534
			c-1.455,1.591-2.813,3.546-4.138,5.327c-0.293,0.402-0.589,0.807-0.879,1.204c-0.525,0.67-1.377,1.48-2.215,1.614
			c-0.253,0.04-0.655,0.043-0.727,0.094L128.953,17.159z"/>
	</g>
	<g>
		<path class="st0" d="M150.003,15.345c0.341,0.093,0.677,0.223,1.021,0.273c1.125,0.164,2.251,0.187,3.366-0.001
			c0.82-0.138,1.654-0.286,2.397-0.742c0.278-0.17,0.554-0.358,0.796-0.581l3.182-2.902c0.717-0.634,0.575-0.509,1.325-1.171
			c0.382-0.331,0.99-0.859,2.048-1.777c1.071-0.9,2.587-2.009,4.895-3.701c0.148-0.11,1.735-1.252,3.628-1.11
			c0.136-0.025,0.387,0.057,0.517,0.001l-0.003-0.11c-0.3-0.088-0.598-0.193-0.902-0.26c-2.67-0.586-4.696-0.361-6.029,0.013
			c-1.332,0.343-1.998,0.964-1.998,0.964l-0.359,0.297c-1.624,1.36-3.211,2.716-4.748,4.084c-1.694,1.508-3.329,3.026-4.915,4.541
			l-1.054,1.004c-0.622,0.551-1.589,1.173-2.437,1.134c-0.256-0.012-0.654-0.091-0.733-0.056L150.003,15.345z"/>
	</g>
	<g>
		<path class="st0" d="M171.054,17.16c0.325,0.126,0.641,0.287,0.975,0.37c1.097,0.273,2.217,0.406,3.357,0.33
			c0.834-0.033,1.706-0.173,2.494-0.435c0.298-0.113,0.597-0.243,0.868-0.415l3.564-2.237c0.801-0.485,0.642-0.389,1.479-0.896
			c0.861-0.5,2.635-1.631,7.758-4.44c0.149-0.039,1.971-1.165,3.774-0.589c0.137,0.002,0.368,0.131,0.504,0.101l0.015-0.11
			c-0.279-0.146-0.552-0.308-0.838-0.433c-2.537-1.013-4.64-0.891-6.023-0.699c-1.398,0.227-2.137,0.67-2.137,0.67L186.446,8.6
			c-1.804,1.026-3.57,2.055-5.287,3.104l-2.797,1.747c-0.924,0.611-1.853,1.316-2.759,1.972c-0.403,0.296-0.81,0.594-1.208,0.886
			c-0.706,0.482-1.767,1.001-2.607,0.878c-0.254-0.037-0.638-0.154-0.722-0.127L171.054,17.16z"/>
	</g>
	<g>
		<path class="st0" d="M191.603,21.972c0.296,0.189,0.578,0.412,0.89,0.561c1.024,0.488,2.093,0.842,3.215,0.993
			c0.825,0.111,1.669,0.216,2.519,0.002c0.318-0.08,0.64-0.177,0.94-0.317l3.939-1.816c0.88-0.385,0.706-0.309,1.625-0.711
			c0.918-0.334,2.822-1.116,8.259-2.941c0.175-0.061,2.051-0.676,3.821,0.018c0.138,0.017,0.353,0.168,0.495,0.153l0.031-0.105
			c-0.26-0.172-0.513-0.359-0.784-0.513c-4.777-2.697-7.967-1.507-7.967-1.507l-0.423,0.146c-1.894,0.619-3.869,1.524-5.753,2.347
			c-2.086,0.931-4.119,1.889-6.102,2.861c-0.44,0.215-0.883,0.431-1.317,0.643c-0.765,0.34-1.88,0.646-2.679,0.358
			c-0.241-0.087-0.596-0.28-0.682-0.269L191.603,21.972z"/>
	</g>
	<g>
		<path class="st0" d="M211.085,30.109c0.273,0.215,0.525,0.46,0.82,0.637c0.955,0.604,2.033,0.973,3.071,1.384
			c0.782,0.267,1.582,0.532,2.442,0.478c0.321-0.02,0.649-0.056,0.964-0.139l4.119-1.075c0.919-0.225,0.738-0.18,1.698-0.415
			c0.953-0.18,3.1-0.866,8.759-1.833c0.18-0.029,2.099-0.303,3.701,0.712c0.131,0.042,0.315,0.232,0.454,0.243l0.048-0.099
			c-0.224-0.219-0.438-0.452-0.675-0.655c-2.078-1.78-3.952-2.548-5.401-2.684c-1.413-0.195-2.259,0.007-2.259,0.007l-0.451,0.094
			c-2.049,0.442-4.064,0.898-6.038,1.388c-2.177,0.54-4.305,1.116-6.387,1.713c-0.466,0.14-0.937,0.282-1.397,0.42
			c-0.826,0.249-2.004,0.429-2.772,0.067c-0.232-0.109-0.564-0.334-0.653-0.332L211.085,30.109z"/>
	</g>
	<g>
		<path class="st0" d="M229.061,41.173c0.229,0.265,0.432,0.558,0.689,0.789c0.84,0.759,1.764,1.405,2.802,1.874
			c0.763,0.345,1.545,0.691,2.432,0.737c0.331,0.017,0.671,0.02,1.004-0.025c1.463-0.226,2.785-0.27,4.211-0.394
			c0.928-0.061,0.744-0.049,1.714-0.112c0.988-0.047,3.068-0.23,8.87-0.363c0.188-0.006,2.184-0.038,3.684,1.135
			c0.128,0.056,0.29,0.261,0.431,0.289l0.062-0.09c-0.199-0.239-0.387-0.489-0.602-0.713c-3.797-3.942-7.239-3.752-7.239-3.752
			l-0.453,0.014c-2.059,0.079-4.087,0.177-6.08,0.315c-2.235,0.198-4.53,0.561-6.727,0.884c-0.49,0.075-0.984,0.15-1.468,0.223
			c-0.842,0.098-2.012,0.062-2.695-0.442c-0.206-0.152-0.49-0.438-0.577-0.453L229.061,41.173z"/>
	</g>
	<g>
		<path class="st0" d="M245.218,54.787c0.176,0.306,0.322,0.635,0.53,0.913c0.682,0.909,1.464,1.719,2.387,2.372
			c0.679,0.48,1.376,0.964,2.225,1.165c0.317,0.075,0.646,0.137,0.975,0.151l4.309,0.193c0.957,0.058,0.768,0.046,1.768,0.107
			c1.057,0.045,3.128,0.196,8.748,1.071c0.183,0.026,2.122,0.335,3.372,1.765c0.115,0.078,0.236,0.311,0.368,0.363l0.076-0.079
			c-0.152-0.273-0.29-0.556-0.46-0.817c-2.996-4.596-6.36-4.994-6.36-4.994l-0.449-0.056c-2.113-0.185-4.199-0.346-6.256-0.463
			c-2.268-0.129-4.501-0.21-6.696-0.256c-0.487-0.011-0.977-0.022-1.458-0.033c-0.831-0.049-1.956-0.291-2.53-0.917
			c-0.173-0.189-0.399-0.525-0.48-0.556L245.218,54.787z"/>
	</g>
	<g>
		<path class="st0" d="M258.831,70.944c0.143,0.317,0.255,0.653,0.435,0.946c0.591,0.963,1.297,1.843,2.164,2.591
			c0.624,0.56,1.172,1.188,1.969,1.525c0.293,0.129,0.6,0.247,0.916,0.316l4.135,0.92c0.916,0.219,0.735,0.176,1.692,0.405
			c0.97,0.25,3.04,0.696,8.689,2.304c0.202,0.04,2.004,0.682,2.963,2.317c0.097,0.097,0.172,0.351,0.291,0.424l0.088-0.067
			c-0.098-0.298-0.181-0.604-0.298-0.894c-0.959-2.576-2.508-3.985-3.667-4.802c-1.161-0.819-2.003-1.025-2.003-1.025l-0.443-0.122
			c-2.016-0.54-4.008-1.052-5.978-1.515c-2.194-0.497-4.271-1-6.48-1.354c-0.497-0.074-0.997-0.149-1.487-0.223
			c-0.845-0.156-1.968-0.535-2.482-1.211c-0.155-0.204-0.346-0.557-0.426-0.597L258.831,70.944z"/>
	</g>
	<g>
		<path class="st0" d="M269.893,88.921c0.08,0.341,0.126,0.696,0.247,1.02c0.395,1.062,0.915,2.061,1.618,2.954
			c0.516,0.657,1.05,1.322,1.812,1.768c0.285,0.167,0.585,0.324,0.899,0.436c1.331,0.494,2.791,0.941,4.033,1.513
			c0.847,0.369,0.68,0.296,1.565,0.682c0.894,0.409,2.814,1.194,8.003,3.726c0.169,0.08,1.948,0.964,2.734,2.698
			c0.088,0.109,0.136,0.366,0.248,0.456l0.096-0.052c-0.066-0.304-0.117-0.614-0.204-0.913c-1.542-5.26-4.67-6.662-4.67-6.662
			l-0.407-0.194c-1.896-0.853-3.603-1.745-5.604-2.456c-2.154-0.806-4.289-1.555-6.398-2.26c-0.467-0.157-0.939-0.315-1.4-0.47
			c-0.789-0.296-1.807-0.862-2.18-1.625c-0.113-0.23-0.233-0.615-0.302-0.668L269.893,88.921z"/>
	</g>
	<g>
		<path class="st0" d="M278.03,108.403c0.046,0.343,0.056,0.694,0.144,1.026c0.303,1.085,0.525,2.193,1.062,3.189
			c0.374,0.739,0.763,1.489,1.418,2.057c0.245,0.212,0.505,0.418,0.789,0.58l3.708,2.142c0.817,0.489,0.655,0.393,1.509,0.904
			c0.429,0.262,1.113,0.681,2.302,1.408c0.594,0.377,1.314,0.833,2.191,1.39c0.816,0.592,1.779,1.289,2.917,2.114
			c0.149,0.107,1.711,1.269,2.14,3.117c0.064,0.122,0.061,0.386,0.154,0.493l0.104-0.036c-0.005-0.313,0.005-0.629-0.022-0.94
			c-0.245-2.723-1.044-4.589-1.825-5.739c-0.875-1.134-1.624-1.588-1.624-1.588l-0.39-0.252c-1.779-1.133-3.543-2.231-5.303-3.275
			c-1.94-1.152-3.871-2.245-5.783-3.289c-0.423-0.232-0.85-0.466-1.268-0.695c-0.713-0.422-1.556-1.163-1.894-1.946
			c-0.09-0.24-0.172-0.631-0.237-0.693L278.03,108.403z"/>
	</g>
	<g>
		<path class="st0" d="M282.841,128.953c-0.023,0.349-0.083,0.699-0.063,1.043c0.067,1.129,0.273,2.237,0.684,3.302
			c0.303,0.783,0.619,1.579,1.219,2.237c0.217,0.247,0.481,0.486,0.718,0.693l3.193,2.708c0.701,0.613,0.562,0.492,1.294,1.133
			c0.734,0.665,2.339,2.008,6.546,6.015c0.137,0.129,1.575,1.517,1.811,3.406c0.051,0.131,0.021,0.39,0.102,0.509l0.107-0.02
			c0.027-0.31,0.071-0.619,0.076-0.93c0.088-5.47-2.486-7.769-2.486-7.769l-0.331-0.31c-1.516-1.4-3.023-2.765-4.534-4.077
			c-1.591-1.455-3.547-2.813-5.327-4.138c-0.402-0.293-0.807-0.589-1.204-0.879c-0.67-0.525-1.48-1.377-1.614-2.215
			c-0.04-0.253-0.043-0.655-0.094-0.727L282.841,128.953z"/>
	</g>
</g>
</svg>
