<?xml version="1.0" encoding="utf-8"?>
<!-- Generator: Adobe Illustrator 17.0.0, SVG Export Plug-In . SVG Version: 6.00 Build 0)  -->
<!DOCTYPE svg PUBLIC "-//W3C//DTD SVG 1.1//EN" "http://www.w3.org/Graphics/SVG/1.1/DTD/svg11.dtd">
<svg version="1.1" id="Capa_1" xmlns="http://www.w3.org/2000/svg" xmlns:xlink="http://www.w3.org/1999/xlink" x="0px" y="0px"
	 width="192.498px" height="210.75px" viewBox="96.5 9.5 192.498 210.75" style="enable-background:new 96.5 9.5 192.498 210.75;"
	 xml:space="preserve">
<style type="text/css">
	.st0{fill:#EAC765;}
	.st1{fill:#B27D3D;}
</style>
<g>
	<path class="st0" d="M178.081,215.572c0.231-0.785,0.321-1.635,0.707-2.316c1.69-2.978,2.182-6.15,2.174-9.552
		c-0.063-25.922-0.035-51.843-0.035-77.765c0-0.369,0.074-0.754-0.008-1.103c-1.405-5.973,1.661-10.404,5.063-14.715
		c1.106-1.401,2.252-2.771,3.706-4.558c-1.477-0.109-2.404-0.236-3.332-0.237c-14.619-0.013-29.239-0.018-43.858-0.003
		c-4.189,0.004-4.507,0.345-4.509,4.703c-0.008,26.659-0.041,53.318,0.025,79.977c0.014,5.652-1.474,10.695-5.234,14.912
		c-2.69,3.017-5.565,5.878-8.475,8.687c-1.024,0.988-2.396,1.616-3.949,2.63c0-1.007-0.212-1.689,0.033-2.09
		c2.169-3.543,2.181-7.501,2.186-11.418c0.037-26.413,0.07-52.827-0.048-79.239c-0.015-3.41,0.814-6.262,2.93-8.816
		c2.41-2.91,4.845-5.798,7.569-9.053c-1.212-0.12-2.115-0.282-3.019-0.286c-5.528-0.024-11.062,0.135-16.583-0.062
		c-3.737-0.133-6.996,0.71-9.97,2.978c-1.11,0.846-2.475,1.358-3.724,2.023c-0.192-0.166-0.384-0.332-0.576-0.498
		c0.333-0.819,0.525-1.737,1.021-2.441c5.421-7.69,12.329-13.628,20.97-17.437c1.078-0.475,2.366-0.665,3.557-0.665
		c45.331,0.013,90.662,0.065,135.993,0.102c1.841,0.002,3.685-0.055,5.523-0.157c2.726-0.151,5.324-0.725,7.674-2.252
		c1.053-0.684,2.263-1.126,3.402-1.678c0.207,0.234,0.414,0.469,0.621,0.703c-0.725,1.194-1.327,2.487-2.194,3.566
		c-4.727,5.884-9.879,11.32-17.083,14.179c-2.028,0.805-1.924,2.218-1.923,3.835c0.012,11.548-0.003,23.096,0.007,34.644
		c0.014,16.216,0.017,32.432,0.075,48.648c0.021,5.801-2.153,10.89-5.517,15.322c-2.872,3.783-6.429,7.059-9.804,10.439
		c-0.974,0.975-2.364,1.534-3.564,2.284c-0.22-0.168-0.439-0.335-0.659-0.503c0.452-1.05,0.807-2.157,1.374-3.141
		c1.755-3.047,2.662-6.256,2.659-9.814c-0.022-22.112,0.035-44.225,0.061-66.337c0.008-6.634,0.101-13.27-0.05-19.901
		c-0.062-2.732,0.616-5.045,2.209-7.206c1.434-1.945,2.755-3.973,4.408-6.375c-17.454,0-34.406,0-51.638,0c0,1.017,0,1.846,0,2.675
		c0.002,27.273-0.085,54.547,0.094,81.819c0.029,4.43-1.177,8.221-3.401,11.794c-3.149,5.056-7.326,9.208-12.043,12.817
		c-0.578,0.442-1.259,0.76-1.921,1.076C178.846,215.845,178.573,215.685,178.081,215.572z"/>
	<path class="st0" d="M133.277,85.711c1.094-1.592,2.071-3.281,3.303-4.758c3.867-4.637,8.175-8.761,13.426-11.898
		c2.533-1.514,5.046-2.227,7.976-2.222c29.946,0.054,59.893,0.013,89.84,0.049c6.761,0.008,13.577,0.497,19.832-4.593
		c-0.139,1.398,0.023,2.192-0.299,2.637c-5.669,7.85-11.823,15.137-21.946,17.326c-1.535,0.332-3.149,0.422-4.727,0.423
		c-31.542,0.024-63.084,0.056-94.626-0.037c-3.436-0.01-6.533,0.382-9.295,2.559c-0.79,0.622-1.828,0.929-2.752,1.38
		C133.765,86.288,133.521,85.999,133.277,85.711z"/>
	<path class="st0" d="M286.344,97.738c-0.402,1.06-0.636,2.23-1.242,3.157c-1.275,1.947-1.601,4.021-1.597,6.295
		c0.036,25.663-0.208,51.329,0.163,76.987c0.111,7.676-2.65,13.877-6.882,19.643c-2.44,3.324-5.677,6.081-8.677,8.967
		c-0.975,0.937-2.066,2.099-4.256,1.736c0.845-1.964,1.438-3.799,2.381-5.432c1.534-2.657,1.998-5.458,1.994-8.472
		c-0.037-26.645,0.008-53.291-0.068-79.936c-0.008-2.702,0.674-4.994,1.994-7.299c3.098-5.408,7.237-9.886,11.947-13.875
		c1.067-0.904,2.345-1.558,3.526-2.327C285.865,97.366,286.104,97.552,286.344,97.738z"/>
	<path class="st0" d="M206.747,216.947c0.267-0.668,0.412-1.425,0.822-1.988c2.514-3.447,3.019-7.288,2.999-11.482
		c-0.119-25.541-0.023-51.083-0.103-76.624c-0.009-2.752,0.549-5.149,2.426-7.081c3.58-3.688,7.238-7.302,10.955-10.851
		c0.903-0.862,2.163-1.352,3.319-2.048c0.247,0.66,0.462,0.966,0.388,1.076c-1.743,2.576-1.779,5.458-1.773,8.431
		c0.047,25.91-0.02,51.821,0.088,77.731c0.013,3.15-0.677,5.761-2.78,8.063c-3.801,4.16-7.497,8.418-11.385,12.493
		c-1.191,1.249-2.867,2.034-4.321,3.032C207.17,217.448,206.959,217.198,206.747,216.947z"/>
	<path class="st1" d="M175.196,48.78c2.721-5.873,9.536-12.937,14.428-15.427c5.658,2.914,11.087,6.01,16.773,8.525
		c3.309,1.463,6.989,2.223,10.579,2.877c3.13,0.57,6.041-0.362,8.508-2.585c1.421-1.28,3.074-2.303,4.622-3.441
		c0.237,0.175,0.474,0.349,0.711,0.524c-0.284,0.822-0.401,1.758-0.876,2.448c-5.097,7.389-11.43,13.467-19.404,17.682
		c-3.548,1.875-7.389,1.545-11.167,0.797c-6.097-1.206-11.562-4.005-16.927-6.994C180.012,51.831,177.681,50.298,175.196,48.78z"/>
	<path class="st0" d="M158.536,138.624c5.867,4.836,11.246,9.271,16.709,13.774c-0.312,4.587-10.131,15.114-16.073,17.061
		c-0.173-2.484-0.198-2.454-2.375-4.283c-3.754-3.153-7.485-6.334-11.199-9.534c-1.129-0.972-1.649-2.129-0.658-3.546
		C148.694,146.732,153.034,141.978,158.536,138.624z"/>
	<path class="st1" d="M208.99,36.219c-1.184-3.407-4.167-4.56-6.645-6.181c-5.907-3.863-6.137-4.579-1.458-9.899
		c3.219-3.66,6.484-7.325,10.867-9.668c3.468,2.412,6.885,4.724,10.228,7.137c2.188,1.579,2.456,2.382,1.038,4.575
		C219.403,27.778,214.84,32.471,208.99,36.219z"/>
</g>
</svg>
