<?xml version="1.0" encoding="utf-8"?>
<!-- Generator: Adobe Illustrator 17.0.0, SVG Export Plug-In . SVG Version: 6.00 Build 0)  -->
<!DOCTYPE svg PUBLIC "-//W3C//DTD SVG 1.1//EN" "http://www.w3.org/Graphics/SVG/1.1/DTD/svg11.dtd">
<svg version="1.1" id="Capa_1" xmlns="http://www.w3.org/2000/svg" xmlns:xlink="http://www.w3.org/1999/xlink" x="0px" y="0px"
	 width="300px" height="300px" viewBox="0 0 300 300" style="enable-background:new 0 0 300 300;" xml:space="preserve">
<style type="text/css">
	.st0{fill:#F4D68C;}
	.st1{fill:#CE9549;}
	.st2{fill:#D8D8D8;}
</style>
<g>
	<g>
		<g>
			<path class="st0" d="M69.137,239.852c-1.189,0.085-1.781,0.98-2.48,1.747l-5.37,5.895c-0.098,0.108-0.197,0.216-0.265,0.291
				c1.382-0.105,2.787-0.211,4.128-0.312c1.361-0.067,2.713-0.125,4.025,0.09l0.029,0.138c-0.238,0.08-0.474,0.199-0.717,0.231
				c-0.469,0.062-0.612,0.362-0.629,0.778c-0.037,0.764-0.039,1.508-0.045,2.253l-0.025,2.309c0,0.129,0.05,0.257,0.089,0.436
				c-0.214,0.06-0.446,0.153-0.687,0.185c-2.09,0.298-4.185,0.428-6.288,0.199c-0.182-0.018-0.397-0.01-0.536-0.105
				c-0.144-0.099-0.305-0.313-0.302-0.47c0.029-1.504,0.11-2.991,0.194-4.462c0.006-0.093-0.031-0.184-0.051-0.343
				c-0.133,0.133-0.235,0.235-0.337,0.337l-4.055,4.438c-0.147,0.158-0.382,0.303-0.593,0.316c-1.14,0.071-2.295,0.094-3.459,0.107
				c-0.153,0.002-0.312-0.071-0.469-0.11l-0.031,0.186c0.101,0.119,0.192,0.248,0.304,0.354c1.516,1.487,3.122,2.875,4.738,4.25
				c1.589,1.408,3.226,2.757,4.915,4.045c0.333,0.262,0.462,0.134,0.648-0.103l9.755-12.406c0.782-0.975,1.769-1.792,3.103-1.906
				c1.781-0.131,3.592-0.438,5.365-0.712c0.3-0.046,0.605,0.001,0.999,0.005c-0.426,0.301-0.793,0.484-1.067,0.764
				c-0.607,0.621-1.232,1.244-1.74,1.945l-9.705,13.54c-0.356,0.502-0.779,0.76-1.377,0.833c-0.946,0.113-1.896,0.226-2.96,0.353
				c0.361,0.294,0.62,0.528,0.902,0.73l4.511,3.21l4.662,2.987c0.213,0.135,0.49,0.176,0.742,0.231
				c0.195,0.043,0.396,0.039,0.594,0.055l0.042,0.128c-0.262,0.097-0.515,0.224-0.789,0.284c-2.243,0.486-4.563,0.805-6.983,0.823
				c-0.592,0.005-1.111-0.142-1.619-0.519c-3.069-2.177-6.132-4.36-9.054-6.731c-1.712-1.293-3.334-2.696-4.956-4.1
				c-1.476-1.252-2.914-2.545-4.291-3.906c-1.377-1.358-2.83-2.64-4.122-4.082c-0.762-0.815-1.572-1.473-2.621-1.804
				c-0.067-0.021-0.129-0.07-0.2-0.212c0.335-0.013,0.669-0.071,1.002-0.033c1.93,0.219,3.821,0.456,5.716,0.604
				c0.192,0.012,0.439-0.054,0.563-0.178l11.554-11.65c0.673-0.686,1.433-1.046,2.333-1.113c2.148-0.159,4.25-0.238,6.292-0.067
				c0.198,0.016,0.398,0.06,0.597,0.092L69.137,239.852z"/>
			<path class="st0" d="M103.561,291.745c0.695-0.625,0.135-1.205-0.166-1.742c-0.994-1.775-1.99-3.508-2.922-5.262
				c-0.886-1.745-1.388-3.587-2.063-5.349c-0.429-1.12-1.02-2.175-1.461-3.272c-0.134-0.325-0.179-0.779-0.071-1.104
				c0.377-1.126,0.963-2.036,1.991-2.788c2.482-1.805,5.208-2.891,7.839-4.027c0.131-0.06,0.261-0.121,0.491-0.227
				c-0.224-0.091-0.351-0.143-0.476-0.194l-4.765-1.853c-0.44-0.167-0.896-0.295-1.324-0.49c-0.498-0.214-0.496-0.221-0.719,0.292
				l-4.15,9.576c-0.85,1.966-1.637,3.964-2.566,5.891c-0.232,0.482-0.845,0.873-1.393,1.084c-2.028,0.778-4.181,1.376-6.446,1.699
				c-0.446,0.052-0.849-0.013-1.273-0.242l-4.906-2.612c-1.384-0.781-2.717-1.661-4.347-2.033c0.261-0.099,0.51-0.23,0.782-0.292
				c2.196-0.522,4.331-0.862,6.58-1.171c0.872-0.111,1.652,0.159,2.419,0.47c0.721,0.293,1.41,0.678,2.091,1.063
				c0.395,0.223,0.57,0.178,0.756-0.211l4.333-8.943l2.397-4.916c0.36-0.716,0.745-1.43,1.208-2.075c0.22-0.305,0.634-0.514,1-0.677
				c1.915-0.838,3.816-1.58,5.737-2.088c0.245-0.065,0.496-0.088,0.745-0.13c0.006,0.079,0.009,0.127,0.009,0.127
				c-0.747,0.438-1.095,1.214-1.446,1.979c-0.281,0.647-0.563,1.294-0.893,2.053c0.235-0.09,0.376-0.144,0.511-0.196
				c1.396-0.469,2.812-1.072,4.183-1.595c0.743-0.29,1.448-0.215,2.157,0.064c2.146,0.862,4.375,1.494,6.557,2.256
				c2.225,0.622,4.445,1.272,6.689,1.818c0.25,0.055,0.547-0.026,0.81-0.1c0.305-0.086,0.596-0.235,0.892-0.357l0.072,0.117
				c-0.171,0.166-0.329,0.357-0.518,0.494c-1.934,1.43-3.956,2.622-6.2,3.423c-0.49,0.177-0.969,0.194-1.471,0.046
				c-1.761-0.472-3.491-1.063-5.191-1.711c-0.801-0.316-1.414-0.045-2.042,0.378c-0.595,0.407-1.19,0.806-1.69,1.302
				c-0.775,0.77-1.296,1.711-1.216,2.886c0.01,0.144,0.086,0.289,0.15,0.425c0.284,0.624,0.636,1.186,0.895,1.802
				c0.483,1.188,0.977,2.404,1.468,3.611c0.101,0.246,0.151,0.513,0.266,0.753c0.56,1.161,1.132,2.336,1.758,3.487
				c0.741,1.3,1.541,2.588,2.343,3.894c0.112,0.182,0.191,0.383,0.277,0.578c0.251,0.563,0.238,0.787-0.295,1.103
				c-0.904,0.536-1.836,1.055-2.823,1.482c-1.262,0.556-2.581,0.988-3.887,1.392C104.032,291.699,103.791,291.708,103.561,291.745z"
				/>
			<path class="st0" d="M139.902,276.286c-0.2,0.245-0.329,0.442-0.494,0.595c-1.526,1.424-3.157,2.752-4.987,3.734
				c-0.229,0.126-0.513,0.188-0.776,0.204c-0.219,0.013-0.29,0.087-0.311,0.284l-0.145,1.16l-0.884,7.082
				c-0.092,0.789-0.436,1.435-1.069,1.922c-2.016,1.573-4.182,2.973-6.598,3.975c-0.302,0.129-0.629,0.212-0.946,0.316l-0.096-0.141
				c0.314-0.241,0.599-0.52,0.942-0.716c0.59-0.337,0.859-0.787,0.965-1.434l2.225-13.26c0.093-0.565,0.352-0.939,0.786-1.233
				c0.209-0.135,0.411-0.265,0.671-0.433c-0.214-0.245-0.361-0.439-0.532-0.606c-1.073-1.061-2.138-2.115-3.214-3.18
				c-0.171-0.174-0.29-0.166-0.476-0.029c-0.309,0.226-0.668,0.406-0.943,0.651c-0.179,0.164-0.311,0.443-0.365,0.693l-1.635,7.801
				c-0.377,1.811-0.799,3.613-1.112,5.436c-0.167,0.975-0.62,1.702-1.468,2.228c-2.009,1.247-4.151,2.359-6.517,3.173
				c-0.169,0.06-0.35,0.078-0.524,0.111l-0.088-0.106c0.194-0.162,0.414-0.301,0.575-0.49c0.243-0.285,0.556-0.573,0.642-0.906
				l3.487-13.72c0.109-0.438,0.31-0.737,0.623-1.037c1.493-1.428,3.293-2.311,4.966-3.33c0.715-0.407,1.397-0.795,2.139-1.217
				c-0.562-0.674-1.1-1.319-1.637-1.963l-1.919-2.37c-0.251-0.315-0.184-0.657,0.091-0.992c1.372-1.668,3.156-2.568,4.809-3.606
				c0.602-0.36,1.166-0.698,1.748-1.046l0.088,0.109c-0.056,0.128-0.097,0.268-0.172,0.381c-0.347,0.527-0.232,0.694,0.18,1.119
				c0.232,0.239,0.443,0.507,0.659,0.769c0.651,0.787,1.297,1.569,1.958,2.368c0.584,0.729,1.143,1.489,1.755,2.167
				c0.436,0.495,0.91,0.957,1.37,1.442l2.516,2.619c0.084,0.085,0.183,0.162,0.288,0.214c0.813,0.432,1.641,0.761,2.484,1.111
				C139.222,276.242,139.526,276.231,139.902,276.286z"/>
			<path class="st0" d="M93.128,255.735c-3.455,6.27-6.825,12.57-10.189,18.873c-0.674,1.263-1.587,2.122-3.012,2.509
				c-2.555,0.705-5.211,1.252-8.021,1.365c-0.221,0.003-0.447-0.029-0.718-0.143c0.117-0.074,0.222-0.175,0.354-0.216
				c0.346-0.109,0.687-0.242,1.055-0.273c1.163-0.108,1.769-0.815,2.273-1.66l9.173-15.38l1.557-2.616
				c0.269-0.456,0.653-0.751,1.139-0.906c1.992-0.632,3.954-1.202,5.917-1.517C92.829,255.739,93.007,255.743,93.128,255.735z"/>
			<path class="st0" d="M68.021,265.994c0.054-0.039,0.102-0.102,0.164-0.114c0.67-0.124,0.984-0.631,1.331-1.126l8.022-11.407
				c0.544-0.766,1.184-1.468,1.816-2.164c0.167-0.183,0.473-0.267,0.725-0.328c1.968-0.456,3.971-0.927,5.947-1.168
				c0.276-0.033,0.551-0.02,0.849-0.029c-1.487,1.384-2.493,3.07-3.545,4.716l-6.599,10.3c-0.104,0.162-0.296,0.319-0.48,0.368
				c-1.263,0.336-2.538,0.686-3.853,0.909c-1.106,0.193-2.208,0.171-3.333,0.221c-0.338,0.013-0.682-0.037-1.025-0.06
				L68.021,265.994z"/>
			<path class="st1" d="M60.275,231.694c-0.048,0.076-0.062,0.096-0.062,0.096c-0.781,0.302-1.03,0.73-0.863,1.537
				c0.218,1.053,0.433,2.118,0.691,3.183c0.118,0.486,0.332,0.944,0.461,1.431c0.137,0.522-0.212,1.055-0.762,1.091
				c-1.01,0.066-2.032,0.11-3.055,0.061c-1.131-0.053-2.266-0.21-3.411-0.354c-0.307-0.042-0.619-0.135-0.996-0.242
				c0.251-0.161,0.447-0.239,0.575-0.38c0.272-0.3,0.195-0.676,0.07-0.985c-0.529-1.305-0.648-2.694-0.886-4.034
				c-0.071-0.401-0.086-0.822-0.053-1.229c0.047-0.566,0.346-0.856,0.913-0.859c0.961-0.005,1.92-0.013,2.855,0.069
				c1.323,0.117,2.617,0.305,3.901,0.452C59.859,231.554,60.042,231.643,60.275,231.694z"/>
			<path class="st1" d="M44.708,240.625c-0.642,0.493-0.667,0.73-0.467,1.469c0.224,0.829,0.38,1.68,0.543,2.532
				c0.165,0.847,0.334,1.711,0.505,2.585c0.115,0.605-0.044,0.836-0.667,0.826c-1.062-0.025-2.175-0.033-3.222-0.211
				c-1.257-0.199-2.518-0.517-3.79-0.813c-0.21-0.049-0.414-0.156-0.718-0.274c0.723-0.362,0.412-0.989,0.338-1.499
				c-0.122-0.896-0.368-1.754-0.512-2.662c-0.142-0.804-0.312-1.602-0.428-2.4c-0.094-0.647,0.231-1.042,0.849-0.97
				c1.156,0.133,2.307,0.281,3.438,0.49c1.175,0.238,2.29,0.463,3.423,0.692C44.219,240.434,44.43,240.531,44.708,240.625z"/>
			<path class="st1" d="M52.377,237.013c-0.071,0.053-0.09,0.077-0.113,0.084c-0.764,0.229-0.785,0.229-0.671,1.052
				c0.06,0.404,0.151,0.827,0.322,1.194c0.595,1.264,0.911,2.612,1.187,4.04c-0.249,0.036-0.466,0.101-0.682,0.093
				c-1.286-0.05-2.587-0.1-3.895-0.229c-0.888-0.077-1.735-0.303-2.596-0.471c-0.434-0.084-0.647-0.317-0.706-0.777
				c-0.169-1.314-0.566-2.558-1.044-3.782c-0.224-0.549-0.275-1.18-0.285-1.786c-0.004-0.173,0.304-0.41,0.518-0.501
				c0.215-0.091,0.494-0.067,0.74-0.044c2.227,0.182,4.459,0.383,6.586,0.882c0.146,0.034,0.29,0.08,0.431,0.128
				C52.229,236.916,52.283,236.959,52.377,237.013z"/>
			<path class="st0" d="M114.714,271.532c-0.397,0.418-0.172,0.747,0.035,1.113c0.244,0.434,0.435,0.904,0.65,1.361
				c0.475,0.989,0.951,1.98,1.462,3.045c-0.12,0.097-0.301,0.28-0.515,0.409c-1.762,1.058-3.613,2.024-5.633,2.722
				c-0.68,0.235-0.703,0.239-1.018-0.373c-0.47-0.953-0.889-1.935-1.322-2.893c-0.221-0.468-0.436-0.921-0.655-1.386
				c-0.191-0.421-0.111-0.762,0.3-0.99c0.905-0.503,1.799-1.016,2.716-1.451c1.024-0.457,1.998-0.892,2.981-1.331
				c0.298-0.134,0.621-0.204,0.931-0.303L114.714,271.532z"/>
		</g>
		<g>
			<path class="st0" d="M161.315,270.347c-0.747,0.897-0.489,1.958-0.399,2.987l0.692,7.944c0.013,0.145,0.025,0.291,0.034,0.392
				c0.862-1.071,1.737-2.159,2.574-3.199c0.872-1.061,1.744-2.108,2.789-2.944l0.121,0.071c-0.102,0.232-0.174,0.487-0.315,0.69
				c-0.272,0.392-0.148,0.699,0.145,0.99l1.628,1.579l1.686,1.624c0.095,0.086,0.223,0.134,0.38,0.225
				c-0.101,0.2-0.189,0.436-0.328,0.638c-1.207,1.674-2.534,3.284-4.122,4.724c-0.137,0.124-0.276,0.289-0.44,0.329
				c-0.171,0.041-0.437,0.018-0.549-0.089c-1.083-1.009-2.123-2.111-3.151-3.209c-0.064-0.068-0.157-0.111-0.287-0.2
				c0.008,0.188,0.014,0.332,0.02,0.476l0.512,5.99c0.017,0.215-0.036,0.487-0.169,0.652c-0.72,0.895-1.486,1.768-2.265,2.642
				c-0.102,0.115-0.264,0.184-0.398,0.275l0.116,0.147c0.155,0.005,0.312,0.024,0.466,0.012c4.237-0.264,8.449-0.829,12.648-1.448
				c0.417-0.074,0.411-0.256,0.362-0.553l-2.508-15.582c-0.187-1.236-0.119-2.521,0.698-3.595c1.1-1.453,2.114-2.923,3.119-4.385
				c0.169-0.257,0.408-0.454,0.676-0.748c-0.066,0.52-0.179,0.918-0.159,1.311c0.046,0.87,0.081,1.755,0.253,2.603l3.381,16.312
				c0.127,0.596,0.034,1.104-0.321,1.575c-0.563,0.752-1.127,1.507-1.759,2.353c0.464-0.053,0.813-0.075,1.155-0.135
				c1.825-0.287,3.608-0.787,5.412-1.176c1.805-0.394,3.596-0.843,5.363-1.382c0.242-0.07,0.459-0.251,0.669-0.403
				c0.162-0.118,0.295-0.272,0.441-0.41l0.123,0.054c-0.106,0.261-0.183,0.537-0.324,0.782c-1.157,1.999-2.474,4.004-4.123,5.709
				c-0.401,0.426-0.866,0.688-1.484,0.827c-3.66,0.895-7.38,1.486-11.083,2.157l-6.38,0.848c-1.92,0.244-3.855,0.325-5.782,0.485
				c-1.928,0.169-3.859,0.246-5.792,0.249c-1.114,0.016-2.147,0.174-3.099,0.728c-0.061,0.035-0.138,0.048-0.291,0.006
				c0.217-0.256,0.401-0.543,0.654-0.764c1.468-1.277,2.921-2.535,4.315-3.814c0.139-0.128,0.258-0.35,0.251-0.525l-0.729-16.391
				c-0.048-0.961,0.203-1.749,0.766-2.436c1.338-1.704,2.704-3.322,4.213-4.727c0.146-0.136,0.316-0.241,0.474-0.36L161.315,270.347
				z"/>
			<path class="st0" d="M222.798,280.177c0.006-0.942-0.793-0.912-1.387-1.046c-1.947-0.414-3.95-0.954-5.873-1.458
				c-1.873-0.507-3.553-1.353-5.302-2.04c-1.124-0.461-2.311-0.763-3.426-1.201c-0.335-0.132-0.694-0.393-0.861-0.695
				c-0.57-1.032-0.855-2.103-0.702-3.347c0.386-2.975,1.42-5.74,2.335-8.507c0.045-0.135,0.09-0.269,0.17-0.507
				c-0.22,0.1-0.345,0.157-0.469,0.213c-1.516,0.78-3.016,1.592-4.58,2.272l-1.263,0.632c-0.489,0.233-0.493,0.227-0.266,0.738
				l4.241,9.536c0.872,1.957,1.809,3.886,2.601,5.876c0.198,0.497,0.075,1.221-0.138,1.775c-0.774,2.08-1.819,4.002-3.126,5.858
				c-0.261,0.371-0.579,0.63-1.032,0.796c-1.731,0.664-3.484,1.264-5.251,1.824c-1.513,0.491-3.043,0.943-4.423,1.883
				c0.105-0.257,0.181-0.517,0.317-0.767c1.102-1.976,2.263-3.884,3.583-5.678c0.511-0.71,1.257-1.049,1.996-1.428
				c0.698-0.347,1.443-0.608,2.181-0.864c0.428-0.148,0.513-0.31,0.352-0.71l-3.651-9.242L196.828,269
				c-0.284-0.75-0.549-1.517-0.712-2.297c-0.077-0.373,0.049-0.82,0.18-1.188c0.7-1.924,1.451-3.801,2.35-5.62
				c0.116-0.229,0.267-0.434,0.402-0.65c0.062,0.048,0.099,0.078,0.099,0.078c-0.178,0.857,0.158,1.639,0.484,2.416
				c0.286,0.645,0.572,1.291,0.907,2.047c0.091-0.237,0.146-0.38,0.198-0.517c0.562-1.37,1.126-2.745,1.683-4.104
				c0.287-0.749,0.81-1.236,1.487-1.585c2.066-1.042,4.114-2.116,6.09-3.322c2.024-1.122,3.948-2.408,5.881-3.678
				c0.215-0.14,0.361-0.405,0.489-0.643c0.148-0.275,0.241-0.584,0.356-0.877l0.136,0.026c0.007,0.24,0.036,0.479,0.007,0.708
				c-0.306,2.32-0.781,4.646-1.684,6.884c-0.192,0.497-0.517,0.839-0.973,1.096c-1.595,0.882-3.129,1.883-4.767,2.68
				c-0.787,0.354-1.009,0.975-1.129,1.712c-0.113,0.695-0.216,1.415-0.186,2.126c0.047,1.101,0.388,2.124,1.302,2.851
				c0.112,0.089,0.269,0.128,0.411,0.171c0.642,0.195,1.306,0.338,1.939,0.574c1.217,0.446,2.456,0.977,3.669,1.397
				c0.248,0.089,0.477,0.231,0.729,0.305c1.225,0.36,2.465,0.713,3.731,1.023c1.467,0.351,2.991,0.692,4.483,0.968
				c0.208,0.039,0.408,0.114,0.609,0.181c0.58,0.191,0.736,0.351,0.612,0.964c-0.204,1.049-0.458,2.077-0.827,3.067
				c-0.465,1.27-1.047,2.522-1.614,3.79C223.079,279.792,222.924,279.98,222.798,280.177z"/>
			<path class="st0" d="M236.058,242.991c0.046,0.315,0.105,0.544,0.106,0.771c0.017,2.093-0.181,4.116-0.653,6.181
				c-0.06,0.256-0.205,0.509-0.369,0.717c-0.137,0.173-0.13,0.275,0,0.425l0.754,0.893l4.606,5.452
				c0.517,0.602,0.762,1.296,0.696,2.097c-0.219,2.535-0.71,5.015-1.559,7.532c-0.107,0.312-0.265,0.613-0.4,0.92l-0.167-0.024
				c0.033-0.397,0.019-0.798,0.104-1.187c0.147-0.668-0.003-1.174-0.408-1.69l-8.241-10.624c-0.352-0.452-0.453-0.898-0.38-1.421
				c0.04-0.247,0.08-0.487,0.13-0.795c-0.323-0.005-0.563-0.027-0.799-0.011c-1.517,0.093-2.988,0.221-4.514,0.211
				c-0.248,0.002-0.325,0.092-0.353,0.318c-0.047,0.376-0.17,0.746-0.169,1.123c0,0.245,0.117,0.532,0.265,0.741l4.629,6.489
				c1.077,1.504,2.116,3.037,3.244,4.501c0.604,0.783,0.834,1.613,0.654,2.603c-0.418,2.358-1.038,4.702-2.088,6.922
				c-0.073,0.159-0.181,0.307-0.273,0.46l-0.136-0.006c0.012-0.254,0.055-0.514,0.026-0.76c-0.043-0.368-0.039-0.788-0.226-1.077
				l-7.732-11.859c-0.249-0.377-0.33-0.724-0.335-1.152c-0.008-2.018,0.564-3.939,0.921-5.9c0.152-0.801,0.358-1.584,0.541-2.419
				c-0.871-0.035-1.705-0.068-2.538-0.102c-1.021-0.053-2.01-0.078-3.029-0.171c-0.408-0.037-0.614-0.318-0.67-0.743
				c-0.275-2.108,0.231-4.091,0.579-6.025c0.117-0.669,0.295-1.313,0.44-1.963l0.143,0.012c0.055,0.127,0.13,0.252,0.161,0.382
				c0.147,0.606,0.351,0.638,0.953,0.636c0.324,0.014,0.673,0.029,1.018,0.043c1.012,0.043,2.016,0.086,3.043,0.129
				c0.918,0.062,1.871,0.126,2.792,0.187c0.67,0.028,1.352,0.018,2.007-0.007l3.603-0.107c0.119-0.005,0.241-0.027,0.35-0.07
				c0.842-0.335,1.709-0.65,2.535-1.035C235.57,243.467,235.766,243.233,236.058,242.991z"/>
			<path class="st0" d="M189.222,263.453c2.276,6.786,4.632,13.532,6.995,20.275c0.473,1.351,0.48,2.584-0.191,3.924
				c-1.192,2.421-2.589,4.742-4.433,6.812c-0.146,0.168-0.323,0.316-0.589,0.443c0.025-0.137,0.021-0.284,0.08-0.41
				c0.154-0.33,0.285-0.682,0.512-0.97c0.716-0.906,0.607-1.827,0.327-2.77l-5.107-17.165l-0.871-2.917
				c-0.153-0.507-0.11-0.984,0.109-1.436c0.906-1.82,1.781-3.755,2.872-5.424C189.02,263.668,189.146,263.546,189.222,263.453z"/>
			<path class="st0" d="M179.78,288.915c0.008-0.067-0.006-0.145,0.027-0.199c0.361-0.585,0.202-1.159,0.073-1.749l-2.954-13.629
				c-0.195-0.92-0.278-1.868-0.362-2.807c-0.022-0.248,0.123-0.533,0.247-0.763c0.982-1.822,2.013-3.525,3.174-5.13
				c0.161-0.23,0.355-0.428,0.548-0.659c0.015,2.043,0.573,3.923,1.072,5.812l3.108,11.831c0.049,0.186,0.035,0.435-0.053,0.606
				c-0.602,1.181-1.223,2.297-1.954,3.4c-0.615,0.915-1.367,1.758-2.092,2.625c-0.219,0.262-0.488,0.487-0.736,0.729L179.78,288.915
				z"/>
			<path class="st1" d="M149.303,271.328c0.023,0.087,0.029,0.112,0.029,0.112c-0.308,0.765-0.162,1.245,0.546,1.702
				c0.922,0.558,1.852,1.104,2.81,1.631c0.437,0.239,0.92,0.387,1.365,0.619c0.477,0.249,0.632,0.866,0.286,1.298
				c-0.636,0.793-1.297,1.581-2.026,2.306c-0.806,0.797-1.69,1.552-2.572,2.278c-0.239,0.191-0.518,0.332-0.853,0.541
				c0.051-0.294,0.127-0.491,0.11-0.681c-0.037-0.403-0.365-0.6-0.677-0.715c-1.319-0.488-2.422-1.335-3.569-2.062
				c-0.344-0.218-0.664-0.49-0.94-0.789c-0.385-0.416-0.396-0.832-0.014-1.253c0.647-0.714,1.292-1.428,1.986-2.063
				c0.983-0.899,1.999-1.73,2.979-2.579C148.918,271.538,149.108,271.451,149.303,271.328z"/>
			<path class="st1" d="M145.323,288.841c-0.073,0.806,0.085,0.984,0.764,1.335c0.761,0.393,1.492,0.851,2.229,1.305
				c0.734,0.463,1.483,0.934,2.241,1.412c0.522,0.321,0.584,0.594,0.155,1.049c-0.738,0.798-1.497,1.521-2.336,2.195
				c-0.997,0.795-2.084,1.512-3.163,2.252c-0.178,0.122-0.394,0.201-0.687,0.345c0.223-0.778-0.448-0.971-0.873-1.26
				c-0.801-0.501-1.543-0.965-2.303-1.44c-0.688-0.439-1.39-0.853-2.055-1.306c-0.54-0.368-0.61-0.874-0.139-1.282
				c0.881-0.762,1.769-1.51,2.689-2.202c0.97-0.7,1.89-1.363,2.826-2.038C144.852,289.073,145.066,288.983,145.323,288.841z"/>
			<path class="st1" d="M147.862,280.741c-0.009,0.088-0.004,0.118-0.015,0.14c-0.349,0.718-0.364,0.734,0.319,1.205
				c0.338,0.232,0.711,0.437,1.097,0.575c1.333,0.483,2.538,1.1,3.774,1.871c-0.142,0.209-0.242,0.413-0.394,0.568
				c-0.908,0.916-1.826,1.858-2.807,2.724c-0.658,0.56-1.398,1.04-2.104,1.564c-0.356,0.264-0.671,0.264-1.05-0.002
				c-1.081-0.76-2.264-1.305-3.488-1.776c-0.555-0.214-1.053-0.628-1.506-1.018c-0.13-0.114-0.096-0.501-0.018-0.721
				c0.079-0.22,0.285-0.409,0.469-0.575c1.64-1.474,3.302-3.023,5.109-4.248c0.124-0.085,0.255-0.16,0.387-0.232
				C147.691,280.785,147.759,280.774,147.862,280.741z"/>
			<path class="st0" d="M215.49,258.311c0.032,0.565,0.439,0.641,0.843,0.729c0.481,0.108,0.953,0.28,1.431,0.425
				c1.042,0.308,2.085,0.616,3.207,0.948c-0.009,0.156,0.005,0.415-0.044,0.662c-0.406,2.027-0.905,4.114-1.801,6.003
				c-0.296,0.645-0.309,0.665-0.98,0.47c-0.993-0.314-2.006-0.635-3.005-0.951c-0.491-0.147-0.966-0.29-1.453-0.437
				c-0.436-0.138-0.632-0.428-0.525-0.891c0.235-1.02,0.456-2.038,0.749-3.021c0.312-1.048,0.698-2.062,1.054-3.072
				c0.107-0.304,0.279-0.581,0.42-0.87L215.49,258.311z"/>
		</g>
		<g>
			<path class="st0" d="M246.003,223.44c0.154,1.159,1.108,1.69,1.924,2.323l6.302,4.886c0.115,0.089,0.231,0.179,0.311,0.241
				c-0.199-1.358-0.401-2.738-0.594-4.056c-0.188-1.361-0.366-2.714-0.272-4.05l0.134-0.041c0.101,0.232,0.239,0.459,0.293,0.7
				c0.104,0.466,0.413,0.584,0.825,0.565l2.263-0.125l2.338-0.135c0.127-0.011,0.25-0.073,0.423-0.126
				c0.078,0.21,0.191,0.435,0.245,0.674c0.405,2.02,0.693,4.092,0.673,6.236c-0.002,0.185,0.026,0.4-0.057,0.547
				c-0.085,0.153-0.283,0.333-0.437,0.343c-1.472,0.112-3.016,0.108-4.503,0.129c-0.094,0.001-0.187,0.04-0.341,0.076
				c0.143,0.122,0.253,0.216,0.363,0.309l4.745,3.691c0.17,0.134,0.333,0.358,0.365,0.568c0.171,1.138,0.295,2.296,0.41,3.463
				c0.015,0.153-0.043,0.32-0.068,0.48l0.186,0.015c0.108-0.111,0.228-0.214,0.324-0.336c2.666-3.306,5.132-6.763,7.518-10.273
				c0.229-0.356,0.091-0.475-0.16-0.641l-13.141-8.739c-1.034-0.702-1.931-1.624-2.165-2.954c-0.321-1.796-0.702-3.534-1.105-5.272
				c-0.073-0.298-0.055-0.608-0.088-1.004c0.337,0.402,0.551,0.755,0.853,1.007c0.67,0.557,1.342,1.132,2.082,1.583l14.269,8.597
				c0.526,0.314,0.827,0.721,0.944,1.309c0.17,0.924,0.341,1.85,0.532,2.889c0.276-0.376,0.498-0.647,0.685-0.94
				c1.014-1.543,1.873-3.181,2.812-4.769c0.945-1.587,1.805-3.22,2.625-4.875c0.114-0.225,0.129-0.507,0.161-0.764
				c0.024-0.199,0.002-0.401,0-0.601l0.123-0.053c0.12,0.255,0.269,0.498,0.353,0.768c0.663,2.197,1.266,4.539,1.392,6.904
				c0.039,0.583-0.084,1.102-0.403,1.648c-1.839,3.286-3.91,6.428-5.944,9.593l-3.7,5.265c-2.358,3.066-4.714,6.143-7.328,8.997
				c-0.74,0.835-1.321,1.705-1.557,2.786c-0.015,0.069-0.056,0.137-0.197,0.215c-0.033-0.327-0.126-0.663-0.115-0.999
				c0.053-1.952,0.11-3.881,0.111-5.781c0-0.19-0.083-0.429-0.216-0.542l-12.528-10.595c-0.737-0.617-1.15-1.339-1.272-2.219
				c-0.293-2.099-0.599-4.236-0.6-6.293c-0.001-0.2,0.036-0.396,0.056-0.593L246.003,223.44z"/>
			<path class="st0" d="M294.988,184.994c-0.686-0.645-1.208-0.037-1.711,0.308c-1.632,1.147-3.36,2.257-5.054,3.322
				c-1.645,1.03-3.422,1.684-5.102,2.504c-1.077,0.519-2.128,1.178-3.204,1.699c-0.325,0.156-0.762,0.242-1.096,0.159
				c-1.145-0.283-2.124-0.802-2.93-1.758c-1.91-2.301-3.275-4.951-4.658-7.493c-0.068-0.125-0.136-0.249-0.255-0.468
				c-0.077,0.229-0.121,0.359-0.164,0.488c-0.482,1.634-0.864,3.299-1.44,4.904l-0.399,1.354c-0.164,0.517-0.171,0.515,0.358,0.696
				l9.878,3.369c2.028,0.69,4.081,1.314,6.078,2.085c0.499,0.193,0.945,0.774,1.206,1.307c0.989,1.978,1.735,4.067,2.18,6.277
				c0.093,0.443,0.066,0.852-0.122,1.296c-0.713,1.711-1.42,3.423-2.224,5.094c-0.666,1.444-1.401,2.861-1.623,4.524
				c-0.122-0.253-0.274-0.492-0.361-0.76c-0.696-2.149-1.302-4.294-1.716-6.479c-0.155-0.849,0.069-1.641,0.293-2.442
				c0.223-0.747,0.54-1.47,0.857-2.184c0.184-0.414,0.123-0.586-0.28-0.74l-9.261-3.602l-5.092-1.996
				c-0.743-0.301-1.486-0.628-2.168-1.039c-0.326-0.197-0.567-0.592-0.747-0.939c-0.919-1.815-1.831-3.658-2.533-5.545
				c-0.088-0.24-0.135-0.49-0.202-0.736c0.077-0.013,0.125-0.02,0.125-0.02c0.506,0.713,1.308,0.997,2.099,1.286
				c0.667,0.229,1.335,0.457,2.119,0.726c-0.112-0.228-0.179-0.365-0.243-0.496c-0.625-1.343-1.253-2.692-1.874-4.025
				c-0.36-0.721-0.355-1.433-0.149-2.166l0.939-3.338l0.762-3.383c0.559-2.244,0.905-4.533,1.293-6.811
				c0.043-0.253-0.052-0.54-0.14-0.796c-0.101-0.295-0.265-0.573-0.401-0.856l0.114-0.081c0.175,0.157,0.374,0.298,0.521,0.475
				c1.495,1.799,2.88,3.726,3.909,5.909c0.233,0.478,0.279,0.952,0.15,1.46c-0.432,1.77-0.766,3.569-1.266,5.319
				c-0.278,0.817,0.026,1.401,0.484,1.99c0.432,0.555,0.889,1.119,1.43,1.58c0.839,0.713,1.82,1.158,2.976,0.982
				c0.142-0.022,0.278-0.11,0.406-0.185c0.58-0.338,1.138-0.728,1.743-1.032c1.154-0.574,2.335-1.162,3.509-1.746
				c0.234-0.122,0.494-0.193,0.72-0.328c1.098-0.654,2.201-1.324,3.29-2.043c1.252-0.839,2.553-1.723,3.753-2.634
				c0.17-0.127,0.361-0.222,0.546-0.324c0.534-0.296,0.758-0.302,1.123,0.206c0.627,0.862,1.225,1.75,1.695,2.692
				c0.614,1.204,1.136,2.481,1.679,3.759C294.897,184.525,294.93,184.767,294.988,184.994z"/>
			<path class="st0" d="M276.725,150c0.254,0.18,0.458,0.293,0.619,0.446c1.485,1.41,2.9,2.93,4.092,4.68
				c0.148,0.218,0.238,0.496,0.281,0.758c0.035,0.218,0.116,0.282,0.314,0.288l1.168,0.052l7.13,0.32
				c0.79,0.029,1.476,0.321,2.012,0.913c1.657,1.879,3.197,3.926,4.464,6.258c0.158,0.29,0.272,0.61,0.407,0.918l-0.13,0.107
				c-0.27-0.293-0.575-0.556-0.804-0.882c-0.393-0.561-0.867-0.794-1.52-0.848l-13.395-1.162c-0.571-0.048-0.968-0.277-1.304-0.686
				c-0.155-0.198-0.305-0.39-0.498-0.636c-0.222,0.234-0.4,0.395-0.548,0.579c-0.939,1.179-1.878,2.342-2.916,3.457
				c-0.166,0.183-0.152,0.302-0.006,0.475c0.245,0.289,0.433,0.631,0.711,0.887c0.181,0.166,0.47,0.275,0.725,0.309l7.907,1.006
				c1.835,0.231,3.666,0.508,5.507,0.674c0.985,0.088,1.751,0.483,2.357,1.287c1.455,1.909,2.749,3.955,3.664,6.235
				c0.067,0.162,0.102,0.342,0.152,0.514l-0.097,0.096c-0.178-0.181-0.34-0.389-0.54-0.535c-0.299-0.218-0.605-0.506-0.944-0.566
				l-13.955-2.377c-0.445-0.074-0.756-0.249-1.073-0.537c-1.486-1.364-2.501-3.087-3.705-4.682
				c-0.486-0.655-0.922-1.338-1.412-2.039c-0.616,0.616-1.205,1.205-1.794,1.794c-0.733,0.713-1.414,1.424-2.183,2.107
				c-0.304,0.274-0.651,0.235-1-0.012c-1.725-1.227-2.849-2.947-4.033-4.515c-0.412-0.54-0.766-1.109-1.146-1.656l0.106-0.096
				c0.131,0.046,0.273,0.075,0.39,0.141c0.545,0.304,0.707,0.176,1.114-0.268c0.228-0.25,0.488-0.48,0.74-0.716
				c0.715-0.714,1.424-1.423,2.15-2.148c0.665-0.632,1.356-1.289,2.023-1.924c0.475-0.473,0.915-0.982,1.378-1.478l2.356-2.72
				c0.076-0.09,0.142-0.196,0.184-0.304c0.325-0.847,0.659-1.697,0.953-2.565C276.714,150.682,276.688,150.379,276.725,150z"/>
			<path class="st0" d="M259.912,198.269c6.525,2.942,13.075,5.797,19.627,8.646c1.313,0.571,2.221,1.403,2.745,2.804
				c0.942,2.508,1.733,5.128,1.99,7.881c0.023,0.221,0.012,0.45-0.076,0.732c-0.084-0.111-0.194-0.208-0.246-0.337
				c-0.137-0.337-0.306-0.671-0.362-1.033c-0.176-1.14-0.926-1.685-1.808-2.12l-16.064-7.916l-2.732-1.343
				c-0.476-0.232-0.796-0.588-0.978-1.055c-0.757-1.919-1.546-3.859-2.032-5.797C259.931,198.563,259.927,198.388,259.912,198.269z"
				/>
			<path class="st0" d="M272.174,222.494c-0.044-0.051-0.111-0.094-0.127-0.155c-0.184-0.662-0.713-0.935-1.234-1.241l-12.009-7.089
				c-0.807-0.482-1.56-1.065-2.305-1.641c-0.197-0.152-0.308-0.452-0.391-0.7c-0.674-1.961-1.2-3.862-1.614-5.82
				c-0.059-0.274-0.071-0.551-0.109-0.849c1.507,1.377,3.266,2.244,4.991,3.161l10.793,5.757c0.169,0.091,0.343,0.27,0.408,0.451
				c0.464,1.248,0.872,2.467,1.178,3.748c0.252,1.072,0.359,2.196,0.502,3.316c0.043,0.338,0.025,0.688,0.034,1.034L272.174,222.494
				z"/>
			<path class="st1" d="M238.564,232.908c0.08,0.042,0.102,0.055,0.102,0.055c0.355,0.748,0.805,0.966,1.615,0.752
				c1.068-0.267,2.109-0.569,3.13-0.929c0.469-0.161,0.903-0.416,1.373-0.588c0.504-0.184,1.061,0.121,1.145,0.67
				c0.155,1.008,0.287,2.032,0.329,3.064c0.058,1.152-0.024,2.28-0.103,3.409c-0.02,0.307-0.104,0.61-0.176,1
				c-0.181-0.238-0.275-0.428-0.426-0.544c-0.321-0.247-0.685-0.137-0.98,0.016c-1.248,0.641-2.595,0.898-3.917,1.235
				c-0.403,0.095-0.829,0.135-1.243,0.127c-0.578-0.011-0.891-0.287-0.931-0.843c-0.072-0.947-0.123-1.871-0.134-2.828
				c0-1.339,0.072-2.657,0.105-3.96C238.459,233.336,238.523,233.136,238.564,232.908z"/>
			<path class="st1" d="M248.737,247.756c0.543,0.602,0.779,0.606,1.493,0.341c0.8-0.297,1.628-0.528,2.456-0.765
				c0.839-0.224,1.696-0.453,2.563-0.684c0.605-0.152,0.849-0.011,0.879,0.602c0.052,1.054,0.088,2.123,0.014,3.201
				c-0.088,1.279-0.294,2.572-0.477,3.874c-0.03,0.215-0.118,0.429-0.209,0.744c-0.417-0.691-1.013-0.328-1.531-0.229
				c-0.891,0.184-1.768,0.456-2.642,0.693c-0.784,0.212-1.558,0.453-2.336,0.639c-0.632,0.151-1.05-0.14-1.032-0.767
				c0.032-1.172,0.08-2.34,0.19-3.493c0.109-1.153,0.309-2.289,0.462-3.423C248.59,248.263,248.668,248.043,248.737,247.756z"/>
			<path class="st1" d="M244.502,240.372c0.059,0.066,0.084,0.083,0.093,0.106c0.292,0.747,0.294,0.769,1.098,0.582
				c0.397-0.092,0.798-0.23,1.158-0.422c1.257-0.653,2.586-1.065,3.958-1.479c0.058,0.247,0.141,0.46,0.151,0.677
				c0.074,1.306,0.122,2.602,0.064,3.886c-0.031,0.868-0.176,1.742-0.267,2.623c-0.046,0.443-0.257,0.677-0.707,0.777
				c-1.282,0.288-2.472,0.799-3.696,1.33c-0.548,0.248-1.171,0.351-1.765,0.418c-0.171,0.019-0.432-0.269-0.54-0.476
				c-0.109-0.208-0.109-0.49-0.108-0.739c0.023-2.218,0.092-4.411,0.374-6.617c0.021-0.15,0.053-0.298,0.089-0.444
				C244.42,240.528,244.457,240.47,244.502,240.372z"/>
			<path class="st0" d="M273.985,175.506c0.442,0.361,0.763,0.112,1.1-0.125c0.406-0.279,0.852-0.509,1.284-0.761
				c0.934-0.556,1.869-1.112,2.874-1.71c0.108,0.112,0.308,0.278,0.456,0.482c1.204,1.673,2.415,3.461,3.187,5.399
				c0.272,0.655,0.277,0.678-0.322,1.038c-0.906,0.515-1.831,1.04-2.743,1.558c-0.442,0.26-0.87,0.511-1.31,0.769
				c-0.398,0.226-0.744,0.173-1.011-0.22c-0.587-0.865-1.183-1.719-1.704-2.601c-0.555-0.941-1.036-1.911-1.534-2.858
				c-0.15-0.285-0.236-0.599-0.351-0.898L273.985,175.506z"/>
		</g>
		<g>
			<path class="st2" d="M41.794,218.962c0,0-2.026,2.655-3.985,5.414c-1.986,2.763-3.806,5.565-3.806,5.565
				s-0.551-0.501-1.102-1.002c-0.525-0.522-1.051-1.045-1.051-1.045l-0.47,0.31c0,0,1.05,1.654,2.21,3.232
				c1.136,1.595,2.271,3.191,2.271,3.191l0.452-0.336l-0.821-2.255c0,0,2.331-3.693,4.782-7.216
				c2.445-3.545,5.087-6.972,5.087-6.972l-0.375-0.586c0,0-4.182,0.939-8.478,1.698c-4.23,0.744-8.552,1.296-8.552,1.296
				l-1.772-1.647l-0.469,0.261c0,0,0.799,1.391,1.599,2.782c0.4,0.695,0.801,1.39,1.101,1.911c0.321,0.509,0.534,0.848,0.534,0.848
				l0.457-0.281c0,0-0.256-0.657-0.452-1.346c-0.208-0.681-0.415-1.362-0.415-1.362s3.32-0.479,6.649-1.111
				C38.525,219.69,41.794,218.962,41.794,218.962z"/>
			<path class="st2" d="M39.932,209.197c0,0-1.362-2.68-2.725-5.359c-0.619-1.37-1.237-2.74-1.701-3.767
				c-0.47-1.025-0.761-1.717-0.761-1.717l-4.821,1.781l0.212,0.534l4.5-0.225c0,0,0.585,1.295,1.171,2.589
				c0.56,1.307,1.22,2.565,1.22,2.565l-6.787,3.347c0,0-0.438-0.792-0.798-1.622c-0.372-0.824-0.745-1.647-0.745-1.647l1.937-1.86
				l-0.228-0.504l-5.464,2.439l0.238,0.527l2.68-0.218c0,0,0.375,0.829,0.75,1.659c0.362,0.835,0.803,1.633,0.803,1.633
				l-6.053,2.985c0,0-0.728-1.395-1.353-2.84c-0.648-1.434-1.296-2.867-1.296-2.867l2.661-2.554l-0.276-0.63l-4.076,1.718
				c0,0,1.386,3.075,2.772,6.15c1.53,3.005,3.061,6.01,3.061,6.01l0.495-0.267l-0.612-2.592l13.089-6.749l1.611,1.747
				L39.932,209.197z"/>
			<path class="st2" d="M31.869,194.334l1.439,1.906l0.523-0.208c0,0-0.627-1.597-1.255-3.194c-0.549-1.626-1.098-3.251-1.098-3.251
				l-0.534,0.178l0.154,2.452l-6.433,2.284l-0.295-0.871c-0.369-1.09-0.129-1.82,0.6-2.617c0,0,1.08-1.174,2.16-2.348
				c1.118-1.15,2.237-2.3,2.237-2.3c0.803-0.822,1.002-1.526,0.715-2.538c-0.268-0.943-0.726-1.712-0.955-2.05l-0.544,0.143
				c0.291,1.021,0.22,1.612-0.484,2.314c0,0-0.889,0.892-1.779,1.784c-0.884,0.912-1.767,1.825-1.767,1.825
				c-1.458,1.518-1.24,2.964-1.119,3.811c-1.822-3.488-3.81-4.498-5.997-3.882c-3.021,0.84-3.424,3.833-2.065,7.654
				c0,0,0.594,1.746,1.187,3.491c0.675,1.716,1.35,3.431,1.35,3.431l0.523-0.207l-0.349-2.63L31.869,194.334z M17.078,197.196
				c-0.288-0.531-0.647-1.269-0.891-1.989c-0.86-2.497-0.19-4.291,1.862-4.909c2.304-0.691,4.373,0.398,5.165,2.7l0.61,1.803
				L17.078,197.196z"/>
			<path class="st2" d="M28.831,180.617c0,0-0.395-1.713-0.789-3.426c-0.43-1.706-0.719-3.441-0.719-3.441
				c-0.683-3.709-3.104-5.425-5.68-5.071c-2.999,0.417-3.62,3.133-3.319,5.571c-1.106-2.433-2.957-3.708-4.884-3.423
				c-3.108,0.453-3.398,3.571-2.908,6.32c0,0,0.335,1.931,0.807,3.834c0.441,1.909,0.883,3.819,0.883,3.819l0.546-0.138L12.806,182
				l14.344-3.333l1.136,2.088L28.831,180.617z M18.666,178.175l-6.6,1.409c-0.236-0.532-0.516-1.444-0.644-2.249
				c-0.394-2.196,0.506-3.563,2.675-3.927c2.319-0.388,3.798,0.772,4.183,2.924c0,0,0.088,0.463,0.175,0.925
				C18.56,177.716,18.666,178.175,18.666,178.175z M22.346,171.189c2.398-0.387,3.799,0.607,4.3,3.43
				c0.109,0.692,0.181,1.294,0.171,1.816l-7.276,1.554c0,0-0.098-0.425-0.196-0.849c-0.102-0.424-0.166-0.855-0.166-0.855
				C18.664,173.395,19.797,171.598,22.346,171.189z"/>
			<path class="st2" d="M25.674,157.903c-0.279-5.161-4.154-7.863-9.173-7.903c-5.055-0.039-8.961,2.631-8.653,8.798
				c0.383,6.006,4.714,8.549,9.65,7.89C22.557,166.019,26.011,163.209,25.674,157.903z M24.781,157.62
				c0.28,3.58-2.281,5.956-7.603,6.547c-4.661,0.518-8.149-1.297-8.434-5.041c-0.289-4.095,2.467-6.516,7.821-6.586
				C21.244,152.477,24.58,154.352,24.781,157.62z"/>
		</g>
	</g>
	<g>
		<g>
			<path class="st0" d="M230.863,60.148c1.189-0.085,1.781-0.98,2.48-1.747l5.37-5.895c0.098-0.108,0.196-0.216,0.265-0.291
				c-1.382,0.105-2.787,0.211-4.128,0.313c-1.361,0.067-2.713,0.125-4.025-0.09l-0.029-0.138c0.238-0.08,0.474-0.199,0.717-0.231
				c0.469-0.062,0.612-0.362,0.629-0.778c0.037-0.764,0.038-1.508,0.045-2.253l0.025-2.309c0-0.129-0.05-0.257-0.089-0.436
				c0.214-0.06,0.446-0.153,0.687-0.185c2.09-0.298,4.185-0.428,6.287-0.199c0.182,0.018,0.397,0.01,0.536,0.105
				c0.144,0.099,0.305,0.313,0.302,0.47c-0.029,1.504-0.11,2.991-0.194,4.462c-0.006,0.093,0.031,0.184,0.051,0.343
				c0.133-0.133,0.235-0.235,0.337-0.337l4.055-4.438c0.147-0.158,0.382-0.303,0.592-0.316c1.14-0.071,2.295-0.094,3.459-0.107
				c0.153-0.002,0.312,0.071,0.469,0.11l0.031-0.186c-0.101-0.119-0.192-0.248-0.304-0.354c-1.516-1.487-3.122-2.875-4.738-4.25
				c-1.589-1.408-3.226-2.757-4.915-4.045c-0.333-0.262-0.462-0.134-0.648,0.104l-9.755,12.406
				c-0.782,0.975-1.769,1.792-3.103,1.906c-1.781,0.131-3.592,0.438-5.365,0.712c-0.3,0.046-0.605-0.001-0.999-0.005
				c0.426-0.301,0.793-0.484,1.067-0.764c0.607-0.621,1.232-1.244,1.74-1.945l9.705-13.54c0.356-0.502,0.779-0.76,1.377-0.834
				c0.946-0.113,1.896-0.226,2.96-0.353c-0.361-0.294-0.62-0.528-0.902-0.73l-4.511-3.21l-4.662-2.987
				c-0.213-0.135-0.49-0.176-0.742-0.231c-0.195-0.043-0.396-0.039-0.594-0.055l-0.042-0.128c0.262-0.097,0.515-0.224,0.789-0.284
				c2.243-0.486,4.563-0.805,6.983-0.823c0.592-0.005,1.111,0.142,1.619,0.519c3.069,2.177,6.132,4.36,9.054,6.731
				c1.712,1.293,3.334,2.696,4.956,4.1c1.476,1.252,2.914,2.545,4.291,3.906c1.377,1.358,2.831,2.64,4.122,4.082
				c0.762,0.815,1.572,1.473,2.621,1.804c0.067,0.021,0.129,0.07,0.2,0.212c-0.335,0.013-0.669,0.071-1.002,0.033
				c-1.93-0.219-3.821-0.456-5.716-0.604c-0.192-0.012-0.439,0.054-0.563,0.178l-11.554,11.649
				c-0.673,0.686-1.433,1.046-2.333,1.113c-2.148,0.159-4.25,0.238-6.292,0.067c-0.198-0.016-0.398-0.06-0.596-0.092L230.863,60.148
				z"/>
			<path class="st0" d="M196.439,8.255c-0.695,0.625-0.135,1.205,0.166,1.742c0.994,1.775,1.99,3.508,2.921,5.262
				c0.886,1.745,1.388,3.587,2.063,5.349c0.429,1.12,1.021,2.175,1.461,3.272c0.134,0.325,0.18,0.779,0.071,1.104
				c-0.377,1.126-0.963,2.036-1.991,2.788c-2.482,1.805-5.208,2.891-7.839,4.027c-0.131,0.06-0.261,0.121-0.491,0.227
				c0.224,0.091,0.351,0.143,0.477,0.194l4.765,1.853c0.44,0.167,0.896,0.295,1.324,0.49c0.498,0.214,0.496,0.221,0.719-0.292
				l4.15-9.576c0.85-1.966,1.637-3.964,2.566-5.891c0.232-0.482,0.845-0.873,1.393-1.084c2.028-0.778,4.181-1.376,6.446-1.699
				c0.446-0.052,0.849,0.013,1.273,0.242l4.906,2.612c1.384,0.781,2.717,1.661,4.347,2.033c-0.261,0.099-0.51,0.23-0.782,0.292
				c-2.196,0.522-4.331,0.862-6.58,1.171c-0.872,0.111-1.652-0.159-2.419-0.47c-0.721-0.293-1.41-0.678-2.091-1.063
				c-0.395-0.223-0.57-0.178-0.756,0.211l-4.333,8.943l-2.397,4.916c-0.36,0.716-0.745,1.43-1.208,2.075
				c-0.22,0.305-0.634,0.514-1,0.677c-1.915,0.838-3.816,1.58-5.737,2.088c-0.245,0.065-0.496,0.088-0.745,0.13
				c-0.006-0.079-0.009-0.127-0.009-0.127c0.747-0.438,1.095-1.214,1.446-1.979c0.281-0.647,0.563-1.294,0.893-2.053
				c-0.235,0.09-0.376,0.144-0.511,0.196c-1.396,0.469-2.812,1.072-4.183,1.595c-0.743,0.29-1.448,0.215-2.157-0.064
				c-2.146-0.862-4.376-1.494-6.557-2.256c-2.226-0.622-4.445-1.272-6.689-1.818c-0.25-0.055-0.547,0.026-0.81,0.1
				c-0.305,0.086-0.596,0.235-0.892,0.357l-0.072-0.117c0.171-0.166,0.329-0.357,0.518-0.494c1.934-1.43,3.956-2.622,6.199-3.423
				c0.49-0.177,0.969-0.194,1.471-0.045c1.761,0.472,3.491,1.063,5.191,1.71c0.801,0.316,1.414,0.045,2.042-0.377
				c0.595-0.407,1.19-0.806,1.69-1.302c0.775-0.77,1.296-1.711,1.216-2.886c-0.01-0.144-0.086-0.289-0.15-0.425
				c-0.284-0.624-0.636-1.186-0.895-1.802c-0.483-1.188-0.977-2.404-1.468-3.611c-0.101-0.246-0.151-0.513-0.266-0.753
				c-0.56-1.161-1.132-2.336-1.758-3.487c-0.741-1.3-1.541-2.588-2.343-3.894c-0.112-0.182-0.191-0.383-0.277-0.578
				c-0.251-0.563-0.238-0.787,0.295-1.103c0.904-0.536,1.836-1.055,2.823-1.482c1.261-0.556,2.581-0.988,3.887-1.392
				C195.968,8.301,196.209,8.292,196.439,8.255z"/>
			<path class="st0" d="M160.098,23.714c0.2-0.245,0.329-0.442,0.494-0.595c1.526-1.424,3.157-2.752,4.987-3.734
				c0.229-0.126,0.513-0.188,0.776-0.204c0.219-0.013,0.29-0.087,0.311-0.284l0.145-1.16l0.884-7.082
				c0.092-0.789,0.436-1.435,1.069-1.922c2.016-1.573,4.182-2.973,6.598-3.975c0.302-0.129,0.629-0.212,0.946-0.316l0.096,0.141
				c-0.314,0.241-0.599,0.52-0.942,0.716c-0.59,0.337-0.859,0.787-0.965,1.434l-2.225,13.26c-0.093,0.565-0.352,0.939-0.786,1.233
				c-0.209,0.135-0.411,0.265-0.671,0.433c0.214,0.245,0.361,0.439,0.532,0.606c1.073,1.061,2.138,2.115,3.214,3.18
				c0.171,0.174,0.29,0.166,0.476,0.029c0.309-0.226,0.668-0.406,0.943-0.651c0.179-0.164,0.311-0.443,0.365-0.693l1.635-7.801
				c0.377-1.811,0.799-3.613,1.112-5.436c0.167-0.975,0.62-1.702,1.468-2.228c2.009-1.247,4.151-2.359,6.517-3.173
				c0.169-0.061,0.35-0.078,0.524-0.111l0.088,0.106c-0.194,0.162-0.414,0.301-0.575,0.49c-0.243,0.285-0.556,0.573-0.642,0.906
				l-3.487,13.72c-0.109,0.438-0.31,0.737-0.623,1.037c-1.493,1.428-3.293,2.311-4.966,3.33c-0.715,0.407-1.397,0.795-2.139,1.217
				c0.562,0.674,1.1,1.319,1.637,1.963l1.919,2.37c0.251,0.315,0.184,0.657-0.091,0.992c-1.372,1.669-3.156,2.568-4.809,3.606
				c-0.602,0.36-1.166,0.698-1.748,1.046l-0.088-0.109c0.056-0.128,0.097-0.268,0.172-0.381c0.347-0.527,0.232-0.694-0.18-1.119
				c-0.232-0.239-0.443-0.507-0.659-0.769c-0.651-0.787-1.297-1.569-1.958-2.368c-0.584-0.73-1.143-1.489-1.755-2.167
				c-0.436-0.495-0.91-0.958-1.37-1.442l-2.516-2.619c-0.084-0.085-0.183-0.162-0.288-0.214c-0.813-0.432-1.642-0.761-2.484-1.111
				C160.778,23.758,160.474,23.769,160.098,23.714z"/>
			<path class="st0" d="M206.872,44.265c3.455-6.27,6.825-12.57,10.189-18.873c0.674-1.263,1.587-2.122,3.012-2.509
				c2.555-0.705,5.211-1.252,8.021-1.365c0.221-0.003,0.447,0.029,0.718,0.143c-0.117,0.074-0.222,0.175-0.354,0.216
				c-0.346,0.109-0.687,0.242-1.055,0.273c-1.164,0.107-1.769,0.815-2.273,1.66l-9.173,15.381l-1.557,2.616
				c-0.269,0.456-0.653,0.751-1.139,0.906c-1.993,0.632-3.954,1.202-5.917,1.517C207.171,44.261,206.993,44.257,206.872,44.265z"/>
			<path class="st0" d="M231.979,34.006c-0.054,0.039-0.102,0.103-0.164,0.114c-0.67,0.124-0.984,0.631-1.331,1.126l-8.022,11.407
				c-0.544,0.766-1.184,1.468-1.816,2.164c-0.167,0.183-0.473,0.267-0.725,0.328c-1.968,0.456-3.971,0.927-5.947,1.168
				c-0.275,0.033-0.551,0.02-0.848,0.029c1.487-1.384,2.493-3.07,3.545-4.716l6.599-10.3c0.104-0.162,0.296-0.319,0.48-0.368
				c1.263-0.336,2.538-0.687,3.853-0.909c1.106-0.193,2.208-0.171,3.333-0.221c0.338-0.013,0.682,0.037,1.025,0.06L231.979,34.006z"
				/>
			<path class="st1" d="M239.725,68.306c0.048-0.076,0.062-0.096,0.062-0.096c0.781-0.302,1.03-0.73,0.863-1.537
				c-0.218-1.052-0.433-2.118-0.691-3.183c-0.118-0.486-0.332-0.944-0.461-1.431c-0.137-0.522,0.212-1.055,0.762-1.091
				c1.009-0.066,2.033-0.11,3.055-0.061c1.131,0.054,2.266,0.21,3.411,0.354c0.307,0.042,0.619,0.135,0.996,0.242
				c-0.251,0.161-0.447,0.239-0.575,0.38c-0.272,0.3-0.195,0.676-0.07,0.985c0.529,1.305,0.649,2.694,0.886,4.034
				c0.071,0.401,0.086,0.822,0.053,1.229c-0.047,0.566-0.346,0.856-0.913,0.859c-0.961,0.005-1.92,0.013-2.855-0.069
				c-1.322-0.117-2.617-0.305-3.901-0.452C240.141,68.446,239.958,68.357,239.725,68.306z"/>
			<path class="st1" d="M255.292,59.375c0.642-0.493,0.667-0.73,0.467-1.469c-0.224-0.829-0.38-1.68-0.543-2.532
				c-0.165-0.847-0.334-1.711-0.505-2.585c-0.115-0.605,0.044-0.836,0.667-0.826c1.062,0.025,2.175,0.033,3.222,0.212
				c1.257,0.199,2.518,0.517,3.79,0.813c0.21,0.049,0.414,0.156,0.718,0.274c-0.723,0.362-0.412,0.989-0.338,1.499
				c0.122,0.896,0.368,1.754,0.512,2.662c0.142,0.804,0.312,1.602,0.428,2.4c0.094,0.648-0.231,1.042-0.849,0.97
				c-1.156-0.133-2.307-0.281-3.437-0.49c-1.175-0.238-2.29-0.463-3.423-0.692C255.781,59.566,255.57,59.469,255.292,59.375z"/>
			<path class="st1" d="M247.623,62.987c0.071-0.053,0.09-0.077,0.113-0.084c0.764-0.229,0.785-0.229,0.671-1.052
				c-0.059-0.404-0.151-0.827-0.322-1.194c-0.595-1.264-0.911-2.612-1.187-4.04c0.249-0.036,0.466-0.101,0.682-0.093
				c1.286,0.05,2.587,0.1,3.895,0.229c0.888,0.077,1.735,0.303,2.596,0.471c0.434,0.084,0.647,0.317,0.706,0.777
				c0.169,1.314,0.566,2.558,1.044,3.782c0.224,0.549,0.275,1.18,0.285,1.786c0.004,0.173-0.304,0.41-0.518,0.501
				c-0.215,0.091-0.494,0.067-0.74,0.044c-2.227-0.182-4.459-0.383-6.586-0.882c-0.146-0.034-0.29-0.08-0.431-0.128
				C247.771,63.084,247.717,63.041,247.623,62.987z"/>
			<path class="st0" d="M185.286,28.468c0.397-0.418,0.172-0.747-0.035-1.113c-0.244-0.434-0.435-0.904-0.65-1.361
				c-0.475-0.989-0.951-1.98-1.462-3.045c0.12-0.097,0.301-0.28,0.515-0.409c1.762-1.058,3.613-2.024,5.633-2.722
				c0.68-0.235,0.703-0.239,1.018,0.373c0.47,0.953,0.889,1.935,1.322,2.893c0.221,0.468,0.436,0.921,0.655,1.386
				c0.191,0.421,0.111,0.762-0.3,0.99c-0.905,0.503-1.799,1.016-2.716,1.451c-1.024,0.457-1.998,0.892-2.981,1.331
				c-0.298,0.134-0.621,0.204-0.931,0.303L185.286,28.468z"/>
		</g>
		<g>
			<path class="st0" d="M138.685,29.653c0.747-0.897,0.489-1.958,0.399-2.987l-0.692-7.944c-0.013-0.145-0.025-0.291-0.034-0.392
				c-0.862,1.071-1.737,2.159-2.574,3.199c-0.872,1.061-1.744,2.108-2.789,2.944l-0.121-0.071c0.102-0.232,0.174-0.487,0.315-0.69
				c0.272-0.392,0.148-0.699-0.145-0.99l-1.628-1.579l-1.686-1.624c-0.095-0.086-0.223-0.134-0.38-0.225
				c0.101-0.2,0.189-0.436,0.328-0.638c1.207-1.674,2.534-3.284,4.122-4.724c0.137-0.124,0.276-0.289,0.44-0.329
				c0.171-0.041,0.437-0.018,0.549,0.089c1.083,1.009,2.123,2.111,3.151,3.209c0.064,0.068,0.157,0.111,0.287,0.2
				c-0.008-0.188-0.014-0.332-0.02-0.476l-0.512-5.99c-0.017-0.215,0.036-0.487,0.169-0.652c0.72-0.895,1.486-1.768,2.265-2.642
				c0.102-0.115,0.264-0.184,0.398-0.275l-0.116-0.147c-0.155-0.005-0.312-0.024-0.466-0.012c-4.237,0.264-8.449,0.829-12.648,1.448
				c-0.417,0.074-0.411,0.256-0.362,0.553l2.508,15.582c0.187,1.236,0.119,2.521-0.698,3.595c-1.1,1.453-2.114,2.923-3.119,4.385
				c-0.169,0.257-0.408,0.454-0.676,0.748c0.066-0.52,0.179-0.918,0.159-1.311c-0.046-0.87-0.081-1.755-0.253-2.604l-3.381-16.312
				c-0.127-0.596-0.034-1.104,0.321-1.575c0.563-0.752,1.127-1.507,1.759-2.353c-0.464,0.053-0.813,0.075-1.155,0.136
				c-1.825,0.287-3.608,0.787-5.412,1.176c-1.805,0.394-3.596,0.843-5.363,1.382c-0.242,0.07-0.459,0.251-0.669,0.403
				c-0.162,0.118-0.295,0.272-0.441,0.41l-0.123-0.054c0.106-0.261,0.183-0.537,0.324-0.782c1.157-1.998,2.474-4.004,4.123-5.709
				c0.401-0.426,0.866-0.688,1.483-0.827c3.66-0.895,7.38-1.486,11.083-2.157l6.38-0.848c1.92-0.244,3.855-0.325,5.782-0.485
				c1.928-0.17,3.859-0.246,5.792-0.249c1.114-0.016,2.147-0.174,3.099-0.728c0.061-0.035,0.138-0.048,0.291-0.006
				c-0.217,0.256-0.401,0.543-0.654,0.764c-1.468,1.277-2.921,2.535-4.315,3.814c-0.139,0.128-0.258,0.35-0.251,0.525l0.729,16.391
				c0.048,0.961-0.203,1.749-0.766,2.436c-1.338,1.704-2.704,3.322-4.213,4.727c-0.146,0.136-0.316,0.241-0.474,0.36L138.685,29.653
				z"/>
			<path class="st0" d="M77.202,19.823c-0.006,0.942,0.793,0.911,1.387,1.046c1.947,0.414,3.95,0.955,5.873,1.458
				c1.873,0.507,3.553,1.353,5.302,2.04c1.124,0.461,2.311,0.762,3.426,1.201c0.335,0.132,0.694,0.393,0.861,0.695
				c0.57,1.032,0.855,2.103,0.702,3.347c-0.386,2.975-1.42,5.74-2.335,8.507c-0.045,0.135-0.09,0.269-0.17,0.507
				c0.22-0.1,0.345-0.157,0.469-0.213c1.516-0.78,3.016-1.592,4.58-2.272l1.263-0.632c0.489-0.233,0.494-0.227,0.266-0.738
				l-4.241-9.536c-0.872-1.957-1.809-3.886-2.601-5.876c-0.198-0.497-0.075-1.221,0.138-1.775c0.774-2.08,1.819-4.002,3.126-5.858
				c0.261-0.371,0.579-0.63,1.032-0.796c1.731-0.664,3.484-1.264,5.251-1.824c1.513-0.491,3.043-0.943,4.423-1.883
				c-0.105,0.257-0.18,0.517-0.317,0.767c-1.102,1.976-2.263,3.884-3.583,5.678c-0.511,0.71-1.257,1.049-1.996,1.428
				c-0.698,0.347-1.443,0.608-2.181,0.864c-0.428,0.148-0.513,0.31-0.352,0.71l3.651,9.242L103.172,31
				c0.284,0.75,0.549,1.517,0.712,2.297c0.077,0.373-0.049,0.82-0.18,1.188c-0.7,1.924-1.451,3.801-2.35,5.62
				c-0.116,0.229-0.267,0.434-0.402,0.65c-0.062-0.048-0.099-0.078-0.099-0.078c0.178-0.857-0.158-1.639-0.484-2.416
				c-0.286-0.645-0.572-1.29-0.907-2.047c-0.091,0.238-0.146,0.38-0.198,0.517c-0.562,1.37-1.126,2.745-1.683,4.104
				c-0.286,0.749-0.81,1.236-1.487,1.585c-2.066,1.042-4.114,2.116-6.09,3.322c-2.024,1.122-3.948,2.408-5.881,3.678
				c-0.215,0.14-0.361,0.405-0.489,0.643c-0.148,0.275-0.241,0.584-0.356,0.877l-0.135-0.026c-0.007-0.24-0.036-0.479-0.007-0.708
				c0.306-2.32,0.781-4.646,1.684-6.884c0.192-0.497,0.517-0.839,0.973-1.096c1.595-0.882,3.129-1.883,4.767-2.68
				c0.787-0.354,1.009-0.975,1.129-1.712c0.113-0.695,0.216-1.415,0.186-2.126c-0.047-1.101-0.388-2.124-1.302-2.851
				c-0.112-0.089-0.269-0.128-0.411-0.171c-0.642-0.195-1.306-0.338-1.939-0.574c-1.217-0.446-2.456-0.977-3.669-1.397
				c-0.248-0.089-0.477-0.231-0.73-0.305c-1.225-0.36-2.465-0.713-3.731-1.023c-1.467-0.351-2.991-0.692-4.483-0.968
				c-0.208-0.039-0.408-0.114-0.609-0.181c-0.58-0.191-0.736-0.351-0.612-0.964c0.204-1.049,0.458-2.077,0.827-3.067
				c0.465-1.27,1.047-2.522,1.614-3.79C76.921,20.208,77.076,20.02,77.202,19.823z"/>
			<path class="st0" d="M63.942,57.009c-0.046-0.315-0.105-0.544-0.106-0.771c-0.017-2.093,0.181-4.116,0.653-6.181
				c0.06-0.256,0.205-0.509,0.369-0.717c0.137-0.173,0.13-0.275,0-0.425l-0.755-0.893l-4.606-5.452
				c-0.517-0.602-0.762-1.296-0.696-2.097c0.219-2.535,0.71-5.015,1.56-7.532c0.107-0.312,0.265-0.613,0.4-0.92l0.167,0.024
				c-0.033,0.397-0.019,0.798-0.104,1.187c-0.147,0.668,0.003,1.174,0.408,1.69l8.241,10.624c0.353,0.452,0.453,0.898,0.38,1.421
				c-0.04,0.247-0.08,0.487-0.13,0.795c0.323,0.005,0.563,0.027,0.799,0.011c1.517-0.093,2.988-0.221,4.514-0.211
				c0.248-0.002,0.325-0.092,0.353-0.318c0.046-0.376,0.17-0.746,0.169-1.123c0-0.245-0.117-0.532-0.265-0.741l-4.629-6.489
				c-1.076-1.504-2.116-3.037-3.244-4.501c-0.604-0.783-0.835-1.613-0.654-2.603c0.418-2.358,1.038-4.702,2.088-6.922
				c0.073-0.159,0.181-0.307,0.273-0.46l0.136,0.006c-0.012,0.254-0.055,0.514-0.026,0.76c0.043,0.368,0.039,0.788,0.226,1.077
				l7.732,11.859c0.249,0.377,0.33,0.724,0.335,1.152c0.008,2.018-0.564,3.939-0.921,5.9c-0.152,0.801-0.358,1.584-0.541,2.419
				c0.871,0.035,1.705,0.068,2.538,0.102c1.021,0.053,2.01,0.078,3.029,0.171c0.408,0.037,0.614,0.318,0.67,0.743
				c0.275,2.108-0.231,4.091-0.579,6.025c-0.117,0.669-0.296,1.313-0.44,1.964l-0.143-0.012c-0.055-0.127-0.13-0.252-0.161-0.382
				c-0.147-0.606-0.351-0.638-0.953-0.636c-0.324-0.014-0.673-0.029-1.018-0.043c-1.012-0.043-2.016-0.086-3.043-0.129
				c-0.918-0.062-1.871-0.126-2.792-0.187c-0.67-0.028-1.352-0.018-2.007,0.007l-3.603,0.107c-0.119,0.005-0.241,0.027-0.35,0.07
				c-0.842,0.335-1.709,0.65-2.535,1.035C64.43,56.533,64.234,56.767,63.942,57.009z"/>
			<path class="st0" d="M110.778,36.547c-2.276-6.786-4.632-13.532-6.995-20.275c-0.473-1.351-0.48-2.584,0.191-3.924
				c1.192-2.421,2.589-4.742,4.433-6.812c0.146-0.168,0.323-0.316,0.589-0.443c-0.025,0.137-0.021,0.284-0.08,0.41
				c-0.154,0.33-0.285,0.682-0.512,0.969c-0.716,0.906-0.607,1.827-0.326,2.77l5.107,17.165l0.871,2.917
				c0.153,0.506,0.11,0.984-0.109,1.436c-0.906,1.82-1.78,3.755-2.872,5.424C110.98,36.332,110.854,36.454,110.778,36.547z"/>
			<path class="st0" d="M120.22,11.085c-0.008,0.067,0.006,0.145-0.027,0.199c-0.361,0.585-0.202,1.159-0.073,1.749l2.954,13.629
				c0.195,0.92,0.278,1.868,0.362,2.807c0.022,0.248-0.123,0.533-0.247,0.763c-0.982,1.822-2.013,3.525-3.174,5.13
				c-0.161,0.23-0.355,0.428-0.548,0.659c-0.015-2.043-0.573-3.923-1.072-5.812l-3.108-11.831c-0.048-0.186-0.035-0.435,0.053-0.606
				c0.602-1.181,1.223-2.297,1.954-3.4c0.615-0.915,1.367-1.758,2.092-2.625c0.219-0.262,0.488-0.487,0.736-0.729L120.22,11.085z"/>
			<path class="st1" d="M150.697,28.672c-0.023-0.087-0.029-0.112-0.029-0.112c0.308-0.765,0.162-1.245-0.546-1.702
				c-0.922-0.558-1.852-1.104-2.81-1.631c-0.437-0.239-0.92-0.387-1.365-0.619c-0.477-0.249-0.632-0.865-0.286-1.298
				c0.636-0.793,1.298-1.581,2.026-2.306c0.806-0.797,1.69-1.552,2.572-2.278c0.239-0.191,0.518-0.332,0.853-0.541
				c-0.051,0.294-0.127,0.491-0.11,0.681c0.037,0.403,0.365,0.6,0.677,0.715c1.319,0.488,2.422,1.335,3.569,2.062
				c0.344,0.218,0.664,0.49,0.94,0.789c0.385,0.416,0.396,0.832,0.014,1.253c-0.647,0.714-1.292,1.428-1.986,2.063
				c-0.983,0.899-1.999,1.73-2.979,2.579C151.082,28.462,150.892,28.549,150.697,28.672z"/>
			<path class="st1" d="M154.677,11.159c0.073-0.806-0.085-0.984-0.764-1.335c-0.761-0.393-1.492-0.851-2.229-1.305
				c-0.734-0.462-1.483-0.934-2.241-1.412c-0.522-0.321-0.584-0.594-0.155-1.049c0.738-0.798,1.497-1.521,2.336-2.195
				c0.997-0.795,2.084-1.512,3.163-2.252c0.178-0.122,0.394-0.201,0.687-0.345c-0.223,0.778,0.448,0.971,0.873,1.26
				c0.801,0.501,1.543,0.965,2.303,1.44c0.688,0.439,1.39,0.853,2.055,1.306c0.54,0.368,0.61,0.874,0.139,1.282
				c-0.881,0.762-1.769,1.51-2.689,2.202c-0.97,0.7-1.89,1.363-2.826,2.038C155.148,10.927,154.934,11.017,154.677,11.159z"/>
			<path class="st1" d="M152.138,19.259c0.009-0.088,0.004-0.118,0.015-0.14c0.349-0.718,0.364-0.734-0.319-1.205
				c-0.338-0.232-0.711-0.437-1.097-0.575c-1.333-0.483-2.538-1.1-3.774-1.871c0.142-0.209,0.242-0.413,0.394-0.568
				c0.908-0.916,1.826-1.858,2.807-2.724c0.658-0.56,1.398-1.04,2.104-1.564c0.356-0.264,0.671-0.264,1.05,0.002
				c1.081,0.76,2.264,1.306,3.488,1.776c0.555,0.214,1.053,0.628,1.506,1.018c0.13,0.114,0.096,0.501,0.018,0.721
				c-0.078,0.22-0.285,0.409-0.468,0.575c-1.64,1.474-3.302,3.023-5.109,4.248c-0.124,0.085-0.255,0.16-0.387,0.232
				C152.309,19.215,152.241,19.226,152.138,19.259z"/>
			<path class="st0" d="M84.51,41.689c-0.032-0.565-0.439-0.641-0.843-0.729c-0.481-0.108-0.953-0.28-1.431-0.425
				c-1.042-0.308-2.085-0.616-3.207-0.948c0.009-0.156-0.005-0.415,0.044-0.662c0.406-2.027,0.905-4.114,1.801-6.002
				c0.296-0.645,0.309-0.665,0.979-0.47c0.993,0.314,2.006,0.635,3.005,0.951c0.491,0.147,0.966,0.29,1.453,0.437
				c0.436,0.138,0.632,0.428,0.525,0.891c-0.235,1.02-0.456,2.038-0.749,3.021c-0.312,1.048-0.697,2.062-1.054,3.072
				c-0.107,0.304-0.279,0.581-0.42,0.87L84.51,41.689z"/>
		</g>
		<g>
			<path class="st0" d="M53.997,76.56c-0.154-1.159-1.109-1.69-1.924-2.323l-6.302-4.886c-0.115-0.089-0.231-0.179-0.311-0.241
				c0.199,1.358,0.401,2.738,0.594,4.056c0.188,1.361,0.366,2.714,0.272,4.05l-0.134,0.041c-0.101-0.232-0.239-0.459-0.293-0.701
				c-0.104-0.466-0.413-0.584-0.825-0.565l-2.263,0.125l-2.338,0.135c-0.127,0.011-0.25,0.073-0.423,0.126
				c-0.078-0.21-0.191-0.435-0.245-0.674c-0.405-2.02-0.693-4.092-0.673-6.236c0.002-0.185-0.025-0.4,0.057-0.547
				c0.085-0.153,0.283-0.333,0.437-0.343c1.472-0.113,3.016-0.108,4.503-0.129c0.094-0.001,0.187-0.04,0.341-0.076
				c-0.143-0.122-0.253-0.216-0.363-0.309l-4.746-3.691c-0.17-0.134-0.333-0.358-0.365-0.568c-0.171-1.138-0.295-2.296-0.41-3.463
				c-0.015-0.153,0.043-0.32,0.067-0.48l-0.186-0.015c-0.108,0.111-0.228,0.214-0.324,0.336c-2.665,3.306-5.132,6.763-7.518,10.273
				c-0.229,0.356-0.091,0.475,0.16,0.641l13.142,8.739c1.034,0.702,1.931,1.624,2.165,2.954c0.321,1.796,0.702,3.534,1.105,5.272
				c0.073,0.298,0.055,0.608,0.088,1.004c-0.337-0.402-0.551-0.755-0.853-1.007c-0.67-0.557-1.342-1.132-2.082-1.583L30.082,77.88
				c-0.526-0.314-0.826-0.721-0.944-1.309c-0.17-0.924-0.341-1.85-0.533-2.889c-0.276,0.376-0.497,0.647-0.685,0.94
				c-1.014,1.543-1.873,3.18-2.812,4.769c-0.945,1.587-1.805,3.22-2.625,4.875c-0.114,0.225-0.129,0.507-0.161,0.764
				c-0.024,0.199-0.002,0.401,0,0.601l-0.123,0.053c-0.12-0.255-0.269-0.498-0.353-0.768c-0.663-2.197-1.266-4.539-1.392-6.904
				c-0.039-0.583,0.084-1.102,0.403-1.648c1.839-3.286,3.91-6.428,5.944-9.593l3.7-5.265c2.358-3.066,4.714-6.143,7.328-8.997
				c0.74-0.835,1.321-1.705,1.557-2.786c0.015-0.069,0.056-0.137,0.197-0.215c0.033,0.327,0.126,0.663,0.115,0.999
				c-0.054,1.952-0.11,3.881-0.111,5.781c0,0.19,0.082,0.428,0.216,0.542L52.33,67.424c0.737,0.617,1.15,1.339,1.272,2.219
				c0.293,2.099,0.599,4.236,0.6,6.293c0.001,0.2-0.036,0.396-0.056,0.593L53.997,76.56z"/>
			<path class="st0" d="M5.012,115.006c0.686,0.645,1.208,0.037,1.712-0.308c1.632-1.148,3.36-2.257,5.054-3.322
				c1.645-1.03,3.422-1.684,5.102-2.504c1.077-0.519,2.128-1.178,3.204-1.699c0.325-0.156,0.762-0.242,1.096-0.159
				c1.145,0.283,2.124,0.802,2.93,1.758c1.91,2.301,3.275,4.951,4.658,7.493c0.068,0.124,0.136,0.249,0.255,0.468
				c0.077-0.229,0.121-0.359,0.164-0.488c0.482-1.634,0.864-3.299,1.44-4.904l0.399-1.354c0.164-0.517,0.171-0.515-0.359-0.696
				l-9.878-3.369c-2.028-0.69-4.081-1.314-6.078-2.085c-0.499-0.193-0.945-0.774-1.206-1.307c-0.99-1.978-1.735-4.067-2.18-6.277
				c-0.093-0.443-0.066-0.852,0.122-1.296c0.713-1.711,1.42-3.423,2.224-5.094c0.666-1.444,1.4-2.861,1.623-4.524
				c0.122,0.253,0.274,0.492,0.361,0.76c0.696,2.149,1.302,4.294,1.716,6.479c0.155,0.849-0.069,1.641-0.293,2.442
				c-0.223,0.747-0.539,1.47-0.857,2.184c-0.184,0.414-0.123,0.586,0.28,0.74l9.261,3.602l5.092,1.996
				c0.743,0.301,1.486,0.628,2.168,1.039c0.326,0.197,0.567,0.592,0.747,0.939c0.919,1.815,1.831,3.658,2.533,5.545
				c0.088,0.24,0.135,0.49,0.202,0.736c-0.078,0.013-0.125,0.02-0.125,0.02c-0.506-0.713-1.308-0.997-2.099-1.286
				c-0.667-0.229-1.335-0.457-2.118-0.726c0.112,0.228,0.179,0.365,0.243,0.496c0.625,1.343,1.253,2.692,1.874,4.024
				c0.36,0.721,0.355,1.433,0.149,2.166l-0.939,3.338l-0.762,3.383c-0.559,2.244-0.905,4.533-1.293,6.811
				c-0.043,0.253,0.052,0.54,0.14,0.795c0.101,0.295,0.265,0.573,0.401,0.856l-0.114,0.081c-0.175-0.157-0.374-0.298-0.521-0.475
				c-1.495-1.799-2.88-3.726-3.909-5.909c-0.233-0.478-0.279-0.952-0.15-1.46c0.433-1.77,0.767-3.569,1.266-5.319
				c0.278-0.817-0.026-1.401-0.483-1.99c-0.432-0.555-0.889-1.119-1.43-1.58c-0.839-0.713-1.82-1.158-2.976-0.982
				c-0.142,0.022-0.278,0.11-0.406,0.185c-0.58,0.338-1.138,0.728-1.743,1.032c-1.154,0.574-2.335,1.162-3.509,1.746
				c-0.234,0.122-0.494,0.193-0.72,0.328c-1.098,0.654-2.201,1.324-3.29,2.043c-1.252,0.839-2.553,1.723-3.753,2.634
				c-0.17,0.127-0.361,0.222-0.546,0.324c-0.534,0.296-0.758,0.302-1.123-0.206c-0.627-0.862-1.225-1.75-1.695-2.692
				c-0.614-1.204-1.136-2.481-1.679-3.759C5.103,115.475,5.07,115.233,5.012,115.006z"/>
			<path class="st0" d="M23.275,150c-0.254-0.18-0.458-0.293-0.619-0.446c-1.485-1.41-2.9-2.93-4.092-4.68
				c-0.149-0.218-0.238-0.497-0.281-0.758c-0.036-0.217-0.116-0.282-0.314-0.288l-1.168-0.052l-7.13-0.32
				c-0.791-0.029-1.476-0.321-2.012-0.913c-1.657-1.879-3.198-3.926-4.464-6.258c-0.158-0.29-0.273-0.61-0.407-0.918l0.13-0.107
				c0.27,0.293,0.575,0.556,0.804,0.882c0.393,0.561,0.867,0.794,1.52,0.848l13.395,1.162c0.571,0.048,0.968,0.277,1.304,0.686
				c0.155,0.198,0.305,0.39,0.498,0.636c0.222-0.234,0.4-0.395,0.548-0.579c0.939-1.179,1.878-2.342,2.916-3.457
				c0.166-0.183,0.152-0.302,0.006-0.475c-0.245-0.289-0.433-0.631-0.711-0.887c-0.181-0.166-0.47-0.275-0.725-0.309l-7.907-1.007
				c-1.835-0.231-3.666-0.508-5.507-0.674c-0.985-0.088-1.751-0.483-2.357-1.287c-1.455-1.909-2.749-3.955-3.664-6.235
				c-0.067-0.162-0.102-0.342-0.152-0.514l0.097-0.096c0.179,0.181,0.34,0.389,0.54,0.535c0.299,0.218,0.605,0.506,0.944,0.566
				l13.955,2.377c0.446,0.073,0.756,0.249,1.073,0.537c1.486,1.364,2.501,3.087,3.705,4.682c0.486,0.655,0.922,1.338,1.412,2.039
				c0.616-0.616,1.205-1.205,1.794-1.794c0.733-0.713,1.414-1.424,2.183-2.107c0.304-0.274,0.651-0.235,1,0.012
				c1.726,1.227,2.849,2.947,4.033,4.515c0.412,0.54,0.766,1.109,1.146,1.656l-0.106,0.096c-0.131-0.046-0.273-0.075-0.39-0.141
				c-0.545-0.304-0.707-0.176-1.114,0.268c-0.229,0.25-0.488,0.48-0.74,0.716c-0.715,0.714-1.424,1.423-2.15,2.148
				c-0.665,0.632-1.356,1.289-2.023,1.924c-0.475,0.473-0.915,0.982-1.378,1.477l-2.356,2.72c-0.076,0.09-0.142,0.196-0.184,0.304
				c-0.324,0.847-0.659,1.697-0.953,2.565C23.286,149.318,23.312,149.62,23.275,150z"/>
			<path class="st0" d="M40.088,101.731c-6.525-2.942-13.075-5.797-19.627-8.646c-1.313-0.571-2.221-1.403-2.744-2.804
				c-0.942-2.508-1.733-5.128-1.99-7.881c-0.023-0.221-0.012-0.45,0.076-0.732c0.084,0.111,0.194,0.208,0.246,0.337
				c0.137,0.337,0.306,0.671,0.362,1.033c0.176,1.14,0.926,1.685,1.809,2.12l16.064,7.916l2.732,1.343
				c0.476,0.232,0.796,0.588,0.978,1.055c0.756,1.919,1.546,3.86,2.032,5.797C40.069,101.438,40.073,101.612,40.088,101.731z"/>
			<path class="st0" d="M27.826,77.506c0.044,0.051,0.111,0.094,0.127,0.155c0.183,0.662,0.713,0.935,1.234,1.241l12.009,7.089
				c0.807,0.482,1.56,1.065,2.305,1.641c0.197,0.152,0.308,0.452,0.391,0.7c0.674,1.961,1.2,3.862,1.614,5.82
				c0.059,0.274,0.071,0.551,0.109,0.849c-1.507-1.377-3.266-2.244-4.991-3.161l-10.794-5.757c-0.169-0.091-0.343-0.27-0.408-0.451
				c-0.464-1.248-0.872-2.467-1.178-3.748c-0.253-1.072-0.359-2.196-0.502-3.316c-0.043-0.338-0.025-0.688-0.034-1.034
				L27.826,77.506z"/>
			<path class="st1" d="M61.436,67.092c-0.08-0.042-0.102-0.055-0.102-0.055c-0.355-0.748-0.805-0.966-1.615-0.752
				c-1.068,0.267-2.109,0.569-3.13,0.929c-0.469,0.161-0.903,0.416-1.373,0.588c-0.504,0.184-1.061-0.121-1.145-0.67
				c-0.155-1.008-0.287-2.032-0.329-3.064c-0.058-1.152,0.024-2.28,0.103-3.409c0.02-0.307,0.104-0.61,0.176-1
				c0.181,0.238,0.275,0.428,0.426,0.544c0.321,0.247,0.685,0.137,0.98-0.016c1.248-0.641,2.595-0.898,3.917-1.235
				c0.403-0.095,0.829-0.135,1.243-0.127c0.578,0.011,0.891,0.287,0.931,0.843c0.072,0.947,0.123,1.871,0.134,2.828
				c0,1.339-0.072,2.657-0.105,3.96C61.541,66.664,61.477,66.864,61.436,67.092z"/>
			<path class="st1" d="M51.263,52.244c-0.543-0.602-0.779-0.606-1.493-0.341c-0.8,0.297-1.628,0.528-2.456,0.765
				c-0.839,0.224-1.696,0.453-2.563,0.684c-0.605,0.152-0.849,0.011-0.879-0.602c-0.052-1.054-0.088-2.123-0.014-3.201
				c0.088-1.279,0.294-2.572,0.477-3.874c0.03-0.215,0.118-0.429,0.209-0.744c0.417,0.691,1.013,0.328,1.531,0.229
				c0.891-0.184,1.768-0.456,2.642-0.693c0.783-0.212,1.558-0.453,2.336-0.639c0.632-0.151,1.05,0.14,1.032,0.767
				c-0.032,1.172-0.08,2.34-0.19,3.493c-0.109,1.153-0.309,2.289-0.462,3.423C51.41,51.737,51.332,51.957,51.263,52.244z"/>
			<path class="st1" d="M55.498,59.628c-0.059-0.066-0.084-0.083-0.093-0.106c-0.292-0.747-0.294-0.769-1.098-0.582
				c-0.397,0.093-0.798,0.23-1.158,0.422c-1.257,0.653-2.586,1.065-3.958,1.479c-0.058-0.247-0.141-0.46-0.151-0.677
				c-0.074-1.306-0.122-2.602-0.064-3.886c0.031-0.868,0.177-1.742,0.267-2.623c0.045-0.443,0.257-0.677,0.707-0.777
				c1.282-0.288,2.472-0.799,3.696-1.33c0.548-0.248,1.172-0.351,1.765-0.418c0.171-0.019,0.432,0.269,0.54,0.476
				c0.109,0.208,0.109,0.49,0.108,0.739c-0.023,2.218-0.092,4.411-0.374,6.617c-0.021,0.15-0.054,0.298-0.089,0.444
				C55.58,59.472,55.543,59.53,55.498,59.628z"/>
			<path class="st0" d="M26.015,124.494c-0.442-0.361-0.762-0.112-1.1,0.125c-0.406,0.28-0.853,0.509-1.284,0.761
				c-0.934,0.556-1.869,1.112-2.874,1.71c-0.108-0.112-0.308-0.278-0.456-0.482c-1.204-1.673-2.416-3.461-3.187-5.399
				c-0.272-0.655-0.277-0.678,0.322-1.038c0.906-0.515,1.831-1.04,2.743-1.558c0.442-0.26,0.87-0.511,1.31-0.769
				c0.398-0.226,0.744-0.173,1.011,0.22c0.587,0.865,1.183,1.719,1.704,2.601c0.555,0.941,1.036,1.911,1.534,2.858
				c0.15,0.285,0.236,0.599,0.351,0.898L26.015,124.494z"/>
		</g>
		<g>
			<path class="st2" d="M258.206,81.038c0,0,2.026-2.655,3.985-5.414c1.986-2.763,3.806-5.565,3.806-5.565s0.551,0.501,1.102,1.002
				c0.526,0.522,1.051,1.045,1.051,1.045l0.47-0.31c0,0-1.05-1.654-2.21-3.232c-1.136-1.595-2.271-3.191-2.271-3.191l-0.452,0.336
				l0.822,2.255c0,0-2.331,3.693-4.782,7.216c-2.445,3.545-5.087,6.972-5.087,6.972l0.375,0.586c0,0,4.182-0.939,8.478-1.698
				c4.23-0.744,8.552-1.296,8.552-1.296l1.772,1.647l0.469-0.261c0,0-0.799-1.391-1.599-2.782c-0.401-0.695-0.801-1.39-1.101-1.911
				c-0.321-0.509-0.534-0.848-0.534-0.848l-0.457,0.281c0,0,0.256,0.657,0.452,1.346c0.208,0.681,0.415,1.362,0.415,1.362
				s-3.32,0.479-6.649,1.111C261.475,80.31,258.206,81.038,258.206,81.038z"/>
			<path class="st2" d="M260.068,90.803c0,0,1.362,2.68,2.725,5.359c0.619,1.37,1.238,2.739,1.701,3.767
				c0.47,1.025,0.762,1.717,0.762,1.717l4.82-1.781l-0.212-0.534l-4.5,0.225c0,0-0.585-1.295-1.171-2.589
				c-0.56-1.307-1.22-2.565-1.22-2.565l6.787-3.347c0,0,0.438,0.792,0.798,1.622c0.372,0.824,0.745,1.647,0.745,1.647l-1.937,1.86
				l0.228,0.504l5.464-2.439l-0.238-0.527l-2.68,0.218c0,0-0.375-0.829-0.75-1.659c-0.362-0.836-0.803-1.633-0.803-1.633
				l6.053-2.985c0,0,0.728,1.395,1.353,2.84c0.648,1.434,1.296,2.867,1.296,2.867l-2.661,2.554l0.276,0.63l4.076-1.718
				c0,0-1.386-3.075-2.772-6.15c-1.53-3.005-3.061-6.01-3.061-6.01l-0.495,0.267l0.612,2.592l-13.089,6.749l-1.611-1.747
				L260.068,90.803z"/>
			<path class="st2" d="M268.131,105.666l-1.439-1.906l-0.523,0.208c0,0,0.627,1.597,1.255,3.194
				c0.549,1.626,1.098,3.251,1.098,3.251l0.534-0.178l-0.154-2.452l6.433-2.284l0.295,0.871c0.369,1.09,0.129,1.82-0.6,2.617
				c0,0-1.08,1.174-2.16,2.348c-1.118,1.15-2.237,2.3-2.237,2.3c-0.803,0.822-1.002,1.526-0.715,2.538
				c0.268,0.943,0.726,1.712,0.956,2.05l0.544-0.143c-0.291-1.021-0.22-1.612,0.484-2.313c0,0,0.889-0.892,1.779-1.784
				c0.884-0.912,1.767-1.825,1.767-1.825c1.458-1.518,1.24-2.964,1.119-3.811c1.822,3.488,3.81,4.498,5.997,3.882
				c3.021-0.84,3.424-3.833,2.065-7.654c0,0-0.594-1.746-1.187-3.491c-0.675-1.716-1.35-3.431-1.35-3.431l-0.523,0.208l0.349,2.63
				L268.131,105.666z M282.922,102.804c0.288,0.531,0.647,1.269,0.891,1.989c0.86,2.497,0.19,4.291-1.861,4.909
				c-2.303,0.691-4.373-0.398-5.165-2.7l-0.61-1.803L282.922,102.804z"/>
			<path class="st2" d="M271.169,119.383c0,0,0.395,1.713,0.789,3.426c0.43,1.706,0.719,3.441,0.719,3.441
				c0.683,3.709,3.104,5.425,5.68,5.071c2.999-0.417,3.62-3.133,3.319-5.571c1.106,2.433,2.957,3.708,4.884,3.423
				c3.108-0.453,3.398-3.571,2.908-6.32c0,0-0.335-1.931-0.807-3.834c-0.441-1.909-0.883-3.819-0.883-3.819l-0.546,0.137
				L287.194,118l-14.344,3.333l-1.136-2.088L271.169,119.383z M281.334,121.825l6.601-1.409c0.236,0.532,0.516,1.444,0.644,2.249
				c0.394,2.196-0.507,3.563-2.675,3.927c-2.319,0.388-3.798-0.772-4.183-2.924c0,0-0.088-0.463-0.175-0.925
				C281.44,122.284,281.334,121.825,281.334,121.825z M277.654,128.811c-2.398,0.387-3.799-0.608-4.3-3.43
				c-0.109-0.692-0.181-1.294-0.171-1.816l7.276-1.554c0,0,0.098,0.425,0.196,0.849c0.102,0.424,0.166,0.855,0.166,0.855
				C281.336,126.605,280.203,128.402,277.654,128.811z"/>
			<path class="st2" d="M274.326,142.097c0.279,5.161,4.154,7.863,9.173,7.903c5.055,0.039,8.961-2.631,8.653-8.798
				c-0.383-6.006-4.714-8.549-9.65-7.89C277.443,133.981,273.989,136.791,274.326,142.097z M275.219,142.38
				c-0.28-3.58,2.281-5.956,7.603-6.547c4.66-0.519,8.149,1.297,8.434,5.041c0.289,4.095-2.467,6.516-7.821,6.586
				C278.756,147.523,275.42,145.648,275.219,142.38z"/>
		</g>
	</g>
</g>
</svg>
