<?xml version="1.0" encoding="utf-8"?>
<!-- Generator: Adobe Illustrator 17.0.0, SVG Export Plug-In . SVG Version: 6.00 Build 0)  -->
<!DOCTYPE svg PUBLIC "-//W3C//DTD SVG 1.1//EN" "http://www.w3.org/Graphics/SVG/1.1/DTD/svg11.dtd">
<svg version="1.1" id="Capa_1" xmlns="http://www.w3.org/2000/svg" xmlns:xlink="http://www.w3.org/1999/xlink" x="0px" y="0px"
	 width="300px" height="300px" viewBox="0 0 300 300" style="enable-background:new 0 0 300 300;" xml:space="preserve">
<style type="text/css">
	.st0{fill:#F4D68C;}
	.st1{fill:#CE9549;}
	.st2{fill:#D8D8D8;}
</style>
<g>
	<g>
		<path class="st0" d="M140.634,39.204c1.401-1.28,0.969-2.693,0.836-4.099l-1.005-10.797c-0.019-0.198-0.037-0.395-0.05-0.533
			c-1.731,1.466-3.318,3.139-4.998,4.619c-1.686,1.458-3.322,3.102-5.278,4.399l-0.227-0.078c0.191-0.333,0.325-0.694,0.59-0.996
			c0.51-0.581,0.28-0.982-0.273-1.333l-3.077-1.89c-1.067-0.607-2.127-1.21-3.195-1.818c-0.182-0.099-0.426-0.14-0.726-0.235
			c0.189-0.294,0.354-0.634,0.617-0.938c2.248-2.68,4.818-5.046,7.91-7.305c0.265-0.2,0.542-0.427,0.861-0.495
			c0.333-0.069,0.85-0.058,1.067,0.079c2.086,1.329,4.054,2.657,5.985,4.062c0.121,0.09,0.297,0.144,0.544,0.26
			c-0.006-0.256,0-0.453-0.018-0.648l-0.739-8.141c-0.024-0.293,0.093-0.666,0.361-0.897c1.455-1.254,3.01-2.481,4.602-3.707
			c0.209-0.158,0.533-0.27,0.805-0.385l-0.22-0.203c-0.307,0-0.616-0.019-0.922,0.005c-8.405,0.449-16.762,1.775-24.954,3.726
			c-0.819,0.19-0.805,0.438-0.706,0.836c1.724,6.943,3.491,13.878,5.09,20.848c0.388,1.68,0.271,3.369-1.173,5.099
			c-1.956,2.295-3.721,4.58-5.388,6.992c-0.285,0.4-0.702,0.739-1.163,1.217c0.078-0.732,0.253-1.31,0.186-1.843
			c-0.149-1.181-0.275-2.387-0.647-3.504c-2.391-7.163-4.822-14.312-7.309-21.442c-0.276-0.79-0.114-1.499,0.537-2.303
			c1.024-1.27,2.06-2.552,3.29-3.896c-0.897,0.224-1.585,0.332-2.235,0.561c-6.991,2.202-13.793,4.98-20.359,8.22
			c-0.445,0.228-0.83,0.601-1.204,0.929c-0.29,0.254-0.52,0.543-0.775,0.815l-0.235-0.01c0.166-0.426,0.279-0.856,0.514-1.279
			c1.902-3.513,4.299-6.811,7.281-10.103c0.744-0.77,1.625-1.341,2.811-1.802c7.045-2.755,14.289-5.032,21.678-6.663l3.154-0.722
			l3.18-0.591c2.121-0.391,4.24-0.802,6.384-1.036c7.705-1.107,15.489-1.464,23.238-1.275c2.235,0.1,4.321-0.113,6.288-0.649
			c0.126-0.037,0.282-0.041,0.585,0.045c-0.463,0.308-0.859,0.664-1.39,0.918c-3.07,1.544-6.085,3.141-8.955,4.802
			c-0.287,0.175-0.541,0.479-0.54,0.717c0.028,7.438,0.065,14.876,0.178,22.311c0.019,1.306-0.512,2.389-1.614,3.327
			c-1.314,1.134-2.633,2.173-3.971,3.272c-1.337,1.111-2.7,2.169-4.117,3.151c-0.274,0.192-0.591,0.333-0.885,0.51L140.634,39.204z"
			/>
		<path class="st0" d="M31.458,61.387c0.351,1.42,1.579,0.547,2.572,0.153c3.363-1.236,6.542-2.554,9.896-3.552
			c3.202-1.007,6.197-1.304,9.33-1.79c1.985-0.315,3.96-0.968,5.974-1.224c0.598-0.085,1.271-0.002,1.633,0.298
			c1.241,1.025,2.015,2.342,2.121,4.251c0.306,4.67-0.513,9.471-0.927,14.252c-0.022,0.232-0.045,0.463-0.084,0.872
			c0.31-0.333,0.484-0.521,0.659-0.709c1.062-1.198,2.056-2.457,3.167-3.611l3.301-3.491l1.868-1.883
			c0.727-0.713,0.736-0.708,0.215-1.263l-9.716-10.346c-1.997-2.122-4.096-4.149-5.965-6.386c-0.468-0.559-0.451-1.718-0.233-2.708
			c0.407-1.823,0.985-3.609,1.646-5.464c0.658-1.86,1.459-3.72,2.445-5.542c0.387-0.736,0.9-1.354,1.671-1.939
			c1.464-1.149,3.007-2.192,4.534-3.257c1.532-1.057,3.037-2.152,4.627-3.123c1.347-0.856,2.713-1.691,4.038-2.596
			c1.338-0.885,2.672-1.778,3.897-2.873c-0.161,0.431-0.261,0.861-0.488,1.29c-1.852,3.384-3.638,6.939-5.744,10.35
			c-0.785,1.383-2.015,2.45-3.29,3.48c-1.214,0.948-2.474,1.872-3.713,2.803c-0.722,0.534-0.837,0.831-0.469,1.288l8.39,10.592
			c1.537,1.946,3.097,3.873,4.597,5.847c0.66,0.868,1.293,1.774,1.755,2.768c0.221,0.476,0.118,1.195-0.012,1.806
			c-0.364,1.582-0.648,3.269-1.034,4.866c-0.374,1.613-0.819,3.179-1.252,4.821c-0.116,0.412-0.295,0.818-0.444,1.226
			c-0.114-0.021-0.183-0.022-0.183-0.036c0.021-1.35-0.756-2.209-1.515-3.066c-0.635-0.72-1.31-1.403-2.081-2.224
			c-0.077,0.409-0.121,0.648-0.167,0.891l-0.749,3.595c-0.197,1.205-0.393,2.411-0.591,3.62c-0.209,1.287-0.909,2.354-1.804,3.44
			C63.717,83.229,58.799,90.264,54.82,97.79c-0.211,0.422-0.261,0.955-0.302,1.428c-0.047,0.547-0.001,1.085,0.007,1.622
			l-0.201,0.099c-0.135-0.333-0.312-0.647-0.398-1.006c-0.914-3.664-1.381-7.468-1.099-11.572c0.078-0.885,0.372-1.713,0.909-2.538
			c0.902-1.456,1.917-2.838,2.898-4.243c0.96-1.42,2.013-2.772,3.131-4.067c1.054-1.227,1.109-2.36,1.043-3.513
			c-0.072-1.094-0.165-2.218-0.462-3.217c-0.462-1.547-1.353-2.733-3.054-2.977c-0.209-0.03-0.472,0.052-0.712,0.116
			c-1.083,0.291-2.203,0.664-3.278,0.904c-2.09,0.478-4.151,0.95-6.221,1.424c-0.426,0.102-0.843,0.109-1.272,0.237
			c-2.023,0.665-4.064,1.375-6.139,2.182c-2.426,0.932-4.727,2.096-7.147,3.219c-0.335,0.159-0.672,0.253-1.007,0.364
			c-0.966,0.322-1.272,0.249-1.339-0.788c-0.109-1.755-0.17-3.564-0.054-5.457c0.112-2.435,0.589-4.86,0.976-7.35
			C31.164,62.253,31.335,61.813,31.458,61.387z"/>
		<path class="st0" d="M34.375,131.176c-0.288-0.39-0.527-0.644-0.699-0.965c-0.787-1.476-1.541-3.01-2.231-4.627
			c-0.646-1.608-1.174-3.286-1.63-5.074c-0.112-0.446-0.122-0.99-0.075-1.492c0.038-0.417-0.043-0.559-0.303-0.62l-1.54-0.394
			l-9.403-2.407c-1.049-0.256-1.812-0.982-2.248-2.256c-0.69-2.024-1.334-4.139-1.848-6.352c-0.45-2.193-0.797-4.493-1.006-6.92
			c-0.061-0.608-0.016-1.249,0.001-1.872l0.242-0.165c0.184,0.639,0.409,1.218,0.539,1.913c0.218,1.193,0.725,1.774,1.569,2.062
			l17.261,6.028c0.737,0.254,1.148,0.791,1.387,1.64c0.103,0.397,0.208,0.801,0.339,1.308c0.416-0.365,0.736-0.61,1.027-0.904
			c1.816-1.901,3.822-3.678,5.744-5.387c0.317-0.28,0.361-0.498,0.258-0.858c-0.183-0.606-0.199-1.263-0.419-1.812
			c-0.138-0.355-0.457-0.643-0.776-0.786l-9.92-4.369c-2.304-1.009-4.572-2.103-6.926-2.994c-1.26-0.475-2.029-1.45-2.31-3.147
			c-0.716-4.044-0.911-8.241-0.524-12.826c0.035-0.321,0.128-0.663,0.194-0.996l0.205-0.143c0.099,0.395,0.154,0.834,0.309,1.171
			c0.233,0.505,0.42,1.139,0.83,1.367c5.606,3.122,11.239,6.195,16.894,9.23c0.544,0.292,0.817,0.707,1.055,1.34
			c0.552,1.498,0.876,3.099,1.119,4.721c0.107,0.806,0.216,1.621,0.325,2.439c0.136,0.819,0.273,1.64,0.409,2.456
			c0.242,1.33,0.403,2.685,0.625,4.085c1.196-0.884,2.34-1.73,3.485-2.577c1.362-1.033,2.838-1.976,4.266-2.904
			c0.573-0.371,1.005-0.177,1.315,0.377c0.777,1.383,1.21,2.882,1.564,4.434c0.392,1.57,0.663,3.174,0.997,4.717
			c0.21,1.052,0.399,2.16,0.638,3.233l-0.187,0.134c-0.15-0.121-0.324-0.218-0.447-0.369c-0.571-0.702-0.848-0.533-1.609,0.114
			c-0.428,0.364-0.887,0.687-1.342,1.019c-1.392,0.98-2.638,2.063-3.975,3.112c-1.183,0.948-2.469,1.833-3.589,2.857
			c-0.823,0.726-1.615,1.53-2.435,2.307c-1.515,1.383-2.834,2.857-4.264,4.36c-0.137,0.147-0.267,0.325-0.365,0.514
			c-0.805,1.468-1.44,2.985-2.109,4.532C34.593,129.909,34.538,130.478,34.375,131.176z"/>
		<path class="st0" d="M91.541,58.017c-5.268-8.183-10.662-16.267-16.073-24.337c-1.083-1.617-1.305-3.367-0.294-5.717
			c0.889-2.127,1.926-4.195,3.142-6.242c1.204-2.067,2.559-4.157,4.203-6.119c0.26-0.319,0.578-0.626,1.069-0.954
			c-0.033,0.208-0.011,0.414-0.109,0.624c-0.257,0.553-0.466,1.123-0.865,1.655c-1.255,1.679-0.939,2.916-0.3,4.094l11.631,21.396
			l1.982,3.635c0.348,0.63,0.348,1.332,0.045,2.098c-0.622,1.568-1.249,3.11-1.919,4.617c-0.667,1.512-1.317,3.091-2.08,4.575
			C91.842,57.602,91.652,57.844,91.541,58.017z"/>
		<path class="st0" d="M105.5,17.838c-0.012,0.095,0.019,0.199-0.042,0.284c-0.666,0.929-0.326,1.668-0.045,2.44l6.449,17.834
			c0.427,1.207,0.649,2.478,0.879,3.748c0.06,0.336-0.174,0.789-0.378,1.156c-1.607,2.888-3.259,5.639-5.067,8.41
			c-0.255,0.379-0.575,0.727-0.886,1.118c-0.289-2.804-1.509-5.181-2.631-7.588l-6.993-15.094c-0.109-0.237-0.108-0.59,0.04-0.867
			c1.024-1.876,2.016-3.877,3.325-5.688c1.091-1.532,2.457-3.025,3.779-4.54c0.394-0.469,0.911-0.846,1.375-1.271L105.5,17.838z"/>
		<path class="st1" d="M162.864,38.478c-0.033-0.121-0.049-0.143-0.041-0.155c0.656-1.006,0.445-1.67-0.82-2.361
			c-1.65-0.875-3.317-1.887-5.066-2.628c-0.796-0.359-1.688-0.599-2.505-0.951c-0.874-0.377-1.119-1.228-0.431-1.785
			c1.263-1.024,2.585-2.039,4.039-2.965c1.607-1.009,3.36-1.8,5.127-2.676c0.478-0.233,1.029-0.393,1.695-0.639
			c-0.133,0.392-0.3,0.651-0.289,0.91c0.024,0.55,0.628,0.843,1.206,1.078c2.439,0.966,4.431,2.239,6.467,3.591
			c0.611,0.399,1.169,0.864,1.64,1.351c0.655,0.679,0.609,1.245-0.165,1.701c-1.312,0.782-2.605,1.53-3.979,2.221
			c-1.951,1.021-3.937,1.943-5.838,2.896C163.601,38.232,163.239,38.33,162.864,38.478z"/>
		<path class="st1" d="M172.63,15.532c0.251-1.075-0.031-1.35-1.313-1.971c-1.436-0.695-2.812-1.473-4.205-2.244
			c-1.43-0.751-2.85-1.498-4.263-2.24c-0.995-0.53-1.092-0.911-0.195-1.45c1.543-0.92,3.139-1.856,4.891-2.632
			c2.076-0.864,4.334-1.598,6.589-2.358c0.372-0.119,0.818-0.199,1.418-0.294c-0.55,0.985,0.756,1.456,1.557,1.981
			c1.397,0.915,2.907,1.751,4.354,2.611c1.291,0.802,2.6,1.627,3.83,2.465c0.998,0.686,1.048,1.394,0.058,1.782
			c-1.853,0.741-3.695,1.401-5.603,2.094c-1.907,0.703-3.892,1.299-5.803,1.939C173.578,15.344,173.152,15.386,172.63,15.532z"/>
		<path class="st1" d="M166.689,25.963c0.027-0.117,0.023-0.159,0.046-0.187c0.753-0.901,0.786-0.919-0.46-1.698
			c-0.615-0.398-1.306-0.727-2.033-0.948c-2.508-0.759-4.745-2.002-7.068-3.072c0.294-0.272,0.506-0.541,0.816-0.738
			c1.846-1.194,3.718-2.209,5.726-3.252c1.347-0.688,2.85-1.258,4.291-1.792c0.727-0.282,1.343-0.215,2.049,0.226
			c1.006,0.635,2.067,1.183,3.161,1.722c1.088,0.573,2.213,1.102,3.358,1.61c1.038,0.463,1.946,1.11,2.757,1.765
			c0.231,0.198,0.103,0.711-0.081,0.982c-0.184,0.266-0.613,0.471-0.992,0.652c-3.397,1.615-6.752,3.063-10.361,4.441
			c-0.247,0.09-0.505,0.164-0.764,0.235C167.019,25.939,166.888,25.94,166.689,25.963z"/>
		<path class="st0" d="M51.642,86.312c-0.315-0.793-0.922-0.49-1.569-0.227c-0.764,0.312-1.553,0.52-2.325,0.784
			c-1.626,0.592-3.272,1.209-5.065,1.912c-0.062-0.236-0.206-0.601-0.255-1.013c-0.189-1.69-0.376-3.453-0.389-5.218
			c-0.002-1.758,0.086-3.571,0.301-5.448c0.139-1.268,0.17-1.3,1.272-1.678c1.677-0.569,3.333-1.047,4.972-1.542
			c0.789-0.248,1.602-0.518,2.424-0.732c0.74-0.199,1.155,0.041,1.157,0.804c-0.021,1.663,0.108,3.396,0.06,5.093
			c-0.035,1.821-0.217,3.633-0.232,5.483c-0.013,0.551-0.131,1.126-0.2,1.686L51.642,86.312z"/>
	</g>
	<g>
		<path class="st0" d="M42.754,170.948c-1.388-1.291-2.78-0.74-4.161-0.495l-10.678,1.887c-0.195,0.035-0.391,0.069-0.527,0.093
			c1.645,1.598,3.291,3.071,4.998,4.603c1.688,1.537,3.263,3.081,4.816,4.896l-0.055,0.232c-0.352-0.161-0.727-0.265-1.055-0.502
			c-0.632-0.458-1.01-0.196-1.305,0.382l-1.592,3.212c-0.535,1.104-1.13,2.225-1.597,3.349c-0.081,0.188-0.099,0.434-0.163,0.74
			c-0.312-0.163-0.669-0.298-0.999-0.533c-1.415-1.012-2.721-2.125-4.065-3.322c-1.338-1.199-2.653-2.502-3.818-3.973
			c-0.206-0.252-0.469-0.505-0.567-0.818c-0.102-0.325-0.142-0.84-0.027-1.066c0.559-1.091,1.115-2.15,1.708-3.197l1.868-3.105
			c0.078-0.128,0.114-0.307,0.205-0.562c-0.255,0.027-0.452,0.037-0.645,0.071l-8.054,1.405c-0.29,0.048-0.674-0.038-0.932-0.286
			c-1.405-1.343-2.785-2.788-4.061-4.287c-0.172-0.196-0.29-0.512-0.434-0.774l-0.183,0.236c0.017,0.308,0.015,0.618,0.054,0.923
			c1.194,8.338,3.132,16.571,5.757,24.576c0.269,0.797,0.516,0.762,0.904,0.63c6.777-2.292,13.54-4.625,20.357-6.796
			c1.619-0.518,3.4-0.571,5.157,0.756c2.449,1.758,4.912,3.315,7.408,4.795c0.429,0.249,0.81,0.633,1.335,1.048
			c-0.741-0.015-1.338-0.139-1.865-0.028c-1.168,0.248-2.365,0.475-3.447,0.938c-6.942,2.975-13.866,5.988-20.766,9.055
			c-0.764,0.34-1.489,0.24-2.356-0.337c-1.329-0.924-2.629-1.876-4.12-2.972c0.301,0.874,0.503,1.535,0.756,2.177
			c2.79,6.772,6.041,13.359,9.835,19.623c0.243,0.437,0.662,0.78,1.022,1.124c0.281,0.265,0.591,0.468,0.888,0.698l0.012,0.234
			c-0.442-0.128-0.883-0.203-1.328-0.4c-1.851-0.789-3.558-1.766-5.36-2.814c-1.794-1.053-3.576-2.239-5.267-3.628
			c-0.84-0.672-1.493-1.497-2.065-2.632c-3.278-6.815-6.151-13.833-8.443-21.049c-1.249-4.129-2.467-8.273-3.366-12.496
			c-1.629-7.606-2.831-15.327-3.182-23.087c-0.194-2.233-0.326-4.305-1.128-6.216c-0.049-0.122-0.068-0.278-0.013-0.585
			c0.352,0.436,0.745,0.802,1.05,1.309c0.894,1.467,1.73,2.922,2.665,4.349c0.944,1.427,1.889,2.828,2.841,4.193
			c0.19,0.273,0.506,0.502,0.743,0.482c7.41-0.63,14.82-1.27,22.224-1.985c1.304-0.125,2.398,0.319,3.4,1.342
			c2.531,2.424,4.79,4.882,7.116,7.517c0.218,0.256,0.398,0.558,0.596,0.836L42.754,170.948z"/>
		<path class="st0" d="M73.792,277.952c1.37-0.44,0.428-1.638-0.041-2.604c-0.762-1.577-1.526-3.159-2.291-4.743
			c-0.725-1.602-1.408-3.223-2.073-4.811c-1.311-3.048-1.759-6.13-2.553-9.145c-0.522-1.897-1.234-3.93-1.696-5.869
			c-0.138-0.584-0.113-1.257,0.155-1.642c0.919-1.319,2.171-2.201,4.077-2.475c1.153-0.166,2.316-0.258,3.482-0.297
			c1.184-0.06,2.391-0.091,3.587-0.08c2.388,0.029,4.783,0.162,7.203,0.144c0.234,0.001,0.469,0.002,0.882,0.004
			c-0.361-0.276-0.565-0.431-0.769-0.587l-1.958-1.39l-1.891-1.481c-1.258-0.99-2.547-1.944-3.74-3.014l-2.055-1.678
			c-0.78-0.655-0.775-0.664-1.286-0.1l-9.52,10.527c-1.952,2.163-3.8,4.419-5.879,6.466c-0.526,0.52-1.67,0.584-2.655,0.427
			c-1.825-0.284-3.694-0.671-5.602-1.173c-1.903-0.507-3.767-1.209-5.708-1.999c-0.771-0.32-1.437-0.772-2.089-1.488
			c-2.396-2.85-4.845-5.651-7.077-8.631c-2.006-2.488-3.712-5.203-6.122-7.44c0.446,0.123,0.886,0.185,1.336,0.373
			c1.803,0.754,3.591,1.529,5.364,2.351c1.814,0.791,3.643,1.606,5.447,2.502c1.389,0.713,2.567,1.839,3.719,3.007
			c1.085,1.095,2.052,2.327,3.076,3.49c0.599,0.668,0.907,0.756,1.332,0.352l9.872-9.226c1.814-1.69,3.607-3.402,5.453-5.058
			c0.811-0.729,1.664-1.434,2.619-1.979c0.457-0.26,1.189-0.222,1.813-0.147c3.247,0.439,6.596,0.79,9.811,1.521
			c0.424,0.078,0.847,0.218,1.27,0.328c-0.011,0.115-0.006,0.183-0.019,0.184c-1.357,0.101-2.15,0.945-2.943,1.772
			c-0.666,0.692-1.292,1.42-2.047,2.255c0.417,0.039,0.661,0.062,0.909,0.085c2.497,0.283,4.844,0.615,7.306,0.74
			c1.31,0.09,2.458,0.666,3.561,1.536c6.861,5.067,14.297,9.336,22.108,12.701c0.433,0.188,0.954,0.226,1.429,0.225
			c0.552-0.006,1.087-0.105,1.624-0.164l0.117,0.189c-0.322,0.166-0.622,0.372-0.974,0.491c-1.804,0.646-3.592,1.043-5.508,1.436
			c-1.92,0.4-3.876,0.588-5.92,0.59c-0.894,0.007-1.749-0.206-2.622-0.66l-4.461-2.548c-1.477-0.865-2.891-1.837-4.304-2.795
			c-1.345-0.895-2.396-0.978-3.566-0.781c-1.091,0.171-2.211,0.365-3.187,0.75c-1.511,0.597-2.623,1.585-2.72,3.29
			c-0.012,0.21,0.094,0.462,0.178,0.694c0.383,1.049,0.864,2.11,1.185,3.171c0.6,2.077,1.246,4.041,1.924,6.087
			c0.139,0.412,0.182,0.824,0.348,1.237c0.786,2.033,1.68,3.974,2.669,5.953c0.575,1.151,1.181,2.311,1.807,3.474l1.988,3.387
			c0.187,0.317,0.311,0.642,0.451,0.964c0.404,0.93,0.357,1.24-0.675,1.399c-1.748,0.266-3.561,0.503-5.459,0.545
			c-2.385-0.004-4.891-0.196-7.41-0.371C74.66,278.204,74.222,278.047,73.792,277.952z"/>
		<path class="st0" d="M143.121,269.276c-0.366,0.326-0.6,0.589-0.906,0.792c-1.412,0.948-2.88,1.835-4.427,2.581
			c-1.548,0.766-3.188,1.502-4.931,2.096c-0.433,0.135-0.972,0.172-1.473,0.151c-0.417-0.018-0.551,0.071-0.59,0.338l-0.266,1.567
			l-1.624,9.569c-0.168,1.067-0.83,1.894-2.067,2.452c-1.97,0.905-4.022,1.717-6.17,2.345c-2.147,0.629-4.442,1.29-6.816,1.593
			c-0.594,0.086-1.239,0.101-1.864,0.147l-0.185-0.225c0.622-0.237,1.188-0.535,1.864-0.702c1.163-0.287,1.697-0.829,1.915-1.694
			l4.581-17.702c0.195-0.765,0.684-1.175,1.516-1.507c0.389-0.141,0.784-0.285,1.28-0.465c-0.4-0.376-0.672-0.669-0.991-0.929
			c-2.016-1.756-3.986-3.494-5.839-5.295c-0.301-0.306-0.519-0.339-0.867-0.216c-0.579,0.205-1.245,0.31-1.773,0.573
			c-0.343,0.171-0.605,0.515-0.721,0.844l-3.535,10.247c-0.815,2.38-1.719,4.731-2.412,7.149c-0.369,1.294-1.28,2.149-2.955,2.587
			c-1.989,0.533-3.997,0.857-6.124,1.157c-1.06,0.14-2.144,0.257-3.252,0.341c-1.092,0.047-2.209,0.063-3.352,0.043
			c-0.324-0.006-0.675-0.065-1.014-0.101l-0.161-0.19c0.388-0.134,0.823-0.229,1.147-0.415c0.486-0.277,1.106-0.522,1.299-0.948
			c2.65-5.844,5.249-11.711,7.808-17.597c0.245-0.563,0.643-0.885,1.245-1.154c2.85-1.242,6.282-1.843,9.411-2.593
			c1.311-0.368,2.655-0.659,4.038-1.016c-0.986-1.101-1.929-2.154-2.873-3.207l-3.241-4.024c-0.421-0.531-0.263-0.977,0.265-1.337
			c2.644-1.815,5.859-2.305,8.917-3.339c1.043-0.333,2.118-0.574,3.155-0.86l0.149,0.174c-0.109,0.161-0.191,0.343-0.331,0.478
			c-0.645,0.604-0.465,0.903,0.25,1.581c0.401,0.388,0.763,0.81,1.134,1.227c1.116,1.217,2.248,2.555,3.424,3.725
			c1.046,1.087,2.05,2.228,3.146,3.338c0.78,0.815,1.661,1.467,2.505,2.218c1.52,1.304,3.065,2.7,4.697,3.9
			c0.159,0.121,0.347,0.232,0.544,0.31c1.542,0.581,3.082,1.302,4.69,1.752C141.837,269.189,142.41,269.186,143.121,269.276z"/>
		<path class="st0" d="M65.536,218.328c-7.727,5.92-15.341,11.956-22.942,18.009c-1.523,1.212-3.257,1.582-5.703,0.783
			c-4.277-1.501-8.662-3.401-12.901-6.315c-0.343-0.23-0.679-0.519-1.052-0.977c0.211,0.015,0.415-0.025,0.635,0.054
			c0.577,0.208,1.166,0.366,1.736,0.715c1.795,1.1,3.007,0.68,4.127-0.052l20.37-13.347l3.46-2.273
			c0.599-0.398,1.289-0.45,2.057-0.197c1.568,0.522,3.219,0.979,4.78,1.521c1.561,0.543,3.119,1.111,4.714,1.711
			C65.091,218.066,65.352,218.232,65.536,218.328z"/>
		<path class="st0" d="M24.343,207.718c0.096,0.004,0.197-0.036,0.288,0.017c0.993,0.582,1.701,0.182,2.447-0.162l17.241-7.899
			c1.166-0.525,2.423-0.855,3.666-1.186c0.328-0.087,0.786,0.116,1.158,0.293c1.438,0.714,3.003,1.365,4.446,2.096
			c1.461,0.722,2.871,1.491,4.349,2.266c0.405,0.22,0.784,0.507,1.207,0.781c-2.785,0.526-5.052,1.936-7.359,3.253l-14.468,8.211
			c-0.228,0.128-0.581,0.157-0.872,0.035c-2.024-0.828-3.98-1.714-5.926-2.853c-1.627-0.955-3.294-2.16-4.831-3.392
			c-0.474-0.367-0.923-0.836-1.385-1.263L24.343,207.718z"/>
		<path class="st1" d="M40.207,148.874c-0.119,0.043-0.141,0.06-0.153,0.053c-1.037-0.573-1.691-0.309-2.323,1.01
			c-0.752,1.717-1.478,3.46-2.186,5.266c-0.34,0.825-0.481,1.731-0.745,2.571c-0.286,0.9-1.108,1.212-1.735,0.573
			c-1.167-1.173-2.295-2.407-3.265-3.785c-1.09-1.522-2.141-3.204-3.125-4.894c-0.257-0.458-0.444-0.993-0.724-1.637
			c0.399,0.1,0.666,0.247,0.924,0.215c0.549-0.068,0.821-0.694,0.982-1.29c0.35-1.256,0.783-2.409,1.322-3.511
			c0.574-1.081,1.142-2.15,1.716-3.23c0.334-0.643,0.739-1.239,1.176-1.749c0.607-0.711,1.174-0.711,1.706,0.024
			c0.901,1.246,1.804,2.479,2.593,3.792c1.071,1.855,2.238,3.768,3.375,5.59C39.927,148.159,40.043,148.511,40.207,148.874z"/>
		<path class="st1" d="M16.563,141.006c-1.089-0.162-1.35,0.141-1.903,1.466c-0.605,1.486-1.2,2.921-1.842,4.37
			c-0.619,1.479-1.359,2.951-1.938,4.426c-0.429,1.034-0.799,1.161-1.424,0.311c-1.105-1.461-2.065-2.974-2.971-4.656
			c-1.047-1.996-2.067-4.185-2.908-6.364c-0.146-0.361-0.228-0.796-0.391-1.387c1.033,0.467,1.373-0.872,1.817-1.714
			c0.386-0.734,0.75-1.494,1.106-2.26l1.164-2.286c0.701-1.351,1.37-2.728,2.089-4.024c0.58-1.054,1.309-1.157,1.764-0.205
			c0.902,1.786,1.788,3.576,2.596,5.415c0.793,1.843,1.609,3.74,2.418,5.62C16.3,140.077,16.398,140.499,16.563,141.006z"/>
		<path class="st1" d="M27.427,146.074c-0.119-0.018-0.16-0.01-0.19-0.031c-0.972-0.678-0.993-0.709-1.642,0.597
			c-0.32,0.646-0.604,1.362-0.797,2.104c-0.68,2.561-1.472,4.888-2.511,7.294c-0.286-0.271-0.566-0.461-0.778-0.755
			c-1.257-1.747-2.558-3.527-3.741-5.443c-0.753-1.286-1.394-2.736-2.095-4.129c-0.353-0.701-0.348-1.321,0.021-2.06
			c1.106-2.106,2.018-4.399,2.787-6.767c0.362-1.073,1.003-2.023,1.597-2.884c0.174-0.247,0.696-0.162,0.983,0
			c0.289,0.163,0.516,0.571,0.717,0.934c0.896,1.616,1.797,3.241,2.713,4.892c0.916,1.652,1.66,3.323,2.528,5.067
			c0.114,0.239,0.215,0.491,0.311,0.743C27.369,145.747,27.383,145.877,27.427,146.074z"/>
		<path class="st0" d="M96.979,255.795c-0.768,0.386-0.412,0.958-0.093,1.574c0.377,0.729,0.657,1.483,0.983,2.232
			c0.691,1.64,1.451,3.208,2.312,4.909c-0.232,0.084-0.584,0.261-0.993,0.348c-1.695,0.382-3.398,0.636-5.156,0.792
			c-1.753,0.148-3.608,0.287-5.464,0.167c-1.253-0.074-1.298-0.084-1.77-1.144c-0.705-1.624-1.358-3.168-1.952-4.814
			c-0.304-0.784-0.614-1.584-0.919-2.371c-0.264-0.714-0.059-1.146,0.706-1.218c1.67-0.15,3.341-0.299,5.056-0.453
			c1.827-0.131,3.675-0.146,5.476-0.204c0.551-0.035,1.14,0.025,1.707,0.041L96.979,255.795z"/>
	</g>
	<g>
		<path class="st0" d="M181.553,257.856c-1.168,1.521-0.513,2.858-0.161,4.217l2.711,10.499c0.05,0.192,0.099,0.384,0.134,0.518
			c1.453-1.808,2.777-3.621,4.198-5.354c1.409-1.775,2.777-3.613,4.507-5.185l0.237,0.043c-0.136,0.357-0.212,0.732-0.426,1.069
			c-0.413,0.648-0.121,1.009,0.482,1.273c1.104,0.497,2.213,0.91,3.325,1.335c1.155,0.439,2.302,0.875,3.457,1.314
			c0.196,0.071,0.444,0.075,0.758,0.123c-0.141,0.317-0.251,0.677-0.462,1.015c-0.913,1.456-1.892,2.917-2.975,4.364
			c-1.108,1.38-2.321,2.747-3.675,4.084c-0.233,0.23-0.463,0.519-0.765,0.647c-0.314,0.134-0.82,0.227-1.058,0.117
			c-2.274-0.986-4.443-2.034-6.565-3.082c-0.133-0.066-0.314-0.084-0.573-0.15c0.047,0.252,0.072,0.449,0.121,0.639l2.026,7.921
			c0.07,0.286,0.016,0.68-0.214,0.946c-1.241,1.458-2.586,2.904-3.968,4.355c-0.182,0.191-0.486,0.34-0.735,0.509l0.249,0.16
			c0.304-0.047,0.613-0.075,0.912-0.144c8.224-1.828,16.305-4.351,24.068-7.63c0.784-0.305,0.721-0.567,0.562-0.94
			c-2.812-6.578-5.664-13.138-8.361-19.767c-0.642-1.574-0.839-3.356,0.331-5.25c1.599-2.504,2.917-5.166,4.215-7.743
			c0.217-0.443,0.591-0.814,0.957-1.383c0.05,0.754-0.038,1.339,0.113,1.854c0.334,1.138,0.649,2.306,1.194,3.349
			c3.504,6.688,7.045,13.358,10.64,20c0.398,0.736,0.35,1.457-0.169,2.345c-0.837,1.41-1.673,2.817-2.612,4.397
			c0.84-0.383,1.478-0.646,2.092-0.96c6.57-3.241,12.844-7.066,18.783-11.34c0.407-0.291,0.731-0.714,1.052-1.091
			c0.248-0.292,0.432-0.61,0.644-0.916l0.235-0.025c-0.099,0.443-0.144,0.882-0.312,1.332c-0.69,1.843-1.47,3.707-2.371,5.589
			c-0.93,1.84-2.007,3.66-3.222,5.512c-0.591,0.909-1.355,1.636-2.468,2.252c-6.488,3.887-13.335,7.158-20.33,10.029
			c-3.988,1.648-8.065,3.073-12.182,4.37c-7.448,2.286-15.094,3.891-22.795,4.945c-2.226,0.257-4.268,0.735-6.12,1.633
			c-0.119,0.056-0.273,0.083-0.585,0.045c0.409-0.376,0.745-0.783,1.229-1.122c2.787-2.075,5.535-4.004,8.102-6.179
			c0.257-0.217,0.46-0.555,0.422-0.79c-1.201-7.34-2.411-14.679-3.695-22.004c-0.225-1.287,0.129-2.436,1.068-3.528
			c2.255-2.541,4.469-5.248,6.953-7.608c0.236-0.244,0.52-0.456,0.781-0.681L181.553,257.856z"/>
		<path class="st0" d="M285.833,218.616c-0.558-1.34-1.659-0.295-2.573,0.254c-2.977,1.838-6.164,3.499-9.161,5.11
			c-3.054,1.469-5.961,2.241-8.941,3.241c-1.916,0.622-3.835,1.527-5.712,2.15c-0.559,0.192-1.241,0.213-1.649-0.029
			c-1.393-0.82-2.341-1.98-2.79-3.88c-0.537-2.293-0.766-4.639-0.907-7.011c-0.205-2.414-0.268-4.82-0.412-7.193
			c-0.021-0.236-0.041-0.472-0.077-0.887c-0.239,0.386-0.374,0.604-0.508,0.822l-2.581,4.049c-0.849,1.358-1.83,2.627-2.731,3.95
			c-0.512,0.72-0.954,1.492-1.508,2.182c-0.619,0.809-0.628,0.805-0.026,1.27l11.228,8.682c2.307,1.78,4.702,3.451,6.898,5.364
			c0.55,0.477,0.707,1.618,0.639,2.623c-0.201,3.753-1.011,7.534-2.263,11.547c-0.273,0.78-0.689,1.465-1.368,2.155
			c-2.566,2.697-5.298,5.224-8.017,7.763c-1.186,1.066-2.431,2.073-3.604,3.165c-1.173,1.094-2.299,2.243-3.369,3.475
			c0.094-0.447,0.126-0.885,0.285-1.34c0.645-1.815,1.227-3.721,1.903-5.559c0.687-1.839,1.382-3.7,2.092-5.602
			c0.567-1.477,1.636-2.702,2.738-3.913c0.998-1.176,2.106-2.279,3.207-3.371c0.638-0.633,0.707-0.942,0.271-1.335l-9.958-9.135
			c-1.825-1.679-3.67-3.336-5.462-5.048c-0.788-0.752-1.555-1.547-2.166-2.452c-0.286-0.428-0.302-1.159-0.288-1.798
			c0.108-3.341,0.34-6.589,0.721-9.933c0.054-0.421,0.173-0.845,0.261-1.268c0.117,0.004,0.186-0.006,0.188,0.007
			c0.179,1.326,1.082,2.051,1.967,2.777c0.74,0.61,1.515,1.179,2.406,1.867c0.015-0.412,0.024-0.653,0.034-0.899
			c0.178-2.446,0.135-4.95,0.191-7.329c0.016-1.293,0.445-2.52,1.212-3.696c2.318-3.579,4.298-7.359,6.198-11.167
			c1.765-3.873,3.444-7.788,4.766-11.832c0.148-0.448,0.119-0.979,0.091-1.45c-0.033-0.545-0.158-1.065-0.244-1.592l0.185-0.129
			c0.183,0.305,0.405,0.587,0.543,0.925c0.696,1.719,1.36,3.514,1.892,5.39c0.468,1.853,0.833,3.797,1.045,5.855
			c0.093,0.897-0.107,1.744-0.51,2.64c-1.385,3.127-2.874,6.224-4.614,9.164c-0.858,1.371-0.78,2.471-0.496,3.619
			c0.276,1.087,0.561,2.191,0.993,3.118c0.689,1.446,1.753,2.474,3.484,2.454c0.213-0.003,0.462-0.123,0.692-0.223
			c1.054-0.44,2.019-1.034,3.05-1.438c1.949-0.802,4.001-1.518,5.942-2.377c0.395-0.173,0.797-0.25,1.191-0.451
			c1.893-0.978,3.867-1.967,5.748-3.114c2.16-1.347,4.385-2.802,6.549-4.317c0.296-0.214,0.607-0.364,0.913-0.531
			c0.883-0.481,1.194-0.459,1.447,0.564c0.454,1.745,0.756,3.502,0.928,5.384c0.214,2.395,0.274,4.936,0.208,7.42
			C285.996,217.719,285.892,218.179,285.833,218.616z"/>
		<path class="st0" d="M271.87,150.163c0.343,0.34,0.618,0.553,0.836,0.843c1.989,2.669,3.969,5.594,5.33,8.974
			c0.178,0.422,0.269,0.958,0.298,1.461c0.024,0.418,0.126,0.545,0.395,0.564l1.583,0.144l9.666,0.88
			c1.069,0.085,1.979,0.683,2.623,1.871c1.99,3.772,3.821,7.925,4.896,12.631c0.143,0.587,0.219,1.231,0.325,1.852l-0.205,0.203
			c-0.295-0.603-0.645-1.145-0.875-1.809c-0.396-1.141-0.986-1.632-1.865-1.782l-18.004-3.191c-0.768-0.133-1.255-0.596-1.619-1.395
			c-0.161-0.375-0.325-0.756-0.531-1.235c-0.357,0.426-0.638,0.718-0.883,1.055l-2.336,3.188c-0.809,1.04-1.66,2.052-2.486,3.046
			c-0.273,0.326-0.284,0.547-0.128,0.886c0.26,0.564,0.43,1.223,0.743,1.731c0.205,0.331,0.568,0.565,0.903,0.654l10.49,2.726
			c2.436,0.627,4.848,1.345,7.316,1.848c1.32,0.268,2.229,1.105,2.762,2.731c0.628,1.926,1.211,3.932,1.674,6.03
			c0.402,2.078,0.707,4.255,0.88,6.551c0.025,0.326-0.002,0.682-0.006,1.025l-0.173,0.176c-0.169-0.378-0.303-0.806-0.517-1.117
			c-0.32-0.465-0.619-1.066-1.06-1.226c-6.033-2.187-12.085-4.322-18.151-6.415c-0.581-0.2-0.937-0.574-1.261-1.156
			c-0.771-1.386-1.33-2.909-1.811-4.465c-0.505-1.557-1.022-3.151-1.532-4.722c-0.446-1.272-0.767-2.57-1.285-3.934
			c-0.965,1.107-2.03,2.105-3.019,3.102c-1.248,1.217-2.409,2.427-3.731,3.552c-0.515,0.455-0.973,0.333-1.362-0.163
			c-1.876-2.451-2.871-5.694-3.978-8.616c-0.435-1.02-0.783-2.079-1.172-3.096l0.166-0.161c0.167,0.095,0.354,0.163,0.498,0.292
			c0.67,0.601,0.92,0.389,1.58-0.367c0.371-0.426,0.78-0.817,1.182-1.217c1.138-1.239,2.28-2.483,3.411-3.714
			c1.073-1.116,2.076-2.216,3.066-3.4c0.707-0.848,1.372-1.767,2.068-2.666c1.197-1.617,2.332-3.279,3.508-4.992
			c0.114-0.167,0.215-0.363,0.284-0.566c0.505-1.582,0.928-3.182,1.353-4.817C271.846,151.45,271.815,150.879,271.87,150.163z"/>
		<path class="st0" d="M227.053,231.47c6.499,7.251,13.101,14.378,19.72,21.49c1.328,1.428,1.848,3.148,1.192,5.594
			c-0.589,2.183-1.222,4.465-2.102,6.669c-0.885,2.199-1.901,4.464-3.171,6.711c-0.208,0.352-0.476,0.701-0.913,1.097
			c0-0.209-0.054-0.408,0.011-0.63c0.169-0.582,0.289-1.171,0.6-1.756c0.938-1.898,0.424-3.078-0.393-4.138l-14.877-19.281
			l-2.533-3.274c-0.443-0.567-0.552-1.256-0.367-2.052c0.798-3.214,1.472-6.522,2.527-9.677
			C226.838,231.946,226.973,231.662,227.053,231.47z"/>
		<path class="st0" d="M219.654,273.37c-0.004-0.097-0.051-0.194-0.006-0.29c0.494-1.05,0.041-1.724-0.359-2.441l-9.212-16.577
			c-0.613-1.122-1.042-2.354-1.472-3.572c-0.113-0.321,0.05-0.801,0.195-1.192c1.173-3.032,2.293-6.135,3.691-9.079
			c0.216-0.399,0.444-0.819,0.685-1.266c0.751,2.755,2.33,4.901,3.822,7.101l9.304,13.79c0.146,0.217,0.2,0.564,0.096,0.857
			c-0.713,2.015-1.426,4.063-2.387,6.128c-0.806,1.728-1.954,3.355-3.02,5.056c-0.324,0.509-0.751,1.003-1.136,1.506L219.654,273.37
			z"/>
		<path class="st1" d="M159.766,262.083c0.052,0.114,0.071,0.134,0.065,0.147c-0.491,1.093-0.178,1.717,1.18,2.21
			c1.771,0.649,3.57,1.322,5.412,1.798c0.842,0.235,1.76,0.338,2.622,0.563c0.922,0.241,1.297,1.044,0.706,1.699
			c-1.086,1.201-2.232,2.403-3.522,3.537c-1.423,1.295-3.035,2.314-4.642,3.453c-0.436,0.302-0.955,0.544-1.575,0.888
			c0.07-0.408,0.195-0.689,0.143-0.943c-0.11-0.54-0.753-0.747-1.358-0.848c-2.562-0.566-4.731-1.586-6.957-2.531
			c-0.667-0.302-1.292-0.678-1.834-1.089c-0.755-0.572-0.799-1.139-0.106-1.707c1.174-0.975,2.335-1.886,3.584-2.837
			c1.768-1.319,3.592-2.477,5.319-3.776C159.077,262.436,159.418,262.285,159.766,262.083z"/>
		<path class="st1" d="M153.722,286.271c-0.079,1.101,0.243,1.33,1.605,1.749c1.526,0.464,3.006,1.043,4.5,1.568
			c1.522,0.493,3.04,1.012,4.561,1.544c1.067,0.373,1.222,0.735,0.42,1.403c-1.38,1.148-2.811,2.298-4.419,3.356
			c-1.91,1.215-4.022,2.249-6.124,3.354c-0.348,0.181-0.775,0.305-1.351,0.525c0.387-1.066-0.973-1.282-1.844-1.698
			c-1.52-0.692-3.138-1.29-4.7-1.92c-1.4-0.537-2.82-1.159-4.165-1.805c-1.092-0.528-1.253-1.22-0.339-1.754
			c1.709-0.978,3.434-1.965,5.192-2.971c1.769-0.986,3.632-1.868,5.415-2.801C152.817,286.625,153.23,286.485,153.722,286.271z"/>
		<path class="st1" d="M157.95,275.063c-0.009,0.12,0.003,0.16-0.016,0.191c-0.603,1.004-0.632,1.027,0.721,1.609
			c0.669,0.278,1.402,0.471,2.155,0.594c2.6,0.403,4.997,1.217,7.463,1.931c-0.248,0.313-0.415,0.611-0.691,0.852
			c-1.637,1.476-3.322,2.798-5.145,4.115c-1.224,0.859-2.617,1.706-3.955,2.457c-0.673,0.389-1.292,0.416-2.057,0.086
			c-2.184-0.933-4.537-1.561-6.955-2.264c-1.097-0.298-2.094-0.808-2.999-1.323c-0.26-0.148-0.215-0.676-0.076-0.978
			c0.14-0.303,0.53-0.571,0.876-0.806c1.548-1.052,3.093-2.079,4.67-3.05c1.577-1.008,3.185-2.038,4.86-2.947
			c0.23-0.126,0.473-0.239,0.718-0.347C157.628,275.137,157.757,275.116,157.95,275.063z"/>
		<path class="st0" d="M261.978,197.231c0.431,0.73,0.989,0.338,1.594-0.021c0.691-0.435,1.404-0.779,2.115-1.166
			c1.529-0.836,3.075-1.7,4.751-2.673c0.098,0.223,0.294,0.558,0.404,0.955c0.896,3.271,1.678,6.769,1.749,10.502
			c0.043,1.264,0.037,1.311-0.967,1.871c-1.52,0.851-3.143,1.554-4.686,2.301c-0.747,0.37-1.508,0.747-2.258,1.118
			c-0.681,0.324-1.127,0.153-1.268-0.61c-0.311-1.681-0.645-3.335-0.862-5.016c-0.217-1.789-0.439-3.628-0.661-5.457
			c-0.068-0.543-0.035-1.126-0.05-1.686L261.978,197.231z"/>
	</g>
	<g>
		<path class="st2" d="M203.739,39.841c0,0-0.171-4.761-0.655-9.662c-0.496-4.786-1.312-9.694-1.312-9.694s1.409,0.322,2.818,0.644
			c0.708,0.163,1.415,0.327,1.946,0.449c0.524,0.142,0.873,0.237,0.873,0.237l0.302-0.703c0,0-0.88-0.405-2.237-0.923
			c-1.352-0.53-3.155-1.238-4.957-1.945c-1.834-0.621-3.669-1.243-5.044-1.709c-1.371-0.482-2.308-0.729-2.308-0.729l-0.222,0.732
			c0,0,1.038,0.509,2.043,1.098c1.008,0.57,2.015,1.139,2.015,1.139s1.325,6.187,2.022,12.435c0.792,6.16,0.968,12.317,0.968,12.317
			l1.186,0.536c0,0,1.223-0.95,3.057-2.376c1.848-1.389,4.351-3.16,6.969-4.903c2.62-1.759,5.316-3.416,7.357-4.584
			c2.076-1.175,3.461-1.958,3.461-1.958s1.107,0.357,2.214,0.714c1.1,0.375,2.182,0.798,2.182,0.798l0.387-0.618
			c0,0-0.668-0.426-1.67-1.065c-1.03-0.593-2.404-1.384-3.777-2.175c-1.364-0.808-2.757-1.565-3.825-2.088
			c-1.058-0.542-1.764-0.904-1.764-0.904l-0.33,0.651c0,0,1.116,0.817,2.232,1.633c1.125,0.792,2.182,1.689,2.182,1.689
			s-1.051,0.63-2.628,1.575c-1.582,0.989-3.656,2.329-5.668,3.7c-2.018,1.373-3.968,2.763-5.413,3.841
			C204.7,39.102,203.739,39.841,203.739,39.841z"/>
		<path class="st2" d="M216.894,52.451c0,0,0.297,0.19,0.817,0.521c0.503,0.357,1.222,0.866,2.084,1.477
			c0.856,0.62,1.879,1.31,2.934,2.106c1.039,0.817,2.147,1.688,3.255,2.56c1.133,0.842,2.149,1.824,3.163,2.672
			c0.993,0.872,1.953,1.649,2.698,2.401c1.531,1.459,2.551,2.432,2.551,2.432l5.208-4.69l-0.794-0.756c0,0-1.533,0.508-3.066,1.016
			c-1.507,0.531-3.015,1.063-3.015,1.063s-0.121-0.116-0.332-0.318c-0.209-0.205-0.512-0.493-0.897-0.814
			c-0.758-0.656-1.769-1.531-2.78-2.407c-0.991-0.899-2.064-1.7-2.849-2.323c-0.788-0.62-1.314-1.033-1.314-1.033l6.283-8.15
			c0,0,1.371,1.077,2.741,2.154c0.697,0.524,1.338,1.117,1.836,1.539c0.494,0.428,0.824,0.713,0.824,0.713l-0.972,3.713l0.8,0.692
			l5.441-6.05l-0.851-0.738l-3.602,1.434c0,0-0.333-0.288-0.832-0.72c-0.503-0.427-1.15-1.025-1.854-1.554
			c-1.384-1.088-2.768-2.175-2.768-2.175l5.603-7.269c0,0,0.609,0.479,1.523,1.197c0.909,0.724,2.15,1.655,3.303,2.691
			c1.171,1.015,2.342,2.03,3.22,2.791c0.889,0.749,1.43,1.306,1.43,1.306s-0.345,1.303-0.69,2.607
			c-0.361,1.289-0.722,2.578-0.722,2.578l0.972,0.927l4.203-4.303c0,0-1.205-1.149-3.013-2.872
			c-0.888-0.879-2.027-1.792-3.195-2.827c-1.189-1.011-2.414-2.142-3.744-3.146c-1.31-1.028-2.619-2.057-3.847-3.021
			c-1.252-0.932-2.452-1.76-3.466-2.489c-1.021-0.72-1.871-1.32-2.467-1.739c-0.613-0.394-0.963-0.62-0.963-0.62l-0.422,0.638
			c0,0,0.967,0.849,1.867,1.782c0.909,0.912,1.819,1.825,1.819,1.825l-11.654,16.286c0,0-1.006-0.45-2.013-0.9
			c-0.99-0.468-2.031-0.845-2.031-0.845L216.894,52.451z"/>
		<path class="st2" d="M241.761,72.064c0,0-0.87-0.675-1.74-1.349c-0.902-0.634-1.805-1.269-1.805-1.269l-0.558,0.524
			c0,0,0.556,0.582,1.391,1.454c0.79,0.913,1.843,2.13,2.897,3.347c1.087,1.189,2.01,2.513,2.778,3.444
			c0.747,0.948,1.245,1.58,1.245,1.58l0.611-0.46l-2.07-4.039l7.201-5.858l1.094,1.392c1.359,1.749,1.628,3.035,1.159,4.643
			c0,0-0.646,2.377-1.35,4.671c-0.36,1.136-0.719,2.272-0.989,3.124c-0.302,0.853-0.503,1.421-0.503,1.421
			c-0.565,1.632-0.38,2.889,0.687,4.546c0.961,1.564,1.998,2.828,2.522,3.361l0.666-0.377c-1.001-1.725-1.226-2.794-0.698-4.189
			c0,0,0.64-1.769,1.281-3.538c0.61-1.818,1.221-3.636,1.221-3.636c0.955-3.008-0.404-5.468-1.16-6.926
			c2.507,2.806,4.674,4.481,6.457,5.334c1.82,0.825,3.383,0.735,4.668-0.063c3.659-2.215,2.12-7.709-2.72-14.098
			c0,0-0.562-0.716-1.405-1.79c-0.849-1.069-1.945-2.524-3.162-3.879c-1.194-1.374-2.388-2.747-3.284-3.777
			c-0.941-0.989-1.568-1.649-1.568-1.649l-0.558,0.524c0,0,0.715,1.071,1.429,2.143c0.669,1.102,1.338,2.204,1.338,2.204
			L241.761,72.064z M260.207,62.527c0.835,0.835,1.937,2.01,2.862,3.189c3.129,4.162,3.461,7.559,1.076,9.141
			c-2.778,1.841-6.378,0.431-9.219-3.298l-2.27-2.889L260.207,62.527z"/>
		<path class="st2" d="M255.443,94.547c0,0,0.375,0.734,0.936,1.834c0.538,1.112,1.37,2.54,2.016,4.056
			c0.679,1.501,1.359,3.002,1.868,4.127c0.452,1.15,0.753,1.916,0.753,1.916c1.361,3.279,2.854,5.638,4.575,7.055
			c1.744,1.403,3.484,1.93,5.226,1.415c3.948-1.126,3.845-6.339,2.345-10.841c2.608,4.355,5.508,6.586,8.102,5.792
			c2.027-0.627,2.846-2.418,2.923-4.74c0.027-1.155-0.081-2.456-0.401-3.76c-0.324-1.302-0.773-2.638-1.279-3.918
			c0,0-0.362-0.898-0.904-2.246c-0.598-1.324-1.395-3.088-2.193-4.853c-0.781-1.773-1.732-3.463-2.373-4.766
			c-0.664-1.292-1.106-2.153-1.106-2.153l-0.673,0.364l1.548,4.924l-17.952,8.874l-2.739-3.445L255.443,94.547z M270.767,96.913
			l8.368-3.769c0.572,0.972,1.498,2.614,2.055,4.123c0.808,2.042,1.069,3.753,0.771,5.064c-0.314,1.32-1.217,2.251-2.62,2.748
			c-2.984,1.035-5.533-0.916-7.104-4.834c0,0-0.331-0.849-0.72-1.672C271.142,97.743,270.767,96.913,270.767,96.913z
			 M268.917,110.387c-3.138,1.048-5.338-0.604-7.366-5.588c-0.477-1.226-0.899-2.282-1.12-3.23l9.225-4.155
			c0,0,0.346,0.766,0.692,1.531c0.354,0.762,0.674,1.539,0.674,1.539c1.022,2.627,1.407,4.817,1.014,6.502
			C271.633,108.679,270.579,109.821,268.917,110.387z"/>
		<path class="st2" d="M268.02,135.401c0.356,2.417,0.83,4.522,1.566,6.336c0.368,0.906,0.819,1.738,1.29,2.501
			c0.449,0.764,0.957,1.457,1.517,2.078c2.24,2.478,5.302,3.841,8.691,3.846c3.459,0.004,6.473-1.224,8.579-4.06
			c1.052-1.415,1.908-3.229,2.306-5.45c0.423-2.219,0.617-4.858,0.181-7.861c-0.187-1.463-0.441-2.828-0.768-4.086
			c-0.381-1.25-0.821-2.395-1.311-3.432c-0.965-2.077-2.167-3.712-3.582-4.893c-2.774-2.382-6.016-3.008-9.299-2.165
			c-3.351,0.859-6.04,2.78-7.629,5.612c-0.397,0.709-0.724,1.477-0.974,2.304c-0.279,0.833-0.504,1.731-0.637,2.689
			c-0.136,0.959-0.19,1.981-0.153,3.07C267.823,132.984,267.85,134.158,268.02,135.401z M269.272,135.882
			c-0.368-3.374,0.033-6.136,1.505-8.329c1.505-2.19,3.923-3.784,7.514-4.561c3.082-0.666,6.017-0.265,8.232,1.299
			c2.214,1.554,3.957,4.235,4.358,7.898c0.578,3.992-0.196,7.27-1.84,9.5c-1.634,2.24-4.446,3.447-8.083,3.577
			C274.644,145.432,269.989,141.961,269.272,135.882z"/>
	</g>
</g>
</svg>
