<?xml version="1.0" encoding="utf-8"?>
<!-- Generator: Adobe Illustrator 17.0.0, SVG Export Plug-In . SVG Version: 6.00 Build 0)  -->
<!DOCTYPE svg PUBLIC "-//W3C//DTD SVG 1.1//EN" "http://www.w3.org/Graphics/SVG/1.1/DTD/svg11.dtd">
<svg version="1.1" id="Capa_1" xmlns="http://www.w3.org/2000/svg" xmlns:xlink="http://www.w3.org/1999/xlink" x="0px" y="0px"
	 width="246px" height="247px" viewBox="0 0 246 247" enable-background="new 0 0 246 247" xml:space="preserve">
<g>
	<g>
		<g>
			<g>
				<g>
					<path fill="#C1C1C1" d="M13.708,97.776c0.687,0.718,1.557,0.985,2.485,1.187l12.098,2.697c0.422,0.094,0.836,0.221,1.296,0.343
						c0.025-0.109,0.055-0.239,0.085-0.369c0.509-2.372,1.235-4.687,1.904-7.015c0.257-0.758,0.636-1.481,0.7-2.357
						c0.247,0.412,0.543,0.806,0.737,1.229c0.581,1.287,1.156,2.557,1.795,3.82c0.281,0.569,0.308,1.121,0.126,1.703
						c-0.394,1.169-0.679,2.368-0.973,3.566c-0.306,1.196-0.594,2.395-0.795,3.613c-0.144,0.777-0.223,1.569-0.273,2.357
						c-0.029,0.34,0.119,0.697,0.214,1.042c0.044,0.164,0.127,0.323,0.193,0.483l-0.13,0.061c-0.36-0.398-0.737-0.79-1.074-1.21
						c-0.354-0.452-0.691-0.911-0.968-1.403c-0.236-0.423-0.582-0.592-1.086-0.676l-10.374-1.774
						c-0.384-0.066-0.766-0.146-1.153-0.195c-0.934-0.119-1.632-0.599-2.167-1.357c-1.067-1.5-1.908-3.161-2.551-4.897
						c-0.092-0.242-0.149-0.499-0.223-0.75L13.708,97.776z"/>
					<path fill="#C1C1C1" d="M11.906,84.029c0.274,0.677,0.583,1.335,0.822,2.018l1.099,3.306c0.492,1.419,0.439,2.793-0.042,4.242
						c-0.361,0.93-1.983,7.422-2.864,14.039c-0.481,3.303-0.704,6.635-0.874,9.255c-0.079,2.625-0.136,4.542-0.151,5.041
						l0.065,4.919c0.005,0.608,0.072,1.197,0.448,1.702c0.088,0.117,0.117,0.284,0.238,0.596c-0.278-0.198-0.428-0.28-0.55-0.396
						c-1.71-1.592-3.128-3.379-4.246-5.536c-0.248-0.486-0.364-0.981-0.365-1.541c0.065-2.122,0.219-10.17,1.619-18.086
						c1.3-7.924,3.604-15.641,4.36-17.632c0.096-0.289,0.114-0.607,0.154-0.913l0.105-0.971L11.906,84.029z"/>
				</g>
				<path fill="#C1C1C1" d="M29.988,144.757c-0.802-0.22-1.448-0.133-1.975,0.323c-0.768,0.681-1.456,1.444-2.178,2.19l-2.161,2.274
					c-0.659,0.72-1.32,1.45-1.944,2.214c-1.232,1.555-2.417,3.187-3.624,4.84c-0.354,0.485-0.804,0.899-1.195,1.363
					c-0.426,0.504-0.929,0.539-1.479,0.267c-0.474-0.234-0.96-0.461-1.399-0.769c-1.313-0.929-2.659-1.904-3.929-2.945
					c-0.282-0.234-0.504-0.555-0.755-0.838l0.1-0.159c0.234,0.137,0.478,0.255,0.697,0.415c0.344,0.251,0.638,0.199,0.913-0.086
					c0.369-0.383,0.769-0.736,1.099-1.15l2.716-3.393c0.673-0.828,1.328-1.665,2.068-2.457c1.6-1.733,3.234-3.38,4.878-4.961
					c0.238-0.229,0.488-0.439,0.742-0.656c0.727-0.618,1.534-0.683,2.386-0.4c1.93,0.617,3.606,1.612,5.331,2.436
					c0.638,0.304,1.23,0.644,1.941,0.839c0.665,0.178,1.257,0.566,1.824,0.914l2.953,1.89c0.274,0.181,0.487,0.43,0.747,0.64
					l-0.069,0.128c-0.294-0.011-0.617,0.034-0.876-0.047c-0.598-0.187-0.973,0.06-1.341,0.441l-2.002,2.079
					c-0.596,0.636-1.214,1.266-1.77,1.946c-0.935,1.145-1.835,2.351-2.673,3.55c-0.113,0.16-0.249,0.308-0.364,0.449
					c-1.335-0.238-4.712-2.343-5.676-3.464c1.028-1.394,2.133-2.817,3.315-4.134C27.448,147.204,28.696,146.007,29.988,144.757z"/>
				<path fill="#C1C1C1" d="M27.937,113.091c-0.688-0.472-1.337-0.602-1.972-0.343c-0.949,0.392-1.851,0.888-2.778,1.356
					l-2.79,1.438c-0.855,0.464-1.732,0.935-2.557,1.453c-1.677,1.064-3.335,2.214-5.021,3.377c-0.495,0.342-1.056,0.584-1.579,0.893
					c-0.567,0.336-1.055,0.204-1.484-0.234c-0.369-0.377-0.754-0.75-1.067-1.184c-0.936-1.307-1.873-2.669-2.745-4.068
					c-0.189-0.313-0.294-0.689-0.436-1.038l0.146-0.117c0.175,0.207,0.367,0.399,0.521,0.621c0.243,0.349,0.537,0.396,0.891,0.218
					c0.475-0.24,0.969-0.443,1.417-0.725l3.682-2.31c0.915-0.559,1.796-1.137,2.756-1.642c2.081-1.112,4.166-2.132,6.238-3.087
					c0.299-0.138,0.608-0.254,0.914-0.377c0.888-0.346,1.668-0.143,2.387,0.404c1.623,1.216,2.876,2.706,4.234,4.051
					c0.505,0.498,0.944,1.011,1.563,1.431c0.569,0.386,1,0.948,1.42,1.463l2.164,2.758c0.195,0.261,0.332,0.568,0.503,0.851
					l-0.108,0.099c-0.274-0.107-0.593-0.171-0.811-0.333c-0.502-0.372-0.938-0.263-1.412-0.024l-2.577,1.308
					c-0.773,0.405-1.565,0.798-2.314,1.258c-1.271,0.774-2.495,1.618-3.686,2.474c-0.16,0.113-0.337,0.208-0.493,0.304
					c-1.177-0.665-3.693-3.764-4.221-5.138c1.434-0.978,2.928-1.96,4.486-2.817C24.732,114.57,26.305,113.848,27.937,113.091z"/>
				<path fill="#C1C1C1" d="M35.164,85.249c-0.503-0.65-1.084-0.969-1.774-0.914c-1.032,0.085-2.082,0.272-3.093,0.447l-3.069,0.549
					c-0.951,0.189-1.909,0.385-2.861,0.63c-1.975,0.494-3.876,1.107-5.812,1.723c-0.569,0.181-1.174,0.246-1.761,0.387
					c-0.638,0.153-1.065-0.12-1.35-0.667c-0.245-0.472-0.506-0.945-0.681-1.455c-0.545-1.543-0.996-3.108-1.386-4.697
					c-0.091-0.357-0.082-0.749-0.119-1.127l0.173-0.069c0.108,0.251,0.236,0.492,0.32,0.751c0.131,0.407,0.398,0.541,0.787,0.475
					c0.521-0.088,1.05-0.137,1.559-0.274c1.41-0.375,2.778-0.771,4.187-1.115c1.056-0.255,2.101-0.53,3.151-0.734
					c2.319-0.439,4.54-0.823,6.867-1.084c0.332-0.039,0.668-0.055,1-0.079c0.947-0.067,1.633,0.362,2.155,1.1
					c1.132,1.621,1.9,3.424,2.817,5.122c0.337,0.627,0.619,1.255,1.075,1.837c0.42,0.534,0.637,1.187,0.879,1.802l1.284,3.291
					c0.12,0.311,0.143,0.639,0.212,0.956l-0.136,0.061c-0.225-0.182-0.51-0.338-0.664-0.554c-0.356-0.5-0.809-0.529-1.342-0.445
					c-0.954,0.153-1.94,0.29-2.876,0.469c-0.852,0.158-1.718,0.299-2.562,0.517c-1.423,0.367-2.839,0.808-4.274,1.258
					c-0.19,0.06-0.391,0.097-0.57,0.141c-0.854-0.963-2.39-4.69-2.493-6.161c1.709-0.488,3.42-0.983,5.14-1.344
					C31.633,85.688,33.334,85.462,35.164,85.249z"/>
				<path fill="#C1C1C1" d="M34.584,126.143l-0.58-0.339c-0.269-0.167-0.553-0.219-0.868-0.07l-1.094,0.52
					c-1.047,0.531-2.087,1.073-3.119,1.651c-1.489,0.836-2.963,1.73-4.447,2.642c-1.723,1.05-3.346,2.127-5.004,3.269
					c-0.515,0.357-1.011,0.742-1.516,1.122l0.064,0.16l0.824-0.065l9.22-1.063c0.784-0.082,1.596-0.007,2.38,0.076
					c0.387,0.041,0.781,0.221,1.099,0.419c1.505,0.952,2.927,2.026,4.182,3.142c0.103,0.089,0.189,0.191,0.273,0.294
					c0.021,0.025-0.001,0.076-0.005,0.131c-1.328-0.226-2.67-0.148-4.029,0.085l-18.071,3.063c-0.779,0.136-1.455,0.021-2.074-0.424
					c-1.052-0.755-2.045-1.605-2.979-2.546c-0.889-0.946-1.715-1.984-2.479-3.106c-0.029-0.043-0.036-0.106-0.079-0.24
					c0.13-0.147,0.266-0.35,0.443-0.49c1.281-1.014,2.563-2.013,3.934-2.926c1.818-1.222,3.676-2.333,5.512-3.432
					c0.618-0.37,1.204-0.788,1.81-1.168l1.409-0.829l0.684-0.367c2.18-1.235,4.361-2.395,6.539-3.484
					c0.487-0.247,0.98-0.525,1.495-0.744c0.972-0.411,1.189-0.578,2.157,0.158c1.712,1.276,3.1,2.762,4.349,4.251
					c0.05,0.059,0.053,0.145,0.078,0.218L34.584,126.143z"/>
				<g>
					<path fill="#C1C1C1" d="M32.796,55.576c-0.333,0.251-2.039,2.572-3.705,4.944c-1.563,2.441-3.119,4.909-3.243,5.389
						c0.195,0.128,0.399,0.276,0.616,0.404l13.578,7.991c0.515,0.302,1.036,0.601,1.576,0.846c0.781,0.357,1.221,0.979,1.495,1.664
						c0.773,1.883,1.16,3.69,1.55,5.558c0.011,0.059-0.024,0.119-0.055,0.258c-0.149-0.173-0.28-0.287-0.353-0.419
						c-0.341-0.611-0.953-0.895-1.568-1.18c-0.446-0.207-0.898-0.401-1.334-0.628l-14.588-7.617
						c-0.116-0.06-0.225-0.152-0.347-0.174c-0.816-0.15-1.118-0.737-1.276-1.491l-0.457-2.088c-0.048-0.227-0.096-0.454-0.184-0.865
						c-0.243,0.386-0.404,0.621-0.544,0.87c-0.725,1.25-1.328,2.566-1.994,3.848c-0.671,1.28-1.276,2.593-1.846,3.921
						c-0.402,0.908-0.979,1.789-0.62,2.862l-0.166,0.023c-0.067-0.112-0.153-0.216-0.2-0.337c-0.753-1.951-1.206-4.041-1.485-6.222
						c-0.088-0.865,0.094-1.668,0.512-2.494c3.925-7.795,8.697-15.169,14.231-21.916c0.531-0.644,1.255-1.158,1.307-2.111
						l0.158,0.031c0.03,0.16,0.093,0.318,0.087,0.479c-0.066,1.516-0.094,3.02-0.094,4.548c-0.004,0.411,0.056,0.706,0.383,0.965
						l13.556,10.77c0.647,0.517,1.259,1.087,1.831,1.682c0.271,0.282,0.511,0.675,0.593,1.028c0.432,1.878,0.604,3.692,0.718,5.522
						c0.004,0.087-0.02,0.171-0.043,0.344c-0.904-1.175-2.098-1.921-3.219-2.73l-13.691-9.817c-0.382-0.273-0.522-0.621-0.611-1.042
						C33.177,57.497,32.968,56.577,32.796,55.576z"/>
					<path fill="#C1C1C1" d="M39.648,70.13c-0.432-0.144-0.782-0.324-1.141-0.366c-1.215-0.141-2.443-0.227-3.68-0.295
						c-0.709-0.039-0.735-0.034-0.904-0.683c-0.452-1.747-0.648-3.562-0.683-5.428c-0.006-0.208,0.022-0.414,0.05-0.666
						c0.312,0.011,0.594,0.008,0.872,0.034c1.218,0.116,2.429,0.231,3.622,0.413c0.826,0.126,1.022,0.37,1.191,1.183
						c0.35,1.709,0.514,3.402,0.663,5.115C39.658,69.68,39.646,69.922,39.648,70.13z"/>
				</g>
			</g>
			<g>
				<path fill="#CE9549" d="M57.782,62.704c-0.469-0.906-0.486-1.004-1.589-0.855c-1.411,0.214-2.716,0.742-4.102,1.161
					c-0.239,0.073-0.468,0.176-0.716,0.227c-0.411,0.085-0.978-0.247-1.063-0.68c-0.206-1.04-0.4-2.097-0.489-3.166
					c-0.09-1.145-0.092-2.328-0.06-3.483c0.01-0.308,0.09-0.608,0.148-0.968c0.21,0.24,0.337,0.509,0.509,0.554
					c0.299,0.079,0.679,0.124,0.925,0.008c1.293-0.604,2.682-0.819,4.049-1.102c0.406-0.078,0.839-0.088,1.261-0.059
					c0.514,0.035,0.861,0.359,0.906,0.879c0.099,1.142,0.202,2.265,0.27,3.409c0.058,1.171,0.021,2.315,0.033,3.444
					C57.866,62.289,57.81,62.494,57.782,62.704z"/>
				<path fill="#CE9549" d="M46.865,47.281c-0.459-0.9-1.052-0.596-1.666-0.399c-0.79,0.253-1.601,0.466-2.417,0.679l-2.644,0.672
					c-0.583,0.156-0.854,0.007-0.908-0.604c-0.113-1.156-0.144-2.273-0.085-3.427c0.074-1.313,0.28-2.642,0.464-3.984
					c0.031-0.224,0.127-0.444,0.225-0.774c0.394,0.742,1.006,0.389,1.513,0.306c0.93-0.167,1.842-0.431,2.75-0.658
					c0.844-0.209,1.675-0.451,2.511-0.629c0.647-0.139,1.074,0.188,1.055,0.849c-0.033,1.224-0.076,2.441-0.18,3.636
					c-0.104,1.194-0.292,2.369-0.436,3.533C47.026,46.71,46.946,46.934,46.865,47.281z"/>
				<path fill="#CE9549" d="M44.993,56.018c-0.07-0.28-0.16-0.526-0.186-0.777c-0.243-2.177-0.306-4.387,0.002-6.573
					c0.064-0.495,0.281-0.742,0.768-0.838c1.236-0.246,2.376-0.707,3.555-1.158c0.623-0.25,1.303-0.383,1.965-0.462
					c0.182-0.021,0.479,0.287,0.606,0.51c0.121,0.212,0.12,0.509,0.125,0.766c0.017,2.305-0.009,4.564-0.231,6.816
					c-0.022,0.203-0.082,0.399-0.149,0.718c-0.101-0.208-0.18-0.302-0.188-0.395c-0.04-0.469-0.298-0.585-0.699-0.477
					c-0.543,0.145-1.126,0.231-1.627,0.473C47.675,55.215,46.41,55.651,44.993,56.018z"/>
			</g>
		</g>
		<g>
			<g>
				<g>
					<path fill="#C1C1C1" d="M61.093,216.048c0.917-0.399,1.472-1.122,1.986-1.92l6.758-10.391c0.236-0.362,0.499-0.707,0.775-1.094
						c-0.095-0.06-0.207-0.132-0.32-0.202c-1.036-0.629-1.982-1.392-2.976-2.082c-0.99-0.698-1.971-1.407-2.905-2.18
						c-0.627-0.497-1.178-1.097-1.983-1.454c0.475-0.09,0.95-0.232,1.417-0.269l4.192-0.325c0.636-0.07,1.167,0.09,1.654,0.456
						c1.936,1.524,4.012,2.852,6.085,4.186c0.684,0.393,1.406,0.729,2.133,1.037c0.315,0.133,0.693,0.133,1.044,0.175
						c0.167,0.02,0.341,0.003,0.512,0.002l0.011,0.146c-0.492,0.188-0.986,0.394-1.489,0.553c-0.545,0.173-1.1,0.341-1.66,0.434
						c-0.482,0.08-0.762,0.348-1.016,0.789l-5.286,9.101c-0.196,0.337-0.404,0.667-0.586,1.013c-0.437,0.833-1.134,1.325-2.036,1.57
						c-1.78,0.479-3.589,0.617-5.475,0.662c-0.261,0.005-0.524-0.03-0.786-0.047L61.093,216.048z"/>
					<path fill="#C1C1C1" d="M47.581,212.915c0.712,0.003,1.456-0.08,2.178-0.063l3.502,0.104c1.471,0.077,2.739,0.608,3.949,1.54
						c0.768,0.633,6.239,4.492,12.148,7.627c5.889,3.175,12.146,5.552,13.079,5.897c1.521,0.62,3.082,1.124,4.638,1.649
						c0.576,0.197,1.14,0.371,1.744,0.201c0.14-0.04,0.305-0.004,0.637-0.001c-0.281,0.187-0.409,0.297-0.559,0.368
						c-2.058,0.961-4.27,1.793-6.669,2.054c-0.538,0.053-1.037-0.024-1.56-0.229c-2.006-0.709-9.462-3.77-16.419-7.809
						c-7.005-3.962-13.373-8.903-15.014-10.254c-0.24-0.188-0.533-0.314-0.808-0.457c-0.287-0.152-0.59-0.282-0.871-0.44
						L47.581,212.915z"/>
				</g>
				<path fill="#C1C1C1" d="M110.822,217.097c-0.484,0.667-0.629,1.315-0.382,1.961c0.37,0.971,0.846,1.9,1.293,2.851
					s0.901,1.866,1.383,2.797c0.447,0.858,0.903,1.72,1.403,2.563c1.026,1.739,2.141,3.445,3.272,5.11
					c0.331,0.495,0.563,1.056,0.861,1.579c0.324,0.568,0.182,1.054-0.264,1.483c-0.384,0.369-0.766,0.753-1.207,1.064
					c-1.329,0.964-2.704,1.785-4.12,2.632c-0.317,0.188-0.696,0.291-1.048,0.434l-0.115-0.147c0.21-0.174,0.406-0.366,0.632-0.519
					c0.354-0.241,0.408-0.535,0.237-0.889c-0.231-0.475-0.424-0.968-0.696-1.417c-0.753-1.237-1.514-2.45-2.234-3.725
					c-0.539-0.94-1.096-1.862-1.584-2.809c-1.074-2.07-2.054-4.149-2.958-6.298c-0.131-0.306-0.24-0.623-0.356-0.935
					c-0.329-0.887-0.11-1.666,0.453-2.377c1.243-1.564,2.753-2.747,4.132-4.128c0.508-0.501,1.033-0.951,1.465-1.553
					c0.396-0.552,0.965-0.955,1.487-1.35l2.805-2.145c0.266-0.202,0.574-0.319,0.861-0.475l0.096,0.112
					c-0.112,0.268-0.183,0.585-0.348,0.795c-0.382,0.484-0.283,0.926-0.053,1.414l1.253,2.646c0.389,0.777,0.767,1.563,1.211,2.313
					c0.749,1.26,1.568,2.492,2.4,3.741c0.11,0.166,0.201,0.347,0.294,0.507c-0.686,1.08-3.842,3.647-5.223,4.11
					c-0.946-1.5-1.898-2.998-2.725-4.543C112.227,220.398,111.542,218.77,110.822,217.097z"/>
				<path fill="#C1C1C1" d="M80.429,208.035c-0.676,0.47-1.025,1.033-1.006,1.725c0.029,1.039,0.172,2.074,0.279,3.122l0.389,3.089
					c0.139,0.958,0.286,1.923,0.482,2.885c0.394,1.989,0.894,3.952,1.415,5.9c0.151,0.577,0.185,1.183,0.295,1.776
					c0.12,0.643-0.174,1.057-0.737,1.313c-0.484,0.222-0.971,0.458-1.49,0.607c-1.572,0.471-3.146,0.808-4.762,1.133
					c-0.361,0.073-0.753,0.045-1.133,0.063l-0.06-0.177c0.257-0.095,0.504-0.211,0.768-0.282c0.414-0.111,0.562-0.371,0.515-0.761
					c-0.062-0.525-0.082-1.055-0.193-1.569c-0.301-1.428-0.63-2.802-0.89-4.248c-0.199-1.067-0.421-2.122-0.57-3.179
					c-0.324-2.325-0.581-4.584-0.72-6.918c-0.022-0.333-0.021-0.668-0.027-1.001c-0.018-0.947,0.447-1.611,1.211-2.095
					c1.681-1.051,3.508-1.696,5.261-2.541c0.644-0.305,1.287-0.555,1.892-0.981c0.554-0.39,1.223-0.583,1.845-0.783l3.353-1.111
					c0.318-0.104,0.646-0.112,0.968-0.165l0.054,0.138c-0.194,0.216-0.364,0.492-0.589,0.636c-0.52,0.331-0.571,0.781-0.514,1.317
					l0.313,2.908c0.114,0.858,0.21,1.728,0.384,2.581c0.294,1.437,0.661,2.871,1.036,4.324c0.05,0.193,0.076,0.395,0.111,0.576
					c-1.003,0.798-4.82,2.173-6.283,2.168c-0.399-1.73-0.807-3.459-1.078-5.193C80.672,211.606,80.551,209.864,80.429,208.035z"/>
				<path fill="#C1C1C1" d="M56.884,191.542c-0.788,0.247-1.291,0.68-1.478,1.343c-0.282,0.999-0.455,2.026-0.664,3.056
					c-0.217,1.037-0.409,2.052-0.572,3.079c-0.152,0.953-0.301,1.915-0.401,2.887c-0.194,1.982-0.358,4.063-0.436,6.063
					c-0.028,0.593-0.177,1.18-0.248,1.776c-0.078,0.648-0.483,0.953-1.099,1.032c-0.53,0.068-1.068,0.15-1.609,0.138
					c-1.623-0.046-3.223-0.201-4.87-0.363c-0.368-0.038-0.734-0.18-1.103-0.276l-0.004-0.185c0.274-0.015,0.546-0.052,0.819-0.04
					c0.43,0.018,0.648-0.187,0.721-0.572c0.098-0.517,0.237-1.028,0.285-1.55c0.122-1.43,0.265-2.885,0.442-4.33
					c0.128-1.075,0.233-2.145,0.406-3.195c0.37-2.296,0.834-4.555,1.393-6.818c0.078-0.324,0.18-0.643,0.273-0.962
					c0.266-0.908,0.908-1.403,1.783-1.637c1.935-0.514,3.844-0.552,5.778-0.839c0.708-0.098,1.399-0.147,2.106-0.371
					c0.648-0.206,1.346-0.191,2.002-0.196l3.525-0.04c0.335-0.006,0.653,0.085,0.977,0.13l0.011,0.147
					c-0.251,0.149-0.497,0.361-0.755,0.431c-0.597,0.161-0.781,0.574-0.887,1.101l-0.572,2.864c-0.167,0.872-0.343,1.74-0.426,2.595
					c-0.148,1.453-0.224,2.924-0.299,4.417c-0.01,0.198-0.045,0.398-0.066,0.58c-1.196,0.458-5.287,0.666-6.646,0.179
					c0.134-1.764,0.262-3.531,0.519-5.259C56.03,195.038,56.472,193.303,56.884,191.542z"/>
				<path fill="#C1C1C1" d="M94.963,206.326l-0.521,0.434c-0.252,0.199-0.398,0.447-0.368,0.791l0.111,1.197
					c0.131,1.175,0.272,2.358,0.452,3.541c0.26,1.708,0.599,3.358,0.943,5.058c0.398,1.942,0.827,3.901,1.319,5.868
					c0.157,0.6,0.348,1.194,0.53,1.793l0.173-0.007l0.226-0.796l2.201-9.016c0.195-0.765,0.549-1.503,0.898-2.213
					c0.173-0.351,0.48-0.664,0.777-0.897c1.425-1.126,2.897-1.953,4.396-2.819c0.12-0.067,0.246-0.116,0.371-0.161
					c0.03-0.011,0.071,0.025,0.123,0.047c-0.675,1.177-1.068,2.466-1.322,3.822l-3.397,18.011c-0.144,0.778-0.485,1.376-1.119,1.812
					c-2.148,1.463-4.551,2.467-7.196,3.169c-0.051,0.012-0.111-0.006-0.251-0.016c-0.092-0.177-0.233-0.377-0.302-0.596
					c-0.5-1.58-0.988-3.149-1.376-4.724c-0.519-2.116-0.93-4.2-1.31-6.349c-0.13-0.718-0.315-1.422-0.458-2.132l-0.293-1.596
					l-0.109-0.763c-0.414-2.436-0.745-4.884-0.99-7.354c-0.057-0.556-0.151-1.103-0.178-1.658c-0.051-1.046-0.133-1.304,0.898-1.97
					c0.895-0.58,1.804-1.05,2.716-1.45c0.923-0.43,1.854-0.807,2.775-1.153c0.073-0.028,0.155-0.003,0.233-0.003L94.963,206.326z"/>
				<g>
					<path fill="#C1C1C1" d="M28.229,183.446c0.118,0.403,1.71,2.799,3.349,5.186c1.753,2.302,3.519,4.622,3.921,4.907
						c0.188-0.138,0.398-0.278,0.592-0.437l12.212-9.955c0.462-0.377,0.923-0.763,1.341-1.183c0.606-0.608,1.343-0.805,2.083-0.824
						c2.034-0.065,3.893,0.182,5.755,0.497c0.06,0.011,0.105,0.063,0.225,0.141c-0.215,0.079-0.367,0.162-0.518,0.186
						c-0.695,0.107-1.174,0.581-1.654,1.058c-0.35,0.345-0.689,0.701-1.053,1.031L42.256,195.07
						c-0.096,0.087-0.221,0.158-0.284,0.264c-0.422,0.709-1.086,0.795-1.839,0.675c-0.694-0.121-1.399-0.2-2.105-0.304
						c-0.23-0.033-0.459-0.066-0.876-0.126c0.278,0.36,0.443,0.592,0.626,0.809c0.91,1.12,1.922,2.149,2.903,3.206
						c0.992,1.048,1.954,2.121,3.016,3.102c0.714,0.687,1.342,1.53,2.479,1.563l-0.036,0.162c-0.129,0.025-0.256,0.069-0.387,0.071
						c-2.086,0.021-4.249-0.237-6.345-0.777c-0.839-0.219-1.533-0.663-2.161-1.338c-5.918-6.375-11.173-13.39-15.589-20.921
						c-0.418-0.723-0.652-1.58-1.528-1.96l0.083-0.137c0.161,0.027,0.33,0.023,0.479,0.085c1.401,0.588,2.801,1.136,4.235,1.665
						c0.383,0.146,0.682,0.192,1.038-0.026l14.798-8.986c0.708-0.428,1.456-0.804,2.213-1.135c0.359-0.156,0.81-0.245,1.171-0.2
						c1.912,0.244,3.673,0.711,5.431,1.241c0.084,0.027,0.154,0.078,0.307,0.16c-1.416,0.441-2.529,1.302-3.677,2.073l-13.953,9.442
						c-0.388,0.264-0.764,0.274-1.189,0.213C30.162,183.753,29.226,183.632,28.229,183.446z"/>
					<path fill="#C1C1C1" d="M44.257,182.062c-0.285,0.355-0.575,0.621-0.738,0.942c-0.553,1.089-1.058,2.211-1.552,3.346
						c-0.282,0.65-0.287,0.677-0.954,0.61c-1.797-0.181-3.569-0.625-5.332-1.237c-0.199-0.065-0.373-0.17-0.603-0.28
						c0.119-0.289,0.213-0.554,0.335-0.806c0.53-1.102,1.058-2.197,1.642-3.254c0.404-0.731,0.701-0.83,1.523-0.708
						c1.728,0.261,3.366,0.7,5.027,1.153C43.838,181.896,44.06,181.992,44.257,182.062z"/>
				</g>
			</g>
			<g>
				<path fill="#CE9549" d="M43.574,162.481c-1.013,0.126-1.111,0.109-1.353,1.193c-0.297,1.399-0.246,2.803-0.336,4.248
					c-0.014,0.25,0.003,0.5-0.035,0.75c-0.062,0.414-0.57,0.831-1.006,0.762c-1.046-0.167-2.108-0.35-3.14-0.637
					c-1.103-0.313-2.22-0.717-3.285-1.152c-0.285-0.117-0.54-0.295-0.857-0.473c0.298-0.113,0.594-0.139,0.696-0.284
					c0.177-0.252,0.351-0.593,0.327-0.864c-0.114-1.423,0.147-2.791,0.379-4.179c0.067-0.407,0.208-0.816,0.381-1.201
					c0.21-0.468,0.635-0.681,1.139-0.544c1.118,0.296,2.184,0.6,3.283,0.93c1.12,0.35,2.181,0.78,3.244,1.158
					C43.213,162.26,43.387,162.382,43.574,162.481z"/>
				<path fill="#CE9549" d="M25.316,167.371c-1.004,0.118-0.924,0.778-0.951,1.424c-0.036,0.829-0.115,1.663-0.197,2.502
					l-0.287,2.717c-0.055,0.601-0.29,0.804-0.881,0.642c-1.121-0.296-2.178-0.658-3.245-1.112c-1.208-0.525-2.385-1.18-3.583-1.82
					c-0.198-0.108-0.378-0.271-0.644-0.482c0.829-0.11,0.728-0.815,0.817-1.318c0.164-0.931,0.23-1.879,0.331-2.811
					c0.094-0.865,0.151-1.729,0.276-2.576c0.117-0.664,0.575-0.952,1.172-0.698c1.116,0.466,2.262,0.924,3.345,1.441
					c1.087,0.513,2.127,1.098,3.172,1.637C24.838,167.022,25.016,167.178,25.316,167.371z"/>
				<path fill="#CE9549" d="M32.868,172.158c-0.288-0.031-0.55-0.032-0.794-0.094c-2.132-0.523-4.217-1.236-6.166-2.282
					c-0.443-0.232-0.6-0.521-0.521-1.01c0.187-1.239,0.173-2.48,0.153-3.74c-0.02-0.67,0.089-1.353,0.244-2.001
					c0.042-0.178,0.436-0.348,0.689-0.39c0.242-0.04,0.52,0.064,0.763,0.15c2.184,0.779,4.272,1.597,6.312,2.584
					c0.183,0.091,0.347,0.215,0.623,0.388c-0.231,0.024-0.345,0.064-0.436,0.039c-0.454-0.124-0.652,0.077-0.69,0.489
					c-0.052,0.559-0.173,1.135-0.12,1.689C33.038,169.367,33.017,170.701,32.868,172.158z"/>
			</g>
		</g>
		<g>
			<g>
				<g>
					<path fill="#C1C1C1" d="M189.844,211.774c-0.067-0.992-0.564-1.754-1.146-2.504l-7.552-9.83
						c-0.263-0.343-0.5-0.705-0.774-1.093c-0.09,0.068-0.196,0.149-0.301,0.229c-1.905,1.504-3.96,2.796-5.957,4.166
						c-0.684,0.415-1.44,0.725-2.052,1.353c0.075-0.474,0.101-0.965,0.225-1.414c0.384-1.353,0.752-2.705,1.071-4.084
						c0.149-0.617,0.484-1.058,0.996-1.388c1.053-0.644,2.044-1.376,3.034-2.113c0.989-0.737,2.004-1.443,2.933-2.26
						c0.607-0.508,1.174-1.069,1.715-1.647c0.235-0.251,0.363-0.604,0.524-0.918c0.075-0.152,0.11-0.331,0.162-0.496l0.139,0.036
						c0.027,0.544,0.057,1.08,0.031,1.602c-0.023,0.569-0.054,1.144-0.158,1.7c-0.09,0.478,0.069,0.83,0.4,1.217l6.817,8.019
						c0.253,0.297,0.494,0.604,0.759,0.89c0.64,0.69,0.869,1.508,0.795,2.435c-0.13,1.851-0.571,3.637-1.187,5.389
						c-0.083,0.245-0.205,0.479-0.31,0.72L189.844,211.774z"/>
					<path fill="#C1C1C1" d="M182.408,223.474c0.225-0.694,0.41-1.396,0.666-2.072l1.28-3.238c0.527-1.413,1.453-2.426,2.751-3.231
						c0.881-0.474,6.27-4.432,11.202-8.919c4.99-4.434,9.292-9.568,9.945-10.316c1.102-1.217,2.079-2.539,3.109-3.816
						c0.38-0.475,0.735-0.947,0.778-1.572c0.01-0.145,0.099-0.288,0.214-0.6c0.082,0.326,0.141,0.485,0.158,0.649
						c0.216,2.264,0.236,4.61-0.305,6.975c-0.132,0.524-0.373,0.967-0.744,1.388c-1.36,1.638-6.723,7.64-12.836,12.827
						c-6.068,5.238-12.785,9.692-14.644,10.731c-0.26,0.161-0.477,0.392-0.706,0.6l-0.705,0.676L182.408,223.474z"/>
				</g>
				<path fill="#C1C1C1" d="M207.48,165.299c0.468,0.68,1.03,1.032,1.72,1.016c1.038-0.025,2.07-0.163,3.115-0.267
					c1.056-0.099,2.073-0.22,3.107-0.365c0.956-0.136,1.92-0.278,2.88-0.469c1.964-0.395,3.976-0.865,5.915-1.38
					c0.577-0.148,1.181-0.179,1.773-0.288c0.643-0.118,1.055,0.18,1.311,0.745c0.221,0.486,0.457,0.975,0.604,1.495
					c0.461,1.573,0.763,3.14,1.099,4.765c0.072,0.363,0.044,0.755,0.061,1.135l-0.176,0.059c-0.094-0.258-0.21-0.506-0.279-0.77
					c-0.109-0.416-0.369-0.564-0.759-0.52c-0.524,0.06-1.053,0.078-1.567,0.186c-1.406,0.305-2.828,0.604-4.265,0.862
					c-1.065,0.195-2.119,0.412-3.173,0.558c-2.299,0.327-4.604,0.546-6.927,0.68c-0.333,0.021-0.667,0.018-0.999,0.023
					c-0.945,0.013-1.607-0.454-2.089-1.223c-1.068-1.701-1.66-3.508-2.506-5.271c-0.304-0.647-0.553-1.292-0.977-1.9
					c-0.389-0.558-0.581-1.229-0.78-1.853l-1.082-3.354c-0.104-0.319-0.112-0.648-0.164-0.97l0.138-0.053
					c0.215,0.195,0.491,0.367,0.635,0.593c0.33,0.522,0.779,0.575,1.314,0.522l2.908-0.299c0.887-0.097,1.739-0.196,2.595-0.365
					c1.434-0.287,2.865-0.649,4.316-1.017c0.193-0.048,0.393-0.074,0.574-0.109c0.785,1.004,2.19,4.849,2.136,6.295
					c-1.727,0.392-3.454,0.792-5.183,1.057C211.072,165.085,209.283,165.174,207.48,165.299z"/>
				<path fill="#C1C1C1" d="M188.759,190.89c0.213,0.792,0.627,1.31,1.287,1.525c0.996,0.327,2.021,0.542,3.019,0.766l3.047,0.676
					c0.951,0.193,1.912,0.381,2.886,0.522c2.017,0.307,3.995,0.462,6.024,0.645c0.595,0.053,1.178,0.225,1.774,0.321
					c0.648,0.104,0.937,0.52,0.989,1.135c0.045,0.53,0.103,1.067,0.069,1.604c-0.094,1.631-0.268,3.259-0.524,4.868
					c-0.053,0.364-0.213,0.722-0.324,1.083l-0.187-0.004c-0.003-0.272-0.028-0.544-0.006-0.815c0.036-0.426-0.16-0.651-0.543-0.74
					c-0.516-0.119-1.023-0.279-1.545-0.349l-4.285-0.575c-1.068-0.168-2.144-0.322-3.192-0.537c-2.303-0.48-4.54-1.019-6.747-1.624
					c-0.323-0.092-0.64-0.207-0.957-0.314c-0.902-0.304-1.373-0.963-1.57-1.841c-0.425-1.931-0.468-3.923-0.643-5.823
					c-0.068-0.707-0.085-1.394-0.281-2.105c-0.181-0.653-0.124-1.335-0.128-2.013l0.088-3.528c0.011-0.332,0.116-0.644,0.175-0.964
					l0.149-0.004c0.138,0.255,0.341,0.508,0.399,0.768c0.135,0.599,0.543,0.8,1.069,0.927c0.946,0.232,1.899,0.474,2.832,0.669
					c0.847,0.182,1.702,0.385,2.565,0.509c1.455,0.209,2.932,0.347,4.429,0.484c0.199,0.018,0.397,0.061,0.581,0.089
					c0.421,1.219,0.395,5.243-0.066,6.65c-1.767-0.209-3.539-0.411-5.268-0.741C192.166,191.818,190.538,191.402,188.759,190.89z"/>
				<path fill="#C1C1C1" d="M165.354,207.628c-0.032,0.819,0.209,1.438,0.774,1.839c0.853,0.61,1.766,1.117,2.653,1.629l2.709,1.553
					c0.852,0.467,1.714,0.933,2.602,1.358c1.836,0.894,3.673,1.618,5.561,2.401c0.553,0.228,1.059,0.566,1.6,0.834
					c0.588,0.292,0.74,0.775,0.607,1.377c-0.115,0.519-0.219,1.048-0.413,1.551c-0.578,1.521-1.223,3.038-1.949,4.497
					c-0.16,0.331-0.418,0.626-0.634,0.938l-0.177-0.059c0.079-0.26,0.135-0.528,0.238-0.78c0.162-0.396,0.042-0.67-0.299-0.868
					c-0.458-0.267-0.894-0.57-1.372-0.793l-3.924-1.824c-0.97-0.475-1.952-0.944-2.889-1.461c-2.059-1.147-4.027-2.315-5.96-3.567
					c-0.281-0.184-0.548-0.388-0.819-0.585c-0.77-0.558-1.021-1.329-0.947-2.226c0.176-1.959,0.725-3.878,1.123-5.743
					c0.145-0.694,0.332-1.356,0.357-2.092c0.023-0.677,0.276-1.313,0.474-1.959l1.13-3.338c0.109-0.314,0.3-0.58,0.453-0.866
					l0.144,0.041c0.057,0.284,0.174,0.586,0.153,0.851c-0.049,0.611,0.281,0.924,0.745,1.202c0.838,0.508,1.666,1.009,2.502,1.476
					c0.755,0.427,1.511,0.874,2.299,1.25c1.328,0.633,2.698,1.204,4.088,1.781c0.184,0.076,0.364,0.18,0.526,0.255
					c0.045,1.296-1.182,5.118-2.039,6.328c-1.621-0.715-3.256-1.443-4.807-2.271C168.33,209.529,166.899,208.647,165.354,207.628z"
					/>
				<path fill="#C1C1C1" d="M192.028,176.612l0.233,0.637c0.102,0.303,0.287,0.525,0.621,0.613l1.166,0.299
					c1.152,0.272,2.315,0.538,3.49,0.767c1.684,0.32,3.361,0.563,5.076,0.809c1.962,0.278,3.953,0.532,5.972,0.729
					c0.619,0.054,1.242,0.072,1.866,0.101l0.051-0.165l-0.674-0.479l-7.756-5.099c-0.655-0.441-1.232-1.021-1.784-1.588
					c-0.273-0.281-0.464-0.674-0.585-1.033c-0.59-1.722-0.864-3.378-1.184-5.08c-0.023-0.136-0.027-0.271-0.028-0.404
					c0-0.033,0.047-0.058,0.085-0.1c0.885,1.03,1.967,1.831,3.161,2.525l15.832,9.234c0.685,0.396,1.134,0.919,1.332,1.663
					c0.65,2.511,0.795,5.118,0.567,7.848c-0.006,0.052-0.043,0.102-0.099,0.232c-0.197,0.027-0.435,0.093-0.664,0.085
					c-1.657-0.058-3.3-0.126-4.914-0.289c-2.174-0.227-4.262-0.528-6.418-0.895c-0.72-0.119-1.447-0.182-2.164-0.286l-1.603-0.262
					l-0.756-0.154c-2.447-0.439-4.838-0.931-7.255-1.536c-0.543-0.133-1.092-0.23-1.624-0.391c-1.004-0.304-1.275-0.315-1.554-1.507
					c-0.464-2.053-0.56-4.069-0.606-6.047c-0.001-0.078,0.05-0.147,0.076-0.219L192.028,176.612z"/>
				<g>
					<path fill="#C1C1C1" d="M148.132,231.909c0.408-0.018,3.22-0.643,6.007-1.43c2.775-0.837,5.538-1.769,5.944-2.049
						c-0.066-0.223-0.129-0.468-0.213-0.705l-5.287-14.842c-0.201-0.562-0.409-1.125-0.665-1.661
						c-0.37-0.776-0.308-1.533-0.078-2.232c0.627-1.912,1.472-3.59,2.378-5.258c0.029-0.053,0.096-0.076,0.208-0.162
						c0.003,0.228,0.03,0.398,0.002,0.548c-0.131,0.686,0.156,1.296,0.444,1.909c0.209,0.445,0.432,0.884,0.619,1.338l6.3,15.203
						c0.05,0.12,0.074,0.261,0.154,0.357c0.53,0.64,0.384,1.281,0.02,1.96l-0.982,1.912c-0.109,0.204-0.217,0.408-0.414,0.778
						c0.434-0.138,0.711-0.214,0.978-0.313c2.667-1.111,5.351-2.192,7.928-3.505c0.89-0.438,1.907-0.728,2.313-1.797l0.14,0.086
						c-0.018,0.131-0.018,0.269-0.057,0.395c-0.674,1.978-1.673,3.863-2.862,5.71c-0.471,0.758-1.138,1.229-1.987,1.597
						c-8.016,3.457-16.405,6.042-24.973,7.673c-0.819,0.165-1.705,0.086-2.356,0.786l-0.101-0.124
						c0.08-0.142,0.133-0.303,0.241-0.422c1.024-1.115,2.007-2.264,2.988-3.432c0.266-0.311,0.41-0.577,0.325-0.985l-3.492-16.958
						c-0.165-0.811-0.268-1.642-0.326-2.465c-0.028-0.39,0.041-0.845,0.205-1.169c0.877-1.702,1.902-3.232,2.993-4.699
						c0.053-0.07,0.126-0.117,0.254-0.235c-0.061,1.48,0.377,2.818,0.718,4.158l4.204,16.314c0.119,0.454,0.002,0.81-0.199,1.189
						C149.061,230.189,148.622,231.002,148.132,231.909z"/>
					<path fill="#C1C1C1" d="M152.212,216.343c0.238,0.388,0.392,0.751,0.641,1.013c0.842,0.89,1.729,1.746,2.635,2.595
						c0.515,0.474,0.54,0.495,0.255,1.103c-0.776,1.624-1.792,3.137-2.965,4.583c-0.13,0.16-0.283,0.302-0.462,0.49
						c-0.23-0.198-0.45-0.383-0.645-0.581c-0.861-0.872-1.715-1.739-2.515-2.647c-0.553-0.628-0.547-0.94-0.155-1.672
						c0.832-1.519,1.782-2.962,2.772-4.353C151.915,216.679,152.079,216.503,152.212,216.343z"/>
				</g>
			</g>
			<g>
				<path fill="#CE9549" d="M133.534,210.406c-0.222,0.997-0.271,1.083,0.67,1.675c1.221,0.749,2.56,1.175,3.892,1.745
					c0.231,0.097,0.471,0.165,0.696,0.285c0.37,0.198,0.591,0.817,0.379,1.204c-0.509,0.93-1.038,1.866-1.656,2.742
					c-0.666,0.934-1.423,1.848-2.189,2.707c-0.205,0.23-0.459,0.411-0.733,0.649c-0.007-0.318,0.067-0.607-0.035-0.751
					c-0.177-0.252-0.441-0.53-0.704-0.598c-1.38-0.371-2.581-1.068-3.812-1.761c-0.361-0.199-0.7-0.468-1.005-0.759
					c-0.371-0.354-0.429-0.826-0.131-1.255c0.655-0.956,1.298-1.859,1.979-2.78c0.706-0.939,1.468-1.793,2.182-2.67
					C133.204,210.672,133.377,210.549,133.534,210.406z"/>
				<path fill="#CE9549" d="M132.017,229.249c-0.225,0.986,0.424,1.132,1.022,1.373c0.769,0.311,1.527,0.666,2.29,1.024l2.461,1.181
					c0.548,0.254,0.659,0.543,0.309,1.045c-0.655,0.956-1.348,1.831-2.134,2.684c-0.899,0.961-1.91,1.852-2.912,2.765
					c-0.168,0.15-0.382,0.267-0.67,0.44c0.174-0.818-0.524-0.959-0.966-1.21c-0.82-0.465-1.691-0.844-2.534-1.248
					c-0.783-0.382-1.576-0.708-2.332-1.13c-0.586-0.331-0.704-0.859-0.265-1.337c0.812-0.877,1.626-1.818,2.474-2.664
					c0.846-0.854,1.746-1.639,2.604-2.444C131.527,229.573,131.734,229.468,132.017,229.249z"/>
				<path fill="#CE9549" d="M139.058,223.741c-0.126,0.26-0.215,0.506-0.356,0.716c-1.209,1.83-2.58,3.556-4.217,5.042
					c-0.367,0.34-0.691,0.391-1.126,0.154c-1.105-0.587-2.278-1.001-3.472-1.4c-0.638-0.204-1.245-0.535-1.803-0.898
					c-0.153-0.099-0.182-0.526-0.137-0.779c0.043-0.24,0.234-0.47,0.397-0.67c1.464-1.805,2.936-3.49,4.55-5.081
					c0.148-0.142,0.318-0.254,0.574-0.457c-0.055,0.225-0.056,0.347-0.11,0.424c-0.27,0.387-0.146,0.64,0.23,0.814
					c0.51,0.235,1.012,0.543,1.55,0.678C136.485,222.64,137.736,223.112,139.058,223.741z"/>
			</g>
		</g>
		<g>
			<g>
				<g>
					<path fill="#C1C1C1" d="M229.381,90.67c-0.958-0.284-1.847-0.085-2.752,0.198l-11.851,3.633
						c-0.413,0.126-0.836,0.221-1.296,0.342c0.034,0.107,0.073,0.234,0.113,0.361c0.38,1.151,0.656,2.332,0.953,3.506
						c0.294,1.176,0.618,2.343,0.833,3.536c0.16,0.784,0.196,1.598,0.583,2.389c-0.422-0.236-0.877-0.432-1.258-0.703
						c-1.17-0.826-2.276-1.653-3.432-2.439c-0.531-0.355-0.834-0.82-0.97-1.413c-0.505-2.412-1.241-4.767-1.991-7.114
						c-0.268-0.743-0.602-1.465-0.958-2.17c-0.155-0.306-0.442-0.547-0.683-0.806c-0.114-0.123-0.259-0.222-0.389-0.331l0.085-0.118
						c0.499,0.172,1.006,0.332,1.494,0.533c0.527,0.219,1.059,0.447,1.545,0.735c0.418,0.249,0.805,0.223,1.283,0.048l9.894-3.588
						c0.367-0.133,0.738-0.252,1.098-0.4c0.87-0.358,1.718-0.287,2.566,0.104c1.704,0.765,3.156,1.827,4.629,3.003
						c0.202,0.164,0.381,0.36,0.571,0.541L229.381,90.67z"/>
					<path fill="#C1C1C1" d="M237.742,101.736c-0.557-0.456-1.17-0.872-1.715-1.347l-2.615-2.327
						c-1.074-1.004-1.733-2.219-2.045-3.712c-0.167-0.982-1.919-7.442-4.433-13.638c-2.431-6.236-5.766-12.049-6.237-12.923
						c-0.761-1.457-1.661-2.831-2.503-4.239c-0.314-0.521-0.635-1.017-1.207-1.274c-0.132-0.059-0.235-0.193-0.489-0.408
						c0.335,0.036,0.504,0.035,0.663,0.077c2.199,0.581,4.408,1.375,6.438,2.702c0.445,0.305,0.778,0.686,1.046,1.18
						c1.067,1.84,4.846,8.963,7.583,16.529c2.822,7.534,4.556,15.401,4.937,17.493c0.062,0.298,0.206,0.583,0.325,0.869l0.391,0.895
						L237.742,101.736z"/>
				</g>
				<path fill="#C1C1C1" d="M191.898,57.965c0.805-0.205,1.332-0.609,1.554-1.258c0.334-0.977,0.558-1.987,0.82-2.998l0.766-3.06
					c0.212-0.948,0.456-1.94,0.589-2.881c0.298-1.958,0.517-3.958,0.746-5.987c0.067-0.595,0.252-1.178,0.362-1.773
					c0.119-0.648,0.54-0.927,1.154-0.964c0.529-0.032,1.065-0.077,1.599-0.029c1.609,0.147,3.246,0.343,4.891,0.587
					c0.358,0.065,0.707,0.236,1.062,0.36l-0.009,0.188c-0.27-0.005-0.538,0.012-0.806-0.019c-0.42-0.049-0.65,0.141-0.749,0.526
					c-0.134,0.517-0.308,1.023-0.393,1.549l-0.703,4.31c-0.183,1.06-0.342,2.116-0.57,3.15c-0.475,2.247-1.112,4.517-1.777,6.726
					c-0.095,0.318-0.214,0.63-0.325,0.943c-0.315,0.89-0.984,1.347-1.873,1.532c-1.984,0.424-3.854,0.32-5.815,0.507
					c-0.717,0.062-1.414,0.075-2.138,0.263c-0.662,0.172-1.365,0.122-2.025,0.095l-3.48-0.21c-0.33-0.019-0.657-0.112-0.982-0.171
					l-0.004-0.145c0.261-0.136,0.52-0.335,0.785-0.393c0.613-0.135,0.817-0.534,0.947-1.048l0.704-2.794
					c0.202-0.847,0.425-1.7,0.57-2.563c0.243-1.456,0.416-2.935,0.59-4.435c0.023-0.199,0.07-0.398,0.103-0.581
					c1.224-0.391,5.227-0.262,6.62,0.233c-0.2,1.716-0.431,3.473-0.828,5.228C192.907,54.563,192.41,56.23,191.898,57.965z"/>
				<path fill="#C1C1C1" d="M209.42,84.402c0.818,0.075,1.448-0.133,1.878-0.677c0.641-0.814,1.222-1.711,1.776-2.568l1.689-2.621
					c0.51-0.826,1.02-1.66,1.488-2.525c0.985-1.784,1.825-3.591,2.694-5.429c0.255-0.54,0.619-1.028,0.916-1.553
					c0.322-0.571,0.812-0.699,1.407-0.535c0.513,0.141,1.037,0.273,1.529,0.492c1.501,0.651,2.96,1.386,4.386,2.184
					c0.323,0.177,0.605,0.45,0.906,0.681l-0.067,0.174c-0.257-0.093-0.521-0.162-0.767-0.278c-0.388-0.182-0.667-0.077-0.883,0.252
					c-0.29,0.442-0.616,0.863-0.862,1.328l-2.03,3.824c-0.534,0.948-1.045,1.9-1.611,2.808c-1.257,1.997-2.502,3.89-3.881,5.765
					c-0.197,0.27-0.415,0.527-0.624,0.786c-0.597,0.738-1.379,0.949-2.274,0.829c-1.954-0.277-3.813-0.936-5.672-1.425
					c-0.687-0.18-1.339-0.402-2.074-0.465c-0.679-0.055-1.295-0.346-1.923-0.581l-3.281-1.3c-0.309-0.124-0.565-0.33-0.843-0.497
					l0.048-0.141c0.287-0.042,0.595-0.143,0.858-0.109c0.609,0.08,0.938-0.232,1.24-0.68c0.54-0.803,1.108-1.617,1.614-2.424
					c0.464-0.731,0.951-1.461,1.366-2.228c0.7-1.291,1.34-2.629,1.988-3.985c0.086-0.18,0.195-0.352,0.284-0.513
					c1.287,0.029,5.061,1.443,6.214,2.367c-0.807,1.585-1.611,3.175-2.518,4.68C211.495,81.523,210.513,82.916,209.42,84.402z"/>
				<path fill="#C1C1C1" d="M216.896,112.165c0.763,0.316,1.427,0.307,1.996-0.082c0.856-0.585,1.646-1.263,2.466-1.917
					c0.829-0.656,1.638-1.313,2.417-1.995c0.728-0.633,1.459-1.276,2.16-1.958c1.425-1.396,2.875-2.886,4.22-4.37
					c0.403-0.437,0.893-0.792,1.331-1.204c0.475-0.448,0.982-0.422,1.505-0.086c0.45,0.288,0.913,0.571,1.322,0.926
					c1.226,1.073,2.346,2.221,3.508,3.402c0.257,0.265,0.448,0.609,0.67,0.92l-0.116,0.145c-0.219-0.165-0.452-0.31-0.655-0.494
					c-0.318-0.29-0.617-0.273-0.92-0.024c-0.407,0.334-0.841,0.636-1.213,1.006c-1.011,1.018-2.063,2.045-3.118,3.04
					c-0.786,0.742-1.551,1.497-2.356,2.191c-1.744,1.523-3.585,2.962-5.447,4.337c-0.267,0.198-0.549,0.378-0.825,0.563
					c-0.784,0.526-1.594,0.493-2.418,0.11c-1.836-0.845-3.292-2.043-4.967-3.063c-0.608-0.378-1.17-0.785-1.858-1.065
					c-0.63-0.257-1.157-0.717-1.665-1.132l-2.727-2.231c-0.261-0.211-0.447-0.484-0.667-0.727l0.086-0.12
					c0.287,0.047,0.612,0.042,0.855,0.154c0.561,0.26,0.968,0.06,1.386-0.277l2.277-1.83c0.689-0.563,1.368-1.113,1.987-1.718
					c1.047-1.02,2.051-2.101,3.068-3.198c0.135-0.146,0.29-0.276,0.423-0.403c1.206,0.418,4.481,2.882,5.211,4.126
					c-1.234,1.266-2.466,2.54-3.772,3.702C219.783,110.032,218.341,111.079,216.896,112.165z"/>
				<path fill="#C1C1C1" d="M197.171,76.394l0.678,0.003c0.32,0.01,0.591-0.088,0.79-0.37l0.684-0.99
					c0.654-0.987,1.307-1.985,1.928-3.008c0.886-1.471,1.691-2.958,2.516-4.482c0.941-1.744,1.868-3.523,2.752-5.348
					c0.273-0.567,0.5-1.14,0.745-1.717l-0.138-0.105l-0.683,0.466l-7.473,5.504c-0.641,0.461-1.386,0.802-2.109,1.122
					c-0.358,0.159-0.795,0.201-1.173,0.19c-1.83-0.041-3.466-0.37-5.178-0.664c-0.135-0.025-0.264-0.068-0.39-0.114
					c-0.031-0.011-0.038-0.065-0.064-0.114c1.276-0.471,2.404-1.208,3.47-2.084l14.162-11.634c0.609-0.504,1.256-0.745,2.023-0.674
					c2.559,0.276,5.076,1.024,7.544,2.189c0.047,0.024,0.081,0.076,0.183,0.173c-0.042,0.194-0.063,0.44-0.151,0.651
					c-0.63,1.533-1.262,3.049-1.975,4.507c-0.964,1.96-1.973,3.814-3.065,5.709c-0.361,0.634-0.672,1.294-1.018,1.931l-0.8,1.412
					l-0.406,0.655c-1.258,2.143-2.549,4.217-3.954,6.273c-0.313,0.463-0.593,0.944-0.93,1.387c-0.634,0.836-0.737,1.087-1.953,0.936
					c-2.087-0.275-4.009-0.883-5.882-1.524c-0.074-0.025-0.12-0.098-0.18-0.148L197.171,76.394z"/>
				<g>
					<path fill="#C1C1C1" d="M233.64,136.765c0.073-0.193,0.215-1.001,0.386-2.12c0.106-1.126,0.243-2.562,0.38-4.003
						c0.241-2.885,0.211-5.804,0.173-6.279c-0.232-0.015-0.483-0.043-0.733-0.046l-15.754-0.217
						c-0.597-0.008-1.197-0.008-1.791,0.045c-0.864,0.076-1.525-0.245-2.108-0.705c-1.596-1.257-2.932-2.635-4.096-4.072
						c-0.04-0.046-0.04-0.116-0.083-0.251c0.216,0.077,0.386,0.111,0.517,0.19c0.592,0.363,1.259,0.307,1.937,0.251
						c0.49-0.041,0.981-0.096,1.473-0.114l16.447-0.597c0.13-0.005,0.269,0.021,0.389-0.019c0.791-0.273,1.331,0.088,1.822,0.665
						c0.459,0.538,0.953,1.053,1.432,1.586c0.157,0.173,0.312,0.346,0.595,0.659c0.015-0.455,0.035-0.74,0.03-1.024
						c-0.001-1.444-0.048-2.886-0.158-4.327c-0.108-1.439-0.135-2.885-0.321-4.318c-0.11-0.986-0.054-2.035-0.905-2.789l0.132-0.102
						c0.115,0.064,0.241,0.112,0.343,0.194c1.61,1.323,3.132,2.907,4.363,4.67c0.507,0.708,0.758,1.493,0.811,2.416
						c0.473,8.704-0.028,17.457-1.517,26.047c-0.146,0.822-0.49,1.632-0.053,2.487l-0.151,0.052
						c-0.108-0.124-0.241-0.23-0.318-0.373l-2.17-3.991c-0.192-0.357-0.385-0.582-0.798-0.644l-17.116-2.613
						c-0.816-0.127-1.631-0.319-2.426-0.55c-0.377-0.11-0.783-0.332-1.034-0.6c-1.341-1.421-2.413-2.916-3.359-4.443
						c-0.049-0.074-0.07-0.16-0.138-0.32c1.376,0.573,2.781,0.628,4.155,0.773l16.758,1.727c0.466,0.046,0.77,0.281,1.043,0.599
						C232.383,135.3,232.977,135.993,233.64,136.765z"/>
					<path fill="#C1C1C1" d="M220.502,127.533c0.444-0.089,0.838-0.106,1.167-0.248c1.118-0.481,2.218-1.014,3.318-1.568
						c0.629-0.317,0.651-0.334,1.125,0.145c1.26,1.293,2.408,2.776,3.281,4.373c0.1,0.177,0.174,0.37,0.282,0.602
						c-0.274,0.146-0.514,0.288-0.768,0.403c-1.106,0.504-2.205,1.005-3.324,1.44c-0.774,0.301-1.066,0.187-1.627-0.436
						c-1.188-1.313-2.162-2.702-3.099-4.114C220.72,127.929,220.61,127.713,220.502,127.533z"/>
				</g>
			</g>
			<g>
				<path fill="#CE9549" d="M208.424,142.994c0.866,0.555,0.931,0.632,1.793-0.05c1.12-0.887,2.07-1.977,3.005-3.042
					c0.166-0.183,0.31-0.387,0.495-0.557c0.307-0.279,0.962-0.273,1.257,0.061c0.709,0.803,1.417,1.627,2.041,2.513
					c0.649,0.95,1.175,1.961,1.736,2.984c0.149,0.273,0.235,0.575,0.371,0.917c-0.302-0.104-0.549-0.274-0.718-0.228
					c-0.294,0.08-0.642,0.231-0.792,0.457c-0.755,1.183-1.978,2.028-2.995,2.959c-0.305,0.272-0.668,0.498-1.041,0.684
					c-0.454,0.227-0.915,0.118-1.222-0.312c-0.672-0.947-1.35-1.878-1.94-2.825l-1.734-2.968
					C208.567,143.396,208.508,143.19,208.424,142.994z"/>
				<path fill="#CE9549" d="M225.56,150.949c0.838,0.551,1.217-0.002,1.666-0.476l1.758-1.791l1.937-1.904
					c0.441-0.422,0.753-0.427,1.092,0.074c0.636,0.939,1.264,1.903,1.796,2.937c0.624,1.185,1.085,2.436,1.561,3.685
					c0.08,0.209,0.102,0.446,0.173,0.781c-0.712-0.448-1.074,0.162-1.455,0.491c-0.714,0.611-1.339,1.306-2.021,1.953
					c-0.643,0.598-1.261,1.217-1.913,1.783c-0.505,0.439-1.039,0.366-1.342-0.214c-0.562-1.074-1.11-2.148-1.595-3.232
					c-0.514-1.092-0.962-2.215-1.434-3.303C225.692,151.521,225.655,151.287,225.56,150.949z"/>
				<path fill="#CE9549" d="M222.87,142.443c0.203,0.209,0.406,0.379,0.557,0.583c1.271,1.763,2.368,3.638,3.261,5.704
					c0.203,0.465,0.14,0.788-0.25,1.108c-0.978,0.821-1.776,1.777-2.526,2.769c-0.407,0.529-0.898,0.992-1.458,1.382
					c-0.15,0.108-0.561-0.013-0.781-0.143c-0.21-0.124-0.352-0.38-0.479-0.6c-1.197-2.004-2.337-3.989-3.184-6.032
					c-0.079-0.186-0.133-0.388-0.239-0.699c0.194,0.13,0.307,0.173,0.363,0.251c0.275,0.388,0.554,0.36,0.84,0.067
					c0.388-0.398,0.841-0.765,1.146-1.226C220.86,144.455,221.884,143.477,222.87,142.443z"/>
			</g>
		</g>
	</g>
	<g>
		<path fill="#DDDDDD" d="M75.18,38.103c-0.85,1.104-1.993,2.401-3.699,3.374c-4.284,2.443-8.599,1.245-10.972-2.917
			c-2.697-4.731-1.291-8.869,2.627-11.104c1.543-0.88,4.069-1.594,5.106-1.755l1.893,3.036l-0.69,0.393
			c-1.947-1.903-3.999-2.105-6.049-0.936c-2.822,1.609-3.205,5.137-0.994,9.014c2.235,3.918,5.457,5.416,8.787,3.518
			c1.948-1.111,2.574-3.082,1.724-5.422l0.771-0.44L75.18,38.103z"/>
		<path fill="#DDDDDD" d="M74.684,30.393c-1.61-4.261-0.418-8.507,4.346-10.307c4.894-1.85,8.283,0.641,9.926,4.989
			c1.61,4.261,0.427,8.529-4.336,10.329C79.724,37.254,76.328,34.742,74.684,30.393z M86.793,25.893
			c-1.742-4.611-4.51-6.186-7.788-4.948c-2.993,1.132-3.66,4.654-2.157,8.631c1.742,4.611,4.519,6.208,7.796,4.969
			C87.638,33.414,88.295,29.87,86.793,25.893z"/>
		<path fill="#DDDDDD" d="M111.175,27.975l0.094,0.505l-6.498,1.212l-0.094-0.505l2.074-0.981l-2.41-12.928l-2.54,15.181
			l-0.803,0.149l-7.771-12.499l2.282,12.239l2.28,0.122l0.094,0.505l-5.397,1.006l-0.093-0.505l2.083-0.935l-2.475-13.273
			l-2.289-0.166l-0.093-0.506l4.638-0.864l7.075,11.441l2.11-13.153l4.959-0.925l0.094,0.505l-2.074,0.981l2.466,13.227
			L111.175,27.975z"/>
		<path fill="#DDDDDD" d="M117.001,27.445l2.243,0.48l0.024,0.513l-6.603,0.31l-0.024-0.513l2.19-0.687l-0.629-13.439l-2.243-0.48
			l-0.024-0.513l6.603-0.31l0.024,0.513l-2.189,0.687L117.001,27.445z"/>
		<path fill="#DDDDDD" d="M120.735,27.785l2.249-0.452l0.789-13.432l-2.18-0.713l0.03-0.513l11.519,0.677l-0.236,4.034l-0.607-0.035
			l-0.933-3.237l-5.41-0.317l-0.362,6.155l3.289,0.194l0.952-2.261l0.512,0.031l-0.32,5.457l-0.513-0.03l-0.68-2.357l-3.289-0.194
			l-0.405,6.903l5.48,0.322l1.718-3.737l0.536,0.031l-0.485,4.675L120.706,28.3L120.735,27.785z"/>
		<path fill="#DDDDDD" d="M147.299,32.023l-7.083-15.833l-2.645,12.482l2.174,1.011l-0.106,0.503l-5.486-1.163l0.106-0.503
			l2.284-0.065l2.801-13.214l-2.051-1.031l0.106-0.503l4.55,0.964l5.834,13.276l2.224-10.494l-2.175-1.01l0.107-0.503l5.486,1.163
			l-0.107,0.502l-2.283,0.066l-3.072,14.493L147.299,32.023z"/>
		<path fill="#DDDDDD" d="M162.632,37.182l-11.495-4.344l0.165-0.437l13.759-10.11l-6.469-2.444l-2.171,2.576l-0.568-0.215
			l1.428-3.781l10.686,4.038l-0.165,0.437l-13.789,10.124l7.19,2.716l2.783-3.069l0.502,0.19L162.632,37.182z"/>
		<path fill="#DDDDDD" d="M168.003,30.877c2.222-3.978,6.238-5.803,10.686-3.319c4.569,2.553,4.848,6.75,2.58,10.809
			c-2.222,3.978-6.25,5.823-10.696,3.339C166.003,39.153,165.736,34.935,168.003,30.877z M179.25,37.238
			c2.404-4.304,1.826-7.438-1.234-9.146c-2.795-1.561-5.919,0.199-7.992,3.912c-2.404,4.304-1.837,7.458,1.222,9.167
			C174.04,42.732,177.176,40.951,179.25,37.238z"/>
	</g>
</g>
</svg>
