<?xml version="1.0" encoding="utf-8"?>
<!-- Generator: Adobe Illustrator 17.0.0, SVG Export Plug-In . SVG Version: 6.00 Build 0)  -->
<!DOCTYPE svg PUBLIC "-//W3C//DTD SVG 1.1//EN" "http://www.w3.org/Graphics/SVG/1.1/DTD/svg11.dtd">
<svg version="1.1" id="Capa_1" xmlns="http://www.w3.org/2000/svg" xmlns:xlink="http://www.w3.org/1999/xlink" x="0px" y="0px"
	 width="246px" height="247px" viewBox="0 0 246 247" style="enable-background:new 0 0 246 247;" xml:space="preserve">
<style type="text/css">
	.st0{fill:#C1C1C1;}
	.st1{fill:#CE9549;}
	.st2{fill:#DDDDDD;}
</style>
<g>
	<g>
		<g>
			<g>
				<g>
					<path class="st0" d="M57.793,31.624c0.035,0.993,0.507,1.771,1.065,2.539l7.236,10.064c0.252,0.351,0.477,0.721,0.739,1.118
						c0.091-0.065,0.2-0.142,0.309-0.219c1.958-1.432,4.041-2.677,6.089-3.969c0.696-0.395,1.46-0.682,2.091-1.293
						c-0.09,0.472-0.131,0.963-0.268,1.408c-0.423,1.347-0.839,2.678-1.202,4.046c-0.169,0.612-0.516,1.042-1.039,1.355
						c-1.072,0.61-2.083,1.316-3.099,2.014c-1.024,0.689-2.037,1.392-2.998,2.168c-0.625,0.484-1.211,1.023-1.772,1.578
						c-0.248,0.235-0.375,0.599-0.534,0.92c-0.076,0.152-0.12,0.326-0.178,0.489l-0.138-0.041c-0.004-0.537-0.024-1.08,0.003-1.618
						c0.036-0.573,0.09-1.14,0.211-1.691c0.105-0.473-0.041-0.829-0.361-1.227l-6.563-8.228c-0.243-0.305-0.475-0.619-0.731-0.913
						c-0.618-0.711-0.82-1.533-0.715-2.455c0.202-1.83,0.679-3.629,1.355-5.353c0.092-0.242,0.221-0.472,0.333-0.708L57.793,31.624z
						"/>
					<path class="st0" d="M65.596,20.164c-0.246,0.688-0.453,1.384-0.729,2.053l-1.38,3.199c-0.577,1.386-1.531,2.377-2.854,3.138
						c-0.888,0.454-6.419,4.22-11.48,8.573c-2.557,2.146-4.941,4.484-6.811,6.327c-1.806,1.907-3.124,3.3-3.467,3.662l-3.225,3.715
						c-0.401,0.457-0.743,0.941-0.798,1.569c-0.012,0.146-0.102,0.29-0.219,0.603c-0.076-0.333-0.133-0.494-0.147-0.661
						c-0.217-2.326-0.086-4.604,0.515-6.958c0.138-0.528,0.381-0.974,0.753-1.393c1.461-1.541,6.931-7.446,13.244-12.423
						c6.243-5.05,13.099-9.277,14.988-10.26c0.264-0.152,0.489-0.377,0.723-0.579l0.724-0.655L65.596,20.164z"/>
				</g>
				<path class="st0" d="M38.682,77.527c-0.452-0.698-0.992-1.063-1.689-1.073c-1.026-0.003-2.048,0.109-3.083,0.186l-3.126,0.259
					c-0.971,0.099-1.95,0.204-2.925,0.359c-1.955,0.341-3.925,0.77-5.926,1.201c-0.587,0.126-1.198,0.136-1.799,0.222
					c-0.653,0.093-1.052-0.216-1.282-0.785c-0.198-0.49-0.41-0.983-0.533-1.505c-0.362-1.567-0.718-3.191-0.973-4.813
					c-0.055-0.362-0.007-0.75-0.006-1.128l0.18-0.052c0.083,0.258,0.187,0.509,0.244,0.774c0.09,0.416,0.344,0.573,0.739,0.543
					c0.53-0.04,1.064-0.038,1.586-0.127l4.285-0.725c1.053-0.17,2.099-0.359,3.179-0.458c2.347-0.229,4.663-0.371,6.942-0.457
					c0.33-0.012,0.656-0.003,0.99,0.004c0.954,0.022,1.599,0.511,2.047,1.289c1.03,1.745,1.619,3.603,2.358,5.366
					c0.274,0.652,0.49,1.299,0.89,1.918c0.378,0.575,0.562,1.259,0.753,1.896l0.946,3.376c0.084,0.317,0.077,0.645,0.132,0.975
					l-0.137,0.05c-0.212-0.204-0.483-0.385-0.622-0.618c-0.322-0.537-0.766-0.603-1.295-0.563l-2.878,0.22
					c-0.868,0.078-1.749,0.137-2.616,0.275c-1.46,0.233-2.934,0.534-4.358,0.871c-0.191,0.044-0.391,0.064-0.57,0.093
					c-0.838-1.066-1.958-4.885-1.932-6.363c1.695-0.356,3.467-0.683,5.225-0.88C35.158,77.663,36.886,77.6,38.682,77.527z"/>
				<path class="st0" d="M58.223,52.525c-0.2-0.81-0.597-1.339-1.244-1.568c-0.969-0.339-1.973-0.569-2.976-0.837l-3.04-0.783
					c-0.947-0.223-1.915-0.454-2.876-0.617c-1.96-0.322-3.963-0.567-5.995-0.82c-0.597-0.074-1.177-0.267-1.773-0.384
					c-0.647-0.127-0.923-0.55-0.952-1.162c-0.025-0.527-0.064-1.062-0.009-1.594c0.171-1.599,0.378-3.238,0.658-4.863
					c0.067-0.359,0.239-0.71,0.365-1.065l0.187,0.01c-0.007,0.271,0.009,0.542-0.024,0.81c-0.051,0.422,0.137,0.653,0.52,0.755
					c0.514,0.137,1.018,0.314,1.54,0.402l4.286,0.726c1.055,0.191,2.097,0.346,3.15,0.608c2.293,0.555,4.528,1.181,6.711,1.847
					c0.315,0.096,0.623,0.215,0.933,0.327c0.893,0.332,1.34,1.003,1.513,1.89c0.402,1.988,0.346,3.934,0.465,5.841
					c0.046,0.708,0.032,1.383,0.214,2.108c0.168,0.667,0.116,1.373,0.087,2.037l-0.22,3.499c-0.028,0.325-0.13,0.645-0.191,0.97
					l-0.146,0.002c-0.133-0.262-0.329-0.522-0.384-0.788c-0.127-0.612-0.525-0.821-1.038-0.957l-2.794-0.738
					c-0.847-0.212-1.699-0.446-2.564-0.601c-1.464-0.268-2.939-0.452-4.398-0.606c-0.195-0.022-0.39-0.069-0.57-0.101
					c-0.436-1.279-0.252-5.267,0.268-6.644c1.721,0.224,3.49,0.485,5.223,0.882C54.846,51.496,56.501,52.004,58.223,52.525z"/>
				<path class="st0" d="M82.145,36.552c0.057-0.82-0.164-1.445-0.716-1.863c-0.827-0.623-1.735-1.182-2.606-1.725l-2.656-1.632
					c-0.836-0.492-1.681-0.983-2.555-1.434c-1.803-0.945-3.63-1.753-5.485-2.582c-0.545-0.244-1.04-0.598-1.572-0.883
					c-0.578-0.31-0.715-0.798-0.564-1.396c0.131-0.515,0.251-1.042,0.46-1.539c0.62-1.514,1.325-2.983,2.091-4.428
					c0.17-0.327,0.437-0.614,0.661-0.92l0.175,0.064c-0.086,0.259-0.151,0.524-0.261,0.773c-0.173,0.391-0.063,0.669,0.271,0.878
					c0.448,0.281,0.875,0.597,1.346,0.833c1.302,0.659,2.587,1.273,3.867,1.954c0.958,0.513,1.921,1.003,2.84,1.549
					c2.023,1.216,3.937,2.407,5.847,3.76c0.274,0.192,0.535,0.403,0.799,0.607c0.751,0.58,0.978,1.357,0.877,2.255
					c-0.234,1.963-0.86,3.82-1.306,5.698c-0.166,0.692-0.373,1.349-0.42,2.086c-0.042,0.678-0.315,1.31-0.543,1.93l-1.231,3.311
					c-0.118,0.312-0.318,0.572-0.478,0.855l-0.142-0.045c-0.047-0.286-0.156-0.592-0.127-0.856c0.067-0.61-0.252-0.933-0.706-1.225
					c-0.814-0.521-1.641-1.075-2.459-1.564c-0.741-0.449-1.482-0.92-2.257-1.319c-1.306-0.673-2.657-1.286-4.027-1.905
					c-0.182-0.082-0.356-0.188-0.519-0.274c0.003-1.287,1.337-5.091,2.239-6.258c1.601,0.773,3.207,1.542,4.731,2.417
					C79.217,34.529,80.637,35.493,82.145,36.552z"/>
				<path class="st0" d="M54.499,66.691l-0.207-0.639c-0.09-0.304-0.267-0.531-0.601-0.63l-1.163-0.34
					c-1.135-0.3-2.272-0.588-3.427-0.843c-1.668-0.367-3.363-0.681-5.078-0.987c-1.985-0.363-3.913-0.639-5.911-0.89
					c-0.622-0.076-1.249-0.119-1.878-0.171l-0.059,0.162l0.658,0.5l7.589,5.342c0.64,0.461,1.196,1.057,1.726,1.64
					c0.262,0.288,0.436,0.685,0.541,1.044c0.49,1.712,0.837,3.46,1.031,5.128c0.017,0.135,0.014,0.269,0.008,0.401
					c-0.001,0.032-0.051,0.056-0.091,0.095c-0.841-1.053-1.895-1.887-3.064-2.618l-15.527-9.739c-0.672-0.417-1.1-0.953-1.266-1.697
					c-0.283-1.264-0.458-2.559-0.529-3.883c-0.034-1.298,0.04-2.622,0.216-3.968c0.007-0.052,0.044-0.103,0.101-0.232
					c0.195-0.023,0.431-0.084,0.657-0.071c1.631,0.095,3.253,0.203,4.884,0.434c2.17,0.298,4.296,0.705,6.398,1.106
					c0.708,0.135,1.423,0.213,2.128,0.333l1.603,0.319l0.755,0.181c2.449,0.529,4.849,1.114,7.199,1.751
					c0.528,0.14,1.081,0.26,1.611,0.44c0.999,0.34,1.272,0.36,1.505,1.553c0.429,2.092,0.476,4.124,0.417,6.067
					c-0.002,0.077-0.057,0.144-0.087,0.215L54.499,66.691z"/>
				<g>
					<path class="st0" d="M100.123,12.826c-0.416-0.034-3.234,0.563-6.055,1.225c-2.791,0.782-5.595,1.589-6.007,1.864
						c0.06,0.225,0.114,0.472,0.191,0.711l4.818,15c0.183,0.568,0.374,1.138,0.613,1.68c0.345,0.786,0.26,1.543,0.009,2.237
						c-0.676,1.92-1.59,3.526-2.542,5.18c-0.031,0.052-0.097,0.073-0.213,0.156c0.004-0.228-0.018-0.4,0.015-0.548
						c0.152-0.683-0.116-1.302-0.385-1.924c-0.195-0.451-0.403-0.897-0.578-1.356l-5.82-15.393
						c-0.046-0.122-0.067-0.263-0.143-0.361c-0.509-0.655-0.344-1.294,0.04-1.962l1.048-1.863c0.115-0.201,0.23-0.403,0.438-0.768
						c-0.438,0.126-0.715,0.195-0.985,0.287c-1.373,0.451-2.699,1.032-4.049,1.546c-1.353,0.509-2.678,1.086-3.987,1.698
						c-0.904,0.41-1.921,0.684-2.367,1.724l-0.139-0.093c0.024-0.128,0.029-0.263,0.075-0.385c0.736-1.957,1.789-3.819,3.032-5.633
						c0.51-0.704,1.18-1.182,2.042-1.521c8.117-3.206,16.586-5.535,25.206-6.889c0.825-0.127,1.707-0.029,2.381-0.706l0.097,0.128
						c-0.084,0.139-0.142,0.299-0.254,0.415c-1.058,1.088-2.08,2.192-3.097,3.332c-0.276,0.304-0.428,0.564-0.356,0.975l2.952,17.06
						c0.139,0.816,0.216,1.649,0.248,2.474c0.015,0.391-0.068,0.844-0.242,1.162c-0.927,1.689-2.006,3.158-3.139,4.6
						c-0.055,0.068-0.129,0.114-0.261,0.228c0.107-1.479-0.288-2.83-0.586-4.18l-3.687-16.439c-0.104-0.458,0.024-0.811,0.237-1.184
						C99.129,14.514,99.586,13.688,100.123,12.826z"/>
					<path class="st0" d="M95.553,28.25c-0.226-0.395-0.368-0.762-0.608-1.032c-0.813-0.914-1.672-1.795-2.55-2.669
						c-0.503-0.501-0.526-0.515-0.22-1.111c0.825-1.605,1.887-3.09,3.102-4.506c0.134-0.159,0.292-0.294,0.48-0.464
						c0.226,0.216,0.438,0.401,0.628,0.606c0.832,0.897,1.659,1.789,2.429,2.719c0.533,0.644,0.517,0.956,0.102,1.676
						c-0.876,1.508-1.88,2.881-2.909,4.259C95.86,27.921,95.69,28.093,95.553,28.25z"/>
				</g>
			</g>
			<g>
				<path class="st1" d="M114.031,34.774c0.253-0.988,0.305-1.073-0.617-1.696c-1.196-0.779-2.521-1.253-3.834-1.863
					c-0.227-0.104-0.467-0.18-0.686-0.307c-0.363-0.21-0.566-0.835-0.341-1.215c0.538-0.913,1.097-1.832,1.742-2.689
					c0.695-0.915,1.481-1.799,2.273-2.64c0.212-0.223,0.472-0.394,0.754-0.624c-0.003,0.319-0.087,0.604,0.011,0.752
					c0.17,0.258,0.424,0.544,0.685,0.621c1.367,0.41,2.547,1.173,3.756,1.872c0.355,0.212,0.685,0.493,0.981,0.795
					c0.36,0.368,0.404,0.841,0.092,1.259c-0.686,0.918-1.357,1.825-2.067,2.724c-0.736,0.913-1.525,1.742-2.267,2.593
					C114.369,34.52,114.191,34.636,114.031,34.774z"/>
				<path class="st1" d="M116.145,15.997c0.256-0.977-0.388-1.145-0.978-1.407c-0.758-0.337-1.505-0.717-2.256-1.101l-2.421-1.258
					c-0.539-0.271-0.642-0.563-0.276-1.055c0.685-0.938,1.405-1.792,2.217-2.615c0.929-0.931,1.967-1.786,2.998-2.665
					c0.172-0.147,0.39-0.247,0.683-0.428c-0.199,0.816,0.492,0.96,0.926,1.235c0.805,0.494,1.662,0.904,2.491,1.339
					c0.769,0.405,1.551,0.778,2.293,1.201c0.575,0.327,0.676,0.855,0.223,1.336c-0.839,0.892-1.681,1.771-2.554,2.594
					c-0.872,0.822-1.795,1.574-2.677,2.347C116.645,15.678,116.436,15.792,116.145,15.997z"/>
				<path class="st1" d="M108.933,21.273c0.134-0.256,0.231-0.499,0.378-0.704c1.267-1.787,2.691-3.478,4.375-4.905
					c0.377-0.327,0.703-0.367,1.131-0.115c1.086,0.639,2.244,1.053,3.424,1.501c0.631,0.228,1.227,0.581,1.774,0.963
					c0.15,0.105,0.166,0.533,0.113,0.784c-0.051,0.239-0.249,0.46-0.417,0.655c-1.521,1.732-3.044,3.401-4.708,4.934
					c-0.152,0.137-0.327,0.243-0.589,0.437c0.063-0.223,0.067-0.345,0.123-0.42c0.282-0.377,0.167-0.635-0.204-0.821
					c-0.502-0.253-0.994-0.577-1.529-0.73C111.47,22.458,110.235,21.942,108.933,21.273z"/>
			</g>
		</g>
		<g>
			<g>
				<g>
					<path class="st0" d="M14.459,151.44c0.95,0.313,1.845,0.142,2.76-0.112l11.959-3.259c0.417-0.113,0.843-0.195,1.306-0.301
						c-0.031-0.108-0.067-0.236-0.104-0.364c-0.355-1.159-0.553-2.358-0.836-3.535c-0.274-1.18-0.535-2.362-0.718-3.56
						c-0.137-0.788-0.149-1.603-0.512-2.405c0.415,0.249,0.864,0.459,1.237,0.742l3.345,2.547c0.521,0.371,0.811,0.844,0.931,1.441
						c0.431,2.426,1.097,4.799,1.756,7.174c0.249,0.749,0.564,1.48,0.902,2.194c0.147,0.309,0.429,0.56,0.663,0.825
						c0.111,0.126,0.253,0.229,0.381,0.342l-0.089,0.116c-0.493-0.187-0.998-0.362-1.48-0.578c-0.522-0.234-1.048-0.478-1.528-0.781
						c-0.413-0.261-0.8-0.247-1.284-0.087l-10.002,3.276c-0.371,0.121-0.746,0.229-1.111,0.366
						c-0.881,0.331-1.728,0.234-2.565-0.183c-1.648-0.827-3.09-1.928-4.527-3.149c-0.198-0.17-0.371-0.371-0.556-0.558
						L14.459,151.44z"/>
					<path class="st0" d="M6.459,140.11c0.529,0.476,1.14,0.909,1.668,1.402l2.545,2.408c1.047,1.036,1.64,2.277,1.923,3.777
						c0.152,0.983,1.668,7.505,3.993,13.777c2.283,6.289,5.372,12.227,5.839,13.105c0.723,1.475,1.553,2.89,2.365,4.317
						c0.299,0.53,0.604,1.036,1.168,1.31c0.131,0.063,0.23,0.2,0.476,0.423c-0.334-0.047-0.503-0.051-0.662-0.097
						c-2.176-0.652-4.38-1.503-6.345-2.905c-0.437-0.319-0.758-0.708-1.012-1.209c-1.026-1.864-4.554-9.111-7.06-16.755
						c-2.592-7.619-4.058-15.545-4.384-17.645c-0.054-0.3-0.189-0.589-0.299-0.879c-0.113-0.305-0.253-0.603-0.357-0.908
						L6.459,140.11z"/>
				</g>
				<path class="st0" d="M50.881,185.315c-0.805,0.176-1.345,0.563-1.59,1.209c-0.37,0.971-0.633,1.981-0.932,2.988
					c-0.299,1.007-0.569,1.992-0.829,3.008c-0.237,0.938-0.471,1.885-0.658,2.847c-0.391,1.981-0.694,3.996-0.958,5.992
					c-0.082,0.59-0.283,1.163-0.408,1.752c-0.136,0.64-0.566,0.908-1.184,0.931c-0.532,0.02-1.073,0.052-1.609-0.009
					c-1.634-0.165-3.206-0.467-4.827-0.777c-0.362-0.071-0.713-0.246-1.071-0.374l0.012-0.186c0.273,0.01,0.547-0.003,0.817,0.033
					c0.425,0.056,0.661-0.128,0.768-0.506c0.144-0.508,0.328-1.005,0.423-1.521c0.261-1.425,0.5-2.836,0.811-4.267
					c0.223-1.06,0.421-2.119,0.687-3.151c0.576-2.26,1.228-4.464,1.983-6.669c0.106-0.316,0.235-0.625,0.356-0.935
					c0.344-0.881,1.027-1.317,1.92-1.473c1.969-0.34,3.883-0.219,5.831-0.332c0.713-0.036,1.404-0.022,2.127-0.184
					c0.663-0.148,1.356-0.071,2.008-0.018l3.521,0.265c0.333,0.026,0.641,0.144,0.959,0.218l-0.003,0.148
					c-0.262,0.125-0.526,0.315-0.789,0.362c-0.607,0.107-0.827,0.503-0.98,1.02l-0.826,2.809c-0.227,0.839-0.468,1.677-0.635,2.532
					c-0.279,1.439-0.488,2.904-0.698,4.389c-0.028,0.197-0.081,0.393-0.118,0.574c-1.231,0.35-5.295,0.166-6.634-0.408
					c0.292-1.749,0.578-3.501,0.989-5.205C49.734,188.714,50.305,187.043,50.881,185.315z"/>
				<path class="st0" d="M34.225,158.326c-0.817-0.099-1.453,0.089-1.899,0.618c-0.67,0.795-1.252,1.663-1.869,2.516l-1.765,2.565
					c-0.534,0.808-1.066,1.626-1.56,2.474c-1.03,1.747-1.963,3.545-2.87,5.345c-0.271,0.531-0.649,1.006-0.961,1.522
					c-0.338,0.56-0.833,0.673-1.424,0.49c-0.509-0.157-1.03-0.304-1.516-0.538c-1.487-0.694-2.886-1.491-4.308-2.323
					c-0.318-0.186-0.592-0.468-0.888-0.707l0.073-0.172c0.255,0.1,0.517,0.178,0.761,0.301c0.383,0.193,0.666,0.097,0.891-0.225
					c0.303-0.433,0.641-0.842,0.9-1.299c0.726-1.266,1.394-2.511,2.162-3.763c0.561-0.929,1.098-1.864,1.69-2.752
					c1.305-1.951,2.617-3.808,4.066-5.643c0.205-0.263,0.429-0.513,0.646-0.765c0.617-0.719,1.406-0.905,2.298-0.758
					c1.954,0.334,3.747,1.068,5.618,1.604c0.684,0.201,1.33,0.442,2.065,0.527c0.673,0.078,1.301,0.379,1.898,0.643l3.242,1.402
					c0.306,0.134,0.557,0.346,0.832,0.521l-0.052,0.139c-0.289,0.032-0.599,0.125-0.863,0.083c-0.608-0.099-0.946,0.203-1.26,0.641
					l-1.702,2.379c-0.486,0.716-0.993,1.43-1.431,2.182c-0.737,1.268-1.417,2.583-2.104,3.917c-0.091,0.177-0.206,0.345-0.3,0.504
					c-1.28-0.072-5.044-1.586-6.133-2.563c0.853-1.557,1.7-3.119,2.651-4.593C32.03,161.153,33.099,159.772,34.225,158.326z"/>
				<path class="st0" d="M27.625,130.347c-0.752-0.34-1.416-0.352-1.997,0.019c-0.875,0.558-1.688,1.21-2.529,1.839
					c-0.852,0.63-1.671,1.26-2.476,1.918c-0.748,0.61-1.499,1.229-2.221,1.888c-1.464,1.35-2.971,2.794-4.36,4.235
					c-0.416,0.424-0.917,0.763-1.367,1.161c-0.489,0.432-0.995,0.39-1.507,0.039c-0.441-0.302-0.897-0.599-1.293-0.968
					c-1.181-1.114-2.272-2.295-3.394-3.512c-0.249-0.273-0.428-0.623-0.64-0.94l0.12-0.141c0.214,0.171,0.442,0.325,0.638,0.515
					c0.309,0.299,0.608,0.292,0.919,0.053c0.417-0.321,0.861-0.609,1.244-0.967c1.043-0.986,2.118-1.977,3.211-2.938
					c0.811-0.717,1.601-1.446,2.429-2.115c1.804-1.467,3.653-2.845,5.577-4.162c0.274-0.19,0.562-0.36,0.844-0.537
					c0.803-0.501,1.611-0.443,2.42-0.035c1.787,0.904,3.236,2.146,4.871,3.219c0.594,0.398,1.142,0.821,1.819,1.124
					c0.621,0.277,1.132,0.753,1.625,1.186l2.658,2.316c0.254,0.219,0.431,0.498,0.643,0.747l-0.09,0.117
					c-0.286-0.056-0.611-0.061-0.85-0.181c-0.553-0.277-0.965-0.091-1.395,0.232l-2.333,1.757c-0.705,0.54-1.414,1.07-2.045,1.654
					c-1.077,0.986-2.113,2.034-3.162,3.098c-0.139,0.141-0.298,0.267-0.435,0.389c-1.198-0.454-4.39-3.021-5.08-4.289
					c1.274-1.227,2.545-2.461,3.887-3.58C24.661,132.388,26.146,131.387,27.625,130.347z"/>
				<path class="st0" d="M46.211,166.722l-0.678-0.023c-0.32-0.019-0.595,0.069-0.801,0.346l-0.714,0.967
					c-0.684,0.964-1.366,1.941-2.019,2.944c-0.942,1.448-1.787,2.905-2.662,4.403c-0.995,1.714-1.979,3.462-2.92,5.258
					c-0.282,0.553-0.535,1.123-0.797,1.691l0.134,0.11l0.698-0.444l7.643-5.265c0.655-0.441,1.41-0.757,2.143-1.054
					c0.363-0.147,0.8-0.176,1.177-0.152c1.813,0.108,3.462,0.47,5.157,0.821c0.134,0.03,0.261,0.077,0.384,0.127
					c0.03,0.012,0.036,0.066,0.06,0.117c-1.287,0.43-2.438,1.13-3.53,1.973l-14.521,11.184c-0.625,0.485-1.278,0.704-2.041,0.608
					c-2.577-0.337-5.039-1.187-7.48-2.423c-0.046-0.025-0.079-0.078-0.177-0.179c0.049-0.193,0.077-0.437,0.171-0.646
					c0.678-1.512,1.358-3.008,2.116-4.442c1.021-1.925,2.101-3.754,3.247-5.611c0.381-0.622,0.711-1.271,1.077-1.896l0.843-1.386
					l0.426-0.642c1.312-2.094,2.694-4.141,4.155-6.148c0.327-0.453,0.621-0.924,0.971-1.356c0.658-0.815,0.768-1.062,1.981-0.873
					c1.054,0.162,2.045,0.417,2.992,0.725c0.975,0.293,1.921,0.631,2.839,0.986c0.073,0.028,0.118,0.101,0.176,0.153L46.211,166.722
					z"/>
				<g>
					<path class="st0" d="M11.623,105.235c-0.18,0.379-0.586,3.227-0.951,6.1c-0.223,2.885-0.449,5.792-0.338,6.272
						c0.232,0.022,0.482,0.057,0.733,0.068l15.74,0.696c0.596,0.026,1.197,0.045,1.788,0.009c0.857-0.051,1.538,0.293,2.103,0.771
						c1.561,1.305,2.785,2.726,3.965,4.201c0.038,0.048,0.036,0.117,0.074,0.255c-0.213-0.084-0.382-0.123-0.51-0.206
						c-0.59-0.382-1.263-0.347-1.939-0.311c-0.491,0.025-0.981,0.065-1.472,0.069l-16.457,0.087c-0.13,0.001-0.27-0.029-0.388,0.008
						c-0.787,0.248-1.34-0.129-1.822-0.72c-0.438-0.552-0.911-1.08-1.369-1.628c-0.15-0.178-0.299-0.355-0.57-0.677
						c-0.032,0.454-0.063,0.737-0.071,1.021c-0.066,1.442,0.005,2.883,0.033,4.325c0.043,1.442,0.047,2.884,0.187,4.322
						c0.076,0.988-0.016,2.035,0.81,2.816l-0.135,0.097c-0.113-0.067-0.237-0.119-0.336-0.204c-1.571-1.373-3.014-3.005-4.219-4.802
						c-0.481-0.722-0.703-1.515-0.723-2.437c-0.175-8.697,0.57-17.43,2.285-25.99c0.169-0.818,0.565-1.613,0.164-2.48l0.153-0.047
						c0.102,0.127,0.231,0.237,0.301,0.382c0.655,1.371,1.335,2.712,2.053,4.061c0.189,0.364,0.381,0.597,0.792,0.671l17.026,3.14
						c0.813,0.152,1.622,0.369,2.407,0.625c0.372,0.122,0.768,0.356,1.007,0.63c1.265,1.455,2.268,2.975,3.228,4.54
						c0.045,0.076,0.063,0.161,0.123,0.324c-1.35-0.613-2.754-0.711-4.124-0.899l-16.698-2.237
						c-0.465-0.061-0.753-0.304-1.029-0.632C12.862,106.751,12.244,106.038,11.623,105.235z"/>
					<path class="st0" d="M24.508,114.868c-0.449,0.075-0.842,0.081-1.178,0.212c-1.138,0.445-2.261,0.946-3.385,1.465
						c-0.643,0.298-0.665,0.314-1.118-0.18c-1.221-1.331-2.248-2.842-3.157-4.472c-0.105-0.181-0.165-0.375-0.264-0.61
						c0.281-0.137,0.528-0.272,0.786-0.379c1.129-0.47,2.252-0.936,3.391-1.336c0.788-0.277,1.076-0.153,1.608,0.485
						c1.116,1.345,2.047,2.762,2.985,4.206C24.306,114.465,24.408,114.685,24.508,114.868z"/>
				</g>
			</g>
			<g>
				<path class="st1" d="M37.029,99.797c-0.84-0.58-0.902-0.658-1.804-0.01c-1.153,0.847-2.049,1.928-3.078,2.947
					c-0.177,0.177-0.33,0.375-0.525,0.537c-0.322,0.268-0.979,0.241-1.258-0.101c-0.67-0.821-1.34-1.664-1.92-2.565
					c-0.615-0.968-1.18-2.013-1.686-3.046c-0.135-0.277-0.207-0.58-0.325-0.923c0.298,0.114,0.536,0.291,0.709,0.251
					c0.3-0.07,0.657-0.209,0.819-0.427c0.862-1.138,1.967-1.986,3.064-2.867c0.321-0.259,0.698-0.471,1.083-0.643
					c0.468-0.21,0.927-0.086,1.212,0.352c0.637,0.965,1.231,1.901,1.832,2.879c0.603,1.007,1.109,2.033,1.651,3.023
					C36.907,99.392,36.955,99.599,37.029,99.797z"/>
				<path class="st1" d="M20.146,91.298c-0.828-0.58-1.208-0.034-1.657,0.43c-0.578,0.595-1.193,1.165-1.812,1.737l-2.022,1.837
					c-0.441,0.412-0.751,0.407-1.085-0.107c-0.64-0.967-1.188-1.94-1.682-2.989c-0.552-1.196-0.995-2.468-1.463-3.743
					c-0.076-0.212-0.102-0.454-0.16-0.789c0.692,0.469,1.086-0.124,1.487-0.44c0.742-0.586,1.422-1.25,2.117-1.878
					c0.646-0.583,1.263-1.19,1.92-1.739c0.529-0.418,1.063-0.328,1.339,0.259c0.523,1.091,1.073,2.195,1.538,3.301
					c0.47,1.106,0.857,2.235,1.278,3.333C20.021,90.719,20.051,90.954,20.146,91.298z"/>
				<path class="st1" d="M22.598,99.896c-0.194-0.215-0.389-0.39-0.53-0.599c-1.243-1.809-2.325-3.729-3.084-5.806
					c-0.176-0.468-0.101-0.788,0.283-1.101c0.964-0.801,1.779-1.736,2.603-2.69c0.431-0.514,0.967-0.951,1.514-1.331
					c0.15-0.105,0.557,0.03,0.774,0.167c0.207,0.131,0.346,0.394,0.47,0.62c1.112,2.035,2.126,4.035,2.992,6.129
					c0.076,0.19,0.116,0.391,0.207,0.704c-0.188-0.136-0.3-0.182-0.351-0.261c-0.256-0.395-0.538-0.377-0.841-0.094
					c-0.411,0.383-0.884,0.732-1.213,1.181C24.582,97.926,23.678,98.908,22.598,99.896z"/>
			</g>
		</g>
		<g>
			<g>
				<g>
					<path class="st0" d="M113.409,233.927c0.61-0.785,0.746-1.685,0.811-2.632l0.904-12.363c0.032-0.431,0.096-0.859,0.15-1.331
						c-0.112-0.009-0.245-0.019-0.377-0.029c-2.423-0.145-4.816-0.548-7.219-0.854c-0.787-0.145-1.557-0.417-2.432-0.355
						c0.372-0.304,0.718-0.653,1.109-0.906c1.187-0.754,2.361-1.519,3.517-2.336c0.522-0.361,1.065-0.468,1.667-0.373
						c1.214,0.22,2.442,0.333,3.671,0.442c1.229,0.108,2.456,0.256,3.693,0.265c0.791,0.025,1.588-0.017,2.376-0.088
						c0.342-0.031,0.673-0.209,1.002-0.337c0.157-0.064,0.302-0.174,0.451-0.262l0.08,0.119c-0.342,0.424-0.676,0.844-1.043,1.217
						c-0.396,0.409-0.802,0.818-1.249,1.164c-0.385,0.297-0.501,0.665-0.511,1.175l-0.248,10.522
						c-0.009,0.39-0.033,0.78-0.026,1.169c0.018,0.941-0.355,1.704-1.027,2.347c-1.329,1.295-2.847,2.335-4.472,3.233
						c-0.225,0.127-0.472,0.221-0.71,0.331L113.409,233.927z"/>
					<path class="st0" d="M100.073,237.712c0.63-0.368,1.235-0.769,1.876-1.104l3.11-1.565c1.333-0.704,2.699-0.844,4.203-0.581
						c0.973,0.233,7.63,0.864,14.297,0.797c6.675,0.011,13.303-0.959,14.288-1.082c1.632-0.175,3.241-0.512,4.86-0.779
						c0.6-0.102,1.179-0.218,1.627-0.656c0.104-0.101,0.266-0.149,0.559-0.305c-0.156,0.298-0.217,0.456-0.314,0.59
						c-1.345,1.834-2.892,3.598-4.869,5.004c-0.447,0.303-0.922,0.473-1.479,0.541c-2.105,0.318-10.102,1.229-18.117,1.033
						c-8.015-0.128-15.993-1.273-18.072-1.735c-0.301-0.053-0.617-0.025-0.926-0.022l-0.976,0.036L100.073,237.712z"/>
				</g>
				<path class="st0" d="M157.5,210.972c-0.103,0.819,0.082,1.456,0.608,1.903c0.791,0.672,1.654,1.256,2.503,1.874
					c0.854,0.629,1.694,1.215,2.562,1.795c0.804,0.535,1.618,1.07,2.462,1.566c1.729,1.012,3.543,2,5.333,2.906
					c0.529,0.273,1.001,0.652,1.515,0.965c0.558,0.34,0.668,0.836,0.483,1.428c-0.159,0.51-0.308,1.032-0.544,1.518
					c-0.703,1.481-1.52,2.852-2.35,4.288c-0.188,0.319-0.47,0.593-0.71,0.888l-0.171-0.073c0.101-0.255,0.18-0.517,0.304-0.761
					c0.195-0.383,0.1-0.667-0.221-0.893c-0.431-0.304-0.838-0.643-1.293-0.904c-1.252-0.708-2.513-1.431-3.757-2.195
					c-0.925-0.563-1.856-1.102-2.74-1.695c-1.934-1.286-3.8-2.656-5.623-4.102c-0.262-0.206-0.51-0.43-0.761-0.648
					c-0.714-0.619-0.897-1.408-0.746-2.303c0.335-1.98,1.095-3.723,1.637-5.602c0.204-0.685,0.447-1.333,0.535-2.069
					c0.081-0.675,0.384-1.304,0.651-1.902l1.424-3.224c0.135-0.307,0.348-0.558,0.523-0.833l0.138,0.052
					c0.031,0.289,0.122,0.601,0.079,0.865c-0.101,0.609,0.199,0.948,0.634,1.264l2.369,1.712c0.727,0.518,1.429,1.011,2.18,1.454
					c1.261,0.74,2.571,1.422,3.899,2.113c0.176,0.092,0.343,0.206,0.501,0.301c-0.082,1.272-1.592,5.077-2.595,6.12
					c-1.55-0.856-3.105-1.707-4.572-2.66C160.324,213.202,158.929,212.078,157.5,210.972z"/>
				<path class="st0" d="M126.496,217.616c-0.368,0.733-0.404,1.395-0.054,1.995c0.526,0.907,1.148,1.749,1.744,2.581l1.825,2.532
					c0.582,0.777,1.174,1.557,1.807,2.31c1.301,1.571,2.675,3.003,4.068,4.49c0.409,0.435,0.73,0.952,1.111,1.42
					c0.414,0.509,0.353,1.012-0.017,1.505c-0.319,0.425-0.633,0.865-1.016,1.243c-1.155,1.155-2.369,2.254-3.63,3.285
					c-0.282,0.236-0.639,0.397-0.963,0.593l-0.137-0.127c0.179-0.205,0.341-0.425,0.538-0.612c0.31-0.294,0.314-0.592,0.087-0.914
					c-0.306-0.432-0.578-0.889-0.921-1.289l-2.816-3.281c-0.686-0.836-1.386-1.667-2.025-2.525c-1.4-1.891-2.711-3.782-3.956-5.702
					c-0.18-0.284-0.34-0.58-0.505-0.871c-0.471-0.827-0.384-1.632,0.053-2.419c0.968-1.724,2.261-3.24,3.395-4.775
					c0.42-0.573,0.864-1.097,1.191-1.758c0.3-0.608,0.796-1.079,1.244-1.588l2.414-2.575c0.229-0.241,0.515-0.404,0.772-0.603
					l0.114,0.096c-0.067,0.282-0.084,0.606-0.213,0.839c-0.298,0.537-0.127,0.958,0.181,1.403c0.552,0.803,1.102,1.617,1.669,2.384
					c0.511,0.7,1.014,1.42,1.576,2.087c0.947,1.124,1.958,2.21,2.984,3.309c0.136,0.146,0.256,0.31,0.374,0.453
					c-0.497,1.19-3.194,4.176-4.475,4.92c-1.18-1.332-2.368-2.662-3.439-4.059C128.422,220.576,127.484,219.182,126.496,217.616z"/>
				<path class="st0" d="M97.888,214.535c-0.569,0.59-0.801,1.212-0.646,1.888c0.231,1.023,0.575,2.009,0.896,2.981l0.989,2.962
					c0.325,0.916,0.658,1.837,1.039,2.745c0.775,1.889,1.665,3.652,2.553,5.493c0.261,0.538,0.414,1.127,0.639,1.687
					c0.245,0.609,0.037,1.071-0.463,1.432c-0.431,0.311-0.861,0.637-1.34,0.883c-1.444,0.751-2.934,1.454-4.447,2.06
					c-0.34,0.141-0.729,0.189-1.097,0.278l-0.093-0.162c0.232-0.142,0.452-0.304,0.697-0.424c0.384-0.188,0.477-0.472,0.355-0.847
					c-0.164-0.504-0.288-1.021-0.497-1.505l-1.715-3.973c-0.408-1-0.829-2.004-1.184-3.013c-0.774-2.226-1.465-4.408-2.075-6.629
					c-0.087-0.324-0.151-0.654-0.222-0.981c-0.203-0.929,0.122-1.671,0.774-2.292c1.435-1.345,3.122-2.412,4.66-3.54
					c0.57-0.422,1.15-0.791,1.658-1.324c0.467-0.49,1.08-0.796,1.658-1.147l3.065-1.74c0.29-0.162,0.61-0.233,0.914-0.345
					l0.08,0.126c-0.147,0.25-0.26,0.553-0.452,0.737c-0.443,0.424-0.405,0.877-0.244,1.393c0.287,0.937,0.572,1.862,0.885,2.767
					c0.28,0.821,0.546,1.658,0.884,2.463c0.57,1.356,1.213,2.694,1.866,4.05c0.087,0.179,0.152,0.376,0.223,0.54
					c-0.829,0.997-4.288,3.034-5.733,3.367c-0.734-1.612-1.47-3.244-2.077-4.894C98.844,217.934,98.363,216.324,97.888,214.535z"/>
				<path class="st0" d="M138.438,209.134l-0.25,0.63c-0.126,0.294-0.135,0.583,0.056,0.871l0.671,0.999
					c0.679,0.97,1.37,1.942,2.095,2.895c1.044,1.36,2.134,2.657,3.251,3.982c1.28,1.513,2.597,3.028,3.973,4.518
					c0.426,0.452,0.879,0.88,1.326,1.317l0.148-0.089l-0.184-0.806l-2.396-8.967c-0.195-0.765-0.24-1.582-0.275-2.372
					c-0.017-0.391,0.102-0.812,0.251-1.16c0.706-1.678,1.603-3.097,2.497-4.58c0.073-0.117,0.16-0.22,0.248-0.32
					c0.022-0.025,0.074-0.012,0.13-0.018c-0.025,1.358,0.25,2.676,0.679,3.988l5.673,17.428c0.248,0.751,0.235,1.441-0.112,2.128
					c-1.186,2.307-2.812,4.349-4.799,6.235c-0.039,0.035-0.1,0.048-0.228,0.107c-0.165-0.111-0.387-0.22-0.552-0.378
					c-1.198-1.146-2.379-2.29-3.476-3.486c-1.472-1.616-2.83-3.23-4.195-4.939c-0.458-0.568-0.959-1.099-1.425-1.654l-1.022-1.262
					l-0.462-0.618c-1.534-1.956-2.992-3.914-4.393-5.974c-0.317-0.461-0.662-0.898-0.952-1.373
					c-0.547-0.895-0.742-1.083-0.157-2.159c1.02-1.841,2.29-3.41,3.571-4.917c0.051-0.059,0.135-0.077,0.203-0.113L138.438,209.134z
					"/>
				<g>
					<path class="st0" d="M68.875,221.199c0.316,0.258,2.831,1.663,5.436,2.93c2.628,1.222,5.311,2.365,5.801,2.426
						c0.099-0.211,0.215-0.435,0.31-0.668l5.93-14.597c0.224-0.553,0.443-1.112,0.609-1.682c0.24-0.825,0.79-1.349,1.427-1.718
						c1.74-1.01,3.488-1.7,5.274-2.343c0.057-0.02,0.122,0.007,0.263,0.018c-0.149,0.172-0.243,0.317-0.363,0.41
						c-0.554,0.425-0.746,1.071-0.939,1.72c-0.14,0.471-0.266,0.947-0.428,1.411l-5.414,15.541
						c-0.043,0.123-0.118,0.244-0.122,0.369c-0.03,0.83-0.566,1.212-1.289,1.476l-2.005,0.774c-0.217,0.08-0.434,0.16-0.827,0.305
						c0.416,0.186,0.673,0.313,0.938,0.417c2.73,0.945,5.453,1.925,8.25,2.659c0.956,0.265,1.908,0.726,2.922,0.198l0.047,0.157
						c-0.101,0.086-0.192,0.189-0.306,0.257c-1.82,1.028-3.819,1.77-5.936,2.358c-0.856,0.252-1.667,0.16-2.546-0.13
						c-8.284-2.754-16.266-6.406-23.747-10.891c-0.721-0.422-1.33-1.07-2.282-0.981l0.007-0.16c0.154-0.053,0.301-0.138,0.461-0.155
						c1.506-0.151,3.005-0.354,4.514-0.573c0.406-0.055,0.69-0.158,0.898-0.519l8.678-14.982c0.417-0.715,0.892-1.404,1.397-2.057
						c0.239-0.31,0.593-0.603,0.931-0.736c1.787-0.687,3.571-1.147,5.361-1.516c0.086-0.017,0.172-0.004,0.346-0.006
						c-1.03,1.064-1.594,2.354-2.231,3.581l-7.718,14.975c-0.213,0.418-0.538,0.606-0.94,0.755
						C70.713,220.534,69.844,220.848,68.875,221.199z"/>
					<path class="st0" d="M82.279,212.295c-0.08,0.448-0.207,0.822-0.196,1.183c0.036,1.225,0.129,2.454,0.24,3.69
						c0.069,0.697,0.074,0.729-0.544,0.993c-1.66,0.696-3.425,1.149-5.263,1.448c-0.203,0.033-0.412,0.037-0.671,0.058
						c-0.04-0.301-0.081-0.585-0.095-0.863c-0.062-1.224-0.123-2.44-0.116-3.649c0.005-0.837,0.217-1.066,0.997-1.351
						c1.632-0.58,3.301-1.025,4.966-1.405C81.833,212.348,82.073,212.326,82.279,212.295z"/>
				</g>
			</g>
			<g>
				<path class="st1" d="M72.287,195.434c-0.829,0.597-0.923,0.628-0.614,1.696c0.413,1.371,1.129,2.581,1.744,3.892
					c0.108,0.226,0.242,0.437,0.33,0.676c0.144,0.394-0.102,1.003-0.518,1.151c-0.999,0.355-2.017,0.702-3.061,0.945
					c-1.119,0.254-2.292,0.433-3.435,0.564c-0.306,0.035-0.616,0.001-0.979-0.003c0.207-0.242,0.454-0.408,0.474-0.584
					c0.035-0.306,0.024-0.689-0.128-0.915c-0.783-1.195-1.216-2.515-1.674-3.851c-0.137-0.389-0.211-0.815-0.245-1.235
					c-0.041-0.511,0.229-0.902,0.737-1.024c1.125-0.278,2.206-0.524,3.327-0.758c1.152-0.231,2.289-0.362,3.405-0.541
					C71.864,195.413,72.075,195.437,72.287,195.434z"/>
				<path class="st1" d="M58.616,208.49c-0.824,0.586-0.437,1.127-0.151,1.705c0.367,0.744,0.697,1.513,1.028,2.288l1.051,2.519
					c0.24,0.554,0.131,0.844-0.465,0.986c-1.125,0.278-2.225,0.47-3.379,0.583c-1.311,0.119-2.658,0.112-4.014,0.126
					c-0.225,0-0.463-0.055-0.793-0.118c0.674-0.495,0.247-1.064,0.084-1.546c-0.303-0.893-0.701-1.755-1.061-2.618
					c-0.33-0.806-0.705-1.577-0.989-2.395c-0.217-0.637,0.046-1.11,0.692-1.174c1.19-0.114,2.424-0.275,3.619-0.342
					c1.2-0.074,2.394-0.062,3.57-0.092C58.035,208.406,58.259,208.465,58.616,208.49z"/>
				<path class="st1" d="M67.537,209.064c-0.267,0.11-0.497,0.235-0.742,0.298c-2.12,0.561-4.292,0.937-6.503,0.957
					c-0.5,0.01-0.776-0.168-0.943-0.635c-0.434-1.173-1.034-2.263-1.66-3.355c-0.34-0.577-0.573-1.228-0.748-1.87
					c-0.048-0.176,0.214-0.514,0.416-0.673c0.192-0.151,0.487-0.195,0.742-0.236c2.294-0.373,4.514-0.651,6.778-0.765
					c0.205-0.008,0.407,0.022,0.733,0.041c-0.191,0.131-0.273,0.222-0.364,0.243c-0.459,0.109-0.535,0.381-0.37,0.761
					c0.224,0.515,0.394,1.079,0.706,1.538C66.349,206.53,66.969,207.715,67.537,209.064z"/>
			</g>
		</g>
		<g>
			<g>
				<g>
					<path class="st0" d="M223.51,169.839c-0.526-0.849-1.322-1.292-2.186-1.684l-11.264-5.174
						c-0.392-0.181-0.771-0.391-1.195-0.607c-0.046,0.102-0.101,0.223-0.156,0.345c-0.482,1.112-1.062,2.177-1.622,3.251
						c-0.563,1.073-1.098,2.16-1.731,3.194c-0.402,0.692-0.917,1.323-1.155,2.171c-0.158-0.457-0.367-0.906-0.471-1.362
						c-0.324-1.395-0.599-2.748-0.939-4.104c-0.16-0.618-0.077-1.167,0.216-1.7c1.228-2.137,2.246-4.384,3.248-6.635
						c0.294-0.733,0.526-1.494,0.729-2.257c0.088-0.331,0.034-0.703,0.027-1.056c-0.003-0.168-0.045-0.338-0.07-0.506l0.142-0.032
						c0.258,0.46,0.53,0.917,0.76,1.392c0.248,0.514,0.493,1.038,0.664,1.577c0.147,0.464,0.452,0.702,0.926,0.89l9.773,3.906
						c0.362,0.145,0.719,0.303,1.086,0.432c0.888,0.312,1.474,0.929,1.846,1.785c0.763,1.705,1.14,3.464,1.457,5.322
						c0.042,0.257,0.045,0.522,0.066,0.784L223.51,169.839z"/>
					<path class="st0" d="M222.387,183.663c-0.112-0.711-0.293-1.429-0.384-2.147l-0.403-3.477
						c-0.134-1.464,0.183-2.809,0.944-4.132c0.529-0.844,3.52-6.832,5.767-13.13c2.335-6.272,3.714-12.831,3.944-13.797
						c0.401-1.594,0.644-3.218,0.952-4.83c0.112-0.598,0.203-1.182-0.053-1.754c-0.059-0.132-0.047-0.301-0.093-0.63
						c0.226,0.25,0.353,0.361,0.444,0.499c1.255,1.897,2.375,3.96,3.007,6.301c0.129,0.524,0.124,1.03-0.004,1.577
						c-0.428,2.084-2.347,9.915-5.339,17.384c-2.907,7.502-6.848,14.528-7.956,16.343c-0.152,0.264-0.234,0.572-0.336,0.865
						l-0.304,0.928L222.387,183.663z"/>
				</g>
				<path class="st0" d="M217.294,120.484c0.737,0.383,1.4,0.432,1.997,0.095c0.899-0.507,1.739-1.112,2.607-1.692l2.608-1.775
					c0.789-0.566,1.631-1.145,2.357-1.759c1.525-1.263,3.02-2.61,4.541-3.973c0.446-0.4,0.972-0.711,1.45-1.082
					c0.52-0.404,1.02-0.333,1.503,0.048c0.416,0.328,0.846,0.651,1.213,1.042c1.103,1.18,2.195,2.416,3.26,3.693
					c0.224,0.287,0.371,0.647,0.553,0.975l-0.132,0.134c-0.198-0.183-0.41-0.349-0.589-0.55c-0.281-0.316-0.579-0.327-0.909-0.106
					c-0.444,0.297-0.911,0.559-1.324,0.895l-3.393,2.749c-0.842,0.669-1.664,1.352-2.521,1.972c-1.85,1.361-3.836,2.632-5.802,3.838
					c-0.283,0.174-0.579,0.328-0.87,0.488c-0.827,0.455-1.631,0.351-2.418-0.103c-1.763-1.004-3.09-2.326-4.678-3.491
					c-0.577-0.431-1.106-0.885-1.771-1.226c-0.609-0.312-1.1-0.817-1.575-1.277l-2.458-2.472c-0.234-0.234-0.416-0.521-0.619-0.781
					l0.094-0.111c0.285,0.072,0.611,0.096,0.848,0.229c0.547,0.307,0.965,0.145,1.404-0.152l2.385-1.617
					c0.714-0.498,1.448-0.986,2.131-1.534c1.15-0.925,2.264-1.914,3.392-2.918c0.15-0.133,0.317-0.25,0.463-0.365
					c1.174,0.523,4.076,3.283,4.786,4.579c-1.291,1.148-2.633,2.306-4.097,3.351C220.311,118.616,218.831,119.529,217.294,120.484z"
					/>
				<path class="st0" d="M212.781,151.878c0.561,0.6,1.169,0.864,1.852,0.744c1.02-0.181,2.051-0.464,3.034-0.735l3.005-0.833
					c0.93-0.277,1.866-0.561,2.791-0.894c1.922-0.676,3.752-1.466,5.624-2.26c0.55-0.233,1.146-0.355,1.717-0.55
					c0.62-0.212,1.071,0.019,1.406,0.537c0.289,0.447,0.592,0.894,0.814,1.385c0.687,1.485,1.287,3.004,1.82,4.549
					c0.123,0.347,0.152,0.738,0.223,1.111l-0.166,0.085c-0.13-0.24-0.281-0.468-0.388-0.718c-0.168-0.394-0.447-0.501-0.827-0.399
					c-0.511,0.137-1.034,0.234-1.527,0.418l-4.06,1.503c-1.029,0.352-2.044,0.723-3.071,1.024c-2.267,0.654-4.456,1.239-6.733,1.721
					c-0.327,0.07-0.66,0.117-0.989,0.171c-0.937,0.154-1.661-0.209-2.249-0.894c-1.274-1.507-2.223-3.236-3.286-4.838
					c-0.393-0.592-0.732-1.191-1.239-1.727c-0.47-0.493-0.737-1.12-1.049-1.713l-1.584-3.154c-0.148-0.298-0.202-0.622-0.299-0.932
					l0.13-0.073c0.242,0.16,0.539,0.289,0.713,0.49c0.401,0.465,0.855,0.451,1.378,0.317c0.938-0.24,1.903-0.47,2.818-0.735
					c0.833-0.237,1.682-0.458,2.502-0.754c1.382-0.498,2.75-1.071,4.136-1.652c0.184-0.077,0.38-0.133,0.554-0.194
					c0.942,0.878,2.818,4.445,3.063,5.902c-1.657,0.646-3.315,1.298-4.994,1.818C216.246,151.109,214.586,151.496,212.781,151.878z"
					/>
				<path class="st0" d="M199.887,177.576c0.359,0.744,0.861,1.179,1.545,1.267c1.028,0.133,2.069,0.153,3.116,0.21
					c1.055,0.062,2.097,0.11,3.132,0.119c0.965,0.012,1.938,0.018,2.915-0.024c1.993-0.094,4.066-0.241,6.058-0.454
					c0.592-0.058,1.194,0.003,1.795-0.013c0.653-0.018,1.014,0.339,1.181,0.937c0.144,0.514,0.302,1.034,0.37,1.571
					c0.201,1.617,0.273,3.219,0.355,4.874c0.016,0.369-0.071,0.753-0.112,1.132l-0.183,0.031c-0.054-0.269-0.131-0.532-0.16-0.805
					c-0.045-0.428-0.279-0.614-0.671-0.63c-0.526-0.021-1.051-0.085-1.575-0.056c-1.432,0.087-2.901,0.154-4.35,0.194
					c-1.081,0.031-2.154,0.085-3.217,0.068c-2.315-0.024-4.647-0.175-6.952-0.388c-0.331-0.03-0.661-0.083-0.99-0.129
					c-0.935-0.129-1.518-0.693-1.878-1.527c-0.808-1.853-1.098-3.716-1.669-5.592c-0.202-0.687-0.351-1.364-0.678-2.031
					c-0.299-0.611-0.387-1.305-0.489-1.953l-0.551-3.48c-0.054-0.331-0.012-0.659-0.014-0.986l0.144-0.032
					c0.183,0.226,0.429,0.439,0.536,0.684c0.246,0.567,0.682,0.689,1.219,0.716l2.917,0.149c0.889,0.038,1.762,0.08,2.626,0.04
					c1.46-0.065,2.929-0.204,4.418-0.346c0.198-0.019,0.4-0.013,0.584-0.019c0.622,1.114,1.427,5.133,1.144,6.548
					c-1.764,0.124-3.531,0.255-5.279,0.253C203.461,177.905,201.688,177.727,199.887,177.576z"/>
				<path class="st0" d="M208.967,137.749l0.504,0.453c0.232,0.22,0.5,0.328,0.836,0.249l1.169-0.284
					c1.145-0.301,2.296-0.612,3.441-0.962c1.64-0.508,3.231-1.083,4.861-1.671c1.863-0.676,3.739-1.387,5.613-2.161
					c0.581-0.242,1.132-0.518,1.699-0.786l-0.033-0.17l-0.82-0.107l-9.241-0.864c-0.785-0.082-1.568-0.324-2.321-0.566
					c-0.373-0.12-0.727-0.379-1.002-0.639c-1.339-1.248-2.341-2.582-3.423-3.941c-0.084-0.109-0.152-0.227-0.215-0.345
					c-0.016-0.029,0.015-0.074,0.028-0.128c1.266,0.498,2.598,0.698,3.977,0.753l18.313,0.74c0.79,0.029,1.433,0.28,1.959,0.843
					c1.726,1.909,3.108,4.142,4.174,6.654c0.019,0.049,0.01,0.111,0.021,0.251c-0.161,0.117-0.34,0.286-0.546,0.386
					c-1.49,0.725-2.971,1.436-4.473,2.05c-2.024,0.821-4.011,1.534-6.087,2.222c-0.692,0.233-1.363,0.519-2.045,0.764l-1.537,0.522
					l-0.739,0.219c-2.365,0.762-4.709,1.451-7.126,2.051c-0.542,0.137-1.071,0.31-1.617,0.417c-1.029,0.202-1.273,0.321-2.08-0.601
					c-1.375-1.594-2.405-3.327-3.376-5.052c-0.038-0.068-0.025-0.153-0.036-0.23L208.967,137.749z"/>
				<g>
					<path class="st0" d="M196.015,207.08c0.183-0.096,0.827-0.604,1.699-1.326c0.829-0.77,1.886-1.751,2.947-2.735
						c2.1-1.993,4.02-4.192,4.307-4.572c-0.163-0.166-0.332-0.353-0.517-0.522l-11.615-10.645c-0.44-0.403-0.888-0.803-1.367-1.158
						c-0.696-0.518-0.975-1.198-1.104-1.929c-0.355-2-0.435-3.918-0.348-5.765c0.001-0.061,0.047-0.113,0.105-0.243
						c0.11,0.201,0.214,0.34,0.26,0.486c0.2,0.665,0.735,1.067,1.279,1.476c0.393,0.296,0.796,0.581,1.175,0.895l12.674,10.499
						c0.1,0.083,0.187,0.195,0.303,0.244c0.772,0.323,0.935,0.951,0.918,1.709c-0.016,0.707,0.011,1.42,0.013,2.137
						c0.002,0.233,0.003,0.466,0.006,0.888c0.314-0.33,0.518-0.529,0.704-0.744c0.96-1.079,1.885-2.186,2.761-3.335
						c0.877-1.146,1.819-2.244,2.634-3.437c0.574-0.809,1.314-1.555,1.181-2.684l0.166,0.012c0.043,0.124,0.106,0.244,0.127,0.373
						c0.321,2.059,0.403,4.254,0.149,6.389c-0.093,0.866-0.428,1.619-1.002,2.343c-5.439,6.812-11.637,13.012-18.465,18.433
						c-0.656,0.517-1.452,0.892-1.695,1.821l-0.147-0.062c0.002-0.164-0.027-0.332,0.011-0.49l1.036-4.423
						c0.094-0.394,0.1-0.691-0.167-1.012l-11.037-13.34c-0.525-0.638-1.005-1.323-1.445-2.025c-0.208-0.333-0.363-0.769-0.373-1.136
						c-0.056-1.953,0.139-3.782,0.449-5.552c0.013-0.088,0.054-0.166,0.11-0.331c0.646,1.343,1.658,2.319,2.587,3.342l11.36,12.441
						c0.317,0.344,0.388,0.722,0.38,1.141C196.052,205.151,196.034,206.063,196.015,207.08z"/>
					<path class="st0" d="M192.352,191.447c0.391,0.229,0.696,0.478,1.036,0.592c1.154,0.385,2.331,0.719,3.52,1.037
						c0.681,0.182,0.708,0.184,0.743,0.857c0.08,1.803-0.05,3.674-0.461,5.448c-0.043,0.199-0.116,0.392-0.19,0.637
						c-0.302-0.073-0.576-0.127-0.841-0.21c-1.161-0.36-2.315-0.717-3.44-1.137c-0.778-0.29-0.92-0.57-0.924-1.408
						c-0.013-1.771,0.184-3.456,0.424-5.133C192.251,191.888,192.312,191.653,192.352,191.447z"/>
				</g>
			</g>
			<g>
				<path class="st1" d="M173.048,194.95c0.277,0.991,0.274,1.091,1.372,1.156c1.426,0.083,2.861-0.098,4.267-0.271
					c0.246-0.026,0.489-0.083,0.74-0.086c0.415-0.004,0.9,0.436,0.898,0.882c-0.005,1.071-0.025,2.158-0.149,3.234
					c-0.148,1.141-0.428,2.246-0.69,3.382c-0.071,0.303-0.207,0.586-0.333,0.931c-0.156-0.279-0.227-0.57-0.384-0.648
					c-0.273-0.136-0.633-0.255-0.895-0.186c-1.351,0.381-2.826,0.197-4.205,0.216c-0.408,0-0.83-0.073-1.232-0.182
					c-0.49-0.133-0.762-0.521-0.704-1.046c0.128-1.154,0.242-2.3,0.432-3.4l0.681-3.369
					C172.887,195.346,172.98,195.153,173.048,194.95z"/>
				<path class="st1" d="M180.545,212.291c0.259,0.969,0.91,0.808,1.56,0.753l2.504-0.167l2.713-0.132
					c0.61-0.022,0.846,0.182,0.766,0.782c-0.15,1.124-0.323,2.262-0.614,3.387c-0.323,1.3-0.811,2.54-1.287,3.79
					c-0.079,0.209-0.221,0.401-0.39,0.698c-0.233-0.808-0.909-0.594-1.413-0.602c-0.939-0.019-1.869,0.084-2.808,0.113
					c-0.878,0.018-1.751,0.069-2.614,0.058c-0.669-0.008-1.019-0.418-0.859-1.053c0.295-1.176,0.601-2.342,0.96-3.474
					c0.343-1.157,0.756-2.294,1.128-3.42C180.263,212.806,180.391,212.607,180.545,212.291z"/>
				<path class="st1" d="M184.197,204.152c0.012,0.291,0.051,0.553,0.028,0.806c-0.224,2.162-0.653,4.291-1.362,6.428
					c-0.158,0.482-0.42,0.681-0.924,0.661c-1.276-0.038-2.508,0.145-3.728,0.386c-0.656,0.124-1.331,0.143-2.008,0.062
					c-0.184-0.019-0.41-0.383-0.488-0.626c-0.074-0.232-0.01-0.518,0.042-0.767c0.44-2.292,0.91-4.533,1.637-6.621
					c0.065-0.191,0.159-0.378,0.287-0.681c0.058,0.226,0.114,0.334,0.104,0.429c-0.053,0.473,0.174,0.638,0.583,0.609
					c0.555-0.039,1.137-0.011,1.671-0.153C181.358,204.316,182.773,204.268,184.197,204.152z"/>
			</g>
		</g>
	</g>
	<g>
		<path class="st2" d="M143.388,27.988c-1.369,0.258-3.086,0.466-5.006,0.057c-4.823-1.027-7.247-4.793-6.249-9.479
			c1.135-5.326,4.938-7.479,9.35-6.54c1.737,0.37,4.098,1.518,4.979,2.088l-0.607,3.526l-0.777-0.166
			c-0.187-2.716-1.584-4.232-3.893-4.724c-3.177-0.677-5.811,1.702-6.74,6.067c-0.939,4.412,0.469,7.674,4.218,8.473
			c2.194,0.467,3.972-0.588,4.895-2.9l0.868,0.185L143.388,27.988z"/>
		<path class="st2" d="M148.148,21.903c1.634-4.252,5.349-6.628,10.103-4.802c4.884,1.876,5.756,5.99,4.089,10.329
			c-1.634,4.252-5.357,6.65-10.11,4.824C147.345,30.378,146.481,26.243,148.148,21.903z M160.182,26.602
			c1.768-4.601,0.75-7.619-2.521-8.876c-2.987-1.147-5.829,1.039-7.354,5.007c-1.768,4.601-0.758,7.641,2.513,8.897
			C155.807,32.778,158.656,30.57,160.182,26.602z"/>
		<path class="st2" d="M176.996,44.381l-0.266,0.44l-5.657-3.42l0.266-0.44l2.201,0.648l6.804-11.254l-11.998,9.642l-0.699-0.423
			l2.517-14.501l-6.441,10.654l1.621,1.608l-0.266,0.439l-4.698-2.84l0.267-0.439l2.177,0.688l6.985-11.554l-1.598-1.647l0.267-0.44
			l4.037,2.441l-2.332,13.248l10.328-8.414l4.317,2.61l-0.266,0.439l-2.201-0.648l-6.961,11.514L176.996,44.381z"/>
		<path class="st2" d="M181.697,47.862l1.355,1.851l-0.323,0.399l-5.135-4.163l0.323-0.399l2.092,0.944l8.473-10.45l-1.355-1.851
			l0.323-0.399l5.135,4.163l-0.324,0.399l-2.091-0.944L181.697,47.862z"/>
		<path class="st2" d="M184.258,50.601l1.98,1.159l9.527-9.501l-1.153-1.983l0.364-0.363l8.148,8.171l-2.861,2.854l-0.43-0.43
			l1.458-3.037l-3.827-3.837l-4.366,4.354l2.326,2.333l2.215-1.054l0.362,0.364l-3.87,3.86l-0.363-0.364l1.061-2.212l-2.326-2.333
			l-4.896,4.883l3.876,3.887l3.769-1.646l0.379,0.38l-3.473,3.167l-8.264-8.287L184.258,50.601z"/>
		<path class="st2" d="M201.267,71.441l5.249-16.532l-10.28,7.557l0.95,2.201l-0.414,0.305l-3.321-4.519l0.414-0.305l1.748,1.471
			l10.884-8l-0.845-2.135l0.414-0.305l2.755,3.747l-4.48,13.792l8.643-6.353l-0.951-2.201l0.415-0.304l3.321,4.519l-0.414,0.304
			l-1.748-1.47l-11.938,8.774L201.267,71.441z"/>
		<path class="st2" d="M209.279,85.495l-5.69-10.892l0.414-0.216l16.998,1.609l-3.202-6.129l-3.335,0.478l-0.281-0.539l3.582-1.872
			l5.29,10.125l-0.414,0.216l-17.03-1.619l3.56,6.812l4.12-0.439l0.248,0.476L209.279,85.495z"/>
		<path class="st2" d="M217.484,84.363c4.306-1.491,8.518-0.18,10.185,4.633c1.712,4.946-0.873,8.264-5.267,9.785
			c-4.306,1.491-8.54,0.188-10.206-4.625C210.483,89.21,213.091,85.884,217.484,84.363z M221.646,96.596
			c4.659-1.613,6.312-4.337,5.165-7.648c-1.047-3.025-4.551-3.79-8.569-2.398c-4.659,1.613-6.334,4.344-5.188,7.656
			C214.101,97.23,217.627,97.987,221.646,96.596z"/>
	</g>
</g>
</svg>
