<?xml version="1.0" encoding="utf-8"?>
<!-- Generator: Adobe Illustrator 17.0.0, SVG Export Plug-In . SVG Version: 6.00 Build 0)  -->
<!DOCTYPE svg PUBLIC "-//W3C//DTD SVG 1.1//EN" "http://www.w3.org/Graphics/SVG/1.1/DTD/svg11.dtd">
<svg version="1.1" id="Capa_1" xmlns="http://www.w3.org/2000/svg" xmlns:xlink="http://www.w3.org/1999/xlink" x="0px" y="0px"
	 width="375px" height="372px" viewBox="0 0 375 372" enable-background="new 0 0 375 372" xml:space="preserve">
<g>
	<g>
		<g>
			<g>
				<g>
					<path fill="#C1C1C1" d="M52.741,105.375c-0.032-0.678-0.421-0.788-0.95-0.791c-1.72-0.011-3.431-0.022-5.146-0.034
						l-0.979-0.017c-0.373,0.003-0.575-0.169-0.639-0.57c-0.388-2.429-0.486-4.973-0.288-7.627c0.01-0.128,0.064-0.262,0.117-0.473
						c2.339,0.029,4.73,0.172,7.045,0.287c0.517,0.027,0.661,0.407,0.755,0.823c0.093,0.416,0.155,0.854,0.159,1.294
						c-0.019,2.035,0.134,4.152,0.217,6.188c0.013,0.268-0.058,0.553-0.09,0.829L52.741,105.375z"/>
					<path fill="#C1C1C1" d="M58.497,99.905c-0.076-0.159-0.028-0.323-0.041-0.473c-0.18-2.202-0.4-4.482-0.49-6.723
						c-0.065-1.907-0.504-3.694-1.021-5.464c-0.292-1.003-1.076-1.484-1.973-1.747c-0.572-0.168-1.238-0.12-1.865-0.161
						c-3.089-0.193-6.307-0.398-9.419-0.389c-1.293-0.002-2.627,0.147-3.927,0.136c-0.816-0.008-1.748,0.224-2.401-0.514
						c-0.097,0.302-0.162,0.444-0.182,0.58c-0.434,2.791-0.524,5.485-0.206,8.132c0.057,0.528,0.334,0.782,0.782,0.821
						c0.323,0.028,0.65,0.047,0.98,0.023c1.057-0.079,2.115-0.192,3.161-0.246c1.393-0.082,2.847-0.066,4.258-0.077
						c0.936-0.004,1.872-0.015,2.798,0.008c1.82,0.047,3.622,0.141,5.413,0.231c0.879,0.045,1.605,0.438,1.955,1.199
						c0.759,1.652,1.207,3.449,1.291,5.361c0.021,0.486-0.122,0.915-0.429,1.343c-0.556,0.737-0.968,1.568-1.455,2.35
						c-0.362,0.604-0.6,1.235-0.612,1.922c-0.029,2.34,0.091,4.571,0.676,6.78c0.036,0.145,0.142,0.265,0.208,0.378
						c0.296-0.558,0.548-1.072,0.832-1.565c0.885-1.344,2.671-4.521,4.579-7.592c1.99-3.018,3.893-6.065,4.871-7.188
						c0.516-0.657,0.751-1.356,0.864-2.154c0.195-1.365,0.126-3.004,0.016-4.314c-0.135-1.302-0.233-2.255-0.233-2.255
						C63.895,91.998,61.401,95.766,58.497,99.905z"/>
				</g>
				<g>
					<path fill="#C1C1C1" d="M76.826,74.239c0.145-0.656-0.207-0.861-0.722-0.997c-1.678-0.454-3.276-0.852-4.94-1.265l-0.935-0.247
						c-0.358-0.085-0.513-0.302-0.483-0.715c0.145-2.526,0.725-4.971,1.608-7.458c0.042-0.121,0.13-0.235,0.238-0.423
						c2.286,0.633,4.51,1.299,6.713,1.969c0.488,0.149,0.539,0.557,0.533,0.991c-0.007,0.432-0.048,0.88-0.146,1.315
						c-0.447,2.004-0.895,4.014-1.344,6.025c-0.057,0.259-0.201,0.513-0.303,0.769L76.826,74.239z"/>
					<path fill="#C1C1C1" d="M83.756,70.363c-0.037-0.175,0.048-0.326,0.07-0.477c0.379-2.166,0.803-4.348,1.248-6.57
						c0.387-1.892,0.371-3.775,0.31-5.62c-0.024-1.031-0.664-1.695-1.473-2.178c-0.518-0.312-1.179-0.436-1.766-0.619
						c-2.933-0.937-5.918-1.836-8.982-2.647c-1.265-0.335-2.608-0.534-3.877-0.877c-0.796-0.217-1.769-0.234-2.213-1.106
						c-0.174,0.265-0.275,0.382-0.33,0.509c-1.06,2.663-1.78,5.294-2.18,7.881c-0.08,0.52,0.124,0.834,0.551,0.985
						c0.308,0.108,0.622,0.21,0.952,0.271c1.053,0.192,2.116,0.353,3.151,0.568c1.393,0.289,2.761,0.621,4.124,0.95
						c0.899,0.217,1.799,0.425,2.681,0.667c1.718,0.458,3.492,1.05,5.209,1.586c0.848,0.269,1.456,0.833,1.599,1.649
						c0.314,1.775,0.258,3.576-0.078,5.507c-0.091,0.484-0.326,0.875-0.719,1.226c-0.685,0.615-1.338,1.266-2.006,1.901
						c-0.51,0.485-0.907,1.027-1.096,1.681C78.3,77.884,78,80.206,77.953,82.425c-0.002,0.149,0.071,0.29,0.105,0.415
						c0.433-0.461,0.81-0.889,1.215-1.289c2.134-2.404,10.386-10.223,12.759-12.009c0.65-0.522,1.022-1.174,1.335-1.911
						c1.084-2.485,1.479-6.34,1.479-6.34C90.881,63.969,87.702,67.201,83.756,70.363z"/>
				</g>
				<path fill="#C1C1C1" d="M63.563,56.417c-0.315,1.405-0.629,2.801-0.946,4.216c-0.233,1.109-0.54,2.221-0.819,3.323
					c-0.297,1.176-0.884,2.225-1.825,3.142c-0.313,0.304-0.601,0.636-0.97,1.03c0.229,0.256,0.395,0.475,0.595,0.657l18.886,17.12
					c0.692,0.627,1.366,1.279,2.112,1.842c0.869,0.657,1.185,1.62,1.258,2.605c0.216,2.428,0.069,4.889-0.27,7.261
					c-0.015,0.102-0.077,0.2-0.117,0.298c-0.065-0.021-0.106-0.025-0.109-0.038c-0.248-1.275-1.065-2.108-2.034-2.903L57.646,77.054
					c-0.498-0.411-0.748-0.879-0.694-1.623c0.086-1.387,0.172-2.763,0.257-4.143c0.026-0.322,0.052-0.645,0.09-1.13
					c-1.079,0.921-1.646,2.055-2.467,2.961c-0.842,0.928-1.622,1.916-2.428,2.88c-0.828,0.946-1.576,1.954-2.311,2.971
					c-0.725,1.013-1.407,2.054-2.158,3.159c-0.043-0.201-0.113-0.377-0.118-0.574c-0.053-2.362,0.215-4.832,0.674-7.327
					c0.259-1.199,1.056-2.18,1.831-3.134c1.929-2.342,3.855-4.691,5.964-6.879c2.035-2.145,3.924-4.432,6.045-6.497
					c0.389-0.39,0.684-0.867,1.025-1.305L63.563,56.417z"/>
				<g>
					<path fill="#C1C1C1" d="M82.525,54.97c0.407-1.397,0.819-2.776,1.316-4.174c0.369-1.025,0.83-2.05,1.316-3.07
						c0.167-0.351,0.456-0.716,0.77-0.99c4.505-3.781,9.487-6.969,14.566-9.936c0.157-0.095,0.31-0.197,0.472-0.28
						c0.969-0.495,1.628-0.392,2.078,0.381l2.958,5.162c1.775,3.024,3.542,6.054,5.362,9.05l4.674,7.486
						c0.236,0.382,0.439,0.803,0.539,1.234c0.096,0.403,0.143,0.874,0.036,1.28c-0.59,2.247-1.459,4.362-2.469,6.383
						c-0.049,0.099-0.139,0.18-0.231,0.295c-0.826-2.313-2.335-4.185-3.732-6.121l-0.241-0.35l-6.241-9.619l-4.527-6.88
						c-0.558-0.843-1.14-0.957-2.216-0.241c-3.37,2.317-6.844,4.493-10.027,7.07c-0.871,0.672-1.665,1.44-2.51,2.143
						c-0.532,0.445-1.104,0.843-1.649,1.273L82.525,54.97z"/>
					<path fill="#C1C1C1" d="M79.71,48.779c0.26-0.876,0.474-1.762,0.808-2.641c0.576-1.519,1.239-3.043,1.894-4.579
						c0.259-0.591,0.673-1.085,1.268-1.494c3.012-2.01,5.95-4.138,9.033-6.035l4.653-2.801l2.336-1.383l2.417-1.236
						c1.096-0.558,1.986-1.173,2.691-2.059c0.099-0.125,0.258-0.224,0.524-0.281c-0.316,0.654-0.569,1.322-0.947,1.955
						c-0.95,1.55-1.905,3.112-2.862,4.673c-0.21,0.339-0.443,0.711-0.715,1.037c-0.83,1.016-1.557,2.11-2.98,2.581
						c-0.265,0.087-0.508,0.294-0.761,0.447c-2.849,1.639-5.54,3.525-8.257,5.371c-2.759,1.788-5.314,3.859-7.939,5.834
						l-0.938,0.717L79.71,48.779z"/>
				</g>
				<path fill="#C1C1C1" d="M34.739,92.422c0.077,0.311,0.187,0.607,0.228,0.933c0.362,2.732,0.511,5.377,0.583,8.234
					c0.008,0.685-0.004,1.367-0.359,2.062c-0.168,0.33-0.102,0.551,0.176,0.697l6.689,3.557c0.257,0.139,0.387,0.079,0.592-0.232
					c0.547-0.83,0.629-1.735,0.804-2.637c0.029-0.151,0.034-0.304,0.05-0.457l0.123-0.064c0.105,0.311,0.246,0.606,0.308,0.932
					c0.216,1.145,0.434,2.302,0.649,3.445c0.045,0.209,0.188,0.435,0.354,0.523l7.424,3.922c0.553,0.291,0.877,0.794,1.039,1.429
					c0.568,2.248,1.064,4.469,1.419,6.812c0.032,0.236,0.029,0.479,0.039,0.669c-0.771-0.402-1.507-0.814-2.265-1.179l-8.128-3.875
					c-0.505-0.24-0.507-0.239-0.797,0.382l-1.754,3.745l-1.573,3.825l-1.555,3.831l-1.371,3.901
					c-0.279,0.794-0.559,1.59-0.897,2.552c-0.205-0.355-0.379-0.588-0.488-0.864c-0.393-1.04-0.791-2.091-1.184-3.127
					c-0.095-0.241-0.29-0.485-0.5-0.575c-0.643-0.272-1.27-0.547-2.067-0.183c-0.71,0.324-1.21,0.863-1.647,1.565
					c-0.96,1.481-1.267,3.18-1.503,4.882c-0.053,0.434-0.105,0.867-0.178,1.459c-0.211-0.34-0.383-0.552-0.493-0.808
					c-0.929-2.19-1.809-4.519-2.267-6.962c-0.166-0.817-0.065-1.636,0.123-2.495c0.38-1.636,0.738-3.275,1.675-4.724
					c0.762-1.2,1.706-1.978,2.811-1.907c1.023,0.065,1.98,0.5,2.519,1.545c0.364,0.704,0.655,1.464,1.013,2.261
					c0.107-0.211,0.21-0.383,0.285-0.565l2.024-4.948c0.691-1.642,1.493-3.235,2.24-4.851c0.18-0.382,0.139-0.547-0.17-0.689
					c-1.233-0.565-2.435-1.201-3.685-1.724c-0.567-0.236-0.839-0.683-0.984-1.319c-0.244-1.099-0.506-2.218-0.74-3.42
					c-0.12,0.188-0.207,0.312-0.269,0.448c-4.085,8.286-7.516,16.893-10.26,25.714c-0.146,0.495-0.122,1.042-0.194,1.727
					c-0.186-0.32-0.356-0.544-0.464-0.813c-0.479-1.184-0.928-2.397-1.326-3.653c-0.368-1.246-0.653-2.526-0.875-3.865
					c-0.14-0.854-0.063-1.705,0.268-2.637c3.53-9.697,7.874-19.093,12.968-28.055c0.723-1.217,1.241-2.486,1.343-3.839
					c0.013-0.173,0.058-0.352,0.088-0.529L34.739,92.422z"/>
			</g>
			<g>
				<path fill="#CE9549" d="M122.901,52.653c-0.016-1.189,0.019-1.306-1.434-1.41c-1.886-0.133-3.859,0.058-5.833,0.129
					c-0.342,0.012-0.689,0.061-1.028,0.045c-0.56-0.025-1.04-0.578-0.868-1.097c0.413-1.249,0.844-2.511,1.404-3.749
					c0.603-1.333,1.345-2.643,2.073-3.969c0.195-0.354,0.469-0.684,0.749-1.084c0.112,0.335,0.108,0.681,0.288,0.78
					c0.314,0.172,0.749,0.326,1.117,0.255c1.902-0.414,3.811-0.12,5.694-0.029c0.553,0.028,1.101,0.142,1.611,0.294
					c0.622,0.186,0.863,0.65,0.605,1.25c-0.566,1.319-1.122,2.634-1.773,3.895c-0.691,1.27-1.427,2.63-2.114,3.965
					C123.263,52.184,123.066,52.413,122.901,52.653z"/>
				<path fill="#CE9549" d="M118.757,31.986c-0.034-1.128-0.939-1-1.807-0.994c-1.124-0.013-2.182,0.063-3.279,0.057
					c-1.178-0.003-2.351-0.005-3.519-0.008c-0.786-0.012-1.022-0.266-0.733-0.962c0.542-1.302,1.113-2.616,1.823-3.904
					c0.808-1.481,1.774-2.933,2.774-4.277c0.163-0.23,0.404-0.434,0.71-0.754c0.058,0.939,0.993,0.761,1.643,0.817
					c1.205,0.104,2.446,0.091,3.664,0.12c1.132,0.027,2.269,0.013,3.379,0.069c0.859,0.043,1.2,0.532,0.815,1.257
					c-0.713,1.343-1.442,2.676-2.239,3.973c-0.796,1.295-1.692,2.546-2.534,3.801C119.29,31.423,119.06,31.638,118.757,31.986z"/>
				<path fill="#CE9549" d="M111.353,41.276c0.086-0.337,0.128-0.642,0.247-0.932c1.034-2.507,2.267-5.009,3.857-7.457
					c0.358-0.548,0.752-0.778,1.393-0.74c1.659,0.154,3.34,0.047,5.03-0.126c0.904-0.093,1.813-0.04,2.67,0.069
					c0.236,0.03,0.423,0.462,0.453,0.747c0.028,0.272-0.143,0.604-0.288,0.892c-1.293,2.61-2.682,5.08-4.334,7.502
					c-0.146,0.23-0.334,0.441-0.603,0.793c-0.001-0.269-0.04-0.398,0.006-0.509c0.227-0.555-0.019-0.757-0.567-0.74
					c-0.744,0.023-1.498-0.034-2.245,0.109C115.11,41.242,113.279,41.29,111.353,41.276z"/>
			</g>
		</g>
		<g>
			<g>
				<g>
					<path fill="#C1C1C1" d="M42.034,243.328c-0.563-0.387-0.886-0.146-1.208,0.27c-1.051,1.352-2.097,2.696-3.144,4.043
						l-0.607,0.763c-0.223,0.295-0.483,0.352-0.844,0.158c-2.162-1.175-4.313-2.624-6.24-4.421c-0.092-0.087-0.16-0.213-0.288-0.388
						c1.505-1.853,3.014-3.636,4.52-5.4c0.334-0.391,0.726-0.274,1.117-0.095c0.39,0.179,0.779,0.397,1.135,0.662
						c1.671,1.232,3.264,2.471,4.998,3.622c0.222,0.152,0.407,0.382,0.609,0.574L42.034,243.328z"/>
					<path fill="#C1C1C1" d="M41.219,235.431c-0.174-0.037-0.276-0.174-0.405-0.255c-1.926-1.178-3.738-2.439-5.58-3.735
						c-1.578-1.106-3.282-1.846-5.019-2.515c-0.983-0.379-1.842-0.054-2.592,0.493c-0.479,0.349-0.84,0.903-1.25,1.372
						c-2.035,2.325-4.057,4.714-6.029,7.207c-0.809,1.028-1.552,2.19-2.331,3.205c-0.499,0.639-0.877,1.517-1.863,1.583
						c0.184,0.261,0.259,0.398,0.355,0.498c2,2.035,4.066,3.76,6.299,5.146c0.457,0.276,0.827,0.212,1.13-0.118
						c0.218-0.238,0.431-0.484,0.612-0.761c0.573-0.882,1.172-1.804,1.782-2.67c0.829-1.168,1.687-2.296,2.54-3.42
						c0.563-0.742,1.118-1.487,1.697-2.204c1.141-1.409,2.293-2.771,3.46-4.133c0.587-0.672,1.346-1.008,2.148-0.815
						c1.761,0.413,3.49,1.146,5.071,2.241c0.402,0.278,0.661,0.652,0.82,1.154c0.281,0.876,0.599,1.742,0.913,2.609
						c0.264,0.652,0.625,1.223,1.17,1.65c1.853,1.445,3.742,2.692,5.766,3.613c0.139,0.06,0.298,0.048,0.428,0.066
						c-0.281-0.568-0.481-1.103-0.684-1.634c-1.218-2.968-5.354-13.565-5.943-16.494c-0.22-0.804-0.645-1.413-1.22-1.986
						c-0.984-0.982-2.245-1.95-3.334-2.667c-1.076-0.72-1.921-1.197-1.921-1.197c0.491,2.336,1.05,4.591,1.813,6.823
						C39.754,230.735,40.467,233.015,41.219,235.431z"/>
				</g>
				<g>
					<path fill="#C1C1C1" d="M32.152,205.23c-0.456-0.513-0.828-0.359-1.239-0.038c-1.344,1.048-2.68,2.09-4.019,3.134l-0.773,0.588
						c-0.288,0.231-0.554,0.221-0.858-0.055c-1.852-1.668-3.549-3.606-4.933-5.83c-0.069-0.107-0.105-0.247-0.188-0.447
						c1.905-1.422,3.795-2.774,5.678-4.109c0.418-0.296,0.771-0.086,1.109,0.184c0.337,0.27,0.664,0.577,0.947,0.921
						c1.306,1.58,2.615,3.164,3.925,4.75c0.167,0.204,0.302,0.47,0.45,0.707L32.152,205.23z"/>
					<path fill="#C1C1C1" d="M33.317,197.374c-0.16-0.079-0.228-0.238-0.333-0.347c-1.496-1.624-2.963-3.293-4.456-5.002
						c-1.27-1.462-2.771-2.599-4.226-3.679c-0.837-0.611-1.752-0.509-2.626-0.164c-0.558,0.22-1.06,0.667-1.586,1.02
						c-2.574,1.75-5.074,3.562-7.593,5.488c-1.036,0.796-2.012,1.735-3.058,2.529c-0.656,0.496-1.263,1.255-2.226,1.075
						c0.105,0.299,0.134,0.451,0.208,0.57c1.449,2.465,3.081,4.64,4.876,6.539c0.36,0.381,0.733,0.412,1.114,0.166
						c0.274-0.177,0.548-0.364,0.798-0.587c0.798-0.714,1.578-1.458,2.383-2.145c1.084-0.925,2.186-1.805,3.283-2.682
						c0.724-0.578,1.441-1.163,2.173-1.713c1.42-1.08,2.955-2.12,4.432-3.151c0.731-0.506,1.547-0.643,2.282-0.258
						c1.594,0.837,3.005,1.981,4.314,3.429c0.326,0.369,0.488,0.794,0.525,1.32c0.064,0.919,0.175,1.834,0.266,2.752
						c0.075,0.7,0.237,1.348,0.666,1.895c1.454,1.857,3.015,3.527,4.744,4.923c0.115,0.094,0.271,0.121,0.39,0.171
						c-0.092-0.626-0.193-1.188-0.255-1.754c-0.578-3.164-1.733-14.479-1.711-17.451c-0.038-0.834-0.281-1.529-0.659-2.227
						c-1.33-2.378-4.165-5.046-4.165-5.046c-0.063,2.384-0.062,4.708,0.062,7.06C33.117,192.459,33.235,194.846,33.317,197.374z"/>
				</g>
				<path fill="#C1C1C1" d="M9.912,204.826c0.919,1.122,1.835,2.202,2.8,3.318c0.728,0.863,1.407,1.788,2.099,2.684
					c0.737,0.955,1.196,2.063,1.331,3.37c0.038,0.436,0.135,0.864,0.242,1.393c0.344-0.025,0.62-0.022,0.887-0.069l25.097-4.458
					c0.92-0.164,1.849-0.298,2.748-0.543c1.047-0.284,2.022,0.053,2.873,0.593c2.083,1.31,3.807,2.959,5.517,4.671
					c0.075,0.074,0.117,0.182,0.173,0.273c-0.056,0.038-0.084,0.068-0.095,0.063c-1.186-0.577-2.35-0.441-3.57-0.162l-27.437,6.175
					c-0.631,0.143-1.163,0.056-1.703-0.446c-1.025-0.922-2.04-1.835-3.061-2.751c-0.234-0.218-0.47-0.437-0.823-0.766
					c0.044,1.422,0.573,2.569,0.765,3.778c0.171,1.244,0.557,2.448,0.844,3.67c0.301,1.22,0.581,2.445,0.911,3.655
					c0.309,1.207,0.714,2.385,1.169,3.644c-0.187-0.088-0.372-0.14-0.534-0.257c-1.981-1.383-3.627-3.146-5.315-5.04
					c-0.817-0.932-1.137-2.156-1.448-3.345c-0.66-2.961-1.195-5.95-1.783-8.927l-1.421-8.754c-0.069-0.546-0.263-1.072-0.399-1.607
					L9.912,204.826z"/>
				<g>
					<path fill="#C1C1C1" d="M20.389,188.945c-0.843-1.176-1.712-2.342-2.521-3.589c-0.595-0.917-1.132-1.907-1.652-2.915
						c-0.172-0.347-0.309-0.798-0.31-1.213c-0.059-2.932-0.052-5.878,0.137-8.813c0.273-2.929,0.488-5.867,0.883-8.783
						c0.025-0.182,0.042-0.365,0.08-0.543c0.226-1.066,0.723-1.524,1.611-1.409l5.895,0.804c3.481,0.438,6.961,0.885,10.448,1.271
						l8.784,0.86c0.446,0.047,0.905,0.142,1.312,0.326c0.376,0.17,0.771,0.418,1.018,0.749c0.685,0.916,1.3,1.867,1.859,2.842
						c0.597,0.98,1.159,1.987,1.672,3.007c0.051,0.1,0.062,0.22,0.101,0.364c-2.349-0.757-4.745-0.703-7.128-0.776l-0.424-0.022
						l-11.425-0.921l-8.21-0.61c-1.02-0.074-1.416,0.324-1.537,1.609c-0.231,2.033-0.311,4.077-0.398,6.12
						c-0.07,2.043-0.232,4.085-0.17,6.13c0.009,1.1,0.143,2.197,0.192,3.295c0.032,0.692,0.01,1.388,0.014,2.082L20.389,188.945z"/>
					<path fill="#C1C1C1" d="M13.765,187.393c-0.542-0.74-1.117-1.45-1.616-2.25c-0.851-1.383-1.701-2.836-2.479-4.291
						c-0.298-0.565-0.391-1.193-0.358-1.913l0.249-5.422c0.101-1.806,0.31-3.605,0.465-5.408c0.27-3.611,0.84-7.189,1.374-10.769
						c0.167-1.219,0.213-2.301-0.038-3.395c-0.037-0.154-0.018-0.341,0.101-0.586c0.322,0.648,0.693,1.255,0.958,1.941
						c0.699,1.705,1.403,3.424,2.107,5.142c0.156,0.376,0.281,0.782,0.368,1.196c0.284,1.275,0.627,2.509,0.164,3.925
						c-0.087,0.263-0.067,0.583-0.094,0.876c-0.286,3.27-0.683,6.533-0.764,9.816l-0.216,4.919l-0.002,4.923l0.005,1.18
						L13.765,187.393z"/>
				</g>
				<path fill="#C1C1C1" d="M20.763,249.673c0.295,0.128,0.599,0.221,0.884,0.388c2.371,1.389,4.686,2.837,6.868,4.577
					c0.552,0.411,1.089,0.833,1.429,1.536c0.162,0.335,0.377,0.416,0.663,0.285l6.902-3.123c0.266-0.119,0.298-0.258,0.174-0.609
					c-0.323-0.939-1.025-1.543-1.584-2.252c-0.096-0.118-0.21-0.217-0.316-0.324l0.03-0.138c0.302,0.11,0.615,0.181,0.903,0.335
					c1,0.551,2.082,1.089,3.118,1.593c0.195,0.092,0.461,0.116,0.633,0.038l7.64-3.482c0.569-0.259,1.168-0.211,1.772,0.047
					c2.17,0.903,4.187,1.889,6.248,3.044c0.208,0.118,0.4,0.269,0.558,0.375c-0.79,0.364-1.566,0.695-2.318,1.074l-8.033,4.069
					c-0.498,0.253-0.498,0.255-0.181,0.863c1.284,2.439,2.519,4.907,3.967,7.256l2.096,3.565c0.704,1.185,1.497,2.314,2.243,3.474
					c0.462,0.705,0.924,1.409,1.484,2.262c-0.408-0.054-0.7-0.058-0.985-0.139c-1.067-0.321-2.145-0.646-3.21-0.966
					c-0.25-0.071-0.562-0.065-0.762,0.046c-0.609,0.342-1.209,0.673-1.406,1.523c-0.174,0.758-0.051,1.482,0.24,2.254
					c0.607,1.651,1.706,2.971,2.936,4.179c0.313,0.306,0.625,0.611,1.051,1.027c-0.399-0.04-0.672-0.033-0.943-0.101
					c-2.334-0.579-4.66-1.344-6.888-2.464c-0.751-0.366-1.341-0.944-1.909-1.616c-1.088-1.286-2.135-2.589-2.702-4.22
					c-0.491-1.333-0.535-2.552,0.195-3.383c0.675-0.77,1.604-1.262,2.765-1.053c0.781,0.14,1.563,0.373,2.418,0.575
					c-0.103-0.213-0.176-0.399-0.277-0.569l-2.694-4.616l-2.475-4.737c-0.194-0.375-0.352-0.442-0.652-0.284
					c-1.201,0.631-2.438,1.194-3.616,1.865c-0.533,0.304-1.054,0.248-1.65-0.025c-1.044-0.465-2.041-0.966-3.123-1.52
					c0.079,0.209,0.123,0.353,0.186,0.489c4.06,8.296,8.761,16.278,14.067,23.841c0.304,0.417,0.754,0.73,1.255,1.204
					c-0.368-0.048-0.649-0.05-0.93-0.127c-2.497-0.662-4.901-1.568-7.29-2.855c-0.765-0.409-1.394-0.987-1.933-1.816
					c-5.518-8.72-10.302-17.898-14.268-27.415c-0.535-1.312-1.237-2.493-2.257-3.397c-0.13-0.115-0.247-0.26-0.37-0.392
					L20.763,249.673z"/>
			</g>
			<g>
				<path fill="#CE9549" d="M43.116,155.536c-0.947-0.711-1.018-0.81-1.998,0.275c-1.26,1.413-2.364,3.083-3.478,4.696
					c-0.186,0.281-0.346,0.588-0.553,0.848c-0.342,0.431-1.066,0.476-1.39,0.02c-0.783-1.096-1.56-2.214-2.17-3.407
					c-0.679-1.289-1.255-2.674-1.85-4.058c-0.159-0.371-0.25-0.787-0.392-1.253c0.333,0.115,0.604,0.329,0.793,0.246
					c0.33-0.144,0.719-0.394,0.891-0.728c0.92-1.741,2.297-3.08,3.482-4.524c0.353-0.423,0.769-0.789,1.196-1.102
					c0.519-0.381,1.033-0.289,1.359,0.282c0.715,1.257,1.434,2.503,2.053,3.792c0.652,1.338,1.133,2.717,1.792,4.08
					C42.969,154.963,43.028,155.259,43.116,155.536z"/>
				<path fill="#CE9549" d="M24.273,146.225c-0.92-0.663-1.359,0.136-1.873,0.829c-0.68,0.88-1.354,1.751-2.025,2.62
					c-0.729,0.93-1.454,1.857-2.177,2.779c-0.494,0.615-0.84,0.647-1.21-0.006c-0.693-1.222-1.378-2.475-1.955-3.822
					c-0.691-1.546-1.111-3.168-1.641-4.798c-0.085-0.272-0.104-0.588-0.177-1.026c0.783,0.527,1.201-0.325,1.635-0.807
					c0.804-0.896,1.537-1.891,2.288-2.843c0.741-0.873,1.458-1.774,2.21-2.61c0.583-0.649,1.182-0.618,1.502,0.124
					c0.599,1.376,1.159,2.754,1.681,4.173c0.556,1.426,1.019,2.904,1.516,4.342C24.143,145.456,24.177,145.771,24.273,146.225z"/>
				<path fill="#CE9549" d="M27.011,157.739c-0.213-0.274-0.428-0.492-0.582-0.764c-1.338-2.345-2.551-4.844-3.502-7.595
					c-0.201-0.615-0.101-1.058,0.334-1.541c1.115-1.226,2.035-2.629,2.905-4.079c0.473-0.774,1.036-1.471,1.666-2.079
					c0.174-0.167,0.632-0.052,0.873,0.099c0.233,0.145,0.372,0.477,0.519,0.769c1.293,2.621,2.488,5.25,3.362,8.027
					c0.083,0.254,0.111,0.526,0.217,0.953c-0.213-0.164-0.34-0.211-0.394-0.314c-0.273-0.513-0.6-0.444-0.938-0.003
					c-0.441,0.603-0.953,1.165-1.301,1.842C29.303,154.747,28.21,156.224,27.011,157.739z"/>
			</g>
		</g>
		<g>
			<g>
				<g>
					<path fill="#C1C1C1" d="M145.452,336.336c-0.645,0.201-0.651,0.607-0.517,1.12c0.433,1.657,0.84,3.347,1.304,4.965l0.242,0.935
						c0.101,0.353-0.012,0.595-0.387,0.771c-2.27,1.095-4.675,1.744-7.291,2.24c-0.126,0.022-0.269,0.003-0.486,0.004
						c-0.567-2.305-1.091-4.516-1.563-6.834c-0.106-0.509,0.223-0.744,0.6-0.94c0.379-0.2,0.779-0.353,1.211-0.489
						c1.971-0.607,3.948-1.216,5.927-1.825c0.255-0.08,0.547-0.081,0.821-0.119L145.452,336.336z"/>
					<path fill="#C1C1C1" d="M138.681,332.191c-0.134,0.113-0.304,0.108-0.445,0.158c-2.08,0.742-4.201,1.476-6.366,2.197
						c-1.845,0.606-3.441,1.44-5.023,2.402c-0.893,0.536-1.157,1.418-1.181,2.354c-0.015,0.597,0.201,1.23,0.322,1.849l0.948,4.62
						c0.349,1.51,0.72,3.027,1.121,4.549c0.331,1.257,0.818,2.514,1.142,3.78c0.202,0.794,0.667,1.642,0.123,2.46
						c0.317,0.018,0.471,0.046,0.607,0.031c2.799-0.246,5.477-1.004,7.93-1.918c0.494-0.188,0.668-0.52,0.59-0.964
						c-0.056-0.32-0.122-0.642-0.232-0.958c-0.349-1.007-0.731-2.007-1.053-3.01c-0.432-1.349-0.815-2.699-1.196-4.042
						c-0.247-0.898-0.497-1.811-0.713-2.714c-0.422-1.779-0.796-3.552-1.167-5.314c-0.182-0.866,0.011-1.669,0.655-2.199
						c1.398-1.152,3.014-2.036,4.833-2.597c0.459-0.132,0.92-0.134,1.419,0.034c0.874,0.288,1.765,0.53,2.647,0.793
						c0.675,0.201,1.343,0.276,2.007,0.115c2.246-0.504,4.416-1.379,6.377-2.437c0.131-0.071,0.218-0.205,0.311-0.296
						c-0.614-0.15-1.173-0.266-1.72-0.421c-1.564-0.368-5.044-1.437-8.523-2.41c-3.429-1.125-6.832-2.256-8.195-2.832
						c-0.764-0.334-1.499-0.384-2.296-0.292c-1.366,0.157-2.928,0.64-4.163,1.077c-1.238,0.45-2.123,0.811-2.123,0.811
						c2.154,1.026,4.336,1.829,6.526,2.69C134.044,330.551,136.339,331.229,138.681,332.191z"/>
				</g>
				<g>
					<path fill="#C1C1C1" d="M109.203,321.02c-0.675,0.034-0.782,0.426-0.78,0.956c0.01,1.706-0.023,3.452,0.013,5.149l0.002,0.963
						c0.01,0.366-0.16,0.572-0.567,0.651c-2.45,0.458-4.959,0.518-7.612,0.342c-0.128-0.01-0.261-0.063-0.472-0.117
						c0.022-2.364,0.075-4.65,0.196-7.01c0.024-0.519,0.401-0.665,0.815-0.761c0.414-0.096,0.848-0.155,1.29-0.166
						c2.062-0.099,4.13-0.197,6.2-0.297c0.267-0.014,0.551,0.057,0.826,0.089L109.203,321.02z"/>
					<path fill="#C1C1C1" d="M103.677,315.318c-0.158,0.077-0.322,0.029-0.471,0.042c-2.201,0.201-4.439,0.383-6.713,0.543
						c-1.947,0.141-3.691,0.543-5.462,1.084c-0.997,0.297-1.472,1.087-1.727,1.988c-0.164,0.575-0.111,1.243-0.147,1.872
						c-0.201,3.144-0.302,6.257-0.277,9.388c0.006,1.299,0.165,2.637,0.162,3.942c-0.002,0.818,0.234,1.754-0.496,2.412
						c0.302,0.096,0.443,0.161,0.579,0.181c2.766,0.453,5.539,0.397,8.145,0.113c0.525-0.059,0.777-0.338,0.811-0.787
						c0.025-0.324,0.042-0.652,0.015-0.984c-0.086-1.061-0.207-2.123-0.267-3.173c-0.081-1.415-0.117-2.81-0.148-4.21
						c-0.009-0.941-0.028-1.88-0.011-2.809c0.035-1.827,0.116-3.637,0.194-5.436c0.039-0.883,0.426-1.614,1.181-1.967
						c1.641-0.767,3.427-1.221,5.329-1.312c0.479-0.016,0.916,0.114,1.362,0.392c0.776,0.495,1.579,0.951,2.369,1.424
						c0.604,0.362,1.234,0.6,1.918,0.61c2.305,0.067,4.606-0.2,6.783-0.759c0.144-0.036,0.262-0.144,0.375-0.209
						c-0.558-0.296-1.072-0.548-1.564-0.833c-1.428-0.736-4.513-2.681-7.657-4.468c-3.039-1.957-6.057-3.9-7.244-4.789
						c-0.658-0.514-1.357-0.746-2.152-0.857c-2.712-0.371-6.569,0.281-6.569,0.281c1.859,1.496,3.753,2.844,5.667,4.218
						C99.595,312.568,101.644,313.805,103.677,315.318z"/>
				</g>
				<path fill="#C1C1C1" d="M95.355,338.435c1.444-0.067,2.88-0.133,4.334-0.2c1.116-0.003,2.257-0.005,3.391-0.008
					c1.216-0.019,2.384,0.273,3.515,0.94c0.376,0.222,0.771,0.413,1.248,0.666c0.189-0.288,0.359-0.505,0.483-0.745l11.72-22.636
					c0.429-0.829,0.887-1.649,1.241-2.512c0.413-1.007,1.264-1.562,2.201-1.89c2.263-0.771,4.699-1.309,7.072-1.578
					c0.102-0.013,0.213,0.023,0.318,0.036c-0.004,0.068,0.003,0.109-0.009,0.115c-1.168,0.569-1.765,1.572-2.285,2.711
					l-11.769,25.542c-0.27,0.587-0.659,0.949-1.393,1.087c-1.365,0.273-2.717,0.544-4.075,0.815
					c-0.318,0.058-0.638,0.116-1.117,0.203c1.168,0.805,2.412,1.062,3.499,1.624c1.115,0.576,2.272,1.075,3.41,1.606
					c1.128,0.556,2.303,1.008,3.471,1.471c1.165,0.446,2.347,0.845,3.606,1.294c-0.183,0.092-0.336,0.205-0.524,0.259
					c-2.272,0.653-4.72,1.001-7.262,1.211c-1.227,0.058-2.382-0.46-3.503-0.964c-2.778-1.232-5.508-2.567-8.177-4.016
					c-2.629-1.354-5.27-2.689-7.816-4.191c-0.479-0.271-1.018-0.43-1.53-0.641L95.355,338.435z"/>
				<g>
					<path fill="#C1C1C1" d="M89.132,320.457c-1.451-0.035-2.912-0.046-4.399-0.151c-1.089-0.084-2.223-0.228-3.32-0.452
						c-0.375-0.079-0.794-0.274-1.132-0.515c-4.822-3.36-9.171-7.36-13.373-11.474c-0.129-0.13-0.265-0.254-0.384-0.392
						c-0.711-0.825-0.774-1.498-0.144-2.133l4.215-4.197c2.46-2.501,4.927-4.995,7.349-7.532l6.014-6.459
						c0.308-0.326,0.662-0.633,1.056-0.846c0.362-0.196,0.801-0.359,1.214-0.356c2.284,0.026,4.507,0.362,6.789,0.746
						c0.11,0.02,0.214,0.084,0.351,0.14c-2.029,1.41-3.439,3.346-4.943,5.195l-0.275,0.324l-7.665,8.522l-5.466,6.155
						c-0.678,0.766-0.6,1.32,0.351,2.194l2.26,2.073l2.355,1.963c1.583,1.294,3.14,2.62,4.754,3.872
						c0.885,0.653,1.843,1.204,2.75,1.824c0.572,0.39,1.116,0.824,1.672,1.238L89.132,320.457z"/>
					<path fill="#C1C1C1" d="M83.868,324.787c-0.921-0.013-1.837,0.018-2.778-0.065c-1.636-0.135-3.284-0.367-4.894-0.654
						c-0.631-0.104-1.189-0.407-1.744-0.868l-4.169-3.47l-4.009-3.66c-2.719-2.391-5.189-5.046-7.728-7.624
						c-0.87-0.869-1.69-1.575-2.718-2.034c-0.145-0.065-0.281-0.193-0.405-0.436c0.71,0.138,1.419,0.211,2.124,0.415
						c1.779,0.48,3.572,0.964,5.365,1.447c0.393,0.104,0.794,0.251,1.177,0.432c1.181,0.553,2.391,1.006,3.21,2.262
						c0.157,0.228,0.424,0.405,0.642,0.604c4.796,4.481,9.763,8.787,15.024,12.701l0.945,0.704L83.868,324.787z"/>
				</g>
				<path fill="#C1C1C1" d="M137.608,357.059c0.28-0.152,0.537-0.334,0.842-0.454c2.523-0.964,5.088-1.964,7.815-2.718
					c0.658-0.178,1.318-0.336,2.08-0.165c0.362,0.082,0.558-0.037,0.626-0.344l1.698-7.383c0.067-0.283-0.024-0.396-0.376-0.518
					c-0.941-0.325-1.834-0.18-2.748-0.126c-0.153,0.009-0.302,0.043-0.452,0.065l-0.093-0.105c0.272-0.179,0.52-0.39,0.818-0.531
					c1.048-0.494,2.105-0.994,3.151-1.487c0.19-0.095,0.37-0.29,0.413-0.474l1.86-8.188c0.138-0.61,0.539-1.051,1.107-1.364
					c2.014-1.094,4.063-2.311,6.215-3.168c0.219-0.089,0.454-0.146,0.634-0.203c-0.187,0.848-0.395,1.665-0.55,2.492l-1.631,8.856
					c-0.101,0.551-0.099,0.552,0.574,0.681c2.7,0.564,5.451,0.826,8.174,1.254c2.731,0.378,5.487,0.545,8.229,0.828
					c0.838,0.098,1.682,0.097,2.701,0.154c-0.29,0.298-0.471,0.533-0.709,0.716c-0.888,0.695-1.817,1.338-2.713,1.976
					c-0.208,0.151-0.392,0.4-0.425,0.626c-0.097,0.69-0.198,1.367,0.358,2.052c0.497,0.613,1.145,0.972,1.938,1.176
					c1.684,0.459,3.4,0.357,5.104,0.179c0.433-0.054,0.864-0.107,1.453-0.181c-0.274,0.288-0.434,0.505-0.652,0.674
					c-1.874,1.447-3.89,2.804-6.135,3.984c-0.749,0.407-1.564,0.516-2.441,0.535c-1.678,0.052-3.344,0.037-4.992-0.426
					c-1.363-0.368-2.358-1.072-2.575-2.179c-0.203-1.01-0.031-2.046,0.836-2.828c0.582-0.513,1.246-1.033,1.924-1.599
					c-0.232-0.042-0.425-0.09-0.622-0.109c-1.771-0.19-3.529-0.484-5.295-0.722c-1.764-0.249-3.53-0.484-5.274-0.86
					c-0.414-0.081-0.562,0.001-0.62,0.335c-0.226,1.338-0.527,2.662-0.708,4.007c-0.081,0.609-0.44,0.984-1.016,1.282
					c-1.007,0.512-2.015,1.025-3.107,1.579c0.215,0.059,0.357,0.108,0.504,0.136c9.046,1.876,18.255,2.954,27.482,3.26
					c0.515,0.022,1.037-0.135,1.717-0.231c-0.26,0.258-0.432,0.477-0.664,0.649c-2.036,1.504-4.216,2.927-6.689,4.107
					c-0.787,0.345-1.627,0.478-2.611,0.386c-10.27-0.888-20.494-2.564-30.465-5.239c-1.384-0.311-2.725-0.559-4.062-0.301
					c-0.171,0.03-0.355,0.032-0.534,0.047L137.608,357.059z"/>
			</g>
			<g>
				<path fill="#CE9549" d="M76.36,282.141c-1.141,0.321-1.263,0.318-0.993,1.756c0.356,1.861,1.025,3.742,1.618,5.617
					c0.11,0.318,0.258,0.631,0.34,0.952c0.136,0.533-0.267,1.136-0.827,1.116c-1.354-0.036-2.701-0.108-4.022-0.346
					c-1.437-0.242-2.887-0.625-4.349-0.99c-0.391-0.098-0.777-0.279-1.235-0.448c0.294-0.195,0.628-0.28,0.677-0.48
					c0.086-0.349,0.123-0.81-0.038-1.151c-0.825-1.788-1.054-3.695-1.481-5.514c-0.122-0.537-0.161-1.09-0.15-1.619
					c0.012-0.644,0.398-0.997,1.049-0.908c1.433,0.195,2.86,0.38,4.259,0.67c1.46,0.292,2.846,0.749,4.329,1.053
					C75.816,281.911,76.086,282.042,76.36,282.141z"/>
				<path fill="#CE9549" d="M57.525,291.467c-1.086,0.329-0.717,1.163-0.477,1.992c0.286,1.075,0.57,2.138,0.853,3.2
					c0.298,1.143,0.594,2.283,0.89,3.416c0.19,0.767,0.005,1.06-0.739,0.958c-1.393-0.191-2.804-0.406-4.227-0.765
					c-1.649-0.388-3.191-1.041-4.81-1.608c-0.267-0.097-0.53-0.274-0.923-0.482c0.894-0.303,0.47-1.152,0.35-1.79
					c-0.223-1.182-0.57-2.369-0.871-3.544c-0.248-1.115-0.526-2.234-0.736-3.34c-0.161-0.857,0.225-1.315,1.01-1.118
					c1.458,0.359,2.889,0.753,4.339,1.195c1.471,0.424,2.927,0.954,4.371,1.431C56.836,291.103,57.106,291.268,57.525,291.467z"/>
				<path fill="#CE9549" d="M68.342,296.276c-0.347,0.002-0.651,0.041-0.961,0c-2.677-0.359-5.401-0.91-8.165-1.823
					c-0.609-0.214-0.902-0.562-1.021-1.202c-0.298-1.63-0.854-3.213-1.479-4.785c-0.33-0.845-0.538-1.718-0.643-2.584
					c-0.027-0.239,0.342-0.533,0.608-0.634c0.256-0.098,0.604-0.006,0.928,0.053c2.868,0.563,5.681,1.209,8.42,2.201
					c0.252,0.089,0.486,0.23,0.889,0.406c-0.259,0.07-0.373,0.141-0.488,0.122c-0.574-0.093-0.716,0.207-0.572,0.744
					c0.212,0.716,0.348,1.463,0.676,2.15C67.352,292.639,67.863,294.405,68.342,296.276z"/>
			</g>
		</g>
		<g>
			<g>
				<g>
					<path fill="#C1C1C1" d="M281.49,311.07c-0.234,0.635,0.084,0.887,0.572,1.094c1.586,0.677,3.164,1.348,4.743,2.022l0.887,0.377
						c0.34,0.134,0.463,0.372,0.375,0.778c-0.561,2.412-1.478,4.765-2.687,7.134c-0.059,0.114-0.161,0.216-0.293,0.389
						c-2.149-0.93-4.263-1.927-6.376-2.956c-0.467-0.226-0.453-0.631-0.378-1.051c0.075-0.418,0.188-0.845,0.356-1.252
						c0.766-1.924,1.468-3.897,2.177-5.805c0.092-0.251,0.269-0.485,0.406-0.726L281.49,311.07z"/>
					<path fill="#C1C1C1" d="M274.072,313.897c0.008,0.176-0.1,0.308-0.146,0.451c-0.681,2.103-1.384,4.252-2.142,6.395
						c-0.677,1.784-0.964,3.602-1.173,5.436c-0.119,1.037,0.418,1.786,1.143,2.374c0.463,0.376,1.095,0.589,1.658,0.87
						c2.782,1.384,5.655,2.789,8.53,3.979c1.195,0.504,2.486,0.882,3.684,1.396c0.751,0.323,1.704,0.471,2.02,1.403
						c0.208-0.241,0.323-0.346,0.395-0.464c1.504-2.382,2.581-4.907,3.331-7.442c0.152-0.507-0.005-0.848-0.404-1.058
						c-0.288-0.151-0.583-0.295-0.898-0.4c-1.009-0.336-2.032-0.643-3.02-1c-1.333-0.485-2.618-0.982-3.942-1.541
						c-0.867-0.36-1.737-0.711-2.583-1.092c-1.665-0.749-3.292-1.533-4.912-2.312c-0.795-0.382-1.314-1.026-1.341-1.862
						c-0.059-1.814,0.224-3.64,0.887-5.43c0.167-0.458,0.473-0.785,0.912-1.076c0.759-0.52,1.492-1.08,2.237-1.622
						c0.569-0.414,1.034-0.9,1.312-1.527c0.467-1.069,0.896-2.118,1.227-3.209c0.319-1.106,0.573-2.213,0.745-3.321
						c0.023-0.148-0.029-0.298-0.045-0.427c-0.492,0.397-0.923,0.771-1.378,1.112c-1.254,1.003-4.233,3.098-7.116,5.273
						c-3.017,1.98-5.929,4.079-7.264,4.737c-0.729,0.406-1.214,0.961-1.627,1.651c-0.707,1.183-1.275,2.722-1.68,3.972
						c-0.42,1.221-0.673,2.142-0.673,2.142C266.075,319.155,269.77,316.547,274.072,313.897z"/>
				</g>
				<g>
					<path fill="#C1C1C1" d="M247.219,330.406c-0.384,0.561-0.139,0.884,0.28,1.204c1.365,1.046,2.721,2.086,4.081,3.128
						l0.771,0.604c0.299,0.222,0.357,0.481,0.166,0.841c-1.156,2.175-2.613,4.266-4.37,6.267c-0.085,0.096-0.209,0.171-0.379,0.306
						c-1.865-1.482-3.67-2.996-5.449-4.492c-0.395-0.333-0.281-0.724-0.105-1.113s0.391-0.778,0.654-1.132
						c1.239-1.626,2.414-3.355,3.567-5.054c0.15-0.222,0.38-0.406,0.571-0.608L247.219,330.406z"/>
					<path fill="#C1C1C1" d="M239.33,331.291c-0.035,0.173-0.173,0.276-0.252,0.404c-1.18,1.88-2.382,3.83-3.676,5.636
						c-1.096,1.574-1.823,3.275-2.478,5.009c-0.372,0.981-0.038,1.838,0.516,2.586c0.353,0.477,0.912,0.837,1.386,1.246
						c2.349,2.028,4.76,4.041,7.276,6.004c1.029,0.78,2.181,1.462,3.21,2.253c0.645,0.497,1.529,0.872,1.603,1.855
						c0.26-0.184,0.397-0.259,0.496-0.355c2.024-1.997,3.74-4.049,5.082-6.359c0.272-0.455,0.206-0.825-0.127-1.127
						c-0.24-0.217-0.489-0.429-0.769-0.609c-0.89-0.573-1.803-1.121-2.669-1.709c-1.175-0.817-2.315-1.676-3.449-2.524
						c-0.748-0.56-1.501-1.113-2.224-1.689c-1.421-1.133-2.8-2.29-4.171-3.439c-0.673-0.564-1.014-1.317-0.833-2.137
						c0.392-1.78,1.119-3.488,2.201-5.071c0.276-0.401,0.648-0.66,1.151-0.818c0.885-0.263,1.733-0.625,2.584-0.979
						c0.652-0.264,1.222-0.625,1.646-1.168c1.432-1.855,2.683-3.704,3.551-5.816c0.059-0.138,0.046-0.297,0.063-0.427
						c-0.573,0.266-1.084,0.524-1.607,0.744c-1.522,0.522-4.846,2.02-8.232,3.281c-1.699,0.617-3.39,1.231-4.831,1.755
						c-1.449,0.5-2.674,0.828-3.385,1.035c-0.804,0.22-1.412,0.644-1.982,1.217c-0.972,0.994-1.907,2.343-2.626,3.395
						c-0.712,1.073-1.183,1.917-1.183,1.917c1.166-0.253,2.32-0.493,3.446-0.824c1.119-0.352,2.235-0.702,3.359-1.056
						c1.124-0.352,2.257-0.707,3.409-1.068C236.954,332.053,238.119,331.66,239.33,331.291z"/>
				</g>
				<path fill="#C1C1C1" d="M252.551,352.041c0.826-1.196,1.647-2.385,2.478-3.589c0.654-0.909,1.381-1.786,2.077-2.668
					c0.744-0.936,1.671-1.725,2.891-2.212c0.404-0.165,0.795-0.365,1.285-0.592c-0.113-0.326-0.18-0.592-0.294-0.838l-10.76-23.108
					c-0.395-0.847-0.763-1.71-1.231-2.517c-0.545-0.942-0.465-1.959-0.156-2.907c0.772-2.262,1.865-4.459,3.076-6.551
					c0.052-0.089,0.148-0.155,0.221-0.232c0.051,0.044,0.088,0.064,0.086,0.076c-0.26,1.278,0.17,2.364,0.753,3.472l13.03,24.923
					c0.3,0.572,0.349,1.102,0.013,1.772c-0.625,1.227-1.201,2.507-1.844,3.725c-0.152,0.278-0.306,0.558-0.537,0.977
					c1.386-0.362,2.33-1.225,3.438-1.746c1.133-0.538,2.231-1.156,3.344-1.74c1.116-0.578,2.239-1.145,3.298-1.824
					c1.062-0.655,2.096-1.353,3.217-2.082c-0.038,0.202-0.043,0.392-0.114,0.576c-0.876,2.186-2.057,4.41-3.485,6.473
					c-0.701,1.013-1.813,1.618-2.893,2.205c-1.34,0.714-2.669,1.452-4.043,2.1l-4.131,1.923c-2.653,1.312-5.379,2.457-8.096,3.629
					c-0.505,0.219-0.959,0.554-1.437,0.836L252.551,352.041z"/>
				<g>
					<path fill="#C1C1C1" d="M234.501,345.954c-0.916,1.129-1.797,2.352-2.807,3.408c-0.738,0.792-1.562,1.549-2.407,2.29
						c-0.29,0.255-0.699,0.475-1.095,0.602c-2.786,0.952-5.666,1.551-8.546,2.143c-2.871,0.648-5.803,0.96-8.707,1.417
						c-0.18,0.027-0.362,0.062-0.542,0.076c-1.084,0.083-1.652-0.264-1.769-1.155l-0.74-5.903
						c-0.473-3.477-0.936-6.955-1.461-10.426l-1.43-8.718c-0.07-0.444-0.095-0.911-0.022-1.35c0.067-0.408,0.207-0.837,0.463-1.173
						c1.412-1.846,3.033-3.464,4.749-4.939c0.084-0.072,0.198-0.112,0.327-0.183c-0.131,2.454,0.539,4.761,1.081,7.087l0.087,0.415
						l2.047,11.282l1.521,8.094c0.189,0.998,0.682,1.319,1.947,1.06l6.019-1.177c2.002-0.41,3.974-0.96,5.959-1.445
						c1.063-0.28,2.103-0.637,3.145-0.991c0.656-0.225,1.329-0.401,1.995-0.599L234.501,345.954z"/>
					<path fill="#C1C1C1" d="M234.712,352.796c-0.569,0.74-1.105,1.484-1.756,2.146c-1.122,1.163-2.323,2.297-3.524,3.444
						c-0.466,0.446-1.045,0.713-1.746,0.883c-3.528,0.785-7.082,1.48-10.642,2.1c-3.58,0.509-7.146,1.137-10.755,1.402
						c-1.224,0.114-2.28,0.358-3.267,0.923c-0.139,0.079-0.323,0.113-0.59,0.068c0.542-0.492,1.031-1.022,1.623-1.47
						c1.469-1.093,2.95-2.195,4.43-3.296c0.324-0.242,0.685-0.454,1.061-0.662c1.157-0.618,2.248-1.346,3.74-1.232
						c0.278,0.021,0.582-0.075,0.874-0.119c6.496-0.942,12.901-2.406,19.256-4.042l1.133-0.329L234.712,352.796z"/>
				</g>
				<path fill="#C1C1C1" d="M293.106,329.949c0.05-0.316,0.063-0.631,0.153-0.946c0.759-2.611,1.579-5.197,2.629-7.842
					c0.26-0.632,0.536-1.253,1.135-1.755c0.285-0.238,0.309-0.466,0.108-0.708l-4.807-5.856c-0.184-0.227-0.328-0.223-0.638-0.017
					c-0.829,0.55-1.258,1.35-1.77,2.109c-0.086,0.128-0.15,0.266-0.224,0.4l-0.139,0.01c0.024-0.326,0.008-0.65,0.077-0.975
					c0.246-1.135,0.495-2.28,0.74-3.413c0.041-0.209-0.005-0.472-0.124-0.617l-5.345-6.476c-0.398-0.482-0.504-1.069-0.406-1.712
					c0.371-2.255,0.68-4.596,1.295-6.848c0.062-0.229,0.16-0.451,0.225-0.629c0.557,0.667,1.077,1.33,1.637,1.959l6.014,6.702
					c0.374,0.416,0.376,0.416,0.888-0.042c2.097-1.793,4.013-3.779,5.982-5.709c2.008-1.894,3.797-3.997,5.676-6.013
					c0.562-0.628,1.153-1.229,1.811-2.009c0.062,0.415,0.139,0.703,0.129,0.995c-0.042,1.106-0.084,2.225-0.126,3.327
					c-0.006,0.258,0.079,0.558,0.238,0.72c0.488,0.499,0.963,0.993,1.84,0.967c0.782-0.023,1.456-0.325,2.133-0.799
					c1.434-1.015,2.347-2.484,3.245-3.942c0.218-0.378,0.436-0.756,0.733-1.27c0.062,0.394,0.139,0.655,0.141,0.933
					c0.005,2.371-0.099,4.84-0.569,7.309c-0.165,0.815-0.578,1.527-1.086,2.242c-0.974,1.369-1.993,2.689-3.356,3.72
					c-1.139,0.839-2.339,1.164-3.329,0.678c-0.922-0.455-1.638-1.225-1.73-2.391c-0.062-0.786-0.035-1.595-0.056-2.467
					c-0.181,0.152-0.344,0.27-0.484,0.409c-2.562,2.476-4.996,5.086-7.716,7.393c-0.315,0.28-0.342,0.448-0.112,0.697
					c0.921,0.997,1.785,2.045,2.739,3.009c0.433,0.436,0.511,0.951,0.396,1.591c-0.206,1.114-0.414,2.228-0.638,3.436
					c0.177-0.136,0.302-0.219,0.414-0.319c7.038-5.993,13.433-12.71,19.36-19.774c0.327-0.398,0.518-0.91,0.851-1.511
					c0.048,0.366,0.117,0.637,0.113,0.926c-0.06,2.525-0.17,5.198-0.845,7.792c-0.204,0.838-0.605,1.589-1.274,2.316
					c-6.973,7.592-14.575,14.626-22.745,20.937c-1.135,0.85-2.114,1.809-2.733,3.016c-0.08,0.154-0.191,0.301-0.287,0.452
					L293.106,329.949z"/>
			</g>
			<g>
				<path fill="#CE9549" d="M196.372,332.599c-0.445,1.088-0.522,1.181,0.783,1.873c1.697,0.937,3.586,1.443,5.432,2.107
					c0.32,0.114,0.658,0.197,0.965,0.335c0.506,0.23,0.737,0.921,0.378,1.343c-0.861,1.013-1.743,2.032-2.734,2.98
					c-1.067,1.041-2.256,1.957-3.441,2.848c-0.318,0.243-0.697,0.43-1.111,0.679c0.025-0.352,0.163-0.664,0.034-0.828
					c-0.224-0.286-0.568-0.604-0.935-0.691c-1.921-0.475-3.565-1.29-5.268-2.149c-0.5-0.24-0.961-0.558-1.374-0.896
					c-0.502-0.412-0.547-0.935-0.078-1.387c1.03-1.003,2.049-1.972,3.135-2.92c1.124-0.999,2.329-1.905,3.481-2.839
					C195.856,332.878,196.126,332.75,196.372,332.599z"/>
				<path fill="#CE9549" d="M192.242,353.256c-0.402,1.062,0.482,1.272,1.283,1.562c1.03,0.381,2.04,0.809,3.051,1.242
					c1.087,0.484,2.17,0.964,3.248,1.443c0.722,0.331,0.842,0.659,0.307,1.175c-1.002,0.966-2.036,1.931-3.189,2.816
					c-1.317,1.011-2.769,1.938-4.205,2.89c-0.239,0.164-0.54,0.247-0.944,0.428c0.307-0.887-0.624-1.087-1.201-1.39
					c-1.071-0.563-2.222-1.033-3.335-1.532c-1.034-0.463-2.089-0.892-3.091-1.374c-0.776-0.395-0.902-0.993-0.269-1.481
					c1.173-0.948,2.36-1.904,3.595-2.786c1.232-0.884,2.542-1.689,3.801-2.52C191.532,353.568,191.828,353.459,192.242,353.256z"/>
				<path fill="#CE9549" d="M202.651,347.565c-0.209,0.282-0.363,0.551-0.586,0.778c-1.913,2-4.019,3.719-6.433,5.313
					c-0.542,0.355-0.995,0.395-1.572,0.112c-1.47-0.692-3.062-1.253-4.689-1.754c-0.87-0.265-1.688-0.667-2.439-1.1
					c-0.206-0.119-0.214-0.59-0.13-0.864c0.079-0.261,0.364-0.501,0.609-0.71c2.196-1.906,4.43-3.616,6.884-5.302
					c0.224-0.149,0.479-0.264,0.863-0.475c-0.103,0.245-0.117,0.379-0.201,0.462c-0.423,0.412-0.274,0.697,0.24,0.907
					c0.697,0.284,1.373,0.646,2.117,0.82C199.177,346.215,200.884,346.863,202.651,347.565z"/>
			</g>
		</g>
		<g>
			<g>
				<g>
					<path fill="#C1C1C1" d="M344.639,185.173c0.377,0.566,0.768,0.462,1.222,0.194c1.48-0.87,2.951-1.734,4.425-2.601l0.849-0.486
						c0.318-0.193,0.58-0.149,0.842,0.163c1.586,1.889,2.983,4.028,4.18,6.41c0.053,0.114,0.069,0.258,0.122,0.467
						c-2.088,1.169-4.154,2.27-6.21,3.355c-0.456,0.241-0.776-0.012-1.072-0.322c-0.295-0.31-0.575-0.656-0.806-1.033l-1.61-2.624
						l-1.716-2.585c-0.15-0.223-0.235-0.505-0.351-0.758L344.639,185.173z"/>
					<path fill="#C1C1C1" d="M342.486,192.815c0.147,0.098,0.191,0.263,0.28,0.386c1.33,1.803,2.627,3.648,3.824,5.528
						c1.05,1.609,2.356,2.924,3.719,4.186c0.771,0.714,1.69,0.729,2.591,0.497c0.574-0.148,1.116-0.529,1.673-0.814
						c2.758-1.411,5.526-2.886,8.288-4.478c1.157-0.656,2.194-1.468,3.319-2.123c0.701-0.411,1.38-1.087,2.319-0.785
						c-0.074-0.31-0.091-0.466-0.145-0.593c-1.116-2.629-2.331-4.993-3.969-7.105c-0.321-0.424-0.689-0.501-1.092-0.306
						c-0.29,0.14-0.58,0.292-0.852,0.482c-0.868,0.609-1.701,1.247-2.609,1.827c-1.204,0.78-2.422,1.513-3.633,2.244
						c-0.799,0.482-1.594,0.971-2.397,1.423c-1.582,0.89-3.169,1.731-4.747,2.567c-0.775,0.41-1.599,0.443-2.293-0.033
						c-1.505-1.034-2.818-2.351-3.882-3.951c-0.27-0.407-0.37-0.849-0.329-1.375c0.064-0.918,0.11-1.84,0.087-2.762
						c-0.002-0.704-0.123-1.367-0.469-1.965c-1.197-2.025-2.425-3.882-4.041-5.483c-0.106-0.107-0.258-0.154-0.373-0.219
						c0.026,0.632,0.099,1.201,0.065,1.77c-0.025,3.208,0.027,14.588-0.57,17.521c-0.095,0.829,0.071,1.551,0.389,2.294
						c0.572,1.278,1.414,2.644,2.138,3.711c0.728,1.065,1.334,1.819,1.334,1.819c0.212-1.175,0.388-2.338,0.549-3.5
						c0.093-1.169,0.187-2.335,0.28-3.51c0.095-1.174,0.191-2.356,0.288-3.561C342.314,195.302,342.398,194.077,342.486,192.815z"/>
				</g>
				<g>
					<path fill="#C1C1C1" d="M339.757,224.22c0.229,0.644,0.633,0.64,1.137,0.493c1.642-0.475,3.275-0.948,4.91-1.42l0.939-0.26
						c0.354-0.108,0.598,0,0.777,0.368c1.05,2.221,1.989,4.673,2.436,7.249c0.023,0.125,0.004,0.268,0.005,0.483
						c-2.304,0.613-4.571,1.167-6.822,1.707c-0.5,0.12-0.748-0.206-0.96-0.581c-0.211-0.374-0.398-0.78-0.53-1.204
						c-0.642-1.986-1.181-3.919-1.897-5.867c-0.091-0.254-0.107-0.549-0.158-0.824L339.757,224.22z"/>
					<path fill="#C1C1C1" d="M335.763,231.081c0.119,0.132,0.121,0.303,0.178,0.444c0.874,2.09,1.552,4.162,2.3,6.302
						c0.625,1.825,1.569,3.428,2.58,4.994c0.571,0.887,1.452,1.129,2.385,1.13c0.592,0.001,1.209-0.235,1.817-0.372
						c3.012-0.681,6.05-1.421,9.11-2.277c1.26-0.354,2.533-0.861,3.79-1.213c0.779-0.224,1.6-0.711,2.436-0.184
						c0.004-0.32,0.024-0.475,0.005-0.612c-0.414-2.825-1.107-5.45-2.055-7.876c-0.197-0.489-0.543-0.659-0.979-0.569
						c-0.312,0.065-0.638,0.137-0.955,0.252c-1.011,0.368-2.015,0.769-3.022,1.108c-1.356,0.457-2.711,0.865-4.061,1.272
						c-0.891,0.268-1.777,0.545-2.665,0.784c-1.758,0.465-3.458,0.898-5.243,1.298c-0.871,0.198-1.68,0.022-2.216-0.607
						c-1.138-1.358-2.141-2.98-2.769-4.794c-0.163-0.463-0.154-0.916,0.012-1.416c0.288-0.875,0.531-1.763,0.794-2.647
						c0.214-0.671,0.222-1.355,0.041-2.018c-0.651-2.259-1.469-4.384-2.548-6.316c-0.072-0.129-0.205-0.212-0.297-0.303
						c-0.15,0.614-0.268,1.172-0.424,1.719c-0.719,3.128-3.679,14.102-4.899,16.821c-0.294,0.78-0.308,1.522-0.18,2.324
						c0.36,2.703,1.958,6.215,1.958,6.215C332.883,240.21,334.047,235.832,335.763,231.081z"/>
				</g>
				<path fill="#C1C1C1" d="M360.301,232.838c-0.403-1.374-0.965-2.748-1.404-4.132c-0.35-1.071-0.633-2.18-0.938-3.268
					c-0.335-1.162-0.308-2.354,0.008-3.627c0.103-0.425,0.17-0.858,0.273-1.389c-0.329-0.104-0.585-0.208-0.85-0.263l-24.969-5.13
					c-0.915-0.188-1.829-0.406-2.754-0.512c-1.079-0.124-1.857-0.794-2.444-1.61c-1.459-1.985-2.376-4.138-3.411-6.37
					c-0.042-0.096-0.04-0.212-0.059-0.317c0.066-0.015,0.103-0.033,0.112-0.023c0.885,0.973,2.015,1.274,3.253,1.466l27.778,4.385
					c0.637,0.1,1.096,0.377,1.441,1.048c0.613,1.235,1.218,2.46,1.828,3.689c0.136,0.289,0.272,0.58,0.476,1.016
					c0.491-1.338,0.433-2.598,0.705-3.792c0.227-1.233,0.369-2.485,0.546-3.73c0.177-1.245,0.376-2.486,0.523-3.733
					c0.167-1.236,0.151-2.489,0.234-3.823c0.141,0.151,0.293,0.268,0.399,0.435c1.315,2.015,2.272,4.271,3.092,6.65
					c0.41,1.168,0.249,2.425,0.092,3.644c-0.399,3.011-1.106,5.975-1.637,8.966c-0.587,2.899-1.29,5.775-1.912,8.672
					c-0.111,0.54-0.118,1.102-0.202,1.649L360.301,232.838z"/>
				<g>
					<path fill="#C1C1C1" d="M344.658,243.712c0.414,1.43,0.719,2.811,1.012,4.271c0.203,1.07,0.325,2.186,0.423,3.311
						c0.034,0.387-0.03,0.848-0.162,1.243c-0.912,2.799-2.195,5.451-3.395,8.138c-1.234,2.672-2.724,5.216-4.077,7.829
						c-0.086,0.161-0.164,0.328-0.261,0.482c-0.563,0.929-1.24,1.143-2.009,0.713l-5.173-2.938c-3.069-1.7-6.133-3.41-9.228-5.065
						l-7.84-4.068c-0.397-0.209-0.787-0.469-1.095-0.79c-0.284-0.296-0.555-0.672-0.656-1.069c-0.595-2.213-0.97-4.504-1.127-6.759
						c-0.008-0.111,0.028-0.226,0.048-0.373c1.891,1.573,4.14,2.416,6.327,3.372l0.386,0.178l10.265,5.106l7.397,3.621
						c0.92,0.448,1.439,0.229,2.047-0.911c1.729-3.705,3.591-7.355,5.038-11.185c0.411-1.021,0.705-2.085,1.077-3.12
						c0.235-0.652,0.528-1.284,0.747-1.944L344.658,243.712z"/>
					<path fill="#C1C1C1" d="M350.256,247.622c0.221,0.887,0.486,1.757,0.644,2.682c0.273,1.6,0.476,3.247,0.69,4.902
						c0.075,0.639-0.026,1.277-0.338,1.928c-3.024,6.576-6.203,13.099-10.013,19.247c-0.637,1.05-1.07,2.044-1.207,3.174
						c-0.019,0.159-0.102,0.327-0.297,0.515c-0.073-0.729-0.205-1.439-0.213-2.182c-0.001-1.833-0.002-3.681-0.004-5.527
						c0-0.404,0.039-0.825,0.117-1.238c0.224-1.281,0.264-2.608,1.248-3.736c0.182-0.211,0.285-0.513,0.423-0.773
						c0.761-1.454,1.558-2.889,2.284-4.361l2.091-4.459c1.452-2.947,2.621-6.021,3.876-9.055l0.445-1.093L350.256,247.622z"/>
				</g>
				<path fill="#C1C1C1" d="M366.743,187.109c-0.226-0.228-0.474-0.426-0.676-0.686c-1.7-2.164-3.249-4.364-4.707-6.782
					c-0.358-0.585-0.699-1.176-0.752-1.954c-0.025-0.37-0.195-0.525-0.509-0.509l-7.567,0.361c-0.291,0.012-0.373,0.13-0.389,0.501
					c-0.042,0.992,0.352,1.813,0.665,2.677l0.177,0.418l-0.079,0.117c-0.241-0.214-0.497-0.395-0.723-0.644
					c-0.773-0.874-1.555-1.756-2.327-2.628c-0.146-0.157-0.384-0.277-0.573-0.269l-8.386,0.422
					c-0.625,0.032-1.161-0.235-1.626-0.697c-1.658-1.642-3.193-3.299-4.698-5.134c-0.148-0.187-0.27-0.398-0.376-0.556
					c0.869-0.048,1.711-0.07,2.549-0.143l8.967-0.82c0.557-0.051,0.558-0.053,0.49-0.736l-0.409-4.116l-0.596-4.092
					c-0.211-1.362-0.383-2.731-0.626-4.087l-0.799-4.058c-0.163-0.826-0.325-1.653-0.523-2.654c0.356,0.201,0.625,0.314,0.859,0.495
					c0.867,0.694,1.743,1.396,2.607,2.088c0.205,0.159,0.496,0.269,0.722,0.239c0.692-0.093,1.371-0.178,1.872-0.895
					c0.447-0.64,0.605-1.359,0.624-2.185c0.078-1.764-0.561-3.372-1.2-4.962c-0.174-0.401-0.348-0.801-0.585-1.346
					c0.354,0.185,0.609,0.28,0.834,0.445c1.893,1.416,3.864,2.965,5.5,4.832c0.558,0.619,0.887,1.374,1.161,2.209
					c0.509,1.599,1.013,3.194,0.969,4.912c-0.044,1.42-0.46,2.569-1.448,3.072c-0.913,0.467-1.959,0.579-2.955-0.042
					c-0.671-0.419-1.308-0.925-2.024-1.428c0.016,0.236,0.014,0.436,0.043,0.631l0.78,5.285c0.242,1.764,0.371,3.542,0.556,5.313
					c0.04,0.42,0.161,0.541,0.498,0.505c1.349-0.143,2.707-0.21,4.049-0.4c0.608-0.086,1.071,0.158,1.52,0.631
					c0.765,0.82,1.585,1.645,2.371,2.561c0.005-0.223,0.018-0.374,0.01-0.523c-0.723-9.204-2.152-18.348-4.294-27.325
					c-0.124-0.5-0.421-0.958-0.707-1.585c0.322,0.181,0.581,0.287,0.812,0.463c2.026,1.549,4.029,3.254,5.727,5.341
					c0.554,0.663,0.919,1.432,1.108,2.403c1.908,10.126,2.976,20.41,3.161,30.717c0.007,1.417,0.219,2.773,0.828,3.989
					c0.078,0.155,0.132,0.333,0.197,0.5L366.743,187.109z"/>
			</g>
			<g>
				<path fill="#CE9549" d="M311.129,266.285c0.606,1.007,0.634,1.125,1.97,0.492c1.766-0.802,3.32-2,4.94-3.093
					c0.282-0.189,0.55-0.411,0.842-0.574c0.485-0.269,1.176-0.041,1.302,0.5c0.3,1.297,0.591,2.615,0.76,3.979
					c0.204,1.482,0.202,2.967,0.216,4.457c0.006,0.399-0.072,0.816-0.119,1.298c-0.266-0.23-0.435-0.528-0.643-0.523
					c-0.363,0.009-0.823,0.094-1.112,0.336c-1.536,1.251-3.156,2.093-4.865,2.945c-0.493,0.256-1.024,0.436-1.543,0.564
					c-0.633,0.156-1.077-0.12-1.16-0.766c-0.192-1.428-0.339-2.81-0.469-4.262c-0.129-1.499-0.134-3.008-0.193-4.489
					C311.043,266.866,311.103,266.573,311.129,266.285z"/>
				<path fill="#CE9549" d="M325.22,281.947c0.619,0.963,1.303,0.37,2.018-0.095c0.922-0.598,1.867-1.151,2.818-1.701
					c1.037-0.581,2.069-1.161,3.097-1.738c0.697-0.381,1.031-0.28,1.125,0.458c0.175,1.381,0.332,2.785,0.353,4.237
					c0.023,1.659-0.1,3.375-0.195,5.094c-0.013,0.288-0.107,0.592-0.212,1.018c-0.528-0.776-1.244-0.151-1.834,0.129
					c-1.093,0.52-2.159,1.158-3.226,1.75c-0.99,0.55-1.967,1.137-2.954,1.65c-0.764,0.398-1.307,0.151-1.345-0.665
					c-0.068-1.512-0.116-3.026-0.087-4.541c0.03-1.514,0.168-3.041,0.258-4.544C325.05,282.705,325.155,282.413,325.22,281.947z"/>
				<path fill="#CE9549" d="M326.885,270.207c0.102,0.338,0.226,0.622,0.275,0.936c0.47,2.736,0.558,5.432,0.407,8.326
					c-0.039,0.647-0.278,1.033-0.85,1.327c-1.434,0.762-2.816,1.716-4.203,2.711c-0.734,0.537-1.547,0.951-2.344,1.293
					c-0.219,0.094-0.601-0.182-0.771-0.412c-0.162-0.22-0.183-0.591-0.205-0.911c-0.202-2.89-0.253-5.71-0.138-8.686
					c0.015-0.269,0.074-0.542,0.135-0.977c0.135,0.229,0.234,0.32,0.25,0.437c0.077,0.586,0.395,0.637,0.87,0.35
					c0.644-0.389,1.339-0.714,1.924-1.206c0.731-0.615,1.493-1.159,2.286-1.668C325.286,271.2,326.067,270.699,326.885,270.207z"/>
			</g>
		</g>
		<g>
			<g>
				<g>
					<path fill="#C1C1C1" d="M281.12,59.174c0.679,0.037,0.828-0.34,0.883-0.865c0.186-1.71,0.371-3.41,0.557-5.113l0.116-0.973
						c0.035-0.371,0.227-0.555,0.632-0.578c2.456-0.14,4.998,0.02,7.618,0.484c0.126,0.022,0.254,0.09,0.459,0.165
						c-0.272,2.329-0.651,4.689-1.002,6.981c-0.08,0.512-0.472,0.617-0.896,0.667c-0.424,0.051-0.865,0.067-1.305,0.026
						c-2.024-0.224-4.142-0.292-6.177-0.413c-0.268-0.014-0.544-0.114-0.816-0.173L281.12,59.174z"/>
					<path fill="#C1C1C1" d="M285.978,65.455c0.166-0.059,0.324,0.005,0.475,0.007c2.208,0.046,4.506,0.051,6.737,0.198
						c1.907,0.126,3.733-0.131,5.55-0.467c1.029-0.189,1.588-0.919,1.94-1.784c0.225-0.551,0.244-1.217,0.349-1.836
						c0.506-3.053,1.023-6.219,1.34-9.328c0.133-1.287,0.12-2.628,0.262-3.921c0.09-0.811-0.046-1.762,0.755-2.336
						c-0.292-0.128-0.426-0.206-0.56-0.241c-2.739-0.715-5.406-1.083-8.071-1.031c-0.53,0.004-0.812,0.253-0.896,0.695
						c-0.061,0.318-0.113,0.641-0.122,0.973c-0.029,1.059-0.024,2.123-0.077,3.168c-0.062,1.393-0.226,2.843-0.356,4.247
						c-0.091,0.932-0.174,1.864-0.292,2.782c-0.232,1.806-0.506,3.588-0.779,5.36c-0.134,0.87-0.599,1.553-1.392,1.823
						c-1.722,0.587-3.555,0.85-5.466,0.741c-0.486-0.028-0.898-0.214-1.293-0.563c-0.678-0.627-1.458-1.127-2.189-1.688
						c-0.565-0.421-1.168-0.722-1.851-0.802c-2.33-0.261-4.556-0.379-6.812-0.026c-0.148,0.021-0.278,0.115-0.397,0.168
						c0.526,0.353,1.011,0.656,1.471,0.991c1.237,1.03,4.231,3.118,7.088,5.333c2.805,2.277,5.63,4.492,6.654,5.57
						c0.602,0.577,1.276,0.88,2.058,1.072c1.337,0.332,2.988,0.416,4.291,0.452c1.281,0.057,2.242,0.025,2.242,0.025
						c-1.572-1.804-3.407-3.245-5.147-4.832C289.756,68.607,287.858,67.15,285.978,65.455z"/>
				</g>
				<g>
					<path fill="#C1C1C1" d="M309.586,86.345c0.648,0.204,0.886-0.124,1.07-0.618c0.606-1.611,1.207-3.212,1.811-4.815l0.355-0.914
						c0.126-0.35,0.357-0.481,0.756-0.403c2.415,0.476,4.838,1.265,7.262,2.369c0.117,0.053,0.224,0.151,0.404,0.274
						c-0.856,2.2-1.8,4.381-2.713,6.515c-0.204,0.475-0.611,0.479-1.035,0.422c-0.423-0.056-0.856-0.15-1.271-0.299
						c-1.909-0.719-3.927-1.324-5.876-1.943c-0.256-0.08-0.499-0.246-0.747-0.371L309.586,86.345z"/>
					<path fill="#C1C1C1" d="M312.721,93.637c0.176-0.017,0.313,0.085,0.459,0.125c2.122,0.597,4.371,1.158,6.465,1.881
						c1.82,0.595,3.656,0.802,5.502,0.929c1.045,0.073,1.77-0.494,2.325-1.242c0.355-0.477,0.539-1.117,0.794-1.69
						c1.258-2.832,2.516-5.745,3.635-8.703c0.449-1.212,0.769-2.514,1.228-3.731c0.288-0.762,0.393-1.718,1.312-2.074
						c-0.251-0.196-0.362-0.306-0.483-0.373c-2.486-1.372-4.968-2.406-7.567-3.023c-0.515-0.129-0.85,0.042-1.04,0.449
						c-0.138,0.293-0.268,0.593-0.36,0.912c-0.291,1.019-0.55,2.051-0.862,3.052c-0.42,1.346-0.929,2.701-1.407,4.029
						c-0.32,0.88-0.632,1.761-0.974,2.621c-0.673,1.69-1.383,3.346-2.087,4.994c-0.346,0.808-0.967,1.353-1.804,1.417
						c-1.816,0.139-3.659-0.062-5.484-0.642c-0.463-0.148-0.818-0.43-1.114-0.866c-0.503-0.773-1.118-1.463-1.694-2.182
						c-0.442-0.548-0.95-0.989-1.593-1.237c-2.185-0.835-4.322-1.492-6.595-1.707c-0.149-0.017-0.298,0.043-0.427,0.064
						c0.421,0.471,0.817,0.884,1.18,1.321c0.951,1.296,3.326,4.058,5.531,6.918c2.169,2.887,4.314,5.758,5.045,7.05
						c0.442,0.707,1.02,1.167,1.732,1.547c2.476,1.262,6.193,2.105,6.193,2.105c-1.09-2.129-2.445-4.02-3.768-5.968
						c-0.673-0.966-1.309-1.969-2.016-2.947C314.134,95.692,313.424,94.69,312.721,93.637z"/>
				</g>
				<path fill="#C1C1C1" d="M328.74,74.965c-1.384-0.445-2.76-0.887-4.153-1.336c-1.059-0.363-2.109-0.806-3.154-1.217
					c-1.118-0.434-2.139-1.097-2.961-2.121c-0.275-0.339-0.581-0.655-0.94-1.058c-0.279,0.202-0.515,0.344-0.716,0.525
					l-18.983,17.012c-0.696,0.623-1.414,1.227-2.05,1.909c-0.742,0.794-1.739,1.015-2.735,0.995
					c-2.388-0.08-4.801-0.493-7.162-1.037c-0.101-0.023-0.192-0.095-0.286-0.144c0.027-0.061,0.035-0.102,0.049-0.104
					c1.3-0.124,2.213-0.851,3.104-1.732l20.056-19.714c0.459-0.453,0.953-0.655,1.692-0.528c1.356,0.242,2.755,0.413,4.099,0.682
					c0.311,0.065,0.623,0.132,1.091,0.229c-0.751-1.22-1.845-1.88-2.669-2.784c-0.846-0.926-1.758-1.797-2.642-2.689
					c-0.891-0.887-1.734-1.824-2.696-2.633c-0.937-0.822-1.908-1.606-2.934-2.463c0.204-0.022,0.388-0.074,0.584-0.059
					c2.344,0.205,4.837,0.66,7.203,1.452c1.174,0.375,2.078,1.261,2.955,2.124c2.206,2.092,4.196,4.394,6.227,6.654
					c2.028,2.158,3.922,4.432,5.829,6.699c0.356,0.42,0.809,0.758,1.217,1.136L328.74,74.965z"/>
				<g>
					<path fill="#C1C1C1" d="M328.153,94.015c1.354,0.547,2.744,1.06,4.089,1.695c0.97,0.48,1.928,1.053,2.88,1.65
						c0.327,0.205,0.655,0.534,0.89,0.878c0.822,1.218,1.651,2.436,2.397,3.703c0.725,1.278,1.429,2.569,2.122,3.868
						c1.433,2.574,2.63,5.265,3.865,7.936c0.077,0.166,0.163,0.329,0.227,0.5c0.388,1.017,0.215,1.662-0.6,2.029l-5.439,2.408
						c-3.192,1.453-6.388,2.897-9.557,4.397l-7.921,3.872c-0.404,0.195-0.845,0.353-1.292,0.412
						c-0.411,0.054-0.883,0.051-1.275-0.098c-2.167-0.823-4.173-1.911-6.069-3.133c-0.093-0.059-0.163-0.158-0.267-0.261
						c2.384-0.58,4.402-1.888,6.474-3.077l0.373-0.204l10.214-5.211l7.312-3.789c0.907-0.472,1.026-1.014,0.43-2.159l-2.842-5.438
						l-3.114-5.287c-0.568-0.942-1.212-1.835-1.871-2.718c-0.404-0.564-0.765-1.158-1.147-1.74L328.153,94.015z"/>
					<path fill="#C1C1C1" d="M334.637,91.838c0.855,0.342,1.76,0.618,2.58,1.053c1.434,0.742,2.863,1.568,4.305,2.39
						c0.56,0.32,0.981,0.798,1.344,1.421c1.831,3.124,3.423,6.38,5.107,9.583l2.283,4.925c0.772,1.637,1.506,3.291,2.151,4.981
						c0.456,1.141,0.99,2.085,1.811,2.871c0.115,0.111,0.2,0.278,0.233,0.548c-0.625-0.379-1.27-0.696-1.867-1.135
						c-1.465-1.095-2.941-2.199-4.417-3.302c-0.336-0.235-0.664-0.512-0.963-0.815c-0.921-0.933-1.928-1.771-2.243-3.236
						c-0.058-0.273-0.238-0.537-0.361-0.805c-0.67-1.5-1.402-2.968-2.182-4.413l-2.288-4.362c-1.591-2.871-3.284-5.688-4.972-8.503
						l-0.646-0.989L334.637,91.838z"/>
				</g>
				<path fill="#C1C1C1" d="M295.837,42.582c-0.317,0.045-0.623,0.125-0.952,0.132c-2.75,0.081-5.407-0.025-8.242-0.26
					c-0.682-0.063-1.357-0.144-2.011-0.568c-0.312-0.202-0.537-0.159-0.711,0.103l-4.223,6.29c-0.163,0.242-0.119,0.378,0.17,0.613
					c0.769,0.63,1.66,0.804,2.538,1.072c0.147,0.045,0.299,0.065,0.449,0.096l0.05,0.129c-0.319,0.072-0.627,0.182-0.958,0.211
					c-1.16,0.097-2.332,0.195-3.491,0.291c-0.213,0.022-0.451,0.142-0.557,0.298l-4.662,6.984c-0.347,0.52-0.88,0.791-1.528,0.886
					c-1.148,0.169-2.29,0.322-3.431,0.432c-1.162,0.143-2.328,0.25-3.498,0.282c-0.237,0.006-0.479-0.024-0.668-0.033
					c0.48-0.725,0.965-1.414,1.406-2.131l4.692-7.686c0.291-0.478,0.29-0.48-0.296-0.836c-4.695-2.895-9.6-5.432-14.565-7.823
					c-0.75-0.386-1.527-0.71-2.462-1.12c0.378-0.174,0.631-0.328,0.918-0.414c1.08-0.333,2.169-0.582,3.238-0.865
					c0.248-0.067,0.51-0.234,0.621-0.433c0.338-0.61,0.675-1.206,0.401-2.043c-0.249-0.74-0.717-1.325-1.384-1.798
					c-1.407-1.033-3.047-1.555-4.701-2c-0.423-0.105-0.846-0.21-1.421-0.353c0.359-0.17,0.586-0.316,0.85-0.395
					c2.267-0.679,4.636-1.221,7.155-1.517c0.845-0.112,1.638,0.096,2.468,0.381c1.587,0.549,3.14,1.155,4.515,2.174
					c1.146,0.821,1.792,1.895,1.612,2.977c-0.172,1.013-0.704,1.92-1.795,2.343c-0.738,0.292-1.51,0.474-2.356,0.779
					c0.201,0.122,0.371,0.225,0.54,0.327c3.111,1.735,6.29,3.353,9.29,5.276c0.359,0.221,0.528,0.197,0.7-0.096
					c0.69-1.168,1.446-2.298,2.094-3.489c0.294-0.539,0.765-0.764,1.41-0.839c1.127-0.125,2.255-0.249,3.477-0.385
					c-0.181-0.13-0.296-0.225-0.424-0.303c-7.775-4.97-16.003-9.24-24.494-12.87c-0.473-0.205-1.016-0.246-1.686-0.4
					c0.335-0.148,0.575-0.291,0.852-0.367c2.438-0.669,4.99-1.228,7.714-1.424c0.86-0.042,1.692,0.132,2.579,0.569
					c9.279,4.506,18.168,9.789,26.535,15.78c1.137,0.842,2.346,1.485,3.682,1.723c0.171,0.03,0.345,0.093,0.517,0.141
					L295.837,42.582z"/>
			</g>
			<g>
				<path fill="#CE9549" d="M326.368,134.368c1.167,0.114,1.278,0.161,1.572-1.289c0.4-1.891,0.316-3.836,0.445-5.804
					c0.018-0.34,0.001-0.688,0.048-1.021c0.077-0.551,0.673-0.972,1.178-0.748c1.213,0.534,2.438,1.088,3.626,1.767
					c1.268,0.736,2.558,1.584,3.736,2.47c0.323,0.234,0.609,0.545,0.965,0.871c-0.344,0.077-0.682,0.035-0.803,0.206
					c-0.21,0.297-0.417,0.718-0.397,1.095c0.093,1.978-0.245,3.797-0.53,5.66c-0.09,0.549-0.263,1.083-0.47,1.576
					c-0.252,0.6-0.74,0.793-1.306,0.473c-1.248-0.701-2.466-1.4-3.718-2.156c-1.274-0.791-2.483-1.688-3.701-2.523
					C326.781,134.782,326.583,134.56,326.368,134.368z"/>
				<path fill="#CE9549" d="M347.318,132.392c1.141,0.078,1.075-0.826,1.132-1.68c0.073-1.098,0.197-2.19,0.326-3.284
					c0.154-1.183,0.308-2.359,0.461-3.531c0.084-0.778,0.36-0.985,1.029-0.629c1.23,0.676,2.432,1.396,3.61,2.246
					c1.342,0.973,2.64,2.1,3.959,3.204c0.22,0.185,0.407,0.441,0.708,0.773c-0.942-0.037-0.851,0.906-0.985,1.55
					c-0.236,1.189-0.361,2.427-0.523,3.638c-0.151,1.125-0.263,2.26-0.441,3.359c-0.138,0.853-0.66,1.141-1.336,0.682
					c-1.253-0.849-2.495-1.715-3.692-2.644c-1.195-0.928-2.338-1.951-3.489-2.922C347.852,132.971,347.644,132.725,347.318,132.392z
					"/>
				<path fill="#CE9549" d="M338.885,124.054c0.329,0.12,0.631,0.191,0.911,0.338c1.202,0.64,2.422,1.32,3.582,2.085
					c1.139,0.773,2.262,1.616,3.361,2.545c0.493,0.418,0.66,0.841,0.552,1.477c-0.267,1.616-0.275,3.278-0.316,4.989
					c-0.007,0.91-0.161,1.811-0.364,2.655c-0.055,0.233-0.504,0.375-0.792,0.374c-0.273,0-0.583-0.206-0.852-0.379
					c-2.414-1.569-4.761-3.193-7.062-5.068c-0.205-0.172-0.389-0.384-0.699-0.692c0.264,0.028,0.396,0.003,0.498,0.06
					c0.515,0.289,0.746,0.062,0.8-0.49c0.075-0.75,0.23-1.502,0.187-2.267C338.62,127.76,338.681,125.964,338.885,124.054z"/>
			</g>
		</g>
	</g>
	<g>
		<path fill="#DDDDDD" d="M141.337,31.645l1.035,3.274l2.528-0.137l0.155,0.49l-6.927,2.19l-0.154-0.491l2.371-1.411l-1.035-3.275
			l-6.215,1.964l-0.133-0.423l4.208-12.038l0.958-0.303l2.816,8.911l2.496-0.789l0.394,1.247L141.337,31.645z M134.303,32.495
			l4.612-1.457l-1.936-6.127L134.303,32.495z"/>
		<path fill="#DDDDDD" d="M151.55,18.732l-2.289-0.149l-0.098-0.504l6.147-1.194c2.843-0.552,5.842-0.183,6.447,2.936
			c0.495,2.545-1.333,4.899-4.681,5.549l-0.71,0.138l-0.126-0.642c2.782-0.754,3.68-2.499,3.252-4.701
			c-0.41-2.109-1.922-2.911-4.077-2.492c-0.643,0.125-1.271,0.318-1.759,0.508l2.592,13.346l2.52,0.106l0.098,0.505l-6.718,1.304
			l-0.098-0.504l2.067-0.996L151.55,18.732z"/>
		<path fill="#DDDDDD" d="M169.43,29.392l2.275,0.3l0.065,0.51l-6.558,0.836l-0.065-0.51l2.129-0.86l-1.7-13.349l-2.274-0.298
			l-0.066-0.51l6.557-0.835l0.065,0.509l-2.128,0.86L169.43,29.392z"/>
		<path fill="#DDDDDD" d="M177.695,28.834l5.48-0.333l1.26-3.916l0.536-0.033l0.075,4.701l-11.685,0.71l-0.031-0.513l2.181-0.717
			l-0.817-13.433l-2.251-0.449l-0.031-0.513l6.763-0.411l0.031,0.513l-2.342,0.727L177.695,28.834z"/>
		<path fill="#DDDDDD" d="M196.72,23.855l-5.346-0.176l-1.853,4.496l2.269,0.635l-0.016,0.491l-5.369-0.177l0.016-0.489l1.957-0.521
			l6.301-14.703l0.677,0.022l5.159,15.128l1.944,0.578l-0.018,0.514l-6.583-0.216l0.017-0.514l2.423-0.482L196.72,23.855z
			 M191.729,22.826l4.693,0.153l-2.131-6.286L191.729,22.826z"/>
		<path fill="#DDDDDD" d="M207.817,15.667l-2.123-0.871l0.067-0.51l6.252,0.831c3.427,0.456,5.635,1.739,5.254,4.61
			c-0.268,2.015-1.827,3.456-5.417,3.521c0.745,0.241,2.009,0.668,2.742,2.415l1.786,4.292c0.358,0.849,0.863,1.128,1.882,1.264
			l-0.067,0.51c-0.386,0.065-1.248,0.164-2.196,0.038c-1.019-0.136-1.575-0.564-1.988-1.537l-2.242-5.458
			c-0.373-0.922-0.873-1.413-1.914-1.551l-0.834-0.11l-0.822,6.182l2.192,0.88l-0.067,0.51l-6.622-0.881l0.067-0.51l2.277-0.286
			L207.817,15.667z M209.126,22.298l1.713,0.228c2.199,0.292,3.879-0.993,4.171-3.193c0.256-1.922-0.9-3.159-3.145-3.457
			c-0.648-0.086-1.355-0.086-1.876-0.061L209.126,22.298z"/>
		<path fill="#DDDDDD" d="M219.092,31.434l2.294-0.081l2.963-13.122l-2.035-1.058l0.112-0.501l11.255,2.541l-0.89,3.941
			l-0.592-0.134l-0.394-3.345l-5.285-1.194l-1.358,6.015l3.212,0.724l1.307-2.075l0.501,0.114l-1.204,5.331l-0.501-0.114
			l-0.288-2.436l-3.212-0.724l-1.523,6.743l5.353,1.208l2.302-3.407l0.523,0.119l-1.238,4.534l-11.414-2.577L219.092,31.434z"/>
		<path fill="#DDDDDD" d="M236.769,36.767c-1.34-0.416-2.641-1.262-3.702-2.179l0.972-3.834l0.781,0.244
			c-0.166,2.419-0.001,4.33,2.43,5.088c1.763,0.548,3.54-0.05,4.074-1.768c1.193-3.837-6.332-5.764-4.943-10.225
			c0.819-2.634,3.292-3.504,5.904-2.691c1.294,0.402,2.76,1.274,3.639,1.915l-1.109,3.325l-0.758-0.236
			c0.3-1.987-0.188-3.729-2.195-4.353c-1.428-0.445-2.872,0.11-3.351,1.648c-1.16,3.726,6.458,5.437,4.951,10.278
			C242.676,36.501,239.96,37.761,236.769,36.767z"/>
	</g>
</g>
</svg>
