<?xml version="1.0" encoding="utf-8"?>
<!-- Generator: Adobe Illustrator 17.0.0, SVG Export Plug-In . SVG Version: 6.00 Build 0)  -->
<!DOCTYPE svg PUBLIC "-//W3C//DTD SVG 1.1//EN" "http://www.w3.org/Graphics/SVG/1.1/DTD/svg11.dtd">
<svg version="1.1" id="Capa_1" xmlns="http://www.w3.org/2000/svg" xmlns:xlink="http://www.w3.org/1999/xlink" x="0px" y="0px"
	 width="375px" height="372px" viewBox="0 0 375 372" enable-background="new 0 0 375 372" xml:space="preserve">
<g>
	<g>
		<g>
			<g>
				<g>
					<path fill="#C1C1C1" d="M174.692,29.325c0.536-0.417,0.401-0.799,0.098-1.232c-0.983-1.412-1.961-2.816-2.94-4.223l-0.551-0.81
						c-0.217-0.303-0.194-0.567,0.097-0.851c1.76-1.718,3.783-3.265,6.065-4.634c0.11-0.066,0.251-0.099,0.454-0.177
						c1.325,1.928,2.587,3.963,3.829,5.921c0.276,0.438,0.049,0.775-0.237,1.092c-0.286,0.316-0.608,0.619-0.966,0.876
						c-1.673,1.158-3.315,2.504-4.93,3.746c-0.211,0.165-0.485,0.271-0.729,0.404L174.692,29.325z"/>
					<path fill="#C1C1C1" d="M182.48,30.872c0.086-0.154,0.248-0.209,0.363-0.306c1.695-1.417,3.431-2.912,5.21-4.278
						c1.52-1.153,2.727-2.542,3.875-3.985c0.651-0.817,0.592-1.735,0.289-2.619c-0.193-0.564-0.616-1.08-0.944-1.617
						c-1.624-2.635-3.312-5.382-5.114-7.919c-0.744-1.058-1.635-2.061-2.376-3.13c-0.464-0.671-1.191-1.299-0.965-2.258
						c-0.303,0.095-0.456,0.124-0.579,0.186c-2.531,1.255-4.783,2.735-6.762,4.522c-0.398,0.351-0.446,0.724-0.22,1.112
						c0.163,0.28,0.336,0.558,0.547,0.814c0.674,0.818,1.377,1.617,2.024,2.441c0.87,1.091,1.696,2.288,2.519,3.434
						c0.543,0.763,1.092,1.521,1.607,2.29c1.011,1.514,1.974,3.04,2.933,4.555c0.47,0.744,0.568,1.564,0.148,2.289
						c-0.912,1.573-2.122,2.975-3.635,4.147c-0.385,0.297-0.818,0.428-1.345,0.424c-0.923-0.029-1.839,0.113-2.759,0.167
						c-0.702,0.053-1.355,0.222-1.923,0.609c-1.928,1.326-3.682,2.711-5.149,4.462c-0.098,0.113-0.134,0.269-0.189,0.388
						c0.627-0.08,1.192-0.171,1.758-0.223c1.608-0.052,5.234-0.425,8.843-0.638c3.613-0.115,7.2-0.317,8.681-0.166
						c0.834,0.043,1.541-0.169,2.258-0.536c1.228-0.628,2.527-1.63,3.533-2.475c0.986-0.861,1.708-1.491,1.708-1.491
						C192.053,30.722,187.536,30.858,182.48,30.872z"/>
				</g>
				<g>
					<path fill="#C1C1C1" d="M214.018,31.044c0.62-0.26,0.584-0.666,0.398-1.165c-0.597-1.633-1.193-3.168-1.816-4.765l-0.337-0.906
						c-0.137-0.341-0.049-0.593,0.305-0.807c2.147-1.338,4.479-2.275,7.02-2.987c0.123-0.035,0.267-0.029,0.483-0.05
						c0.801,2.233,1.54,4.433,2.263,6.62c0.16,0.485-0.144,0.762-0.502,1.007c-0.357,0.244-0.747,0.468-1.159,0.639
						c-1.895,0.791-3.795,1.584-5.697,2.377c-0.244,0.103-0.535,0.132-0.803,0.196L214.018,31.044z"/>
					<path fill="#C1C1C1" d="M221.182,34.47c0.122-0.131,0.294-0.149,0.43-0.218c1.988-0.94,4.015-1.852,6.087-2.769
						c1.769-0.775,3.298-1.874,4.77-2.988c0.829-0.614,1.002-1.52,0.93-2.459c-0.044-0.603-0.324-1.215-0.513-1.8
						c-0.926-2.936-1.913-5.893-3.018-8.864c-0.456-1.226-1.068-2.438-1.519-3.673c-0.282-0.775-0.829-1.58-0.373-2.446
						c-0.317,0.011-0.471-0.004-0.606,0.024c-2.787,0.67-5.351,1.599-7.696,2.764c-0.471,0.234-0.61,0.582-0.487,1.018
						c0.089,0.314,0.187,0.629,0.328,0.934c0.45,0.971,0.932,1.932,1.353,2.902c0.567,1.305,1.085,2.614,1.602,3.917
						c0.341,0.86,0.69,1.715,1.001,2.575c0.617,1.668,1.156,3.458,1.708,5.17c0.269,0.848,0.159,1.67-0.425,2.257
						c-1.269,1.28-2.773,2.273-4.544,3.112c-0.448,0.205-0.903,0.238-1.416,0.12c-0.897-0.205-1.806-0.363-2.71-0.542
						c-0.69-0.137-1.362-0.149-2.005,0.074c-2.188,0.772-4.258,1.866-6.098,3.108c-0.123,0.084-0.196,0.225-0.278,0.325
						c0.626,0.088,1.194,0.149,1.754,0.249c3.195,0.357,14.342,2.589,17.169,3.497c0.801,0.23,1.549,0.158,2.331-0.011
						c2.655-0.548,6.033-2.448,6.033-2.448C230.514,36.603,226.04,35.87,221.182,34.47z"/>
				</g>
				<path fill="#C1C1C1" d="M220.929,9.93c-1.329,0.553-2.651,1.102-3.99,1.659c-1.04,0.449-2.126,0.84-3.187,1.247
					c-1.132,0.435-2.328,0.561-3.62,0.321c-0.429-0.08-0.866-0.124-1.401-0.198c-0.077,0.335-0.16,0.597-0.193,0.865l-3.094,25.302
					c-0.113,0.927-0.257,1.854-0.287,2.788c-0.036,1.089-0.64,1.902-1.403,2.53c-1.859,1.577-3.954,2.876-6.088,3.967
					c-0.092,0.047-0.208,0.052-0.311,0.076c-0.02-0.065-0.041-0.101-0.032-0.111c0.898-0.938,1.108-2.086,1.199-3.336l2.135-28.042
					c0.048-0.644,0.287-1.118,0.926-1.503c1.183-0.73,2.356-1.453,3.533-2.179c0.278-0.165,0.557-0.33,0.975-0.578
					c-1.375-0.35-2.628-0.159-3.842-0.308c-1.244-0.153-2.501-0.22-3.753-0.323c-1.25-0.131-2.505-0.161-3.76-0.174
					c-1.246-0.008-2.49,0.035-3.825,0.059c0.139-0.151,0.243-0.31,0.401-0.427c1.899-1.405,4.071-2.611,6.375-3.675
					c1.129-0.48,2.39-0.395,3.616-0.312c3.026,0.225,6.055,0.444,9.059,0.905c2.926,0.425,5.884,0.65,8.794,1.191
					c0.543,0.093,1.103,0.059,1.657,0.085L220.929,9.93z"/>
				<g>
					<path fill="#C1C1C1" d="M233.047,24.587c1.376-0.473,2.74-0.932,4.169-1.332c1.05-0.29,2.153-0.504,3.267-0.695
						c0.383-0.066,0.848-0.04,1.253,0.058c5.687,1.5,11.164,3.731,16.518,6.169c0.168,0.073,0.34,0.14,0.501,0.224
						c0.963,0.506,1.259,1.104,0.887,1.917l-2.511,5.393c-1.447,3.194-2.903,6.385-4.301,9.6l-3.42,8.136
						c-0.176,0.413-0.403,0.822-0.697,1.152c-0.274,0.311-0.631,0.621-1.025,0.768c-2.176,0.814-4.405,1.324-6.639,1.664
						c-0.109,0.017-0.227-0.01-0.374-0.019c1.413-2.009,2.072-4.321,2.848-6.579l0.147-0.399l4.259-10.646l3.01-7.666
						c0.367-0.942,0.124-1.483-1.081-1.949c-3.836-1.417-7.618-3-11.559-4.114c-1.051-0.324-2.137-0.53-3.198-0.815
						c-0.67-0.178-1.325-0.416-1.991-0.613L233.047,24.587z"/>
					<path fill="#C1C1C1" d="M236.481,18.717c0.866-0.293,1.713-0.629,2.623-0.863c1.573-0.405,3.2-0.743,4.833-1.093
						c0.632-0.129,1.274-0.076,1.952,0.174c3.379,1.302,6.812,2.474,10.14,3.899l4.972,2.186l2.477,1.111l2.404,1.262
						c1.088,0.574,2.104,0.946,3.234,1.011c0.159,0.009,0.332,0.082,0.532,0.266c-0.717,0.119-1.408,0.298-2.143,0.354
						c-1.814,0.118-3.641,0.238-5.468,0.357c-0.398,0.024-0.836,0.048-1.259,0.014c-1.309-0.092-2.622-0.055-3.827-0.946
						c-0.224-0.166-0.533-0.246-0.804-0.364c-2.982-1.382-6.075-2.493-9.15-3.648c-3.052-1.223-6.217-2.116-9.344-3.121
						l-1.127-0.353L236.481,18.717z"/>
				</g>
				<path fill="#C1C1C1" d="M174.891,7.148c-0.21,0.242-0.388,0.503-0.631,0.724c-2.023,1.871-4.098,3.519-6.391,5.225
					c-0.555,0.402-1.119,0.785-1.891,0.896c-0.367,0.053-0.509,0.234-0.468,0.546l0.952,7.516c0.035,0.29,0.159,0.362,0.531,0.35
					c0.993-0.032,1.78-0.487,2.618-0.864c0.14-0.063,0.268-0.148,0.402-0.223l0.123,0.064c-0.194,0.265-0.353,0.55-0.584,0.789
					c-0.811,0.837-1.63,1.682-2.44,2.517c-0.145,0.157-0.247,0.404-0.223,0.591l1.078,8.327c0.081,0.62-0.143,1.175-0.568,1.673
					c-1.509,1.76-3.037,3.447-4.747,5.088c-0.174,0.162-0.375,0.3-0.524,0.418c-0.116-0.862-0.204-1.701-0.343-2.53l-1.522-8.875
					c-0.095-0.551-0.097-0.552-0.772-0.431l-4.071,0.727l-4.032,0.921l-4.027,0.939l-3.978,1.13c-0.81,0.23-1.621,0.46-2.602,0.739
					c0.172-0.372,0.262-0.649,0.424-0.897c0.623-0.921,1.252-1.852,1.872-2.771c0.142-0.217,0.229-0.517,0.181-0.74
					c-0.148-0.682-0.286-1.353-1.042-1.794c-0.674-0.393-1.403-0.491-2.228-0.443c-1.764,0.07-3.328,0.799-4.855,1.588
					c-0.385,0.207-0.769,0.414-1.294,0.696c0.156-0.369,0.23-0.631,0.376-0.869c1.253-2.022,2.649-4.084,4.38-5.867
					c0.572-0.607,1.299-0.997,2.109-1.338c1.556-0.633,3.101-1.286,4.825-1.356c1.42-0.07,2.6,0.253,3.179,1.197
					c0.537,0.873,0.733,1.906,0.191,2.949c-0.365,0.703-0.818,1.379-1.263,2.132c0.234-0.034,0.434-0.049,0.626-0.093l5.209-1.2
					c1.74-0.382,3.504-0.646,5.255-0.968c0.416-0.073,0.527-0.202,0.465-0.536c-0.249-1.333-0.423-2.682-0.717-4.005
					c-0.134-0.599,0.074-1.079,0.51-1.564c0.757-0.833,1.52-1.693,2.367-2.577c-0.223,0.01-0.374,0.011-0.521,0.039
					c-9.125,1.441-18.135,3.602-26.924,6.448c-0.489,0.166-0.922,0.501-1.523,0.838c0.154-0.337,0.239-0.604,0.396-0.848
					c0.691-1.074,1.423-2.141,2.22-3.19c0.806-1.019,1.687-1.99,2.653-2.944c0.617-0.607,1.356-1.035,2.309-1.302
					c9.958-2.709,20.139-4.579,30.398-5.586c1.411-0.111,2.747-0.42,3.911-1.117c0.149-0.089,0.321-0.156,0.483-0.233L174.891,7.148
					z"/>
			</g>
			<g>
				<path fill="#CE9549" d="M258.225,56.236c0.962-0.699,1.078-0.738,0.325-1.985c-0.979-1.618-2.273-3.119-3.469-4.691
					c-0.207-0.272-0.447-0.528-0.63-0.814c-0.302-0.472-0.128-1.183,0.396-1.342c1.258-0.383,2.538-0.758,3.872-1.015
					c1.437-0.276,2.935-0.426,4.438-0.596c0.402-0.045,0.829-0.011,1.318-0.013c-0.209,0.285-0.494,0.481-0.471,0.685
					c0.041,0.356,0.166,0.8,0.436,1.06c1.435,1.315,2.296,3.044,3.307,4.635c0.296,0.468,0.519,0.981,0.689,1.485
					c0.207,0.615-0.033,1.08-0.672,1.215c-1.404,0.298-2.799,0.603-4.204,0.798c-1.436,0.168-2.971,0.351-4.458,0.56
					C258.817,56.261,258.517,56.232,258.225,56.236z"/>
				<path fill="#CE9549" d="M272.719,40.931c0.902-0.678,0.275-1.344-0.23-2.049c-0.638-0.926-1.31-1.746-1.938-2.646
					c-0.677-0.964-1.352-1.923-2.023-2.879c-0.444-0.649-0.372-0.988,0.363-1.153c1.376-0.308,2.779-0.6,4.241-0.762
					c1.676-0.194,3.419-0.242,5.094-0.201c0.282,0.001,0.588,0.08,1.025,0.145c-0.733,0.589-0.049,1.25,0.28,1.813
					c0.61,1.044,1.336,2.051,2.015,3.062c0.631,0.94,1.298,1.861,1.892,2.8c0.46,0.727,0.257,1.287-0.557,1.391
					c-1.508,0.192-3.018,0.365-4.537,0.462c-1.517,0.096-3.056,0.086-4.567,0.122C273.486,41.042,273.178,40.978,272.719,40.931z"/>
				<path fill="#CE9549" d="M260.86,40.24c0.325-0.124,0.598-0.266,0.904-0.336c2.645-0.601,5.399-1.037,8.316-1.15
					c0.654-0.023,1.069,0.166,1.408,0.711c0.831,1.444,1.888,2.756,3.004,4.036c0.597,0.685,1.078,1.458,1.484,2.221
					c0.112,0.21-0.133,0.612-0.349,0.801c-0.206,0.18-0.576,0.231-0.895,0.279c-2.878,0.449-5.697,0.739-8.628,0.786
					c-0.272,0.013-0.553-0.018-0.996-0.035c0.219-0.156,0.302-0.262,0.419-0.289c0.584-0.135,0.607-0.452,0.277-0.89
					c-0.448-0.594-0.836-1.244-1.384-1.771C263.054,43.29,261.959,41.821,260.86,40.24z"/>
			</g>
		</g>
		<g>
			<g>
				<g>
					<path fill="#C1C1C1" d="M55.817,100.138c-0.009-0.683-0.392-0.808-0.917-0.831c-1.711-0.079-3.412-0.158-5.116-0.237
						l-0.974-0.056c-0.37-0.012-0.566-0.192-0.616-0.598c-0.287-2.444-0.344-5.037,0.013-7.648c0.018-0.125,0.082-0.254,0.151-0.459
						c2.382,0.161,4.709,0.365,7.018,0.578c0.512,0.048,0.643,0.435,0.722,0.858c0.079,0.422,0.125,0.865,0.114,1.309
						c-0.043,2.076-0.136,4.092-0.076,6.172c0.004,0.269-0.077,0.553-0.118,0.829L55.817,100.138z"/>
					<path fill="#C1C1C1" d="M61.799,94.918c-0.07-0.163-0.017-0.326-0.025-0.478c-0.148-2.253-0.163-4.46-0.167-6.713
						c-0.006-1.927-0.385-3.746-0.84-5.551c-0.257-1.022-1.018-1.536-1.898-1.833c-0.561-0.19-1.222-0.166-1.842-0.23
						c-3.073-0.322-6.191-0.596-9.365-0.769c-1.306-0.068-2.684-0.005-3.963-0.056c-0.81-0.039-1.745,0.158-2.368-0.609
						c-0.107,0.301-0.176,0.441-0.202,0.577c-0.509,2.808-0.727,5.49-0.571,8.114c0.038,0.532,0.304,0.798,0.748,0.855
						c0.32,0.041,0.644,0.073,0.975,0.061c1.051-0.04,2.15-0.083,3.209-0.084c1.432,0.004,2.849,0.054,4.259,0.103
						c0.931,0.032,1.86,0.056,2.779,0.115c1.809,0.119,3.586,0.275,5.372,0.443c0.888,0.092,1.6,0.518,1.905,1.285
						c0.678,1.677,1.077,3.512,1.094,5.435c0.005,0.489-0.151,0.916-0.47,1.335c-0.554,0.735-1.078,1.494-1.605,2.251
						c-0.38,0.592-0.639,1.216-0.673,1.907c-0.112,2.347-0.041,4.609,0.374,6.794c0.031,0.148,0.133,0.271,0.193,0.388
						c0.302-0.557,0.624-1.029,0.94-1.501c1.722-2.707,7.994-12.197,10.047-14.367c0.53-0.644,0.782-1.342,0.919-2.142
						c0.235-1.37,0.298-2.959,0.256-4.262c-0.032-1.294-0.13-2.26-0.13-2.26c-1.625,1.748-3.145,3.505-4.529,5.416
						C64.79,91.013,63.338,92.91,61.799,94.918z"/>
				</g>
				<g>
					<path fill="#C1C1C1" d="M81.242,70.093c0.156-0.668-0.184-0.884-0.684-1.034c-1.631-0.494-3.253-0.984-4.878-1.476
						l-0.926-0.292c-0.355-0.102-0.5-0.325-0.45-0.733c0.295-2.475,0.899-4.979,1.918-7.392c0.048-0.118,0.141-0.228,0.257-0.411
						c2.26,0.736,4.455,1.5,6.631,2.269c0.483,0.171,0.515,0.58,0.489,1.012c-0.026,0.431-0.088,0.875-0.206,1.305
						c-0.538,1.978-1.077,3.961-1.617,5.946c-0.07,0.254-0.21,0.518-0.318,0.775L81.242,70.093z"/>
					<path fill="#C1C1C1" d="M88.331,66.514c-0.028-0.176,0.063-0.323,0.091-0.472c0.464-2.159,0.981-4.32,1.517-6.525
						c0.462-1.881,0.525-3.763,0.568-5.574c0.017-1.036-0.595-1.725-1.38-2.24c-0.501-0.329-1.156-0.481-1.748-0.707
						c-2.914-1.094-5.836-2.091-8.863-3.038c-1.248-0.387-2.578-0.643-3.83-1.04c-0.784-0.25-1.754-0.308-2.162-1.199
						c-0.184,0.258-0.291,0.37-0.346,0.499c-1.178,2.605-2.014,5.193-2.53,7.755c-0.104,0.514,0.086,0.837,0.507,1.006
						c0.303,0.122,0.613,0.238,0.94,0.313c1.044,0.24,2.101,0.448,3.127,0.71c1.381,0.352,2.735,0.745,4.084,1.135
						c0.89,0.258,1.781,0.507,2.653,0.787c1.701,0.537,3.436,1.191,5.13,1.803c0.835,0.305,1.418,0.893,1.527,1.715
						c0.236,1.785,0.115,3.597-0.313,5.502c-0.113,0.479-0.367,0.857-0.776,1.19c-0.714,0.582-1.397,1.201-2.095,1.804
						c-0.528,0.465-0.965,0.971-1.164,1.637c-0.678,2.259-1.143,4.497-1.286,6.715c-0.01,0.148,0.057,0.291,0.085,0.417
						c0.458-0.436,0.859-0.843,1.286-1.22c2.252-2.297,10.829-9.766,13.27-11.462c0.659-0.512,1.087-1.111,1.439-1.823
						c1.176-2.458,1.72-6.313,1.72-6.313c-1.984,1.324-3.882,2.665-5.732,4.122C92.231,63.516,90.35,64.989,88.331,66.514z"/>
				</g>
				<path fill="#C1C1C1" d="M68.746,51.691c-0.386,1.398-0.741,2.769-1.096,4.201c-0.285,1.092-0.649,2.181-0.982,3.262
					c-0.355,1.153-0.996,2.167-1.985,3.031c-0.334,0.282-0.628,0.608-0.998,1.001c0.219,0.267,0.376,0.494,0.568,0.685
					l18.116,17.932c0.664,0.657,1.31,1.339,2.028,1.932c0.836,0.692,1.123,1.682,1.173,2.689c0.131,2.457-0.222,4.817-0.634,7.201
					c-0.017,0.104-0.081,0.2-0.123,0.299c-0.063-0.024-0.104-0.029-0.106-0.041c-0.213-1.302-0.995-2.174-1.927-3.01L61.912,72.02
					c-0.481-0.433-0.716-0.918-0.618-1.648c0.162-1.369,0.322-2.725,0.482-4.087c0.043-0.317,0.086-0.636,0.151-1.114
					c-1.136,0.856-1.768,1.95-2.645,2.804c-0.918,0.857-1.678,1.867-2.512,2.806c-0.823,0.949-1.662,1.885-2.461,2.852
					c-0.808,0.949-1.537,1.959-2.303,3.057c-0.036-0.204-0.1-0.385-0.098-0.584c-0.013-2.416,0.478-4.777,1.052-7.249
					c0.29-1.205,1.106-2.172,1.898-3.112c2.038-2.247,4.172-4.408,6.265-6.605l6.332-6.209c0.406-0.371,0.724-0.833,1.083-1.253
					L68.746,51.691z"/>
				<g>
					<path fill="#C1C1C1" d="M87.762,51.091c0.474-1.367,0.926-2.749,1.478-4.129c0.406-1.015,0.905-2.025,1.429-3.031
						c0.184-0.341,0.474-0.713,0.812-0.953c2.361-1.739,4.772-3.433,7.279-4.971c2.55-1.466,5.075-2.985,7.685-4.344
						c0.163-0.084,0.322-0.176,0.49-0.248c1.001-0.43,1.662-0.288,2.08,0.503l2.743,5.279c1.65,3.096,3.291,6.197,4.987,9.268
						l4.363,7.672c0.219,0.391,0.406,0.821,0.49,1.26c0.078,0.405,0.103,0.871-0.025,1.264c-0.353,1.088-0.775,2.139-1.25,3.158
						c-0.456,1.053-0.955,2.093-1.492,3.1c-0.052,0.099-0.144,0.178-0.239,0.292c-0.736-2.356-2.162-4.282-3.477-6.271l-0.226-0.359
						l-5.837-9.865l-4.237-7.059c-0.528-0.876-1.081-0.97-2.201-0.328c-1.794,0.984-3.51,2.097-5.229,3.204
						c-1.71,1.121-3.471,2.166-5.106,3.396c-0.893,0.642-1.712,1.384-2.581,2.057c-0.547,0.425-1.128,0.809-1.693,1.212
						L87.762,51.091z"/>
					<path fill="#C1C1C1" d="M85.209,44.785c0.292-0.869,0.54-1.749,0.906-2.618c0.639-1.493,1.336-3.025,2.076-4.5
						c0.29-0.569,0.749-1.007,1.356-1.396l4.573-2.923c1.534-0.959,3.124-1.826,4.686-2.739c3.106-1.862,6.357-3.46,9.59-5.088
						c1.092-0.566,2.003-1.153,2.752-1.989c0.105-0.119,0.268-0.211,0.537-0.255c-0.344,0.637-0.626,1.29-1.033,1.902
						c-0.99,1.554-1.988,3.121-2.986,4.687c-0.217,0.344-0.477,0.681-0.765,0.991c-0.878,0.967-1.688,1.959-3.112,2.398
						c-0.265,0.081-0.515,0.282-0.77,0.429c-2.836,1.652-5.731,3.21-8.46,5.037l-4.143,2.66l-4.023,2.837l-0.961,0.684
						L85.209,44.785z"/>
				</g>
				<path fill="#C1C1C1" d="M38.366,86.42c0.066,0.315,0.165,0.617,0.193,0.946c0.233,2.738,0.385,5.464,0.222,8.25
					c-0.017,0.688-0.053,1.37-0.431,2.053c-0.18,0.325-0.122,0.548,0.15,0.706l6.532,3.837c0.251,0.149,0.383,0.095,0.598-0.209
					c0.581-0.806,0.669-1.727,0.926-2.593c0.041-0.147,0.056-0.297,0.083-0.445l0.13-0.055c0.084,0.31,0.207,0.607,0.247,0.931
					c0.127,1.135,0.311,2.329,0.497,3.466c0.037,0.212,0.171,0.443,0.334,0.539l7.251,4.233c0.54,0.315,0.846,0.833,0.984,1.475
					c0.514,2.293,0.872,4.51,1.117,6.86c0.024,0.238,0.011,0.482,0.015,0.672c-0.753-0.435-1.471-0.878-2.214-1.274l-7.957-4.216
					c-0.494-0.261-0.496-0.26-0.809,0.35c-1.252,2.456-2.556,4.888-3.64,7.425l-1.704,3.768c-0.562,1.259-1.027,2.558-1.545,3.836
					c-0.309,0.784-0.618,1.567-0.992,2.517c-0.191-0.364-0.356-0.605-0.454-0.885c-0.353-1.057-0.71-2.125-1.062-3.179
					c-0.086-0.245-0.271-0.497-0.477-0.596c-0.631-0.3-1.247-0.6-2.055-0.27c-0.72,0.295-1.24,0.813-1.703,1.496
					c-0.999,1.448-1.443,3.107-1.721,4.809c-0.069,0.432-0.139,0.863-0.233,1.451c-0.198-0.349-0.361-0.568-0.461-0.829
					c-0.873-2.241-1.59-4.582-1.96-7.048c-0.134-0.825-0.002-1.64,0.219-2.491c0.423-1.63,0.884-3.237,1.889-4.641
					c0.806-1.17,1.776-1.909,2.876-1.792c1.018,0.107,1.956,0.583,2.455,1.651c0.336,0.719,0.597,1.492,0.925,2.307
					c0.115-0.207,0.224-0.374,0.305-0.554l2.217-4.863l2.442-4.754c0.194-0.375,0.158-0.542-0.144-0.697
					c-1.208-0.617-2.382-1.303-3.609-1.879c-0.556-0.26-0.811-0.718-0.931-1.362c-0.222-1.121-0.388-2.224-0.559-3.428
					c-0.125,0.185-0.218,0.304-0.292,0.434c-4.436,8.101-8.245,16.545-11.364,25.242c-0.165,0.489-0.162,1.037-0.26,1.72
					c-0.173-0.328-0.334-0.559-0.432-0.833c-0.899-2.422-1.546-4.908-1.872-7.602c-0.107-0.861,0.003-1.708,0.369-2.627
					c3.941-9.537,8.68-18.738,14.168-27.467c0.763-1.194,1.323-2.448,1.473-3.803c0.019-0.173,0.07-0.352,0.107-0.528L38.366,86.42z
					"/>
			</g>
			<g>
				<path fill="#CE9549" d="M128.162,50.39c0.035-1.184,0.075-1.299-1.377-1.474c-1.881-0.215-3.882-0.153-5.842-0.133
					c-0.337,0.01-0.68,0.056-1.012,0.037c-0.549-0.031-1.004-0.596-0.818-1.124c0.444-1.272,0.909-2.551,1.532-3.738
					c0.662-1.298,1.461-2.567,2.248-3.852c0.211-0.344,0.499-0.658,0.798-1.043c0.098,0.339,0.079,0.683,0.256,0.79
					c0.308,0.187,0.737,0.36,1.109,0.308c1.953-0.253,3.841,0.1,5.704,0.235c0.549,0.044,1.088,0.173,1.59,0.341
					c0.611,0.204,0.832,0.677,0.553,1.273c-0.615,1.309-1.218,2.615-1.914,3.864c-0.717,1.304-1.566,2.493-2.3,3.817
					C128.545,49.94,128.338,50.159,128.162,50.39z"/>
				<path fill="#CE9549" d="M124.902,29.627c0.011-1.134-0.895-1.032-1.758-1.052c-1.111-0.048-2.211-0.096-3.308-0.143
					c-1.18-0.059-2.356-0.117-3.526-0.176c-0.788-0.049-1.013-0.313-0.693-0.992c0.599-1.271,1.227-2.553,1.995-3.802
					c0.864-1.456,1.947-2.735,2.973-4.108c0.173-0.226,0.42-0.424,0.736-0.736c0.021,0.944,0.958,0.794,1.602,0.87
					c1.195,0.14,2.431,0.165,3.642,0.23c1.141,0.102,2.29,0.168,3.407,0.3c0.866,0.102,1.187,0.609,0.765,1.298
					c-0.779,1.283-1.582,2.535-2.44,3.78c-0.844,1.277-1.785,2.507-2.673,3.743C125.455,29.077,125.217,29.287,124.902,29.627z"/>
				<path fill="#CE9549" d="M117.074,38.504c0.101-0.332,0.155-0.633,0.288-0.916c1.144-2.446,2.486-4.878,4.185-7.241
					c0.386-0.519,0.806-0.693,1.451-0.616c1.645,0.204,3.321,0.146,5.008,0.021c0.905-0.06,1.799-0.002,2.659,0.162
					c0.237,0.046,0.407,0.486,0.423,0.77c0.016,0.274-0.175,0.579-0.329,0.867c-1.396,2.568-2.854,5.06-4.619,7.376
					c-0.16,0.214-0.366,0.394-0.653,0.727c0.011-0.268-0.024-0.399,0.029-0.503c0.261-0.519,0.017-0.746-0.539-0.768
					c-0.747-0.013-1.501-0.107-2.255,0C120.841,38.651,119.003,38.61,117.074,38.504z"/>
			</g>
		</g>
		<g>
			<g>
				<g>
					<path fill="#C1C1C1" d="M39.478,238.264c-0.536-0.411-0.871-0.182-1.213,0.224c-1.104,1.31-2.25,2.617-3.304,3.929
						l-0.624,0.737c-0.23,0.286-0.493,0.333-0.853,0.129c-2.204-1.223-4.121-2.813-6.035-4.664c-0.091-0.09-0.158-0.218-0.284-0.395
						c1.556-1.792,3.06-3.496,4.682-5.218c0.355-0.38,0.736-0.247,1.114-0.052c0.382,0.194,0.738,0.433,1.098,0.707
						c1.633,1.26,3.27,2.524,4.909,3.789c0.212,0.162,0.382,0.4,0.571,0.602L39.478,238.264z"/>
					<path fill="#C1C1C1" d="M38.959,230.342c-0.17-0.044-0.263-0.186-0.386-0.272c-1.806-1.271-3.629-2.581-5.466-3.934
						c-1.559-1.158-3.161-1.981-4.859-2.718c-0.953-0.42-1.826-0.127-2.604,0.393c-0.497,0.332-0.889,0.874-1.325,1.33l-3.228,3.439
						c-1.032,1.156-2.057,2.334-3.07,3.539c-0.836,0.995-1.582,2.118-2.429,3.113c-0.532,0.623-0.957,1.492-1.939,1.519
						c0.168,0.27,0.234,0.411,0.325,0.514c1.815,2.145,3.979,3.895,6.14,5.372c0.438,0.295,0.81,0.246,1.128-0.074
						c0.229-0.23,0.454-0.47,0.649-0.742c0.621-0.866,1.218-1.755,1.852-2.596c0.853-1.131,1.735-2.222,2.612-3.308
						c0.591-0.72,1.193-1.451,1.806-2.148c1.21-1.371,2.443-2.699,3.668-4.018c0.602-0.648,1.37-0.954,2.174-0.733
						c1.747,0.478,3.402,1.288,4.909,2.45c0.373,0.299,0.64,0.674,0.791,1.179c0.269,0.88,0.585,1.747,0.879,2.62
						c0.225,0.667,0.549,1.256,1.064,1.706c1.707,1.544,3.673,2.812,5.669,3.804c0.134,0.066,0.293,0.06,0.421,0.083
						c-0.232-0.588-0.459-1.112-0.648-1.648c-0.601-1.49-1.735-4.949-2.947-8.353c-1.058-3.45-2.097-6.882-2.413-8.328
						c-0.168-0.817-0.551-1.446-1.085-2.044c-0.916-1.025-2.211-2.023-3.281-2.78c-1.082-0.752-1.887-1.266-1.887-1.266
						c0.404,2.351,1.007,4.597,1.566,6.883C37.625,225.608,38.395,227.874,38.959,230.342z"/>
				</g>
				<g>
					<path fill="#C1C1C1" d="M31.085,199.818c-0.417-0.532-0.799-0.393-1.231-0.086c-1.388,0.992-2.833,1.972-4.199,2.98
						l-0.786,0.557c-0.293,0.219-0.56,0.199-0.859-0.088c-1.787-1.738-3.283-3.753-4.669-6.021c-0.066-0.11-0.099-0.25-0.177-0.453
						c1.944-1.345,3.842-2.62,5.84-3.883c0.438-0.28,0.775-0.056,1.092,0.227s0.616,0.603,0.879,0.958
						c1.27,1.628,2.543,3.26,3.818,4.894c0.165,0.21,0.271,0.483,0.404,0.726L31.085,199.818z"/>
					<path fill="#C1C1C1" d="M32.556,192.015c-0.154-0.085-0.209-0.246-0.306-0.36c-1.433-1.682-2.873-3.405-4.315-5.171
						c-1.238-1.509-2.572-2.702-4.036-3.837c-0.818-0.643-1.737-0.575-2.62-0.264c-0.564,0.198-1.079,0.626-1.614,0.959
						c-2.684,1.649-5.286,3.362-7.829,5.188c-1.058,0.754-2.059,1.655-3.127,2.406c-0.67,0.47-1.298,1.203-2.256,0.986
						c0.096,0.302,0.124,0.455,0.186,0.577c1.225,2.521,2.87,4.754,4.605,6.719c0.351,0.395,0.724,0.44,1.111,0.209
						c0.279-0.166,0.557-0.342,0.813-0.555c0.817-0.682,1.615-1.394,2.438-2.048c1.109-0.882,2.228-1.716,3.354-2.549
						c0.763-0.55,1.52-1.107,2.289-1.629c1.513-1.025,3.038-2.003,4.553-2.977c0.744-0.477,1.564-0.583,2.288-0.169
						c1.573,0.898,2.974,2.095,4.145,3.597c0.289,0.382,0.435,0.814,0.465,1.339c0.043,0.919,0.134,1.838,0.203,2.757
						c0.053,0.702,0.221,1.354,0.608,1.919c1.275,1.922,2.82,3.647,4.532,5.104c0.113,0.097,0.269,0.131,0.387,0.186
						c-0.08-0.627-0.171-1.192-0.222-1.758c-0.222-1.591-0.413-5.233-0.766-8.832c-0.154-3.611-0.307-7.198-0.265-8.68
						c0.041-0.834-0.173-1.539-0.541-2.252c-1.261-2.429-4.018-5.204-4.018-5.204c-0.15,2.381-0.159,4.706-0.178,7.062
						C32.449,187.094,32.62,189.482,32.556,192.015z"/>
				</g>
				<path fill="#C1C1C1" d="M8.872,198.548c0.887,1.141,1.769,2.276,2.663,3.425c0.646,0.91,1.306,1.841,1.962,2.766
					c0.717,0.982,1.152,2.105,1.259,3.414c0.035,0.435,0.107,0.868,0.176,1.404c0.344-0.012,0.619,0.002,0.887-0.035l25.252-3.48
					c0.925-0.128,1.859-0.226,2.768-0.435c1.061-0.243,2.005,0.132,2.813,0.708c1.935,1.404,3.779,3.084,5.368,4.867
					c0.069,0.076,0.104,0.187,0.154,0.28c-0.058,0.036-0.087,0.065-0.099,0.059c-1.138-0.626-2.302-0.535-3.533-0.303l-27.654,5.116
					c-0.635,0.118-1.155,0.009-1.691-0.511c-1.01-0.958-2.011-1.906-3.016-2.859c-0.231-0.226-0.463-0.454-0.81-0.795
					c0.016,1.419,0.523,2.583,0.691,3.795c0.173,1.243,0.432,2.476,0.655,3.712c0.196,1.242,0.505,2.463,0.8,3.684
					c0.307,1.209,0.663,2.405,1.023,3.692c-0.181-0.096-0.361-0.156-0.514-0.279c-1.844-1.479-3.54-3.278-5.177-5.234
					c-0.755-0.969-0.998-2.211-1.233-3.418c-0.596-2.98-1.079-5.98-1.435-8.996c-0.41-2.929-0.842-5.856-1.084-8.802
					c-0.055-0.547-0.236-1.079-0.359-1.62L8.872,198.548z"/>
				<g>
					<path fill="#C1C1C1" d="M19.97,183.096c-0.808-1.206-1.642-2.405-2.414-3.681c-0.559-0.938-1.096-1.948-1.545-2.973
						c-0.152-0.352-0.234-0.807-0.232-1.222c-0.036-5.877,0.723-11.737,1.661-17.542c0.032-0.18,0.055-0.363,0.099-0.54
						c0.264-1.057,0.777-1.496,1.659-1.348l5.86,1.023c3.462,0.567,6.922,1.144,10.392,1.66l8.745,1.188
						c0.444,0.063,0.899,0.176,1.3,0.375c0.369,0.183,0.755,0.447,0.991,0.787c1.296,1.881,2.304,3.891,3.306,5.976
						c0.047,0.102,0.055,0.223,0.088,0.368c-2.322-0.845-4.717-0.88-7.095-1.042l-0.423-0.038L30.98,164.74l-8.181-0.916
						c-1.017-0.112-1.425,0.271-1.59,1.552l-0.39,3.042l-0.245,3.056c-0.144,2.039-0.33,4.076-0.421,6.117
						c-0.023,1.099,0.079,2.2,0.096,3.299c0.011,0.692-0.03,1.387-0.047,2.08L19.97,183.096z"/>
					<path fill="#C1C1C1" d="M13.396,181.293c-0.52-0.76-1.074-1.49-1.549-2.307c-0.833-1.414-1.594-2.894-2.288-4.375
						c-0.279-0.576-0.353-1.206-0.297-1.925l0.43-5.407l0.678-5.386c0.385-3.6,1.13-7.149,1.771-10.71
						c0.208-1.212,0.312-2.289,0.094-3.394c-0.031-0.156-0.005-0.341,0.123-0.582c0.297,0.66,0.646,1.281,0.886,1.975
						c0.634,1.73,1.273,3.474,1.912,5.217c0.142,0.381,0.253,0.793,0.326,1.21c0.229,1.284,0.557,2.534,0.004,3.927
						c-0.096,0.26-0.086,0.58-0.123,0.873c-0.895,6.502-1.548,13.044-1.711,19.599l-0.03,1.178L13.396,181.293z"/>
				</g>
				<path fill="#C1C1C1" d="M18.025,243.808c0.286,0.141,0.583,0.246,0.857,0.426c2.243,1.505,4.539,3.024,6.728,4.817
					c0.525,0.435,1.035,0.883,1.334,1.604c0.142,0.343,0.352,0.434,0.642,0.313l7.011-2.871c0.27-0.109,0.31-0.248,0.206-0.606
					c-0.277-0.956-0.911-1.602-1.482-2.317c-0.096-0.12-0.209-0.222-0.314-0.332l0.032-0.136c0.303,0.119,0.618,0.2,0.906,0.362
					c1.008,0.571,2.026,1.147,3.032,1.717c0.187,0.101,0.45,0.135,0.625,0.064l7.762-3.203c0.578-0.239,1.169-0.166,1.753,0.118
					c2.055,1.014,4.231,1.987,6.172,3.25c0.199,0.127,0.381,0.287,0.531,0.401c-0.801,0.336-1.588,0.638-2.353,0.988l-8.175,3.775
					c-0.508,0.235-0.508,0.237-0.225,0.862c1.096,2.531,2.469,4.929,3.69,7.401c1.266,2.449,2.719,4.797,4.069,7.2
					c0.403,0.741,0.891,1.43,1.432,2.295c-0.411-0.065-0.707-0.078-0.994-0.166c-1.08-0.324-2.141-0.713-3.179-1.077
					c-0.243-0.083-0.553-0.09-0.756,0.014c-0.62,0.319-1.231,0.627-1.47,1.476c-0.214,0.759-0.134,1.496,0.157,2.261
					c0.596,1.64,1.669,2.984,2.797,4.273c0.294,0.323,0.586,0.644,0.986,1.083c-0.393-0.058-0.663-0.063-0.927-0.144
					c-2.263-0.696-4.534-1.561-6.793-2.714c-0.764-0.377-1.323-0.98-1.845-1.685c-1.01-1.341-1.959-2.71-2.531-4.324
					c-0.485-1.326-0.484-2.545,0.295-3.36c0.708-0.748,1.654-1.205,2.792-0.948c0.755,0.18,1.562,0.422,2.416,0.65
					c-0.1-0.214-0.172-0.399-0.27-0.571c-0.866-1.556-1.64-3.162-2.464-4.742c-0.814-1.585-1.64-3.163-2.339-4.804
					c-0.173-0.385-0.325-0.459-0.631-0.313c-1.223,0.587-2.479,1.105-3.682,1.733c-0.544,0.285-1.058,0.208-1.633-0.091
					c-0.999-0.528-1.999-1.055-3.082-1.627c0.076,0.21,0.118,0.354,0.18,0.49c3.685,8.472,8.115,16.617,13.186,24.331
					c0.279,0.434,0.708,0.769,1.179,1.269c-0.361-0.064-0.639-0.078-0.913-0.168c-2.403-0.796-4.823-1.756-7.213-3.096
					c-0.736-0.444-1.329-1.053-1.821-1.911c-5.198-8.902-9.724-18.221-13.29-27.909c-0.544-1.31-1.115-2.549-2.097-3.492
					c-0.123-0.122-0.231-0.272-0.346-0.409L18.025,243.808z"/>
			</g>
			<g>
				<path fill="#CE9549" d="M43.906,150.565c-0.92-0.747-0.988-0.849-2.007,0.201c-1.315,1.364-2.466,2.995-3.656,4.561
					c-0.196,0.273-0.367,0.575-0.582,0.827c-0.357,0.418-1.082,0.437-1.389-0.032c-0.752-1.127-1.469-2.269-2.037-3.485
					c-0.631-1.314-1.155-2.719-1.7-4.124c-0.146-0.376-0.22-0.796-0.346-1.267c0.329,0.128,0.591,0.352,0.783,0.276
					c0.335-0.131,0.733-0.367,0.918-0.695c0.985-1.705,2.411-2.992,3.65-4.39c0.368-0.409,0.798-0.76,1.236-1.056
					c0.533-0.361,1.044-0.25,1.347,0.333c0.667,1.283,1.339,2.555,1.909,3.866c0.603,1.361,1.029,2.757,1.637,4.144
					C43.78,149.988,43.829,150.284,43.906,150.565z"/>
				<path fill="#CE9549" d="M25.425,140.556c-0.895-0.697-1.363,0.085-1.903,0.759c-0.713,0.854-1.418,1.699-2.122,2.542
					c-0.762,0.903-1.522,1.802-2.277,2.697c-0.517,0.597-0.863,0.615-1.209-0.051c-0.647-1.248-1.285-2.525-1.813-3.894
					c-0.634-1.571-0.99-3.207-1.46-4.857c-0.075-0.274-0.082-0.591-0.138-1.032c0.763,0.556,1.212-0.28,1.664-0.746
					c0.837-0.864,1.607-1.832,2.393-2.755c0.768-0.846,1.522-1.718,2.304-2.527c0.607-0.626,1.204-0.574,1.496,0.18
					c0.547,1.398,1.051,2.795,1.526,4.234c0.502,1.446,0.909,2.941,1.352,4.396C25.324,139.783,25.346,140.099,25.425,140.556z"/>
				<path fill="#CE9549" d="M27.734,152.166c-0.202-0.282-0.409-0.508-0.554-0.785c-1.251-2.394-2.371-4.937-3.22-7.722
					c-0.176-0.621-0.061-1.061,0.393-1.527c1.16-1.184,2.132-2.551,3.056-3.968c0.5-0.757,1.093-1.43,1.74-2.016
					c0.18-0.16,0.633-0.028,0.868,0.131c0.228,0.153,0.353,0.49,0.492,0.789c1.194,2.668,2.289,5.338,3.058,8.148
					c0.073,0.257,0.092,0.53,0.181,0.96c-0.207-0.171-0.33-0.223-0.381-0.328c-0.255-0.522-0.582-0.466-0.938-0.038
					c-0.463,0.586-0.995,1.128-1.367,1.792C30.134,149.26,28.987,150.696,27.734,152.166z"/>
			</g>
		</g>
		<g>
			<g>
				<g>
					<path fill="#C1C1C1" d="M138.575,334.828c-0.654,0.175-0.676,0.58-0.564,1.098c0.362,1.686,0.723,3.362,1.084,5.041
						l0.203,0.942c0.086,0.355-0.037,0.593-0.419,0.755c-2.294,0.933-4.745,1.541-7.378,1.919c-0.127,0.018-0.269-0.007-0.487-0.015
						c-0.48-2.292-0.884-4.594-1.262-6.914c-0.085-0.512,0.254-0.734,0.64-0.915c0.385-0.18,0.799-0.334,1.228-0.431
						c2.013-0.484,4.03-1.048,5.998-1.569c0.258-0.07,0.551-0.06,0.827-0.087L138.575,334.828z"/>
					<path fill="#C1C1C1" d="M131.988,330.398c-0.139,0.108-0.309,0.096-0.452,0.141c-2.111,0.657-4.272,1.322-6.46,1.938
						c-1.848,0.476-3.499,1.29-5.117,2.177c-0.916,0.501-1.218,1.371-1.28,2.303c-0.04,0.595,0.15,1.234,0.245,1.856
						c0.474,3.071,0.983,6.228,1.669,9.263c0.278,1.267,0.713,2.54,0.984,3.815c0.169,0.8,0.598,1.664,0.019,2.459
						c0.317,0.031,0.469,0.064,0.607,0.055c2.814-0.145,5.497-0.721,8.001-1.571c0.502-0.168,0.69-0.493,0.631-0.94
						c-0.043-0.322-0.095-0.646-0.191-0.965c-0.307-1.018-0.647-2.031-0.925-3.044c-0.373-1.369-0.707-2.705-1.015-4.109
						c-0.206-0.916-0.421-1.829-0.598-2.74c-0.348-1.792-0.646-3.574-0.944-5.346c-0.146-0.87,0.081-1.665,0.748-2.169
						c1.448-1.095,3.103-1.916,4.947-2.407c0.47-0.128,0.914-0.066,1.405,0.124c0.862,0.32,1.743,0.596,2.615,0.892
						c0.666,0.226,1.332,0.326,2.004,0.191c1.143-0.235,2.247-0.49,3.329-0.848c1.088-0.377,2.138-0.808,3.143-1.307
						c0.134-0.066,0.227-0.196,0.323-0.283c-0.608-0.173-1.162-0.31-1.703-0.485c-1.542-0.446-4.972-1.671-8.412-2.772
						c-3.358-1.323-6.752-2.491-8.059-3.202c-0.752-0.361-1.485-0.438-2.287-0.377c-1.374,0.105-2.959,0.528-4.214,0.918
						c-1.24,0.361-2.138,0.685-2.138,0.685C123.08,326.897,127.342,328.412,131.988,330.398z"/>
				</g>
				<g>
					<path fill="#C1C1C1" d="M103.014,317.982c-0.68,0.01-0.802,0.396-0.822,0.923c-0.067,1.718-0.135,3.426-0.202,5.138
						l-0.049,0.978c-0.009,0.372-0.187,0.569-0.591,0.621c-2.443,0.31-4.992,0.326-7.64,0.044c-0.128-0.014-0.26-0.072-0.469-0.133
						c0.135-2.378,0.331-4.726,0.527-7.042c0.044-0.515,0.429-0.647,0.849-0.728s0.861-0.129,1.302-0.119
						c2.043,0.074,4.133,0.037,6.186-0.001c0.268-0.005,0.551,0.076,0.826,0.116L103.014,317.982z"/>
					<path fill="#C1C1C1" d="M97.741,312.047c-0.162,0.071-0.325,0.018-0.475,0.027c-2.216,0.12-4.502,0.263-6.724,0.247
						c-1.918,0.013-3.727,0.4-5.521,0.864c-1.016,0.262-1.524,1.029-1.815,1.913c-0.186,0.564-0.158,1.228-0.219,1.851
						c-0.302,3.088-0.556,6.219-0.709,9.407c-0.044,1.291,0.064,2.625,0.011,3.922c-0.034,0.813,0.169,1.752-0.591,2.38
						c0.3,0.106,0.44,0.175,0.576,0.2c2.799,0.502,5.465,0.72,8.126,0.484c0.529-0.04,0.793-0.308,0.847-0.754
						c0.039-0.321,0.068-0.647,0.054-0.979c-0.045-1.058-0.124-2.119-0.143-3.166c-0.01-1.431,0.034-2.858,0.073-4.273
						c0.026-0.934,0.044-1.868,0.097-2.791c0.106-1.814,0.256-3.608,0.404-5.391c0.073-0.875,0.491-1.588,1.265-1.913
						c1.68-0.706,3.495-1.098,5.412-1.126c0.487-0.006,0.913,0.149,1.332,0.468c0.725,0.571,1.51,1.055,2.29,1.546
						c0.592,0.38,1.215,0.638,1.903,0.671c2.341,0.1,4.573,0.056,6.799-0.453c0.147-0.031,0.269-0.134,0.385-0.195
						c-0.548-0.315-1.053-0.583-1.535-0.884c-1.304-0.942-4.445-2.794-7.428-4.833c-1.484-1.032-2.961-2.059-4.22-2.934
						c-1.244-0.895-2.218-1.707-2.798-2.168c-0.644-0.53-1.34-0.782-2.137-0.917c-1.373-0.221-3.014-0.207-4.288-0.187
						c-1.287,0.037-2.248,0.139-2.248,0.139c0.879,0.807,1.741,1.611,2.66,2.34c0.933,0.711,1.863,1.421,2.8,2.135
						c0.936,0.715,1.879,1.436,2.838,2.169C95.748,310.546,96.741,311.271,97.741,312.047z"/>
				</g>
				<path fill="#C1C1C1" d="M88.415,334.815c1.453-0.015,2.898-0.03,4.361-0.045c1.12,0.01,2.256,0.098,3.377,0.158
					c1.194,0.068,2.373,0.37,3.474,1.086c0.368,0.235,0.757,0.439,1.225,0.708c0.201-0.28,0.38-0.489,0.515-0.724l12.673-22.117
					c0.464-0.811,0.957-1.61,1.346-2.457c0.455-0.988,1.332-1.51,2.285-1.804c2.293-0.674,4.718-1.048,7.126-1.265
					c0.103-0.009,0.212,0.031,0.317,0.047c-0.007,0.067-0.001,0.109-0.013,0.114c-1.194,0.525-1.833,1.502-2.402,2.618
					l-12.846,25.018c-0.294,0.575-0.699,0.921-1.44,1.032c-1.363,0.197-2.741,0.465-4.106,0.642
					c-0.315,0.036-0.632,0.072-1.108,0.125c1.095,0.923,2.345,1.197,3.409,1.802c1.093,0.615,2.231,1.156,3.35,1.728
					c1.116,0.578,2.227,1.169,3.392,1.643c1.148,0.49,2.314,0.932,3.556,1.427c-0.187,0.085-0.345,0.191-0.536,0.239
					c-2.291,0.545-4.789,0.863-7.298,0.886c-1.232,0.012-2.367-0.548-3.47-1.092c-1.356-0.683-2.726-1.343-4.047-2.092l-3.953-2.266
					c-2.602-1.411-5.109-2.977-7.634-4.521c-0.47-0.286-1.006-0.464-1.512-0.692L88.415,334.815z"/>
				<g>
					<path fill="#C1C1C1" d="M82.977,316.559c-1.451-0.097-2.958-0.112-4.403-0.328c-1.073-0.146-2.166-0.383-3.259-0.646
						c-0.376-0.09-0.791-0.297-1.123-0.547c-2.384-1.727-4.535-3.734-6.679-5.746c-2.185-1.972-4.131-4.187-6.179-6.296
						c-0.126-0.132-0.26-0.26-0.375-0.399c-0.693-0.838-0.737-1.502-0.077-2.111l4.395-4.009c2.568-2.392,5.142-4.776,7.675-7.206
						l6.297-6.196c0.322-0.313,0.689-0.603,1.09-0.796c0.372-0.181,0.803-0.313,1.225-0.298c2.323,0.089,4.579,0.48,6.774,1.031
						c0.107,0.027,0.206,0.097,0.338,0.162c-2.08,1.308-3.579,3.186-5.166,4.97l-0.289,0.311l-8.036,8.179l-5.735,5.911
						c-0.706,0.73-0.684,1.318,0.257,2.202l4.433,4.238c1.49,1.399,3.076,2.693,4.617,4.035c0.842,0.707,1.733,1.351,2.623,1.998
						c0.562,0.406,1.094,0.854,1.64,1.284L82.977,316.559z"/>
					<path fill="#C1C1C1" d="M77.51,320.677c-0.933-0.038-1.85-0.047-2.766-0.197c-1.597-0.246-3.216-0.573-4.846-0.893
						c-0.633-0.124-1.185-0.443-1.728-0.917c-2.676-2.43-5.293-4.932-7.853-7.483c-2.48-2.631-5.05-5.182-7.348-7.978
						c-0.799-0.934-1.607-1.656-2.638-2.137c-0.145-0.068-0.279-0.199-0.396-0.443c0.715,0.159,1.429,0.253,2.137,0.478
						c1.74,0.57,3.494,1.144,5.247,1.718c0.384,0.125,0.766,0.298,1.153,0.485c1.172,0.589,2.396,1.06,3.164,2.345
						c0.143,0.239,0.397,0.432,0.601,0.645c4.516,4.763,9.406,9.152,14.407,13.4l0.922,0.736L77.51,320.677z"/>
				</g>
				<path fill="#C1C1C1" d="M129.851,355.205c0.287-0.141,0.552-0.313,0.861-0.421c2.571-0.886,5.156-1.707,7.922-2.375
					c0.666-0.152,1.333-0.285,2.088-0.085c0.359,0.095,0.559-0.016,0.641-0.32l2.012-7.304c0.079-0.281-0.007-0.396-0.354-0.531
					c-0.927-0.36-1.828-0.249-2.744-0.23c-0.154,0.003-0.304,0.031-0.456,0.048l-0.088-0.108c0.28-0.168,0.536-0.368,0.841-0.499
					c1.069-0.453,2.148-0.911,3.215-1.364c0.194-0.087,0.383-0.276,0.433-0.457l2.208-8.101c0.164-0.603,0.583-1.028,1.165-1.319
					c2.056-0.997,4.147-2.095,6.341-2.891c0.223-0.081,0.461-0.129,0.643-0.179c-0.224,0.84-0.465,1.647-0.656,2.467l-2.007,8.778
					c-0.124,0.545-0.123,0.547,0.546,0.701c2.674,0.679,5.402,1.099,8.114,1.594c2.705,0.548,5.455,0.797,8.186,1.169
					c0.837,0.097,1.669,0.233,2.686,0.321c-0.303,0.29-0.494,0.519-0.738,0.679c-0.928,0.604-1.866,1.215-2.791,1.816
					c-0.214,0.144-0.41,0.386-0.451,0.61c-0.126,0.686-0.256,1.359,0.271,2.061c0.47,0.626,1.105,1.002,1.883,1.282
					c1.656,0.586,3.383,0.485,5.092,0.378c0.435-0.04,0.869-0.08,1.46-0.134c-0.286,0.278-0.455,0.491-0.681,0.653
					c-1.934,1.371-4.011,2.71-6.299,3.75c-0.761,0.335-1.581,0.409-2.458,0.406c-1.68-0.006-3.346-0.077-4.974-0.596
					c-1.342-0.447-2.3-1.24-2.474-2.328c-0.16-1.016,0.056-2.044,0.956-2.792c0.606-0.504,1.283-0.949,1.983-1.468
					c-0.229-0.06-0.419-0.125-0.613-0.16c-3.5-0.665-7.036-1.148-10.49-2.04c-0.411-0.096-0.563-0.021-0.634,0.311
					c-0.283,1.327-0.641,2.638-0.878,3.973c-0.107,0.605-0.482,0.966-1.071,1.241c-1.029,0.474-2.059,0.947-3.175,1.46
					c0.213,0.066,0.353,0.121,0.499,0.154c8.955,2.293,18.13,3.644,27.319,4.412c0.514,0.038,1.042-0.101,1.725-0.176
					c-0.271,0.25-0.453,0.463-0.691,0.626c-2.097,1.407-4.344,2.859-6.853,3.804c-0.802,0.317-1.647,0.422-2.627,0.295
					c-10.224-1.318-20.354-3.472-30.222-6.506c-1.349-0.437-2.697-0.684-4.04-0.494c-0.172,0.024-0.356,0.018-0.535,0.026
					L129.851,355.205z"/>
			</g>
			<g>
				<path fill="#CE9549" d="M71.898,277.708c-1.145,0.264-1.266,0.255-1.079,1.72c0.213,1.927,0.889,3.762,1.412,5.653
					c0.091,0.327,0.219,0.651,0.283,0.981c0.104,0.546-0.327,1.133-0.879,1.083c-1.324-0.119-2.665-0.252-4.011-0.515
					c-1.466-0.271-2.9-0.714-4.311-1.169c-0.382-0.119-0.753-0.321-1.196-0.516c0.302-0.182,0.636-0.25,0.696-0.45
					c0.104-0.348,0.166-0.812,0.025-1.162c-0.72-1.843-1.002-3.656-1.283-5.543c-0.092-0.547-0.099-1.107-0.06-1.639
					c0.047-0.648,0.448-0.986,1.088-0.864c1.414,0.263,2.793,0.537,4.193,0.877c1.464,0.342,2.9,0.804,4.327,1.206
					C71.373,277.447,71.633,277.594,71.898,277.708z"/>
				<path fill="#CE9549" d="M52.64,286.247c-1.1,0.284-0.761,1.127-0.536,1.949c0.283,1.061,0.515,2.133,0.745,3.209
					c0.232,1.167,0.464,2.329,0.694,3.486c0.146,0.781-0.053,1.068-0.783,0.928c-1.367-0.262-2.752-0.55-4.14-0.981
					c-1.586-0.493-3.18-1.145-4.786-1.769c-0.272-0.101-0.513-0.299-0.894-0.525c0.902-0.261,0.528-1.136,0.443-1.783
					c-0.158-1.2-0.437-2.411-0.672-3.608c-0.218-1.112-0.476-2.221-0.66-3.318c-0.125-0.862,0.291-1.31,1.055-1.074
					c1.451,0.412,2.916,0.83,4.349,1.33c1.433,0.497,2.846,1.102,4.251,1.652C51.976,285.847,52.236,286.026,52.64,286.247z"/>
				<path fill="#CE9549" d="M63.293,291.468c-0.351-0.008-0.66,0.021-0.974-0.03c-2.737-0.409-5.356-1.139-8.05-2.191
					c-0.603-0.238-0.896-0.585-0.998-1.22c-0.282-1.6-0.742-3.224-1.271-4.842c-0.285-0.864-0.429-1.764-0.508-2.627
					c-0.022-0.237,0.359-0.515,0.631-0.605c0.259-0.086,0.619,0.009,0.931,0.088c2.824,0.695,5.509,1.533,8.302,2.566
					c0.251,0.097,0.492,0.239,0.886,0.431c-0.26,0.057-0.377,0.123-0.493,0.102c-0.581-0.108-0.728,0.178-0.603,0.719
					c0.17,0.733,0.264,1.494,0.551,2.203C62.392,287.852,62.847,289.62,63.293,291.468z"/>
			</g>
		</g>
		<g>
			<g>
				<g>
					<path fill="#C1C1C1" d="M277.845,313.81c-0.245,0.635,0.066,0.894,0.546,1.11c1.564,0.707,3.119,1.411,4.677,2.115l0.887,0.413
						c0.341,0.148,0.456,0.388,0.352,0.782c-0.629,2.385-1.57,4.76-2.826,7.112c-0.063,0.109-0.171,0.205-0.311,0.369
						c-2.159-1.032-4.25-2.084-6.322-3.138c-0.46-0.234-0.438-0.641-0.355-1.062c0.083-0.42,0.204-0.848,0.379-1.254l1.215-2.828
						l1.122-2.893c0.096-0.251,0.277-0.483,0.417-0.724L277.845,313.81z"/>
					<path fill="#C1C1C1" d="M270.36,316.458c0.005,0.177-0.105,0.308-0.154,0.452c-0.706,2.127-1.465,4.25-2.311,6.312
						c-0.709,1.786-1.03,3.611-1.275,5.452c-0.139,1.042,0.379,1.801,1.088,2.403c0.452,0.384,1.076,0.607,1.63,0.897
						c2.743,1.439,5.545,2.85,8.438,4.188c1.203,0.567,2.465,0.946,3.649,1.487c0.74,0.336,1.684,0.5,1.979,1.442
						c0.211-0.239,0.328-0.343,0.401-0.46c1.504-2.428,2.734-4.784,3.516-7.34c0.161-0.507,0.012-0.852-0.38-1.069
						c-0.282-0.156-0.573-0.306-0.885-0.418c-0.998-0.358-2-0.67-2.997-1.078c-1.332-0.534-2.633-1.106-3.928-1.674
						c-0.855-0.375-1.712-0.742-2.545-1.137c-1.639-0.779-3.242-1.591-4.835-2.398c-0.782-0.396-1.284-1.051-1.295-1.892
						c-0.023-1.826,0.295-3.658,0.989-5.45c0.177-0.455,0.48-0.792,0.933-1.062c0.787-0.477,1.567-0.971,2.306-1.522
						c0.574-0.408,1.046-0.889,1.335-1.516c0.964-2.146,1.773-4.22,2.149-6.463c0.026-0.148-0.023-0.3-0.036-0.431
						c-0.501,0.386-0.924,0.774-1.409,1.074c-2.635,1.83-11.902,8.435-14.643,9.639c-0.732,0.4-1.226,0.952-1.65,1.641
						c-0.714,1.204-1.345,2.68-1.798,3.887c-0.45,1.209-0.717,2.139-0.717,2.139c1.082-0.504,2.134-1.031,3.176-1.57
						c1.009-0.598,2.015-1.194,3.029-1.795c1.014-0.599,2.035-1.203,3.075-1.818C268.229,317.752,269.279,317.114,270.36,316.458z"
						/>
				</g>
				<g>
					<path fill="#C1C1C1" d="M243.13,332.34c-0.394,0.559-0.158,0.886,0.253,1.213c1.335,1.068,2.663,2.129,3.992,3.192l0.754,0.617
						c0.292,0.227,0.345,0.488,0.147,0.847c-1.209,2.139-2.671,4.32-4.517,6.171c-0.089,0.091-0.216,0.158-0.392,0.283
						c-1.83-1.529-3.59-3.061-5.329-4.589c-0.386-0.339-0.263-0.73-0.079-1.119c0.184-0.388,0.408-0.775,0.678-1.128
						c1.252-1.67,2.521-3.225,3.699-4.933c0.155-0.221,0.387-0.404,0.582-0.604L243.13,332.34z"/>
					<path fill="#C1C1C1" d="M235.222,333.034c-0.039,0.173-0.178,0.274-0.26,0.402c-1.203,1.919-2.505,3.668-3.822,5.514
						c-1.13,1.563-1.896,3.259-2.592,4.988c-0.395,0.978-0.085,1.837,0.452,2.6c0.341,0.484,0.889,0.852,1.352,1.27
						c2.293,2.068,4.65,4.123,7.114,6.129c1.016,0.825,2.164,1.573,3.177,2.397c0.632,0.507,1.504,0.897,1.555,1.884
						c0.264-0.181,0.402-0.254,0.503-0.349c2.069-1.968,3.814-4.047,5.249-6.221c0.286-0.443,0.225-0.824-0.1-1.128
						c-0.233-0.218-0.48-0.442-0.757-0.635c-0.884-0.614-1.79-1.203-2.648-1.83c-1.155-0.844-2.27-1.716-3.381-2.584
						c-0.733-0.573-1.47-1.138-2.177-1.725c-1.394-1.168-2.728-2.307-4.084-3.535c-0.664-0.597-0.987-1.36-0.782-2.16
						c0.453-1.713,1.2-3.468,2.32-5.027c0.284-0.4,0.66-0.654,1.164-0.807c0.881-0.269,1.747-0.583,2.62-0.878
						c0.672-0.212,1.235-0.6,1.672-1.13c1.47-1.835,2.734-3.728,3.691-5.724c0.064-0.133,0.055-0.29,0.076-0.417
						c-0.588,0.231-1.112,0.457-1.649,0.645c-2.97,1.216-13.642,5.127-16.567,5.699c-0.807,0.21-1.421,0.626-2.002,1.193
						c-2,1.853-3.948,5.184-3.948,5.184C226.103,335.946,230.351,334.372,235.222,333.034z"/>
				</g>
				<path fill="#C1C1C1" d="M247.938,354.094c0.89-1.122,1.689-2.373,2.566-3.53c0.673-0.904,1.416-1.775,2.129-2.651
					c0.756-0.944,1.745-1.609,2.968-2.085c0.406-0.161,0.799-0.356,1.292-0.578c-0.105-0.329-0.167-0.598-0.275-0.846
					l-10.209-23.357c-0.374-0.856-0.723-1.728-1.17-2.545c-0.521-0.953-0.422-1.975-0.094-2.925c0.78-2.337,2.01-4.327,3.237-6.46
					c0.054-0.09,0.15-0.155,0.225-0.231c0.05,0.045,0.086,0.065,0.083,0.078c-0.284,1.284,0.121,2.381,0.678,3.503l12.438,25.222
					c0.286,0.578,0.324,1.113-0.025,1.781c-0.656,1.213-1.307,2.414-1.959,3.621c-0.158,0.278-0.317,0.557-0.555,0.975
					c1.376-0.37,2.372-1.145,3.505-1.611c1.138-0.526,2.243-1.132,3.362-1.705s2.248-1.127,3.351-1.726
					c1.106-0.576,2.121-1.312,3.258-2.014c-0.042,0.202-0.05,0.394-0.125,0.577c-0.888,2.236-2.179,4.319-3.65,6.361
					c-0.718,1.009-1.837,1.602-2.924,2.177c-2.69,1.411-5.519,2.542-8.269,3.834c-2.707,1.193-5.462,2.277-8.187,3.439
					c-0.505,0.221-0.969,0.539-1.464,0.786L247.938,354.094z"/>
				<g>
					<path fill="#C1C1C1" d="M230.033,347.586c-0.93,1.163-1.882,2.209-2.906,3.29c-0.757,0.783-1.598,1.526-2.461,2.255
						c-0.297,0.251-0.71,0.464-1.109,0.585c-2.813,0.869-5.719,1.351-8.606,1.92c-2.895,0.533-5.832,0.783-8.747,1.184
						c-0.181,0.023-0.363,0.055-0.544,0.065c-1.084,0.076-1.649-0.354-1.741-1.23l-0.583-5.92c-0.381-3.488-0.751-6.977-1.184-10.46
						l-1.198-8.751c-0.058-0.445-0.071-0.913,0.014-1.35c0.078-0.403,0.229-0.841,0.495-1.153c1.465-1.762,3.12-3.39,4.872-4.819
						c0.086-0.071,0.201-0.108,0.332-0.176c-0.195,2.452,0.414,4.775,0.894,7.113l0.077,0.418l1.749,11.331l1.308,8.131
						c0.165,1.01,0.643,1.308,1.925,1.147c4.024-0.724,8.08-1.308,12.043-2.335c1.071-0.253,2.11-0.627,3.17-0.919
						c0.668-0.184,1.354-0.309,2.019-0.511L230.033,347.586z"/>
					<path fill="#C1C1C1" d="M230.067,354.414c-0.597,0.692-1.155,1.41-1.82,2.073c-1.15,1.146-2.378,2.262-3.607,3.391
						c-0.479,0.43-1.058,0.715-1.77,0.836c-7.116,1.322-14.278,2.487-21.499,2.92c-1.225,0.085-2.287,0.305-3.289,0.845
						c-0.141,0.076-0.326,0.105-0.592,0.054c0.554-0.48,1.057-0.997,1.66-1.432c1.497-1.058,3.006-2.125,4.513-3.191
						c0.33-0.233,0.696-0.444,1.079-0.619c1.176-0.556,2.283-1.289,3.772-1.135c0.277,0.027,0.583-0.063,0.876-0.1
						c1.627-0.217,3.259-0.393,4.88-0.649l4.849-0.863c3.245-0.513,6.43-1.331,9.633-2.056l1.15-0.267L230.067,354.414z"/>
				</g>
				<path fill="#C1C1C1" d="M289.011,332.984c0.056-0.316,0.075-0.633,0.171-0.948c0.787-2.637,1.691-5.171,2.826-7.757
					c0.271-0.63,0.558-1.249,1.163-1.741c0.288-0.234,0.317-0.462,0.122-0.709l-4.659-5.974c-0.178-0.231-0.321-0.23-0.634-0.029
					c-0.835,0.538-1.278,1.333-1.803,2.087l-0.239,0.386l-0.141,0.003c0.036-0.32,0.036-0.634,0.109-0.962
					c0.268-1.136,0.538-2.283,0.805-3.417c0.044-0.21,0.005-0.474-0.111-0.623l-5.181-6.607c-0.386-0.492-0.478-1.084-0.368-1.73
					c0.385-2.301,0.854-4.511,1.485-6.799c0.067-0.229,0.169-0.45,0.237-0.628c0.54,0.682,1.044,1.358,1.587,2l5.841,6.853
					c0.363,0.425,0.365,0.425,0.884-0.024l3.126-2.708l2.999-2.847c0.991-0.958,2.01-1.888,2.978-2.869l2.854-2.993
					c0.581-0.61,1.163-1.219,1.867-1.958c0.041,0.407,0.104,0.692,0.091,0.987c-0.067,1.109-0.135,2.229-0.202,3.334
					c-0.012,0.259,0.066,0.56,0.221,0.728c0.475,0.512,0.936,1.018,1.811,1.013c0.781-0.004,1.459-0.29,2.145-0.75
					c1.486-0.954,2.431-2.403,3.362-3.842c0.227-0.373,0.454-0.746,0.762-1.254c0.053,0.396,0.122,0.659,0.117,0.938
					c-0.065,2.363-0.194,4.867-0.775,7.28c-0.184,0.813-0.611,1.517-1.135,2.222c-1.013,1.338-2.025,2.67-3.454,3.624
					c-1.186,0.783-2.364,1.106-3.345,0.589c-0.908-0.477-1.603-1.266-1.67-2.438c-0.045-0.79,0.001-1.602-0.001-2.477
					c-0.184,0.149-0.348,0.263-0.491,0.399l-3.868,3.685c-1.302,1.215-2.68,2.346-4.02,3.518c-0.32,0.275-0.349,0.443-0.125,0.698
					c0.895,1.019,1.733,2.09,2.662,3.077c0.421,0.447,0.488,0.966,0.361,1.606c-0.229,1.098-0.43,2.244-0.725,3.414
					c0.185-0.125,0.316-0.201,0.433-0.293c7.102-5.899,13.748-12.34,19.846-19.267c0.337-0.39,0.54-0.897,0.887-1.491
					c0.038,0.367,0.101,0.64,0.09,0.93c-0.097,2.548-0.335,5.168-1.06,7.759c-0.222,0.835-0.64,1.577-1.324,2.291
					c-7.172,7.399-14.958,14.202-23.271,20.297c-1.153,0.823-2.139,1.778-2.781,2.977c-0.082,0.153-0.196,0.3-0.295,0.449
					L289.011,332.984z"/>
			</g>
			<g>
				<path fill="#CE9549" d="M192.255,333.213c-0.473,1.076-0.553,1.167,0.734,1.893c1.674,0.98,3.549,1.559,5.376,2.252
					c0.317,0.121,0.653,0.212,0.955,0.357c0.499,0.241,0.712,0.937,0.342,1.352c-0.887,0.993-1.796,1.991-2.812,2.916
					c-1.093,1.021-2.308,1.876-3.516,2.747c-0.323,0.235-0.708,0.412-1.129,0.651c0.035-0.35,0.18-0.66,0.056-0.827
					c-0.217-0.291-0.551-0.618-0.916-0.715c-1.908-0.533-3.53-1.371-5.212-2.276c-0.493-0.255-0.947-0.585-1.351-0.935
					c-0.492-0.427-0.523-0.949-0.043-1.389c1.056-0.98,2.1-1.898,3.211-2.841c1.15-0.97,2.38-1.844,3.556-2.747
					C191.731,333.478,192.005,333.358,192.255,333.213z"/>
				<path fill="#CE9549" d="M187.587,353.757c-0.43,1.061,0.449,1.278,1.242,1.594c1.02,0.408,2.017,0.862,3.015,1.321
					c1.073,0.512,2.142,1.021,3.206,1.528c0.713,0.35,0.823,0.681,0.275,1.183c-1.027,0.939-2.084,1.877-3.258,2.732
					c-1.342,0.976-2.815,1.865-4.274,2.779c-0.243,0.155-0.545,0.254-0.954,0.414c0.329-0.879-0.594-1.103-1.163-1.424
					c-1.055-0.593-2.191-1.096-3.29-1.626c-1.02-0.492-2.063-0.951-3.052-1.462c-0.766-0.395-0.877-0.981-0.232-1.482
					c1.196-0.928,2.405-1.84,3.66-2.69c1.254-0.849,2.581-1.617,3.861-2.41C186.87,354.055,187.169,353.972,187.587,353.757z"/>
				<path fill="#CE9549" d="M198.138,348.346c-0.217,0.278-0.378,0.543-0.606,0.764c-1.964,1.962-4.116,3.589-6.567,5.134
					c-0.551,0.341-1.004,0.369-1.574,0.071c-1.45-0.732-3.026-1.311-4.638-1.87c-0.862-0.29-1.669-0.715-2.408-1.169
					c-0.203-0.125-0.198-0.596-0.108-0.868c0.086-0.259,0.377-0.49,0.626-0.693c2.244-1.832,4.519-3.5,7.017-5.122
					c0.228-0.143,0.486-0.252,0.876-0.453c-0.109,0.242-0.126,0.376-0.213,0.456c-0.434,0.401-0.292,0.69,0.216,0.913
					c0.689,0.302,1.355,0.682,2.095,0.876c0.924,0.242,1.808,0.551,2.681,0.905C196.405,347.613,197.264,347.962,198.138,348.346z"
					/>
			</g>
		</g>
		<g>
			<g>
				<g>
					<path fill="#C1C1C1" d="M344.146,189.252c0.361,0.576,0.755,0.48,1.216,0.223c1.504-0.834,3-1.664,4.498-2.494l0.862-0.466
						c0.323-0.185,0.584-0.135,0.837,0.183c1.531,1.926,2.866,4.095,3.998,6.503c0.055,0.116,0.073,0.259,0.13,0.47
						c-2.059,1.121-4.206,2.172-6.281,3.208c-0.464,0.23-0.776-0.03-1.062-0.347s-0.554-0.668-0.774-1.051
						c-0.984-1.783-2.15-3.552-3.225-5.285c-0.143-0.227-0.221-0.51-0.329-0.766L344.146,189.252z"/>
					<path fill="#C1C1C1" d="M341.817,196.843c0.144,0.101,0.183,0.268,0.268,0.392c1.236,1.83,2.557,3.71,3.724,5.618
						c0.997,1.631,2.26,2.974,3.582,4.265c0.748,0.731,1.667,0.767,2.576,0.556c0.58-0.134,1.135-0.503,1.701-0.774
						c2.786-1.347,5.67-2.751,8.393-4.285c1.128-0.633,2.216-1.418,3.354-2.047c0.714-0.394,1.413-1.054,2.344-0.731
						c-0.064-0.312-0.077-0.467-0.126-0.596c-0.996-2.65-2.233-5.041-3.812-7.188c-0.309-0.431-0.675-0.517-1.084-0.331
						c-0.295,0.134-0.589,0.277-0.865,0.461c-0.882,0.587-1.748,1.205-2.633,1.764c-1.174,0.753-2.453,1.455-3.675,2.158
						c-0.814,0.463-1.623,0.933-2.441,1.366c-1.609,0.852-3.223,1.656-4.828,2.455c-0.788,0.392-1.614,0.406-2.292-0.086
						c-1.473-1.068-2.745-2.414-3.758-4.038c-0.257-0.413-0.343-0.857-0.286-1.381c0.121-0.915,0.08-1.841,0.116-2.762
						c0.018-0.704-0.084-1.371-0.412-1.975c-1.13-2.054-2.318-3.94-3.907-5.58c-0.103-0.109-0.254-0.161-0.366-0.228
						c0.015,0.633,0.047,1.204,0.039,1.773c-0.128,1.605-0.107,5.255-0.269,8.866c-0.242,3.605-0.423,7.19-0.713,8.648
						c-0.124,0.825,0.017,1.55,0.311,2.3c0.5,1.284,1.383,2.681,2.105,3.766c0.692,1.079,1.272,1.846,1.272,1.846
						c0.567-2.325,0.686-4.655,0.979-6.991C341.42,201.747,341.516,199.357,341.817,196.843z"/>
				</g>
				<g>
					<path fill="#C1C1C1" d="M338.366,228.177c0.207,0.647,0.612,0.652,1.122,0.518c1.665-0.434,3.32-0.866,4.978-1.298l0.951-0.237
						c0.359-0.099,0.599,0.014,0.765,0.385c1.004,2.247,1.757,4.682,2.253,7.299c0.024,0.126,0.006,0.27,0.009,0.488
						c-2.291,0.569-4.617,1.056-6.887,1.541c-0.506,0.107-0.744-0.223-0.942-0.602c-0.198-0.378-0.371-0.786-0.489-1.211
						c-0.514-1.974-1.183-3.972-1.802-5.921c-0.082-0.255-0.087-0.549-0.128-0.824L338.366,228.177z"/>
					<path fill="#C1C1C1" d="M334.217,234.944c0.115,0.134,0.111,0.305,0.163,0.447c0.736,2.078,1.575,4.239,2.192,6.366
						c0.563,1.83,1.453,3.449,2.414,5.031c0.543,0.896,1.424,1.161,2.356,1.183c0.595,0.015,1.223-0.204,1.838-0.326
						c3.039-0.606,6.144-1.258,9.206-2.05c1.249-0.332,2.497-0.822,3.756-1.148c0.789-0.204,1.63-0.67,2.451-0.124
						c0.015-0.318,0.041-0.472,0.026-0.61c-0.313-2.822-0.899-5.446-1.894-7.925c-0.192-0.495-0.525-0.67-0.967-0.591
						c-0.319,0.056-0.639,0.123-0.953,0.232c-1,0.35-1.993,0.734-2.99,1.056c-1.342,0.433-2.742,0.799-4.103,1.174
						c-0.903,0.246-1.803,0.499-2.703,0.716c-1.769,0.425-3.531,0.8-5.283,1.175c-0.86,0.183-1.663-0.01-2.198-0.656
						c-1.161-1.403-2.06-3.025-2.638-4.85c-0.146-0.464-0.12-0.916,0.065-1.409c0.341-0.857,0.55-1.757,0.806-2.642
						c0.193-0.677,0.26-1.347,0.092-2.015c-0.578-2.267-1.274-4.391-2.409-6.372c-0.072-0.131-0.207-0.219-0.298-0.312
						c-0.142,0.616-0.251,1.177-0.399,1.726c-0.51,1.524-1.397,5.058-2.462,8.508c-1.107,3.437-2.216,6.845-2.85,8.188
						c-0.323,0.769-0.365,1.506-0.265,2.307c0.397,2.751,1.852,6.273,1.852,6.273c1.111-2.118,1.874-4.316,2.703-6.52
						c0.401-1.107,0.854-2.205,1.245-3.347C333.353,237.283,333.762,236.125,334.217,234.944z"/>
				</g>
				<path fill="#C1C1C1" d="M358.709,237.262c-0.435-1.387-0.867-2.766-1.304-4.163c-0.314-1.075-0.558-2.188-0.825-3.278
					c-0.29-1.164-0.337-2.38,0.025-3.642c0.118-0.42,0.2-0.852,0.322-1.378c-0.326-0.111-0.578-0.222-0.842-0.282l-24.846-5.697
					c-0.91-0.209-1.818-0.448-2.742-0.574c-1.077-0.148-1.832-0.835-2.39-1.661c-1.312-1.997-2.366-4.206-3.283-6.449
					c-0.039-0.096-0.033-0.212-0.047-0.317c0.066-0.013,0.104-0.03,0.113-0.02c0.851,0.99,1.972,1.317,3.205,1.537l27.672,5.015
					c0.635,0.114,1.085,0.401,1.407,1.078c0.584,1.247,1.252,2.489,1.807,3.742c0.126,0.292,0.252,0.585,0.442,1.024
					c0.564-1.317,0.472-2.591,0.735-3.786c0.269-1.225,0.454-2.472,0.673-3.709c0.211-1.239,0.49-2.468,0.596-3.721
					c0.131-1.24,0.212-2.485,0.32-3.817c0.136,0.154,0.284,0.274,0.385,0.443c1.184,2.033,2.25,4.332,2.968,6.722
					c0.371,1.175,0.168,2.425-0.031,3.639c-0.437,3.009-1.17,5.962-1.845,8.925c-0.593,2.901-1.359,5.76-2.111,8.625
					c-0.138,0.533-0.153,1.098-0.226,1.649L358.709,237.262z"/>
				<g>
					<path fill="#C1C1C1" d="M342.808,247.768c0.334,1.421,0.717,2.853,0.974,4.318c0.167,1.069,0.252,2.182,0.313,3.304
						c0.021,0.386-0.059,0.843-0.204,1.233c-0.521,1.374-1.038,2.754-1.643,4.094c-0.626,1.329-1.275,2.649-1.936,3.964
						c-1.276,2.655-2.784,5.185-4.254,7.734c-0.091,0.159-0.175,0.323-0.277,0.474c-0.607,0.903-1.234,1.134-2.004,0.68
						l-5.104-3.055c-3.028-1.77-6.051-3.548-9.104-5.272l-7.731-4.238c-0.392-0.218-0.776-0.487-1.082-0.818
						c-0.281-0.305-0.551-0.692-0.655-1.098c-0.577-2.245-0.845-4.511-0.941-6.765c-0.005-0.11,0.035-0.224,0.059-0.369
						c1.849,1.613,4.081,2.508,6.247,3.514l0.382,0.187l10.148,5.339l7.312,3.788c0.909,0.469,1.42,0.254,2.012-0.894l2.803-5.458
						l2.523-5.593c0.442-1.007,0.8-2.048,1.141-3.096c0.228-0.655,0.505-1.293,0.76-1.94L342.808,247.768z"/>
					<path fill="#C1C1C1" d="M348.326,251.81c0.214,0.896,0.51,1.794,0.628,2.715c0.221,1.599,0.37,3.243,0.53,4.895
						c0.062,0.642-0.086,1.262-0.386,1.918c-1.496,3.297-3.238,6.476-4.883,9.699l-2.707,4.706c-0.892,1.575-1.82,3.128-2.829,4.63
						c-0.669,1.031-1.132,2.011-1.301,3.135c-0.024,0.158-0.112,0.324-0.313,0.506c-0.051-0.729-0.164-1.439-0.15-2.18
						c0.05-1.828,0.1-3.671,0.15-5.513c-0.002-0.41,0.035-0.838,0.11-1.257c0.231-1.29,0.335-2.596,1.35-3.699
						c0.189-0.205,0.302-0.504,0.449-0.759c0.839-1.412,1.616-2.857,2.347-4.328l2.244-4.385c1.428-2.955,2.753-5.963,4.079-8.966
						l0.435-1.098L348.326,251.81z"/>
				</g>
				<path fill="#C1C1C1" d="M366.189,191.706c-0.22-0.233-0.462-0.437-0.657-0.701c-1.652-2.2-3.098-4.432-4.541-6.883
					c-0.342-0.593-0.665-1.192-0.696-1.97c-0.015-0.371-0.18-0.53-0.494-0.521l-7.574,0.178c-0.292,0.006-0.377,0.121-0.403,0.492
					c-0.071,0.991,0.301,1.82,0.588,2.691c0.048,0.146,0.119,0.282,0.18,0.422l-0.077,0.115c-0.243-0.219-0.51-0.407-0.725-0.661
					c-0.748-0.892-1.504-1.793-2.251-2.684c-0.141-0.161-0.376-0.287-0.565-0.283l-8.394,0.219
					c-0.625,0.017-1.154-0.263-1.605-0.737c-0.8-0.841-1.584-1.685-2.332-2.554c-0.787-0.867-1.547-1.758-2.248-2.695
					c-0.142-0.19-0.257-0.405-0.358-0.565c0.869-0.026,1.712-0.027,2.552-0.08l8.985-0.599c0.558-0.038,0.559-0.04,0.512-0.724
					c-0.343-5.505-1.099-10.975-2.009-16.411c-0.117-0.835-0.301-1.657-0.505-2.657c0.36,0.208,0.632,0.326,0.868,0.511
					c0.895,0.69,1.726,1.436,2.574,2.146c0.198,0.164,0.485,0.282,0.712,0.257c0.693-0.076,1.374-0.144,1.9-0.851
					c0.461-0.63,0.669-1.35,0.671-2.168c0.033-1.745-0.487-3.386-1.077-4.994c-0.158-0.406-0.316-0.812-0.531-1.364
					c0.346,0.195,0.596,0.296,0.813,0.467c1.862,1.461,3.671,3.083,5.366,4.97c0.579,0.626,0.866,1.394,1.112,2.236
					c0.467,1.613,0.867,3.231,0.828,4.942c-0.01,1.41-0.515,2.557-1.502,3.034c-0.927,0.444-1.975,0.532-2.949-0.115
					c-0.664-0.435-1.258-0.96-1.995-1.476c0.016,0.235,0.03,0.433,0.044,0.63c0.377,3.542,0.888,7.072,1.048,10.632
					c0.027,0.421,0.144,0.545,0.482,0.517c1.352-0.11,2.711-0.144,4.058-0.301c0.61-0.071,1.065,0.184,1.499,0.668
					c0.752,0.849,1.504,1.698,2.32,2.618c0.002-0.223,0.013-0.372,0.003-0.521c-0.424-9.218-1.681-18.402-3.612-27.433
					c-0.105-0.505-0.385-0.972-0.645-1.608c0.314,0.189,0.569,0.302,0.791,0.484c1.953,1.606,3.881,3.368,5.612,5.481
					c0.53,0.678,0.868,1.458,1.023,2.435c1.67,10.179,2.481,20.488,2.412,30.778c-0.032,1.414,0.14,2.773,0.716,4.001
					c0.074,0.157,0.123,0.335,0.183,0.504L366.189,191.706z"/>
			</g>
			<g>
				<path fill="#CE9549" d="M308.813,269.583c0.58,1.019,0.605,1.137,1.96,0.541c1.775-0.764,3.316-1.954,4.998-2.984
					c0.288-0.181,0.563-0.396,0.862-0.55c0.495-0.255,1.182-0.011,1.291,0.531c0.263,1.299,0.517,2.619,0.648,3.981
					c0.13,1.46,0.181,3.003,0.137,4.477c-0.005,0.399-0.094,0.812-0.155,1.291c-0.261-0.237-0.422-0.537-0.631-0.537
					c-0.364,0-0.827,0.073-1.124,0.307c-1.562,1.217-3.243,1.99-4.93,2.831c-0.5,0.243-1.036,0.41-1.559,0.525
					c-0.636,0.14-1.075-0.147-1.14-0.794c-0.147-1.424-0.279-2.822-0.383-4.281c-0.089-1.497-0.053-3.002-0.073-4.479
					C308.712,270.159,308.779,269.869,308.813,269.583z"/>
				<path fill="#CE9549" d="M322.509,285.558c0.594,0.977,1.295,0.402,2.026-0.044c0.939-0.574,1.903-1.102,2.871-1.628
					c1.055-0.556,2.105-1.109,3.15-1.66c0.684-0.38,1.012-0.274,1.107,0.478c0.157,1.395,0.262,2.792,0.247,4.245
					c-0.021,1.657-0.193,3.368-0.334,5.082c-0.024,0.286-0.125,0.587-0.223,1.024c-0.513-0.791-1.231-0.173-1.834,0.089
					c-1.107,0.493-2.191,1.105-3.274,1.671c-1.006,0.525-1.998,1.088-2.999,1.577c-0.776,0.379-1.313,0.119-1.328-0.698
					c-0.029-1.513-0.038-3.027,0.031-4.541c0.069-1.512,0.246-3.035,0.375-4.535C322.344,286.328,322.425,286.017,322.509,285.558z"
					/>
				<path fill="#CE9549" d="M324.457,273.86c0.092,0.338,0.208,0.626,0.249,0.939c0.17,1.351,0.318,2.74,0.363,4.129
					c0.025,1.376-0.015,2.78-0.141,4.214c-0.057,0.644-0.306,1.024-0.888,1.303c-1.474,0.714-2.837,1.666-4.258,2.619
					c-0.748,0.519-1.572,0.913-2.379,1.234c-0.222,0.089-0.597-0.196-0.762-0.431c-0.157-0.223-0.168-0.595-0.182-0.915
					c-0.11-2.877-0.137-5.731,0.067-8.692c0.022-0.267,0.089-0.539,0.162-0.97c0.129,0.232,0.226,0.325,0.238,0.442
					c0.061,0.587,0.379,0.645,0.862,0.371c0.656-0.371,1.36-0.678,1.96-1.155C321.277,275.781,322.779,274.795,324.457,273.86z"/>
			</g>
		</g>
	</g>
	<g>
		<path fill="#DDDDDD" d="M286.02,59.181l-2.078,2.734l1.57,1.986l-0.311,0.409l-5.784-4.396l0.312-0.409l2.52,1.123l2.079-2.734
			l-5.189-3.945l0.269-0.353l12.261-3.505l0.8,0.608l-5.656,7.44l2.084,1.584l-0.792,1.041L286.02,59.181z M281.269,53.925
			l3.85,2.928l3.889-5.115L281.269,53.925z"/>
		<path fill="#DDDDDD" d="M302.459,60.077l-1.198-1.956l0.355-0.371l4.52,4.333c2.091,2.004,3.519,4.667,1.32,6.96
			c-1.794,1.872-4.771,1.736-7.233-0.624l-0.522-0.501l0.452-0.473c2.22,1.838,4.164,1.565,5.716-0.054
			c1.487-1.551,1.27-3.249-0.315-4.768c-0.473-0.453-0.993-0.855-1.429-1.144l-9.408,9.814l1.367,2.12l-0.356,0.371l-4.94-4.736
			l0.355-0.371l2.006,1.114L302.459,60.077z"/>
		<path fill="#DDDDDD" d="M304.062,80.832l1.067,2.031l-0.379,0.347l-4.465-4.875l0.379-0.347l1.93,1.243l9.925-9.087l-1.068-2.03
			l0.379-0.348l4.464,4.875l-0.378,0.347l-1.93-1.242L304.062,80.832z"/>
		<path fill="#DDDDDD" d="M309.285,87.262l3.433,4.285l3.926-1.229l0.336,0.419l-3.797,2.772l-7.319-9.136l0.401-0.321l1.844,1.368
			l10.503-8.415l-0.932-2.098l0.401-0.321l4.236,5.288l-0.401,0.321l-1.945-1.494L309.285,87.262z"/>
		<path fill="#DDDDDD" d="M324.324,99.933l-2.94-4.469l-4.742,1.079l0.79,2.22l-0.41,0.27l-2.952-4.488l0.409-0.269l1.554,1.298
			l15.646-3.332l0.373,0.566l-9.383,12.939l0.649,1.922l-0.43,0.282l-3.62-5.503l0.43-0.283l1.791,1.702L324.324,99.933z
			 M322.286,95.262l2.581,3.922l3.906-5.366L322.286,95.262z"/>
		<path fill="#DDDDDD" d="M337.413,104.276l-0.513-2.237l0.455-0.239l2.927,5.587c1.604,3.062,1.829,5.607-0.736,6.951
			c-1.801,0.943-3.877,0.501-6.001-2.395c0.233,0.748,0.613,2.026-0.391,3.633l-2.476,3.934c-0.487,0.782-0.424,1.356,0.053,2.266
			l-0.455,0.239c-0.276-0.278-0.854-0.925-1.298-1.772c-0.477-0.911-0.448-1.612,0.109-2.51l3.166-4.98
			c0.538-0.836,0.651-1.528,0.163-2.458l-0.391-0.745l-5.524,2.894l0.545,2.298l-0.455,0.239l-3.1-5.918l0.455-0.239l1.547,1.695
			L337.413,104.276z M332.751,109.17l0.802,1.531c1.03,1.965,3.048,2.596,5.014,1.566c1.718-0.899,2.062-2.557,1.011-4.563
			c-0.303-0.579-0.711-1.157-1.032-1.568L332.751,109.17z"/>
		<path fill="#DDDDDD" d="M331.035,122.581l1.389,1.827l12.429-5.147l-0.309-2.273l0.474-0.197l4.415,10.66l-3.733,1.546
			l-0.232-0.561l2.506-2.251l-2.073-5.006l-5.697,2.359l1.261,3.042l2.449-0.129l0.196,0.475l-5.05,2.091l-0.196-0.475l1.824-1.64
			l-1.261-3.042l-6.387,2.645l2.1,5.07l4.111-0.084l0.205,0.496l-4.418,1.603l-4.477-10.811L331.035,122.581z"/>
		<path fill="#DDDDDD" d="M336.873,140.097c-0.433-1.334-0.492-2.886-0.355-4.281l3.693-1.417l0.251,0.779
			c-2.072,1.26-3.538,2.496-2.755,4.919c0.569,1.756,2.082,2.863,3.794,2.309c3.823-1.238,1.057-8.497,5.502-9.935
			c2.624-0.85,4.761,0.669,5.603,3.271c0.418,1.289,0.551,2.99,0.534,4.077l-3.356,1.012l-0.244-0.755
			c1.796-0.901,2.938-2.304,2.29-4.304c-0.46-1.423-1.746-2.283-3.279-1.787c-3.713,1.201-0.717,8.411-5.541,9.972
			C340.497,144.77,337.901,143.277,336.873,140.097z"/>
	</g>
</g>
</svg>
