<?xml version="1.0" encoding="utf-8"?>
<!-- Generator: Adobe Illustrator 17.0.0, SVG Export Plug-In . SVG Version: 6.00 Build 0)  -->
<!DOCTYPE svg PUBLIC "-//W3C//DTD SVG 1.1//EN" "http://www.w3.org/Graphics/SVG/1.1/DTD/svg11.dtd">
<svg version="1.1" id="Capa_1" xmlns="http://www.w3.org/2000/svg" xmlns:xlink="http://www.w3.org/1999/xlink" x="0px" y="0px"
	 width="476px" height="474px" viewBox="0 0 476 474" enable-background="new 0 0 476 474" xml:space="preserve">
<g>
	<g>
		<g>
			<g>
				<g>
					<path fill="#C1C1C1" d="M365.604,49.012c3.188,0.19,6.554,0.615,9.779,1.475l2.897,0.76c1.545,0.427,2.965,1.287,4.33,2.192
						c1.047,0.728,2.069,1.528,3.019,2.385c1.037,0.936,1.779,2.08,2.371,3.251c0.821,1.576,1.239,3.242,1.332,4.873
						c0.047,0.858,0.002,0.977-0.904,0.89c-1.969-0.19-3.944-0.381-5.931-0.572c-0.674-0.069-1.109,0.029-1.494,0.489
						c-5.856,6.971-2.763,3.289-8.619,10.26c-0.422,0.501-0.85,1.007-1.346,1.436c-0.633,0.547-1.495,0.764-2.346,0.825
						c-2.214,0.176-4.38-0.084-6.633-0.379c-0.072-0.01-0.141-0.073-0.336-0.178c0.459-0.174,0.829-0.335,1.217-0.453
						c0.446-0.135,0.786-0.367,1.067-0.72c5.875-7.282,3.013-3.734,8.887-11.016c0.349-0.436,0.72-0.856,1.03-1.318
						c0.218-0.325,0.512-0.474,0.95-0.443l5.44,0.476c0.374,0.046,0.752,0.093,1.241,0.154c-0.016-0.448,0.027-0.848-0.057-1.253
						c-0.344-1.668-0.856-3.325-1.836-4.943c-1.058-1.666-2.581-2.905-4.236-3.993c-1.076-0.703-2.198-1.41-3.349-1.867
						c-1.407-0.528-2.897-0.83-4.33-1.075C365.855,49.955,364.872,48.977,365.604,49.012z"/>
					<path fill="#C1C1C1" d="M372.616,55.557c-0.011,0.047-0.011,0.091-0.023,0.092c-1.009,0.019-1.386,0.74-1.853,1.363
						c-3.4,4.546-3.77,5.04-7.17,9.586c-0.425,0.568-0.826,1.156-1.297,1.684c-0.663,0.744-1.604,1.137-2.616,1.262
						c-2.045,0.229-4.243,0.248-6.367,0.066c-0.147-0.011-0.296-0.076-0.618-0.162c0.504-0.256,0.849-0.467,1.229-0.611
						c0.618-0.236,1.036-0.666,1.388-1.167c3.727-5.31,4.548-6.479,8.275-11.789c0.298-0.426,0.673-0.673,1.234-0.74
						c1.232-0.148,2.489-0.196,3.769-0.158c1.268,0.054,2.53,0.236,3.824,0.471C372.468,55.467,372.543,55.522,372.616,55.557z"/>
				</g>
				<g>
					<path fill="#C1C1C1" d="M295.734,31.476c0.583-0.177,0.588-0.541,0.469-1.001c-0.377-1.497-0.753-2.988-1.129-4.481
						l-0.201-0.855c-0.084-0.323,0.019-0.537,0.351-0.682c2.006-0.877,4.161-1.533,6.462-1.963c0.111-0.021,0.237-0.004,0.429-0.005
						c0.476,2.044,0.945,4.061,1.416,6.082c0.102,0.446-0.192,0.668-0.531,0.856c-0.338,0.188-0.704,0.354-1.087,0.471l-5.313,1.626
						c-0.229,0.07-0.493,0.071-0.741,0.104L295.734,31.476z"/>
					<path fill="#C1C1C1" d="M301.884,35.155c0.12-0.106,0.277-0.107,0.404-0.157c1.883-0.723,3.755-1.33,5.671-1.994
						c1.634-0.555,3.059-1.4,4.442-2.309c0.783-0.514,0.993-1.311,0.989-2.144c-0.002-0.532-0.211-1.085-0.333-1.63
						c-0.604-2.7-1.24-5.417-1.956-8.147c-0.295-1.127-0.723-2.251-1.006-3.384c-0.175-0.716-0.58-1.458-0.111-2.2
						c-0.277-0.001-0.411-0.018-0.53,0.001c-2.455,0.39-4.754,1.019-6.901,1.87c-0.431,0.171-0.586,0.469-0.521,0.865
						c0.046,0.286,0.102,0.573,0.195,0.855l0.905,2.687c0.374,1.205,0.709,2.412,1.049,3.614l0.658,2.375
						c0.4,1.543,0.75,3.126,1.099,4.724c0.172,0.78,0.013,1.505-0.554,1.981c-1.224,1.017-2.67,1.836-4.331,2.419
						c-0.421,0.143-0.834,0.132-1.286-0.018c-0.792-0.262-1.598-0.483-2.398-0.722c-0.611-0.183-1.216-0.253-1.819-0.112
						c-2.049,0.483-3.984,1.081-5.807,2.07c-0.121,0.063-0.202,0.182-0.288,0.263c0.563,0.136,1.076,0.242,1.577,0.383
						c1.402,0.449,4.6,1.396,7.783,2.3c3.207,0.832,6.264,2.04,7.545,2.481c0.714,0.272,1.39,0.292,2.117,0.183
						c1.246-0.187,2.653-0.673,3.757-1.109c1.097-0.42,1.876-0.766,1.876-0.766c-1.962-0.915-3.993-1.494-6.006-2.2
						C306.072,36.68,304.045,35.915,301.884,35.155z"/>
				</g>
				<g>
					<path fill="#C1C1C1" d="M248.779,38.373l0.561-0.603c0.617-0.61,0.91-1.329,1.033-2.167c0.656-4.443,0.672-8.942,1.027-13.411
						c0.271-3.362,0.453-6.731,0.662-10.098c0.033-0.53,0.032-1.065-0.01-1.597c-0.035-0.439,0.12-0.782,0.49-1.088
						c2.139-1.772,4.698-3.157,7.516-4.31c0.189-0.077,0.436-0.129,0.647-0.111c4.631,0.481,9.239,1.208,13.853,1.836
						c0.998,0.187,2.007,0.37,3.01,0.445c1.022,0.077,2.045,0.018,3.101,0.021c-0.015,0.018-0.05,0.106-0.129,0.147
						c-2.187,1.153-4.491,2.08-6.968,2.758c-0.808,0.252-1.656,0.357-2.535,0.296c-1.153-0.08-2.308-0.144-3.453-0.284
						c-2.497-0.27-4.975-0.733-7.482-0.902c-0.347-0.028-0.694-0.056-1.147-0.092c-0.055,0.392-0.111,0.709-0.141,1.029
						c-0.634,6.692-1.31,13.38-1.867,20.077c-0.19,2.276-1.154,4.097-3.211,5.405c-1.397,0.888-2.835,1.703-4.233,2.542
						c-0.178,0.107-0.395,0.16-0.594,0.237L248.779,38.373z"/>
					<path fill="#C1C1C1" d="M250.176,3.832c-0.026,0.473-0.042,0.77-0.058,1.066L249.06,24.41
						c-0.046,0.881-0.001,1.769,0.002,2.654c0.001,0.315-0.08,0.577-0.372,0.798c-1.531,1.222-3.17,2.315-4.895,3.267
						c-0.137,0.075-1.404,0.642-1.618,0.713c0.739-0.751,0.577-1.888,0.594-2.632l0.517-20.751c0.011-0.47,0.202-0.798,0.635-1.114
						c1.58-1.153,3.324-2.158,5.175-3.076C249.365,4.143,249.66,4.014,250.176,3.832z"/>
					<path fill="#C1C1C1" d="M257.909,37.863c0.428-0.549,0.796-1.019,1.157-1.482c0.16-0.222,0.273-0.494,0.322-0.759
						c0.126-0.697,0.223-1.4,0.301-2.105l1.871-17.324c0.08-0.798,0.441-1.441,1.09-1.888c1.876-1.294,4.05-2.282,6.398-3.068
						c0.078-0.026,0.182-0.008,0.343-0.013c-0.03,0.115-0.016,0.234-0.083,0.287c-0.594,0.468-0.693,1.083-0.781,1.72l-2.439,17.56
						c-0.084,0.6-0.173,1.21-0.369,1.783c-0.27,0.788-0.869,1.428-1.555,1.939c-1.781,1.331-3.748,2.334-5.804,3.227
						C258.248,37.792,258.116,37.808,257.909,37.863z"/>
				</g>
				<path fill="#C1C1C1" d="M359.662,44.111c-0.21,0.284-0.386,0.494-0.532,0.722c-4.266,6.667-3.079,4.811-7.345,11.479
					c-0.437,0.683-0.872,1.37-1.357,2.021c-0.61,0.819-1.518,1.368-2.545,1.607c-2.273,0.528-4.636,0.608-6.993,0.536
					c-0.097-0.003-0.197-0.046-0.424-0.101c0.391-0.177,0.667-0.303,0.941-0.427c0.969-0.462,1.618-1.197,2.155-2.095
					c5.083-8.427,4.94-8.19,10.022-16.617c0.24-0.4,0.549-0.616,1.082-0.678c2.075-0.243,4.229-0.249,6.44-0.106
					c0.656,0.042,1.222,0.215,1.842,0.659c1.12,0.783,2.264,1.562,3.408,2.328l5.101,3.518c1.12,0.773,2.176,1.71,3.592,1.793
					l-0.008,0.175c-0.138,0.031-0.268,0.085-0.414,0.089c-2.232,0.049-4.588-0.032-6.904-0.337
					c-1.087-0.135-2.077-0.506-3.033-1.207c-1.36-0.971-2.723-1.949-4.154-2.818C360.27,44.486,360.002,44.321,359.662,44.111z"/>
				<g>
					<path fill="#C1C1C1" d="M326.553,53.202c0.334-0.331,0.688-0.593,0.918-0.93c0.241-0.353,0.548-0.815,0.739-1.201
						c2.968-6.03,3.143-6.387,6.111-12.417c0.279-0.57,0.799-0.858,1.41-1.077c0.442-0.159,0.903-0.289,1.46-0.462
						c-0.763-0.577-1.569-0.837-2.304-1.21l-2.299-1.104c-0.76-0.363-1.52-0.726-2.514-1.2c0.756-0.198,1.294-0.395,1.877-0.476
						c1.558-0.218,3.149-0.378,4.744-0.554c0.679-0.075,1.314,0.086,1.984,0.412c3.428,1.68,6.725,3.615,10.1,5.4
						c0.849,0.476,1.675,1.022,2.652,1.22l0.019,0.172c-0.602,0.079-1.197,0.228-1.833,0.282c-1.619,0.102-3.248,0.205-4.872,0.308
						c-0.861,0.06-1.669-0.138-2.447-0.654c-0.278-0.184-0.587-0.325-0.949-0.522c-0.192,0.313-0.346,0.539-0.474,0.779
						c-2.684,5.065-2.406,4.542-5.09,9.607c-0.247,0.469-1.164,2.575-2.166,2.685c-1.051,0.282-2.115,0.475-3.198,0.619
						c-1.102,0.18-2.216,0.299-3.337,0.372C326.988,53.256,326.684,53.234,326.553,53.202z"/>
					<path fill="#C1C1C1" d="M361.464,39.054c-0.793,0.089-1.401,0.217-2.039,0.223c-1.832,0.018-3.656,0.024-5.472,0
						c-1.299-0.003-2.485-0.501-3.737-1.155l-8.902-4.864c-3.018-1.524-6.093-2.935-9.139-4.405
						c-0.451-0.215-0.901-0.43-1.541-0.735c0.697-0.174,1.221-0.355,1.787-0.43c1.579-0.207,3.19-0.361,4.806-0.531
						c0.817-0.086,1.593,0.129,2.397,0.516c3.095,1.406,6.034,3.113,9.025,4.72l4.47,2.442c1.463,0.86,2.897,1.769,4.345,2.655
						c1.133,0.7,2.243,1.366,3.551,1.358C361.087,38.847,361.178,38.92,361.464,39.054z"/>
				</g>
				<g>
					<path fill="#C1C1C1" d="M307.889,25.369c1.233-0.359,2.462-0.743,3.735-1.055c0.936-0.23,1.914-0.39,2.898-0.532
						c0.339-0.049,0.745-0.014,1.096,0.084c2.495,0.659,4.16,1.278,5.804,1.953c1.641,0.681,3.284,1.363,5.663,2.351
						c0.148,0.061,0.3,0.116,0.442,0.187c0.851,0.426,1.117,0.952,0.799,1.687l-2.149,4.875l-3.672,8.676
						c-0.999,2.435-1.504,3.18-1.871,3.311c-2.032,0.725-4.148,1.168-6.294,1.453c-0.105,0.014-0.612-0.036-0.754-0.045
						c1.289-1.801,3.148-6.759,4.388-9.948l2.654-6.88c0.328-0.856,0.096-1.297-0.957-1.737c-3.322-1.423-3.806-1.504-7.209-2.715
						c-0.917-0.32-1.869-0.536-2.797-0.822c-0.585-0.181-1.158-0.406-1.736-0.612L307.889,25.369z"/>
					<path fill="#C1C1C1" d="M311.175,20.247c0.771-0.238,1.526-0.515,2.329-0.701c1.39-0.321,2.817-0.584,4.247-0.86
						c0.555-0.107,1.102-0.027,1.69,0.185c2.937,1.089,5.044,2.052,7.191,2.914c2.121,0.923,4.31,1.694,7.104,3.116
						c0.957,0.464,1.851,0.752,2.835,0.761c0.139,0.001,0.29,0.058,0.468,0.213c-0.622,0.137-1.222,0.326-1.862,0.406
						c-1.589,0.178-3.188,0.356-4.785,0.535c-0.351,0.039-0.731,0.068-1.103,0.05c-1.146-0.046-2.045-0.166-3.361-0.743
						c-0.227-0.098-0.47-0.202-0.707-0.304c-2.65-1.09-4.556-1.875-6.463-2.659c-1.943-0.692-3.885-1.384-6.584-2.346l-0.971-0.345
						L311.175,20.247z"/>
				</g>
				<path fill="#C1C1C1" d="M293.432,32.585c-0.601,0.284-1.079,0.547-1.625,0.76c-1.553,0.572-3.112,1.145-4.673,1.72
					c-0.782,0.282-1.578,0.267-2.449,0.052c-3.586-0.942-5.804-1.331-8.018-1.736c-2.219-0.375-4.411-0.913-8.084-1.411
					c-1.632-0.211-3.583-0.538-5.248-0.172c-0.024-0.052,0.269-0.242,0.245-0.295c0.451-0.311,0.873-0.665,1.366-0.925
					c1.325-0.699,2.683-1.374,4.071-2.022c0.926-0.43,1.937-0.58,2.981-0.381l0.286,0.054c0.983,0.207,1.123-1.602,1.152-1.774
					l2.511-14.781c0.063-0.38,0.203-0.68,0.549-0.891c2.324-1.413,4.953-2.48,7.823-3.268c0.08-0.022,0.184,0.001,0.425,0.007
					c-0.239,0.18-0.375,0.339-0.57,0.42c-0.618,0.257-0.814,0.688-0.919,1.215l-2.924,14.549c-0.095,0.475-0.098,1.195-0.875,1.829
					c-0.399,0.291-2.135,1.147-3.436,1.777c-0.749,0.362-1.664,0.712-2.563,1.118c0.306,0.096,0.595,0.132,0.751,0.161l4.743,0.889
					c1.583,0.286,3.164,0.582,4.718,1.002c0.528,0.131,0.885,0.047,1.25-0.26c0.678-0.57,1.025-1.305,1.212-2.086l3.207-13.631
					c0.006-0.025,0.021-0.05,0.016-0.074c0.142-0.86,0.61-1.311,1.395-1.683c1.893-0.896,3.961-1.56,6.129-2.097
					c0.239-0.059,0.491-0.097,0.74-0.134c0.047-0.007,0.112,0.033,0.276,0.086c-0.889,0.324-0.887,1.012-1.051,1.627
					c-1.17,4.387-2.38,8.766-3.475,13.171c-0.381,1.528-1.401,2.569-2.874,3.283c-1.385,0.671-2.871,1.187-4.291,1.775
					c-0.246,0.095-0.494,0.19-0.915,0.352c0.441,0.133,0.681,0.218,0.927,0.278c2.751,0.66,2.615,0.627,5.366,1.287
					C292.141,32.495,292.729,32.489,293.432,32.585z"/>
			</g>
			<g>
				<path fill="#CE9549" d="M373.621,86.771c1.002-0.399,1.111-0.409,0.714-1.695c-0.516-1.669-1.329-3.3-2.034-4.965
					c-0.118-0.293-0.288-0.556-0.391-0.844c-0.173-0.472,0.139-1.052,0.649-1.084c1.235-0.089,2.429-0.108,3.661-0.038
					c1.323,0.081,2.667,0.282,4.016,0.463c0.361,0.048,0.725,0.173,1.151,0.278c-0.245,0.207-0.537,0.317-0.562,0.504
					c-0.043,0.324-0.032,0.746,0.146,1.036c0.949,1.498,1.372,3.177,1.944,4.792c0.168,0.474,0.263,0.973,0.313,1.455
					c0.06,0.587-0.245,0.952-0.84,0.943c-1.308-0.021-2.613-0.038-3.912-0.159c-1.345-0.163-2.716-0.33-4.078-0.495
					C374.141,86.932,373.881,86.836,373.621,86.771z"/>
				<path fill="#CE9549" d="M389.632,76.308c0.933-0.423,0.526-1.124,0.237-1.836c-0.362-0.91-0.722-1.815-1.081-2.717
					c-0.373-0.975-0.73-1.957-1.075-2.945c-0.23-0.661-0.09-0.942,0.579-0.934c1.251,0.014,2.519,0.044,3.804,0.197
					c1.47,0.172,2.969,0.473,4.417,0.8c0.244,0.052,0.49,0.176,0.854,0.31c-0.762,0.381-0.315,1.079-0.152,1.629
					c0.301,1.019,0.713,2.029,1.086,3.035c0.346,0.935,0.729,1.861,1.048,2.791c0.247,0.72-0.044,1.177-0.77,1.123
					c-1.346-0.1-2.692-0.221-4.034-0.416c-1.34-0.195-2.68-0.491-4.008-0.745C390.28,76.551,390.024,76.436,389.632,76.308z"/>
				<path fill="#CE9549" d="M379.495,73.211c0.312-0.037,0.582-0.103,0.864-0.097c2.437,0.049,4.917,0.253,7.454,0.761
					c0.569,0.114,0.878,0.372,1.056,0.917c0.417,1.421,1.065,2.772,1.775,4.108c0.38,0.715,0.64,1.486,0.839,2.237
					c0.055,0.206-0.242,0.515-0.47,0.641c-0.217,0.119-0.552,0.095-0.841,0.077c-2.611-0.156-5.167-0.441-7.76-1.005
					c-0.24-0.048-0.477-0.137-0.86-0.249c0.225-0.09,0.321-0.167,0.428-0.165c0.538,0.008,0.628-0.269,0.437-0.73
					c-0.259-0.625-0.452-1.285-0.811-1.87C380.708,76.373,380.087,74.839,379.495,73.211z"/>
			</g>
		</g>
		<g>
			<g>
				<g>
					<path fill="#C1C1C1" d="M195.522,13.046c2.386-2.115,5.074-4.148,7.95-5.885l2.587-1.491c1.395-0.785,3.01-1.151,4.615-1.491
						c1.253-0.246,2.532-0.507,3.813-0.523c1.397-0.05,2.733,0.253,3.981,0.682c1.7,0.583,3.17,1.404,4.39,2.468
						c0.641,0.559,0.693,0.674-0.008,1.271c-1.521,1.295-3.043,2.574-4.592,3.809c-0.525,0.418-0.763,0.792-0.709,1.389
						c0.804,9.069,0.38,4.279,1.184,13.348c0.057,0.653,0.114,1.313,0.067,1.965c-0.06,0.832-0.516,1.586-1.074,2.22
						c-1.448,1.595-3.138,3.152-4.943,4.487c-0.057,0.043-0.151,0.047-0.363,0.109c0.201-0.446,0.348-0.819,0.539-1.175
						c0.219-0.409,0.295-0.812,0.244-1.26c-1.011-9.301-0.519-4.769-1.53-14.07c-0.062-0.554-0.098-1.114-0.207-1.66
						c-0.077-0.386,0.026-0.692,0.357-0.986c1.37-1.209,2.749-2.468,4.169-3.582c0.297-0.227,0.598-0.456,0.986-0.752
						c-0.329-0.31-0.583-0.627-0.929-0.859c-1.428-0.983-2.96-1.753-4.791-2.136c-1.926-0.414-3.884-0.248-5.824,0.145
						c-1.257,0.273-2.559,0.5-3.685,1.06c-1.363,0.649-2.635,1.459-3.821,2.301C196.369,13.539,194.98,13.536,195.522,13.046z"/>
					<path fill="#C1C1C1" d="M205.113,12.707c0.025,0.041,0.057,0.073,0.049,0.081c-0.699,0.721-0.455,1.498-0.343,2.268
						c0.82,5.617,0.91,6.228,1.73,11.845c0.102,0.701,0.236,1.402,0.277,2.107c0.059,0.994-0.328,1.931-0.954,2.732
						c-1.265,1.706-2.817,3.187-4.442,4.575c-0.112,0.095-0.263,0.154-0.552,0.319c0.175-0.536,0.269-0.928,0.434-1.298
						c0.27-0.602,0.259-1.201,0.153-1.804c-1.132-6.388-1.381-7.795-2.513-14.183c-0.092-0.511-0.002-0.95,0.347-1.393
						c1.536-1.911,3.408-3.749,5.581-5.168C204.944,12.748,205.036,12.734,205.113,12.707z"/>
				</g>
				<g>
					<path fill="#C1C1C1" d="M133.813,50.229c0.279-0.549,0.026-0.807-0.381-1.042l-3.946-2.312l-0.743-0.451
						c-0.286-0.164-0.366-0.39-0.238-0.733c0.778-2.067,1.796-4.124,3.112-6.059c0.065-0.091,0.167-0.166,0.303-0.299
						c1.797,1.127,3.57,2.239,5.347,3.353c0.391,0.248,0.339,0.607,0.23,0.974c-0.108,0.366-0.252,0.736-0.442,1.083
						c-0.889,1.617-1.783,3.206-2.606,4.889c-0.109,0.216-0.292,0.409-0.441,0.613L133.813,50.229z"/>
					<path fill="#C1C1C1" d="M140.781,48.505c0.011-0.158,0.122-0.266,0.178-0.39l2.543-5.512c0.734-1.599,1.176-3.129,1.507-4.749
						c0.193-0.907-0.225-1.619-0.821-2.209c-0.38-0.377-0.924-0.627-1.399-0.93c-2.366-1.528-4.725-2.961-7.143-4.334
						c-1-0.571-2.09-1.043-3.086-1.627c-0.624-0.367-1.435-0.602-1.632-1.46c-0.199,0.19-0.307,0.27-0.379,0.366
						c-1.47,1.984-2.691,3.971-3.586,6.118c-0.179,0.433-0.076,0.754,0.249,0.985c0.234,0.166,0.475,0.327,0.739,0.457
						c0.836,0.402,1.71,0.817,2.547,1.263c1.126,0.6,2.226,1.227,3.325,1.849l2.163,1.237l4.122,2.545
						c0.669,0.418,1.07,1.04,1.014,1.787c-0.123,1.622-0.561,3.226-1.345,4.768c-0.199,0.391-0.503,0.667-0.935,0.872
						c-0.75,0.366-1.498,0.738-2.224,1.151c-0.553,0.318-1.022,0.71-1.341,1.249c-1.083,1.829-1.986,3.689-2.614,5.607
						c-0.042,0.128-0.016,0.268-0.02,0.384c0.502-0.289,0.947-0.563,1.409-0.806c0.651-0.343,1.697-0.937,2.935-1.655
						c0.618-0.361,1.286-0.752,1.978-1.156c0.709-0.372,1.443-0.758,2.176-1.142c2.933-1.53,5.823-3.09,7.058-3.651
						c0.703-0.299,1.201-0.751,1.642-1.33c1.506-1.981,2.66-5.28,2.66-5.28c-2.001,0.818-3.901,1.723-5.829,2.636
						C144.758,46.494,142.869,47.559,140.781,48.505z"/>
				</g>
				<g>
					<path fill="#C1C1C1" d="M105.572,88.388l-0.033-0.825c0.001-0.871-0.303-1.587-0.81-2.266
						c-2.686-3.603-5.86-6.789-8.775-10.195c-2.19-2.565-4.448-5.072-6.686-7.597c-0.352-0.397-0.732-0.774-1.138-1.12
						c-0.335-0.285-0.469-0.638-0.427-1.117c0.247-2.776,1.062-5.576,2.226-8.398c0.083-0.183,0.227-0.387,0.394-0.518l5.508-4.299
						l2.757-2.144l2.85-2.02c0.828-0.587,1.66-1.185,2.413-1.855c0.767-0.682,1.438-1.46,2.176-2.219
						c0.002,0.023,0.04,0.111,0.014,0.196c-0.711,2.383-1.654,4.704-2.911,6.953c-0.408,0.729-0.948,1.381-1.629,1.936
						c-0.891,0.732-1.724,1.542-2.63,2.255l-5.919,4.665c-0.277,0.211-0.542,0.437-0.884,0.737c0.239,0.315,0.424,0.579,0.629,0.826
						c4.292,5.173,8.553,10.373,12.903,15.495c1.478,1.742,2.09,3.713,1.573,6.103c-0.351,1.623-0.783,3.224-1.169,4.813
						c-0.049,0.202-0.164,0.394-0.248,0.591L105.572,88.388z"/>
					<path fill="#C1C1C1" d="M82.093,63.019c0.317,0.352,0.516,0.573,0.714,0.794l13.074,14.523
						c0.591,0.655,1.252,1.249,1.881,1.871c0.224,0.221,0.352,0.464,0.304,0.829c-0.263,1.893-0.609,3.866-1.162,5.747
						c-0.043,0.15-0.535,1.448-0.635,1.65c-0.011-1.054-0.931-1.741-1.446-2.278L80.485,71.146c-0.325-0.34-0.423-0.706-0.341-1.237
						c0.3-1.933,0.813-3.886,1.477-5.837C81.724,63.794,81.865,63.522,82.093,63.019z"/>
					<path fill="#C1C1C1" d="M111.648,81.557c-0.078-0.68-0.118-1.267-0.214-1.842c-0.045-0.271-0.158-0.544-0.312-0.766
						c-0.405-0.582-0.835-1.147-1.279-1.699l-10.95-13.554c-0.508-0.62-0.711-1.333-0.574-2.113
						c0.396-2.257,1.217-4.512,2.302-6.749c0.036-0.074,0.122-0.136,0.231-0.255c0.06,0.103,0.155,0.176,0.145,0.262
						c-0.084,0.755,0.281,1.26,0.671,1.772l10.718,14.122c0.366,0.483,0.735,0.976,1.003,1.521c0.369,0.749,0.403,1.63,0.285,2.482
						c-0.307,2.21-0.957,4.349-1.783,6.428C111.848,81.278,111.761,81.378,111.648,81.557z"/>
				</g>
				<path fill="#C1C1C1" d="M187.861,13.83c0.053,0.349,0.078,0.621,0.136,0.885c1.716,7.727,1.238,5.576,2.954,13.303
					c0.176,0.792,0.356,1.585,0.475,2.387c0.15,1.009-0.102,2.036-0.659,2.926c-1.231,1.974-2.85,3.667-4.561,5.292
					c-0.069,0.07-0.169,0.115-0.366,0.246c0.147-0.412,0.251-0.703,0.354-0.993c0.355-1.015,0.294-1.986,0.036-3.002
					c-2.389-9.546-2.321-9.278-4.71-18.824c-0.114-0.452-0.048-0.822,0.284-1.24c1.295-1.628,2.815-3.143,4.481-4.593
					c0.494-0.43,1.017-0.705,1.771-0.824c1.353-0.209,2.684-0.613,4.045-0.829l6.102-1.095c1.339-0.246,2.755-0.296,3.803-1.309
					l0.118,0.13c-0.076,0.117-0.129,0.25-0.228,0.361c-1.528,1.698-3.263,3.232-5.113,4.665c-0.864,0.669-1.827,1.102-3,1.278
					c-1.661,0.219-3.291,0.612-4.919,1.005C188.557,13.67,188.251,13.741,187.861,13.83z"/>
				<g>
					<path fill="#C1C1C1" d="M170.951,43.692c0.002-0.468,0.067-0.899-0.01-1.3c-0.08-0.418-0.19-0.961-0.33-1.368
						c-2.184-6.356-2.313-6.732-4.498-13.089c-0.207-0.6-0.043-1.166,0.234-1.748c0.201-0.421,0.436-0.834,0.708-1.345
						c-0.952,0.12-1.709,0.496-2.496,0.742l-2.417,0.814c-0.802,0.259-1.595,0.543-2.615,0.96c0.386-0.693,0.62-1.228,0.969-1.709
						c0.951-1.239,1.966-2.459,2.973-3.695c0.428-0.526,0.994-0.853,1.701-1.088c1.817-0.588,3.613-1.239,5.442-1.787l5.508-1.576
						c0.937-0.268,1.921-0.415,2.738-1.016l0.135,0.104c-0.362,0.508-0.674,1.041-1.089,1.517c-1.074,1.204-2.155,2.416-3.233,3.624
						c-0.568,0.644-1.28,1.068-2.198,1.245c-0.328,0.063-0.647,0.179-1.043,0.292c0.087,0.357,0.138,0.625,0.218,0.885
						c1.699,5.474,1.524,4.909,3.223,10.383c0.162,0.514,1,2.623,0.382,3.445c-1.064,1.942-2.405,3.715-3.892,5.376
						C171.298,43.429,171.067,43.624,170.951,43.692z"/>
					<path fill="#C1C1C1" d="M185.544,8.975c-0.498,0.62-0.838,1.137-1.285,1.589c-1.283,1.299-2.57,2.582-3.871,3.838
						c-0.915,0.931-2.076,1.534-3.436,1.911c-6.543,1.726-12.957,3.896-19.311,6.21c-0.465,0.183-0.929,0.366-1.589,0.625
						c0.362-0.633,0.598-1.144,0.939-1.612c0.944-1.328,1.973-2.569,3.004-3.803c0.519-0.63,1.222-1.018,2.068-1.302
						c3.224-1.071,6.42-2.229,9.708-3.093l4.902-1.391c1.631-0.475,3.269-0.925,4.931-1.277c1.298-0.298,2.557-0.604,3.477-1.528
						C185.131,9.093,185.247,9.08,185.544,8.975z"/>
				</g>
				<g>
					<path fill="#C1C1C1" d="M138.067,37.329c0.603-1.152,1.185-2.318,1.848-3.466c0.492-0.836,1.084-1.608,1.682-2.394
						c0.207-0.269,0.522-0.525,0.842-0.698c4.537-2.428,6.332-3.24,11.143-5.082c0.149-0.059,0.296-0.125,0.448-0.173
						c0.909-0.286,1.473-0.097,1.77,0.647l1.943,4.961l3.566,8.723c1.024,2.427,1.195,3.307,1.027,3.654
						c-0.93,1.923-2.122,3.702-3.446,5.389c-0.066,0.08-0.461,0.398-0.563,0.503c-0.376-2.2-2.576-6.999-3.966-10.134l-3.008-6.729
						c-0.376-0.836-0.848-0.972-1.888-0.505c-3.29,1.491-3.728,1.69-7.018,3.181c-0.889,0.391-1.709,0.922-2.55,1.412
						c-0.533,0.302-1.09,0.563-1.636,0.843L138.067,37.329z"/>
					<path fill="#C1C1C1" d="M136.734,31.355c0.367-0.729,0.696-1.474,1.123-2.19c0.757-1.199,1.591-2.366,2.413-3.554
						c0.32-0.46,0.767-0.781,1.336-1.037c5.684-2.639,8.494-3.674,14.335-5.935c0.992-0.384,1.814-0.848,2.525-1.511
						c0.099-0.096,0.247-0.161,0.484-0.174c-0.344,0.531-0.635,1.082-1.033,1.585c-0.98,1.291-1.966,2.59-2.951,3.888
						c-0.217,0.284-0.47,0.559-0.746,0.807c-0.848,0.762-1.573,1.3-2.92,1.802c-0.231,0.088-0.479,0.182-0.72,0.274
						c-2.684,1.008-4.512,1.977-6.406,2.789c-1.87,0.867-3.776,1.66-6.347,2.923l-0.917,0.469L136.734,31.355z"/>
				</g>
				<path fill="#C1C1C1" d="M132.999,52.684c-0.22,0.631-0.354,1.184-0.599,1.703c-0.711,1.47-1.424,2.945-2.139,4.422
					c-0.352,0.754-0.911,1.33-1.669,1.809c-3.12,2-5.041,3.178-6.91,4.432c-1.832,1.309-3.665,2.617-6.681,4.772
					c-1.361,0.926-2.904,2.165-3.825,3.597c-0.054-0.02,0.017-0.364-0.037-0.384c0.095-0.543,0.14-1.096,0.3-1.632
					c0.439-1.433,0.881-2.922,1.448-4.301c0.367-0.935,1.008-1.711,1.862-2.343l0.238-0.169c0.831-0.564-0.35-1.938-0.452-2.079
					l-8.7-12.209c-0.225-0.313-0.34-0.625-0.247-1.022c0.64-2.64,1.652-5.38,3.193-7.858c0.042-0.07,0.134-0.125,0.312-0.286
					c-0.044,0.292-0.029,0.497-0.112,0.688c-0.262,0.605-0.097,1.046,0.202,1.492l8.247,12.337c0.27,0.402,0.78,0.917,0.67,1.897
					c-0.095,0.458-0.698,2.315-1.158,3.699c-0.266,0.795-0.656,1.702-0.996,2.636c0.282-0.153,0.508-0.337,0.637-0.429
					c2.588-1.915,5.305-3.639,8.028-5.352c0.459-0.291,0.648-0.61,0.685-1.089c0.069-0.892-0.21-1.659-0.631-2.343l-7.399-11.889
					c-0.013-0.021-0.021-0.05-0.041-0.063c-0.509-0.707-0.502-1.362-0.218-2.191c0.664-2.03,1.698-3.887,2.868-5.765
					c0.13-0.206,0.283-0.406,0.436-0.604c0.029-0.038,0.104-0.054,0.26-0.128c-0.407,0.841,0.084,1.329,0.404,1.879
					c2.285,3.924,4.535,7.868,6.887,11.753c0.815,1.348,0.823,2.788,0.272,4.306c-0.529,1.41-1.215,2.818-1.776,4.279
					c-0.104,0.245-0.209,0.492-0.387,0.911c0.401-0.227,0.628-0.341,0.841-0.478c2.371-1.546,2.315-1.367,4.737-2.83
					C132.039,53.562,132.446,53.134,132.999,52.684z"/>
			</g>
			<g>
				<path fill="#CE9549" d="M227.934,34.013c0.426-0.978,0.496-1.06-0.698-1.72c-1.547-0.818-3.272-1.321-4.946-1.966
					c-0.29-0.11-0.598-0.192-0.874-0.324c-0.457-0.219-0.648-0.852-0.31-1.229c0.811-0.903,1.638-1.811,2.556-2.651
					c0.99-0.896,2.078-1.764,3.159-2.575c0.29-0.213,0.635-0.374,1.011-0.591c-0.027,0.318-0.154,0.599-0.04,0.752
					c0.199,0.265,0.506,0.562,0.838,0.65c1.734,0.46,3.222,1.303,4.77,2.014c0.454,0.209,0.875,0.488,1.251,0.787
					c0.459,0.365,0.502,0.838,0.075,1.259c-0.938,0.926-1.871,1.853-2.873,2.703c-1.038,0.88-2.158,1.674-3.233,2.494
					C228.415,33.773,228.164,33.882,227.934,34.013z"/>
				<path fill="#CE9549" d="M231.825,15.347c0.359-0.965-0.425-1.161-1.134-1.448c-0.911-0.37-1.801-0.783-2.689-1.2
					c-0.954-0.435-1.905-0.943-2.846-1.36c-0.63-0.289-0.729-0.586-0.253-1.065c0.891-0.919,1.809-1.733,2.824-2.519
					c1.16-0.887,2.432-1.695,3.684-2.527c0.209-0.139,0.47-0.23,0.822-0.397c-0.267,0.813,0.542,0.977,1.046,1.244
					c0.934,0.493,1.939,0.901,2.915,1.333c0.906,0.384,1.832,0.801,2.715,1.268c0.684,0.358,0.803,0.891,0.253,1.348
					c-1.019,0.842-2.055,1.668-3.139,2.517c-1.082,0.827-2.237,1.584-3.354,2.362C232.454,15.05,232.192,15.155,231.825,15.347z"/>
				<path fill="#CE9549" d="M222.478,20.34c0.193-0.252,0.337-0.493,0.54-0.694c0.876-0.868,1.787-1.716,2.747-2.533
					c0.961-0.798,1.975-1.511,3.051-2.208c0.483-0.31,0.884-0.335,1.395-0.064c1.301,0.689,2.714,1.164,4.161,1.584
					c0.774,0.225,1.504,0.574,2.176,0.953c0.185,0.104,0.195,0.532,0.123,0.783c-0.069,0.239-0.322,0.462-0.539,0.658
					c-1.952,1.758-3.957,3.429-6.188,4.857c-0.203,0.13-0.435,0.229-0.784,0.411c0.095-0.22,0.108-0.341,0.185-0.414
					c0.386-0.364,0.253-0.627-0.209-0.829c-0.626-0.275-1.231-0.62-1.9-0.796C225.568,21.595,224.048,21.055,222.478,20.34z"/>
			</g>
		</g>
		<g>
			<g>
				<g>
					<path fill="#C1C1C1" d="M51.006,106.853c0.202-3.186,0.738-6.478,1.505-9.775l0.793-2.876c0.44-1.537,1.334-2.931,2.236-4.3
						c0.714-1.058,1.455-2.129,2.335-3.06c0.957-1.02,2.119-1.744,3.308-2.319c1.617-0.783,3.24-1.235,4.855-1.337
						c0.848-0.054,0.966-0.009,0.889,0.908c-0.168,1.991-0.349,3.971-0.58,5.938c-0.078,0.667,0.015,1.1,0.474,1.486
						c6.955,5.876,3.281,2.772,10.236,8.648c0.5,0.424,1.005,0.853,1.431,1.349c0.543,0.633,0.75,1.489,0.8,2.333
						c0.098,2.155,0.001,4.458-0.351,6.669c-0.011,0.071-0.075,0.14-0.183,0.332c-0.17-0.458-0.328-0.826-0.442-1.213
						c-0.131-0.444-0.361-0.784-0.713-1.066c-7.265-5.895-3.725-3.023-10.99-8.918c-0.435-0.35-0.854-0.723-1.315-1.034
						c-0.326-0.22-0.469-0.51-0.439-0.951c0.134-1.814,0.21-3.692,0.435-5.483c0.052-0.37,0.104-0.745,0.171-1.228
						c-0.452,0.011-0.855-0.035-1.264,0.044c-1.707,0.307-3.319,0.853-4.901,1.86c-1.662,1.059-2.94,2.552-4.045,4.193
						c-0.726,1.058-1.439,2.175-1.85,3.362c-0.517,1.417-0.855,2.883-1.11,4.312C51.957,106.61,50.963,107.582,51.006,106.853z"/>
					<path fill="#C1C1C1" d="M57.581,99.866c0.047,0.011,0.092,0.012,0.092,0.012c0.009,1.015,0.73,1.395,1.352,1.863
						c4.536,3.413,5.03,3.784,9.566,7.198c0.566,0.426,1.154,0.83,1.68,1.302c0.74,0.664,1.119,1.597,1.272,2.632
						c0.295,2.098,0.228,4.239,0.041,6.364c-0.013,0.146-0.079,0.294-0.17,0.614c-0.252-0.503-0.46-0.848-0.602-1.226
						c-0.23-0.616-0.659-1.035-1.158-1.388c-5.299-3.743-6.466-4.567-11.765-8.309c-0.425-0.299-0.669-0.674-0.731-1.233
						c-0.255-2.44-0.181-5.035,0.317-7.606C57.489,100.013,57.545,99.938,57.581,99.866z"/>
				</g>
				<g>
					<path fill="#C1C1C1" d="M33.298,176.689c-0.184-0.585-0.546-0.591-1.002-0.472c-1.486,0.376-2.966,0.751-4.448,1.126
						l-0.849,0.201c-0.32,0.084-0.535-0.02-0.683-0.353c-0.898-2.017-1.575-4.182-2.03-6.493c-0.022-0.112-0.007-0.238-0.01-0.431
						c2.014-0.505,4.113-0.933,6.145-1.379c0.454-0.098,0.668,0.194,0.847,0.531c0.178,0.336,0.334,0.699,0.44,1.079
						c0.462,1.762,1.096,3.567,1.63,5.323c0.073,0.23,0.077,0.496,0.112,0.744L33.298,176.689z"/>
					<path fill="#C1C1C1" d="M37.014,170.557c-0.103-0.12-0.099-0.274-0.145-0.401l-2.028-5.695
						c-0.56-1.639-1.463-3.089-2.324-4.458c-0.496-0.779-1.294-0.992-2.136-0.994c-0.537-0.001-1.102,0.202-1.655,0.319
						c-2.677,0.605-5.37,1.242-8.077,1.958c-1.117,0.296-2.231,0.725-3.354,1.008c-0.705,0.177-1.452,0.579-2.193,0.107
						c-0.01,0.275-0.031,0.407-0.016,0.526c0.159,1.218,0.379,2.397,0.658,3.538c0.304,1.149,0.699,2.27,1.13,3.347
						c0.175,0.433,0.473,0.589,0.868,0.525c0.284-0.046,0.57-0.101,0.85-0.194l2.665-0.904c1.183-0.378,2.42-0.7,3.645-1.029
						l2.419-0.638l4.741-1.081c0.773-0.173,1.496-0.012,1.978,0.559c1.046,1.238,1.853,2.684,2.368,4.327
						c0.13,0.417,0.105,0.826-0.062,1.274c-0.293,0.782-0.472,1.601-0.71,2.401c-0.174,0.613-0.236,1.221-0.089,1.827
						c0.502,2.057,1.155,4.011,2.046,5.813c0.059,0.12,0.176,0.201,0.254,0.287c0.159-0.557,0.286-1.064,0.447-1.56
						c0.472-1.395,1.302-4.628,2.242-7.8c1.03-3.143,2.041-6.266,2.502-7.541c0.264-0.716,0.255-1.404,0.182-2.118
						c-0.302-2.46-1.78-5.61-1.78-5.61c-0.843,1.99-1.652,3.934-2.295,5.97C38.498,166.354,37.838,168.416,37.014,170.557z"/>
				</g>
				<g>
					<path fill="#C1C1C1" d="M40.074,223.663l-0.605-0.563c-0.612-0.619-1.333-0.915-2.171-1.04
						c-4.444-0.669-8.941-0.698-13.409-1.065c-3.361-0.281-6.73-0.472-10.096-0.691c-0.53-0.034-1.065-0.035-1.596,0.006
						c-0.438,0.034-0.782-0.123-1.089-0.493c-1.779-2.145-3.171-4.709-4.332-7.531c-0.082-0.19-0.126-0.436-0.096-0.647l0.903-6.93
						c0.304-2.309,0.581-4.622,1.037-6.909c0.179-0.999,0.355-2.009,0.422-3.015c0.069-1.024,0.003-2.049-0.002-3.107
						c0.018,0.015,0.106,0.051,0.148,0.129c1.163,2.193,2.117,4.506,2.797,6.987c0.227,0.806,0.277,1.645,0.208,2.523
						c-0.074,1.154-0.131,2.31-0.265,3.456l-0.939,7.479c-0.044,0.345-0.058,0.693-0.097,1.147c0.392,0.056,0.709,0.113,1.028,0.144
						c6.69,0.653,13.377,1.348,20.072,1.924c2.276,0.197,4.098,1.166,5.414,3.228c0.893,1.401,1.714,2.841,2.558,4.243
						c0.107,0.178,0.161,0.396,0.24,0.595L40.074,223.663z"/>
					<path fill="#C1C1C1" d="M5.54,222.167c0.473,0.027,0.769,0.044,1.066,0.061l19.509,1.115c0.881,0.049,1.769,0.006,2.653,0.005
						c0.315-0.001,0.577,0.081,0.799,0.375c1.122,1.529,2.278,3.175,3.215,4.902c0.075,0.137,0.644,1.406,0.715,1.621
						c-0.752-0.741-1.889-0.582-2.633-0.601l-20.749-0.575c-0.47-0.012-0.798-0.204-1.115-0.639
						c-1.144-1.583-2.186-3.331-3.056-5.183C5.824,222.977,5.732,222.684,5.54,222.167z"/>
					<path fill="#C1C1C1" d="M39.569,214.53c-0.533-0.428-0.974-0.817-1.446-1.157c-0.223-0.161-0.495-0.275-0.761-0.324
						c-0.697-0.128-1.4-0.227-2.105-0.307l-17.319-1.921c-0.798-0.083-1.442-0.446-1.893-1.096c-1.303-1.882-2.302-4.061-3.1-6.414
						c-0.027-0.078-0.009-0.182-0.015-0.344c0.115,0.031,0.234,0.016,0.287,0.084c0.47,0.596,1.085,0.697,1.723,0.787l17.553,2.489
						c0.6,0.086,1.209,0.176,1.783,0.375c0.789,0.273,1.432,0.874,1.946,1.562c1.333,1.786,2.373,3.761,3.244,5.818
						C39.516,214.193,39.524,214.324,39.569,214.53z"/>
				</g>
				<path fill="#C1C1C1" d="M46.129,112.809c0.283,0.211,0.492,0.387,0.719,0.533c6.655,4.285,4.803,3.092,11.457,7.378
					c0.682,0.439,1.368,0.876,2.017,1.362c0.816,0.612,1.356,1.518,1.582,2.539c0.523,2.274,0.487,4.572,0.51,6.989
					c-0.001,0.098-0.041,0.2-0.09,0.431c-0.184-0.395-0.313-0.675-0.442-0.952c-0.477-0.981-1.215-1.635-2.112-2.175
					c-8.413-5.107-8.176-4.964-16.589-10.071c-0.399-0.241-0.618-0.554-0.69-1.093c-0.231-2.071-0.197-4.204-0.027-6.402
					c0.051-0.652,0.232-1.213,0.688-1.825c0.82-1.096,1.504-2.303,2.261-3.454l3.585-5.054c0.783-1.113,1.759-2.141,1.793-3.595
					l0.172,0.006c0.033,0.14,0.089,0.272,0.096,0.419c0.104,2.277-0.056,4.581-0.369,6.896c-0.146,1.081-0.53,2.064-1.243,3.01
					c-1.022,1.326-1.841,2.794-2.762,4.191C46.515,112.208,46.345,112.472,46.129,112.809z"/>
				<g>
					<path fill="#C1C1C1" d="M55.084,145.921c-0.327-0.334-0.582-0.685-0.917-0.916c-0.35-0.241-0.81-0.549-1.195-0.741
						c-6.022-2.985-6.378-3.162-12.4-6.147c-0.569-0.281-0.848-0.797-1.056-1.405c-0.151-0.439-0.271-0.897-0.434-1.45
						c-0.6,0.751-0.88,1.548-1.273,2.272c-0.394,0.752-0.803,1.499-1.14,2.28c-0.347,0.767-0.695,1.534-1.149,2.538
						c-0.209-0.762-0.412-1.305-0.502-1.893c-0.261-1.581-0.406-3.167-0.535-4.741c-0.061-0.673,0.116-1.301,0.459-1.962l2.626-5.09
						c0.858-1.706,1.871-3.328,2.797-4.996c0.483-0.846,1.086-1.638,1.25-2.636l0.169-0.02c0.096,0.614,0.247,1.211,0.283,1.839
						c0.075,1.606,0.15,3.223,0.224,4.834c0.053,0.859-0.188,1.643-0.683,2.432c-0.177,0.282-0.31,0.595-0.498,0.961
						c0.313,0.193,0.539,0.349,0.779,0.477c5.057,2.698,4.535,2.42,9.592,5.118c0.469,0.248,2.567,1.169,2.696,2.183
						c0.596,2.123,0.874,4.32,0.968,6.539C55.149,145.491,55.119,145.792,55.084,145.921z"/>
					<path fill="#C1C1C1" d="M41.062,110.983c0.079,0.789,0.199,1.393,0.197,2.028c0.005,1.827-0.057,3.612-0.017,5.469
						c0.009,1.308-0.409,2.543-1.117,3.764l-2.536,4.393c-0.828,1.473-1.562,2.999-2.345,4.497
						c-1.532,3.015-3.133,5.996-4.467,9.106c-0.206,0.455-0.412,0.91-0.704,1.556c-0.183-0.703-0.372-1.231-0.454-1.802
						c-0.225-1.59-0.42-3.223-0.589-4.841c-0.069-0.81,0.164-1.578,0.572-2.371c1.581-3.005,3.037-6.078,4.722-9.026
						c1.7-2.939,3.359-5.904,5.111-8.811c0.719-1.12,1.404-2.218,1.414-3.518C40.849,111.356,40.923,111.266,41.062,110.983z"/>
				</g>
				<g>
					<path fill="#C1C1C1" d="M27.248,164.523c-0.373-1.24-0.771-2.477-1.098-3.757c-0.234-0.94-0.426-1.93-0.552-2.909
						c-0.039-0.336,0.008-0.738,0.117-1.085c0.771-2.453,1.363-4.13,1.997-5.79c0.638-1.659,1.274-3.321,2.366-5.655
						c0.066-0.146,0.125-0.296,0.2-0.436c0.453-0.839,0.991-1.099,1.725-0.779l4.869,2.163l8.67,3.699
						c2.435,1.007,3.173,1.512,3.296,1.876c0.706,2.028,0.999,4.084,1.357,6.264c0.016,0.106-0.025,0.617-0.032,0.76
						c-1.808-1.298-6.757-3.17-9.942-4.42l-6.87-2.673c-0.855-0.331-1.29-0.097-1.711,0.963c-1.323,3.361-1.538,3.794-2.794,7.18
						c-0.307,0.922-0.508,1.879-0.781,2.812c-0.172,0.588-0.389,1.164-0.586,1.745L27.248,164.523z"/>
					<path fill="#C1C1C1" d="M22.112,161.214c-0.247-0.775-0.532-1.534-0.726-2.343c-0.344-1.4-0.622-2.835-0.839-4.245
						c-0.092-0.551,0.004-1.092,0.234-1.672c1.152-2.913,2.002-5.066,2.853-7.217c0.924-2.121,1.897-4.221,3.203-7.067
						c0.446-0.966,0.717-1.867,0.711-2.86c-0.001-0.14,0.053-0.293,0.204-0.472c0.146,0.627,0.342,1.232,0.431,1.878
						c0.201,1.603,0.403,3.215,0.605,4.826c0.043,0.354,0.054,0.726,0.029,1.096c-0.076,1.134-0.22,2.024-0.836,3.323
						c-0.104,0.224-0.215,0.465-0.323,0.699c-1.052,2.665-1.81,4.583-2.567,6.501c-0.752,1.92-1.55,3.823-2.428,6.552l-0.331,0.976
						L22.112,161.214z"/>
				</g>
				<path fill="#C1C1C1" d="M34.431,179.002c0.283,0.602,0.574,1.089,0.761,1.629c0.55,1.554,1.02,3.092,1.624,4.655
					c0.289,0.785,0.283,1.584,0.078,2.457c-1.768,7.199-1.911,8.796-3.214,16.091c-0.247,1.626-0.528,3.584-0.163,5.25
					c-0.052,0.024-0.244-0.27-0.296-0.246c-0.314-0.453-0.67-0.876-0.932-1.37c-0.698-1.327-1.409-2.693-2.025-4.079
					c-0.393-0.921-0.479-1.923-0.312-2.972l0.052-0.287c0.198-0.985-1.609-1.129-1.78-1.159l-14.773-2.554
					c-0.38-0.064-0.681-0.205-0.893-0.552c-1.413-2.329-2.546-4.975-3.285-7.839c-0.019-0.079,0.008-0.183,0.023-0.422
					c0.173,0.238,0.327,0.374,0.401,0.567c0.236,0.614,0.663,0.812,1.189,0.918l14.541,2.966c0.477,0.097,1.19,0.101,1.831,0.881
					c0.294,0.4,1.162,2.142,1.801,3.448c0.367,0.752,0.724,1.669,1.137,2.571c0.094-0.307,0.126-0.596,0.154-0.752l0.847-4.75
					l1.089-4.7c0.125-0.529,0.038-0.888-0.272-1.254c-0.575-0.681-1.312-1.031-2.092-1.221l-13.621-3.247
					c-0.025-0.006-0.05-0.021-0.074-0.016c-0.859-0.144-1.313-0.615-1.691-1.403c-0.909-1.9-1.62-3.983-2.053-6.127
					c-0.052-0.238-0.081-0.487-0.11-0.735c-0.006-0.047,0.037-0.111,0.096-0.274c0.297,0.884,0.99,0.885,1.604,1.051
					c4.384,1.183,8.757,2.405,13.162,3.513c1.527,0.385,2.54,1.402,3.207,2.866c0.647,1.382,1.203,2.879,1.795,4.303
					c0.097,0.247,0.195,0.496,0.361,0.918c0.128-0.443,0.21-0.683,0.267-0.929c0.645-2.755,0.579-2.627,1.343-5.351
					C34.357,180.299,34.35,179.71,34.431,179.002z"/>
			</g>
			<g>
				<path fill="#CE9549" d="M88.802,98.952c-0.387-0.995-0.395-1.103-1.705-0.73c-1.698,0.486-3.259,1.359-4.908,2.074
					c-0.283,0.126-0.56,0.285-0.849,0.385c-0.478,0.166-1.06-0.149-1.085-0.655c-0.059-1.213-0.112-2.439-0.051-3.683
					c0.078-1.328,0.222-2.727,0.443-4.042c0.055-0.356,0.186-0.714,0.3-1.133c0.205,0.245,0.313,0.535,0.501,0.562
					c0.327,0.047,0.754,0.042,1.051-0.13c1.551-0.897,3.197-1.349,4.794-1.936c0.468-0.172,0.962-0.271,1.439-0.324
					c0.581-0.065,0.945,0.241,0.939,0.842c-0.012,1.32-0.02,2.638-0.131,3.949c-0.115,1.358-0.349,2.712-0.532,4.054
					C88.974,98.441,88.873,98.696,88.802,98.952z"/>
				<path fill="#CE9549" d="M78.419,82.942c-0.425-0.939-1.118-0.525-1.822-0.229c-0.905,0.38-1.826,0.715-2.75,1.046
					c-0.999,0.344-1.995,0.688-2.987,1.03c-0.651,0.238-0.93,0.097-0.929-0.579c0.004-1.263,0.075-2.496,0.242-3.771
					c0.198-1.45,0.53-2.922,0.832-4.398c0.05-0.246,0.171-0.495,0.303-0.863c0.383,0.766,1.072,0.312,1.616,0.145
					c1.01-0.308,2.006-0.731,3.005-1.11c0.954-0.325,1.9-0.687,2.848-0.985c0.735-0.231,1.193,0.064,1.126,0.779
					c-0.122,1.327-0.275,2.645-0.486,3.973c-0.185,1.352-0.47,2.705-0.714,4.047C78.656,82.287,78.544,82.546,78.419,82.942z"/>
				<path fill="#CE9549" d="M75.294,93.069c-0.04-0.315-0.108-0.588-0.105-0.873c0.013-1.232,0.059-2.479,0.17-3.732
					c0.141-1.225,0.341-2.462,0.618-3.712c0.124-0.561,0.39-0.863,0.943-1.031c1.406-0.429,2.741-1.089,4.061-1.813
					c0.712-0.382,1.458-0.666,2.223-0.847c0.21-0.05,0.519,0.247,0.642,0.474c0.118,0.217,0.084,0.543,0.065,0.832
					c-0.146,2.628-0.389,5.231-0.964,7.82c-0.052,0.236-0.147,0.469-0.266,0.846c-0.088-0.224-0.163-0.319-0.16-0.425
					c0.017-0.531-0.262-0.624-0.732-0.442c-0.637,0.247-1.308,0.429-1.906,0.775C78.366,91.781,76.914,92.473,75.294,93.069z"/>
			</g>
		</g>
		<g>
			<g>
				<g>
					<path fill="#C1C1C1" d="M14.476,276.272c-2.107-2.397-4.18-5.087-5.827-7.983l-1.491-2.593c-0.785-1.398-1.15-3.015-1.49-4.62
						c-0.289-1.249-0.424-2.54-0.463-3.819c-0.05-1.397,0.255-2.73,0.684-3.976c0.583-1.696,1.406-3.162,2.471-4.375
						c0.559-0.637,0.675-0.689,1.271,0.015c1.295,1.527,2.574,3.055,3.809,4.61c0.419,0.527,0.792,0.767,1.39,0.717
						c9.073-0.755,4.281-0.356,13.354-1.111c0.653-0.053,1.314-0.107,1.966-0.057c0.832,0.064,1.586,0.524,2.222,1.086
						c0.82,0.726,1.578,1.517,2.287,2.355c0.756,0.833,1.468,1.711,2.145,2.615c0.043,0.058,0.047,0.151,0.109,0.364
						c-0.446-0.203-0.819-0.352-1.176-0.545c-0.409-0.221-0.813-0.3-1.261-0.251c-9.307,0.961-4.772,0.493-14.079,1.454
						c-0.555,0.059-1.115,0.092-1.661,0.198c-0.386,0.075-0.693-0.03-0.986-0.362c-1.245-1.373-2.38-2.769-3.524-4.192
						c-0.227-0.298-0.456-0.6-0.752-0.99c-0.31,0.327-0.627,0.579-0.859,0.924c-0.941,1.419-1.837,2.956-2.197,4.783
						c-0.414,1.922-0.249,3.88,0.143,5.821c0.255,1.26,0.538,2.555,1.02,3.694c0.611,1.371,1.448,2.642,2.282,3.833
						C14.969,275.429,14.966,276.817,14.476,276.272z"/>
					<path fill="#C1C1C1" d="M14.199,266.679c0.041-0.025,0.073-0.056,0.081-0.048c0.721,0.703,1.499,0.463,2.27,0.355
						c5.621-0.79,6.233-0.876,11.855-1.666c0.702-0.099,1.403-0.228,2.109-0.266c0.994-0.053,1.934,0.337,2.733,0.968
						c1.593,1.291,3.159,2.836,4.523,4.471c0.096,0.112,0.154,0.263,0.32,0.553c-0.537-0.178-0.929-0.274-1.299-0.441
						c-0.602-0.272-1.202-0.266-1.806-0.163c-6.394,1.097-7.802,1.339-14.196,2.435c-0.512,0.089-0.951-0.003-1.394-0.354
						c-0.972-0.77-1.891-1.629-2.765-2.565c-0.85-0.939-1.606-1.963-2.347-3.048C14.239,266.848,14.225,266.756,14.199,266.679z"/>
				</g>
				<g>
					<path fill="#C1C1C1" d="M51.299,338.194c-0.55-0.281-0.809-0.029-1.045,0.376l-2.323,3.928l-0.453,0.74
						c-0.165,0.285-0.391,0.363-0.735,0.234c-2.058-0.792-4.164-1.791-6.018-3.158c-0.091-0.065-0.166-0.167-0.299-0.304
						c1.131-1.788,2.249-3.553,3.367-5.321c0.249-0.389,0.609-0.335,0.977-0.225c0.367,0.11,0.738,0.255,1.085,0.446
						c1.634,0.887,3.2,1.799,4.847,2.648c0.217,0.11,0.41,0.293,0.614,0.442L51.299,338.194z"/>
					<path fill="#C1C1C1" d="M49.629,331.208c-0.158-0.011-0.267-0.123-0.391-0.179c-1.82-0.836-3.681-1.68-5.508-2.568
						c-1.525-0.776-3.113-1.198-4.719-1.544c-0.909-0.196-1.623,0.217-2.215,0.81c-0.378,0.378-0.629,0.919-0.933,1.392
						c-1.497,2.337-3.045,4.737-4.404,7.134c-0.573,0.996-1.048,2.081-1.634,3.072c-0.368,0.621-0.605,1.43-1.465,1.622
						c0.19,0.2,0.27,0.307,0.366,0.38c1.972,1.484,4.007,2.686,6.094,3.623c0.419,0.188,0.738,0.089,0.977-0.238
						c0.172-0.235,0.339-0.478,0.476-0.745l1.294-2.55c0.603-1.121,1.233-2.216,1.858-3.31l1.243-2.153l2.556-4.102
						c0.419-0.666,1.043-1.064,1.792-1.004c1.626,0.13,3.233,0.574,4.777,1.362c0.392,0.201,0.668,0.505,0.873,0.936
						c0.358,0.754,0.755,1.489,1.135,2.233c0.279,0.574,0.675,1.042,1.216,1.361c1.832,1.088,3.695,1.996,5.618,2.63
						c0.128,0.043,0.268,0.017,0.385,0.022c-0.289-0.502-0.564-0.947-0.807-1.408c-1.494-2.533-6.432-11.703-7.506-14.198
						c-0.299-0.703-0.752-1.202-1.331-1.645c-1.984-1.512-5.289-2.679-5.289-2.679C45.736,323.463,47.627,327.088,49.629,331.208z"
						/>
				</g>
				<g>
					<path fill="#C1C1C1" d="M89.33,366.623l-0.828,0.031c-0.873-0.004-1.593,0.297-2.274,0.801
						c-3.619,2.668-6.821,5.823-10.243,8.721c-2.577,2.176-5.096,4.421-7.633,6.645c-0.399,0.35-0.778,0.727-1.125,1.132
						c-0.286,0.333-0.64,0.466-1.121,0.422c-2.763-0.271-5.631-1.042-8.37-2.283c-0.183-0.084-0.387-0.228-0.518-0.395
						c-2.857-3.679-5.794-7.297-8.413-11.152c-0.587-0.828-1.184-1.661-1.854-2.414c-0.682-0.767-1.461-1.44-2.22-2.179
						c0.024-0.002,0.111-0.039,0.197-0.013c2.387,0.718,4.712,1.668,6.964,2.93c0.73,0.409,1.382,0.951,1.937,1.633
						c0.715,0.904,1.474,1.776,2.21,2.665l4.663,5.921c0.215,0.273,0.431,0.547,0.712,0.905c0.316-0.237,0.58-0.42,0.828-0.624
						c5.196-4.264,10.417-8.495,15.565-12.819c1.742-1.462,3.699-2.05,6.105-1.535c1.627,0.355,3.231,0.79,4.825,1.18
						c0.202,0.049,0.395,0.165,0.592,0.249L89.33,366.623z"/>
					<path fill="#C1C1C1" d="M63.837,389.962c0.354-0.315,0.576-0.512,0.797-0.71l14.593-12.995c0.658-0.588,1.256-1.245,1.881-1.87
						c0.222-0.223,0.466-0.35,0.832-0.301c1.889,0.277,3.807,0.679,5.719,1.212c0.15,0.044,1.451,0.537,1.653,0.638
						c-1.057,0.008-1.749,0.924-2.288,1.436l-15.087,14.256c-0.341,0.323-0.709,0.42-1.241,0.337
						c-1.921-0.319-3.93-0.789-5.807-1.529C64.613,390.333,64.34,390.191,63.837,389.962z"/>
					<path fill="#C1C1C1" d="M82.534,360.508c-0.682,0.075-1.271,0.114-1.848,0.207c-0.272,0.044-0.546,0.156-0.769,0.309
						c-0.584,0.402-1.152,0.829-1.707,1.27L64.596,373.17c-0.623,0.505-1.338,0.705-2.119,0.565c-2.262-0.403-4.52-1.229-6.76-2.32
						c-0.076-0.035-0.134-0.124-0.246-0.238c0.103-0.059,0.178-0.154,0.261-0.143c0.743,0.097,1.26-0.273,1.771-0.658l14.18-10.641
						c0.485-0.363,0.98-0.73,1.527-0.996c0.752-0.365,1.635-0.397,2.489-0.276c2.216,0.314,4.36,0.968,6.443,1.799
						C82.255,360.309,82.356,360.395,82.534,360.508z"/>
				</g>
				<path fill="#C1C1C1" d="M15.199,283.942c0.349-0.051,0.622-0.074,0.886-0.131c7.736-1.673,5.583-1.208,13.319-2.881
					c0.793-0.172,1.586-0.347,2.39-0.462c1.011-0.144,2.039,0.113,2.929,0.674c1.97,1.241,3.685,2.862,5.286,4.586
					c0.066,0.071,0.106,0.172,0.225,0.372c-0.4-0.152-0.683-0.259-0.964-0.366c-1.008-0.362-1.986-0.304-3.002-0.052
					c-9.56,2.336-9.291,2.27-18.85,4.607c-0.453,0.111-0.823,0.044-1.242-0.29c-1.629-1.302-3.145-2.828-4.596-4.5
					c-0.43-0.496-0.705-1.02-0.824-1.774c-0.255-1.346-0.513-2.704-0.77-4.057l-1.093-6.102c-0.241-1.34-0.317-2.751-1.249-3.815
					l0.13-0.118c0.118,0.076,0.249,0.13,0.354,0.231c1.597,1.55,3.204,3.281,4.616,5.141c0.67,0.867,1.103,1.832,1.278,3.004
					c0.263,1.652,0.534,3.307,0.946,4.931C15.039,283.245,15.109,283.552,15.199,283.942z"/>
				<g>
					<path fill="#C1C1C1" d="M44.984,301.011c-0.469-0.004-0.901-0.071-1.302,0.004c-0.419,0.078-0.963,0.185-1.371,0.323
						c-6.368,2.149-6.745,2.276-13.113,4.426c-0.601,0.204-1.168,0.038-1.75-0.242c-0.421-0.202-0.835-0.439-1.346-0.713
						c0.119,0.951,0.496,1.709,0.741,2.496l0.813,2.417c0.274,0.796,0.547,1.593,0.905,2.635c-0.689-0.39-1.189-0.64-1.657-0.996
						c-1.24-0.956-2.462-1.975-3.699-2.986c-0.527-0.43-0.854-0.996-1.088-1.704c-1.278-3.601-2.233-7.302-3.304-10.968
						c-0.268-0.937-0.414-1.921-1.016-2.739l0.104-0.134c0.508,0.364,1.042,0.679,1.518,1.095c1.205,1.079,2.418,2.164,3.627,3.246
						c0.645,0.57,1.069,1.284,1.245,2.201c0.063,0.328,0.179,0.647,0.292,1.043c0.357-0.085,0.626-0.134,0.886-0.213
						c5.484-1.669,4.917-1.497,10.401-3.166c0.507-0.156,2.648-0.991,3.427-0.356c1.882,1.091,3.703,2.425,5.352,3.921
						C44.721,300.663,44.917,300.895,44.984,301.011z"/>
					<path fill="#C1C1C1" d="M10.337,286.23c0.62,0.501,1.137,0.842,1.59,1.292c1.299,1.289,2.583,2.58,3.84,3.887
						c0.871,0.935,1.471,2.097,1.855,3.456c0.937,3.249,1.773,6.53,2.823,9.745l3.272,9.605c0.183,0.465,0.365,0.929,0.625,1.589
						c-0.634-0.365-1.146-0.603-1.614-0.945c-1.299-0.959-2.494-2.011-3.752-3.037c-0.63-0.521-1.018-1.226-1.303-2.071l-1.623-4.83
						l-1.411-4.896c-0.917-3.271-1.914-6.521-2.607-9.849c-0.298-1.298-0.603-2.557-1.528-3.481
						C10.455,286.643,10.442,286.527,10.337,286.23z"/>
				</g>
				<g>
					<path fill="#C1C1C1" d="M38.425,333.867c-1.142-0.612-2.351-1.178-3.432-1.878c-0.811-0.507-1.603-1.092-2.384-1.696
						c-0.269-0.208-0.525-0.523-0.698-0.843c-1.223-2.265-2.012-3.859-2.761-5.471c-0.7-1.633-1.311-3.305-2.266-5.697
						c-0.059-0.149-0.125-0.296-0.173-0.448c-0.286-0.909-0.096-1.471,0.65-1.764l4.971-1.916l8.742-3.518
						c2.432-1.01,3.314-1.177,3.662-1.008c1.926,0.938,3.708,2.135,5.398,3.465c0.083,0.065,0.398,0.462,0.49,0.57
						c-2.178,0.354-7.006,2.534-10.143,3.906l-6.751,2.973c-0.829,0.367-1.013,0.858-0.555,1.902c1.491,3.29,1.689,3.728,3.18,7.018
						c0.411,0.88,0.897,1.722,1.361,2.576c0.302,0.534,0.563,1.09,0.842,1.636L38.425,333.867z"/>
					<path fill="#C1C1C1" d="M32.436,335.17c-0.74-0.365-1.462-0.707-2.147-1.153c-1.191-0.766-2.366-1.6-3.553-2.427
						c-0.461-0.321-0.782-0.769-1.038-1.339c-1.298-2.851-2.245-4.962-3.057-7.13c-0.84-2.156-1.681-4.312-2.819-7.23
						c-0.384-0.992-0.766-1.844-1.457-2.548c-0.096-0.1-0.161-0.248-0.174-0.484c0.531,0.346,1.083,0.64,1.587,1.039
						c1.228,1.006,2.557,1.996,3.837,2.984c0.285,0.218,0.56,0.472,0.808,0.749c0.762,0.85,1.301,1.577,1.802,2.924
						c0.088,0.231,0.182,0.479,0.274,0.72c1.014,2.681,1.879,4.554,2.734,6.43c0.85,1.878,1.7,3.757,2.881,6.367
						c0.135,0.316,0.304,0.616,0.456,0.923L32.436,335.17z"/>
				</g>
				<path fill="#C1C1C1" d="M53.758,339.016c0.632,0.222,1.186,0.358,1.706,0.604c1.472,0.715,2.95,1.433,4.431,2.151
					c0.732,0.367,1.267,0.952,1.763,1.701c1.992,3.126,3.202,5.024,4.413,6.923c1.255,1.869,2.603,3.675,4.748,6.697
					c0.929,1.359,2.085,2.964,3.555,3.86c-0.02,0.054-0.365-0.018-0.385,0.036c-0.544-0.097-1.098-0.143-1.636-0.305
					c-1.467-0.42-2.863-0.937-4.265-1.493c-0.937-0.369-1.714-1.012-2.346-1.866l-0.169-0.238c-0.564-0.831-1.943,0.343-2.086,0.443
					l-12.257,8.633c-0.314,0.223-0.627,0.337-1.025,0.243c-2.687-0.62-5.332-1.707-7.823-3.247c-0.07-0.042-0.125-0.134-0.286-0.312
					c0.292,0.045,0.498,0.031,0.689,0.114c0.606,0.264,1.048,0.101,1.496-0.196l12.382-8.18c0.404-0.268,0.921-0.775,1.903-0.661
					c0.488,0.077,2.25,0.752,3.66,1.2c0.797,0.268,1.705,0.661,2.641,1.003c-0.153-0.281-0.337-0.508-0.429-0.637
					c-1.926-2.581-3.551-5.365-5.307-8.059c-0.291-0.459-0.61-0.649-1.091-0.688c-0.894-0.072-1.664,0.203-2.35,0.62l-11.929,7.334
					c-0.022,0.013-0.05,0.02-0.064,0.041c-0.709,0.505-1.366,0.495-2.196,0.209c-1.974-0.707-3.843-1.74-5.724-2.915
					c-0.207-0.13-0.406-0.284-0.605-0.437c-0.038-0.029-0.054-0.105-0.128-0.26c0.842,0.41,1.332-0.078,1.884-0.395
					c3.936-2.264,7.893-4.492,11.79-6.823c1.352-0.807,2.796-0.809,4.316-0.254c1.443,0.515,2.786,1.247,4.239,1.818
					c0.245,0.105,0.493,0.211,0.913,0.389c-0.227-0.401-0.341-0.627-0.478-0.84c-1.427-2.444-1.356-2.322-2.782-4.766
					C54.638,339.977,54.209,339.569,53.758,339.016z"/>
			</g>
			<g>
				<path fill="#CE9549" d="M35.634,243.975c-0.978-0.431-1.06-0.502-1.721,0.688c-0.895,1.547-1.378,3.267-2.025,4.937
					c-0.11,0.289-0.192,0.597-0.324,0.872c-0.219,0.455-0.852,0.643-1.229,0.303c-0.904-0.816-1.812-1.647-2.653-2.569
					c-0.921-0.993-1.74-2.088-2.517-3.175c-0.213-0.291-0.374-0.637-0.591-1.014c0.318,0.029,0.599,0.158,0.752,0.044
					c0.265-0.198,0.562-0.503,0.65-0.835c0.46-1.731,1.303-3.214,2.014-4.758c0.209-0.453,0.487-0.872,0.787-1.247
					c0.365-0.457,0.838-0.498,1.259-0.069c0.926,0.943,1.854,1.881,2.704,2.888c0.88,1.042,1.675,2.166,2.495,3.246
					C35.393,243.492,35.502,243.744,35.634,243.975z"/>
				<path fill="#CE9549" d="M16.963,239.985c-0.965-0.364-1.161,0.419-1.449,1.126c-0.37,0.909-0.783,1.796-1.201,2.683
					c-0.449,0.952-0.913,1.898-1.391,2.839c-0.32,0.629-0.62,0.727-1.075,0.247c-0.852-0.898-1.704-1.819-2.48-2.839
					c-0.887-1.165-1.694-2.441-2.527-3.697c-0.139-0.21-0.23-0.471-0.397-0.824c0.813,0.272,0.978-0.537,1.244-1.039
					c0.496-0.931,0.896-1.934,1.34-2.907c0.445-0.904,0.86-1.828,1.322-2.708c0.357-0.682,0.89-0.798,1.348-0.245
					c0.849,1.024,1.675,2.064,2.459,3.152c0.827,1.087,1.583,2.245,2.361,3.366C16.667,239.354,16.771,239.617,16.963,239.985z"/>
				<path fill="#CE9549" d="M21.897,249.358c-0.252-0.194-0.493-0.34-0.694-0.544c-1.778-1.759-3.296-3.666-4.682-5.825
					c-0.31-0.485-0.335-0.886-0.064-1.396c0.689-1.297,1.164-2.707,1.584-4.152c0.234-0.773,0.554-1.501,0.974-2.171
					c0.113-0.184,0.542-0.192,0.789-0.118c0.236,0.07,0.445,0.324,0.631,0.542c1.758,1.962,3.43,3.975,4.857,6.213
					c0.13,0.204,0.229,0.436,0.411,0.786c-0.22-0.096-0.341-0.11-0.414-0.188c-0.364-0.388-0.627-0.256-0.83,0.205
					c-0.275,0.625-0.62,1.228-0.796,1.895C23.193,246.275,22.579,247.794,21.897,249.358z"/>
			</g>
		</g>
		<g>
			<g>
				<g>
					<path fill="#C1C1C1" d="M108.944,422.319c-3.188-0.192-6.459-0.75-9.78-1.481c-0.959-0.243-1.914-0.515-2.876-0.788
						c-1.536-0.439-2.93-1.332-4.299-2.234c-1.065-0.705-2.113-1.474-3.076-2.315c-1.02-0.957-1.745-2.119-2.321-3.309
						c-0.784-1.618-1.238-3.242-1.343-4.859c-0.055-0.849-0.01-0.968,0.906-0.891c1.989,0.166,3.967,0.345,5.932,0.574
						c0.666,0.078,1.099-0.017,1.484-0.476c5.859-6.969,2.765-3.288,8.624-10.257c0.423-0.501,0.85-1.007,1.345-1.434
						c0.631-0.544,1.486-0.752,2.329-0.803c2.183-0.138,4.461-0.016,6.677,0.327c0.071,0.01,0.14,0.075,0.332,0.182
						c-0.457,0.171-0.825,0.329-1.211,0.444c-0.443,0.132-0.783,0.362-1.064,0.714c-5.877,7.279-3.014,3.732-8.891,11.011
						c-0.349,0.435-0.721,0.855-1.031,1.318c-0.219,0.327-0.508,0.47-0.949,0.441c-1.813-0.131-3.683-0.214-5.493-0.411
						c-0.37-0.051-0.744-0.103-1.227-0.17c0.012,0.452-0.034,0.856,0.046,1.265c0.309,1.709,0.884,3.288,1.881,4.886
						c1.06,1.663,2.553,2.94,4.195,4.045c1.051,0.735,2.2,1.406,3.376,1.829c1.416,0.516,2.881,0.853,4.309,1.107
						C108.7,421.368,109.672,422.362,108.944,422.319z"/>
					<path fill="#C1C1C1" d="M101.939,415.764c0.011-0.047,0.012-0.092,0.023-0.092c1.002-0.01,1.381-0.732,1.848-1.355
						c3.402-4.544,3.772-5.039,7.175-9.583c0.425-0.567,0.827-1.156,1.298-1.683c0.661-0.74,1.615-1.151,2.642-1.296
						c2.095-0.297,4.233-0.231,6.356-0.046c0.146,0.013,0.294,0.079,0.613,0.17c-0.502,0.252-0.846,0.461-1.224,0.603
						c-0.615,0.231-1.033,0.66-1.385,1.161c-3.73,5.308-4.551,6.477-8.281,11.785c-0.298,0.426-0.672,0.671-1.23,0.733
						c-2.443,0.267-5.014,0.165-7.613-0.291C102.086,415.856,102.011,415.8,101.939,415.764z"/>
				</g>
				<g>
					<path fill="#C1C1C1" d="M178.827,439.852c-0.585,0.184-0.59,0.546-0.47,1.003c0.379,1.487,0.757,2.968,1.136,4.451l0.203,0.849
						c0.085,0.321-0.019,0.535-0.352,0.684c-2.013,0.898-4.175,1.577-6.484,2.032c-0.111,0.022-0.238,0.007-0.43,0.01
						c-0.507-2.02-0.956-4.069-1.399-6.124c-0.099-0.454,0.192-0.668,0.528-0.847c0.335-0.178,0.698-0.334,1.077-0.44
						c1.775-0.512,3.566-1.111,5.323-1.657c0.23-0.073,0.495-0.077,0.744-0.113L178.827,439.852z"/>
					<path fill="#C1C1C1" d="M172.683,436.159c-0.119,0.103-0.274,0.099-0.401,0.145l-5.686,2.031
						c-1.64,0.572-3.075,1.441-4.459,2.351c-0.777,0.497-0.988,1.296-0.988,2.138c-0.002,0.543,0.207,1.095,0.331,1.633
						c0.611,2.679,1.253,5.374,1.974,8.082c0.298,1.118,0.729,2.232,1.015,3.356c0.179,0.705,0.581,1.452,0.112,2.194
						c0.274,0.01,0.407,0.031,0.525,0.016c2.423-0.285,4.725-0.929,6.884-1.816c0.432-0.175,0.588-0.474,0.523-0.868
						c-0.047-0.284-0.102-0.57-0.196-0.85l-0.909-2.667c-0.376-1.198-0.717-2.384-1.044-3.622l-0.642-2.421l-1.091-4.744
						c-0.174-0.773-0.015-1.497,0.554-1.98c1.235-1.047,2.678-1.855,4.318-2.371c0.417-0.132,0.824-0.102,1.274,0.058
						c0.795,0.251,1.604,0.461,2.407,0.69c0.613,0.175,1.221,0.236,1.826,0.089c2.055-0.503,4.006-1.157,5.805-2.048
						c0.12-0.059,0.2-0.176,0.286-0.254c-0.557-0.159-1.064-0.286-1.56-0.447c-1.398-0.461-4.62-1.327-7.807-2.218
						c-3.143-1.03-6.265-2.041-7.54-2.503c-0.717-0.263-1.4-0.264-2.126-0.158c-2.457,0.303-5.601,1.782-5.601,1.782
						C164.404,433.574,168.406,434.511,172.683,436.159z"/>
				</g>
				<g>
					<path fill="#C1C1C1" d="M225.784,432.973l-0.561,0.605c-0.618,0.612-0.911,1.333-1.034,2.171
						c-0.658,4.444-0.676,8.942-1.033,13.411c-0.272,3.362-0.456,6.731-0.667,10.098c-0.033,0.53-0.032,1.065,0.009,1.597
						c0.035,0.438-0.121,0.782-0.49,1.09c-2.141,1.779-4.7,3.172-7.519,4.334c-0.189,0.078-0.436,0.13-0.648,0.113l-6.931-0.892
						c-2.306-0.327-4.627-0.548-6.913-1.01c-0.999-0.179-2.01-0.354-3.014-0.422c-1.023-0.069-2.048-0.003-3.106,0.003
						c0.015-0.018,0.051-0.106,0.129-0.148c2.19-1.164,4.499-2.119,6.978-2.799c0.805-0.226,1.643-0.273,2.525-0.234
						c1.154,0.073,2.31,0.131,3.456,0.264l7.481,0.921c0.347,0.027,0.694,0.053,1.148,0.089c0.055-0.392,0.111-0.709,0.141-1.029
						c0.637-6.691,1.316-13.38,1.876-20.076c0.191-2.276,1.156-4.099,3.215-5.415c1.398-0.893,2.837-1.714,4.236-2.558
						c0.178-0.107,0.395-0.161,0.594-0.24L225.784,432.973z"/>
					<path fill="#C1C1C1" d="M224.37,467.512c0.026-0.473,0.042-0.77,0.059-1.066l1.068-19.511c0.047-0.881,0.002-1.769-0.001-2.653
						c-0.001-0.315,0.08-0.577,0.373-0.799c1.528-1.161,3.171-2.301,4.895-3.241c0.137-0.075,1.404-0.644,1.619-0.715
						c-0.74,0.752-0.578,1.889-0.595,2.633l-0.526,20.75c-0.011,0.47-0.202,0.798-0.636,1.115c-1.581,1.155-3.325,2.162-5.177,3.082
						C225.179,467.23,224.887,467.319,224.37,467.512z"/>
					<path fill="#C1C1C1" d="M216.652,433.502c-0.427,0.533-0.814,0.974-1.153,1.446c-0.16,0.223-0.274,0.495-0.322,0.761
						c-0.127,0.697-0.224,1.4-0.302,2.105l-1.88,17.323c-0.081,0.798-0.442,1.443-1.092,1.893c-1.878,1.303-4.054,2.304-6.405,3.102
						c-0.078,0.027-0.182,0.009-0.344,0.015c0.031-0.115,0.016-0.234,0.083-0.287c0.595-0.471,0.694-1.086,0.782-1.724l2.447-17.559
						c0.084-0.6,0.173-1.21,0.37-1.784c0.271-0.789,0.87-1.432,1.557-1.947c1.782-1.333,3.754-2.373,5.809-3.244
						C216.314,433.556,216.446,433.547,216.652,433.502z"/>
				</g>
				<path fill="#C1C1C1" d="M114.916,427.176c0.21-0.283,0.385-0.493,0.531-0.721c4.269-6.665,3.081-4.81,7.35-11.475
					c0.438-0.683,0.873-1.37,1.357-2.02c0.61-0.817,1.514-1.359,2.534-1.585c2.259-0.505,4.581-0.516,6.994-0.536
					c0.098,0.001,0.2,0.041,0.431,0.09c-0.395,0.184-0.674,0.314-0.95,0.443c-0.979,0.478-1.631,1.217-2.169,2.115
					c-5.087,8.425-4.944,8.188-10.031,16.613c-0.24,0.399-0.552,0.619-1.091,0.692c-2.095,0.275-4.207,0.213-6.408,0.054
					c-0.651-0.051-1.212-0.232-1.824-0.687c-1.098-0.818-2.3-1.51-3.458-2.255l-5.064-3.57c-1.113-0.783-2.142-1.759-3.594-1.792
					l0.006-0.172c0.139-0.033,0.271-0.089,0.419-0.096c2.274-0.106,4.577,0.052,6.889,0.363c1.08,0.145,2.062,0.528,3.009,1.242
					c1.354,0.98,2.802,1.83,4.205,2.741C114.315,426.79,114.579,426.96,114.916,427.176z"/>
				<g>
					<path fill="#C1C1C1" d="M148.002,418.15c-0.333,0.327-0.683,0.583-0.913,0.919c-0.24,0.351-0.547,0.811-0.738,1.197
						c-2.971,6.029-3.146,6.385-6.117,12.415c-0.279,0.57-0.795,0.849-1.401,1.058c-0.438,0.151-0.895,0.272-1.447,0.435
						c0.751,0.6,1.548,0.879,2.273,1.272c0.744,0.411,1.51,0.78,2.291,1.117c0.767,0.347,1.535,0.694,2.538,1.149
						c-0.761,0.209-1.303,0.413-1.89,0.504c-1.571,0.245-3.178,0.439-4.747,0.56c-0.672,0.062-1.299-0.115-1.961-0.458
						c-3.385-1.768-6.82-3.439-10.099-5.4c-0.846-0.483-1.639-1.086-2.636-1.249l-0.021-0.17c0.613-0.097,1.209-0.248,1.836-0.285
						c1.604-0.076,3.219-0.152,4.829-0.228c0.853-0.045,1.647,0.179,2.443,0.66c0.282,0.177,0.595,0.31,0.961,0.498
						c0.192-0.314,0.347-0.54,0.475-0.78c2.686-5.064,2.409-4.541,5.095-9.605c0.247-0.469,1.163-2.57,2.176-2.7
						c2.12-0.597,4.314-0.877,6.53-0.972C147.573,418.084,147.873,418.114,148.002,418.15z"/>
					<path fill="#C1C1C1" d="M113.101,432.25c0.788-0.08,1.391-0.201,2.025-0.199c1.813,0.013,3.624,0.029,5.477-0.008
						c1.307-0.01,2.541,0.407,3.763,1.115l4.393,2.535l4.509,2.322c3.005,1.552,6.009,3.105,9.118,4.443
						c0.455,0.206,0.91,0.411,1.556,0.704c-0.702,0.184-1.229,0.372-1.8,0.456c-1.591,0.232-3.214,0.41-4.841,0.604
						c-0.819,0.09-1.579-0.157-2.375-0.56c-3.011-1.571-6.066-3.058-9.039-4.698l-8.825-5.088c-1.121-0.719-2.218-1.404-3.517-1.412
						C113.474,432.463,113.384,432.389,113.101,432.25z"/>
				</g>
				<g>
					<path fill="#C1C1C1" d="M166.675,445.933c-1.239,0.373-2.473,0.772-3.752,1.1c-0.941,0.241-1.923,0.414-2.911,0.567
						c-0.343,0.061-0.739-0.002-1.088-0.106c-4.891-1.582-6.738-2.275-11.454-4.338c-0.146-0.066-0.296-0.125-0.436-0.2
						c-0.84-0.452-1.1-0.991-0.782-1.726l2.151-4.874l3.678-8.679c1.001-2.437,1.504-3.177,1.868-3.3
						c2.017-0.687,4.09-1.027,6.265-1.384c0.106-0.016,0.616,0.025,0.759,0.032c-1.293,1.81-3.154,6.763-4.395,9.952l-2.656,6.876
						c-0.328,0.855-0.094,1.291,0.966,1.712c3.365,1.312,3.786,1.562,7.189,2.77c0.922,0.307,1.879,0.508,2.812,0.781
						c0.588,0.172,1.164,0.389,1.745,0.585L166.675,445.933z"/>
					<path fill="#C1C1C1" d="M163.38,451.074c-0.774,0.247-1.532,0.533-2.339,0.728c-1.391,0.324-2.842,0.652-4.249,0.866
						c-0.55,0.093-1.091-0.004-1.672-0.233c-2.914-1.151-5.066-2.001-7.218-2.852c-2.141-0.877-4.226-1.884-7.077-3.179
						c-0.966-0.446-1.867-0.717-2.859-0.71c-0.14,0.001-0.293-0.053-0.472-0.204c0.626-0.146,1.23-0.343,1.875-0.432
						c1.601-0.202,3.212-0.405,4.821-0.609c0.353-0.043,0.726-0.054,1.095-0.03c1.133,0.075,2.023,0.219,3.321,0.835
						c0.222,0.11,0.471,0.202,0.709,0.3c2.665,1.052,4.583,1.809,6.501,2.566c0.959,0.377,1.919,0.755,2.972,1.169
						c1.061,0.393,2.235,0.768,3.589,1.235l0.976,0.331L163.38,451.074z"/>
				</g>
				<path fill="#C1C1C1" d="M181.137,438.718c0.601-0.284,1.087-0.574,1.626-0.762c1.546-0.528,3.095-1.051,4.655-1.651
					c0.784-0.29,1.583-0.283,2.456-0.078c7.198,1.773,8.805,1.866,16.096,3.188c1.633,0.2,3.586,0.515,5.253,0.139
					c0.024,0.052-0.27,0.244-0.246,0.296c-0.452,0.314-0.874,0.67-1.368,0.933c-1.326,0.707-2.686,1.39-4.076,2.045
					c-0.922,0.406-1.922,0.483-2.971,0.319l-0.287-0.052c-0.985-0.198-1.125,1.609-1.154,1.781l-2.518,14.779
					c-0.063,0.38-0.203,0.681-0.55,0.894c-2.327,1.425-4.962,2.523-7.833,3.314c-0.079,0.019-0.183-0.008-0.422-0.023
					c0.238-0.173,0.373-0.328,0.566-0.402c0.616-0.25,0.815-0.69,0.919-1.214l2.931-14.548c0.095-0.475,0.099-1.194,0.876-1.833
					c0.399-0.294,2.138-1.162,3.442-1.802c0.751-0.367,1.667-0.725,2.568-1.137c-0.307-0.094-0.596-0.126-0.752-0.155l-4.75-0.847
					c-1.581-0.294-3.137-0.708-4.705-1.064c-0.529-0.125-0.888-0.037-1.253,0.272c-0.68,0.576-1.027,1.313-1.215,2.094
					l-3.214,13.629c-0.006,0.025-0.021,0.05-0.016,0.074c-0.142,0.859-0.611,1.314-1.398,1.692c-1.891,0.888-3.985,1.653-6.125,2.08
					c-0.237,0.052-0.487,0.081-0.734,0.11c-0.047,0.006-0.112-0.037-0.274-0.096c0.882-0.297,0.882-0.991,1.047-1.605
					c1.172-4.387,2.384-8.763,3.481-13.17c0.383-1.531,1.394-2.536,2.858-3.216c1.389-0.684,2.878-1.214,4.301-1.814
					c0.247-0.097,0.496-0.195,0.917-0.361c-0.443-0.128-0.683-0.211-0.929-0.268c-2.749-0.667-2.635-0.549-5.357-1.318
					C182.433,438.792,181.844,438.799,181.137,438.718z"/>
			</g>
			<g>
				<path fill="#CE9549" d="M100.95,384.544c-0.993,0.389-1.101,0.397-0.727,1.708c0.521,1.663,1.371,3.252,2.095,4.894
					c0.126,0.284,0.285,0.56,0.386,0.85c0.166,0.479-0.147,1.061-0.652,1.087c-1.211,0.061-2.436,0.114-3.678,0.055
					c-1.334-0.068-2.708-0.238-4.055-0.421c-0.356-0.054-0.713-0.186-1.132-0.299c0.245-0.206,0.534-0.314,0.561-0.502
					c0.047-0.328,0.041-0.755-0.131-1.052c-0.898-1.552-1.351-3.2-1.939-4.797c-0.173-0.469-0.272-0.963-0.326-1.441
					c-0.065-0.582,0.24-0.946,0.84-0.941c1.319,0.011,2.635,0.017,3.944,0.127c1.356,0.113,2.709,0.346,4.049,0.529
					C100.44,384.373,100.695,384.474,100.95,384.544z"/>
				<path fill="#CE9549" d="M84.972,394.957c-0.937,0.426-0.523,1.12-0.226,1.824c0.381,0.906,0.717,1.828,1.049,2.752
					c0.363,0.985,0.679,2.012,1.05,2.971c0.239,0.652,0.098,0.931-0.577,0.931c-1.277,0.014-2.514-0.05-3.784-0.219
					c-1.448-0.196-2.919-0.527-4.394-0.827c-0.246-0.05-0.495-0.171-0.862-0.302c0.765-0.384,0.31-1.073,0.143-1.618
					c-0.31-1.01-0.731-2.009-1.114-3.006c-0.358-0.922-0.697-1.892-1.003-2.834c-0.231-0.735,0.062-1.195,0.777-1.129
					c1.333,0.112,2.624,0.29,3.986,0.464c1.351,0.184,2.703,0.468,4.043,0.71C84.318,394.721,84.577,394.833,84.972,394.957z"/>
				<path fill="#CE9549" d="M95.108,398.056c-0.315,0.041-0.587,0.108-0.872,0.106c-2.471-0.012-4.98-0.185-7.453-0.762
					c-0.561-0.124-0.862-0.39-1.031-0.943c-0.43-1.407-1.092-2.743-1.816-4.064c-0.388-0.707-0.655-1.47-0.861-2.213
					c-0.057-0.204,0.24-0.513,0.469-0.639c0.218-0.12,0.555-0.098,0.847-0.082c2.625,0.143,5.225,0.383,7.812,0.956
					c0.236,0.052,0.469,0.146,0.845,0.265c-0.223,0.088-0.318,0.164-0.425,0.161c-0.531-0.016-0.623,0.263-0.44,0.733
					c0.247,0.637,0.43,1.309,0.777,1.907C93.829,394.969,94.507,396.44,95.108,398.056z"/>
			</g>
		</g>
		<g>
			<g>
				<g>
					<path fill="#C1C1C1" d="M279.799,458.198c-2.379,2.129-5.069,4.116-7.932,5.916l-2.584,1.491
						c-1.393,0.786-3.008,1.151-4.612,1.492c-1.251,0.26-2.534,0.477-3.81,0.557c-1.397,0.051-2.734-0.253-3.984-0.681
						c-1.702-0.582-3.175-1.403-4.398-2.467c-0.642-0.559-0.695-0.674,0.004-1.27c1.518-1.295,3.036-2.574,4.581-3.808
						c0.524-0.418,0.761-0.792,0.705-1.389c-0.831-9.066-0.392-4.278-1.223-13.344c-0.059-0.653-0.118-1.313-0.073-1.965
						c0.057-0.832,0.511-1.585,1.068-2.22c1.44-1.634,3.126-3.184,4.928-4.517c0.057-0.043,0.151-0.047,0.363-0.108
						c-0.2,0.445-0.346,0.818-0.536,1.174c-0.218,0.408-0.293,0.812-0.241,1.26c1.039,9.297,0.533,4.768,1.572,14.065
						c0.064,0.554,0.101,1.114,0.212,1.66c0.078,0.386-0.024,0.692-0.354,0.986c-1.369,1.195-2.742,2.481-4.157,3.614
						c-0.297,0.227-0.597,0.456-0.984,0.752c0.33,0.31,0.585,0.627,0.931,0.858c1.432,0.989,2.96,1.691,4.796,2.102
						c1.928,0.413,3.886,0.247,5.826-0.147c1.26-0.249,2.554-0.53,3.679-1.092c1.362-0.649,2.632-1.459,3.816-2.301
						C278.951,457.706,280.341,457.709,279.799,458.198z"/>
					<path fill="#C1C1C1" d="M270.21,458.571c-0.026-0.041-0.057-0.073-0.049-0.081c0.697-0.721,0.451-1.498,0.336-2.268
						c-0.837-5.615-0.928-6.225-1.766-11.84c-0.104-0.701-0.24-1.401-0.284-2.106c-0.062-0.999,0.325-1.913,0.941-2.762
						c1.261-1.705,2.809-3.186,4.432-4.572c0.112-0.095,0.262-0.154,0.551-0.319c-0.173,0.536-0.266,0.927-0.431,1.297
						c-0.268,0.601-0.256,1.2-0.148,1.803c1.151,6.385,1.404,7.79,2.556,14.175c0.093,0.511,0.004,0.95-0.344,1.393
						c-1.53,1.917-3.402,3.73-5.564,5.198C270.379,458.531,270.287,458.545,270.21,458.571z"/>
				</g>
				<g>
					<path fill="#C1C1C1" d="M341.393,420.819c-0.278,0.548-0.024,0.806,0.384,1.04l3.957,2.306l0.745,0.45
						c0.287,0.164,0.367,0.389,0.24,0.732c-0.77,2.074-1.8,4.1-3.091,6.075c-0.061,0.097-0.162,0.174-0.299,0.305
						c-1.801-1.124-3.58-2.234-5.361-3.346c-0.392-0.247-0.34-0.606-0.233-0.973c0.108-0.366,0.251-0.736,0.44-1.082
						c0.898-1.594,1.758-3.239,2.583-4.912c0.109-0.216,0.292-0.409,0.44-0.613L341.393,420.819z"/>
					<path fill="#C1C1C1" d="M334.435,422.572c-0.01,0.158-0.121,0.266-0.177,0.39l-2.533,5.507
						c-0.73,1.601-1.147,3.174-1.484,4.772c-0.191,0.906,0.229,1.617,0.828,2.206c0.382,0.376,0.926,0.625,1.403,0.928
						c2.375,1.531,4.712,2.901,7.148,4.296c1.003,0.569,2.095,1.04,3.093,1.623c0.626,0.366,1.438,0.6,1.637,1.457
						c0.199-0.19,0.307-0.27,0.378-0.366c1.463-1.991,2.695-3.948,3.561-6.141c0.178-0.432,0.075-0.753-0.251-0.983
						c-0.234-0.166-0.477-0.327-0.741-0.456c-0.846-0.417-1.695-0.78-2.538-1.232c-1.129-0.598-2.231-1.224-3.333-1.845
						l-2.169-1.235l-4.133-2.54c-0.671-0.417-1.074-1.038-1.019-1.784c0.12-1.62,0.555-3.223,1.335-4.763
						c0.199-0.391,0.502-0.667,0.934-0.871c0.756-0.355,1.493-0.748,2.209-1.179c0.553-0.318,1.022-0.71,1.34-1.248
						c1.08-1.827,1.981-3.685,2.605-5.601c0.042-0.127,0.015-0.267,0.019-0.384c-0.502,0.288-0.947,0.563-1.409,0.806
						c-1.322,0.65-4.138,2.454-7.075,3.98c-2.93,1.537-5.831,3.073-7.051,3.666c-0.692,0.322-1.197,0.757-1.635,1.34
						c-1.503,1.979-2.65,5.275-2.65,5.275c2.002-0.818,3.901-1.723,5.83-2.635C330.443,424.555,332.352,423.531,334.435,422.572z"/>
				</g>
				<g>
					<path fill="#C1C1C1" d="M369.531,382.59l0.035,0.824c0,0.869,0.306,1.584,0.815,2.261c2.696,3.594,5.88,6.771,8.805,10.168
						c2.198,2.558,4.463,5.059,6.708,7.577c0.353,0.396,0.734,0.772,1.142,1.116c0.336,0.284,0.471,0.636,0.429,1.115
						c-0.242,2.772-1.054,5.57-2.214,8.389c-0.078,0.189-0.215,0.401-0.376,0.54l-5.506,4.302c-1.834,1.436-3.664,2.876-5.588,4.19
						c-0.827,0.587-1.66,1.185-2.412,1.855c-0.766,0.682-1.437,1.46-2.174,2.219c-0.002-0.023-0.04-0.111-0.015-0.196
						c0.707-2.381,1.647-4.7,2.901-6.948c0.405-0.731,0.951-1.374,1.623-1.941c0.862-0.77,1.715-1.553,2.615-2.275l5.912-4.673
						c0.263-0.228,0.526-0.455,0.871-0.753c-0.24-0.315-0.426-0.578-0.632-0.824c-4.307-5.16-8.584-10.347-12.949-15.457
						c-1.483-1.737-2.1-3.705-1.586-6.092c0.349-1.621,0.779-3.22,1.164-4.807c0.049-0.202,0.164-0.394,0.248-0.59L369.531,382.59z"
						/>
					<path fill="#C1C1C1" d="M393.086,407.891c-0.318-0.352-0.517-0.572-0.716-0.792l-13.117-14.484
						c-0.593-0.653-1.256-1.246-1.887-1.866c-0.225-0.22-0.354-0.463-0.306-0.827c0.22-1.936,0.593-3.873,1.134-5.763
						c0.043-0.15,0.534-1.446,0.634-1.648c0.013,1.052,0.935,1.738,1.452,2.273l14.382,14.967c0.326,0.339,0.425,0.705,0.344,1.235
						c-0.295,1.933-0.812,3.877-1.465,5.836C393.446,407.106,393.318,407.393,393.086,407.891z"/>
					<path fill="#C1C1C1" d="M363.475,389.442c0.079,0.679,0.12,1.265,0.217,1.839c0.046,0.271,0.159,0.543,0.314,0.765
						c0.406,0.58,0.838,1.144,1.284,1.695l10.99,13.522c0.51,0.619,0.715,1.33,0.579,2.109c-0.393,2.254-1.21,4.507-2.293,6.742
						c-0.036,0.074-0.121,0.136-0.231,0.255c-0.06-0.103-0.155-0.176-0.146-0.261c0.083-0.754-0.284-1.258-0.675-1.769l-10.76-14.09
						c-0.367-0.482-0.738-0.974-1.008-1.518c-0.371-0.748-0.407-1.627-0.29-2.478c0.304-2.207,0.951-4.344,1.775-6.42
						C363.276,389.72,363.363,389.62,363.475,389.442z"/>
				</g>
				<path fill="#C1C1C1" d="M287.457,457.381c-0.054-0.349-0.079-0.621-0.139-0.885c-1.739-7.722-1.255-5.573-2.994-13.294
					c-0.178-0.791-0.361-1.583-0.482-2.386c-0.153-1.009,0.097-2.035,0.651-2.924c1.222-1.986,2.849-3.634,4.541-5.319
					c0.069-0.07,0.169-0.115,0.366-0.246c-0.146,0.412-0.249,0.703-0.351,0.992c-0.346,1.038-0.279,2.02-0.019,3.031
					c2.417,9.539,2.349,9.271,4.766,18.81c0.115,0.452,0.051,0.822-0.28,1.24c-1.291,1.627-2.808,3.142-4.471,4.592
					c-0.493,0.43-1.016,0.705-1.77,0.824c-1.355,0.198-2.682,0.623-4.039,0.861l-6.102,1.096c-1.339,0.246-2.756,0.296-3.801,1.31
					l-0.118-0.125c0.074-0.123,0.128-0.256,0.226-0.366c1.524-1.698,3.255-3.231,5.102-4.665c0.863-0.669,1.825-1.102,2.998-1.278
					c1.662-0.212,3.279-0.673,4.913-1.037C286.76,457.542,287.067,457.471,287.457,457.381z"/>
				<g>
					<path fill="#C1C1C1" d="M304.279,427.478c0,0.468-0.064,0.899,0.014,1.298c0.081,0.418,0.193,0.96,0.334,1.367
						c2.203,6.35,2.334,6.725,4.537,13.075c0.209,0.599,0.047,1.165-0.23,1.746c-0.2,0.42-0.434,0.833-0.705,1.344
						c0.953-0.12,1.71-0.497,2.496-0.742l2.417-0.814c0.805-0.252,1.574-0.598,2.604-0.99c-0.384,0.693-0.619,1.225-0.965,1.71
						c-0.928,1.293-1.956,2.473-2.955,3.721c-0.427,0.526-0.992,0.853-1.7,1.088l-5.432,1.818l-5.507,1.577
						c-0.937,0.269-1.921,0.416-2.737,1.016l-0.135-0.104c0.361-0.508,0.672-1.04,1.086-1.516c1.071-1.203,2.15-2.415,3.225-3.622
						c0.566-0.644,1.278-1.068,2.196-1.244c0.328-0.063,0.649-0.174,1.037-0.312c-0.088-0.357-0.14-0.627-0.222-0.887
						c-1.716-5.469-1.539-4.904-3.254-10.374c-0.16-0.506-1.011-2.632-0.394-3.45c1.06-1.94,2.397-3.712,3.881-5.371
						C303.932,427.741,304.163,427.546,304.279,427.478z"/>
					<path fill="#C1C1C1" d="M289.788,462.233c0.497-0.619,0.835-1.136,1.281-1.589c1.281-1.283,2.566-2.57,3.856-3.862
						c0.91-0.944,2.072-1.537,3.432-1.918c6.54-1.734,12.949-3.926,19.29-6.273c0.465-0.183,0.929-0.366,1.589-0.626
						c-0.361,0.633-0.596,1.144-0.936,1.611c-0.949,1.307-1.953,2.61-2.985,3.83c-0.518,0.629-1.221,1.018-2.066,1.302
						c-6.408,2.263-12.947,4.128-19.523,5.826c-1.298,0.299-2.556,0.605-3.474,1.528
						C290.201,462.115,290.085,462.127,289.788,462.233z"/>
				</g>
				<g>
					<path fill="#C1C1C1" d="M337.178,433.733c-0.601,1.151-1.181,2.316-1.842,3.464c-0.479,0.858-1.064,1.642-1.664,2.421
						c-0.206,0.268-0.521,0.524-0.841,0.697c-4.547,2.402-6.316,3.276-11.129,5.112c-0.149,0.059-0.296,0.125-0.448,0.173
						c-0.909,0.287-1.474,0.097-1.774-0.646L317.523,440l-3.593-8.713c-1.031-2.424-1.204-3.303-1.037-3.65
						c0.925-1.925,2.118-3.69,3.433-5.392c0.063-0.087,0.449-0.425,0.553-0.523c0.381,2.196,2.6,6.998,3.997,10.121l3.028,6.72
						c0.378,0.834,0.851,0.971,1.892,0.504c3.29-1.491,3.728-1.69,7.017-3.181c0.892-0.385,1.683-0.976,2.536-1.44
						c0.533-0.302,1.09-0.563,1.636-0.843L337.178,433.733z"/>
					<path fill="#C1C1C1" d="M338.527,439.7c-0.366,0.729-0.693,1.473-1.119,2.189c-0.728,1.254-1.58,2.381-2.393,3.58
						c-0.319,0.46-0.766,0.781-1.335,1.037c-2.865,1.266-4.946,2.283-7.094,3.144c-2.155,0.842-4.311,1.683-7.228,2.823
						c-0.996,0.375-1.81,0.856-2.512,1.541c-0.099,0.096-0.247,0.161-0.484,0.174c0.343-0.529,0.635-1.076,1.02-1.611
						c0.977-1.292,1.96-2.59,2.942-3.889c0.216-0.284,0.469-0.559,0.745-0.807c0.847-0.762,1.571-1.3,2.918-1.802
						c0.231-0.088,0.479-0.182,0.72-0.274c2.659-1.067,4.505-1.994,6.394-2.819c1.864-0.88,3.79-1.632,6.333-2.952l0.917-0.469
						L338.527,439.7z"/>
				</g>
				<path fill="#C1C1C1" d="M342.203,418.367c0.219-0.63,0.352-1.182,0.596-1.701c0.704-1.475,1.412-2.956,2.12-4.438
					c0.343-0.765,0.907-1.332,1.664-1.814c3.112-2.011,5.058-3.151,6.893-4.457c1.832-1.308,3.665-2.617,6.682-4.771
					c1.325-0.975,2.895-2.179,3.806-3.62c0.054,0.019-0.016,0.364,0.038,0.383c-0.094,0.542-0.138,1.094-0.298,1.63
					c-0.436,1.433-0.883,2.911-1.424,4.321c-0.365,0.934-1.006,1.71-1.86,2.342l-0.238,0.169c-0.831,0.564,0.355,1.934,0.456,2.076
					l8.736,12.184c0.226,0.312,0.341,0.624,0.25,1.02c-0.631,2.644-1.656,5.357-3.163,7.877c-0.042,0.07-0.134,0.125-0.311,0.286
					c0.044-0.291,0.028-0.497,0.111-0.687c0.261-0.605,0.095-1.045-0.206-1.49l-8.284-12.313c-0.271-0.401-0.783-0.915-0.675-1.894
					c0.076-0.484,0.674-2.342,1.134-3.721c0.265-0.794,0.654-1.7,0.992-2.633c-0.282,0.153-0.508,0.337-0.637,0.429
					c-1.316,0.924-2.612,1.88-3.942,2.783l-4.069,2.594c-0.459,0.291-0.648,0.609-0.684,1.088c-0.067,0.891,0.214,1.657,0.637,2.34
					l7.434,11.866c0.014,0.021,0.021,0.05,0.042,0.063c0.511,0.705,0.505,1.359,0.223,2.188c-0.664,2.023-1.66,3.934-2.842,5.787
					c-0.129,0.206-0.283,0.406-0.435,0.604c-0.029,0.038-0.104,0.054-0.26,0.129c0.406-0.841-0.087-1.328-0.408-1.876
					c-2.297-3.917-4.559-7.855-6.922-11.733c-0.819-1.346-0.83-2.784-0.282-4.3c0.53-1.402,1.18-2.865,1.753-4.301
					c0.104-0.245,0.208-0.492,0.385-0.91c-0.401,0.227-0.628,0.341-0.841,0.478c-2.375,1.54-2.285,1.417-4.721,2.856
					C343.162,417.489,342.755,417.917,342.203,418.367z"/>
			</g>
			<g>
				<path fill="#CE9549" d="M247.325,437.336c-0.423,0.972-0.492,1.071,0.702,1.709c1.547,0.776,3.276,1.309,4.952,1.945
					c0.29,0.11,0.599,0.192,0.875,0.324c0.457,0.219,0.651,0.852,0.314,1.229c-0.809,0.903-1.633,1.81-2.549,2.65
					c-0.987,0.905-2.075,1.742-3.151,2.596c-0.288,0.235-0.633,0.38-1.009,0.601c0.026-0.318,0.153-0.599,0.037-0.752
					c-0.2-0.265-0.508-0.562-0.84-0.65c-1.735-0.46-3.226-1.303-4.776-2.014c-0.455-0.209-0.876-0.488-1.254-0.787
					c-0.46-0.365-0.505-0.838-0.079-1.259c0.935-0.926,1.866-1.853,2.866-2.703c1.035-0.88,2.153-1.673,3.226-2.493
					C246.844,437.576,247.096,437.467,247.325,437.336z"/>
				<path fill="#CE9549" d="M243.489,456c-0.356,0.965,0.428,1.161,1.138,1.448c0.912,0.37,1.803,0.783,2.693,1.2
					c0.956,0.459,1.906,0.911,2.848,1.327c0.631,0.289,0.731,0.586,0.256,1.065c-0.889,0.91-1.802,1.792-2.816,2.552
					c-1.158,0.887-2.427,1.695-3.677,2.528c-0.208,0.139-0.469,0.23-0.821,0.397c0.265-0.813-0.545-0.977-1.05-1.244
					c-0.935-0.493-1.942-0.9-2.919-1.333c-0.907-0.406-1.835-0.753-2.719-1.234c-0.685-0.357-0.805-0.89-0.256-1.348
					c1.017-0.827,2.05-1.723,3.131-2.552c1.08-0.827,2.233-1.584,3.347-2.362C242.861,456.296,243.122,456.192,243.489,456z"/>
				<path fill="#CE9549" d="M252.82,450.975c-0.193,0.252-0.336,0.493-0.538,0.694c-1.748,1.725-3.633,3.437-5.783,4.773
					c-0.482,0.31-0.883,0.335-1.395,0.065c-1.303-0.689-2.718-1.164-4.166-1.583c-0.775-0.225-1.506-0.574-2.179-0.953
					c-0.185-0.104-0.196-0.532-0.125-0.783c0.068-0.239,0.321-0.462,0.537-0.658c1.947-1.758,3.947-3.429,6.174-4.856
					c0.203-0.13,0.434-0.229,0.783-0.411c-0.094,0.22-0.107,0.341-0.184,0.414c-0.385,0.364-0.251,0.627,0.212,0.829
					c0.627,0.275,1.233,0.62,1.902,0.796C249.724,449.687,251.248,450.275,252.82,450.975z"/>
			</g>
		</g>
		<g>
			<g>
				<g>
					<path fill="#C1C1C1" d="M427.013,359.501c-0.019,3.256-0.564,6.494-1.28,9.786l-0.672,2.928
						c-0.376,1.566-1.188,3.015-2.11,4.364c-0.7,1.066-1.473,2.11-2.304,3.082c-0.908,1.062-2.031,1.833-3.185,2.454
						c-1.548,0.864-3.215,1.312-4.843,1.444c-0.858,0.067-0.978,0.024-0.911-0.883c0.163-1.956,0.3-3.931,0.433-5.941
						c0.052-0.676-0.058-1.11-0.527-1.484c-7.108-5.689-3.354-2.684-10.461-8.374c-0.511-0.41-1.027-0.826-1.468-1.312
						c-0.562-0.62-0.8-1.478-0.884-2.329c-0.215-2.199-0.07-4.419,0.247-6.621c0.01-0.07,0.077-0.138,0.173-0.337
						c0.191,0.459,0.346,0.814,0.468,1.196c0.137,0.436,0.373,0.768,0.732,1.041c7.417,5.699,3.803,2.922,11.22,8.621
						c0.444,0.338,0.872,0.699,1.343,0.999c0.333,0.212,0.48,0.495,0.455,0.932l-0.336,5.459c-0.037,0.376-0.074,0.756-0.122,1.246
						c0.446-0.027,0.847,0.005,1.249-0.088c1.656-0.386,3.297-0.94,4.887-1.962c1.702-1.05,2.866-2.631,3.904-4.318
						c0.668-1.099,1.338-2.244,1.76-3.412c0.493-1.42,0.871-2.841,1.046-4.304C426.082,359.778,427.026,358.765,427.013,359.501z"/>
					<path fill="#C1C1C1" d="M420.605,366.645c-0.047-0.01-0.091-0.009-0.092-0.02c-0.049-1.012-0.778-1.372-1.411-1.823
						c-4.625-3.291-5.128-3.65-9.754-6.941c-0.577-0.411-1.175-0.799-1.714-1.257c-0.76-0.646-1.179-1.58-1.334-2.593
						c-0.337-2.08-0.214-4.145-0.155-6.321c0.007-0.148,0.066-0.299,0.142-0.625c0.27,0.5,0.491,0.84,0.647,1.218
						c0.254,0.614,0.695,1.023,1.204,1.363c5.397,3.6,6.585,4.393,11.982,7.993c0.433,0.287,0.69,0.658,0.774,1.22
						c0.337,2.443,0.202,4.949-0.191,7.561C420.69,366.493,420.637,366.571,420.605,366.645z"/>
				</g>
				<g>
					<path fill="#C1C1C1" d="M442.905,289.233c0.186,0.577,0.551,0.573,1.01,0.444c1.469-0.417,2.932-0.833,4.397-1.25l0.834-0.226
						c0.314-0.094,0.532,0.005,0.696,0.336c1.026,2.01,1.684,4.136,2.151,6.421c0.022,0.11,0.007,0.236,0.011,0.427
						c-2.042,0.521-4.059,1.036-6.079,1.552c-0.446,0.112-0.673-0.176-0.866-0.509s-0.365-0.694-0.488-1.072l-1.705-5.259
						c-0.074-0.227-0.078-0.49-0.115-0.736L442.905,289.233z"/>
					<path fill="#C1C1C1" d="M439.3,295.449c0.108,0.118,0.111,0.273,0.163,0.399c0.778,1.869,1.533,3.757,2.186,5.639
						c0.583,1.616,1.453,3.018,2.387,4.377c0.529,0.769,1.33,0.96,2.166,0.937c0.533-0.014,1.084-0.236,1.629-0.37
						c2.696-0.665,5.409-1.362,8.132-2.138c1.14-0.316,2.195-0.788,3.307-1.103c0.692-0.199,1.415-0.623,2.173-0.171
						c-0.003-0.276,0.012-0.41-0.008-0.529c-0.427-2.439-1.092-4.716-1.976-6.838c-0.177-0.426-0.478-0.573-0.875-0.5
						c-0.286,0.053-0.573,0.115-0.854,0.214l-2.68,0.964c-1.203,0.401-2.408,0.763-3.609,1.129l-2.373,0.711l-4.656,1.224
						c-0.759,0.196-1.485,0.055-1.99-0.505c-1.097-1.215-1.967-2.646-2.558-4.283c-0.15-0.416-0.144-0.828,0-1.283
						c0.251-0.795,0.462-1.604,0.691-2.407c0.175-0.613,0.236-1.218,0.087-1.816c-0.508-2.03-1.319-3.993-2.273-5.773
						c-0.064-0.119-0.185-0.197-0.267-0.281c-0.13,0.564-0.231,1.078-0.367,1.581c-0.207,0.706-0.433,1.889-0.817,3.267
						c-0.38,1.38-0.822,2.982-1.262,4.576c-0.435,1.597-0.868,3.186-1.236,4.541c-0.45,1.329-0.822,2.427-1.039,3.069
						c-0.261,0.718-0.27,1.393-0.15,2.115c0.417,2.468,2.031,5.595,2.031,5.595c0.766-2.021,1.4-4.027,2.048-6.061
						c0.33-1.015,0.663-2.037,1.001-3.078C438.633,297.607,438.962,296.543,439.3,295.449z"/>
				</g>
				<g>
					<path fill="#C1C1C1" d="M434.807,242.435l0.633,0.548c0.643,0.604,1.378,0.881,2.221,0.984
						c4.469,0.552,8.959,0.462,13.437,0.712c3.369,0.192,6.741,0.295,10.111,0.424c0.53,0.02,1.064,0.007,1.593-0.048
						c0.436-0.045,0.787,0.102,1.112,0.464c1.934,2.101,3.248,4.619,4.44,7.406c0.078,0.187,0.131,0.432,0.114,0.644
						c-0.207,2.319-0.317,4.647-0.618,6.957l-0.903,6.929c-0.131,1.006-0.256,2.024-0.275,3.033
						c-0.02,1.028,0.015,2.042,0.034,3.097c-0.018-0.015-0.107-0.048-0.149-0.125c-1.136-2.148-2.203-4.44-3.009-6.911
						c-0.258-0.801-0.37-1.644-0.315-2.522c0.072-1.152,0.127-2.306,0.26-3.452c0.326-2.492,0.423-5.005,0.648-7.506
						c0.026-0.347,0.053-0.694,0.087-1.148c-0.393-0.045-0.711-0.094-1.031-0.117c-6.705-0.476-13.406-0.993-20.116-1.393
						c-2.281-0.137-4.107-1.056-5.421-3.079c-0.896-1.384-1.802-2.783-2.704-4.176c-0.116-0.175-0.182-0.392-0.271-0.589
						L434.807,242.435z"/>
					<path fill="#C1C1C1" d="M469.356,243.023c-0.474-0.015-0.77-0.024-1.067-0.033l-19.531-0.602
						c-0.882-0.026-1.766,0.04-2.649,0.065c-0.314,0.009-0.58-0.066-0.817-0.354c-1.239-1.502-2.322-3.114-3.277-4.816
						c-0.075-0.135-0.642-1.388-0.713-1.601c0.752,0.721,1.889,0.533,2.633,0.532l20.757,0.031c0.47,0,0.799,0.183,1.116,0.609
						c1.158,1.552,2.168,3.272,3.091,5.1C469.033,242.22,469.139,242.511,469.356,243.023z"/>
					<path fill="#C1C1C1" d="M435.526,251.551c0.554,0.415,1.014,0.793,1.501,1.121c0.23,0.155,0.508,0.262,0.775,0.304
						c0.701,0.11,1.407,0.19,2.114,0.251l17.363,1.461c0.799,0.062,1.46,0.408,1.941,1.047c0.695,0.925,1.323,1.926,1.881,2.987
						c0.515,1.057,0.968,2.175,1.37,3.337c0.027,0.077,0.009,0.181,0.015,0.342c-0.116-0.028-0.235-0.01-0.288-0.076
						c-0.473-0.582-1.09-0.666-1.73-0.739l-17.613-2.021c-0.602-0.07-1.213-0.144-1.789-0.327c-0.792-0.251-1.436-0.833-1.951-1.506
						c-1.289-1.739-2.517-3.701-3.466-5.737C435.598,251.888,435.582,251.756,435.526,251.551z"/>
				</g>
				<path fill="#C1C1C1" d="M431.788,353.452c-0.289-0.204-0.503-0.374-0.734-0.514c-6.767-4.107-4.883-2.964-11.65-7.07
					c-0.694-0.421-1.39-0.839-2.053-1.309c-0.834-0.591-1.407-1.487-1.674-2.51c-0.591-2.265-0.738-4.632-0.733-6.996
					c0-0.097,0.04-0.199,0.089-0.427c0.188,0.387,0.321,0.66,0.453,0.932c0.488,0.96,1.239,1.591,2.15,2.107
					c8.546,4.881,8.305,4.744,16.851,9.624c0.405,0.231,0.629,0.535,0.706,1.067c0.3,2.073,0.366,4.232,0.285,6.451
					c-0.017,0.663-0.182,1.229-0.646,1.838c-0.817,1.101-1.506,2.303-2.25,3.462l-3.353,5.211c-0.781,1.115-1.758,2.148-1.777,3.586
					l-0.174-0.003c-0.035-0.137-0.093-0.267-0.101-0.413c-0.143-2.258,0.053-4.5,0.235-6.869c0.101-1.095,0.441-2.099,1.109-3.078
					c0.943-1.381,1.816-2.812,2.718-4.221C431.407,354.056,431.575,353.79,431.788,353.452z"/>
				<g>
					<path fill="#C1C1C1" d="M421.885,320.553c0.339,0.326,0.608,0.673,0.95,0.895c0.358,0.232,0.827,0.529,1.218,0.709
						c6.099,2.823,6.46,2.99,12.559,5.813c0.576,0.266,0.876,0.777,1.109,1.383c0.169,0.438,0.308,0.895,0.494,1.447
						c0.561-0.775,0.803-1.587,1.161-2.329l1.055-2.322c0.347-0.768,0.693-1.535,1.147-2.539c0.215,0.75,0.423,1.283,0.517,1.863
						c0.252,1.551,0.446,3.136,0.658,4.725c0.09,0.676-0.058,1.314-0.369,1.991c-1.595,3.469-3.445,6.815-5.144,10.234
						c-0.429,0.875-1.015,1.681-1.185,2.665l-0.171,0.024c-0.102-0.605-0.259-1.192-0.3-1.813c-0.141-1.616-0.283-3.243-0.424-4.864
						c-0.081-0.86,0.096-1.673,0.592-2.463c0.177-0.282,0.31-0.595,0.498-0.962c-0.318-0.184-0.547-0.333-0.79-0.455
						c-5.128-2.562-4.598-2.298-9.726-4.86c-0.475-0.235-2.602-1.102-2.737-2.102c-0.31-1.045-0.522-2.102-0.704-3.187
						c-0.204-1.096-0.346-2.206-0.444-3.324C421.84,320.988,421.856,320.684,421.885,320.553z"/>
					<path fill="#C1C1C1" d="M436.882,355.13c-0.111-0.793-0.255-1.398-0.279-2.038c-0.069-1.836-0.125-3.663-0.152-5.484
						c-0.025-1.297,0.407-2.516,1.087-3.753l4.637-9.023c1.443-3.057,2.801-6.157,4.202-9.234c0.201-0.457,0.42-0.906,0.692-1.561
						c0.209,0.701,0.388,1.213,0.479,1.779c0.242,1.572,0.431,3.178,0.635,4.787c0.103,0.814-0.094,1.594-0.464,2.406
						c-1.347,3.121-2.96,6.112-4.497,9.14c-0.784,1.506-1.528,3.034-2.35,4.519l-2.541,4.414c-0.666,1.153-1.299,2.282-1.255,3.593
						C437.077,354.747,437.007,354.84,436.882,355.13z"/>
				</g>
				<g>
					<path fill="#C1C1C1" d="M449.282,301.235c0.418,1.234,0.796,2.442,1.139,3.707c0.246,0.928,0.423,1.9,0.581,2.878
						c0.054,0.337,0.026,0.743-0.066,1.095c-1.25,5.005-2.162,6.767-4.03,11.566c-0.059,0.149-0.111,0.302-0.179,0.445
						c-0.411,0.859-0.933,1.137-1.675,0.836l-4.925-2.031l-8.762-3.464c-2.459-0.941-3.214-1.427-3.353-1.79
						c-0.764-2.011-1.247-4.111-1.572-6.245c-0.016-0.105,0.024-0.611,0.031-0.753c1.828,1.244,6.83,2.984,10.049,4.148l6.942,2.489
						c0.864,0.308,1.302,0.066,1.722-0.994c1.283-3.376,1.359-3.86,2.523-7.279c0.306-0.922,0.506-1.876,0.778-2.809l0.57-1.749
						L449.282,301.235z"/>
					<path fill="#C1C1C1" d="M454.489,304.4c0.252,0.763,0.542,1.509,0.741,2.307c0.345,1.378,0.633,2.796,0.934,4.216
						c0.117,0.551,0.045,1.099-0.157,1.69c-0.965,2.982-1.88,5.111-2.713,7.269c-0.872,2.143-1.649,4.326-2.931,7.184
						c-0.444,0.967-0.712,1.866-0.7,2.85c0.002,0.138-0.052,0.291-0.203,0.472c-0.151-0.618-0.352-1.212-0.446-1.85
						c-0.253-1.599-0.391-3.169-0.681-4.785c-0.059-0.355-0.086-0.73-0.078-1.102c0.024-1.144,0.128-2.045,0.681-3.371
						c0.094-0.229,0.194-0.474,0.291-0.712c2.17-5.306,2.849-7.738,4.711-13.157l0.329-0.976L454.489,304.4z"/>
				</g>
				<path fill="#C1C1C1" d="M441.691,286.946c-0.311-0.597-0.623-1.078-0.836-1.615c-0.591-1.535-1.184-3.075-1.777-4.618
					c-0.291-0.773-0.285-1.567-0.079-2.44c0.769-3.623,1.093-5.855,1.515-8.065c0.19-1.109,0.416-2.213,0.605-3.506
					c0.16-1.298,0.343-2.776,0.571-4.615c0.202-1.633,0.52-3.587,0.144-5.239c0.052-0.025,0.244,0.263,0.297,0.238
					c0.314,0.443,0.671,0.856,0.934,1.341c0.708,1.306,1.393,2.644,2.05,4.014c0.438,0.913,0.574,1.916,0.461,2.973l-0.037,0.289
					c-0.147,0.993,1.658,1.089,1.831,1.114l14.835,2.158c0.381,0.054,0.688,0.187,0.916,0.529c1.527,2.298,2.559,4.885,3.397,7.732
					c0.023,0.079,0.001,0.184-0.003,0.424c-0.183-0.234-0.343-0.366-0.427-0.558c-0.264-0.61-0.698-0.796-1.228-0.888l-14.615-2.576
					c-0.477-0.083-1.2-0.07-1.842-0.829c-0.295-0.391-1.169-2.102-1.811-3.385c-0.372-0.739-0.712-1.64-1.186-2.536
					c-0.078,0.31-0.096,0.602-0.116,0.759l-1.704,9.499c-0.103,0.534,0.017,0.895,0.322,1.25c0.579,0.663,1.32,0.991,2.105,1.16
					l13.703,2.88c0.025,0.005,0.05,0.02,0.074,0.014c0.864,0.122,1.321,0.578,1.704,1.352c0.922,1.866,1.613,3.913,2.179,6.063
					c0.062,0.237,0.103,0.487,0.144,0.735c0.008,0.047-0.032,0.113-0.083,0.278c-0.336-0.879-1.026-0.861-1.644-1.011
					c-4.414-1.065-8.82-2.169-13.251-3.159c-1.537-0.344-2.593-1.337-3.326-2.789c-0.689-1.365-1.223-2.834-1.828-4.236
					c-0.098-0.243-0.196-0.488-0.364-0.904c-0.129,0.443-0.211,0.684-0.268,0.931c-0.631,2.758-0.6,2.621-1.231,5.379
					C441.701,285.64,441.737,286.232,441.691,286.946z"/>
			</g>
			<g>
				<path fill="#CE9549" d="M389.424,368.386c0.421,0.991,0.433,1.1,1.713,0.675c1.66-0.552,3.275-1.401,4.926-2.142
					c0.291-0.124,0.553-0.298,0.836-0.409c0.466-0.185,1.054,0.113,1.098,0.623c0.123,1.236,0.16,2.421,0.12,3.656
					c-0.052,1.323-0.224,2.669-0.375,4.02c-0.041,0.362-0.157,0.728-0.253,1.156c-0.212-0.24-0.329-0.529-0.517-0.55
					c-0.326-0.036-0.747-0.015-1.034,0.169c-1.502,0.96-3.089,1.496-4.723,2.076c-0.473,0.176-0.972,0.28-1.455,0.339
					c-0.588,0.072-0.961-0.225-0.963-0.818c-0.004-1.303-0.01-2.6,0.084-3.897c0.061-1.376,0.239-2.753,0.369-4.116
					C389.275,368.909,389.365,368.647,389.424,368.386z"/>
				<path fill="#CE9549" d="M400.29,384.171c0.441,0.92,1.147,0.509,1.822,0.176c0.881-0.416,1.779-0.788,2.68-1.155
					c0.967-0.394,1.943-0.773,2.925-1.14c0.657-0.245,0.941-0.111,0.948,0.557c0.014,1.25,0.011,2.516-0.112,3.803
					c-0.144,1.468-0.409,2.974-0.665,4.463c-0.048,0.244-0.167,0.492-0.295,0.856c-0.398-0.751-1.089-0.292-1.638-0.12
					c-1.017,0.32-2.023,0.75-3.026,1.141c-0.932,0.363-1.854,0.763-2.782,1.098c-0.719,0.26-1.183-0.021-1.143-0.745
					c0.074-1.342,0.17-2.685,0.34-4.024c0.17-1.338,0.441-2.678,0.671-4.005C400.058,384.82,400.169,384.563,400.29,384.171z"/>
				<path fill="#CE9549" d="M403.129,373.947c0.044,0.31,0.116,0.578,0.116,0.86c0.005,2.434-0.145,4.915-0.597,7.459
					c-0.102,0.571-0.354,0.885-0.894,1.075c-1.353,0.503-2.726,1.148-4.047,1.887c-0.711,0.392-1.48,0.666-2.23,0.879
					c-0.206,0.058-0.522-0.23-0.652-0.455c-0.124-0.214-0.106-0.547-0.093-0.836c0.09-2.617,0.383-5.117,0.816-7.786
					c0.043-0.24,0.127-0.479,0.23-0.864c0.095,0.223,0.174,0.316,0.175,0.424c0.004,0.537,0.283,0.621,0.74,0.42
					c0.62-0.272,1.277-0.48,1.854-0.852C399.99,375.229,401.513,374.575,403.129,373.947z"/>
			</g>
		</g>
	</g>
	<g>
		<path fill="#DDDDDD" d="M405.849,87.585l-0.968-2.081l0.396-0.329l3.997,4.819c1.849,2.229,2.965,5.038,0.519,7.066
			c-1.995,1.655-4.938,1.183-7.115-1.444l-0.463-0.557l0.504-0.417c1.996,2.078,3.958,2.028,5.685,0.596
			c1.654-1.371,1.632-3.082,0.229-4.772c-0.417-0.503-0.889-0.962-1.289-1.298l-10.465,8.68l1.116,2.261l-0.396,0.328l-4.37-5.268
			l0.396-0.329l1.866,1.335L405.849,87.585z"/>
		<path fill="#DDDDDD" d="M408.475,101.255c3.707-2.652,8.119-2.59,11.083,1.554c3.046,4.257,1.508,8.174-2.274,10.879
			c-3.707,2.651-8.138,2.602-11.102-1.541C403.136,107.89,404.692,103.961,408.475,101.255z M415.937,111.807
			c4.012-2.869,4.824-5.95,2.784-8.801c-1.862-2.604-5.44-2.343-8.899,0.131c-4.011,2.869-4.843,5.963-2.804,8.814
			C408.881,114.556,412.478,114.282,415.937,111.807z"/>
		<path fill="#DDDDDD" d="M425.232,113.685l-0.656-2.199l0.439-0.267l3.281,5.384c1.8,2.952,2.189,5.477-0.284,6.985
			c-1.734,1.057-3.836,0.751-6.143-2.001c0.281,0.73,0.743,1.982-0.154,3.65l-2.216,4.085c-0.435,0.812-0.334,1.38,0.2,2.258
			l-0.438,0.268c-0.294-0.258-0.912-0.867-1.41-1.684c-0.534-0.878-0.551-1.58-0.053-2.512l2.836-5.175
			c0.482-0.869,0.55-1.566,0.003-2.464l-0.438-0.718l-5.325,3.246l0.692,2.258l-0.438,0.268l-3.477-5.704l0.438-0.268l1.653,1.592
			L425.232,113.685z M420.898,118.87l0.899,1.476c1.155,1.895,3.209,2.393,5.104,1.238c1.655-1.008,1.893-2.685,0.713-4.619
			c-0.34-0.56-0.784-1.109-1.132-1.498L420.898,118.87z"/>
		<path fill="#DDDDDD" d="M436.048,132.143l-12.147,6.312l0.581,2.383l-0.456,0.237l-3.198-6.156l0.455-0.237l1.617,1.845
			l12.146-6.312l-1.799-3.461l-3.336,0.47l-0.28-0.539l3.586-1.864l6.193,11.919l-3.586,1.864l-0.279-0.539l2.302-2.459
			L436.048,132.143z"/>
		<path fill="#DDDDDD" d="M434.476,150.332l-2.153-4.9l-4.856,0.272l0.408,2.322l-0.45,0.197l-2.161-4.918l0.449-0.198l1.314,1.541
			l15.986-0.671l0.272,0.622l-11.414,11.191l0.319,2.003L431.719,158l-2.65-6.032l0.471-0.207l1.481,1.979L434.476,150.332z
			 M433.245,145.384l1.89,4.299l4.75-4.639L433.245,145.384z"/>
		<path fill="#DDDDDD" d="M434.928,165.544l-0.484,0.172l-2.303-6.443l0.484-0.173l1.296,1.893l12.668-4.526l-0.196-2.286
			l0.484-0.173l3.881,10.865l-3.739,1.334l-0.204-0.571l2.541-2.123l-1.815-5.08l-5.807,2.074l1.029,2.881l2.453-0.008l0.173,0.484
			l-5.146,1.838l-0.173-0.482l1.902-1.548l-1.03-2.881l-6.289,2.247L434.928,165.544z"/>
		<path fill="#DDDDDD" d="M444.084,169.302c4.385-1.233,8.512,0.323,9.893,5.226c1.417,5.039-1.358,8.198-5.834,9.457
			c-4.386,1.235-8.534-0.316-9.915-5.219C436.81,173.728,439.608,170.562,444.084,169.302z M447.516,181.759
			c4.746-1.336,6.557-3.957,5.607-7.331c-0.867-3.081-4.319-4.05-8.412-2.899c-4.745,1.336-6.579,3.962-5.63,7.336
			C439.948,181.946,443.423,182.911,447.516,181.759z"/>
		<path fill="#DDDDDD" d="M442.638,191.552l1.116,5.374l4.054,0.685l0.109,0.525l-4.64,0.749l-2.379-11.456l0.503-0.104l1.023,2.053
			l13.17-2.736l0.12-2.291l0.504-0.104l1.378,6.631l-0.504,0.104l-1.056-2.214L442.638,191.552z"/>
		<path fill="#DDDDDD" d="M445.31,204.912l-0.237,2.282l-0.508,0.078l-1.013-6.53l0.508-0.08l0.917,2.103l13.294-2.063l0.237-2.282
			l0.507-0.079l1.013,6.531l-0.508,0.08l-0.916-2.103L445.31,204.912z"/>
		<path fill="#DDDDDD" d="M452.701,207.9c4.533-0.443,8.321,1.815,8.817,6.884c0.509,5.208-2.778,7.829-7.406,8.282
			c-4.533,0.443-8.345-1.813-8.841-6.882C444.763,210.977,448.074,208.353,452.701,207.9z M453.888,220.764
			c4.906-0.479,7.149-2.74,6.809-6.228c-0.312-3.186-3.539-4.749-7.77-4.335c-4.907,0.48-7.174,2.744-6.833,6.231
			C446.405,219.618,449.656,221.178,453.888,220.764z"/>
	</g>
</g>
</svg>
