<?xml version="1.0" encoding="utf-8"?>
<!-- Generator: Adobe Illustrator 17.0.0, SVG Export Plug-In . SVG Version: 6.00 Build 0)  -->
<!DOCTYPE svg PUBLIC "-//W3C//DTD SVG 1.1//EN" "http://www.w3.org/Graphics/SVG/1.1/DTD/svg11.dtd">
<svg version="1.1" id="Capa_1" xmlns="http://www.w3.org/2000/svg" xmlns:xlink="http://www.w3.org/1999/xlink" x="0px" y="0px"
	 width="476px" height="474px" viewBox="0 0 476 474" enable-background="new 0 0 476 474" xml:space="preserve">
<g>
	<g>
		<g>
			<g>
				<g>
					<path fill="#C1C1C1" d="M115.761,44.509c1.423-2.859,3.131-5.79,5.185-8.421l1.833-2.368c0.998-1.255,2.345-2.225,3.712-3.126
						c1.08-0.678,2.216-1.306,3.376-1.845c1.267-0.588,2.61-0.823,3.92-0.909c1.772-0.139,3.468,0.129,5.006,0.682
						c0.808,0.293,0.9,0.381,0.465,1.18c-0.946,1.737-1.894,3.48-2.848,5.234c-0.327,0.593-0.407,1.032-0.135,1.566
						c4.122,8.117,1.945,3.83,6.067,11.947c0.296,0.584,0.594,1.176,0.795,1.801c0.256,0.797,0.118,1.675-0.159,2.482
						c-0.705,2.106-1.792,3.998-2.945,5.955c-0.037,0.062-0.122,0.101-0.295,0.24c0.02-0.491,0.016-0.894,0.06-1.297
						c0.05-0.463-0.03-0.867-0.245-1.264c-4.401-8.257-2.257-4.234-6.658-12.49c-0.265-0.492-0.506-0.998-0.81-1.464
						c-0.214-0.328-0.236-0.657-0.036-1.048l2.567-4.82c0.189-0.326,0.38-0.656,0.627-1.082c-0.419-0.161-0.77-0.357-1.175-0.438
						c-1.67-0.336-3.395-0.514-5.267-0.245c-1.947,0.321-3.684,1.238-5.333,2.335c-1.068,0.715-2.158,1.471-3.029,2.351
						c-1.037,1.088-1.898,2.341-2.684,3.564C116.727,44.647,115.442,45.169,115.761,44.509z"/>
					<path fill="#C1C1C1" d="M124.528,40.618c0.039,0.029,0.079,0.046,0.076,0.057c-0.377,0.936,0.138,1.565,0.529,2.239
						c2.852,4.908,3.162,5.442,6.014,10.35c0.356,0.613,0.74,1.213,1.042,1.853c0.425,0.901,0.418,1.921,0.137,2.901
						c-0.59,1.971-1.433,4.002-2.432,5.885c-0.068,0.131-0.186,0.243-0.391,0.505c-0.038-0.564-0.097-0.964-0.081-1.37
						c0.025-0.661-0.207-1.214-0.531-1.734c-3.427-5.508-4.182-6.721-7.609-12.229c-0.275-0.441-0.356-0.883-0.198-1.425
						c0.346-1.192,0.794-2.367,1.33-3.53c0.546-1.146,1.208-2.236,1.93-3.334C124.388,40.719,124.468,40.672,124.528,40.618z"/>
				</g>
				<g>
					<path fill="#C1C1C1" d="M72.274,101.939c0.065-0.606-0.268-0.753-0.738-0.823c-1.525-0.239-3.044-0.477-4.565-0.715
						l-0.865-0.15c-0.33-0.049-0.487-0.228-0.49-0.59c-0.022-2.189,0.218-4.429,0.723-6.715c0.024-0.11,0.089-0.22,0.163-0.397
						c2.067,0.362,4.107,0.72,6.151,1.078c0.45,0.081,0.54,0.438,0.58,0.824c0.041,0.385,0.05,0.786,0.008,1.185l-0.583,5.526
						c-0.025,0.238-0.128,0.481-0.194,0.723L72.274,101.939z"/>
					<path fill="#C1C1C1" d="M78.067,97.72c-0.051-0.152,0.01-0.297,0.014-0.433c0.072-2.016,0.246-3.976,0.385-5.999
						c0.129-1.721-0.091-3.363-0.386-4.991c-0.166-0.922-0.818-1.427-1.586-1.749c-0.49-0.206-1.081-0.231-1.63-0.332
						c-2.721-0.501-5.47-0.979-8.263-1.389c-1.153-0.17-2.354-0.216-3.508-0.399c-0.727-0.119-1.569-0.037-2.068-0.759
						c-0.109,0.255-0.177,0.371-0.207,0.488c-0.602,2.412-0.923,4.774-0.981,7.082c-0.011,0.464,0.202,0.723,0.592,0.818
						c0.281,0.07,0.567,0.13,0.863,0.155l2.827,0.219c1.255,0.128,2.497,0.292,3.736,0.449l2.443,0.324
						c1.576,0.236,3.17,0.534,4.777,0.838c0.785,0.147,1.39,0.577,1.606,1.285c0.457,1.524,0.644,3.176,0.531,4.932
						c-0.033,0.443-0.205,0.819-0.52,1.176c-0.551,0.626-1.07,1.281-1.603,1.924c-0.408,0.491-0.709,1.02-0.815,1.63
						c-0.358,2.075-0.565,4.089-0.368,6.154c0.011,0.136,0.088,0.257,0.129,0.368c0.346-0.465,0.644-0.895,0.97-1.301
						c0.962-1.114,3.085-3.686,5.163-6.262c2.021-2.625,4.329-4.966,5.236-5.972c0.53-0.551,0.813-1.165,0.997-1.876
						c0.316-1.22,0.419-2.705,0.45-3.891c0.043-1.174,0.029-2.026,0.029-2.026c-1.61,1.447-2.938,3.09-4.375,4.666
						C81.11,94.463,79.612,96.029,78.067,97.72z"/>
				</g>
				<g>
					<path fill="#C1C1C1" d="M60.24,147.847l-0.335-0.752c-0.32-0.807-0.867-1.358-1.59-1.799
						c-3.832-2.343-7.965-4.119-11.939-6.195c-2.988-1.565-6.017-3.052-9.033-4.562c-0.475-0.238-0.967-0.446-1.473-0.616
						c-0.418-0.14-0.673-0.417-0.809-0.877c-0.793-2.662-1.066-5.559-1.024-8.603c0.003-0.204,0.052-0.452,0.151-0.639
						c2.255-4.073,4.728-8.029,7.112-12.029c0.563-0.845,1.126-1.702,1.588-2.596c0.471-0.91,0.817-1.875,1.233-2.845
						c0.011,0.021,0.078,0.087,0.085,0.176c0.205,2.464,0.156,4.947-0.19,7.492c-0.084,0.842-0.32,1.664-0.72,2.449
						c-0.525,1.03-1.036,2.067-1.613,3.066c-1.226,2.192-2.622,4.291-3.759,6.532c-0.162,0.308-0.323,0.617-0.534,1.019
						c0.339,0.204,0.609,0.38,0.892,0.533c5.91,3.203,11.8,6.443,17.744,9.577c2.02,1.066,3.318,2.666,3.717,5.071
						c0.27,1.633,0.457,3.275,0.682,4.89c0.029,0.206-0.007,0.426-0.014,0.639L60.24,147.847z"/>
					<path fill="#C1C1C1" d="M29.003,133.04c0.425,0.209,0.692,0.34,0.958,0.471l17.541,8.611c0.793,0.387,1.627,0.693,2.443,1.037
						c0.29,0.122,0.5,0.299,0.589,0.655c0.525,1.887,0.889,3.823,1.09,5.783c0.015,0.155,0.041,1.543,0.023,1.768
						c-0.402-0.974-1.511-1.27-2.189-1.577l-18.893-8.599c-0.428-0.194-0.655-0.498-0.777-1.02
						c-0.443-1.905-0.685-3.904-0.805-5.966C28.971,133.908,28.968,133.587,29.003,133.04z"/>
					<path fill="#C1C1C1" d="M63.345,139.246c-0.338-0.609-0.626-1.131-0.911-1.645c-0.142-0.234-0.348-0.445-0.572-0.593
						c-0.592-0.389-1.201-0.753-1.819-1.101l-15.209-8.503c-0.703-0.386-1.153-0.97-1.311-1.742
						c-0.456-2.233-0.515-4.62-0.319-7.088c0.007-0.082,0.064-0.171,0.122-0.321c0.094,0.073,0.209,0.106,0.232,0.189
						c0.198,0.73,0.725,1.062,1.277,1.392l15.204,9.118c0.519,0.312,1.046,0.633,1.496,1.037c0.619,0.557,0.974,1.359,1.176,2.19
						c0.528,2.16,0.681,4.363,0.698,6.604C63.412,138.906,63.375,139.034,63.345,139.246z"/>
				</g>
				<path fill="#C1C1C1" d="M108.925,48.058c0.179,0.304,0.303,0.549,0.456,0.772c4.465,6.535,3.222,4.717,7.688,11.252
					c0.457,0.669,0.919,1.339,1.329,2.04c0.515,0.882,0.665,1.932,0.483,2.971c-0.404,2.298-1.255,4.504-2.244,6.645
					c-0.041,0.088-0.119,0.163-0.259,0.351c-0.01-0.429-0.018-0.732-0.025-1.033c-0.046-1.073-0.468-1.957-1.084-2.803
					c-5.765-7.976-5.603-7.752-11.368-15.727c-0.274-0.377-0.352-0.746-0.2-1.261c0.589-2.005,1.426-3.989,2.423-5.968
					c0.295-0.587,0.676-1.04,1.327-1.437c1.159-0.724,2.324-1.472,3.476-2.225l5.234-3.317c1.15-0.728,2.425-1.333,3.056-2.604
					l0.158,0.076c-0.025,0.139-0.027,0.28-0.08,0.416c-0.829,2.073-1.825,4.209-3.013,6.221c-0.55,0.947-1.279,1.713-2.298,2.318
					c-1.426,0.871-2.859,1.743-4.219,2.719C109.508,47.646,109.251,47.828,108.925,48.058z"/>
				<g>
					<path fill="#C1C1C1" d="M104.33,82.084c-0.174-0.437-0.276-0.865-0.496-1.209c-0.23-0.36-0.535-0.823-0.816-1.15
						c-4.387-5.092-4.647-5.392-9.034-10.484c-0.415-0.48-0.477-1.071-0.439-1.719c0.027-0.469,0.088-0.944,0.146-1.524
						c-0.83,0.476-1.384,1.116-2.015,1.646l-1.916,1.683c-0.632,0.557-1.263,1.115-2.088,1.844c0.114-0.773,0.143-1.345,0.297-1.914
						c0.409-1.519,0.885-3.046,1.347-4.582c0.197-0.654,0.593-1.175,1.156-1.664c2.888-2.497,5.959-4.773,8.923-7.18
						c0.77-0.595,1.596-1.141,2.161-1.963l0.166,0.05c-0.163,0.585-0.259,1.191-0.458,1.797c-0.54,1.53-1.083,3.069-1.624,4.604
						c-0.282,0.816-0.78,1.482-1.56,1.996c-0.278,0.184-0.529,0.413-0.852,0.669c0.213,0.299,0.361,0.529,0.531,0.741
						c3.61,4.452,3.238,3.992,6.848,8.444c0.335,0.411,1.914,2.079,1.623,3.044c-0.152,1.078-0.391,2.132-0.682,3.185
						c-0.266,1.085-0.592,2.156-0.964,3.216C104.55,81.705,104.411,81.976,104.33,82.084z"/>
					<path fill="#C1C1C1" d="M104.977,44.42c-0.229,0.765-0.349,1.374-0.593,1.964c-0.701,1.693-1.409,3.374-2.142,5.035
						c-0.511,1.194-1.434,2.091-2.526,2.987l-7.961,6.288c-2.584,2.181-5.086,4.458-7.631,6.685c-0.374,0.331-0.748,0.661-1.28,1.13
						c0.113-0.709,0.151-1.263,0.304-1.813c0.428-1.534,0.917-3.077,1.393-4.63c0.241-0.785,0.742-1.415,1.413-2.004
						c2.505-2.298,5.227-4.334,7.876-6.457l3.997-3.157c1.364-1.01,2.762-1.973,4.144-2.959c1.088-0.769,2.135-1.529,2.64-2.736
						C104.639,44.686,104.742,44.631,104.977,44.42z"/>
				</g>
				<g>
					<path fill="#C1C1C1" d="M71.412,88.363c0.152-1.275,0.28-2.556,0.491-3.85c0.155-0.951,0.39-1.914,0.645-2.875
						c0.088-0.331,0.279-0.691,0.506-0.976c1.583-2.038,2.804-3.328,4.069-4.576c1.269-1.243,2.54-2.488,4.38-4.291
						c0.114-0.112,0.224-0.231,0.345-0.334c0.725-0.616,1.313-0.655,1.865-0.075l3.645,3.886l6.546,6.775
						c1.85,1.872,2.338,2.629,2.314,3.018c-0.128,2.154-0.549,4.274-1.127,6.361c-0.028,0.102-0.273,0.549-0.337,0.676
						c-1.153-1.891-4.987-5.543-7.437-7.932l-5.292-5.135c-0.659-0.637-1.156-0.596-1.973,0.201c-2.61,2.5-2.874,2.914-5.32,5.571
						c-0.653,0.719-1.225,1.51-1.851,2.252c-0.396,0.467-0.827,0.907-1.243,1.358L71.412,88.363z"/>
					<path fill="#C1C1C1" d="M67.985,83.335c0.083-0.803,0.123-1.606,0.267-2.418c0.249-1.405,0.565-2.821,0.871-4.245
						c0.119-0.553,0.407-1.025,0.832-1.483c2.152-2.276,3.863-3.838,5.496-5.477c1.68-1.59,3.246-3.303,5.648-5.317
						c0.802-0.699,1.417-1.409,1.81-2.311c0.055-0.128,0.167-0.244,0.379-0.347c-0.117,0.626-0.178,1.252-0.355,1.872
						c-0.458,1.532-0.92,3.073-1.381,4.613c-0.102,0.338-0.224,0.699-0.386,1.035c-0.491,1.037-0.953,1.817-1.999,2.802
						c-0.179,0.171-0.37,0.353-0.556,0.532c-2.04,2.012-3.509,3.458-4.977,4.906c-1.397,1.517-2.794,3.033-4.736,5.14l-0.698,0.758
						L67.985,83.335z"/>
				</g>
				<path fill="#C1C1C1" d="M72.394,104.491c0.026,0.664,0.081,1.207,0.063,1.793c-0.082,1.653-0.165,3.312-0.246,4.973
					c-0.047,0.83-0.372,1.557-0.911,2.274c-2.271,2.931-3.497,4.82-4.736,6.699c-1.214,1.895-2.567,3.702-4.463,6.887
					c-0.833,1.419-1.898,3.086-2.213,4.762c-0.057,0.002-0.117-0.342-0.176-0.341c-0.11-0.537-0.27-1.064-0.316-1.619
					c-0.125-1.493-0.214-3.007-0.267-4.538c-0.033-1.02,0.225-2.009,0.816-2.892l0.162-0.242c0.575-0.824-1.035-1.66-1.181-1.755
					l-12.619-8.097c-0.325-0.207-0.546-0.453-0.605-0.854c-0.391-2.692-0.343-5.529,0.055-8.478
					c0.011-0.082,0.073-0.169,0.173-0.388c0.072,0.29,0.165,0.478,0.163,0.689c-0.005,0.669,0.314,1.018,0.758,1.321l12.243,8.386
					c0.4,0.273,1.061,0.558,1.341,1.521c0.112,0.481,0.22,2.414,0.29,3.857c0.04,0.831,0.004,1.81,0.026,2.796
					c0.208-0.244,0.354-0.496,0.442-0.628l2.675-4.017c0.883-1.345,1.774-2.684,2.769-3.949c0.327-0.435,0.39-0.796,0.25-1.252
					c-0.259-0.847-0.8-1.454-1.445-1.932l-11.288-8.287c-0.021-0.015-0.038-0.039-0.062-0.044c-0.736-0.467-0.968-1.074-1.003-1.942
					c-0.083-2.093,0.115-4.256,0.469-6.461c0.039-0.243,0.103-0.49,0.166-0.733c0.012-0.046,0.074-0.09,0.187-0.22
					c-0.05,0.945,0.584,1.212,1.086,1.604c3.579,2.794,7.135,5.621,10.76,8.353c1.257,0.949,1.816,2.295,1.896,3.93
					c0.075,1.537-0.032,3.107-0.046,4.643c-0.009,0.264-0.019,0.529-0.034,0.98c0.295-0.354,0.467-0.541,0.619-0.744
					c1.684-2.273,1.601-2.161,3.285-4.434C71.805,105.644,72.03,105.101,72.394,104.491z"/>
			</g>
			<g>
				<path fill="#CE9549" d="M153.645,51.912c0.025-1.078,0.059-1.182-1.28-1.321c-1.738-0.179-3.557-0.069-5.365-0.072
					c-0.316-0.006-0.624,0.047-0.93,0.029c-0.502-0.026-0.914-0.54-0.743-1.022c0.402-1.171,0.851-2.277,1.398-3.384
					c0.592-1.186,1.303-2.344,1.998-3.514c0.185-0.313,0.443-0.599,0.706-0.95c0.095,0.306,0.082,0.618,0.244,0.714
					c0.281,0.166,0.674,0.321,1.01,0.271c1.75-0.287,3.461-0.019,5.171,0.087c0.502,0.031,0.998,0.139,1.461,0.282
					c0.564,0.175,0.78,0.598,0.539,1.142c-0.531,1.195-1.058,2.39-1.678,3.538c-0.676,1.174-1.367,2.37-2.052,3.559
					C153.997,51.497,153.807,51.698,153.645,51.912z"/>
				<path fill="#CE9549" d="M150.284,33.083c-0.024-1.024-0.828-0.924-1.597-0.937c-0.979-0.023-1.953-0.046-2.923-0.069
					c-1.043-0.038-2.087-0.094-3.131-0.164c-0.698-0.047-0.902-0.286-0.633-0.898c0.503-1.146,1.027-2.301,1.67-3.423
					c0.734-1.285,1.597-2.547,2.465-3.751c0.143-0.204,0.354-0.382,0.62-0.665c0.052,0.85,0.87,0.712,1.44,0.778
					c1.055,0.122,2.146,0.138,3.218,0.189c0.996,0.048,1.998,0.058,2.979,0.128c0.759,0.055,1.066,0.501,0.732,1.148
					c-0.619,1.199-1.257,2.391-1.962,3.549c-0.704,1.157-1.501,2.274-2.254,3.397C150.762,32.582,150.556,32.772,150.284,33.083z"/>
				<path fill="#CE9549" d="M143.466,41.199c0.088-0.302,0.133-0.576,0.249-0.833c0.999-2.223,2.158-4.426,3.618-6.561
					c0.328-0.479,0.686-0.662,1.257-0.613c1.471,0.173,2.968,0.105,4.475-0.025c0.807-0.07,1.618-0.007,2.387,0.104
					c0.211,0.03,0.379,0.424,0.406,0.683c0.025,0.246-0.129,0.545-0.258,0.804c-1.166,2.342-2.428,4.582-3.962,6.747
					c-0.138,0.202-0.313,0.385-0.566,0.694c0.005-0.242-0.028-0.361,0.016-0.458c0.218-0.492-0.002-0.683-0.501-0.688
					c-0.677-0.006-1.359-0.087-2.038,0.014C146.851,41.32,145.196,41.291,143.466,41.199z"/>
			</g>
		</g>
		<g>
			<g>
				<g>
					<path fill="#C1C1C1" d="M16.087,186.94c-1.012-3.024-1.831-6.293-2.303-9.619l-0.359-2.964c-0.176-1.591,0.119-3.22,0.434-4.83
						c0.264-1.249,0.525-2.528,1.011-3.713c0.501-1.305,1.303-2.416,2.186-3.396c1.202-1.336,2.533-2.367,3.989-3.074
						c0.765-0.371,0.891-0.374,1.166,0.505c0.596,1.907,1.177,3.808,1.708,5.717c0.179,0.647,0.43,1.012,1.001,1.196
						c8.66,2.81,4.086,1.325,12.746,4.135c0.623,0.203,1.253,0.409,1.834,0.708c0.742,0.381,1.257,1.096,1.622,1.857
						c0.901,1.957,1.672,4.121,2.194,6.305c0.017,0.069-0.016,0.157-0.042,0.377c-0.332-0.36-0.617-0.641-0.87-0.956
						c-0.291-0.362-0.632-0.589-1.064-0.718c-8.955-2.71-4.592-1.389-13.546-4.1c-0.534-0.16-1.063-0.346-1.609-0.459
						c-0.385-0.08-0.627-0.295-0.768-0.714c-0.576-1.734-1.195-3.496-1.664-5.238c-0.093-0.362-0.186-0.729-0.306-1.202
						c-0.414,0.181-0.805,0.291-1.154,0.519c-1.464,0.929-2.772,2.038-3.841,3.573c-1.135,1.61-1.749,3.477-2.146,5.416
						c-0.241,1.264-0.542,2.551-0.467,3.806c0.064,1.508,0.311,2.996,0.622,4.417C16.873,186.354,16.326,187.631,16.087,186.94z"/>
					<path fill="#C1C1C1" d="M19.53,177.982c0.048-0.007,0.089-0.024,0.094-0.013c0.39,0.925,1.2,1.005,1.953,1.203
						c5.49,1.444,6.087,1.601,11.577,3.045c0.685,0.181,1.382,0.332,2.047,0.57c0.938,0.335,1.649,1.058,2.141,1.947
						c1.075,1.832,1.83,3.84,2.471,5.878c0.044,0.14,0.039,0.302,0.077,0.633c-0.425-0.371-0.749-0.611-1.025-0.907
						c-0.448-0.484-1.004-0.708-1.6-0.847c-6.321-1.459-7.714-1.781-14.035-3.239c-0.506-0.115-0.875-0.37-1.146-0.865
						c-1.157-2.161-2.116-4.604-2.571-7.159C19.501,178.153,19.525,178.063,19.53,177.982z"/>
				</g>
				<g>
					<path fill="#C1C1C1" d="M26.148,258.28c-0.396-0.472-0.732-0.34-1.108-0.057l-3.672,2.726l-0.706,0.507
						c-0.263,0.199-0.502,0.184-0.768-0.068c-1.598-1.525-3.092-3.267-4.357-5.235c-0.058-0.095-0.087-0.219-0.157-0.396
						c1.74-1.212,3.458-2.409,5.178-3.608c0.381-0.263,0.691-0.074,0.986,0.17c0.295,0.243,0.579,0.52,0.824,0.831
						c1.14,1.451,2.252,2.896,3.479,4.312c0.156,0.185,0.262,0.429,0.391,0.646L26.148,258.28z"/>
					<path fill="#C1C1C1" d="M27.289,251.193c-0.141-0.072-0.197-0.216-0.289-0.316l-4.077-4.498
						c-1.184-1.301-2.419-2.307-3.78-3.246c-0.759-0.533-1.578-0.427-2.354-0.109c-0.496,0.202-0.939,0.605-1.403,0.923
						c-2.332,1.579-4.574,3.189-6.784,4.876c-0.917,0.697-1.778,1.515-2.705,2.203c-0.582,0.431-1.116,1.085-1.982,0.93
						c0.097,0.257,0.128,0.388,0.188,0.492c1.25,2.129,2.601,4.031,4.226,5.695c0.328,0.334,0.664,0.365,1.004,0.156
						c0.244-0.15,0.487-0.309,0.71-0.501c0.697-0.612,1.421-1.254,2.159-1.849c0.993-0.801,2-1.568,3.003-2.336l1.985-1.506
						l3.955-2.797c0.647-0.452,1.376-0.578,2.041-0.234c1.444,0.748,2.749,1.779,3.861,3.104c0.282,0.336,0.417,0.724,0.436,1.202
						c0.043,0.833,0.093,1.667,0.189,2.497c0.076,0.633,0.253,1.218,0.624,1.723c1.259,1.713,2.617,3.272,4.136,4.6
						c0.101,0.089,0.24,0.12,0.346,0.169c-0.069-0.575-0.147-1.092-0.19-1.612c-0.061-0.733-0.198-1.928-0.374-3.349
						c-0.09-0.71-0.189-1.478-0.289-2.273c-0.065-0.798-0.133-1.625-0.199-2.449c-0.26-3.298-0.564-6.568-0.597-7.924
						c0-0.764-0.221-1.399-0.581-2.032c-1.233-2.161-3.817-4.515-3.817-4.515c-0.031,2.162,0.058,4.264,0.144,6.396
						C26.995,246.746,27.236,248.901,27.289,251.193z"/>
				</g>
				<g>
					<path fill="#C1C1C1" d="M50.207,299.204l-0.772-0.293c-0.801-0.342-1.579-0.342-2.402-0.142
						c-4.367,1.061-8.541,2.735-12.816,4.084c-3.218,1.011-6.408,2.108-9.608,3.179c-0.503,0.168-0.999,0.371-1.476,0.609
						c-0.393,0.197-0.771,0.182-1.195-0.044c-2.458-1.314-4.715-3.16-6.857-5.336c-0.136-0.148-0.267-0.36-0.322-0.565l-1.8-6.751
						l-0.894-3.376l-0.743-3.413c-0.216-0.992-0.441-1.991-0.762-2.947c-0.327-0.973-0.781-1.895-1.19-2.871
						c0.022,0.007,0.118,0.007,0.186,0.064c1.915,1.587,3.681,3.363,5.259,5.4c0.511,0.661,0.9,1.413,1.144,2.257
						c0.325,1.106,0.744,2.19,1.046,3.303l1.976,7.273c0.086,0.337,0.19,0.67,0.332,1.102c0.383-0.097,0.699-0.164,1.006-0.255
						c6.44-1.925,12.893-3.81,19.309-5.808c2.182-0.678,4.235-0.47,6.232,0.941c1.356,0.958,2.66,1.983,3.971,2.96
						c0.167,0.124,0.298,0.305,0.447,0.46L50.207,299.204z"/>
					<path fill="#C1C1C1" d="M17.672,310.879c0.448-0.154,0.729-0.251,1.01-0.346l18.482-6.346c0.834-0.287,1.639-0.663,2.458-0.999
						c0.291-0.12,0.565-0.142,0.882,0.045c1.639,0.983,3.319,2.074,4.834,3.319c0.121,0.098,1.123,1.059,1.27,1.23
						c-0.974-0.402-1.967,0.175-2.662,0.439l-19.424,7.319c-0.44,0.166-0.815,0.113-1.272-0.17
						c-1.661-1.033-3.258-2.269-4.793-3.644C18.24,311.522,18.045,311.286,17.672,310.879z"/>
					<path fill="#C1C1C1" d="M46.299,290.939c-0.656-0.194-1.212-0.387-1.779-0.524c-0.267-0.065-0.562-0.068-0.827-0.013
						c-0.694,0.145-1.382,0.319-2.064,0.512l-16.759,4.771c-0.769,0.225-1.505,0.132-2.169-0.299
						c-1.922-1.248-3.676-2.886-5.309-4.76c-0.054-0.062-0.077-0.165-0.144-0.312c0.118-0.015,0.223-0.074,0.298-0.031
						c0.662,0.373,1.269,0.235,1.893,0.076l17.191-4.335c0.588-0.148,1.186-0.294,1.792-0.328c0.834-0.046,1.658,0.267,2.396,0.709
						c1.913,1.148,3.627,2.583,5.217,4.157C46.121,290.646,46.179,290.765,46.299,290.939z"/>
				</g>
				<path fill="#C1C1C1" d="M13.81,194.297c0.342,0.088,0.602,0.171,0.868,0.221c7.782,1.446,5.616,1.043,13.398,2.489
					c0.798,0.148,1.598,0.293,2.382,0.497c0.987,0.257,1.834,0.891,2.435,1.752c1.335,1.905,2.259,4.058,3.084,6.269
					c0.037,0.091,0.04,0.201,0.083,0.433c-0.322-0.297-0.549-0.506-0.775-0.714c-0.795-0.724-1.712-1.048-2.748-1.208
					c-9.719-1.538-9.446-1.496-19.166-3.034c-0.461-0.072-0.775-0.278-1.03-0.747c-0.991-1.829-1.79-3.821-2.472-5.921
					c-0.202-0.623-0.251-1.212-0.065-1.952c0.337-1.327,0.487-2.71,0.821-4.047l1.381-6.044c0.298-1.328,0.806-2.651,0.284-4.012
					l0.166-0.058c0.078,0.116,0.18,0.217,0.243,0.351c0.964,2.071,1.697,4.268,2.291,6.531c0.277,1.057,0.299,2.113,0.002,3.261
					c-0.449,1.614-0.725,3.268-1.001,4.92C13.935,193.593,13.881,193.903,13.81,194.297z"/>
				<g>
					<path fill="#C1C1C1" d="M34.67,221.546c-0.43-0.185-0.801-0.414-1.2-0.5c-0.416-0.09-0.959-0.201-1.388-0.232
						c-6.704-0.478-7.1-0.507-13.805-0.985c-0.633-0.044-1.09-0.417-1.517-0.9c-0.309-0.35-0.597-0.728-0.961-1.178
						c-0.262,0.923-0.213,1.767-0.294,2.587l-0.197,2.543c-0.076,0.839-0.125,1.68-0.14,2.782c-0.487-0.626-0.887-1.051-1.193-1.561
						c-0.768-1.36-1.493-2.772-2.236-4.182c-0.316-0.6-0.396-1.249-0.335-1.991c0.17-1.902,0.274-3.81,0.486-5.707l0.706-5.685
						c0.12-0.967,0.37-1.93,0.137-2.917l0.149-0.084c0.326,0.532,0.694,1.028,0.97,1.596c0.688,1.46,1.38,2.929,2.069,4.394
						c0.37,0.775,0.482,1.596,0.285,2.51c-0.07,0.326-0.089,0.665-0.14,1.074c0.363,0.06,0.629,0.118,0.9,0.146
						c5.702,0.579,5.114,0.519,10.816,1.099c0.536,0.052,2.805,0.107,3.32,0.997c1.371,1.739,2.477,3.667,3.424,5.686
						C34.564,221.124,34.653,221.413,34.67,221.546z"/>
					<path fill="#C1C1C1" d="M8.435,194.528c0.376,0.701,0.718,1.216,0.959,1.804c0.693,1.689,1.37,3.376,2.016,5.064
						c0.499,1.206,0.599,2.511,0.414,3.91c-0.973,6.697-1.487,13.448-1.845,20.201c-0.014,0.5-0.027,0.998-0.047,1.707
						c-0.441-0.581-0.819-0.998-1.116-1.495c-0.853-1.389-1.592-2.821-2.324-4.253c-0.377-0.724-0.458-1.523-0.389-2.413
						c0.276-3.386,0.462-6.78,0.954-10.144l0.639-5.055c0.201-1.687,0.428-3.37,0.755-5.037c0.234-1.311,0.445-2.589-0.045-3.798
						C8.382,194.954,8.416,194.843,8.435,194.528z"/>
				</g>
				<g>
					<path fill="#C1C1C1" d="M15.942,249.316c-0.824-1.006-1.669-1.998-2.466-3.057c-0.577-0.78-1.055-1.627-1.545-2.485
						c-0.167-0.296-0.279-0.686-0.313-1.048c-0.458-5.125-0.503-7.095-0.315-12.243c0.004-0.16,0.001-0.321,0.016-0.48
						c0.093-0.948,0.487-1.393,1.288-1.376l5.326,0.154l9.423,0.133c2.634,0.008,3.511,0.195,3.764,0.485
						c1.406,1.609,2.576,3.402,3.61,5.281c0.048,0.092,0.186,0.58,0.242,0.715c-2.172-0.515-7.449-0.369-10.878-0.317l-7.37,0.134
						c-0.916,0.019-1.226,0.4-1.204,1.54c0.084,3.611,0.096,4.092,0.18,7.703c0.012,0.971,0.179,1.934,0.301,2.899
						c0.069,0.609,0.091,1.223,0.135,1.835L15.942,249.316z"/>
					<path fill="#C1C1C1" d="M9.923,248.204c-0.527-0.623-1.084-1.217-1.576-1.891c-0.807-1.166-1.554-2.39-2.326-3.612
						c-0.298-0.475-0.418-1.012-0.431-1.635c-0.203-6.263-0.056-9.254,0.15-15.514c0.035-1.063-0.07-2.001-0.402-2.915
						c-0.05-0.129-0.051-0.29,0.029-0.513c0.354,0.524,0.747,1.008,1.054,1.571c0.804,1.407,1.614,2.823,2.423,4.237
						c0.176,0.311,0.33,0.651,0.451,1.002c0.369,1.079,0.581,1.956,0.515,3.392c-0.009,0.247-0.02,0.512-0.03,0.77
						c-0.123,2.864,0.053,4.926,0.059,6.987c0.066,2.06,0.049,4.124,0.205,6.985l0.073,1.027L9.923,248.204z"/>
				</g>
				<path fill="#C1C1C1" d="M28.088,259.99c0.495,0.449,0.951,0.789,1.333,1.218c1.074,1.23,2.153,2.463,3.232,3.699
					c0.556,0.619,0.867,1.359,1.011,2.244c0.619,3.654,0.951,5.883,1.373,8.093c0.487,2.198,0.974,4.397,1.776,8.016
					c0.319,1.615,0.855,3.52,1.813,4.928c-0.04,0.042-0.328-0.158-0.368-0.116c-0.462-0.3-0.954-0.558-1.384-0.915
					c-1.147-0.965-2.344-1.954-3.391-3.016c-0.717-0.704-1.18-1.597-1.427-2.631l-0.062-0.285c-0.194-0.985-1.92-0.437-2.09-0.398
					l-14.64,3.227c-0.376,0.085-0.708,0.068-1.037-0.173c-2.179-1.622-4.304-3.626-5.981-6.014
					c-0.048-0.066-0.063-0.172-0.141-0.399c0.251,0.155,0.446,0.221,0.589,0.372c0.454,0.478,0.925,0.499,1.452,0.398l14.581-2.76
					c0.476-0.091,1.149-0.359,2.008,0.126c0.384,0.267,1.857,1.548,2.951,2.514c0.627,0.556,1.309,1.27,2.036,1.948
					c-0.03-0.319-0.111-0.599-0.145-0.754c-0.749-3.131-1.272-6.306-1.782-9.482c-0.088-0.536-0.308-0.835-0.734-1.057
					c-0.794-0.413-1.609-0.456-2.403-0.337l-13.837,2.155c-0.024,0.004-0.054,0-0.074,0.013c-0.85,0.192-1.45-0.071-2.101-0.657
					c-1.608-1.406-2.912-3.084-4.182-4.896c-0.139-0.2-0.263-0.419-0.385-0.638c-0.024-0.042-0.009-0.117-0.016-0.289
					c0.615,0.704,1.256,0.443,1.887,0.364c4.505-0.567,9.015-1.093,13.511-1.737c1.559-0.222,2.888,0.334,4.069,1.435
					c1.09,1.039,2.118,2.221,3.242,3.309c0.185,0.192,0.371,0.385,0.687,0.713c-0.052-0.458-0.068-0.711-0.111-0.961
					c-0.495-2.787-0.352-2.665-0.75-5.467C28.52,261.217,28.286,260.675,28.088,259.99z"/>
			</g>
			<g>
				<path fill="#CE9549" d="M48.069,165.322c-0.733-0.775-0.781-0.871-1.856-0.031c-1.358,1.103-2.496,2.494-3.745,3.782
					c-0.215,0.224-0.411,0.475-0.64,0.677c-0.38,0.335-1.038,0.263-1.252-0.196c-0.513-1.1-1.025-2.216-1.439-3.39
					c-0.437-1.262-0.81-2.603-1.133-3.915c-0.082-0.35-0.096-0.731-0.148-1.162c0.282,0.149,0.491,0.376,0.676,0.331
					c0.322-0.079,0.715-0.246,0.926-0.517c1.102-1.416,2.46-2.455,3.72-3.601c0.37-0.336,0.792-0.614,1.214-0.843
					c0.516-0.279,0.968-0.134,1.188,0.424c0.485,1.226,0.973,2.447,1.363,3.702c0.403,1.3,0.696,2.641,1.029,3.951
					C48.036,164.785,48.038,165.059,48.069,165.322z"/>
				<path fill="#CE9549" d="M32.415,154.435c-0.747-0.708-1.235-0.063-1.776,0.477c-0.697,0.693-1.426,1.351-2.157,2.005
					c-0.774,0.708-1.613,1.384-2.366,2.087c-0.513,0.467-0.825,0.441-1.079-0.184c-0.497-1.18-0.887-2.343-1.213-3.585
					c-0.362-1.415-0.608-2.901-0.883-4.379c-0.046-0.247-0.028-0.523-0.044-0.912c0.644,0.564,1.111-0.116,1.554-0.476
					c0.819-0.666,1.588-1.432,2.368-2.161c0.708-0.683,1.454-1.372,2.23-2.002c0.597-0.489,1.134-0.39,1.339,0.295
					c0.376,1.267,0.73,2.544,1.087,3.874c0.337,1.319,0.582,2.679,0.861,4.011C32.388,153.74,32.382,154.022,32.415,154.435z"/>
				<path fill="#CE9549" d="M33.351,164.99c-0.156-0.276-0.322-0.503-0.427-0.769c-0.456-1.146-0.88-2.316-1.256-3.519
					c-0.358-1.197-0.617-2.409-0.838-3.672c-0.096-0.566,0.038-0.945,0.487-1.309c1.143-0.927,2.133-2.042,3.086-3.209
					c0.51-0.624,1.117-1.159,1.729-1.629c0.168-0.13,0.566,0.029,0.769,0.193c0.193,0.157,0.299,0.477,0.395,0.754
					c0.854,2.484,1.606,4.983,2.047,7.595c0.04,0.238,0.04,0.49,0.071,0.882c-0.165-0.174-0.272-0.233-0.309-0.332
					c-0.184-0.498-0.478-0.478-0.845-0.132c-0.498,0.468-1.052,0.89-1.476,1.437C35.716,162.638,34.624,163.825,33.351,164.99z"/>
			</g>
		</g>
		<g>
			<g>
				<g>
					<path fill="#C1C1C1" d="M45.839,356.644c-2.853-1.433-5.672-3.215-8.406-5.211l-2.336-1.856
						c-1.242-1.007-2.175-2.375-3.082-3.741c-0.694-1.071-1.39-2.172-1.902-3.346c-0.564-1.28-0.775-2.633-0.839-3.952
						c-0.088-1.794,0.132-3.465,0.67-4.991c0.282-0.801,0.37-0.892,1.184-0.463c1.766,0.934,3.518,1.876,5.237,2.858
						c0.583,0.333,1.018,0.417,1.553,0.146c8.13-4.1,3.835-1.934,11.965-6.034c0.586-0.294,1.178-0.591,1.802-0.789
						c0.795-0.252,1.664-0.107,2.46,0.177c2.021,0.753,4.103,1.744,5.999,2.934c0.061,0.038,0.099,0.124,0.234,0.298
						c-0.488-0.023-0.888-0.022-1.289-0.068c-0.46-0.053-0.863,0.025-1.26,0.239c-8.268,4.378-4.24,2.244-12.508,6.622
						c-0.492,0.263-1,0.503-1.466,0.805c-0.33,0.214-0.653,0.232-1.047,0.032c-1.617-0.833-3.315-1.638-4.875-2.547
						c-0.32-0.193-0.645-0.387-1.063-0.638c-0.167,0.42-0.367,0.773-0.454,1.18c-0.386,1.691-0.514,3.388-0.207,5.238
						c0.324,1.944,1.198,3.704,2.275,5.364c0.689,1.082,1.438,2.176,2.37,3.018c1.102,1.03,2.318,1.915,3.533,2.709
						C45.988,355.674,46.493,356.969,45.839,356.644z"/>
					<path fill="#C1C1C1" d="M41.983,347.859c0.029-0.039,0.047-0.08,0.047-0.08c0.938,0.389,1.569-0.126,2.244-0.515
						c4.916-2.838,5.451-3.147,10.368-5.985c0.614-0.354,1.215-0.737,1.856-1.036c0.901-0.421,1.908-0.405,2.92-0.14
						c2.046,0.55,3.99,1.45,5.872,2.453c0.129,0.069,0.24,0.188,0.498,0.397c-0.562,0.035-0.96,0.091-1.364,0.074
						c-0.657-0.029-1.21,0.201-1.731,0.522c-5.519,3.411-6.734,4.162-12.251,7.574c-0.442,0.274-0.882,0.352-1.421,0.19
						c-2.345-0.72-4.704-1.804-6.875-3.269C42.082,348.001,42.035,347.92,41.983,347.859z"/>
				</g>
				<g>
					<path fill="#C1C1C1" d="M103.17,400.276c-0.61-0.06-0.758,0.271-0.827,0.737c-0.236,1.515-0.47,3.023-0.705,4.534l-0.147,0.86
						c-0.048,0.327-0.228,0.484-0.592,0.49c-2.208,0.037-4.465-0.188-6.77-0.674c-0.112-0.024-0.222-0.087-0.401-0.16
						c0.324-2.051,0.751-4.15,1.136-6.194c0.088-0.456,0.44-0.539,0.82-0.572c0.379-0.032,0.774-0.034,1.165,0.017
						c1.802,0.265,3.711,0.388,5.536,0.584c0.24,0.023,0.487,0.123,0.728,0.188L103.17,400.276z"/>
					<path fill="#C1C1C1" d="M98.982,394.456c-0.151,0.048-0.291-0.016-0.426-0.024l-6.034-0.363
						c-1.727-0.126-3.415,0.137-5.012,0.393c-0.911,0.151-1.419,0.802-1.751,1.576c-0.211,0.494-0.245,1.093-0.354,1.648
						c-0.491,2.7-0.959,5.428-1.36,8.199c-0.165,1.144-0.206,2.337-0.385,3.481c-0.113,0.718-0.036,1.563-0.76,2.06
						c0.249,0.117,0.362,0.188,0.478,0.221c1.183,0.33,2.354,0.59,3.513,0.779c1.176,0.17,2.362,0.245,3.522,0.27
						c0.467,0.008,0.727-0.205,0.823-0.593c0.069-0.279,0.13-0.564,0.154-0.858l0.211-2.806c0.115-1.237,0.303-2.501,0.48-3.757
						l0.36-2.476l0.861-4.786c0.143-0.779,0.575-1.381,1.289-1.601c1.549-0.478,3.195-0.654,4.909-0.485
						c0.435,0.044,0.801,0.227,1.148,0.556c0.605,0.576,1.288,1.061,1.931,1.593c0.496,0.4,1.031,0.695,1.646,0.797
						c2.089,0.343,4.143,0.507,6.15,0.393c0.134-0.007,0.254-0.083,0.364-0.121c-0.45-0.364-0.867-0.68-1.261-1.022
						c-1.099-0.98-3.749-3.01-6.3-5.116c-2.489-2.178-4.967-4.331-5.96-5.254c-0.556-0.523-1.192-0.784-1.878-0.997
						c-2.382-0.685-5.859-0.558-5.859-0.558c1.501,1.555,2.973,3.06,4.595,4.449C95.696,391.445,97.335,392.86,98.982,394.456z"/>
				</g>
				<g>
					<path fill="#C1C1C1" d="M149.048,412.428l-0.755,0.336c-0.809,0.321-1.364,0.868-1.807,1.591
						c-2.355,3.827-4.142,7.954-6.229,11.922c-1.574,2.983-3.069,6.008-4.588,9.02c-0.239,0.474-0.449,0.966-0.619,1.471
						c-0.14,0.416-0.419,0.671-0.88,0.809c-2.67,0.797-5.574,1.075-8.626,1.038c-0.207,0.001-0.451-0.055-0.633-0.165l-6.024-3.544
						c-2.006-1.184-4.026-2.344-5.952-3.659c-0.849-0.556-1.71-1.113-2.609-1.569c-0.915-0.464-1.884-0.805-2.86-1.214
						c0.021-0.011,0.088-0.078,0.177-0.086c2.473-0.212,4.975-0.184,7.524,0.161c0.831,0.107,1.622,0.389,2.403,0.796
						c1.033,0.52,2.074,1.025,3.076,1.597l6.515,3.792c0.3,0.176,0.615,0.325,1.018,0.538c0.205-0.339,0.382-0.608,0.535-0.89
						c3.22-5.901,6.477-11.782,9.628-17.717c1.072-2.017,2.677-3.315,5.09-3.718c1.639-0.273,3.285-0.465,4.906-0.693
						c0.206-0.029,0.427,0.007,0.641,0.012L149.048,412.428z"/>
					<path fill="#C1C1C1" d="M134.154,443.621c0.21-0.425,0.342-0.69,0.473-0.957l8.663-17.516c0.39-0.792,0.698-1.625,1.043-2.439
						c0.122-0.29,0.3-0.499,0.658-0.588c1.846-0.434,3.813-0.853,5.769-1.04c0.155-0.015,1.546-0.042,1.772-0.023
						c-0.976,0.402-1.275,1.51-1.584,2.188l-8.651,18.868c-0.195,0.428-0.5,0.654-1.024,0.776c-1.904,0.433-3.921,0.708-5.966,0.783
						C135.01,443.677,134.705,443.647,134.154,443.621z"/>
					<path fill="#C1C1C1" d="M140.447,409.318c-0.602,0.323-1.133,0.576-1.631,0.878c-0.235,0.142-0.447,0.348-0.596,0.573
						c-0.391,0.591-0.757,1.199-1.107,1.817l-8.547,15.185c-0.389,0.702-0.975,1.152-1.75,1.313
						c-2.242,0.462-4.638,0.529-7.116,0.342c-0.082-0.006-0.171-0.063-0.322-0.121c0.074-0.094,0.106-0.209,0.19-0.231
						c0.732-0.199,1.066-0.726,1.399-1.277l9.161-15.178c0.314-0.518,0.635-1.044,1.043-1.494c0.56-0.619,1.365-0.976,2.199-1.179
						c2.165-0.528,4.39-0.711,6.624-0.708C140.116,409.235,140.239,409.279,140.447,409.318z"/>
				</g>
				<path fill="#C1C1C1" d="M49.411,363.463c0.305-0.178,0.549-0.301,0.772-0.453c6.548-4.447,4.725-3.209,11.274-7.655
					c0.671-0.456,1.342-0.916,2.043-1.323c0.883-0.511,1.928-0.654,2.956-0.462c2.297,0.409,4.398,1.342,6.631,2.267
					c0.09,0.039,0.168,0.116,0.361,0.252c-0.436,0.015-0.744,0.024-1.049,0.034c-1.089,0.055-1.98,0.478-2.828,1.092
					c-7.993,5.743-7.768,5.58-15.761,11.323c-0.378,0.273-0.752,0.352-1.276,0.207c-1.996-0.598-3.946-1.464-5.902-2.481
					c-0.58-0.302-1.025-0.688-1.41-1.348c-0.688-1.184-1.53-2.285-2.293-3.433l-3.247-5.277c-0.718-1.156-1.282-2.457-2.606-3.057
					l0.073-0.156c0.142,0.024,0.285,0.025,0.423,0.076c2.136,0.796,4.194,1.845,6.201,3.039c0.938,0.557,1.692,1.296,2.283,2.322
					c0.82,1.46,1.85,2.788,2.775,4.182C49.009,362.873,49.185,363.133,49.411,363.463z"/>
				<g>
					<path fill="#C1C1C1" d="M83.386,368.184c-0.435,0.17-0.858,0.267-1.202,0.485c-0.359,0.228-0.822,0.53-1.15,0.81
						c-5.104,4.373-5.406,4.631-10.51,9.004c-0.481,0.414-1.065,0.468-1.706,0.422c-0.463-0.033-0.932-0.102-1.504-0.168
						c0.456,0.846,1.08,1.416,1.592,2.061c0.538,0.657,1.065,1.326,1.652,1.942c0.57,0.62,1.14,1.24,1.886,2.051
						c-0.783-0.106-1.362-0.132-1.938-0.279c-1.557-0.379-3.073-0.866-4.572-1.364c-0.643-0.207-1.152-0.616-1.626-1.19
						l-3.656-4.409c-1.234-1.457-2.33-3.024-3.502-4.529c-0.589-0.776-1.082-1.641-1.936-2.182l0.048-0.163
						c0.603,0.152,1.211,0.247,1.803,0.459c1.507,0.56,3.025,1.124,4.536,1.686c0.811,0.287,1.438,0.816,1.971,1.58
						c0.19,0.273,0.426,0.518,0.689,0.834c0.3-0.212,0.532-0.359,0.744-0.53c4.462-3.597,4.002-3.226,8.464-6.823
						c0.412-0.334,2.081-1.905,3.064-1.626c2.187,0.283,4.317,0.887,6.396,1.669C83.015,367.956,83.281,368.102,83.386,368.184z"/>
					<path fill="#C1C1C1" d="M45.747,367.411c0.757,0.236,1.36,0.362,1.943,0.613c1.683,0.711,3.301,1.466,5.026,2.156
						c1.207,0.504,2.18,1.372,3.026,2.501l3.05,4.053c1.031,1.339,2.148,2.611,3.22,3.918c2.175,2.59,4.291,5.23,6.631,7.675
						c0.338,0.368,0.676,0.735,1.156,1.257c-0.719-0.107-1.278-0.14-1.836-0.288c-1.551-0.415-3.13-0.875-4.685-1.353
						c-0.772-0.254-1.388-0.769-1.958-1.454c-2.146-2.631-4.404-5.174-6.457-7.878c-2.039-2.715-4.118-5.402-6.107-8.152
						c-0.749-1.1-1.491-2.16-2.684-2.678C46.007,367.753,45.953,367.65,45.747,367.411z"/>
				</g>
				<g>
					<path fill="#C1C1C1" d="M89.607,401.081c-1.287-0.142-2.581-0.26-3.887-0.46c-0.957-0.153-1.943-0.363-2.893-0.631
						c-0.324-0.096-0.676-0.296-0.953-0.532c-1.955-1.67-3.267-2.871-4.546-4.104c-1.277-1.237-2.557-2.472-4.278-4.391
						c-0.109-0.118-0.223-0.231-0.323-0.355c-0.595-0.745-0.623-1.342-0.042-1.892l3.896-3.634l6.798-6.53
						c1.88-1.846,2.633-2.328,3.017-2.299c2.143,0.144,4.149,0.679,6.295,1.203c0.104,0.027,0.558,0.265,0.687,0.327
						c-1.902,1.156-5.562,4.977-7.959,7.418l-5.149,5.275c-0.639,0.657-0.594,1.149,0.216,1.951c2.575,2.533,2.889,2.9,5.513,5.382
						c0.728,0.643,1.53,1.203,2.282,1.819c0.474,0.388,0.919,0.814,1.376,1.222L89.607,401.081z"/>
					<path fill="#C1C1C1" d="M84.552,404.512c-0.81-0.076-1.62-0.111-2.44-0.249c-1.423-0.231-2.852-0.537-4.235-0.89
						c-0.543-0.131-1.003-0.431-1.447-0.87c-2.23-2.2-3.878-3.825-5.524-5.45c-1.59-1.681-3.142-3.398-5.249-5.714
						c-0.714-0.789-1.437-1.391-2.353-1.774c-0.129-0.054-0.249-0.163-0.354-0.372c0.634,0.111,1.268,0.168,1.897,0.339
						c1.554,0.443,3.116,0.888,4.678,1.332c0.343,0.099,0.689,0.234,1.02,0.402c1.014,0.514,1.776,0.995,2.731,2.07
						c0.165,0.183,0.344,0.38,0.517,0.571c2.041,2.011,3.509,3.46,4.977,4.907c1.472,1.444,2.911,2.923,5.079,4.799l0.769,0.687
						L84.552,404.512z"/>
				</g>
				<path fill="#C1C1C1" d="M105.742,400.139c0.665-0.025,1.227-0.102,1.797-0.063c1.645,0.102,3.245,0.272,4.919,0.328
					c0.835,0.041,1.568,0.36,2.291,0.89c5.932,4.445,7.346,5.202,13.549,9.256c1.4,0.864,3.091,1.889,4.767,2.205
					c0.002,0.057-0.344,0.119-0.342,0.176c-0.54,0.112-1.068,0.274-1.626,0.321c-1.494,0.123-3.03,0.242-4.546,0.267
					c-1.001,0.001-1.957-0.312-2.857-0.876l-0.244-0.16c-0.829-0.568-1.669,1.039-1.763,1.184l-8.133,12.594
					c-0.208,0.325-0.455,0.546-0.858,0.606c-2.696,0.389-5.575,0.395-8.499-0.046c-0.08-0.013-0.165-0.079-0.379-0.186
					c0.287-0.066,0.472-0.155,0.679-0.147c0.657,0.023,1.007-0.292,1.31-0.735l8.421-12.22c0.276-0.401,0.559-1.056,1.527-1.34
					c0.483-0.114,2.426-0.231,3.878-0.308c0.836-0.043,1.819-0.013,2.811-0.04c-0.246-0.207-0.499-0.349-0.632-0.436l-4.039-2.639
					l-3.899-2.842c-0.438-0.322-0.802-0.383-1.26-0.241c-0.852,0.263-1.462,0.804-1.942,1.447l-8.32,11.263
					c-0.015,0.021-0.039,0.038-0.044,0.062c-0.469,0.734-1.08,0.967-1.953,1.007c-2.104,0.093-4.299-0.068-6.442-0.509
					c-0.239-0.045-0.48-0.116-0.719-0.186c-0.046-0.013-0.088-0.078-0.215-0.196c0.93,0.073,1.202-0.565,1.595-1.065
					c2.805-3.571,5.641-7.117,8.385-10.737c0.952-1.254,2.284-1.789,3.893-1.829c1.525-0.054,3.12,0.02,4.662,0.033
					c0.265,0.007,0.533,0.015,0.986,0.027c-0.358-0.291-0.546-0.461-0.75-0.609c-2.283-1.672-2.191-1.561-4.398-3.33
					C106.907,400.714,106.362,400.49,105.742,400.139z"/>
			</g>
			<g>
				<path fill="#CE9549" d="M53.363,318.771c-1.067-0.033-1.17-0.068-1.339,1.283c-0.217,1.753-0.025,3.531-0.013,5.328
					c0.005,0.31,0.043,0.627,0.022,0.932c-0.034,0.505-0.552,0.917-1.027,0.742c-1.139-0.421-2.288-0.852-3.409-1.395
					c-1.191-0.592-2.422-1.272-3.546-1.99c-0.306-0.19-0.584-0.451-0.925-0.72c0.306-0.093,0.615-0.079,0.713-0.241
					c0.171-0.283,0.334-0.677,0.292-1.018c-0.218-1.778,0.01-3.47,0.095-5.169c0.025-0.498,0.127-0.991,0.265-1.451
					c0.168-0.56,0.592-0.775,1.142-0.534c1.21,0.528,2.42,1.051,3.583,1.666c1.205,0.637,2.359,1.383,3.522,2.076
					C52.961,318.413,53.156,318.606,53.363,318.771z"/>
				<path fill="#CE9549" d="M34.567,322.059c-1.03,0.024-0.921,0.823-0.924,1.587c-0.005,0.982-0.057,1.96-0.114,2.94
					c-0.075,1.054-0.148,2.105-0.221,3.152c-0.036,0.692-0.275,0.894-0.896,0.628c-1.161-0.498-2.267-1.046-3.375-1.699
					c-1.257-0.75-2.481-1.632-3.721-2.487c-0.207-0.142-0.389-0.351-0.676-0.617c0.855-0.053,0.707-0.864,0.766-1.43
					c0.112-1.05,0.113-2.132,0.155-3.2c0.074-1.005,0.112-2.017,0.208-3.006c0.075-0.767,0.526-1.073,1.158-0.731
					c1.173,0.632,2.326,1.288,3.466,2.002c1.172,0.699,2.305,1.491,3.445,2.241C34.057,321.584,34.251,321.789,34.567,322.059z"/>
				<path fill="#CE9549" d="M42.662,328.898c-0.306-0.086-0.583-0.131-0.844-0.245c-1.129-0.494-2.258-1.025-3.368-1.617
					c-1.072-0.609-2.132-1.278-3.174-2.022c-0.468-0.334-0.641-0.697-0.58-1.271c0.156-1.462,0.071-2.949-0.079-4.447
					c-0.073-0.805-0.042-1.602,0.091-2.377c0.036-0.213,0.43-0.381,0.687-0.405c0.246-0.024,0.533,0.135,0.791,0.266
					c2.361,1.163,4.661,2.406,6.819,3.948c0.197,0.14,0.374,0.319,0.674,0.576c-0.241-0.007-0.357,0.025-0.454-0.019
					c-0.482-0.224-0.677-0.003-0.693,0.501c-0.022,0.683-0.117,1.372-0.033,2.057C42.68,325.567,42.748,327.174,42.662,328.898z"/>
			</g>
		</g>
		<g>
			<g>
				<g>
					<path fill="#C1C1C1" d="M187.439,456.577c-3.031,1.001-6.317,1.855-9.627,2.237l-2.97,0.357
						c-1.594,0.175-3.225-0.122-4.835-0.437c-1.262-0.223-2.503-0.604-3.695-1.069c-1.305-0.501-2.412-1.303-3.391-2.186
						c-1.332-1.2-2.359-2.532-3.059-3.986c-0.367-0.764-0.37-0.891,0.511-1.164c1.912-0.594,3.819-1.173,5.733-1.7
						c0.649-0.179,1.016-0.429,1.204-0.998c2.857-8.645,1.348-4.079,4.205-12.723c0.207-0.622,0.416-1.251,0.717-1.831
						c0.385-0.741,1.103-1.254,1.869-1.62c0.989-0.47,2.014-0.858,3.062-1.183c1.062-0.37,2.149-0.681,3.246-0.95
						c0.07-0.017,0.157,0.016,0.378,0.042c-0.361,0.331-0.645,0.616-0.962,0.869c-0.363,0.29-0.594,0.631-0.725,1.062
						c-2.759,8.94-1.414,4.584-4.173,13.525c-0.163,0.534-0.352,1.062-0.468,1.606c-0.082,0.385-0.299,0.626-0.719,0.766
						c-1.751,0.608-3.48,1.106-5.237,1.602c-0.363,0.092-0.731,0.185-1.205,0.304c0.18,0.413,0.287,0.804,0.514,1.152
						c0.937,1.421,2.001,2.848,3.541,3.894c1.607,1.133,3.473,1.748,5.412,2.147c1.259,0.259,2.562,0.505,3.799,0.507
						c1.501-0.026,2.998-0.298,4.42-0.599C186.856,455.793,188.133,456.339,187.439,456.577z"/>
					<path fill="#C1C1C1" d="M178.503,453.077c-0.007-0.048-0.023-0.089-0.012-0.093c0.929-0.388,1.013-1.198,1.215-1.95
						c1.473-5.482,1.634-6.079,3.108-11.561c0.184-0.685,0.339-1.38,0.581-2.045c0.34-0.935,1.067-1.648,1.961-2.136
						c1.812-0.961,3.846-1.797,5.885-2.412c0.141-0.044,0.302-0.039,0.634-0.078c-0.374,0.424-0.616,0.748-0.914,1.023
						c-0.486,0.447-0.715,1.002-0.857,1.598c-1.493,6.313-1.822,7.704-3.316,14.016c-0.119,0.506-0.375,0.874-0.871,1.144
						c-1.089,0.593-2.239,1.102-3.443,1.54c-1.197,0.415-2.435,0.709-3.724,0.967C178.674,453.106,178.584,453.083,178.503,453.077z
						"/>
				</g>
				<g>
					<path fill="#C1C1C1" d="M258.834,446.931c-0.474,0.396-0.343,0.733-0.063,1.109l2.705,3.675l0.504,0.707
						c0.198,0.263,0.181,0.502-0.072,0.768c-1.534,1.584-3.278,3.131-5.262,4.302c-0.095,0.058-0.219,0.087-0.397,0.156
						c-1.203-1.741-2.389-3.46-3.578-5.181c-0.26-0.381-0.07-0.692,0.175-0.987c0.245-0.295,0.524-0.579,0.835-0.824
						c1.456-1.156,2.908-2.24,4.334-3.424c0.186-0.157,0.43-0.263,0.647-0.392L258.834,446.931z"/>
					<path fill="#C1C1C1" d="M251.752,445.733c-0.072,0.141-0.218,0.198-0.318,0.29c-1.482,1.348-2.987,2.73-4.519,4.063
						c-1.311,1.1-2.321,2.396-3.268,3.738c-0.536,0.76-0.436,1.578-0.122,2.355c0.2,0.496,0.599,0.939,0.916,1.403
						c1.565,2.292,3.167,4.656,4.841,6.845c0.692,0.917,1.505,1.779,2.187,2.706c0.427,0.582,1.079,1.116,0.919,1.983
						c0.258-0.097,0.388-0.128,0.493-0.188c2.138-1.234,4.04-2.636,5.719-4.19c0.337-0.312,0.371-0.644,0.163-0.992
						c-0.149-0.25-0.307-0.499-0.499-0.73l-1.84-2.189c-0.796-0.994-1.557-2.002-2.319-3.005l-1.495-1.987l-2.774-3.958
						c-0.449-0.646-0.571-1.376-0.222-2.042c0.756-1.445,1.794-2.75,3.123-3.863c0.338-0.282,0.726-0.417,1.203-0.437
						c0.834-0.034,1.666-0.112,2.499-0.17c0.637-0.032,1.223-0.213,1.728-0.586c1.718-1.26,3.283-2.619,4.619-4.14
						c0.09-0.101,0.121-0.24,0.171-0.346c-0.575,0.069-1.092,0.148-1.612,0.191c-2.916,0.383-13.287,1.338-16.003,1.349
						c-0.764,0-1.4,0.221-2.035,0.581c-2.168,1.234-4.536,3.818-4.536,3.818C243.101,446.284,247.177,445.963,251.752,445.733z"/>
				</g>
				<g>
					<path fill="#C1C1C1" d="M299.882,423.064l-0.296,0.774c-0.345,0.802-0.35,1.582-0.153,2.406
						c1.038,4.375,2.688,8.556,4.016,12.839c0.994,3.223,2.073,6.42,3.127,9.625c0.166,0.504,0.364,1,0.601,1.478
						c0.194,0.394,0.178,0.771-0.05,1.197c-1.331,2.436-3.163,4.774-5.377,6.808c-0.149,0.136-0.361,0.267-0.566,0.322
						c-4.504,1.189-8.983,2.475-13.555,3.376c-0.992,0.216-1.992,0.439-2.947,0.761c-0.973,0.327-1.897,0.781-2.874,1.19
						c0.008-0.023,0.008-0.117,0.065-0.186c1.595-1.915,3.379-3.683,5.422-5.261c0.662-0.512,1.416-0.899,2.261-1.143
						c1.112-0.304,2.211-0.661,3.317-0.99l7.274-1.973c0.335-0.091,0.672-0.182,1.111-0.301c-0.094-0.384-0.159-0.698-0.25-1.006
						c-1.89-6.45-3.739-12.911-5.703-19.341c-0.663-2.175-0.438-4.206,0.977-6.219c0.964-1.358,1.992-2.664,2.975-3.978
						c0.124-0.167,0.306-0.299,0.461-0.447L299.882,423.064z"/>
					<path fill="#C1C1C1" d="M311.379,455.658c-0.151-0.449-0.246-0.73-0.341-1.011l-6.246-18.515
						c-0.284-0.836-0.654-1.643-0.984-2.463c-0.118-0.292-0.14-0.566,0.049-0.883c0.994-1.63,2.115-3.237,3.354-4.788
						c0.099-0.121,1.062-1.125,1.234-1.271c-0.406,0.976,0.166,1.971,0.426,2.668l7.213,19.464c0.164,0.44,0.109,0.817-0.176,1.274
						c-1.046,1.643-2.264,3.308-3.68,4.745C312.024,455.089,311.787,455.285,311.379,455.658z"/>
					<path fill="#C1C1C1" d="M291.594,426.924c-0.198,0.657-0.393,1.214-0.533,1.782c-0.066,0.268-0.07,0.564-0.017,0.829
						c0.141,0.695,0.312,1.385,0.5,2.068l4.679,16.785c0.221,0.771,0.125,1.507-0.31,2.171c-1.256,1.924-2.9,3.678-4.781,5.312
						c-0.062,0.056-0.167,0.075-0.315,0.133c-0.014-0.118-0.072-0.224-0.029-0.296c0.38-0.646,0.242-1.266,0.088-1.887
						l-4.241-17.214c-0.144-0.588-0.288-1.188-0.319-1.795c-0.042-0.835,0.275-1.66,0.72-2.398c1.156-1.916,2.597-3.633,4.178-5.225
						C291.302,427.102,291.421,427.043,291.594,426.924z"/>
				</g>
				<path fill="#C1C1C1" d="M194.78,458.914c0.09-0.341,0.175-0.601,0.226-0.867c1.489-7.774,1.074-5.61,2.563-13.384
					c0.152-0.797,0.302-1.595,0.51-2.38c0.263-0.987,0.902-1.832,1.767-2.431c1.913-1.327,4.076-2.271,6.289-3.069
					c0.091-0.033,0.2-0.03,0.43-0.061c-0.296,0.309-0.506,0.527-0.714,0.744c-0.728,0.786-1.057,1.709-1.223,2.742
					c-1.593,9.712-1.548,9.438-3.139,19.149c-0.075,0.46-0.282,0.775-0.753,1.029c-1.836,0.989-3.833,1.787-5.94,2.468
					c-0.625,0.202-1.215,0.249-1.955,0.064c-1.338-0.292-2.689-0.586-4.035-0.88l-6.043-1.383c-1.327-0.303-2.656-0.785-3.999-0.344
					l-0.058-0.166c0.116-0.079,0.217-0.178,0.351-0.235c2.051-0.863,4.273-1.664,6.538-2.235c1.06-0.277,2.118-0.298,3.265,0
					c1.623,0.405,3.252,0.803,4.908,1.06C194.076,458.788,194.386,458.844,194.78,458.914z"/>
				<g>
					<path fill="#C1C1C1" d="M222.146,438.187c-0.187,0.43-0.418,0.801-0.506,1.2c-0.092,0.416-0.207,0.959-0.239,1.388
						c-0.515,6.701-0.546,7.098-1.06,13.799c-0.048,0.633-0.422,1.09-0.908,1.516c-0.351,0.308-0.731,0.597-1.183,0.959
						c0.922,0.263,1.767,0.213,2.587,0.295l2.542,0.198c0.84,0.059,1.68,0.12,2.779,0.199c-0.629,0.481-1.054,0.844-1.565,1.135
						c-1.365,0.767-2.781,1.492-4.196,2.235c-0.602,0.317-1.251,0.396-1.994,0.334c-3.814-0.234-7.593-0.803-11.386-1.253
						c-0.967-0.12-1.93-0.371-2.918-0.137l-0.083-0.148c0.534-0.325,1.033-0.693,1.602-0.968c1.465-0.686,2.938-1.378,4.407-2.067
						c0.777-0.37,1.6-0.481,2.513-0.284c0.326,0.07,0.665,0.089,1.074,0.14c0.062-0.362,0.122-0.629,0.151-0.899
						c0.611-5.7,0.547-5.111,1.158-10.81c0.055-0.528,0.125-2.825,1.014-3.293c1.741-1.305,3.681-2.458,5.703-3.39
						C221.723,438.293,222.013,438.204,222.146,438.187z"/>
					<path fill="#C1C1C1" d="M194.982,464.284c0.704-0.374,1.22-0.717,1.811-0.957c1.695-0.691,3.385-1.367,5.08-2.012
						c1.201-0.435,2.505-0.533,3.906-0.354c3.357,0.41,6.703,0.925,10.072,1.217l10.119,0.749c0.5,0.014,0.998,0.028,1.707,0.047
						c-0.584,0.441-1.003,0.819-1.501,1.115c-1.391,0.82-2.827,1.508-4.263,2.264c-0.726,0.376-1.527,0.457-2.416,0.388l-5.08-0.397
						l-5.058-0.618c-3.369-0.437-6.75-0.791-10.084-1.456c-1.311-0.234-2.589-0.446-3.801,0.043
						C195.409,464.337,195.297,464.303,194.982,464.284z"/>
				</g>
				<g>
					<path fill="#C1C1C1" d="M249.813,457.084c-1.01,0.811-2.004,1.702-3.072,2.423c-0.784,0.548-1.632,1.048-2.494,1.53
						c-0.297,0.166-0.687,0.278-1.049,0.312c-2.563,0.239-4.339,0.341-6.115,0.399c-1.777,0.005-3.554-0.087-6.129-0.145
						c-0.16-0.004-0.321-0.001-0.48-0.016c-0.948-0.093-1.391-0.487-1.369-1.289l0.183-5.324l0.185-9.422
						c0.023-2.633,0.214-3.51,0.506-3.764c1.617-1.405,3.416-2.576,5.302-3.611c0.092-0.051,0.581-0.185,0.716-0.228
						c-0.527,2.143-0.411,7.439-0.376,10.863l0.093,7.376c0.013,0.906,0.393,1.268,1.533,1.255c3.611-0.084,4.092-0.095,7.703-0.179
						c0.971-0.034,1.936-0.151,2.903-0.244c0.61-0.069,1.223-0.091,1.835-0.134L249.813,457.084z"/>
					<path fill="#C1C1C1" d="M248.668,463.105c-0.626,0.538-1.223,1.069-1.901,1.524c-1.171,0.796-2.398,1.551-3.624,2.319
						c-0.476,0.299-1.014,0.419-1.638,0.431c-3.132,0.078-5.445,0.124-7.758,0.022c-2.313-0.071-4.626-0.141-7.757-0.236
						c-1.063-0.035-1.997-0.017-2.915,0.343c-0.13,0.049-0.291,0.051-0.514-0.029c0.526-0.353,1.013-0.746,1.577-1.054
						c1.406-0.736,2.838-1.572,4.248-2.363c0.312-0.177,0.654-0.331,1.006-0.45c1.08-0.368,1.96-0.58,3.396-0.514
						c0.247,0.009,0.512,0.02,0.77,0.03c2.864,0.116,4.926,0.054,6.987,0.001c2.061-0.047,4.123-0.094,6.987-0.159
						c0.344-0.001,0.686-0.039,1.028-0.058L248.668,463.105z"/>
				</g>
				<path fill="#C1C1C1" d="M260.553,444.99c0.452-0.495,0.794-0.951,1.224-1.333c1.234-1.075,2.473-2.154,3.714-3.235
					c0.624-0.53,1.372-0.793,2.255-0.956c3.656-0.609,5.876-0.98,8.098-1.351c2.211-0.423,4.401-0.957,8.021-1.748
					c1.614-0.323,3.544-0.758,4.944-1.76c0.042,0.04-0.159,0.329-0.118,0.368c-0.302,0.463-0.561,0.954-0.921,1.386
					c-0.961,1.186-1.983,2.268-3.043,3.34c-0.706,0.718-1.602,1.181-2.635,1.428l-0.285,0.062c-0.985,0.194-0.445,1.922-0.409,2.093
					l3.146,14.658c0.082,0.376,0.065,0.709-0.178,1.038c-1.622,2.23-3.658,4.238-6.05,5.928c-0.066,0.048-0.172,0.063-0.399,0.141
					c0.156-0.251,0.223-0.446,0.375-0.589c0.48-0.454,0.503-0.925,0.405-1.453l-2.68-14.596c-0.088-0.477-0.353-1.151,0.137-2.01
					c0.262-0.419,1.573-1.776,2.537-2.898c0.559-0.629,1.276-1.31,1.957-2.038c-0.318,0.031-0.599,0.111-0.754,0.145
					c-3.129,0.762-6.327,1.168-9.493,1.729c-0.536,0.088-0.836,0.307-1.06,0.735c-0.416,0.794-0.465,1.611-0.349,2.405l2.079,13.848
					c0.003,0.025-0.001,0.054,0.013,0.075c0.187,0.85-0.079,1.451-0.667,2.103c-1.423,1.54-3.105,2.855-4.923,4.126
					c-0.201,0.14-0.42,0.262-0.639,0.386c-0.042,0.024-0.118,0.009-0.289,0.016c0.707-0.614,0.45-1.256,0.374-1.888
					c-0.543-4.508-1.044-9.022-1.663-13.52c-0.213-1.56,0.35-2.89,1.456-4.071c1.039-1.126,2.238-2.076,3.332-3.189
					c0.193-0.184,0.387-0.371,0.715-0.688c-0.458,0.052-0.71,0.068-0.96,0.111c-2.808,0.356-2.668,0.339-5.475,0.694
					C261.782,444.557,261.238,444.792,260.553,444.99z"/>
			</g>
			<g>
				<path fill="#CE9549" d="M166.002,424.465c-0.779,0.731-0.877,0.779-0.041,1.853c1.073,1.429,2.467,2.547,3.75,3.796
					c0.223,0.214,0.474,0.41,0.676,0.639c0.333,0.38,0.258,1.036-0.202,1.25c-1.105,0.512-2.225,1.023-3.402,1.436
					c-1.274,0.459-2.602,0.784-3.907,1.073c-0.351,0.082-0.733,0.095-1.164,0.147c0.151-0.281,0.38-0.489,0.335-0.675
					c-0.078-0.321-0.243-0.714-0.514-0.925c-1.413-1.101-2.447-2.457-3.59-3.716c-0.335-0.37-0.612-0.789-0.839-1.212
					c-0.278-0.515-0.13-0.966,0.429-1.186c1.23-0.483,2.457-0.97,3.716-1.358c1.303-0.402,2.649-0.693,3.964-1.025
					C165.463,424.498,165.737,424.496,166.002,424.465z"/>
				<path fill="#CE9549" d="M155.021,440.084c-0.713,0.746-0.069,1.232,0.469,1.774c0.692,0.696,1.346,1.424,1.999,2.155
					c0.7,0.786,1.389,1.583,2.068,2.391c0.454,0.541,0.426,0.855-0.194,1.086c-1.16,0.432-2.341,0.856-3.583,1.171
					c-1.419,0.36-2.909,0.603-4.391,0.878c-0.248,0.046-0.523,0.027-0.914,0.043c0.569-0.642-0.111-1.11-0.469-1.551
					c-0.663-0.821-1.429-1.582-2.15-2.371c-0.658-0.763-1.345-1.507-1.974-2.277c-0.488-0.595-0.386-1.131,0.302-1.336
					c1.275-0.38,2.555-0.733,3.863-1.029c1.324-0.336,2.686-0.578,4.022-0.855C154.325,440.11,154.608,440.117,155.021,440.084z"/>
				<path fill="#CE9549" d="M165.578,439.213c-0.277,0.156-0.506,0.321-0.772,0.426c-2.315,0.948-4.664,1.598-7.193,2.028
					c-0.568,0.095-0.946-0.039-1.31-0.488c-0.924-1.142-2.035-2.131-3.201-3.083c-0.62-0.518-1.164-1.097-1.617-1.746
					c-0.125-0.176,0.035-0.574,0.2-0.772c0.157-0.19,0.472-0.283,0.746-0.368c2.494-0.85,5-1.6,7.618-2.037
					c0.239-0.04,0.491-0.04,0.884-0.071c-0.174,0.165-0.235,0.271-0.335,0.307c-0.5,0.183-0.481,0.477-0.136,0.844
					c0.467,0.498,0.887,1.051,1.432,1.474C163.248,436.813,164.406,437.973,165.578,439.213z"/>
			</g>
		</g>
		<g>
			<g>
				<g>
					<path fill="#C1C1C1" d="M358.811,426.817c-1.425,2.858-3.219,5.65-5.191,8.42c-0.599,0.787-1.223,1.56-1.851,2.338
						c-1.005,1.242-2.373,2.175-3.739,3.081c-1.066,0.704-2.184,1.367-3.334,1.924c-1.28,0.564-2.633,0.776-3.953,0.841
						c-1.796,0.088-3.468-0.13-4.997-0.666c-0.803-0.282-0.895-0.37-0.465-1.182c0.931-1.765,1.87-3.515,2.85-5.234
						c0.332-0.582,0.415-1.018,0.143-1.552c-4.119-8.119-1.943-3.831-6.063-11.951c-0.295-0.585-0.594-1.176-0.793-1.799
						c-0.254-0.794-0.11-1.662,0.173-2.457c0.728-2.063,1.732-4.111,2.915-6.016c0.037-0.061,0.124-0.099,0.297-0.234
						c-0.022,0.487-0.02,0.888-0.065,1.288c-0.052,0.459,0.027,0.862,0.241,1.259c4.398,8.257,2.254,4.234,6.652,12.492
						c0.264,0.491,0.505,0.998,0.809,1.465c0.215,0.33,0.234,0.651,0.034,1.046c-0.83,1.617-1.639,3.305-2.528,4.894
						c-0.192,0.321-0.386,0.644-0.637,1.063c0.421,0.166,0.774,0.366,1.182,0.453c1.694,0.385,3.372,0.474,5.232,0.182
						c1.945-0.324,3.705-1.198,5.364-2.277c1.088-0.679,2.155-1.474,3.005-2.391c1.029-1.101,1.913-2.317,2.705-3.532
						C357.84,426.669,359.135,426.163,358.811,426.817z"/>
					<path fill="#C1C1C1" d="M350.037,430.697c-0.039-0.029-0.08-0.047-0.076-0.057c0.383-0.926-0.133-1.557-0.523-2.231
						c-2.85-4.909-3.16-5.443-6.01-10.354c-0.355-0.613-0.74-1.214-1.041-1.853c-0.422-0.898-0.427-1.937-0.158-2.938
						c0.547-2.044,1.444-3.986,2.446-5.867c0.069-0.129,0.188-0.24,0.396-0.498c0.035,0.561,0.093,0.959,0.076,1.362
						c-0.028,0.656,0.203,1.209,0.526,1.729c3.424,5.51,4.179,6.723,7.603,12.233c0.275,0.441,0.354,0.881,0.193,1.419
						c-0.711,2.353-1.811,4.678-3.248,6.892C350.179,430.597,350.098,430.644,350.037,430.697z"/>
				</g>
				<g>
					<path fill="#C1C1C1" d="M402.3,369.373c-0.06,0.61,0.271,0.757,0.739,0.825c1.517,0.233,3.027,0.465,4.54,0.697l0.861,0.146
						c0.329,0.047,0.485,0.227,0.492,0.592c0.038,2.204-0.183,4.459-0.668,6.762c-0.023,0.111-0.087,0.222-0.159,0.4
						c-2.057-0.324-4.119-0.713-6.183-1.11c-0.457-0.087-0.54-0.438-0.573-0.817c-0.033-0.378-0.034-0.773,0.017-1.163
						c0.224-1.834,0.374-3.716,0.559-5.547c0.023-0.24,0.123-0.486,0.187-0.729L402.3,369.373z"/>
					<path fill="#C1C1C1" d="M396.497,373.581c0.048,0.15-0.016,0.291-0.024,0.426l-0.357,6.027
						c-0.116,1.733,0.122,3.394,0.418,5.023c0.153,0.91,0.806,1.416,1.581,1.746c0.499,0.214,1.089,0.238,1.632,0.335
						c2.704,0.486,5.436,0.951,8.21,1.347c1.145,0.163,2.339,0.203,3.486,0.38c0.719,0.111,1.564,0.034,2.063,0.756
						c0.116-0.248,0.188-0.362,0.22-0.477c0.686-2.341,0.995-4.712,1.024-7.046c0.008-0.466-0.206-0.727-0.594-0.821
						c-0.28-0.068-0.564-0.129-0.859-0.152l-2.81-0.208c-1.25-0.123-2.474-0.273-3.742-0.457l-2.479-0.357l-4.792-0.853
						c-0.779-0.142-1.383-0.572-1.605-1.285c-0.48-1.546-0.659-3.19-0.492-4.902c0.042-0.435,0.229-0.798,0.552-1.15
						c0.542-0.633,1.052-1.296,1.577-1.945c0.401-0.496,0.695-1.031,0.797-1.645c0.342-2.088,0.503-4.139,0.388-6.143
						c-0.007-0.134-0.084-0.253-0.122-0.363c-0.364,0.45-0.68,0.867-1.022,1.261c-0.971,1.106-3.03,3.732-5.097,6.316
						c-2.178,2.489-4.331,4.966-5.255,5.959c-0.523,0.557-0.791,1.185-0.978,1.895c-0.683,2.38-0.553,5.852-0.553,5.852
						C390.877,380.188,393.306,376.872,396.497,373.581z"/>
				</g>
				<g>
					<path fill="#C1C1C1" d="M414.351,323.471l0.337,0.753c0.321,0.808,0.87,1.36,1.593,1.801c3.832,2.345,7.964,4.122,11.936,6.2
						c2.987,1.566,6.015,3.054,9.031,4.567c0.475,0.238,0.967,0.446,1.473,0.617c0.417,0.139,0.672,0.417,0.811,0.878
						c0.799,2.667,1.079,5.567,1.045,8.616c-0.002,0.204-0.051,0.452-0.15,0.641l-3.534,6.029c-1.204,1.994-2.315,4.043-3.635,5.966
						c-0.556,0.849-1.113,1.711-1.568,2.608c-0.464,0.914-0.804,1.883-1.213,2.859c-0.011-0.021-0.078-0.088-0.086-0.177
						c-0.214-2.471-0.189-4.969,0.156-7.517c0.107-0.829,0.392-1.619,0.773-2.415c0.519-1.033,1.025-2.074,1.596-3.077l3.776-6.524
						c0.161-0.309,0.32-0.618,0.531-1.022c-0.339-0.204-0.609-0.38-0.892-0.533c-5.908-3.205-11.797-6.449-17.74-9.585
						c-2.02-1.067-3.319-2.668-3.724-5.078c-0.275-1.636-0.467-3.282-0.696-4.899c-0.029-0.206,0.006-0.427,0.012-0.641
						L414.351,323.471z"/>
					<path fill="#C1C1C1" d="M445.58,338.292c-0.425-0.209-0.692-0.34-0.958-0.472l-17.536-8.62
						c-0.792-0.388-1.627-0.694-2.442-1.038c-0.29-0.122-0.5-0.299-0.589-0.656c-0.47-1.861-0.876-3.819-1.066-5.773
						c-0.015-0.155-0.043-1.544-0.024-1.77c0.402,0.975,1.512,1.271,2.19,1.578l18.888,8.606c0.428,0.194,0.655,0.498,0.777,1.022
						c0.444,1.907,0.688,3.906,0.81,5.97C445.638,337.437,445.605,337.741,445.58,338.292z"/>
					<path fill="#C1C1C1" d="M411.263,332.081c0.323,0.602,0.578,1.13,0.879,1.627c0.143,0.234,0.348,0.446,0.574,0.594
						c0.592,0.39,1.201,0.754,1.819,1.102l15.205,8.511c0.703,0.387,1.155,0.972,1.315,1.746c0.464,2.238,0.533,4.632,0.347,7.108
						c-0.006,0.082-0.063,0.171-0.121,0.322c-0.094-0.074-0.209-0.106-0.232-0.189c-0.201-0.732-0.728-1.064-1.28-1.394l-15.2-9.125
						c-0.519-0.312-1.046-0.633-1.497-1.039c-0.62-0.558-0.977-1.361-1.182-2.195c-0.529-2.162-0.714-4.383-0.711-6.615
						C411.18,332.413,411.224,332.288,411.263,332.081z"/>
				</g>
				<path fill="#C1C1C1" d="M365.618,423.222c-0.178-0.304-0.303-0.547-0.456-0.771c-4.462-6.537-3.22-4.718-7.682-11.255
					c-0.457-0.67-0.919-1.34-1.328-2.039c-0.513-0.881-0.658-1.925-0.467-2.952c0.42-2.276,1.318-4.417,2.245-6.646
					c0.039-0.09,0.116-0.168,0.252-0.361c0.015,0.436,0.025,0.743,0.036,1.048c0.057,1.088,0.481,1.977,1.097,2.824
					c5.761,7.979,5.599,7.755,11.361,15.734c0.273,0.377,0.354,0.75,0.21,1.275c-0.567,2.035-1.451,3.955-2.459,5.918
					c-0.302,0.579-0.688,1.024-1.346,1.41c-1.183,0.69-2.29,1.525-3.429,2.299l-5.267,3.262c-1.156,0.718-2.457,1.283-3.056,2.606
					l-0.156-0.073c0.024-0.141,0.024-0.284,0.076-0.423c0.793-2.134,1.839-4.191,3.031-6.197c0.556-0.937,1.293-1.691,2.321-2.283
					c1.432-0.862,2.781-1.862,4.168-2.796C365.028,423.624,365.287,423.448,365.618,423.222z"/>
				<g>
					<path fill="#C1C1C1" d="M370.264,389.243c0.171,0.434,0.269,0.857,0.488,1.2c0.229,0.358,0.532,0.821,0.813,1.148
						c4.385,5.094,4.644,5.394,9.03,10.489c0.415,0.48,0.47,1.064,0.425,1.703c-0.033,0.462-0.1,0.93-0.166,1.502
						c0.846-0.456,1.415-1.08,2.06-1.594c0.669-0.524,1.309-1.084,1.925-1.671c0.62-0.57,1.24-1.141,2.051-1.886
						c-0.106,0.782-0.13,1.361-0.276,1.936c-0.39,1.542-0.84,3.096-1.343,4.587c-0.206,0.643-0.614,1.15-1.189,1.625
						c-2.952,2.423-5.834,4.93-8.922,7.179c-0.776,0.589-1.641,1.083-2.181,1.937l-0.165-0.047c0.151-0.602,0.245-1.21,0.456-1.801
						c0.558-1.506,1.12-3.022,1.68-4.533c0.292-0.803,0.809-1.445,1.564-1.99c0.273-0.19,0.518-0.426,0.834-0.689
						c-0.214-0.3-0.361-0.531-0.532-0.742c-3.608-4.454-3.236-3.994-6.844-8.448c-0.335-0.411-1.91-2.076-1.633-3.059
						c0.281-2.185,0.882-4.313,1.662-6.389C370.035,389.612,370.18,389.348,370.264,389.243z"/>
					<path fill="#C1C1C1" d="M369.577,426.879c0.235-0.756,0.36-1.359,0.61-1.941c0.722-1.663,1.445-3.323,2.137-5.043
						c0.502-1.207,1.369-2.179,2.499-3.026l4.052-3.05l3.902-3.24c2.604-2.158,5.209-4.314,7.658-6.651
						c0.368-0.338,0.734-0.677,1.257-1.156c-0.105,0.718-0.139,1.277-0.285,1.835c-0.409,1.555-0.881,3.118-1.339,4.691
						c-0.238,0.789-0.763,1.392-1.445,1.966c-2.624,2.156-5.188,4.385-7.861,6.479l-8.137,6.129c-1.1,0.75-2.16,1.491-2.676,2.684
						C369.919,426.619,369.815,426.673,369.577,426.879z"/>
				</g>
				<g>
					<path fill="#C1C1C1" d="M403.139,382.936c-0.142,1.286-0.258,2.578-0.456,3.883c-0.147,0.96-0.372,1.932-0.618,2.901
						c-0.078,0.34-0.291,0.679-0.523,0.96c-3.37,3.881-4.731,5.31-8.475,8.842c-0.118,0.108-0.231,0.223-0.355,0.323
						c-0.745,0.596-1.343,0.624-1.894,0.044l-3.643-3.887l-6.547-6.782c-1.851-1.875-2.335-2.628-2.305-3.011
						c0.157-2.125,0.656-4.166,1.179-6.307c0.027-0.104,0.264-0.557,0.327-0.686c1.159,1.898,4.989,5.55,7.437,7.94l5.288,5.136
						c0.658,0.637,1.151,0.592,1.954-0.219c2.525-2.583,2.919-2.872,5.363-5.531c0.643-0.728,1.203-1.53,1.819-2.282
						c0.388-0.474,0.814-0.919,1.221-1.377L403.139,382.936z"/>
					<path fill="#C1C1C1" d="M406.58,387.98c-0.076,0.809-0.109,1.618-0.246,2.437c-0.246,1.407-0.513,2.87-0.866,4.249
						c-0.13,0.543-0.431,1.002-0.869,1.447c-2.2,2.231-3.824,3.878-5.45,5.526c-1.645,1.627-3.388,3.151-5.696,5.268
						c-0.789,0.714-1.391,1.437-1.772,2.353c-0.054,0.129-0.163,0.249-0.372,0.354c0.111-0.633,0.166-1.266,0.336-1.894
						c0.441-1.552,0.885-3.114,1.327-4.675c0.099-0.342,0.235-0.689,0.401-1.019c0.513-1.013,0.993-1.776,2.068-2.729
						c0.188-0.161,0.37-0.354,0.554-0.535c2.011-2.041,3.459-3.509,4.906-4.978c0.722-0.735,1.446-1.47,2.239-2.277
						c0.777-0.823,1.582-1.756,2.541-2.819l0.687-0.769L406.58,387.98z"/>
				</g>
				<path fill="#C1C1C1" d="M402.161,366.804c-0.026-0.664-0.103-1.225-0.065-1.795c0.119-1.629,0.244-3.259,0.303-4.93
					c0.04-0.835,0.359-1.567,0.89-2.291c4.449-5.93,5.164-7.372,9.234-13.564c0.823-1.424,1.878-3.098,2.184-4.779
					c0.057-0.002,0.119,0.344,0.176,0.342c0.112,0.539,0.274,1.067,0.323,1.624c0.132,1.497,0.228,3.016,0.286,4.551
					c0.013,1.007-0.308,1.958-0.869,2.859l-0.16,0.244c-0.568,0.829,1.04,1.665,1.187,1.759l12.614,8.102
					c0.325,0.207,0.547,0.453,0.607,0.856c0.4,2.699,0.379,5.554-0.017,8.505c-0.013,0.08-0.079,0.165-0.186,0.379
					c-0.066-0.287-0.156-0.472-0.148-0.678c0.011-0.665-0.316-1.02-0.757-1.321l-12.24-8.392c-0.4-0.273-1.06-0.558-1.344-1.524
					c-0.114-0.482-0.232-2.422-0.311-3.873c-0.044-0.835-0.015-1.818-0.041-2.808c-0.207,0.246-0.349,0.499-0.437,0.631
					l-2.639,4.039c-0.889,1.34-1.879,2.61-2.821,3.913c-0.322,0.438-0.382,0.803-0.24,1.259c0.264,0.851,0.806,1.459,1.451,1.938
					l11.283,8.293c0.021,0.015,0.038,0.039,0.062,0.044c0.735,0.467,0.97,1.077,1.01,1.949c0.077,2.088-0.039,4.314-0.484,6.45
					c-0.045,0.238-0.116,0.48-0.186,0.718c-0.013,0.046-0.078,0.089-0.196,0.215c0.072-0.928-0.567-1.2-1.067-1.592
					c-3.578-2.796-7.131-5.624-10.756-8.359c-1.259-0.952-1.788-2.275-1.841-3.889c-0.086-1.546,0.009-3.124,0.014-4.668
					c0.007-0.265,0.015-0.533,0.027-0.985c-0.291,0.358-0.462,0.546-0.61,0.75c-1.69,2.269-1.537,2.21-3.31,4.414
					C402.736,365.64,402.512,366.185,402.161,366.804z"/>
			</g>
			<g>
				<path fill="#CE9549" d="M320.921,419.386c-0.031,1.066-0.066,1.169,1.287,1.338c1.734,0.172,3.529,0.011,5.324-0.012
					c0.311-0.005,0.627-0.043,0.933-0.022c0.506,0.035,0.919,0.551,0.745,1.025c-0.418,1.138-0.849,2.286-1.389,3.406
					c-0.585,1.201-1.279,2.399-1.975,3.567c-0.189,0.306-0.45,0.583-0.718,0.925c-0.094-0.306-0.08-0.614-0.242-0.713
					c-0.283-0.172-0.679-0.333-1.019-0.291c-1.78,0.219-3.474-0.009-5.173-0.093c-0.499-0.024-0.993-0.127-1.454-0.264
					c-0.561-0.168-0.777-0.591-0.537-1.141c0.526-1.209,1.047-2.418,1.661-3.58c0.635-1.204,1.379-2.357,2.072-3.519
					C320.564,419.788,320.757,419.593,320.921,419.386z"/>
				<path fill="#CE9549" d="M324.249,438.165c0.025,1.029,0.826,0.92,1.59,0.922c0.983,0.004,1.963,0.056,2.943,0.112
					c1.048,0.052,2.117,0.163,3.145,0.197c0.694,0.035,0.895,0.274,0.631,0.895c-0.487,1.181-1.03,2.294-1.683,3.396
					c-0.747,1.256-1.628,2.48-2.481,3.72c-0.142,0.207-0.351,0.389-0.615,0.675c-0.054-0.854-0.866-0.705-1.433-0.765
					c-1.051-0.11-2.135-0.114-3.202-0.152c-0.989-0.031-2.014-0.099-3-0.186c-0.767-0.075-1.075-0.525-0.735-1.157
					c0.625-1.183,1.294-2.301,1.987-3.486c0.698-1.171,1.489-2.304,2.236-3.442C323.775,438.674,323.98,438.48,324.249,438.165z"/>
				<path fill="#CE9549" d="M331.068,430.051c-0.086,0.306-0.13,0.582-0.244,0.844c-0.978,2.269-2.12,4.51-3.619,6.56
					c-0.334,0.468-0.696,0.641-1.271,0.58c-1.463-0.155-2.952-0.069-4.451,0.08c-0.802,0.08-1.609,0.027-2.373-0.074
					c-0.21-0.027-0.378-0.422-0.404-0.682c-0.025-0.248,0.127-0.549,0.256-0.811c1.159-2.36,2.398-4.658,3.938-6.814
					c0.14-0.197,0.318-0.374,0.575-0.674c-0.006,0.24,0.026,0.357-0.018,0.454c-0.223,0.482-0.002,0.676,0.502,0.692
					c0.683,0.022,1.373,0.117,2.059,0.031C327.727,430.019,329.346,429.971,331.068,430.051z"/>
			</g>
		</g>
		<g>
			<g>
				<g>
					<path fill="#C1C1C1" d="M458.707,283.64c1.028,3.023,1.803,6.276,2.339,9.615l0.361,2.961c0.178,1.59-0.118,3.219-0.432,4.828
						c-0.25,1.253-0.553,2.519-0.979,3.724c-0.5,1.305-1.303,2.417-2.186,3.4c-1.202,1.338-2.534,2.372-3.992,3.081
						c-0.766,0.372-0.892,0.376-1.167-0.501c-0.597-1.904-1.18-3.801-1.711-5.706c-0.18-0.646-0.431-1.01-1.002-1.192
						c-8.668-2.784-4.09-1.314-12.758-4.098c-0.624-0.201-1.254-0.405-1.837-0.702c-0.743-0.378-1.258-1.091-1.625-1.852
						c-0.94-1.965-1.706-4.123-2.228-6.303c-0.017-0.069,0.016-0.157,0.043-0.376c0.331,0.358,0.617,0.639,0.871,0.953
						c0.29,0.36,0.633,0.587,1.065,0.715c8.962,2.683,4.596,1.376,13.558,4.059c0.535,0.158,1.065,0.343,1.611,0.455
						c0.386,0.079,0.627,0.293,0.769,0.712c0.564,1.728,1.21,3.494,1.698,5.24c0.093,0.362,0.186,0.728,0.307,1.2
						c0.414-0.182,0.806-0.293,1.154-0.521c1.471-0.931,2.715-2.062,3.812-3.59c1.135-1.612,1.748-3.479,2.145-5.419
						c0.264-1.257,0.512-2.558,0.435-3.813c-0.064-1.507-0.312-2.993-0.624-4.412C457.922,284.228,458.469,282.95,458.707,283.64z"
						/>
					<path fill="#C1C1C1" d="M455.297,292.61c-0.048,0.008-0.089,0.024-0.094,0.013c-0.391-0.924-1.202-1.001-1.956-1.197
						c-5.495-1.428-6.092-1.583-11.586-3.01c-0.686-0.179-1.383-0.328-2.049-0.563c-0.944-0.334-1.633-1.048-2.173-1.947
						c-1.075-1.828-1.832-3.832-2.472-5.868c-0.044-0.14-0.039-0.301-0.078-0.632c0.426,0.369,0.749,0.608,1.025,0.904
						c0.448,0.482,1.004,0.705,1.601,0.842c6.326,1.44,7.718,1.757,14.044,3.197c0.507,0.114,0.876,0.368,1.147,0.862
						c1.165,2.158,2.101,4.591,2.605,7.155C455.326,292.439,455.303,292.529,455.297,292.61z"/>
				</g>
				<g>
					<path fill="#C1C1C1" d="M448.421,212.329c0.395,0.47,0.732,0.338,1.107,0.054l3.671-2.739l0.706-0.509
						c0.263-0.2,0.502-0.185,0.768,0.066c1.607,1.52,3.068,3.261,4.38,5.222c0.065,0.094,0.097,0.217,0.164,0.395
						c-1.739,1.217-3.457,2.42-5.178,3.623c-0.381,0.264-0.691,0.076-0.987-0.166c-0.295-0.243-0.579-0.519-0.823-0.828
						c-1.115-1.45-2.292-2.886-3.509-4.3c-0.156-0.185-0.262-0.429-0.392-0.645L448.421,212.329z"/>
					<path fill="#C1C1C1" d="M447.311,219.418c0.141,0.071,0.197,0.215,0.29,0.316l4.076,4.487c1.188,1.298,2.472,2.298,3.81,3.234
						c0.759,0.53,1.578,0.422,2.354,0.102c0.496-0.204,0.938-0.607,1.403-0.928c2.339-1.586,4.514-3.2,6.751-4.896
						c0.916-0.7,1.777-1.521,2.704-2.211c0.582-0.433,1.115-1.088,1.982-0.936c-0.097-0.258-0.128-0.388-0.189-0.491
						c-1.259-2.126-2.578-4.025-4.257-5.681c-0.328-0.333-0.664-0.364-1.003-0.154c-0.244,0.15-0.488,0.311-0.71,0.503
						c-0.715,0.615-1.381,1.254-2.127,1.853c-0.992,0.805-2,1.574-3.002,2.345l-1.985,1.512l-3.955,2.809
						c-0.646,0.454-1.376,0.582-2.041,0.239c-1.444-0.745-2.749-1.772-3.86-3.093c-0.282-0.336-0.417-0.723-0.436-1.2
						c-0.031-0.835-0.104-1.667-0.22-2.494c-0.076-0.633-0.253-1.218-0.624-1.722c-1.258-1.709-2.616-3.265-4.134-4.59
						c-0.1-0.088-0.24-0.118-0.346-0.168c0.069,0.575,0.147,1.092,0.19,1.612c0.081,1.471,0.638,4.768,0.893,8.068
						c0.267,3.298,0.545,6.569,0.613,7.923c0.025,0.763,0.228,1.398,0.593,2.029c1.233,2.158,3.817,4.503,3.817,4.503
						c0.031-2.162-0.058-4.264-0.143-6.396C447.573,223.868,447.378,221.71,447.311,219.418z"/>
				</g>
				<g>
					<path fill="#C1C1C1" d="M424.257,171.472l0.772,0.29c0.8,0.34,1.577,0.338,2.4,0.135c4.363-1.074,8.532-2.76,12.803-4.122
						c3.214-1.021,6.402-2.127,9.598-3.207c0.503-0.17,0.998-0.373,1.474-0.614c0.393-0.198,0.77-0.184,1.194,0.042
						c2.456,1.308,4.713,3.15,6.853,5.321c0.143,0.146,0.285,0.355,0.35,0.557l1.803,6.751c0.604,2.25,1.212,4.497,1.668,6.782
						c0.216,0.991,0.441,1.991,0.763,2.946c0.328,0.972,0.781,1.894,1.191,2.869c-0.022-0.007-0.118-0.007-0.186-0.063
						c-1.914-1.583-3.68-3.355-5.258-5.389c-0.514-0.659-0.892-1.413-1.151-2.253c-0.371-1.095-0.758-2.186-1.07-3.297l-1.986-7.269
						c-0.107-0.331-0.213-0.662-0.352-1.096c-0.384,0.098-0.699,0.166-1.006,0.259c-6.434,1.943-12.882,3.849-19.292,5.865
						c-2.179,0.685-4.231,0.482-6.227-0.925c-1.355-0.956-2.658-1.977-3.968-2.953c-0.167-0.124-0.298-0.305-0.446-0.459
						L424.257,171.472z"/>
					<path fill="#C1C1C1" d="M456.76,159.701c-0.448,0.155-0.729,0.252-1.009,0.349l-18.463,6.401
						c-0.833,0.29-1.638,0.668-2.456,1.006c-0.291,0.121-0.565,0.145-0.881-0.042c-1.695-0.96-3.332-2.062-4.859-3.299
						c-0.121-0.098-1.122-1.057-1.268-1.229c0.973,0.4,1.965-0.18,2.66-0.446l19.402-7.376c0.44-0.167,0.815-0.115,1.271,0.167
						c1.663,1.028,3.25,2.265,4.797,3.633C456.178,159.062,456.392,159.292,456.76,159.701z"/>
					<path fill="#C1C1C1" d="M428.192,179.727c0.656,0.193,1.211,0.385,1.777,0.52c0.267,0.064,0.562,0.066,0.827,0.011
						c0.693-0.147,1.381-0.323,2.062-0.518l16.745-4.82c0.769-0.227,1.504-0.137,2.167,0.293c1.92,1.244,3.674,2.878,5.306,4.749
						c0.054,0.062,0.078,0.165,0.144,0.312c-0.118,0.015-0.223,0.074-0.297,0.032c-0.661-0.372-1.269-0.231-1.892-0.071
						l-17.178,4.386c-0.587,0.149-1.185,0.298-1.791,0.333c-0.834,0.049-1.657-0.262-2.394-0.703
						c-1.912-1.144-3.625-2.576-5.213-4.146C428.37,180.019,428.312,179.9,428.192,179.727z"/>
				</g>
				<path fill="#C1C1C1" d="M460.953,276.273c-0.342-0.087-0.602-0.17-0.869-0.219c-7.787-1.422-5.62-1.027-13.405-2.449
					c-0.798-0.146-1.598-0.287-2.384-0.49c-0.988-0.254-1.835-0.886-2.436-1.744c-1.349-1.902-2.229-4.044-3.117-6.261
					c-0.037-0.091-0.04-0.201-0.083-0.433c0.322,0.296,0.549,0.504,0.775,0.711c0.82,0.725,1.75,1.047,2.782,1.204
					c9.724,1.51,9.451,1.467,19.175,2.977c0.461,0.071,0.776,0.275,1.031,0.743c0.992,1.825,1.792,3.814,2.475,5.912
					c0.203,0.622,0.251,1.211,0.065,1.951c-0.348,1.324-0.477,2.712-0.789,4.054l-1.38,6.044c-0.298,1.328-0.806,2.652-0.282,4.01
					l-0.161,0.06c-0.084-0.116-0.185-0.218-0.248-0.351c-0.966-2.067-1.699-4.26-2.296-6.521c-0.278-1.056-0.3-2.111-0.003-3.259
					c0.456-1.612,0.664-3.281,0.969-4.927C460.828,276.978,460.883,276.667,460.953,276.273z"/>
				<g>
					<path fill="#C1C1C1" d="M440.021,249.088c0.431,0.183,0.802,0.411,1.2,0.495c0.416,0.089,0.959,0.198,1.389,0.228
						c6.706,0.458,7.102,0.485,13.808,0.943c0.633,0.042,1.09,0.413,1.517,0.895c0.308,0.348,0.597,0.725,0.961,1.175
						c0.263-0.924,0.212-1.768,0.294-2.587l0.197-2.543c0.083-0.839,0.066-1.682,0.108-2.784c0.487,0.625,0.885,1.049,1.196,1.557
						c0.827,1.36,1.51,2.768,2.267,4.176c0.317,0.599,0.397,1.247,0.336,1.99l-0.453,5.71l-0.704,5.685
						c-0.119,0.968-0.369,1.931-0.136,2.916l-0.149,0.083c-0.326-0.531-0.694-1.025-0.97-1.593
						c-0.688-1.456-1.381-2.924-2.071-4.385c-0.371-0.773-0.483-1.594-0.285-2.508c0.07-0.326,0.094-0.665,0.119-1.076
						c-0.363-0.059-0.632-0.117-0.903-0.143c-5.704-0.562-5.115-0.503-10.82-1.066c-0.528-0.051-2.818-0.1-3.329-0.988
						c-1.37-1.735-2.477-3.659-3.423-5.674C440.127,249.511,440.038,249.222,440.021,249.088z"/>
					<path fill="#C1C1C1" d="M466.33,276.028c-0.375-0.7-0.718-1.213-0.961-1.801c-0.679-1.681-1.36-3.367-2.044-5.06
						c-0.512-1.207-0.603-2.508-0.422-3.909c0.964-6.697,1.456-13.452,1.779-20.206c0.014-0.5,0.027-0.998,0.046-1.707
						c0.441,0.58,0.819,0.996,1.116,1.492c0.831,1.385,1.637,2.819,2.356,4.246c0.376,0.723,0.459,1.522,0.389,2.411
						c-0.426,6.782-1.269,13.53-2.281,20.246c-0.233,1.311-0.444,2.589,0.046,3.795C466.383,275.601,466.349,275.713,466.33,276.028
						z"/>
				</g>
				<g>
					<path fill="#C1C1C1" d="M458.655,221.263c0.824,1.004,1.669,1.993,2.467,3.051c0.602,0.777,1.094,1.622,1.576,2.479
						c0.166,0.294,0.278,0.685,0.312,1.047c0.43,5.124,0.542,7.094,0.348,12.242c-0.004,0.16-0.001,0.321-0.016,0.48
						c-0.092,0.949-0.488,1.394-1.289,1.38l-5.325-0.138l-9.424-0.104c-2.634,0-3.511-0.185-3.765-0.475
						c-1.409-1.605-2.566-3.393-3.618-5.27c-0.055-0.092-0.215-0.58-0.265-0.714c2.17,0.509,7.457,0.347,10.878,0.284l7.369-0.156
						c0.915-0.021,1.227-0.403,1.204-1.544c-0.084-3.611-0.096-4.092-0.18-7.702c-0.005-0.972-0.239-1.931-0.332-2.897
						c-0.069-0.609-0.091-1.223-0.135-1.835L458.655,221.263z"/>
					<path fill="#C1C1C1" d="M464.674,222.357c0.528,0.622,1.084,1.214,1.576,1.887c0.869,1.161,1.573,2.386,2.358,3.603
						c0.298,0.474,0.419,1.011,0.432,1.634c0.043,3.132,0.165,5.445,0.116,7.759c-0.069,2.313-0.139,4.626-0.232,7.756
						c-0.045,1.063,0.079,2.001,0.435,2.915c0.05,0.129,0.051,0.29-0.029,0.513c-0.353-0.523-0.742-1.006-1.083-1.569
						c-0.806-1.405-1.616-2.817-2.427-4.23c-0.177-0.31-0.331-0.65-0.451-1.001c-0.37-1.078-0.581-1.955-0.516-3.391
						c0.009-0.247,0.02-0.512,0.03-0.77c0.059-2.864-0.071-4.926-0.091-6.987c-0.08-2.06-0.018-4.126-0.237-6.983l-0.073-1.027
						L464.674,222.357z"/>
				</g>
				<path fill="#C1C1C1" d="M446.482,210.624c-0.494-0.448-0.95-0.787-1.332-1.214c-1.082-1.225-2.167-2.456-3.254-3.688
					c-0.57-0.615-0.871-1.356-1.018-2.241c-0.632-3.651-0.92-5.888-1.403-8.088c-0.487-2.198-0.974-4.397-1.775-8.016
					c-0.379-1.601-0.872-3.517-1.841-4.919c0.039-0.042,0.329,0.157,0.367,0.115c0.462,0.299,0.953,0.555,1.383,0.912
					c1.148,0.962,2.333,1.952,3.419,3.002c0.717,0.701,1.18,1.595,1.427,2.628l0.062,0.285c0.194,0.985,1.919,0.43,2.089,0.393
					l14.631-3.27c0.376-0.086,0.708-0.07,1.036,0.169c2.186,1.616,4.281,3.621,6.01,5.994c0.048,0.066,0.063,0.172,0.141,0.398
					c-0.251-0.154-0.446-0.22-0.589-0.371c-0.455-0.477-0.924-0.496-1.452-0.394l-14.573,2.803c-0.475,0.092-1.148,0.362-2.007-0.12
					c-0.416-0.259-1.891-1.537-2.98-2.5c-0.627-0.555-1.308-1.267-2.035-1.944c0.03,0.319,0.111,0.599,0.145,0.754
					c0.335,1.573,0.708,3.139,1.018,4.717l0.794,4.76c0.088,0.536,0.307,0.835,0.733,1.055c0.794,0.41,1.609,0.452,2.403,0.33
					l13.829-2.196c0.025-0.005,0.054,0,0.074-0.014c0.849-0.194,1.448,0.067,2.101,0.651c1.602,1.403,2.97,3.067,4.213,4.881
					c0.139,0.199,0.263,0.419,0.386,0.637c0.024,0.042,0.009,0.117,0.017,0.29c-0.615-0.703-1.256-0.44-1.886-0.359
					c-4.504,0.58-9.013,1.12-13.506,1.777c-1.559,0.227-2.887-0.326-4.067-1.424c-1.083-1.037-2.174-2.207-3.272-3.297
					c-0.185-0.192-0.371-0.384-0.687-0.71c0.052,0.458,0.068,0.711,0.111,0.961c0.487,2.788,0.409,2.657,0.78,5.462
					C446.049,209.398,446.284,209.94,446.482,210.624z"/>
			</g>
			<g>
				<path fill="#CE9549" d="M426.798,305.356c0.729,0.77,0.793,0.872,1.847,0.023c1.32-1.12,2.487-2.502,3.728-3.795
					c0.215-0.224,0.411-0.476,0.641-0.678c0.38-0.335,1.039-0.266,1.254,0.192c0.514,1.098,1.026,2.211,1.441,3.383
					c0.446,1.262,0.791,2.591,1.155,3.916c0.104,0.357,0.102,0.731,0.158,1.164c-0.282-0.148-0.491-0.375-0.678-0.328
					c-0.322,0.08-0.716,0.247-0.927,0.519c-1.102,1.417-2.462,2.459-3.723,3.607c-0.37,0.337-0.792,0.615-1.215,0.846
					c-0.516,0.28-0.969,0.137-1.189-0.42c-0.486-1.223-0.975-2.442-1.365-3.695c-0.405-1.297-0.697-2.636-1.031-3.944
					C426.83,305.893,426.829,305.618,426.798,305.356z"/>
				<path fill="#CE9549" d="M442.471,316.192c0.749,0.705,1.236,0.061,1.778-0.48c0.697-0.694,1.426-1.353,2.158-2.008
					c0.797-0.7,1.584-1.397,2.336-2.101c0.513-0.467,0.825-0.443,1.08,0.181c0.489,1.174,0.944,2.36,1.246,3.59
					c0.363,1.413,0.61,2.897,0.887,4.373c0.046,0.246,0.028,0.522,0.044,0.911c-0.644-0.562-1.112,0.119-1.556,0.479
					c-0.82,0.667-1.588,1.435-2.369,2.164c-0.729,0.676-1.411,1.394-2.2,2.019c-0.597,0.491-1.134,0.392-1.341-0.292
					c-0.363-1.26-0.783-2.561-1.123-3.88c-0.338-1.318-0.584-2.675-0.863-4.004C442.498,316.886,442.504,316.605,442.471,316.192z"
					/>
				<path fill="#CE9549" d="M441.5,305.639c0.156,0.276,0.322,0.502,0.428,0.767c0.903,2.284,1.741,4.688,2.128,7.19
					c0.097,0.565-0.037,0.944-0.486,1.309c-1.144,0.929-2.135,2.045-3.087,3.214c-0.51,0.625-1.118,1.161-1.73,1.632
					c-0.168,0.13-0.566-0.028-0.769-0.191c-0.193-0.156-0.299-0.476-0.395-0.752c-0.856-2.48-1.61-4.974-2.052-7.582
					c-0.04-0.238-0.041-0.489-0.072-0.881c0.166,0.173,0.272,0.232,0.309,0.331c0.184,0.497,0.479,0.476,0.846,0.129
					c0.498-0.469,1.053-0.892,1.477-1.439C439.102,307.984,440.24,306.811,441.5,305.639z"/>
			</g>
		</g>
		<g>
			<g>
				<g>
					<path fill="#C1C1C1" d="M425.512,109.539c2.989,1.292,5.755,3.061,8.504,5.009l2.431,1.765c1.294,0.959,2.309,2.273,3.19,3.65
						c0.707,1.061,1.365,2.181,1.934,3.327c0.622,1.251,0.892,2.586,1.011,3.891c0.189,1.763-0.051,3.472-0.567,5.022
						c-0.274,0.816-0.361,0.909-1.169,0.493c-1.736-0.916-3.5-1.815-5.297-2.724c-0.602-0.312-1.044-0.381-1.572-0.096
						c-8.017,4.314-3.783,2.036-11.801,6.348c-0.577,0.31-1.162,0.622-1.782,0.837c-0.791,0.274-1.673,0.158-2.489-0.098
						c-2.108-0.663-4.094-1.665-5.996-2.819c-0.061-0.037-0.097-0.125-0.242-0.291c0.497,0.004,0.884,0,1.284,0.038
						c0.455,0.045,0.853-0.043,1.244-0.266c8.148-4.594,4.177-2.356,12.325-6.95c0.485-0.276,0.985-0.529,1.445-0.845
						c0.325-0.223,0.643-0.248,1.036-0.054l4.892,2.446c0.332,0.181,0.667,0.364,1.099,0.6c0.15-0.421,0.336-0.777,0.408-1.184
						c0.293-1.675,0.426-3.402,0.108-5.265c-0.3-1.977-1.299-3.667-2.445-5.283c-0.75-1.045-1.541-2.11-2.451-2.955
						c-1.114-1.01-2.273-1.914-3.551-2.647C425.402,110.504,424.84,109.239,425.512,109.539z"/>
					<path fill="#C1C1C1" d="M429.577,118.232c-0.028,0.039-0.044,0.08-0.054,0.077c-0.95-0.351-1.567,0.179-2.23,0.585
						c-4.839,2.968-5.366,3.29-10.205,6.259c-0.604,0.37-1.195,0.768-1.828,1.085c-0.892,0.446-1.915,0.466-2.908,0.213
						c-2.046-0.504-3.898-1.426-5.877-2.332c-0.133-0.064-0.249-0.178-0.52-0.375c0.566-0.053,0.965-0.123,1.374-0.119
						c0.664,0.007,1.213-0.239,1.726-0.574c5.425-3.557,6.62-4.34,12.045-7.897c0.434-0.286,0.876-0.377,1.426-0.235
						c2.38,0.646,4.633,1.751,6.883,3.135C429.471,118.094,429.522,118.174,429.577,118.232z"/>
				</g>
				<g>
					<path fill="#C1C1C1" d="M367.072,67.409c0.604,0.055,0.743-0.283,0.804-0.756c0.191-1.515,0.381-3.024,0.571-4.535l0.118-0.856
						c0.036-0.326,0.213-0.488,0.582-0.509c2.251-0.157,4.465,0.069,6.751,0.534c0.11,0.023,0.22,0.086,0.397,0.157
						c-0.32,2.083-0.636,4.141-0.951,6.201c-0.072,0.454-0.425,0.55-0.807,0.598s-0.781,0.064-1.177,0.029l-5.507-0.49
						c-0.238-0.021-0.481-0.12-0.722-0.182L367.072,67.409z"/>
					<path fill="#C1C1C1" d="M371.381,73.16c0.151-0.053,0.295,0.005,0.431,0.006c2.024,0.016,4.057,0.06,6.045,0.196
						c1.715,0.096,3.346-0.156,4.962-0.483c0.915-0.186,1.404-0.848,1.71-1.626c0.196-0.496,0.207-1.09,0.297-1.644
						c0.443-2.741,0.864-5.511,1.216-8.32c0.155-1.173,0.134-2.328,0.28-3.475c0.088-0.715-0.019-1.546,0.693-2.067
						c-0.255-0.105-0.373-0.172-0.49-0.2c-2.412-0.562-4.767-0.841-7.066-0.858c-0.461-0.004-0.714,0.216-0.803,0.609
						c-0.063,0.284-0.118,0.572-0.137,0.87l-0.162,2.843c-0.102,1.264-0.24,2.515-0.374,3.763l-0.275,2.462L377.012,70
						c-0.117,0.775-0.531,1.388-1.244,1.634c-1.547,0.534-3.205,0.774-4.943,0.677c-0.442-0.025-0.818-0.192-1.181-0.502
						c-0.633-0.542-1.295-1.053-1.944-1.578c-0.496-0.401-1.028-0.694-1.637-0.791c-2.067-0.327-4.191-0.349-6.202-0.168
						c-0.135,0.012-0.254,0.093-0.363,0.136c0.468,0.34,0.902,0.635,1.311,0.957c0.569,0.467,1.569,1.138,2.686,2.031
						c1.121,0.89,2.422,1.924,3.717,2.953c1.299,1.025,2.592,2.046,3.695,2.915c1.047,0.934,1.912,1.706,2.417,2.157
						c0.559,0.521,1.176,0.794,1.888,0.966c2.434,0.582,5.944,0.321,5.944,0.321c-1.56-1.496-3.158-2.865-4.776-4.257
						c-0.805-0.701-1.615-1.407-2.441-2.126C373.105,74.618,372.255,73.899,371.381,73.16z"/>
				</g>
				<g>
					<path fill="#C1C1C1" d="M320.838,56.542l0.752-0.368c0.808-0.355,1.35-0.923,1.775-1.659c2.257-3.896,3.932-8.063,5.915-12.086
						c1.495-3.025,2.91-6.088,4.348-9.138c0.226-0.48,0.423-0.976,0.579-1.485c0.129-0.419,0.402-0.684,0.862-0.842
						c2.69-0.957,5.522-1.181,8.553-1.187c0.203,0.001,0.449,0.049,0.637,0.147c2.053,1.098,4.152,2.111,6.16,3.292l6.023,3.543
						c0.874,0.514,1.762,1.028,2.683,1.44c0.938,0.421,1.885,0.786,2.863,1.181c-0.021,0.011-0.086,0.08-0.173,0.088
						c-2.421,0.205-4.948,0.289-7.537,0.064c-0.838-0.076-1.658-0.303-2.444-0.697c-1.032-0.517-2.072-1.02-3.075-1.591
						c-2.166-1.275-4.44-2.348-6.653-3.534c-0.309-0.16-0.618-0.32-1.022-0.529c-0.195,0.344-0.365,0.617-0.511,0.903
						c-3.063,5.984-6.161,11.948-9.156,17.965c-1.019,2.045-2.579,3.366-4.955,3.783c-1.624,0.283-3.266,0.569-4.901,0.854
						c-0.206,0.038-0.432,0.014-0.648,0.019L320.838,56.542z"/>
					<path fill="#C1C1C1" d="M334.903,24.98c-0.199,0.43-0.324,0.699-0.448,0.969l-8.199,17.737
						c-0.369,0.801-0.654,1.641-0.977,2.463c-0.115,0.292-0.288,0.508-0.646,0.613c-1.867,0.552-3.774,0.918-5.714,1.13
						c-0.154,0.016-1.529,0.047-1.752,0.029c0.958-0.41,1.23-1.53,1.52-2.215l8.154-19.088c0.184-0.432,0.481-0.664,0.997-0.789
						c1.881-0.458,3.86-0.714,5.903-0.848C334.038,24.963,334.347,24.98,334.903,24.98z"/>
					<path fill="#C1C1C1" d="M329.508,59.449c0.599-0.347,1.127-0.623,1.619-0.942c0.233-0.151,0.44-0.365,0.583-0.594
						c0.376-0.602,0.726-1.22,1.059-1.847l8.141-15.406c0.37-0.711,0.947-1.184,1.723-1.376c1.123-0.277,2.29-0.464,3.485-0.562
						c1.174-0.06,2.38-0.039,3.607,0.046c0.081,0.005,0.17,0.063,0.321,0.12c-0.071,0.096-0.101,0.212-0.183,0.235
						c-0.721,0.207-1.04,0.742-1.357,1.303l-8.754,15.416c-0.3,0.527-0.607,1.06-1.001,1.518c-0.541,0.631-1.329,0.995-2.15,1.206
						c-2.105,0.505-4.391,0.867-6.636,0.944C329.847,59.515,329.719,59.478,329.508,59.449z"/>
				</g>
				<path fill="#C1C1C1" d="M421.815,102.777c-0.301,0.186-0.541,0.316-0.76,0.474c-6.428,4.619-4.639,3.333-11.066,7.953
					c-0.659,0.474-1.316,0.951-2.008,1.377c-0.87,0.536-1.919,0.713-2.965,0.558c-2.316-0.343-4.551-1.134-6.725-2.064
					c-0.089-0.038-0.167-0.115-0.358-0.249c0.43-0.022,0.733-0.037,1.035-0.052c1.074-0.073,1.949-0.517,2.78-1.154
					c7.837-5.953,7.616-5.785,15.452-11.739c0.371-0.282,0.739-0.369,1.258-0.232c2.025,0.535,4.038,1.32,6.048,2.263
					c0.603,0.275,1.06,0.649,1.438,1.314c0.693,1.183,1.53,2.287,2.305,3.426l3.483,5.125c0.72,1.155,1.288,2.459,2.604,3.039
					l-0.071,0.159c-0.14-0.021-0.282-0.019-0.42-0.069c-2.134-0.752-4.12-1.81-6.229-2.905c-0.968-0.522-1.759-1.227-2.398-2.225
					c-0.902-1.408-1.877-2.772-2.82-4.153C422.221,103.364,422.042,103.106,421.815,102.777z"/>
				<g>
					<path fill="#C1C1C1" d="M387.664,99.012c0.433-0.184,0.857-0.296,1.195-0.524c0.354-0.239,0.81-0.554,1.129-0.843
						c4.985-4.507,5.28-4.774,10.265-9.281c0.47-0.426,1.058-0.502,1.707-0.479c0.469,0.016,0.944,0.067,1.525,0.112
						c-0.494-0.82-1.146-1.36-1.689-1.98l-1.724-1.88c-0.571-0.62-1.141-1.239-1.887-2.049c0.774,0.096,1.346,0.113,1.917,0.254
						c1.526,0.375,3.06,0.817,4.606,1.244c0.657,0.182,1.186,0.568,1.688,1.119c2.568,2.826,4.923,5.838,7.404,8.74
						c0.637,0.737,1.15,1.592,1.988,2.134l-0.045,0.167c-0.597-0.143-1.198-0.228-1.786-0.434c-1.542-0.503-3.095-1.009-4.642-1.514
						c-0.823-0.262-1.502-0.743-2.035-1.509c-0.19-0.273-0.426-0.518-0.69-0.835c-0.294,0.221-0.521,0.373-0.728,0.549
						c-4.365,3.716-3.914,3.332-8.279,7.047c-0.402,0.345-2.033,1.963-3.006,1.696c-1.083-0.124-2.139-0.342-3.208-0.6
						c-1.088-0.241-2.165-0.545-3.233-0.893C388.047,99.224,387.774,99.09,387.664,99.012z"/>
					<path fill="#C1C1C1" d="M425.353,98.747c-0.773-0.208-1.386-0.313-1.985-0.541c-1.717-0.655-3.42-1.319-5.106-2.007
						c-1.203-0.485-2.156-1.359-3.028-2.469l-6.488-7.799c-2.248-2.524-4.569-4.988-6.852-7.481
						c-0.342-0.364-0.669-0.741-1.166-1.248c0.727,0.082,1.268,0.118,1.825,0.256c1.541,0.393,3.093,0.847,4.654,1.289
						c0.789,0.224,1.43,0.71,2.032,1.369c2.345,2.461,4.466,5.116,6.65,7.716c1.079,1.311,2.194,2.594,3.239,3.931l3.067,4.066
						c0.8,1.064,1.591,2.089,2.815,2.561C425.077,98.417,425.135,98.518,425.353,98.747z"/>
				</g>
				<g>
					<path fill="#C1C1C1" d="M380.612,66.239c1.299,0.098,2.559,0.223,3.857,0.403c0.95,0.137,1.914,0.354,2.876,0.592
						c0.331,0.082,0.694,0.267,0.982,0.489c4.116,3.109,5.381,4.638,9.066,8.236c0.114,0.113,0.234,0.22,0.339,0.339
						c0.63,0.714,0.681,1.304,0.114,1.869l-3.797,3.737l-6.617,6.707c-1.828,1.894-2.571,2.399-2.96,2.385
						c-2.15-0.084-4.271-0.462-6.362-0.998c-0.103-0.026-0.553-0.261-0.681-0.323c1.86-1.195,5.419-5.117,7.751-7.623l5.008-5.414
						c0.622-0.674,0.57-1.172-0.241-1.974c-2.604-2.502-3.02-2.762-5.711-5.171c-0.729-0.642-1.528-1.2-2.28-1.815l-1.386-1.209
						L380.612,66.239z"/>
					<path fill="#C1C1C1" d="M385.563,62.687c0.801,0.067,1.601,0.092,2.413,0.221c1.403,0.222,2.821,0.512,4.245,0.791
						c0.553,0.108,1.029,0.389,1.494,0.806c2.366,2.055,3.967,3.731,5.627,5.342c1.631,1.641,3.335,3.211,5.463,5.509
						c0.716,0.787,1.438,1.386,2.349,1.76c0.128,0.052,0.247,0.162,0.355,0.372c-0.628-0.103-1.253-0.151-1.877-0.314
						c-1.57-0.393-3.069-0.881-4.67-1.246c-0.35-0.085-0.705-0.207-1.045-0.36c-1.043-0.47-1.832-0.918-2.835-1.946
						c-0.174-0.176-0.36-0.364-0.541-0.546c-4.033-4.074-6.005-5.651-10.263-9.485l-0.769-0.685L385.563,62.687z"/>
				</g>
				<path fill="#C1C1C1" d="M364.492,67.631c-0.671,0.052-1.236,0.151-1.813,0.137c-1.644-0.057-3.293-0.114-4.945-0.172
					c-0.825-0.035-1.553-0.351-2.276-0.882c-3.033-2.126-4.96-3.298-6.828-4.551c-0.946-0.609-1.874-1.249-2.989-1.929
					c-1.132-0.655-2.42-1.402-4.023-2.332c-1.424-0.825-3.097-1.883-4.765-2.183c-0.003-0.058,0.338-0.122,0.335-0.18
					c0.531-0.116,1.05-0.282,1.6-0.335c1.479-0.14,2.978-0.247,4.496-0.315c1.012-0.046,1.988,0.222,2.916,0.74l0.251,0.147
					c0.856,0.524,1.651-1.099,1.742-1.249l7.793-12.806c0.199-0.329,0.441-0.56,0.845-0.636c2.712-0.506,5.497-0.443,8.445-0.099
					c0.082,0.01,0.17,0.071,0.389,0.169c-0.287,0.077-0.471,0.172-0.681,0.174c-0.665,0.004-1.006,0.331-1.298,0.782l-8.091,12.44
					c-0.263,0.406-0.534,1.077-1.484,1.371c-0.475,0.118-2.392,0.253-3.824,0.341c-0.826,0.053-1.788,0.013-2.798,0.099
					c0.255,0.193,0.516,0.324,0.653,0.404l8.074,5.286c0.451,0.304,0.83,0.335,1.276,0.193c0.837-0.273,1.429-0.827,1.891-1.483
					l8.014-11.482c0.014-0.021,0.038-0.038,0.042-0.063c0.45-0.747,1.049-0.989,1.911-1.039c2.078-0.118,4.232,0.047,6.432,0.368
					c0.242,0.036,0.488,0.096,0.733,0.155c0.046,0.011,0.091,0.074,0.223,0.185c-0.94-0.035-1.194,0.607-1.574,1.117
					c-2.708,3.645-5.448,7.267-8.094,10.957c-0.918,1.28-2.245,1.863-3.868,1.969c-1.526,0.1-3.087,0.016-4.614,0.024
					c-0.262-0.005-0.526-0.011-0.974-0.019c0.357,0.292,0.547,0.462,0.752,0.611c2.291,1.66,2.177,1.578,4.468,3.238
					C363.294,67.111,363.853,67.309,364.492,67.631z"/>
			</g>
			<g>
				<path fill="#CE9549" d="M418.974,147.607c1.077,0.001,1.182,0.032,1.292-1.312c0.142-1.744-0.007-3.562-0.043-5.371
					c0-0.316-0.058-0.626-0.049-0.929c0.012-0.501,0.517-0.926,1.003-0.767c1.185,0.371,2.29,0.8,3.411,1.321
					c1.197,0.566,2.368,1.251,3.552,1.919c0.317,0.179,0.608,0.429,0.965,0.685c-0.304,0.101-0.616,0.096-0.708,0.26
					c-0.161,0.286-0.306,0.682-0.249,1.018c0.295,1.758,0.167,3.428,0.062,5.159c-0.023,0.504-0.123,1.004-0.258,1.472
					c-0.164,0.569-0.583,0.796-1.13,0.566c-1.201-0.506-2.396-1.009-3.553-1.603c-1.242-0.595-2.44-1.298-3.643-1.951
					C419.397,147.948,419.191,147.763,418.974,147.607z"/>
				<path fill="#CE9549" d="M437.753,143.787c1.019-0.046,0.917-0.856,0.875-1.608c-0.038-0.974-0.029-1.945-0.014-2.918
					c0.016-1.044,0.049-2.091,0.096-3.138c0.032-0.7,0.266-0.909,0.884-0.654c1.156,0.476,2.32,0.975,3.456,1.592
					c1.294,0.707,2.577,1.541,3.847,2.359c0.206,0.14,0.387,0.346,0.672,0.607c-0.847,0.072-0.695,0.888-0.752,1.46
					c-0.104,1.061-0.102,2.155-0.135,3.231c-0.031,1-0.024,2.005-0.079,2.99c-0.042,0.763-0.482,1.08-1.133,0.76
					c-1.206-0.593-2.404-1.207-3.57-1.888c-1.165-0.68-2.292-1.454-3.423-2.185C438.259,144.254,438.066,144.051,437.753,143.787z"
					/>
				<path fill="#CE9549" d="M429.456,137.172c0.302,0.081,0.577,0.12,0.837,0.23c2.242,0.948,4.466,2.057,6.63,3.469
					c0.486,0.317,0.676,0.672,0.639,1.243c-0.067,1.442-0.011,2.958,0.152,4.463c0.082,0.808,0.033,1.623-0.064,2.396
					c-0.027,0.212-0.416,0.39-0.674,0.422c-0.245,0.03-0.545-0.117-0.806-0.242c-2.373-1.107-4.559-2.355-6.845-3.799
					c-0.204-0.134-0.391-0.304-0.705-0.55c0.242,0,0.359-0.036,0.459,0.005c0.496,0.207,0.682-0.017,0.676-0.517
					c-0.008-0.677,0.058-1.363-0.058-2.04C429.407,140.562,429.401,138.905,429.456,137.172z"/>
			</g>
		</g>
	</g>
	<g>
		<path fill="#DDDDDD" d="M167.01,22.574l-2.294,0.076l-0.148-0.493l5.999-1.792c2.775-0.829,5.797-0.756,6.705,2.288
			c0.742,2.484-0.844,5.007-4.114,5.982l-0.694,0.208l-0.186-0.627c2.694-1.023,3.416-2.848,2.774-4.998
			c-0.614-2.059-2.197-2.708-4.302-2.079c-0.626,0.187-1.233,0.441-1.699,0.678l3.891,13.028l2.517-0.142l0.147,0.493l-6.558,1.959
			l-0.148-0.493l1.959-1.195L167.01,22.574z"/>
		<path fill="#DDDDDD" d="M180.617,25.509c-0.989-4.449,0.795-8.485,5.768-9.59c5.11-1.137,8.112,1.812,9.121,6.351
			c0.988,4.449-0.791,8.507-5.764,9.613C184.632,33.019,181.626,30.049,180.617,25.509z M193.248,22.773
			c-1.07-4.815-3.587-6.768-7.009-6.007c-3.125,0.694-4.285,4.089-3.363,8.24c1.07,4.814,3.591,6.791,7.013,6.03
			C193.015,30.342,194.171,26.925,193.248,22.773z"/>
		<path fill="#DDDDDD" d="M198.614,14.955l-2.28-0.257l-0.074-0.508l6.239-0.912c3.421-0.501,5.897,0.13,6.316,2.996
			c0.294,2.009-0.811,3.824-4.246,4.87c0.782,0.027,2.115,0.092,3.298,1.57l2.892,3.638c0.577,0.718,1.139,0.848,2.156,0.7
			l0.075,0.508c-0.352,0.17-1.155,0.5-2.102,0.638c-1.017,0.148-1.67-0.111-2.332-0.935l-3.652-4.635
			c-0.611-0.784-1.226-1.119-2.266-0.967l-0.832,0.122l0.903,6.171l2.349,0.247l0.075,0.508l-6.61,0.967l-0.075-0.508l2.112-0.898
			L198.614,14.955z M201.689,20.973l1.71-0.249c2.196-0.321,3.458-2.016,3.137-4.212c-0.28-1.918-1.73-2.793-3.971-2.464
			c-0.648,0.094-1.327,0.287-1.822,0.455L201.689,20.973z"/>
		<path fill="#DDDDDD" d="M219.833,12.227l1.053,13.648l2.42,0.398l0.04,0.512l-6.917,0.533l-0.04-0.511l2.331-0.766l-1.054-13.648
			l-3.889,0.301l-0.873,3.254l-0.606,0.047l-0.312-4.029l13.392-1.033l0.312,4.029l-0.605,0.046l-1.362-3.081L219.833,12.227z"/>
		<path fill="#DDDDDD" d="M235.955,20.794l-5.352,0.063l-1.651,4.575l2.296,0.534l0.005,0.491l-5.371,0.063l-0.006-0.491
			l1.932-0.606l5.64-14.973l0.679-0.007l5.83,14.884l1.968,0.491l0.006,0.514l-6.588,0.077l-0.006-0.514l2.401-0.588L235.955,20.794
			z M230.92,19.99l4.696-0.056l-2.409-6.187L230.92,19.99z"/>
		<path fill="#DDDDDD" d="M250.13,26.332l-0.031,0.513l-6.83-0.403l0.03-0.513l2.249-0.452l0.794-13.429l-2.18-0.714l0.03-0.513
			l11.517,0.682l-0.236,3.963l-0.605-0.036l-0.959-3.169l-5.385-0.318l-0.365,6.155l3.054,0.181l0.953-2.26l0.513,0.03l-0.323,5.455
			l-0.511-0.029l-0.68-2.356l-3.054-0.18l-0.394,6.667L250.13,26.332z"/>
		<path fill="#DDDDDD" d="M257.173,19.378c0.582-4.518,3.629-7.706,8.682-7.058c5.192,0.669,7.012,4.459,6.419,9.07
			c-0.58,4.519-3.631,7.729-8.684,7.081C258.398,27.804,256.58,23.99,257.173,19.378z M269.979,21.096
			c0.628-4.89-1.075-7.583-4.551-8.029c-3.175-0.408-5.417,2.389-5.961,6.606c-0.628,4.889,1.071,7.605,4.547,8.052
			C267.189,28.133,269.437,25.314,269.979,21.096z"/>
		<path fill="#DDDDDD" d="M277.081,29.418l5.382,1.077l2.217-3.462l0.526,0.105l-1.127,4.563l-11.473-2.295l0.101-0.504l2.29-0.138
			l2.638-13.19l-2.061-1.007l0.102-0.504l6.641,1.328l-0.102,0.504L279.764,16L277.081,29.418z"/>
		<path fill="#DDDDDD" d="M290.421,32.189l2.007,1.111l-0.127,0.498l-6.405-1.624l0.125-0.499l2.294-0.021l3.305-13.041
			l-2.007-1.111l0.126-0.497l6.406,1.624l-0.125,0.499l-2.294,0.02L290.421,32.189z"/>
		<path fill="#DDDDDD" d="M296.064,26.558c1.367-4.345,4.927-6.947,9.786-5.419c4.992,1.57,6.117,5.621,4.722,10.057
			c-1.367,4.345-4.935,6.969-9.794,5.442C295.788,35.067,294.669,30.993,296.064,26.558z M308.366,30.501
			c1.48-4.702,0.277-7.651-3.066-8.704c-3.054-0.96-5.755,1.398-7.031,5.453c-1.479,4.703-0.283,7.676,3.059,8.727
			C304.382,36.938,307.09,34.557,308.366,30.501z"/>
	</g>
</g>
</svg>
