<?xml version="1.0" encoding="utf-8"?>
<!-- Generator: Adobe Illustrator 17.0.0, SVG Export Plug-In . SVG Version: 6.00 Build 0)  -->
<!DOCTYPE svg PUBLIC "-//W3C//DTD SVG 1.1//EN" "http://www.w3.org/Graphics/SVG/1.1/DTD/svg11.dtd">
<svg version="1.1" xmlns="http://www.w3.org/2000/svg" xmlns:xlink="http://www.w3.org/1999/xlink" x="0px" y="0px"
	 width="471.463px" height="471.463px" viewBox="0 0 471.463 471.463" style="enable-background:new 0 0 471.463 471.463;"
	 xml:space="preserve">
<style type="text/css">
	.st0{fill:#F4D68C;}
	.st1{fill:#CE9549;}
</style>
<g id="Capa_2">
</g>
<g id="Capa_3">
	<g>
		<g>
			<g>
				<path class="st0" d="M293.417,246.381c-0.537,0.551-1.102,1.025-1.667,1.473c-0.453,0.361-0.903,0.72-1.385,1.009
					c-0.141,0.084-0.42,0.014-0.591-0.074c-0.164-0.084-0.295-0.266-0.395-0.431c-0.449-0.745-0.916-1.464-1.328-2.193l-1.447-2.375
					c-0.098-0.157-0.152-0.338-0.264-0.589c0.148,0.081,0.216,0.111,0.274,0.153c0.191,0.14,0.349,0.163,0.548-0.01l2.31-2.036
					c0.42-0.371,0.466-0.383,0.81,0.011c0.485,0.557,0.953,1.149,1.363,1.791c0.567,0.888,1.075,1.843,1.593,2.816
					C293.322,246.086,293.373,246.268,293.417,246.381z"/>
				<path class="st1" d="M291.839,238.359c-0.29,0.337-0.553,0.642-0.815,0.947c-0.215,0.238-0.428,0.478-0.668,0.683
					c-0.07,0.06-0.237,0.046-0.343,0.012c-0.102-0.032-0.198-0.122-0.274-0.206c-0.341-0.379-0.689-0.747-1.008-1.131
					c-0.344-0.413-0.659-0.84-0.982-1.253c-0.066-0.084-0.107-0.185-0.186-0.323c0.09,0.037,0.131,0.049,0.167,0.069
					c0.118,0.067,0.211,0.069,0.316-0.046l1.215-1.322c0.22-0.237,0.247-0.245,0.468-0.042c0.312,0.287,0.617,0.592,0.892,0.924
					c0.38,0.46,0.73,0.954,1.088,1.45C291.766,238.204,291.807,238.3,291.839,238.359z"/>
				<path class="st1" d="M289.579,251.615c-0.34,0.268-0.713,0.489-1.05,0.709c-0.279,0.174-0.558,0.35-0.851,0.486
					c-0.086,0.04-0.244-0.014-0.338-0.073c-0.09-0.056-0.157-0.165-0.206-0.264c-0.22-0.445-0.45-0.881-0.646-1.324
					c-0.202-0.475-0.458-0.982-0.678-1.462c-0.047-0.099-0.067-0.208-0.116-0.363c0.08,0.058,0.117,0.08,0.148,0.109
					c0.101,0.095,0.19,0.119,0.315,0.032l1.439-1.002c0.261-0.179,0.288-0.181,0.462,0.073c0.246,0.358,0.48,0.732,0.68,1.125
					c0.276,0.544,0.515,1.115,0.762,1.69C289.54,251.445,289.56,251.549,289.579,251.615z"/>
			</g>
			<g>
				<path class="st0" d="M286.864,263.987c-0.74,0.316-1.4,0.597-2.061,0.848c-0.532,0.202-1.06,0.404-1.598,0.527
					c-0.157,0.036-0.398-0.122-0.532-0.261c-0.128-0.134-0.198-0.351-0.243-0.543c-0.201-0.864-0.427-1.708-0.6-2.545l-0.494-2.662
					c-0.046-0.183-0.044-0.374-0.075-0.652c0.115,0.126,0.171,0.176,0.213,0.236c0.138,0.196,0.28,0.27,0.518,0.167l2.772-1.208
					c0.504-0.22,0.552-0.217,0.759,0.274c0.292,0.693,0.558,1.413,0.754,2.163c0.269,1.036,0.487,2.131,0.586,3.178
					C286.885,263.684,286.865,263.868,286.864,263.987z"/>
				<path class="st1" d="M288.033,255.91c-0.374,0.228-0.712,0.435-1.051,0.641c-0.295,0.149-0.591,0.299-0.898,0.408
					c-0.09,0.032-0.243-0.035-0.331-0.101c-0.085-0.063-0.141-0.177-0.181-0.28c-0.17-0.457-0.365-0.912-0.564-1.387
					c-0.202-0.507-0.375-1.018-0.558-1.517c-0.037-0.102-0.047-0.212-0.081-0.37c0.074,0.064,0.11,0.089,0.137,0.12
					c0.092,0.103,0.179,0.135,0.312,0.059l1.538-0.87c0.278-0.155,0.306-0.155,0.455,0.112c0.21,0.376,0.408,0.766,0.57,1.174
					c0.223,0.563,0.407,1.15,0.598,1.741C288.01,255.737,288.02,255.842,288.033,255.91z"/>
				<path class="st1" d="M281.507,267.662c-0.431,0.121-0.821,0.23-1.211,0.339c-0.313,0.08-0.625,0.162-0.94,0.2
					c-0.092,0.011-0.224-0.091-0.295-0.178c-0.068-0.083-0.098-0.21-0.115-0.321c-0.075-0.501-0.161-0.997-0.214-1.49
					c-0.057-0.531-0.084-1.057-0.124-1.576c-0.008-0.106,0.013-0.212,0.024-0.37c0.055,0.08,0.083,0.112,0.101,0.149
					c0.061,0.121,0.138,0.173,0.29,0.135c0.585-0.138,1.16-0.29,1.704-0.465c0.297-0.089,0.323-0.082,0.411,0.219
					c0.116,0.419,0.253,0.873,0.286,1.291c0.062,0.589,0.079,1.191,0.103,1.799C281.532,267.494,281.512,267.596,281.507,267.662z"
					/>
			</g>
			<g>
				<path class="st0" d="M274.959,278.504c-0.788,0.075-1.48,0.155-2.182,0.183c-0.583,0.001-1.163,0.002-1.724-0.071
					c-0.164-0.021-0.341-0.249-0.421-0.422c-0.077-0.167-0.068-0.389-0.044-0.579c0.112-0.853,0.196-1.694,0.27-2.581
					c0.096-0.936,0.234-1.847,0.339-2.743c0.021-0.182,0.092-0.355,0.162-0.619c0.066,0.154,0.101,0.219,0.12,0.287
					c0.063,0.226,0.173,0.342,0.44,0.33c1.006-0.05,2.071-0.075,3.051-0.205c0.536-0.057,0.58-0.038,0.627,0.503
					c0.073,0.77,0.104,1.55,0.012,2.287c-0.109,1.038-0.307,2.091-0.507,3.165C275.069,278.216,274.996,278.388,274.959,278.504z"/>
				<path class="st1" d="M278.682,271.243c-0.442,0.082-0.843,0.155-1.244,0.229c-0.321,0.052-0.641,0.105-0.96,0.115
					c-0.093,0.003-0.216-0.11-0.279-0.202c-0.06-0.088-0.079-0.217-0.086-0.328c-0.029-0.503-0.071-1.001-0.079-1.494
					c-0.009-0.53,0.012-1.054,0.019-1.571c0.001-0.105,0.033-0.209,0.058-0.364c0.048,0.084,0.073,0.118,0.088,0.156
					c0.05,0.125,0.123,0.183,0.278,0.159l1.701-0.352c0.306-0.062,0.331-0.053,0.392,0.253c0.086,0.432,0.156,0.872,0.186,1.318
					c0.058,0.629-0.003,1.206-0.029,1.815C278.723,271.078,278.694,271.177,278.682,271.243z"/>
				<path class="st1" d="M268.716,280.269c-0.438-0.013-0.835-0.025-1.231-0.037c-0.328-0.035-0.658-0.071-0.975-0.146
					c-0.093-0.022-0.184-0.162-0.222-0.265c-0.037-0.099-0.022-0.226,0.001-0.333c0.106-0.476,0.19-0.964,0.283-1.471
					c0.107-0.535,0.242-1.057,0.361-1.575c0.024-0.106,0.076-0.203,0.134-0.354c0.027,0.094,0.043,0.135,0.05,0.176
					c0.021,0.136,0.076,0.21,0.229,0.219l1.765,0.111c0.318,0.022,0.341,0.037,0.32,0.342c-0.029,0.43-0.076,0.865-0.164,1.294
					c-0.121,0.593-0.287,1.185-0.449,1.784C268.791,280.113,268.742,280.206,268.716,280.269z"/>
			</g>
			<g>
				<path class="st0" d="M259.01,288.417c-0.781-0.212-1.478-0.402-2.156-0.615c-0.546-0.172-1.089-0.343-1.591-0.58
					c-0.147-0.069-0.24-0.342-0.26-0.534c-0.019-0.184,0.06-0.397,0.143-0.574c0.374-0.798,0.716-1.595,1.096-2.354
					c0.407-0.822,0.861-1.57,1.226-2.439c0.077-0.171,0.197-0.319,0.344-0.555c0.013,0.17,0.026,0.243,0.023,0.315
					c-0.012,0.238,0.055,0.384,0.307,0.451l2.944,0.774c0.536,0.14,0.571,0.172,0.432,0.683c-0.197,0.721-0.432,1.447-0.74,2.153
					c-0.43,0.968-0.933,1.958-1.473,2.903C259.213,288.194,259.084,288.325,259.01,288.417z"/>
				<path class="st1" d="M264.87,282.72c-0.438-0.053-0.834-0.101-1.23-0.15c-0.316-0.047-0.628-0.087-0.932-0.178
					c-0.091-0.03-0.17-0.177-0.2-0.284c-0.027-0.1-0.002-0.226,0.025-0.339c0.127-0.498,0.242-0.996,0.385-1.479
					c0.154-0.52,0.334-1.024,0.499-1.526c0.034-0.102,0.094-0.194,0.166-0.338c0.019,0.096,0.032,0.137,0.034,0.179
					c0.009,0.137,0.058,0.215,0.211,0.238l1.759,0.273c0.317,0.051,0.338,0.068,0.291,0.368c-0.067,0.423-0.152,0.849-0.277,1.266
					c-0.173,0.576-0.391,1.147-0.606,1.725C264.959,282.572,264.901,282.66,264.87,282.72z"/>
				<path class="st1" d="M252.518,288.027c-0.415-0.174-0.792-0.333-1.168-0.491c-0.297-0.133-0.595-0.264-0.868-0.43
					c-0.08-0.049-0.121-0.211-0.123-0.322c-0.002-0.107,0.052-0.224,0.108-0.321c0.25-0.436,0.488-0.875,0.75-1.291
					c0.282-0.448,0.586-0.873,0.874-1.301c0.059-0.088,0.142-0.155,0.247-0.273c-0.005,0.098-0.004,0.139-0.011,0.18
					c-0.026,0.132,0.003,0.22,0.146,0.285l1.614,0.626c0.29,0.115,0.307,0.137,0.191,0.426c-0.164,0.408-0.346,0.816-0.564,1.205
					c-0.295,0.557-0.657,1.023-1.014,1.511C252.642,287.911,252.564,287.978,252.518,288.027z"/>
			</g>
			<g>
				<path class="st0" d="M240.682,292.524c-0.668-0.436-1.264-0.825-1.835-1.231c-0.459-0.327-0.917-0.652-1.314-1.027
					c-0.116-0.11-0.116-0.398-0.073-0.587c0.042-0.182,0.185-0.362,0.321-0.506c0.612-0.652,1.195-1.313,1.8-1.927
					c0.652-0.661,1.323-1.277,1.958-1.901c0.129-0.127,0.292-0.215,0.51-0.374c-0.043,0.161-0.055,0.233-0.082,0.298
					c-0.09,0.214-0.074,0.373,0.144,0.533c0.828,0.617,1.663,1.085,2.524,1.654c0.459,0.293,0.482,0.334,0.186,0.784
					c-0.419,0.634-0.875,1.262-1.395,1.849c-0.717,0.819-1.528,1.445-2.345,2.167C240.947,292.371,240.783,292.458,240.682,292.524z
					"/>
				<path class="st1" d="M248.09,289.134c-0.4-0.214-0.763-0.408-1.125-0.603c-0.286-0.161-0.572-0.321-0.83-0.513
					c-0.076-0.056-0.103-0.221-0.096-0.332c0.007-0.106,0.071-0.217,0.135-0.308c0.287-0.408,0.562-0.82,0.859-1.206
					c0.32-0.415,0.662-0.797,0.974-1.251c0.064-0.089,0.151-0.16,0.264-0.278c-0.013,0.098-0.014,0.142-0.025,0.182
					c-0.036,0.135-0.015,0.225,0.121,0.292l1.561,0.78c0.28,0.143,0.295,0.166,0.154,0.441c-0.199,0.389-0.415,0.775-0.667,1.14
					c-0.348,0.502-0.734,0.997-1.125,1.479C248.224,289.032,248.14,289.09,248.09,289.134z"/>
				<path class="st1" d="M234.677,290.063c-0.337-0.29-0.642-0.553-0.948-0.815c-0.239-0.215-0.478-0.428-0.683-0.668
					c-0.06-0.07-0.046-0.237-0.013-0.343c0.032-0.102,0.122-0.198,0.206-0.274c0.379-0.341,0.746-0.689,1.13-1.008
					c0.413-0.344,0.839-0.659,1.252-0.982c0.084-0.066,0.185-0.107,0.323-0.186c-0.037,0.09-0.049,0.131-0.069,0.167
					c-0.067,0.118-0.069,0.211,0.046,0.316l1.323,1.215c0.237,0.219,0.245,0.239,0.042,0.468c-0.287,0.312-0.591,0.617-0.923,0.892
					c-0.459,0.38-0.953,0.73-1.449,1.088C234.833,289.99,234.737,290.031,234.677,290.063z"/>
			</g>
			<g>
				<path class="st0" d="M222.017,290.536c-0.494-0.619-0.942-1.147-1.347-1.728c-0.319-0.488-0.638-0.973-0.883-1.483
					c-0.072-0.149,0.022-0.422,0.123-0.584c0.098-0.155,0.288-0.269,0.461-0.353c0.776-0.376,1.524-0.756,2.307-1.182
					c0.836-0.433,1.674-0.819,2.482-1.223c0.164-0.082,0.348-0.118,0.607-0.204c-0.093,0.14-0.128,0.205-0.174,0.258
					c-0.155,0.176-0.191,0.332-0.035,0.548c0.596,0.794,1.191,1.714,1.839,2.452c0.341,0.415,0.35,0.461-0.077,0.8
					c-0.607,0.497-1.235,0.912-1.905,1.249c-0.928,0.479-1.919,0.891-2.929,1.313C222.319,290.471,222.134,290.504,222.017,290.536z
					"/>
				<path class="st1" d="M230.136,289.663c-0.311-0.323-0.593-0.616-0.874-0.909c-0.219-0.238-0.44-0.476-0.624-0.735
					c-0.054-0.076-0.026-0.241,0.016-0.344c0.041-0.099,0.138-0.186,0.228-0.253c0.405-0.302,0.799-0.612,1.206-0.892
					c0.439-0.301,0.888-0.573,1.325-0.853c0.089-0.057,0.192-0.088,0.336-0.153c-0.044,0.086-0.059,0.126-0.082,0.16
					c-0.077,0.111-0.086,0.203,0.02,0.319c0.399,0.461,0.811,0.849,1.223,1.259c0.22,0.219,0.226,0.245,0.004,0.466
					c-0.314,0.311-0.645,0.617-1.001,0.887c-0.488,0.332-1.008,0.632-1.531,0.94C230.297,289.606,230.198,289.637,230.136,289.663z"
					/>
				<path class="st1" d="M217.124,286.272c-0.228-0.374-0.435-0.713-0.642-1.051c-0.153-0.286-0.3-0.589-0.411-0.893
					c-0.032-0.09,0.035-0.243,0.101-0.331c0.063-0.085,0.177-0.141,0.279-0.181c0.455-0.167,0.914-0.371,1.388-0.57
					c0.506-0.202,1.017-0.375,1.516-0.558c0.102-0.037,0.212-0.047,0.37-0.081c-0.064,0.074-0.089,0.11-0.12,0.137
					c-0.103,0.092-0.134,0.179-0.059,0.312l0.871,1.539c0.155,0.278,0.155,0.306-0.112,0.455c-0.376,0.211-0.766,0.409-1.173,0.57
					c-0.563,0.223-1.149,0.407-1.74,0.598C217.296,286.249,217.191,286.259,217.124,286.272z"/>
			</g>
			<g>
				<path class="st0" d="M204.998,282.588c-0.248-0.77-0.47-1.457-0.661-2.142c-0.154-0.551-0.308-1.1-0.383-1.649
					c-0.022-0.161,0.155-0.388,0.305-0.51c0.144-0.117,0.365-0.167,0.559-0.194c0.872-0.123,1.728-0.271,2.57-0.367
					c0.909-0.105,1.789-0.14,2.716-0.307c0.185-0.029,0.374-0.009,0.652-0.014c-0.135,0.104-0.189,0.155-0.252,0.191
					c-0.206,0.12-0.291,0.255-0.21,0.504l0.957,2.892c0.175,0.526,0.167,0.573-0.336,0.735c-0.711,0.228-1.447,0.427-2.207,0.553
					c-1.046,0.169-2.146,0.28-3.237,0.352C205.296,282.637,205.116,282.6,204.998,282.588z"/>
				<path class="st1" d="M212.971,284.387c-0.194-0.396-0.37-0.755-0.545-1.114c-0.133-0.289-0.268-0.577-0.361-0.876
					c-0.027-0.087,0.054-0.237,0.127-0.319c0.071-0.081,0.193-0.134,0.301-0.17c0.487-0.165,0.967-0.34,1.449-0.483
					c0.519-0.154,1.04-0.278,1.55-0.413c0.104-0.028,0.214-0.027,0.373-0.045c-0.07,0.068-0.098,0.101-0.131,0.126
					c-0.11,0.082-0.149,0.166-0.085,0.307l0.73,1.624c0.13,0.294,0.127,0.321-0.15,0.445c-0.391,0.174-0.794,0.335-1.211,0.458
					c-0.577,0.169-1.174,0.297-1.776,0.432C213.143,284.38,213.039,284.38,212.971,284.387z"/>
				<path class="st1" d="M201.781,276.939c-0.082-0.443-0.156-0.843-0.23-1.244c-0.052-0.321-0.105-0.641-0.116-0.96
					c-0.003-0.093,0.11-0.216,0.202-0.279c0.088-0.06,0.216-0.079,0.328-0.086c0.503-0.03,1.001-0.071,1.493-0.08
					c0.53-0.01,1.053,0.011,1.57,0.019c0.105,0.001,0.209,0.033,0.364,0.058c-0.084,0.048-0.118,0.073-0.156,0.088
					c-0.125,0.051-0.183,0.123-0.159,0.278l0.355,1.698c0.062,0.306,0.053,0.332-0.252,0.393c-0.431,0.086-0.872,0.156-1.317,0.186
					c-0.628,0.057-1.212,0.004-1.818-0.024C201.946,276.979,201.847,276.951,201.781,276.939z"/>
			</g>
			<g>
				<path class="st0" d="M191.53,269.507c-0.007-0.794-0.014-1.502,0.008-2.199c0.006-0.553,0.043-1.125,0.177-1.688
					c0.036-0.163,0.277-0.32,0.456-0.386c0.172-0.063,0.391-0.034,0.577,0.006c0.826,0.191,1.748,0.283,2.586,0.457
					c0.917,0.178,1.806,0.396,2.683,0.581c0.178,0.037,0.343,0.124,0.597,0.217c-0.158,0.052-0.226,0.082-0.295,0.096
					c-0.229,0.043-0.353,0.144-0.366,0.412c-0.072,1.039-0.034,2.017-0.019,3.035c0.008,0.543-0.014,0.585-0.554,0.585
					c-0.762-0.001-1.541-0.035-2.317-0.147c-1.017-0.2-2.042-0.49-3.087-0.785C191.805,269.643,191.641,269.554,191.53,269.507z"/>
				<path class="st1" d="M198.438,273.835c-0.042-0.451-0.079-0.859-0.117-1.267c-0.023-0.326-0.047-0.652-0.029-0.973
					c0.005-0.094,0.128-0.207,0.225-0.262c0.093-0.053,0.221-0.06,0.332-0.057c0.5,0.015,0.997,0.018,1.484,0.053
					c0.534,0.029,1.022,0.125,1.571,0.14c0.11,0.005,0.216,0.038,0.377,0.068c-0.089,0.043-0.127,0.066-0.167,0.079
					c-0.132,0.044-0.196,0.111-0.178,0.261l0.204,1.731c0.034,0.312,0.023,0.337-0.285,0.371c-0.435,0.047-0.877,0.078-1.321,0.068
					c-0.605-0.021-1.251-0.053-1.842-0.143C198.597,273.89,198.502,273.852,198.438,273.835z"/>
				<path class="st1" d="M190.292,263.136c0.053-0.438,0.101-0.834,0.149-1.231c0.046-0.315,0.089-0.63,0.174-0.931
					c0.027-0.089,0.176-0.17,0.282-0.199c0.1-0.027,0.233-0.007,0.343,0.022c0.498,0.127,0.996,0.241,1.478,0.384
					c0.519,0.154,1.023,0.334,1.526,0.498c0.102,0.034,0.194,0.094,0.338,0.165c-0.096,0.019-0.137,0.032-0.178,0.034
					c-0.137,0.009-0.215,0.058-0.238,0.211l-0.272,1.76c-0.051,0.317-0.068,0.338-0.368,0.291c-0.423-0.067-0.849-0.151-1.265-0.276
					c-0.576-0.172-1.146-0.39-1.725-0.605C190.44,263.225,190.352,263.167,190.292,263.136z"/>
			</g>
			<g>
				<path class="st0" d="M182.946,252.798c0.244-0.75,0.529-1.44,0.798-2.098c0.224-0.531,0.446-1.061,0.73-1.543
					c0.083-0.141,0.362-0.211,0.555-0.215c0.184-0.003,0.388,0.093,0.555,0.191c0.754,0.441,1.511,0.852,2.226,1.296
					c0.737,0.489,1.594,0.956,2.373,1.411c0.162,0.091,0.297,0.224,0.516,0.392c-0.169-0.001-0.243,0.006-0.314-0.004
					c-0.235-0.032-0.385,0.022-0.476,0.269l-1.049,2.882c-0.19,0.525-0.225,0.557-0.717,0.375c-0.695-0.258-1.391-0.556-2.062-0.924
					c-0.926-0.51-1.832-1.108-2.756-1.716C183.172,253.013,183.04,252.877,182.946,252.798z"/>
				<path class="st1" d="M188.16,259.105c0.094-0.434,0.179-0.827,0.263-1.22c0.075-0.312,0.148-0.623,0.26-0.917
					c0.033-0.086,0.186-0.153,0.296-0.174c0.106-0.02,0.233,0.013,0.34,0.051c0.482,0.171,0.964,0.328,1.428,0.513
					c0.5,0.199,0.982,0.423,1.463,0.632c0.098,0.042,0.183,0.111,0.319,0.195c-0.097,0.011-0.139,0.02-0.18,0.019
					c-0.136-0.003-0.218,0.04-0.256,0.19l-0.435,1.739c-0.08,0.313-0.099,0.333-0.391,0.26c-0.412-0.103-0.826-0.225-1.227-0.386
					c-0.554-0.223-1.098-0.49-1.652-0.755C188.299,259.207,188.217,259.142,188.16,259.105z"/>
				<path class="st1" d="M183.859,246.363c0.214-0.4,0.408-0.763,0.602-1.126c0.161-0.286,0.321-0.572,0.513-0.831
					c0.056-0.076,0.221-0.103,0.332-0.096c0.106,0.007,0.217,0.071,0.308,0.135c0.408,0.287,0.819,0.561,1.206,0.858
					c0.41,0.321,0.803,0.66,1.256,0.972c0.089,0.064,0.159,0.15,0.278,0.264c-0.098-0.013-0.142-0.014-0.182-0.025
					c-0.135-0.036-0.225-0.014-0.292,0.121l-0.78,1.562c-0.143,0.281-0.166,0.295-0.441,0.155c-0.389-0.198-0.775-0.415-1.14-0.666
					c-0.504-0.347-0.992-0.734-1.484-1.123C183.961,246.497,183.902,246.413,183.859,246.363z"/>
			</g>
			<g>
				<path class="st0" d="M180.367,234.195c0.501-0.63,0.948-1.192,1.409-1.727c0.372-0.431,0.741-0.86,1.155-1.225
					c0.121-0.107,0.408-0.083,0.592-0.025c0.177,0.056,0.342,0.214,0.472,0.361c0.588,0.662,1.188,1.297,1.738,1.95
					c0.594,0.703,1.134,1.421,1.696,2.105c0.128,0.139,0.218,0.308,0.378,0.538c-0.162-0.056-0.234-0.074-0.3-0.106
					c-0.215-0.107-0.375-0.104-0.535,0.1l-1.855,2.383c-0.337,0.434-0.381,0.453-0.798,0.121c-0.588-0.47-1.167-0.977-1.698-1.543
					c-0.735-0.782-1.444-1.64-2.029-2.513C180.493,234.471,180.423,234.3,180.367,234.195z"/>
				<path class="st1" d="M183.17,241.851c0.22-0.383,0.396-0.727,0.645-1.065c0.189-0.271,0.376-0.544,0.593-0.786
					c0.063-0.071,0.23-0.084,0.339-0.068c0.105,0.015,0.209,0.089,0.293,0.16l1.129,0.955c0.422,0.349,0.819,0.717,1.221,1.069
					c0.082,0.072,0.143,0.164,0.249,0.287c-0.096-0.021-0.139-0.026-0.179-0.04c-0.13-0.047-0.222-0.033-0.302,0.096l-0.93,1.495
					c-0.17,0.268-0.194,0.281-0.453,0.117c-0.366-0.231-0.728-0.48-1.065-0.762c-0.467-0.389-0.911-0.817-1.363-1.247
					C183.273,241.992,183.214,241.904,183.17,241.851z"/>
				<path class="st1" d="M183.314,228.409c0.323-0.311,0.616-0.593,0.909-0.875c0.238-0.219,0.476-0.44,0.735-0.624
					c0.076-0.054,0.241-0.026,0.344,0.016c0.099,0.04,0.186,0.138,0.253,0.228c0.302,0.405,0.612,0.799,0.892,1.205
					c0.301,0.438,0.573,0.888,0.853,1.324c0.057,0.089,0.088,0.192,0.153,0.336c-0.086-0.044-0.126-0.059-0.16-0.082
					c-0.111-0.077-0.203-0.086-0.32,0.02c-0.462,0.399-0.839,0.813-1.254,1.225c-0.219,0.22-0.245,0.226-0.466,0.004
					c-0.312-0.314-0.615-0.644-0.889-1c-0.339-0.488-0.634-1.007-0.943-1.53C183.371,228.57,183.34,228.471,183.314,228.409z"/>
			</g>
			<g>
				<path class="st0" d="M183.913,215.756c0.661-0.44,1.251-0.833,1.847-1.195c0.469-0.296,0.96-0.581,1.507-0.775
					c0.156-0.058,0.42,0.057,0.572,0.172c0.146,0.11,0.242,0.309,0.309,0.487c0.298,0.8,0.72,1.62,1.033,2.418
					c0.352,0.865,0.655,1.729,0.979,2.563c0.066,0.17,0.084,0.355,0.145,0.618c-0.13-0.104-0.192-0.144-0.241-0.195
					c-0.161-0.168-0.313-0.217-0.545-0.081c-0.91,0.507-1.713,1.072-2.551,1.642c-0.448,0.304-0.496,0.309-0.792-0.144
					c-0.416-0.638-0.82-1.311-1.144-2.02c-0.388-0.961-0.705-1.978-1.029-3.015C183.95,216.061,183.934,215.875,183.913,215.756z"/>
				<path class="st1" d="M184.073,223.911c0.354-0.282,0.674-0.537,0.994-0.792c0.26-0.198,0.519-0.397,0.797-0.557
					c0.081-0.047,0.243-0.006,0.342,0.045c0.095,0.049,0.172,0.152,0.23,0.247c0.262,0.427,0.532,0.844,0.77,1.272l0.728,1.387
					c0.056,0.095,0.088,0.202,0.152,0.353c-0.085-0.051-0.125-0.07-0.158-0.096c-0.11-0.087-0.201-0.103-0.315-0.006l-1.328,1.121
					c-0.241,0.2-0.268,0.204-0.466-0.035c-0.279-0.338-0.549-0.692-0.786-1.068c-0.322-0.52-0.642-1.076-0.877-1.616
					C184.114,224.075,184.093,223.975,184.073,223.911z"/>
				<path class="st1" d="M188.576,211.239c0.396-0.194,0.755-0.37,1.114-0.546c0.289-0.134,0.577-0.269,0.876-0.361
					c0.087-0.027,0.234,0.053,0.319,0.127c0.081,0.071,0.134,0.192,0.171,0.301c0.165,0.487,0.34,0.966,0.483,1.448
					c0.154,0.519,0.278,1.039,0.413,1.55c0.028,0.104,0.027,0.214,0.045,0.373c-0.068-0.07-0.101-0.098-0.126-0.131
					c-0.082-0.11-0.166-0.148-0.307-0.085l-1.624,0.731c-0.294,0.13-0.321,0.127-0.445-0.149c-0.175-0.39-0.336-0.793-0.458-1.21
					c-0.169-0.576-0.298-1.173-0.433-1.775C188.582,211.412,188.582,211.307,188.576,211.239z"/>
			</g>
			<g>
				<path class="st0" d="M193.222,199.442c0.767-0.2,1.494-0.344,2.192-0.479c0.566-0.104,1.13-0.208,1.688-0.235
					c0.163-0.008,0.375,0.187,0.484,0.346c0.104,0.152,0.134,0.376,0.144,0.57c0.045,0.874,0.116,1.733,0.136,2.575
					c-0.003,0.887,0.065,1.853,0.113,2.758c0.012,0.186-0.026,0.371-0.046,0.647c-0.091-0.142-0.138-0.201-0.168-0.266
					c-0.101-0.214-0.229-0.31-0.486-0.252l-2.988,0.696c-0.543,0.127-0.59,0.116-0.706-0.396c-0.163-0.723-0.295-1.469-0.352-2.232
					c-0.079-1.054-0.074-2.139-0.069-3.244C193.166,199.748,193.207,199.564,193.222,199.442z"/>
				<path class="st1" d="M190.789,207.253c0.415-0.158,0.791-0.301,1.167-0.444c0.302-0.107,0.604-0.216,0.911-0.282
					c0.09-0.019,0.23,0.072,0.308,0.153c0.075,0.077,0.116,0.202,0.143,0.313c0.12,0.496,0.25,0.986,0.348,1.476
					c0.106,0.527,0.18,1.053,0.268,1.57c0.018,0.105,0.006,0.214,0.01,0.373c-0.062-0.075-0.092-0.105-0.114-0.14
					c-0.072-0.116-0.152-0.161-0.299-0.11l-1.696,0.583c-0.305,0.104-0.33,0.1-0.431-0.186c-0.138-0.402-0.261-0.815-0.344-1.238
					c-0.115-0.585-0.188-1.187-0.267-1.795C190.779,207.424,190.789,207.32,190.789,207.253z"/>
				<path class="st1" d="M199.112,196.694c0.451-0.042,0.859-0.08,1.267-0.117c0.326-0.023,0.652-0.047,0.973-0.03
					c0.094,0.005,0.207,0.128,0.262,0.225c0.053,0.093,0.06,0.221,0.057,0.332c-0.015,0.5-0.018,0.996-0.052,1.484
					c-0.029,0.533-0.125,1.021-0.136,1.574c-0.005,0.11-0.038,0.216-0.068,0.377c-0.043-0.089-0.066-0.127-0.079-0.166
					c-0.044-0.132-0.111-0.196-0.261-0.178l-1.732,0.205c-0.313,0.035-0.337,0.023-0.371-0.284c-0.047-0.434-0.078-0.877-0.068-1.32
					c0.02-0.606,0.056-1.247,0.139-1.844C199.056,196.854,199.094,196.758,199.112,196.694z"/>
			</g>
			<g>
				<path class="st0" d="M207.377,187.105c0.796,0.065,1.507,0.123,2.203,0.209c0.56,0.069,1.118,0.136,1.647,0.278
					c0.154,0.041,0.292,0.294,0.344,0.482c0.05,0.179,0.009,0.406-0.041,0.598c-0.228,0.864-0.425,1.722-0.664,2.549
					c-0.258,0.891-0.554,1.751-0.815,2.6c-0.053,0.173-0.154,0.328-0.27,0.571c-0.039-0.162-0.063-0.231-0.07-0.3
					c-0.023-0.23-0.113-0.363-0.381-0.4c-0.993-0.104-1.977-0.155-3.003-0.238c-0.545-0.041-0.585-0.066-0.538-0.601
					c0.067-0.754,0.171-1.521,0.349-2.281c0.226-1.08,0.639-2.02,1.016-3.04C207.217,187.365,207.32,187.21,207.377,187.105z"/>
				<path class="st1" d="M202.489,193.625c0.433-0.036,0.864-0.019,1.267-0.018c0.329,0.007,0.658,0.012,0.978,0.059
					c0.094,0.014,0.196,0.146,0.243,0.246c0.045,0.096,0.041,0.224,0.028,0.334c-0.059,0.493-0.106,0.984-0.184,1.463
					c-0.091,0.508-0.156,1.071-0.236,1.594c-0.015,0.108-0.058,0.211-0.102,0.367c-0.035-0.092-0.055-0.131-0.064-0.172
					c-0.032-0.135-0.094-0.204-0.246-0.199l-1.755,0.048c-0.316,0.006-0.34-0.007-0.346-0.314c-0.009-0.434,0-0.875,0.049-1.313
					c0.068-0.606,0.181-1.214,0.29-1.83C202.429,193.789,202.469,193.691,202.489,193.625z"/>
				<path class="st1" d="M213.833,186.404c0.434,0.094,0.827,0.178,1.22,0.263c0.312,0.075,0.624,0.148,0.918,0.26
					c0.086,0.033,0.153,0.186,0.174,0.296c0.02,0.106-0.013,0.233-0.051,0.34c-0.17,0.482-0.327,0.964-0.512,1.427
					c-0.199,0.5-0.422,0.982-0.631,1.463c-0.042,0.098-0.111,0.183-0.195,0.318c-0.011-0.097-0.02-0.139-0.019-0.18
					c0.003-0.136-0.04-0.218-0.191-0.256l-1.74-0.435c-0.313-0.08-0.333-0.099-0.26-0.391c0.103-0.412,0.225-0.826,0.386-1.226
					c0.222-0.554,0.489-1.098,0.754-1.651C213.731,186.543,213.796,186.461,213.833,186.404z"/>
			</g>
			<g>
				<path class="st0" d="M224.751,179.968c0.727,0.3,1.371,0.549,2.012,0.912c0.512,0.274,1.022,0.547,1.48,0.876
					c0.134,0.096,0.181,0.381,0.169,0.572c-0.012,0.183-0.126,0.376-0.238,0.532l-1.476,2.105l-1.599,2.273
					c-0.105,0.152-0.249,0.272-0.436,0.473c0.015-0.168,0.015-0.242,0.031-0.311c0.052-0.23,0.01-0.384-0.229-0.499
					c-0.906-0.429-1.846-0.885-2.791-1.31c-0.496-0.2-0.526-0.236-0.312-0.74c0.305-0.702,0.67-1.336,1.093-1.973
					c0.588-0.869,1.263-1.709,1.949-2.566C224.517,180.171,224.664,180.053,224.751,179.968z"/>
				<path class="st1" d="M218.023,184.605c0.426,0.134,0.813,0.256,1.199,0.377c0.306,0.104,0.612,0.206,0.896,0.346
					c0.083,0.041,0.137,0.199,0.149,0.31c0.011,0.107-0.033,0.23-0.08,0.332c-0.212,0.461-0.411,0.923-0.635,1.365
					c-0.242,0.476-0.507,0.932-0.757,1.388c-0.051,0.093-0.127,0.17-0.223,0.297c-0.002-0.097-0.008-0.139-0.004-0.18
					c0.015-0.135-0.021-0.22-0.169-0.271c-0.562-0.196-1.134-0.402-1.683-0.549c-0.297-0.087-0.315-0.107-0.225-0.408
					c0.128-0.423,0.269-0.86,0.47-1.23c0.27-0.527,0.584-1.041,0.897-1.564C217.909,184.733,217.981,184.658,218.023,184.605z"/>
				<path class="st1" d="M231.082,181.399c0.384,0.225,0.726,0.39,1.066,0.64c0.272,0.189,0.544,0.376,0.787,0.593
					c0.071,0.063,0.085,0.23,0.069,0.339c-0.015,0.105-0.089,0.209-0.16,0.292l-0.954,1.134c-0.349,0.422-0.716,0.819-1.068,1.221
					c-0.072,0.082-0.164,0.143-0.287,0.249c0.021-0.096,0.026-0.139,0.04-0.179c0.047-0.13,0.033-0.222-0.097-0.302l-1.496-0.93
					c-0.268-0.17-0.281-0.194-0.118-0.453c0.231-0.366,0.479-0.728,0.761-1.065c0.389-0.467,0.817-0.911,1.245-1.363
					C230.942,181.502,231.029,181.443,231.082,181.399z"/>
			</g>
			<g>
				<path class="st0" d="M243.495,178.857c0.586,0.562,1.108,1.064,1.603,1.578c0.398,0.414,0.795,0.825,1.123,1.275
					c0.096,0.131,0.049,0.416-0.025,0.594c-0.071,0.171-0.241,0.32-0.398,0.435c-0.707,0.52-1.387,1.055-2.081,1.537l-1.123,0.75
					l-1.118,0.832c-0.149,0.113-0.325,0.186-0.567,0.322c0.069-0.155,0.093-0.226,0.13-0.288c0.124-0.204,0.134-0.363-0.056-0.543
					l-2.222-2.09c-0.404-0.38-0.42-0.425-0.055-0.807c0.516-0.538,1.068-1.063,1.675-1.536c0.839-0.653,1.749-1.253,2.676-1.864
					C243.212,178.947,243.386,178.905,243.495,178.857z"/>
				<path class="st1" d="M235.633,181.095c0.359,0.255,0.684,0.486,1.01,0.717c0.255,0.19,0.511,0.378,0.734,0.596
					c0.065,0.069,0.065,0.237,0.04,0.344c-0.024,0.1-0.106,0.207-0.183,0.29c-0.35,0.378-0.688,0.761-1.044,1.118
					c-0.383,0.384-0.783,0.742-1.167,1.105c-0.078,0.074-0.175,0.126-0.307,0.218c0.029-0.094,0.038-0.136,0.055-0.173
					c0.057-0.125,0.052-0.217-0.071-0.31l-1.416-1.076c-0.254-0.196-0.264-0.221-0.08-0.462c0.261-0.34,0.539-0.675,0.848-0.982
					c0.427-0.425,0.89-0.823,1.356-1.23C235.484,181.183,235.576,181.133,235.633,181.095z"/>
				<path class="st1" d="M249.023,182.281c0.282,0.354,0.537,0.674,0.793,0.994c0.198,0.26,0.397,0.519,0.558,0.797
					c0.047,0.081,0.006,0.243-0.044,0.342c-0.049,0.095-0.152,0.172-0.247,0.23c-0.427,0.262-0.844,0.532-1.271,0.771l-1.387,0.733
					c-0.095,0.056-0.202,0.088-0.353,0.152c0.051-0.085,0.07-0.125,0.096-0.158c0.086-0.11,0.103-0.201,0.006-0.315l-1.122-1.328
					c-0.2-0.241-0.205-0.268,0.034-0.466c0.338-0.279,0.691-0.549,1.068-0.786c0.518-0.318,1.076-0.649,1.616-0.882
					C248.859,182.323,248.96,182.302,249.023,182.281z"/>
			</g>
			<g>
				<path class="st0" d="M261.578,183.955c0.38,0.703,0.718,1.331,1.027,1.962c0.248,0.508,0.495,1.012,0.665,1.533
					c0.05,0.152-0.088,0.405-0.216,0.551c-0.123,0.14-0.335,0.229-0.523,0.291c-0.848,0.28-1.674,0.582-2.498,0.832
					c-0.887,0.269-1.768,0.49-2.622,0.734c-0.174,0.05-0.358,0.05-0.625,0.085c0.114-0.121,0.159-0.179,0.213-0.223
					c0.18-0.145,0.242-0.293,0.127-0.538c-0.458-0.88-0.95-1.738-1.441-2.641c-0.263-0.479-0.264-0.526,0.209-0.779
					c0.669-0.356,1.367-0.688,2.102-0.953c1.029-0.4,2.044-0.574,3.103-0.811C261.272,183.963,261.458,183.965,261.578,183.955z"/>
				<path class="st1" d="M253.444,183.419c0.265,0.35,0.488,0.715,0.707,1.055c0.174,0.279,0.349,0.558,0.485,0.851
					c0.04,0.086-0.015,0.244-0.073,0.338c-0.056,0.09-0.166,0.157-0.264,0.206c-0.445,0.22-0.882,0.449-1.326,0.646
					c-0.472,0.193-0.981,0.455-1.462,0.673c-0.099,0.047-0.208,0.067-0.363,0.116c0.058-0.08,0.08-0.117,0.109-0.148
					c0.095-0.101,0.12-0.19,0.032-0.315l-1-1.439c-0.178-0.261-0.18-0.288,0.074-0.462c0.359-0.245,0.732-0.48,1.126-0.679
					c0.544-0.276,1.116-0.515,1.691-0.762C253.274,183.458,253.378,183.438,253.444,183.419z"/>
				<path class="st1" d="M265.688,188.983c0.158,0.415,0.302,0.791,0.445,1.167c0.107,0.302,0.216,0.604,0.282,0.912
					c0.019,0.09-0.072,0.23-0.153,0.308c-0.077,0.075-0.202,0.116-0.312,0.143c-0.496,0.12-0.986,0.251-1.475,0.349
					c-0.527,0.106-1.053,0.181-1.569,0.268c-0.105,0.018-0.214,0.007-0.373,0.01c0.075-0.062,0.105-0.092,0.14-0.114
					c0.116-0.072,0.161-0.153,0.11-0.299l-0.584-1.696c-0.106-0.301-0.105-0.322,0.186-0.431c0.401-0.138,0.814-0.261,1.238-0.345
					c0.585-0.115,1.187-0.188,1.794-0.267C265.516,188.973,265.62,188.983,265.688,188.983z"/>
			</g>
			<g>
				<path class="st0" d="M277.045,194.6c0.072,0.383,0.141,0.747,0.208,1.102c0.041,0.369,0.081,0.729,0.12,1.089
					c0.053,0.577,0.106,1.151,0.083,1.713c-0.007,0.164-0.219,0.359-0.385,0.454c-0.16,0.091-0.384,0.101-0.577,0.094l-2.564-0.088
					c-0.947-0.012-1.873-0.067-2.781-0.092c-0.185-0.005-0.365-0.059-0.635-0.105c0.149-0.079,0.211-0.12,0.278-0.145
					c0.221-0.082,0.327-0.202,0.292-0.464l-0.432-3.052c-0.104-0.525-0.089-0.57,0.449-0.666c0.75-0.122,1.485-0.169,2.249-0.163
					c1.05,0.016,2.124,0.118,3.217,0.222C276.747,194.517,276.926,194.574,277.045,194.6z"/>
				<path class="st1" d="M269.483,191.51c0.12,0.431,0.229,0.82,0.339,1.21c0.08,0.313,0.161,0.625,0.2,0.94
					c0.011,0.092-0.092,0.224-0.178,0.294c-0.083,0.068-0.21,0.098-0.322,0.114c-0.502,0.074-0.998,0.16-1.491,0.213
					c-0.531,0.057-1.058,0.084-1.577,0.124c-0.106,0.008-0.212-0.013-0.37-0.025c0.08-0.055,0.112-0.083,0.149-0.101
					c0.121-0.061,0.173-0.138,0.135-0.29c-0.14-0.581-0.286-1.165-0.462-1.707c-0.089-0.297-0.082-0.323,0.219-0.411
					c0.422-0.12,0.87-0.248,1.289-0.281c0.589-0.062,1.191-0.079,1.8-0.102C269.314,191.484,269.416,191.504,269.483,191.51z"/>
				<path class="st1" d="M279.325,200.672c0.042,0.428,0.023,0.862,0.022,1.264c-0.007,0.329-0.012,0.658-0.058,0.978
					c-0.014,0.094-0.145,0.196-0.246,0.243c-0.096,0.045-0.224,0.041-0.334,0.028c-0.493-0.059-0.984-0.105-1.463-0.183
					l-1.597-0.232c-0.108-0.015-0.21-0.058-0.367-0.102c0.092-0.035,0.131-0.055,0.172-0.064c0.135-0.032,0.204-0.094,0.199-0.246
					l-0.049-1.756c-0.006-0.316,0.007-0.34,0.314-0.347c0.434-0.009,0.874,0,1.312,0.048c0.605,0.068,1.213,0.18,1.829,0.289
					C279.161,200.612,279.259,200.652,279.325,200.672z"/>
			</g>
			<g>
				<path class="st0" d="M288.206,209.698c-0.138,0.792-0.262,1.499-0.412,2.189c-0.12,0.556-0.24,1.108-0.429,1.626
					c-0.055,0.151-0.319,0.267-0.509,0.303c-0.182,0.034-0.403-0.025-0.588-0.092c-0.834-0.302-1.666-0.574-2.462-0.885
					c-0.858-0.335-1.68-0.706-2.496-1.041c-0.178-0.062-0.338-0.167-0.588-0.293c0.169-0.028,0.241-0.047,0.314-0.05
					c0.24-0.009,0.379-0.087,0.423-0.343l0.498-2.981c0.09-0.543,0.119-0.581,0.644-0.487c0.74,0.133,1.49,0.303,2.226,0.548
					c1.021,0.336,2.045,0.757,2.979,1.245C287.963,209.516,288.106,209.633,288.206,209.698z"/>
				<path class="st1" d="M282.079,204.31c-0.011,0.443-0.013,0.836-0.04,1.233c-0.037,0.329-0.072,0.658-0.147,0.975
					c-0.022,0.093-0.162,0.184-0.266,0.222c-0.099,0.037-0.226,0.022-0.333-0.001c-0.48-0.104-0.96-0.194-1.467-0.287
					c-0.535-0.107-1.057-0.242-1.576-0.362c-0.106-0.024-0.203-0.076-0.354-0.135c0.094-0.027,0.135-0.043,0.176-0.049
					c0.136-0.021,0.21-0.076,0.22-0.229l0.111-1.764c0.022-0.318,0.038-0.34,0.342-0.32c0.43,0.029,0.865,0.077,1.294,0.164
					c0.593,0.121,1.185,0.287,1.785,0.45C281.922,204.235,282.016,204.284,282.079,204.31z"/>
				<path class="st1" d="M288.362,216.195c-0.134,0.427-0.256,0.813-0.377,1.199c-0.104,0.306-0.206,0.612-0.346,0.897
					c-0.041,0.083-0.199,0.137-0.31,0.149c-0.107,0.011-0.229-0.033-0.332-0.08c-0.461-0.211-0.923-0.41-1.365-0.634
					c-0.476-0.242-0.931-0.507-1.388-0.756c-0.093-0.051-0.17-0.127-0.296-0.222c0.097-0.003,0.139-0.008,0.18-0.004
					c0.134,0.014,0.22-0.021,0.271-0.169c0.2-0.564,0.396-1.132,0.544-1.682c0.087-0.297,0.107-0.315,0.408-0.225
					c0.419,0.13,0.866,0.266,1.234,0.467c0.527,0.27,1.041,0.584,1.563,0.896C288.234,216.082,288.309,216.154,288.362,216.195z"/>
			</g>
			<g>
				<path class="st0" d="M293.845,227.614c-0.368,0.7-0.697,1.325-1.045,1.927c-0.259,0.482-0.622,0.972-0.983,1.4
					c-0.109,0.126-0.396,0.149-0.585,0.121c-0.181-0.027-0.36-0.156-0.505-0.281c-0.623-0.564-1.367-1.086-2.038-1.638
					c-0.726-0.594-1.408-1.209-2.095-1.789c-0.14-0.118-0.245-0.272-0.425-0.475c0.165,0.03,0.238,0.035,0.306,0.057
					c0.223,0.071,0.38,0.042,0.517-0.187l0.788-1.325c0.263-0.447,0.464-0.886,0.704-1.337c0.247-0.48,0.286-0.506,0.765-0.249
					c0.666,0.365,1.377,0.758,1.934,1.241c0.803,0.66,1.571,1.404,2.355,2.161C293.666,227.364,293.769,227.52,293.845,227.614z"/>
				<path class="st1" d="M289.818,220.517c-0.175,0.415-0.333,0.791-0.491,1.167c-0.133,0.297-0.264,0.594-0.43,0.867
					c-0.049,0.08-0.211,0.12-0.322,0.123c-0.107,0.002-0.224-0.052-0.321-0.108c-0.436-0.251-0.875-0.489-1.291-0.751
					c-0.448-0.282-0.873-0.587-1.301-0.875c-0.087-0.059-0.156-0.141-0.272-0.248c0.096,0.006,0.139,0.004,0.179,0.012
					c0.132,0.026,0.22-0.003,0.285-0.146l0.631-1.614c0.115-0.29,0.137-0.306,0.426-0.19c0.408,0.164,0.816,0.346,1.206,0.565
					c0.558,0.296,1.015,0.66,1.506,1.016C289.703,220.393,289.77,220.471,289.818,220.517z"/>
				<path class="st1" d="M291.887,233.802c-0.255,0.359-0.486,0.685-0.717,1.01c-0.19,0.255-0.378,0.511-0.596,0.735
					c-0.064,0.065-0.231,0.065-0.34,0.041c-0.105-0.024-0.21-0.105-0.294-0.183c-0.378-0.349-0.761-0.687-1.118-1.043
					c-0.384-0.383-0.742-0.782-1.105-1.166c-0.074-0.078-0.126-0.175-0.218-0.307c0.094,0.029,0.136,0.038,0.173,0.055
					c0.125,0.057,0.217,0.051,0.31-0.072l1.076-1.417c0.196-0.254,0.221-0.265,0.462-0.08c0.34,0.26,0.675,0.538,0.982,0.847
					c0.425,0.426,0.823,0.89,1.23,1.354C291.799,233.653,291.849,233.746,291.887,233.802z"/>
			</g>
		</g>
	</g>
</g>
</svg>
