<?xml version="1.0" encoding="utf-8"?>
<!-- Generator: Adobe Illustrator 17.0.0, SVG Export Plug-In . SVG Version: 6.00 Build 0)  -->
<!DOCTYPE svg PUBLIC "-//W3C//DTD SVG 1.1//EN" "http://www.w3.org/Graphics/SVG/1.1/DTD/svg11.dtd">
<svg version="1.1" id="Capa_1" xmlns="http://www.w3.org/2000/svg" xmlns:xlink="http://www.w3.org/1999/xlink" x="0px" y="0px"
	 width="161px" height="158.879px" viewBox="0 0 161 158.879" style="enable-background:new 0 0 161 158.879;" xml:space="preserve"
	>
<style type="text/css">
	.st0{fill:#F4D68C;}
</style>
<g>
	<g>
		<path class="st0" d="M146.43,77.965c-0.081,0.292-0.195,0.579-0.238,0.872c-0.143,0.961-0.161,1.92,0.003,2.879
			c0.121,0.705,0.252,1.423,0.649,2.078c0.148,0.244,0.312,0.489,0.505,0.706c0.82,0.936,1.519,1.88,2.28,2.87
			c0.487,0.658,0.391,0.529,0.9,1.216c0.253,0.354,0.657,0.921,1.359,1.905c0.688,1.004,1.757,2.466,2.928,4.665
			c0.081,0.14,0.917,1.67,0.604,3.384c0.007,0.126-0.088,0.347-0.053,0.47l0.095,0.008c0.106-0.266,0.227-0.527,0.315-0.799
			c0.738-2.391,0.852-4.232,0.499-5.493c-0.304-1.255-0.746-1.885-0.746-1.885l-0.224-0.341c-1.032-1.541-2.068-3.022-3.12-4.431
			c-1.159-1.552-2.578-3.046-3.862-4.447l-0.872-0.929c-0.478-0.546-1.019-1.379-0.984-2.105c0.011-0.219,0.08-0.559,0.05-0.627
			L146.43,77.965z"/>
	</g>
	<g>
		<path class="st0" d="M143.921,95.811c-0.135,0.265-0.3,0.517-0.398,0.793c-0.28,0.92-0.627,1.815-0.747,2.773
			c-0.093,0.703-0.18,1.423,0.009,2.154c0.07,0.273,0.156,0.55,0.277,0.81c0.503,1.11,1.112,2.286,1.516,3.421
			c0.278,0.76,0.223,0.61,0.513,1.404c0.265,0.824,0.977,2.501,2.364,7.503c0.038,0.156,0.407,1.842-0.385,3.39
			c-0.029,0.123-0.184,0.307-0.186,0.434l0.09,0.033c0.179-0.224,0.37-0.441,0.533-0.675c0.705-1.032,1.223-1.98,1.52-2.853
			c0.261-0.895,0.375-1.675,0.41-2.315c0.071-1.28-0.174-2.001-0.174-2.001l-0.117-0.387c-0.581-1.765-1.038-3.412-1.815-5.114
			c-0.794-1.85-1.624-3.62-2.476-5.315l-0.565-1.12c-0.271-0.64-0.616-1.602-0.454-2.309c0.052-0.213,0.185-0.529,0.169-0.604
			L143.921,95.811z"/>
	</g>
	<g>
		<path class="st0" d="M136.733,112.31c-0.207,0.215-0.439,0.41-0.614,0.646c-0.601,0.758-0.988,1.652-1.414,2.507
			c-0.291,0.645-0.581,1.307-0.605,2.055c-0.01,0.279-0.007,0.567,0.037,0.847c0.191,1.212,0.381,2.448,0.542,3.711
			c0.102,0.831,0.095,0.678,0.147,1.516c0.033,0.865,0.227,2.637,0.205,7.817c-0.001,0.085-0.004,0.573-0.148,1.211
			c-0.178,0.605-0.508,1.351-1.102,1.978c-0.062,0.109-0.262,0.242-0.299,0.363l0.077,0.056c0.235-0.165,0.479-0.319,0.702-0.498
			c0.487-0.393,0.917-0.785,1.294-1.169c0.35-0.411,0.64-0.824,0.892-1.212c0.501-0.781,0.829-1.494,1.042-2.095
			c0.424-1.202,0.39-1.956,0.39-1.956l-0.006-0.401c-0.004-1.789-0.174-3.639-0.408-5.445c-0.244-1.98-0.545-3.896-0.887-5.744
			c-0.069-0.407-0.167-0.818-0.263-1.247c-0.149-0.731-0.216-1.748,0.156-2.371c0.112-0.188,0.332-0.452,0.338-0.528L136.733,112.31
			z"/>
	</g>
	<g>
		<path class="st0" d="M125.365,126.28c-0.261,0.148-0.54,0.271-0.776,0.447c-0.774,0.58-1.463,1.251-2.025,2.053
			c-0.415,0.588-0.911,1.1-1.133,1.818c-0.086,0.264-0.162,0.539-0.197,0.818c-0.15,1.208-0.306,2.44-0.499,3.689
			c-0.134,0.825-0.108,0.662-0.249,1.525c-0.144,0.926-0.488,2.6-1.916,7.561c-0.064,0.125-0.521,1.94-2.035,2.789
			c-0.09,0.087-0.32,0.158-0.389,0.263l0.059,0.076c0.273-0.091,0.552-0.17,0.816-0.279c2.265-1.061,3.553-2.466,4.302-3.473
			c0.741-1.029,0.915-1.758,0.915-1.758l0.105-0.385c0.449-1.762,0.75-3.638,1.044-5.393c0.293-1.976,0.581-3.822,0.69-5.765
			l0.06-1.297c0.059-0.737,0.277-1.726,0.811-2.217c0.161-0.148,0.448-0.34,0.475-0.411L125.365,126.28z"/>
	</g>
	<g>
		<path class="st0" d="M110.67,136.697c-0.293,0.068-0.596,0.105-0.873,0.207c-0.908,0.335-1.758,0.78-2.522,1.386
			c-0.567,0.435-1.119,0.941-1.549,1.516c-0.156,0.227-0.305,0.467-0.415,0.724c-0.476,1.107-0.964,2.235-1.494,3.371
			c-0.356,0.75-0.286,0.601-0.658,1.384c-0.196,0.395-0.51,1.026-1.055,2.123c-0.579,1.064-1.442,2.495-2.829,4.656
			c-0.086,0.139-1.055,1.615-2.712,2.165c-0.108,0.068-0.346,0.09-0.439,0.181l0.037,0.087c0.283-0.033,0.569-0.054,0.849-0.107
			c2.457-0.466,4.104-1.364,5.099-2.132c1.006-0.746,1.353-1.461,1.353-1.461l0.197-0.363c0.886-1.654,1.715-3.286,2.473-4.898
			c0.417-0.889,0.814-1.771,1.192-2.645c0.376-0.878,0.689-1.85,1.01-2.758l0.414-1.219c0.259-0.687,0.741-1.566,1.392-1.884
			c0.197-0.096,0.527-0.198,0.572-0.257L110.67,136.697z"/>
	</g>
	<g>
		<path class="st0" d="M93.715,142.77c-0.295,0.007-0.604-0.067-0.898-0.045c-0.969,0.053-1.912,0.227-2.815,0.579
			c-0.666,0.26-1.343,0.532-1.903,1.052c-0.209,0.195-0.416,0.403-0.59,0.636c-0.752,0.992-1.537,1.865-2.353,2.81
			c-0.547,0.609-0.439,0.489-1.01,1.125c-0.297,0.319-0.769,0.829-1.592,1.714c-0.844,0.861-2.059,2.233-3.973,3.817
			c-0.121,0.108-1.446,1.233-3.186,1.269c-0.122,0.033-0.357-0.016-0.47,0.043l0.011,0.095c0.281,0.051,0.561,0.116,0.844,0.148
			c2.487,0.239,4.309,0,5.472-0.626c1.166-0.55,1.693-1.11,1.693-1.11l0.288-0.288c1.3-1.32,2.542-2.632,3.71-3.945
			c1.287-1.449,2.465-3.137,3.578-4.675l0.733-1.04c0.438-0.578,1.144-1.274,1.86-1.385c0.217-0.034,0.565-0.029,0.62-0.092
			L93.715,142.77z"/>
	</g>
	<g>
		<path class="st0" d="M75.724,143.913c-0.287-0.08-0.567-0.191-0.859-0.232c-0.477-0.072-0.957-0.099-1.437-0.112
			c-0.476-0.052-0.953-0.065-1.434-0.033c-0.707,0.048-1.429,0.105-2.105,0.435c-0.253,0.123-0.506,0.262-0.735,0.433
			c-0.988,0.737-1.999,1.489-3.047,2.222c-0.685,0.422-0.551,0.339-1.267,0.781c-0.753,0.431-2.237,1.43-6.854,3.822
			c-0.159,0.117-1.731,0.815-3.403,0.333c-0.125-0.005-0.337-0.121-0.461-0.097l-0.015,0.095c0.255,0.132,0.505,0.277,0.768,0.391
			c2.277,1.078,4.21,0.967,5.462,0.812c1.265-0.183,1.92-0.565,1.92-0.565l0.354-0.191c1.596-0.869,3.135-1.761,4.638-2.849
			c1.647-1.146,3.209-2.312,4.692-3.483l0.981-0.776c0.57-0.385,1.45-0.995,2.173-0.944c0.22,0.009,0.557,0.076,0.626,0.045
			L75.724,143.913z"/>
	</g>
	<g>
		<path class="st0" d="M58.1,140.265c-0.252-0.162-0.489-0.353-0.755-0.479c-0.871-0.416-1.784-0.714-2.756-0.839
			c-0.694-0.142-1.391-0.313-2.127-0.188c-0.274,0.046-0.553,0.104-0.818,0.203c-1.142,0.424-2.309,0.852-3.509,1.257
			c-0.796,0.261-0.64,0.209-1.472,0.482c-0.871,0.266-2.532,0.754-7.596,1.76c-0.083,0.015-0.559,0.107-1.212,0.09
			c-0.663,0.002-1.478-0.144-2.193-0.627c-0.119-0.039-0.288-0.212-0.413-0.224l-0.04,0.088c0.207,0.199,0.406,0.41,0.624,0.595
			c1.963,1.551,3.82,2.026,5.055,2.234c1.256,0.185,1.984,0.003,1.984,0.003l0.39-0.084c1.756-0.378,3.576-0.999,5.268-1.54
			c1.887-0.64,3.676-1.267,5.433-2.022l1.181-0.547c0.683-0.289,1.661-0.554,2.343-0.31c0.206,0.074,0.508,0.239,0.583,0.23
			L58.1,140.265z"/>
	</g>
	<g>
		<path class="st0" d="M42.11,131.994c-0.196-0.229-0.369-0.481-0.587-0.679c-0.717-0.651-1.505-1.2-2.396-1.599
			c-0.662-0.285-1.333-0.583-2.048-0.694c-0.274-0.033-0.557-0.055-0.836-0.034c-1.205,0.089-2.435,0.176-3.69,0.231
			c-0.831,0.03-0.667,0.024-1.535,0.056c-0.433,0.007-1.146,0.046-2.363,0.033c-1.184-0.051-2.881-0.13-5.44-0.362
			c-0.163-0.013-1.928-0.183-3.182-1.394c-0.102-0.071-0.217-0.284-0.332-0.331l-0.062,0.074c0.139,0.252,0.272,0.51,0.456,0.727
			c1.557,1.953,3.12,2.992,4.265,3.515c1.15,0.523,1.898,0.547,1.898,0.547l0.414,0.007c1.879,0.02,3.712,0.002,5.496-0.071
			c1.97-0.084,3.843-0.185,5.807-0.519l1.275-0.193c0.73-0.086,1.735-0.064,2.318,0.368c0.176,0.13,0.419,0.376,0.493,0.389
			L42.11,131.994z"/>
	</g>
	<g>
		<path class="st0" d="M28.914,119.714c-0.122-0.275-0.218-0.568-0.372-0.821c-0.503-0.829-1.102-1.578-1.841-2.211
			c-0.544-0.466-1.105-0.936-1.831-1.189c-0.279-0.089-0.522-0.201-0.8-0.253c-1.172-0.245-2.369-0.499-3.582-0.79
			c-0.801-0.199-0.643-0.16-1.479-0.367c-0.817-0.262-2.778-0.544-7.445-2.406c-0.153-0.056-1.786-0.706-2.651-2.221
			c-0.087-0.093-0.156-0.322-0.263-0.395l-0.078,0.054c0.09,0.271,0.165,0.548,0.273,0.812c0.94,2.318,2.143,3.753,3.089,4.573
			c0.456,0.422,0.946,0.643,1.25,0.799c0.317,0.147,0.504,0.2,0.504,0.2l0.393,0.121c1.788,0.535,3.544,1.021,5.264,1.441
			c1.851,0.493,3.845,0.787,5.766,1.036l1.269,0.165c0.72,0.118,1.671,0.418,2.108,0.997c0.132,0.174,0.296,0.48,0.363,0.513
			L28.914,119.714z"/>
	</g>
	<g>
		<path class="st0" d="M19.548,104.319l-0.186-0.869c-0.243-0.939-0.599-1.829-1.123-2.643c-0.385-0.6-0.786-1.208-1.406-1.652
			c-0.231-0.165-0.477-0.325-0.738-0.448c-1.172-0.518-2.166-1.114-3.256-1.72c-0.706-0.412-0.566-0.331-1.304-0.761
			c-0.372-0.226-0.965-0.586-1.995-1.212c-1-0.655-2.616-1.563-4.549-3.118c-0.129-0.096-1.497-1.169-1.882-2.868
			c-0.057-0.112-0.056-0.353-0.137-0.452l-0.09,0.03c0.007,0.286-0.001,0.574,0.024,0.858c0.252,2.49,0.883,4.222,1.726,5.237
			c0.772,1.033,1.425,1.436,1.425,1.436l0.341,0.225c1.551,1.007,3.085,1.957,4.604,2.834c1.749,0.944,3.578,1.771,5.32,2.543
			l1.162,0.507c0.653,0.31,1.468,0.864,1.726,1.54c0.098,0.196,0.2,0.522,0.261,0.57L19.548,104.319z"/>
	</g>
	<g>
		<path class="st0" d="M14.748,86.969c0.02-0.297,0.073-0.594,0.055-0.887c-0.026-0.481-0.095-0.957-0.179-1.429
			c-0.045-0.477-0.127-0.948-0.256-1.413c-0.189-0.684-0.389-1.38-0.848-1.977c-0.171-0.222-0.358-0.443-0.571-0.633
			c-0.921-0.82-1.858-1.658-2.788-2.536c-0.579-0.58-0.449-0.465-1.032-1.083c-0.574-0.649-1.848-1.902-5.117-5.929
			c-0.053-0.067-0.361-0.447-0.653-1.032c-0.244-0.58-0.457-1.368-0.391-2.23c-0.02-0.124,0.051-0.354,0.003-0.471l-0.095,0.005
			c-0.079,0.276-0.172,0.551-0.231,0.83c-0.13,0.612-0.217,1.188-0.267,1.724c-0.012,0.539,0.027,1.042,0.078,1.502
			c0.108,0.922,0.306,1.683,0.523,2.282c0.433,1.199,0.939,1.762,0.939,1.762l0.258,0.307l1.778,2.03
			c0.624,0.662,1.305,1.306,1.957,1.932c1.453,1.381,2.908,2.677,4.353,3.895l0.957,0.805c0.493,0.482,1.266,1.22,1.362,1.938
			c0.035,0.216,0.037,0.559,0.081,0.622L14.748,86.969z"/>
	</g>
	<g>
		<path class="st0" d="M14.749,68.95c0.109-0.279,0.249-0.549,0.321-0.835c0.235-0.938,0.347-1.891,0.279-2.867
			c-0.086-0.726-0.013-1.432-0.29-2.127c-0.098-0.259-0.211-0.52-0.359-0.758c-0.64-1.029-1.291-2.082-1.925-3.172
			c-0.414-0.724-0.332-0.581-0.764-1.338c-0.469-0.809-1.334-2.347-3.288-7.078c-0.054-0.147-0.753-1.809-0.212-3.464
			c0.015-0.124,0.152-0.323,0.139-0.448l-0.094-0.021c-0.152,0.243-0.332,0.475-0.457,0.731c-1.01,2.286-1.208,4.157-1.141,5.417
			c0.064,1.264,0.385,1.938,0.385,1.938l0.159,0.363c0.852,1.679,1.725,3.302,2.62,4.854c1.027,1.718,1.912,3.319,3.113,4.906
			l0.771,1.044c0.42,0.609,0.873,1.511,0.768,2.229c-0.032,0.217-0.134,0.546-0.11,0.617L14.749,68.95z"/>
	</g>
	<g>
		<path class="st0" d="M19.55,51.6c0.187-0.235,0.403-0.455,0.556-0.708c0.502-0.828,0.891-1.705,1.11-2.653
			c0.162-0.697,0.319-1.414,0.211-2.173c-0.02-0.274-0.055-0.552-0.129-0.821c-0.322-1.155-0.648-2.337-0.947-3.548
			c-0.191-0.803-0.154-0.645-0.354-1.485c-0.157-0.856-0.774-2.708-1.274-7.717c-0.021-0.162-0.196-1.913,0.749-3.378
			c0.042-0.121,0.213-0.287,0.229-0.416l-0.084-0.045c-0.199,0.204-0.409,0.398-0.594,0.615c-1.621,1.903-2.34,3.632-2.632,4.85
			c-0.161,0.602-0.165,1.117-0.149,1.468c0.015,0.35,0.055,0.539,0.055,0.539l0.073,0.405c0.347,1.837,0.723,3.621,1.142,5.344
			c0.242,0.956,0.449,1.868,0.752,2.809l0.966,2.785l0.439,1.204c0.227,0.694,0.4,1.678,0.088,2.332
			c-0.095,0.198-0.289,0.483-0.288,0.558L19.55,51.6z"/>
	</g>
	<g>
		<path class="st0" d="M28.918,36.205c0.216-0.199,0.476-0.358,0.702-0.551c0.72-0.652,1.344-1.381,1.824-2.224
			c0.353-0.621,0.707-1.259,0.814-2.015c0.04-0.283,0.068-0.574,0.057-0.865c-0.042-1.243,0.009-2.42,0.044-3.67
			c0.037-0.819,0.03-0.658,0.069-1.513c0.027-0.436,0.071-1.13,0.147-2.338c0.053-0.616,0.116-1.363,0.193-2.274
			c0.098-0.908,0.279-1.921,0.492-3.179c0.024-0.161,0.337-1.88,1.655-3.019c0.073-0.103,0.285-0.215,0.336-0.333l-0.069-0.066
			c-0.249,0.14-0.506,0.268-0.744,0.425c-2.081,1.386-3.294,2.787-3.854,3.94c-0.555,1.167-0.609,1.934-0.609,1.934l-0.041,0.407
			c-0.172,1.848-0.302,3.653-0.375,5.411c-0.08,1.939,0.068,3.986,0.176,5.881l0.087,1.269c0.024,0.724-0.086,1.709-0.572,2.246
			c-0.158,0.154-0.382,0.41-0.401,0.482L28.918,36.205z"/>
	</g>
	<g>
		<path class="st0" d="M42.114,23.927c0.271-0.121,0.557-0.215,0.807-0.369c0.814-0.514,1.664-0.968,2.346-1.659
			c0.513-0.493,1.032-1.002,1.343-1.693c0.117-0.258,0.224-0.529,0.293-0.808c0.286-1.222,0.596-2.44,0.996-3.578
			c0.262-0.77,0.209-0.618,0.482-1.423c0.322-0.785,0.786-2.629,2.896-7.302c0.068-0.146,0.841-1.697,2.429-2.412
			c0.099-0.078,0.335-0.125,0.416-0.224l-0.048-0.082c-0.279,0.064-0.564,0.113-0.838,0.195c-1.199,0.358-2.185,0.802-2.98,1.262
			c-0.794,0.462-1.349,1.055-1.785,1.518c-0.857,0.958-1.12,1.676-1.12,1.676L47.2,9.404c-0.665,1.731-1.313,3.365-1.828,5.09
			c-0.543,1.946-1.01,3.854-1.411,5.716l-0.265,1.233c-0.172,0.701-0.567,1.581-1.124,2.05c-0.174,0.134-0.476,0.297-0.51,0.365
			L42.114,23.927z"/>
	</g>
	<g>
		<path class="st0" d="M58.105,15.658c0.295-0.038,0.597-0.046,0.882-0.121c0.93-0.252,1.815-0.63,2.683-1.027
			c0.631-0.321,1.272-0.656,1.762-1.224c0.183-0.212,0.362-0.438,0.504-0.685c0.614-1.065,1.245-2.149,1.917-3.236
			c0.445-0.711,0.363-0.541,0.848-1.242c0.521-0.692,1.489-2.191,4.779-6.201c0.055-0.065,0.366-0.442,0.881-0.847
			c0.518-0.354,1.246-0.722,2.103-0.83c0.117-0.045,0.357-0.02,0.462-0.091l-0.024-0.092c-0.286-0.022-0.573-0.058-0.859-0.06
			c-0.626-0.006-1.206,0.025-1.74,0.083c-0.532,0.099-1.017,0.236-1.458,0.38c-0.882,0.29-1.587,0.637-2.132,0.97
			c-1.089,0.665-1.539,1.273-1.539,1.273l-0.249,0.315L65.293,5.17l-1.494,2.317c-1.058,1.699-2.031,3.382-2.93,5.039l-0.593,1.097
			c-0.347,0.653-0.931,1.501-1.61,1.753c-0.205,0.077-0.541,0.146-0.593,0.202L58.105,15.658z"/>
	</g>
	<g>
		<path class="st0" d="M75.73,12.012c0.296,0.051,0.59,0.134,0.885,0.147c0.966,0.042,1.925-0.038,2.867-0.302
			c0.694-0.226,1.402-0.326,2.027-0.723c0.234-0.148,0.466-0.311,0.67-0.504c0.878-0.833,1.777-1.681,2.716-2.52
			c0.625-0.55,0.502-0.442,1.155-1.016c0.332-0.28,0.86-0.764,1.81-1.524c0.949-0.707,2.314-1.716,4.445-3.148
			c0.134-0.095,1.609-1.071,3.349-0.926c0.126-0.02,0.354,0.05,0.472,0.02l0.002-0.096c-0.268-0.105-0.543-0.181-0.82-0.248
			c-2.441-0.535-4.309-0.357-5.528-0.042c-1.223,0.319-1.817,0.772-1.817,0.772L87.636,2.16c-1.468,1.176-2.879,2.353-4.215,3.54
			c-0.737,0.655-1.453,1.312-2.149,1.969l-1.028,0.986l-0.998,1.092l-0.867,0.964c-0.512,0.533-1.306,1.158-2.03,1.199
			c-0.219,0.012-0.562-0.021-0.628,0.016L75.73,12.012z"/>
	</g>
	<g>
		<path class="st0" d="M93.721,13.156c0.269,0.138,0.526,0.306,0.804,0.407c0.911,0.331,1.846,0.54,2.817,0.57
			c0.715,0.022,1.445,0.037,2.166-0.222c0.27-0.096,0.543-0.208,0.794-0.353c1.062-0.542,2.147-1.093,3.269-1.625
			c0.746-0.346,0.598-0.278,1.377-0.639c0.4-0.178,1.038-0.46,2.147-0.952c0.572-0.238,1.266-0.527,2.111-0.878
			c0.834-0.29,1.832-0.626,3.044-1.007c0.154-0.051,1.827-0.566,3.447,0.078c0.126,0.017,0.323,0.154,0.451,0.144l0.028-0.091
			c-0.24-0.156-0.472-0.326-0.72-0.465c-2.187-1.217-4.006-1.615-5.27-1.626c-1.294,0.048-2.002,0.354-2.002,0.354l-0.381,0.152
			c-1.723,0.702-3.388,1.422-4.985,2.171c-1.74,0.761-3.503,1.889-5.133,2.855l-1.087,0.668c-0.631,0.359-1.556,0.723-2.259,0.544
			c-0.213-0.054-0.531-0.19-0.604-0.173L93.721,13.156z"/>
	</g>
	<g>
		<path class="st0" d="M110.675,19.23c0.233,0.184,0.447,0.394,0.699,0.545c0.813,0.517,1.621,1.038,2.545,1.333
			c0.675,0.227,1.366,0.453,2.123,0.411c0.284-0.015,0.574-0.044,0.854-0.112l1.83-0.435l1.801-0.31
			c0.805-0.123,0.646-0.099,1.487-0.227c0.43-0.059,1.115-0.151,2.308-0.312c0.611-0.069,1.352-0.153,2.255-0.255
			c0.921-0.103,2.007-0.2,3.249-0.209c0.161-0.007,1.897-0.037,3.266,1.037c0.115,0.051,0.266,0.239,0.391,0.265l0.051-0.081
			c-0.185-0.218-0.36-0.447-0.559-0.651c-1.745-1.795-3.37-2.688-4.653-2.955c-1.246-0.319-2.005-0.222-2.005-0.222l-0.404,0.039
			c-1.84,0.2-3.607,0.4-5.357,0.706c-1.981,0.412-3.891,0.876-5.733,1.376l-1.218,0.332c-0.71,0.183-1.656,0.203-2.331-0.071
			c-0.199-0.093-0.482-0.284-0.559-0.284L110.675,19.23z"/>
	</g>
	<g>
		<path class="st0" d="M125.369,29.648c0.171,0.244,0.318,0.508,0.517,0.724c0.323,0.358,0.677,0.684,1.04,0.998
			c0.337,0.34,0.701,0.652,1.095,0.93c0.58,0.408,1.177,0.82,1.911,0.99c0.274,0.064,0.559,0.117,0.845,0.129
			c1.222,0.059,2.516,0.086,3.746,0.218c0.802,0.103,0.644,0.083,1.481,0.191c0.858,0.139,2.65,0.296,7.752,1.341
			c0.155,0.037,1.82,0.484,2.829,1.9c0.096,0.082,0.188,0.305,0.3,0.364l0.071-0.064c-0.116-0.262-0.221-0.531-0.354-0.784
			c-0.599-1.097-1.179-2.008-1.848-2.652c-0.673-0.644-1.312-1.104-1.863-1.429c-1.102-0.652-1.854-0.767-1.854-0.767l-0.396-0.073
			c-1.814-0.31-3.526-0.627-5.385-0.728c-2.002-0.149-3.952-0.231-5.845-0.258l-1.252-0.017c-0.688-0.06-1.751-0.147-2.278-0.645
			c-0.164-0.146-0.381-0.411-0.455-0.432L125.369,29.648z"/>
	</g>
	<g>
		<path class="st0" d="M136.737,43.619c0.095,0.284,0.161,0.579,0.29,0.844c0.402,0.878,0.994,1.647,1.589,2.4
			c0.438,0.555,0.89,1.117,1.541,1.483c0.244,0.137,0.499,0.266,0.768,0.355c1.161,0.388,2.345,0.787,3.539,1.225
			c0.776,0.295,0.651,0.224,1.434,0.557c0.78,0.369,2.435,1.011,7.013,3.421c0.145,0.076,1.766,0.913,2.275,2.575
			c0.068,0.105,0.092,0.345,0.182,0.434l0.086-0.043c-0.036-0.284-0.059-0.574-0.113-0.855c-0.201-1.243-0.669-2.227-1.13-3.033
			c-0.46-0.807-0.939-1.428-1.373-1.894c-0.868-0.933-1.551-1.25-1.551-1.25l-0.357-0.18c-1.58-0.824-3.348-1.502-5.035-2.134
			c-1.868-0.693-3.704-1.307-5.498-1.852c-0.386-0.128-0.832-0.211-1.243-0.331c-0.717-0.203-1.65-0.611-2.03-1.228
			c-0.116-0.187-0.249-0.504-0.313-0.543L136.737,43.619z"/>
	</g>
	<g>
		<path class="st0" d="M143.922,60.119c0.009,0.299-0.013,0.604,0.033,0.895c0.151,0.955,0.421,1.876,0.867,2.745
			c0.357,0.634,0.627,1.3,1.128,1.833c0.191,0.199,0.398,0.394,0.627,0.554c0.992,0.692,2.003,1.4,3.013,2.149
			c0.664,0.502,0.533,0.403,1.227,0.926c0.341,0.268,0.92,0.688,1.856,1.467c0.882,0.788,2.145,1.922,3.975,3.718
			c0.12,0.112,1.371,1.359,1.579,3.09c0.045,0.12,0.019,0.357,0.089,0.466l0.093-0.018c0.024-0.284,0.061-0.567,0.065-0.851
			c0.035-2.497-0.515-4.289-1.068-5.418c-0.277-0.566-0.555-0.972-0.763-1.236c-0.204-0.265-0.359-0.386-0.359-0.386l-0.316-0.268
			c-1.446-1.203-2.883-2.347-4.314-3.417c-1.612-1.172-3.061-2.291-4.813-3.267l-1.116-0.653c-0.624-0.393-1.394-1.043-1.578-1.744
			c-0.056-0.212-0.091-0.554-0.141-0.61L143.922,60.119z"/>
	</g>
</g>
</svg>
