<?xml version="1.0" encoding="utf-8"?>
<!-- Generator: Adobe Illustrator 17.0.0, SVG Export Plug-In . SVG Version: 6.00 Build 0)  -->
<!DOCTYPE svg PUBLIC "-//W3C//DTD SVG 1.1//EN" "http://www.w3.org/Graphics/SVG/1.1/DTD/svg11.dtd">
<svg version="1.1" id="Capa_1" xmlns="http://www.w3.org/2000/svg" xmlns:xlink="http://www.w3.org/1999/xlink" x="0px" y="0px"
	 width="402px" height="400px" viewBox="0 0 402 400" style="enable-background:new 0 0 402 400;" xml:space="preserve">
<style type="text/css">
	.st0{fill:#CC9752;}
</style>
<g>
	<g>
		<path class="st0" d="M396.433,220.657c0.066-0.242,0.145-0.484,0.194-0.728c0.107-0.538,0.245-1.815,0.254-1.879
			c0.579-4.055-1.095-6.636-1.095-6.636l-0.22-0.26c-1.02-1.179-2.116-2.349-3.174-3.491l-3.544-3.707
			c-0.262-0.269-0.532-0.531-0.783-0.809c-0.431-0.479-0.922-1.231-0.91-1.895c0.004-0.2,0.056-0.511,0.028-0.572l-0.076,0.002
			c-0.064,0.267-0.156,0.53-0.187,0.798c-0.085,0.732-0.028,4.535,0.023,4.92c0.089,0.67,0.187,1.351,0.535,1.937
			c0.13,0.22,0.274,0.436,0.448,0.622c0.752,0.805,1.515,1.607,2.215,2.421c0.936,1.112-0.367-0.52,5.229,6.129
			c0.091,0.109,1.045,1.265,0.966,2.757c0.022,0.104-0.039,0.307,0.009,0.404L396.433,220.657z"/>
		<path class="st0" d="M395.17,230.595c0.084-0.238,0.172-0.476,0.234-0.717c0.134-0.532,0.336-1.801,0.348-1.864
			c0.783-4.021-0.758-6.685-0.758-6.685l-0.207-0.271c-0.956-1.229-1.993-2.453-2.992-3.647l-3.352-3.88
			c-0.249-0.282-0.506-0.558-0.741-0.848c-0.406-0.5-0.859-1.276-0.812-1.938c0.013-0.2,0.086-0.507,0.053-0.571l-0.076-0.001
			c-0.071,0.263-0.181,0.521-0.224,0.788c-0.122,0.725-0.257,4.526-0.226,4.913c0.056,0.674,0.118,1.358,0.436,1.961
			c0.119,0.225,0.253,0.449,0.416,0.644c0.712,0.842,1.43,1.681,2.088,2.529c0.878,1.158-0.34-0.539,4.913,6.387
			c0.086,0.113,0.981,1.317,0.826,2.802c0.016,0.106-0.05,0.306-0.015,0.404L395.17,230.595z"/>
	</g>
	<g>
		<path class="st0" d="M391.117,250.213c0.11-0.227,0.248-0.449,0.327-0.684c0.187-0.515,0.515-1.758,0.534-1.819
			c1.182-3.923-0.083-6.731-0.083-6.731l-0.179-0.292c-0.796-1.314-1.727-2.643-2.593-3.931l-2.943-4.203
			c-0.219-0.307-0.446-0.606-0.652-0.918c-0.353-0.539-0.725-1.357-0.612-2.011c0.034-0.197,0.133-0.496,0.114-0.562l-0.075-0.009
			c-0.104,0.253-0.234,0.5-0.306,0.76c-0.194,0.71-0.711,4.476-0.719,4.865c-0.013,0.675-0.02,1.363,0.237,1.995
			c0.096,0.236,0.205,0.472,0.348,0.683c0.633,0.912,1.229,1.812,1.807,2.726c0.758,1.243-0.284-0.572,4.245,6.86
			c0.071,0.12,0.851,1.412,0.532,2.872c0.002,0.106-0.099,0.295-0.071,0.396L391.117,250.213z"/>
		<path class="st0" d="M388.337,259.839c0.125-0.22,0.262-0.438,0.369-0.663c0.226-0.501,0.606-1.729,0.631-1.789
			c1.376-3.858,0.253-6.729,0.253-6.729l-0.164-0.3c-0.731-1.354-1.568-2.722-2.379-4.058l-2.728-4.348
			c-0.204-0.318-0.416-0.628-0.605-0.951c-0.326-0.556-0.657-1.392-0.511-2.039c0.044-0.195,0.158-0.489,0.142-0.555l-0.075-0.013
			c-0.116,0.248-0.259,0.488-0.343,0.744c-0.23,0.699-0.934,4.435-0.961,4.823c-0.047,0.674-0.089,1.36,0.136,2.004
			c0.083,0.242,0.182,0.482,0.314,0.7c0.589,0.944,1.111,1.867,1.654,2.813c0.694,1.281-0.254-0.586,3.896,7.071
			c0.057,0.122,0.794,1.46,0.371,2.891c-0.003,0.106-0.113,0.289-0.09,0.393L388.337,259.839z"/>
	</g>
	<g>
		<path class="st0" d="M381.312,278.598c0.146-0.207,0.303-0.41,0.433-0.623c0.302-0.465,0.823-1.64,0.841-1.702
			c1.75-3.702,0.919-6.677,0.919-6.677l-0.133-0.316c-0.604-1.429-1.229-2.851-1.928-4.272l-2.279-4.61
			c-0.17-0.336-0.351-0.668-0.507-1.009c-0.269-0.587-0.514-1.453-0.306-2.083c0.064-0.191,0.205-0.471,0.196-0.539l-0.073-0.02
			c-0.14,0.235-0.306,0.459-0.415,0.706c-0.298,0.672-1.37,4.32-1.435,4.704c-0.114,0.667-0.223,1.346-0.064,2.011
			c0.059,0.249,0.133,0.499,0.242,0.729l1.331,2.959c0.563,1.346-0.194-0.609,3.17,7.442c0.048,0.129,0.65,1.539,0.045,2.903
			c-0.014,0.105-0.141,0.277-0.129,0.382L381.312,278.598z"/>
		<path class="st0" d="M377.088,287.681c0.155-0.199,0.323-0.394,0.462-0.602c0.31-0.456,0.931-1.583,0.944-1.648
			c1.93-3.611,1.248-6.627,1.248-6.627l-0.118-0.322c-0.549-1.466-1.061-2.902-1.692-4.36l-2.046-4.725
			c-0.154-0.345-0.318-0.685-0.456-1.034c-0.239-0.601-0.441-1.479-0.202-2.098c0.072-0.187,0.227-0.46,0.222-0.528l-0.072-0.024
			c-0.151,0.227-0.328,0.443-0.449,0.685c-0.331,0.656-1.581,4.247-1.665,4.628c-0.147,0.66-0.289,1.333-0.164,2.006
			c0.051,0.253,0.095,0.5,0.187,0.733l1.182,3.026c0.495,1.374-0.164-0.62,2.796,7.601c0.06,0.14,0.547,1.558-0.119,2.895
			c-0.019,0.104-0.155,0.269-0.147,0.375L377.088,287.681z"/>
	</g>
	<g>
		<path class="st0" d="M367.275,305.138c0.173-0.184,0.359-0.361,0.518-0.553c0.351-0.425,1.078-1.486,1.116-1.538
			c1.184-1.666,1.624-3.318,1.824-4.505c0.189-1.195,0.091-1.96,0.091-1.96l-0.085-0.334l-1.21-4.496l-1.567-4.918l-0.351-1.078
			c-0.178-0.623-0.293-1.52,0.006-2.112c0.09-0.179,0.271-0.435,0.273-0.504l-0.07-0.031c-0.173,0.212-0.369,0.409-0.513,0.637
			c-0.393,0.621-1.988,4.074-2.109,4.444c-0.207,0.645-0.416,1.302-0.394,1.966c0.013,0.25,0.039,0.504,0.106,0.745l0.876,3.138
			c0.352,1.418-0.093-0.627,2.02,7.856c0.031,0.136,0.341,1.579-0.435,2.854c-0.029,0.102-0.18,0.253-0.183,0.359L367.275,305.138z"
			/>
		<path class="st0" d="M361.715,313.468c0.182-0.174,0.376-0.342,0.543-0.527c0.37-0.407,1.148-1.432,1.188-1.481
			c1.307-1.577,1.796-3.229,2.062-4.399c0.247-1.186,0.187-1.956,0.187-1.956l-0.068-0.337l-0.983-4.556
			c-0.39-1.664-0.859-3.345-1.303-4.985l-0.297-1.096c-0.147-0.632-0.218-1.534,0.109-2.111c0.099-0.174,0.293-0.422,0.297-0.49
			l-0.067-0.034c-0.183,0.202-0.388,0.389-0.543,0.61c-0.423,0.601-2.183,3.974-2.322,4.337c-0.228,0.641-0.514,1.259-0.511,1.933
			c0,0.251,0.014,0.507,0.069,0.75l0.721,3.182c0.271,1.43-0.04-0.616,1.608,7.943c0.024,0.138,0.263,1.596-0.574,2.833
			c-0.034,0.1-0.191,0.244-0.199,0.35L361.715,313.468z"/>
	</g>
	<g>
		<path class="st0" d="M349.364,329.228c0.198-0.156,0.407-0.304,0.591-0.472c0.407-0.369,1.279-1.315,1.325-1.361
			c1.46-1.436,2.166-2.986,2.519-4.148c0.362-1.158,0.377-1.932,0.377-1.932l-0.035-0.343l-0.53-4.644
			c-0.193-1.677-0.469-3.38-0.763-5.072l-0.188-1.122c-0.085-0.646-0.066-1.554,0.315-2.096c0.115-0.164,0.332-0.392,0.343-0.46
			l-0.064-0.042c-0.202,0.184-0.423,0.35-0.599,0.554c-0.486,0.552-2.537,3.76-2.746,4.083c-0.327,0.587-0.655,1.188-0.721,1.859
			c-0.024,0.25-0.035,0.507-0.005,0.757l0.404,3.247c0.083,0.718,0.067,0.576,0.153,1.326c0.049,0.732,0.36,2.44,0.623,6.725
			c0.01,0.14,0.105,1.619-0.846,2.77c-0.044,0.097-0.214,0.224-0.233,0.329L349.364,329.228z"/>
		<path class="st0" d="M342.608,336.619c0.205-0.147,0.42-0.285,0.612-0.443c0.424-0.35,1.34-1.252,1.387-1.296
			c1.517-1.373,2.34-2.848,2.737-4.006c0.417-1.14,0.471-1.914,0.471-1.914l-0.017-0.345l-0.301-4.672
			c-0.123-1.697-0.269-3.378-0.492-5.093l-0.133-1.132c-0.053-0.65,0.01-1.557,0.417-2.081c0.123-0.158,0.35-0.375,0.364-0.442
			l-0.061-0.045c-0.209,0.174-0.439,0.329-0.624,0.525c-0.512,0.528-2.709,3.64-2.96,3.93c-0.356,0.572-0.712,1.156-0.81,1.823
			c-0.037,0.249-0.06,0.506-0.042,0.757l0.244,3.269c0.047,0.721,0.038,0.58,0.087,1.334c0.03,0.75,0.216,2.437,0.271,6.739
			c0.003,0.14,0.025,1.625-0.98,2.729c-0.048,0.095-0.225,0.213-0.248,0.318L342.608,336.619z"/>
	</g>
	<g>
		<path class="st0" d="M328.015,350.329c0.218-0.126,0.445-0.242,0.652-0.382c0.456-0.307,1.453-1.118,1.504-1.157
			c1.621-1.243,2.625-2.589,3.148-3.687c0.525-1.097,0.655-1.864,0.655-1.864l0.016-0.347l0.161-4.693
			c0.035-1.715,0.068-3.394,0.052-5.093l-0.021-1.143c0.012-0.654,0.163-1.553,0.618-2.037c0.137-0.145,0.383-0.34,0.404-0.405
			l-0.056-0.05c-0.224,0.153-0.467,0.285-0.671,0.462c-0.277,0.242-1.042,1.078-1.767,1.894c-0.751,0.79-1.48,1.542-1.594,1.698
			c-0.409,0.536-0.819,1.085-0.982,1.741c-0.061,0.245-0.11,0.499-0.117,0.751l-0.078,3.287c-0.024,0.725-0.02,0.582-0.045,1.34
			c-0.018,0.78-0.078,2.394-0.432,6.711c-0.01,0.141-0.135,1.625-1.241,2.628c-0.056,0.089-0.244,0.191-0.277,0.293L328.015,350.329
			z"/>
		<path class="st0" d="M320.217,356.612c0.224-0.115,0.456-0.221,0.669-0.35c0.47-0.285,1.504-1.048,1.557-1.084
			c1.686-1.154,2.729-2.482,3.34-3.512c0.579-1.071,0.746-1.832,0.746-1.832l0.034-0.346l0.391-4.686l0.314-5.081l0.044-1.136
			c0.044-0.654,0.238-1.546,0.716-2.007c0.144-0.139,0.399-0.321,0.423-0.386l-0.054-0.053c-0.232,0.142-0.481,0.262-0.692,0.43
			c-0.293,0.222-1.079,1.041-1.869,1.793c-0.798,0.741-1.554,1.466-1.679,1.614c-0.434,0.516-0.87,1.045-1.065,1.693
			c-0.073,0.243-0.134,0.494-0.153,0.746l-0.242,3.284c-0.166,1.448,0.185-0.556-0.891,8.009c-0.018,0.14-0.216,1.618-1.368,2.567
			c-0.062,0.088-0.253,0.18-0.292,0.28L320.217,356.612z"/>
	</g>
	<g>
		<path class="st0" d="M303.713,367.955c0.233-0.093,0.474-0.176,0.699-0.284c0.494-0.238,1.597-0.898,1.654-0.929
			c1.789-0.987,2.956-2.209,3.665-3.178c0.718-0.959,0.954-1.71,0.954-1.71l0.067-0.342l0.854-4.639l0.815-5.041
			c0.056-0.37,0.102-0.742,0.173-1.108c0.13-0.618,0.407-1.495,0.926-1.909c0.157-0.125,0.427-0.282,0.458-0.343l-0.049-0.059
			c-0.244,0.119-0.503,0.214-0.729,0.361c-0.576,0.452-3.625,2.72-3.89,3.009c-0.482,0.472-0.967,0.958-1.225,1.586
			c-0.096,0.234-0.182,0.479-0.226,0.729l-0.565,3.254c-0.306,1.436,0.197-0.6-1.714,7.86c-0.031,0.138-0.376,1.594-1.615,2.428
			c-0.07,0.081-0.269,0.154-0.317,0.25L303.713,367.955z"/>
		<path class="st0" d="M295.047,372.982c0.238-0.082,0.483-0.152,0.712-0.249c0.505-0.214,1.639-0.82,1.696-0.848
			c3.679-1.804,4.867-4.639,4.867-4.639l0.085-0.339l1.085-4.597l1.065-5.002c0.075-0.368,0.138-0.738,0.227-1.1
			c0.152-0.625,0.504-1.441,1.034-1.841c0.162-0.117,0.441-0.26,0.474-0.322l-0.045-0.061c-0.249,0.107-0.512,0.19-0.745,0.326
			c-0.627,0.38-3.761,2.528-4.045,2.796c-0.504,0.449-1.012,0.91-1.301,1.527c-0.107,0.23-0.205,0.471-0.262,0.718l-0.733,3.215
			c-0.391,1.398,0.224-0.597-2.111,7.764c-0.038,0.136-0.455,1.576-1.733,2.349c-0.074,0.078-0.276,0.141-0.329,0.235
			L295.047,372.982z"/>
	</g>
	<g>
		<path class="st0" d="M276.988,381.646c0.249-0.048,0.503-0.082,0.745-0.147c0.523-0.164,1.71-0.656,1.771-0.678
			c3.836-1.438,5.303-4.148,5.303-4.148l0.123-0.318c0.561-1.433,1.056-2.975,1.557-4.445l1.561-4.885
			c0.111-0.359,0.211-0.721,0.336-1.074c0.215-0.608,0.64-1.398,1.229-1.704c0.18-0.089,0.473-0.199,0.51-0.26l-0.038-0.066
			c-0.255,0.088-0.536,0.124-0.785,0.227c-0.682,0.274-3.993,2.142-4.308,2.372c-0.545,0.398-1.096,0.809-1.445,1.395
			c-0.13,0.219-0.251,0.449-0.333,0.691c-0.343,1.055-0.697,2.077-1.074,3.09c-0.529,1.356,0.282-0.572-2.883,7.536
			c-0.055,0.125-0.605,1.541-1.965,2.157c-0.083,0.065-0.294,0.1-0.358,0.184L276.988,381.646z"/>
		<path class="st0" d="M267.645,385.267c0.251-0.035,0.507-0.057,0.752-0.109c0.544-0.1,1.744-0.561,1.808-0.572
			c3.902-1.248,5.504-3.883,5.504-3.883l0.14-0.313c0.634-1.405,1.222-2.883,1.789-4.345l1.805-4.807
			c0.129-0.354,0.248-0.711,0.39-1.058c0.245-0.597,0.709-1.367,1.312-1.644c0.182-0.083,0.485-0.171,0.528-0.224l-0.035-0.067
			c-0.267,0.058-0.544,0.089-0.8,0.178c-0.695,0.241-4.093,1.946-4.418,2.16c-0.564,0.372-1.135,0.755-1.512,1.324
			c-0.141,0.213-0.274,0.437-0.366,0.674c-0.395,1.039-0.818,2.003-1.238,3.015c-0.598,1.329,0.311-0.558-3.261,7.39
			c-0.064,0.114-0.675,1.531-2.079,2.038c-0.086,0.061-0.299,0.085-0.367,0.166L267.645,385.267z"/>
	</g>
	<g>
		<path class="st0" d="M248.467,391.05c0.253-0.01,0.511-0.007,0.758-0.035c0.552-0.044,1.806-0.325,1.866-0.354
			c4.005-0.856,5.866-3.323,5.866-3.323l0.171-0.297c0.766-1.359,1.527-2.691,2.233-4.113l2.284-4.612
			c0.164-0.34,0.318-0.685,0.495-1.016c0.304-0.571,0.844-1.292,1.471-1.509c0.189-0.065,0.498-0.122,0.547-0.171l-0.028-0.071
			c-0.271,0.031-0.55,0.035-0.812,0.099c-0.715,0.172-4.265,1.535-4.609,1.716c-0.598,0.314-1.205,0.641-1.637,1.17
			c-0.161,0.2-0.316,0.409-0.437,0.623l-1.546,2.855c-0.73,1.265,0.367-0.525-3.997,7.038c-0.071,0.123-0.831,1.441-2.284,1.789
			c-0.092,0.053-0.305,0.055-0.381,0.129L248.467,391.05z"/>
		<path class="st0" d="M238.682,393.195c0.253,0.002,0.51,0.018,0.759,0.004c0.551-0.029,1.823-0.219,1.883-0.247
			c4.042-0.656,6.027-3.027,6.027-3.027l0.185-0.289c0.831-1.334,1.668-2.593,2.445-3.982l2.517-4.494l0.547-0.991
			c0.333-0.554,0.908-1.248,1.546-1.434c0.192-0.056,0.503-0.098,0.554-0.144l-0.024-0.072c-0.273,0.017-0.551,0.008-0.816,0.058
			c-0.722,0.136-4.335,1.322-4.688,1.486c-0.614,0.285-1.236,0.58-1.695,1.088c-0.174,0.181-0.342,0.372-0.472,0.585l-1.691,2.775
			c-0.794,1.227,0.393-0.506-4.352,6.832c-0.075,0.132-0.907,1.381-2.375,1.659c-0.094,0.048-0.307,0.04-0.387,0.11L238.682,393.195
			z"/>
	</g>
	<g>
		<path class="st0" d="M218.85,395.972c0.252,0.028,0.505,0.07,0.754,0.081c0.55,0.022,1.836-0.029,1.899-0.04
			c4.086-0.246,6.302-2.407,6.302-2.407l0.214-0.269c0.964-1.238,1.922-2.429,2.843-3.694l2.963-4.223l0.645-0.932
			c0.388-0.519,1.031-1.153,1.684-1.274c0.197-0.036,0.511-0.047,0.566-0.088l-0.017-0.074c-0.273-0.009-0.548-0.047-0.817-0.024
			c-0.732,0.063-4.446,0.883-4.814,1.011c-0.641,0.212-1.284,0.477-1.8,0.891c-0.191,0.162-0.378,0.336-0.529,0.534l-1.966,2.592
			c-0.914,1.142,0.442-0.463-5.026,6.363c-0.087,0.128-1.046,1.254-2.531,1.396c-0.099,0.038-0.311,0.009-0.397,0.071
			L218.85,395.972z"/>
		<path class="st0" d="M208.857,396.603c0.249,0.041,0.5,0.095,0.749,0.118c0.548,0.05,1.834,0.063,1.898,0.057
			c4.093-0.039,6.416-2.085,6.416-2.085l0.227-0.258c1.026-1.185,2.042-2.335,3.027-3.54l3.174-4.069l0.692-0.898
			c0.414-0.5,1.089-1.099,1.747-1.187c0.198-0.027,0.513-0.021,0.569-0.059l-0.013-0.075c-0.272-0.024-0.546-0.074-0.816-0.064
			c-0.734,0.026-4.486,0.659-4.86,0.768c-0.65,0.184-1.307,0.405-1.844,0.794c-0.199,0.151-0.394,0.315-0.556,0.506l-2.095,2.49
			c-0.971,1.094,0.464-0.441-5.342,6.101c-0.094,0.124-1.109,1.197-2.599,1.264c-0.101,0.033-0.311-0.007-0.4,0.05L208.857,396.603z
			"/>
	</g>
	<g>
		<path class="st0" d="M188.84,396.356c0.244,0.066,0.488,0.145,0.733,0.194c0.54,0.101,1.819,0.254,1.884,0.241
			c4.074,0.374,6.591-1.427,6.591-1.427l0.252-0.233c1.139-1.077,2.266-2.115,3.368-3.219l3.57-3.727l0.779-0.824
			c0.463-0.455,1.195-0.983,1.859-1.005c0.2-0.006,0.512,0.031,0.572-0.002l-0.005-0.075c-0.269-0.051-0.536-0.129-0.805-0.147
			c-0.733-0.049-4.531,0.202-4.915,0.274c-0.666,0.115-1.342,0.273-1.914,0.605c-0.214,0.13-0.425,0.274-0.605,0.448l-2.336,2.265
			c-1.076,0.99,0.506-0.391-5.928,5.53c-0.106,0.112-1.223,1.093-2.713,1.003c-0.104,0.023-0.308-0.038-0.403,0.01L188.84,396.356z"
			/>
		<path class="st0" d="M178.864,395.473c0.241,0.078,0.481,0.169,0.723,0.231c0.535,0.129,1.804,0.345,1.869,0.337
			c4.051,0.58,6.656-1.092,6.656-1.092l0.263-0.22c1.193-1.019,2.37-1.993,3.527-3.048l3.752-3.542l0.819-0.783
			c0.485-0.431,1.244-0.922,1.907-0.91c0.2,0.004,0.511,0.056,0.572,0.027l-0.002-0.075c-0.266-0.064-0.528-0.156-0.796-0.187
			c-0.731-0.085-4.536-0.027-4.923,0.025c-0.671,0.078-1.354,0.209-1.943,0.511c-0.22,0.119-0.438,0.253-0.626,0.416l-2.446,2.144
			c-1.125,0.935,0.525-0.365-6.201,5.224c-0.111,0.107-1.277,1.027-2.761,0.863c-0.104,0.017-0.306-0.054-0.402-0.011
			L178.864,395.473z"/>
	</g>
	<g>
		<path class="st0" d="M159.109,392.186c0.232,0.101,0.461,0.216,0.696,0.301c0.518,0.187,1.762,0.514,1.824,0.533
			c3.97,0.998,6.735-0.409,6.735-0.409l0.285-0.193c1.29-0.89,2.562-1.752,3.818-2.669l4.092-3.145l0.894-0.696
			c0.526-0.38,1.33-0.793,1.989-0.713c0.198,0.024,0.502,0.107,0.566,0.085l0.006-0.076c-0.258-0.09-0.509-0.209-0.773-0.267
			c-0.718-0.158-4.508-0.484-4.897-0.471c-0.676,0.017-1.367,0.062-1.983,0.305c-0.231,0.096-0.461,0.208-0.665,0.351l-2.651,1.887
			c-1.215,0.816,0.561-0.31-6.703,4.571c-0.122,0.099-1.37,0.863-2.833,0.565c-0.105,0.007-0.299-0.084-0.399-0.051L159.109,392.186
			z"/>
		<path class="st0" d="M149.383,389.785c0.227,0.114,0.45,0.24,0.68,0.336c0.508,0.213,1.735,0.602,1.795,0.623
			c3.909,1.222,6.746-0.057,6.746-0.057l0.295-0.178l3.949-2.464l4.248-2.935l0.929-0.651c0.544-0.353,1.368-0.724,2.022-0.612
			c0.198,0.035,0.496,0.133,0.561,0.114l0.01-0.075c-0.253-0.104-0.498-0.234-0.759-0.305c-0.708-0.194-4.477-0.71-4.867-0.717
			c-0.678-0.008-1.366-0.019-1.994,0.195c-0.236,0.085-0.471,0.184-0.682,0.318l-2.746,1.751c-1.256,0.754,0.576-0.282-6.93,4.228
			c-0.122,0.069-1.411,0.783-2.856,0.409c-0.106,0.002-0.295-0.099-0.397-0.071L149.383,389.785z"/>
	</g>
	<g>
		<path class="st0" d="M130.367,383.5c0.213,0.135,0.423,0.282,0.642,0.401c0.485,0.262,1.666,0.77,1.724,0.798
			c1.847,0.886,3.567,0.963,4.768,0.939c1.211-0.047,1.943-0.291,1.943-0.291l0.311-0.147l4.184-2.053
			c1.517-0.77,3.038-1.642,4.522-2.468l0.991-0.554c0.578-0.296,1.437-0.583,2.076-0.405c0.193,0.053,0.48,0.181,0.547,0.169
			l0.017-0.074c-0.241-0.128-0.471-0.282-0.724-0.379c-0.685-0.264-4.384-1.153-4.771-1.199c-0.677-0.065-1.342-0.205-1.997-0.034
			c-0.243,0.061-0.488,0.136-0.712,0.248l-2.913,1.468c-1.322,0.609,0.591-0.189-7.322,3.478c-0.128,0.056-1.485,0.639-2.887,0.124
			c-0.106-0.009-0.283-0.127-0.388-0.11L130.367,383.5z"/>
		<path class="st0" d="M121.126,379.633c0.207,0.145,0.409,0.303,0.622,0.432c0.471,0.285,1.626,0.851,1.683,0.881
			c1.79,0.999,3.508,1.157,4.709,1.193c1.212,0.013,1.957-0.194,1.957-0.194l0.319-0.132l4.286-1.842
			c1.544-0.66,3.116-1.477,4.639-2.221l1.019-0.503c0.593-0.267,1.465-0.511,2.095-0.303c0.191,0.064,0.471,0.205,0.539,0.196
			l0.021-0.073c-0.234-0.14-0.457-0.305-0.703-0.414c-0.672-0.297-4.322-1.368-4.706-1.434c-0.662-0.131-1.327-0.283-1.988-0.151
			c-0.246,0.049-0.495,0.111-0.724,0.213l-2.987,1.32c-1.349,0.534,0.591-0.139-7.488,3.09c-0.131,0.05-1.517,0.565-2.892-0.019
			c-0.105-0.014-0.277-0.142-0.383-0.129L121.126,379.633z"/>
	</g>
	<g>
		<path class="st0" d="M103.3,370.507c0.191,0.165,0.376,0.341,0.576,0.49c0.441,0.329,1.535,1.005,1.589,1.041
			c1.688,1.158,3.335,1.573,4.55,1.689c1.206,0.133,1.97,0.001,1.97,0.001l0.331-0.1l4.461-1.408
			c1.611-0.513,3.219-1.084,4.83-1.708l1.067-0.4c0.618-0.206,1.513-0.363,2.119-0.093c0.183,0.082,0.448,0.249,0.516,0.248
			l0.029-0.071c-0.219-0.162-0.424-0.348-0.659-0.481c-0.632-0.376-4.183-1.754-4.528-1.921c-0.64-0.209-1.292-0.416-1.963-0.352
			c-0.251,0.024-0.505,0.062-0.744,0.14l-3.112,1.017c-0.689,0.219-0.554,0.176-1.274,0.404c-0.713,0.193-2.324,0.812-6.482,1.886
			c-0.136,0.037-1.571,0.412-2.882-0.303c-0.104-0.024-0.261-0.168-0.368-0.165L103.3,370.507z"/>
		<path class="st0" d="M94.76,365.275c0.184,0.173,0.359,0.358,0.552,0.518c0.423,0.35,1.484,1.077,1.535,1.115
			c1.641,1.223,3.238,1.763,4.451,1.931c1.2,0.191,1.97,0.097,1.97,0.097l0.336-0.083l4.531-1.185
			c1.647-0.452,3.26-0.897,4.904-1.445l1.087-0.347c0.628-0.176,1.53-0.288,2.123,0.011c0.179,0.09,0.435,0.271,0.503,0.272
			l0.032-0.068c-0.21-0.173-0.406-0.369-0.634-0.513c-0.62-0.393-4.084-1.971-4.418-2.16c-0.628-0.24-1.27-0.478-1.945-0.447
			c-0.252,0.011-0.507,0.037-0.75,0.102l-3.164,0.863c-0.7,0.184-0.562,0.147-1.294,0.34c-0.735,0.178-2.348,0.671-6.563,1.542
			c-0.137,0.031-1.591,0.333-2.866-0.443c-0.103-0.029-0.253-0.18-0.36-0.184L94.76,365.275z"/>
	</g>
	<g>
		<path class="st0" d="M78.533,353.544c0.165,0.19,0.322,0.391,0.499,0.567c0.388,0.389,1.373,1.214,1.421,1.257
			c1.527,1.357,3.042,2.083,4.215,2.394c1.178,0.308,1.956,0.29,1.956,0.29l0.343-0.05l4.639-0.732
			c1.69-0.289,3.349-0.581,5.01-0.911l1.119-0.238c0.644-0.113,1.555-0.136,2.117,0.219c0.169,0.107,0.406,0.311,0.475,0.32
			l0.039-0.065c-0.194-0.192-0.369-0.405-0.582-0.571c-0.29-0.225-1.256-0.818-2.195-1.374c-0.912-0.596-1.793-1.162-1.967-1.247
			c-0.603-0.3-1.22-0.598-1.895-0.634c-0.253-0.013-0.511-0.013-0.76,0.028l-3.243,0.547c-0.717,0.114-0.576,0.091-1.325,0.21
			c-0.771,0.131-2.361,0.371-6.671,0.845c-0.14,0.016-1.62,0.175-2.815-0.721c-0.1-0.039-0.234-0.203-0.34-0.216L78.533,353.544z"/>
		<path class="st0" d="M70.886,347.076c0.156,0.198,0.303,0.406,0.471,0.591c0.369,0.406,1.314,1.278,1.359,1.323
			c1.454,1.437,2.955,2.208,4.083,2.613c1.158,0.371,1.939,0.387,1.939,0.387l0.346-0.032l4.676-0.503l5.05-0.656l1.121-0.168
			c0.65-0.082,1.563-0.06,2.106,0.322c0.164,0.115,0.391,0.331,0.459,0.342l0.042-0.063c-0.184-0.201-0.348-0.422-0.553-0.598
			c-0.273-0.247-1.23-0.858-2.113-1.497c-0.879-0.644-1.734-1.248-1.903-1.342c-0.588-0.329-1.19-0.657-1.865-0.725
			c-0.252-0.025-0.51-0.038-0.761-0.009l-3.27,0.386c-1.457,0.115,0.583,0.073-8.033,0.64c-0.141,0.009-1.63,0.096-2.781-0.856
			c-0.097-0.044-0.224-0.214-0.329-0.233L70.886,347.076z"/>
	</g>
	<g>
		<path class="st0" d="M56.621,333.023c0.136,0.212,0.263,0.433,0.412,0.632c0.328,0.44,1.185,1.397,1.227,1.447
			c1.309,1.568,2.731,2.481,3.817,2.993c1.079,0.521,1.857,0.614,1.857,0.614l0.348,0.002l4.718-0.042l5.105-0.156
			c0.374-0.015,0.748-0.041,1.121-0.041c0.633,0.009,1.54,0.122,2.048,0.551c0.152,0.13,0.358,0.366,0.424,0.384l0.049-0.058
			c-0.163-0.217-0.305-0.453-0.492-0.647c-0.548-0.485-3.356-3.046-3.691-3.251c-0.555-0.383-1.124-0.768-1.79-0.902
			c-0.249-0.049-0.505-0.087-0.759-0.083l-3.302,0.063c-1.461-0.035,0.628,0.077-8.041-0.194c-0.142-0.004-1.637-0.065-2.691-1.123
			c-0.093-0.053-0.202-0.234-0.306-0.263L56.621,333.023z"/>
		<path class="st0" d="M50.039,325.473c0.126,0.218,0.242,0.445,0.381,0.651c0.307,0.455,1.117,1.452,1.155,1.503
			c2.473,3.266,5.482,3.893,5.482,3.893l0.343,0.024l4.721,0.191l5.115,0.096c0.375,0.003,0.75-0.004,1.123,0.014
			c0.646,0.027,1.506,0.226,2.001,0.67c0.146,0.137,0.34,0.383,0.405,0.404l0.052-0.056c-0.153-0.224-0.284-0.467-0.461-0.67
			c-0.485-0.55-3.197-3.213-3.512-3.443c-0.537-0.41-1.087-0.821-1.746-0.987c-0.247-0.062-0.502-0.112-0.755-0.121
			c-1.089-0.042-2.214-0.046-3.292-0.114c-1.448-0.117,0.627,0.105-8.029-0.595c-0.141-0.011-1.634-0.146-2.637-1.253
			c-0.09-0.057-0.191-0.244-0.293-0.278L50.039,325.473z"/>
	</g>
	<g>
		<path class="st0" d="M38.107,309.389c0.095,0.235,0.179,0.478,0.288,0.703c0.232,0.501,0.964,1.557,0.991,1.616
			c2.148,3.487,5.091,4.407,5.091,4.407l0.336,0.06c1.514,0.278,3.104,0.482,4.652,0.687l5.097,0.601
			c0.374,0.04,0.75,0.07,1.12,0.125c0.638,0.095,1.496,0.361,1.909,0.881c0.125,0.156,0.281,0.431,0.345,0.457l0.057-0.05
			c-0.123-0.244-0.218-0.507-0.366-0.733c-0.4-0.617-2.869-3.51-3.154-3.774c-0.496-0.459-1.004-0.921-1.647-1.152
			c-0.24-0.085-0.489-0.161-0.742-0.194c-1.103-0.134-2.153-0.303-3.23-0.472c-1.433-0.26,0.616,0.167-7.954-1.387
			c-0.128-0.034-1.644-0.289-2.48-1.525c-0.08-0.068-0.154-0.269-0.25-0.315L38.107,309.389z"/>
		<path class="st0" d="M32.769,300.914c0.083,0.239,0.155,0.486,0.253,0.716c0.2,0.516,0.852,1.623,0.889,1.676
			c1.978,3.585,4.875,4.651,4.875,4.651l0.334,0.077c1.506,0.35,3.038,0.665,4.596,0.933l5.068,0.852
			c0.373,0.059,0.747,0.107,1.114,0.18c0.634,0.127,1.479,0.435,1.866,0.974c0.118,0.162,0.261,0.442,0.322,0.474l0.06-0.048
			c-0.108-0.251-0.193-0.517-0.329-0.751c-0.37-0.635-2.698-3.643-2.971-3.921c-0.473-0.482-0.959-0.969-1.59-1.23
			c-0.236-0.097-0.482-0.184-0.733-0.231l-3.185-0.647c-1.42-0.332,0.608,0.198-7.888-1.783c-0.13-0.038-1.629-0.371-2.383-1.659
			c-0.077-0.072-0.141-0.276-0.234-0.327L32.769,300.914z"/>
	</g>
	<g>
		<path class="st0" d="M23.423,283.201c0.06,0.246,0.107,0.498,0.182,0.736c0.165,0.525,0.66,1.714,0.682,1.774
			c1.612,3.764,4.402,5.112,4.402,5.112l0.325,0.11c1.495,0.485,2.931,0.985,4.448,1.414l4.973,1.354l1.094,0.291
			c0.619,0.188,1.433,0.579,1.767,1.152c0.101,0.173,0.217,0.465,0.274,0.503l0.064-0.041c-0.083-0.26-0.141-0.532-0.254-0.778
			c-0.307-0.668-2.335-3.885-2.581-4.188c-0.42-0.529-0.874-1.052-1.455-1.387c-0.216-0.125-0.444-0.242-0.682-0.316l-3.105-0.968
			c-1.385-0.472,0.587,0.259-7.693-2.564c-0.151-0.038-1.518-0.566-2.168-1.91c-0.069-0.08-0.114-0.289-0.202-0.349L23.423,283.201z
			"/>
		<path class="st0" d="M19.442,274.009c0.047,0.249,0.082,0.503,0.145,0.744c0.14,0.532,0.575,1.743,0.594,1.804
			c0.663,1.934,1.743,3.258,2.591,4.114c0.859,0.852,1.537,1.219,1.537,1.219l0.32,0.126l4.355,1.647l4.906,1.602l1.08,0.345
			c0.61,0.22,1.405,0.651,1.71,1.239c0.093,0.178,0.194,0.475,0.249,0.516l0.066-0.038c-0.071-0.264-0.115-0.538-0.216-0.789
			c-0.274-0.681-2.144-3.994-2.375-4.308c-0.403-0.544-0.812-1.098-1.364-1.468c-0.211-0.136-0.432-0.264-0.667-0.35l-3.058-1.123
			c-1.357-0.543,0.565,0.292-7.557-2.953c-0.129-0.055-1.48-0.647-2.06-2.023c-0.065-0.083-0.1-0.293-0.184-0.358L19.442,274.009z"
			/>
	</g>
	<g>
		<path class="st0" d="M12.918,255.072c0.022,0.252,0.031,0.508,0.071,0.754c0.086,0.543,0.399,1.792,0.413,1.855
			c0.391,2.013,1.394,3.422,2.135,4.363c0.772,0.935,1.411,1.369,1.411,1.369l0.307,0.158l4.174,2.082
			c1.508,0.749,3.142,1.423,4.695,2.105l1.042,0.452c0.587,0.28,1.336,0.789,1.583,1.405c0.075,0.186,0.147,0.491,0.198,0.537
			l0.069-0.031c-0.044-0.269-0.062-0.546-0.138-0.805c-0.206-0.705-1.745-4.184-1.943-4.52c-0.337-0.585-0.643-1.194-1.173-1.612
			c-0.196-0.157-0.405-0.306-0.63-0.416l-2.936-1.427c-1.281-0.683,0.495,0.36-7.199-3.717c-0.122-0.067-1.41-0.794-1.852-2.221
			c-0.057-0.089-0.07-0.302-0.148-0.375L12.918,255.072z"/>
		<path class="st0" d="M10.393,245.379c0.01,0.253,0.007,0.508,0.034,0.757c0.059,0.547,0.309,1.808,0.32,1.872
			c0.292,2.03,1.192,3.495,1.9,4.47c0.725,0.972,1.342,1.439,1.342,1.439l0.298,0.173l4.067,2.292
			c1.465,0.827,3.041,1.59,4.57,2.346l1.019,0.505c0.572,0.309,1.296,0.855,1.513,1.482c0.065,0.189,0.122,0.498,0.171,0.547
			l0.071-0.027c-0.031-0.271-0.035-0.548-0.098-0.81c-0.169-0.715-1.543-4.263-1.713-4.612c-0.283-0.609-0.576-1.227-1.08-1.674
			c-0.188-0.166-0.389-0.325-0.609-0.447l-2.863-1.575c-0.629-0.354-0.505-0.284-1.162-0.653c-0.632-0.387-2.16-1.144-5.83-3.431
			c-0.119-0.074-1.369-0.865-1.739-2.312c-0.053-0.093-0.056-0.306-0.129-0.382L10.393,245.379z"/>
	</g>
	<g>
		<path class="st0" d="M6.854,225.668c-0.016,0.252-0.045,0.506-0.043,0.755c0.004,0.551,0.126,1.83,0.13,1.895
			c0.092,2.047,0.792,3.603,1.42,4.642c0.625,1.041,1.192,1.568,1.192,1.568l0.28,0.203l3.819,2.695
			c1.382,0.972,2.812,1.905,4.286,2.807l0.965,0.606c0.54,0.366,1.206,0.983,1.359,1.629c0.046,0.194,0.073,0.507,0.116,0.561
			l0.074-0.02c-0.004-0.273,0.02-0.549-0.017-0.816c-0.084-0.731-1.142-4.39-1.217-4.766c-0.221-0.635-0.451-1.279-0.908-1.774
			c-0.171-0.185-0.354-0.365-0.561-0.507l-2.693-1.86c-0.591-0.416-0.474-0.334-1.092-0.769c-0.579-0.451-2.059-1.356-5.436-4.012
			c-0.111-0.085-1.275-1.001-1.498-2.477c-0.043-0.097-0.024-0.31-0.09-0.394L6.854,225.668z"/>
		<path class="st0" d="M5.844,215.705c-0.028,0.251-0.07,0.503-0.081,0.753c-0.024,0.549,0.034,1.833,0.035,1.898
			c-0.011,2.048,0.597,3.64,1.178,4.708c0.572,1.07,1.111,1.626,1.111,1.626l0.27,0.216l3.679,2.887
			c1.34,1.039,2.702,2.048,4.13,3.024l0.933,0.655c0.521,0.394,1.155,1.044,1.276,1.696c0.037,0.197,0.048,0.511,0.088,0.565
			l0.075-0.016c0.009-0.272,0.047-0.547,0.024-0.815c-0.048-0.734-0.922-4.442-0.967-4.823c-0.188-0.646-0.387-1.302-0.818-1.819
			c-0.161-0.193-0.336-0.381-0.535-0.535l-2.596-1.995c-0.569-0.446-0.457-0.358-1.052-0.823c-0.298-0.236-0.773-0.612-1.601-1.265
			c-0.843-0.657-2.008-1.602-3.621-3.019c-0.107-0.092-1.223-1.064-1.371-2.549c-0.038-0.1-0.009-0.311-0.071-0.398L5.844,215.705z"
			/>
	</g>
	<g>
		<path class="st0" d="M5.34,195.695c-0.054,0.246-0.121,0.493-0.157,0.74c-0.079,0.544-0.151,1.828-0.158,1.892
			c-0.218,2.036,0.231,3.68,0.7,4.801c0.46,1.123,0.942,1.73,0.942,1.73l0.245,0.243l3.369,3.244
			c1.235,1.169,2.472,2.312,3.796,3.429l0.863,0.747c0.478,0.445,1.045,1.156,1.099,1.817c0.016,0.2-0.004,0.513,0.031,0.572
			l0.075-0.009c0.038-0.27,0.102-0.539,0.106-0.809c0.02-0.735-0.462-4.514-0.469-4.898c-0.122-0.662-0.253-1.334-0.63-1.893
			c-0.141-0.209-0.296-0.414-0.478-0.587l-2.382-2.248c-0.522-0.501-0.419-0.402-0.964-0.925c-0.503-0.534-1.836-1.653-4.764-4.789
			c-0.097-0.101-1.11-1.181-1.107-2.673c-0.028-0.103,0.023-0.31-0.03-0.402L5.34,195.695z"/>
		<path class="st0" d="M5.841,185.695c-0.066,0.244-0.145,0.487-0.194,0.732c-0.107,0.54-0.244,1.819-0.253,1.882
			c-0.322,2.023,0.052,3.687,0.46,4.831c0.403,1.145,0.853,1.775,0.853,1.775l0.233,0.255l3.201,3.41
			c1.171,1.23,2.356,2.433,3.622,3.615l0.823,0.789c0.456,0.468,0.985,1.207,1.006,1.871c0.006,0.2-0.031,0.511,0.002,0.572
			l0.075-0.005c0.051-0.267,0.129-0.533,0.147-0.802c0.06-0.733-0.238-4.533-0.224-4.916c-0.089-0.667-0.185-1.346-0.534-1.922
			c-0.13-0.216-0.274-0.429-0.448-0.611l-2.265-2.364c-0.496-0.527-0.398-0.423-0.915-0.973c-0.477-0.558-1.747-1.743-4.52-5.022
			c-0.092-0.107-1.048-1.236-0.97-2.727c-0.023-0.104,0.038-0.308-0.009-0.403L5.841,185.695z"/>
	</g>
	<g>
		<path class="st0" d="M8.364,165.831c-0.09,0.236-0.194,0.47-0.267,0.708c-0.161,0.526-0.426,1.785-0.442,1.848
			c-0.522,1.981-0.334,3.673-0.038,4.854c0.285,1.18,0.67,1.853,0.67,1.853l0.206,0.278l2.84,3.716
			c1.039,1.342,2.102,2.658,3.241,3.963l0.74,0.867c0.405,0.511,0.858,1.3,0.812,1.962c-0.014,0.2-0.082,0.507-0.056,0.57
			l0.076,0.003c0.078-0.261,0.182-0.518,0.227-0.783c0.136-0.722,0.218-4.533,0.271-4.913c-0.02-0.672-0.049-1.356-0.336-1.965
			c-0.108-0.227-0.23-0.454-0.384-0.652l-2.015-2.581c-0.44-0.574-0.353-0.461-0.812-1.061c-0.23-0.303-0.596-0.785-1.234-1.625
			c-0.653-0.848-1.541-2.053-2.749-3.83c-0.081-0.115-0.919-1.337-0.69-2.812c-0.013-0.106,0.069-0.303,0.031-0.402L8.364,165.831z"
			/>
		<path class="st0" d="M10.385,156.021c-0.102,0.231-0.217,0.46-0.302,0.694c-0.187,0.517-0.515,1.761-0.533,1.823
			c-0.293,0.979-0.442,1.889-0.478,2.705c-0.008,0.821,0.074,1.543,0.187,2.14c0.225,1.193,0.575,1.885,0.575,1.885l0.192,0.288
			l2.649,3.857c0.976,1.394,1.957,2.761,3.031,4.122l0.696,0.904c0.379,0.532,0.79,1.342,0.711,2.001
			c-0.024,0.199-0.107,0.502-0.085,0.566l0.076,0.007c0.09-0.256,0.208-0.507,0.266-0.771c0.167-0.715,0.454-4.513,0.524-4.891
			c0.013-0.672,0.02-1.357-0.238-1.98c-0.096-0.233-0.206-0.465-0.351-0.671l-1.882-2.68c-0.41-0.596-0.329-0.478-0.758-1.101
			c-0.394-0.627-1.457-1.986-3.693-5.651c-0.075-0.119-0.85-1.383-0.548-2.845c-0.006-0.107,0.085-0.299,0.052-0.401L10.385,156.021
			z"/>
	</g>
	<g>
		<path class="st0" d="M15.923,136.773c-0.124,0.22-0.261,0.435-0.369,0.66c-0.238,0.496-0.688,1.701-0.712,1.761
			c-0.787,1.889-0.936,3.567-0.802,4.785c0.104,1.211,0.383,1.935,0.383,1.935l0.162,0.307l2.248,4.111
			c0.851,1.493,1.642,2.942,2.578,4.407l0.601,0.971c0.324,0.568,0.652,1.416,0.507,2.064c-0.044,0.195-0.157,0.488-0.142,0.554
			l0.075,0.015c0.116-0.246,0.258-0.484,0.342-0.74c0.217-0.7,0.932-4.438,1.034-4.808c0.081-0.668,0.155-1.349-0.038-1.996
			c-0.072-0.242-0.158-0.484-0.282-0.703l-1.603-2.862c-0.348-0.635-0.28-0.51-0.644-1.173c-0.354-0.672-1.214-2.116-3.078-5.996
			c-0.062-0.126-0.707-1.464-0.261-2.89c0.004-0.106,0.114-0.289,0.091-0.393L15.923,136.773z"/>
		<path class="st0" d="M19.426,127.388c-0.135,0.213-0.282,0.422-0.401,0.641c-0.261,0.484-0.77,1.665-0.798,1.723
			c-0.863,1.853-1.133,3.509-1.056,4.734c0.044,1.216,0.286,1.954,0.286,1.954l0.147,0.314l2.039,4.223
			c0.774,1.535,1.501,3.027,2.339,4.531l0.551,1.001c0.295,0.583,0.58,1.448,0.403,2.088c-0.053,0.193-0.181,0.479-0.169,0.547
			l0.074,0.018c0.128-0.24,0.282-0.47,0.378-0.721c0.132-0.343,0.42-1.438,0.68-2.498c0.267-1.058,0.585-2.054,0.607-2.248
			c0.114-0.664,0.222-1.34,0.061-1.997c-0.06-0.245-0.135-0.492-0.246-0.718l-1.458-2.942c-0.317-0.652-0.254-0.524-0.584-1.205
			c-0.336-0.696-1.085-2.168-2.757-6.144c-0.056-0.129-0.634-1.499-0.118-2.901c0.009-0.107,0.127-0.283,0.11-0.389L19.426,127.388z
			"/>
	</g>
	<g>
		<path class="st0" d="M27.851,109.219c-0.155,0.198-0.322,0.391-0.462,0.598c-0.307,0.455-0.929,1.58-0.961,1.636
			c-1.045,1.756-1.451,3.391-1.556,4.592c-0.076,1.216,0.091,1.976,0.091,1.976l0.114,0.328l1.609,4.417l1.846,4.741l0.442,1.051
			c0.234,0.612,0.433,1.502,0.194,2.121c-0.072,0.187-0.227,0.459-0.222,0.528l0.071,0.026c0.151-0.227,0.326-0.439,0.447-0.681
			c0.171-0.325,0.545-1.396,0.938-2.412c0.414-1.008,0.797-1.982,0.848-2.168c0.178-0.65,0.352-1.313,0.257-1.983
			c-0.035-0.25-0.085-0.503-0.174-0.74l-1.158-3.081c-0.448-1.38,0.051,0.576-2.554-7.645c-0.042-0.135-0.482-1.559,0.169-2.904
			c0.019-0.104,0.154-0.269,0.147-0.376L27.851,109.219z"/>
		<path class="st0" d="M32.749,100.481c-0.165,0.191-0.341,0.375-0.49,0.574c-0.329,0.44-1.004,1.534-1.04,1.587
			c-1.133,1.701-1.605,3.323-1.786,4.507c-0.161,1.198-0.019,1.974-0.019,1.974l0.098,0.333l1.388,4.497l1.608,4.835l0.368,1.063
			c0.205,0.623,0.358,1.524,0.089,2.13c-0.081,0.184-0.249,0.448-0.247,0.516l0.07,0.03c0.162-0.218,0.347-0.423,0.48-0.657
			c0.309-0.663,1.895-4.116,2.027-4.479c0.21-0.641,0.416-1.295,0.354-1.97c-0.023-0.253-0.06-0.508-0.136-0.749l-1.004-3.139
			c-0.398-1.413,0.049,0.593-2.151-7.762c-0.036-0.136-0.404-1.583,0.311-2.895c0.024-0.104,0.167-0.261,0.165-0.369L32.749,100.481
			z"/>
	</g>
	<g>
		<path class="st0" d="M43.844,83.809c-0.182,0.174-0.375,0.34-0.542,0.524c-0.369,0.406-1.147,1.43-1.188,1.479
			c-1.291,1.583-1.917,3.153-2.214,4.317c-0.303,1.161-0.256,1.937-0.256,1.937l0.065,0.343l0.936,4.625l1.124,4.984
			c0.086,0.365,0.183,0.727,0.254,1.092c0.111,0.624,0.161,1.529-0.157,2.112c-0.099,0.175-0.291,0.421-0.296,0.49l0.067,0.037
			c0.182-0.202,0.387-0.387,0.541-0.607c0.383-0.623,2.354-3.872,2.495-4.238c0.271-0.618,0.54-1.249,0.544-1.929
			c0.002-0.254-0.01-0.513-0.062-0.761l-0.689-3.232c-0.234-1.435,0.045,0.634-1.332-7.931c-0.023-0.14-0.246-1.619,0.592-2.856
			c0.035-0.101,0.191-0.244,0.201-0.351L43.844,83.809z"/>
		<path class="st0" d="M50.013,75.917c-0.191,0.163-0.391,0.321-0.567,0.496c-0.389,0.387-1.214,1.372-1.257,1.419
			c-2.738,3.047-2.782,6.122-2.782,6.122l0.038,0.34l0.708,4.672l0.877,5.042c0.068,0.369,0.147,0.736,0.2,1.106
			c0.1,0.642,0.058,1.518-0.282,2.089c-0.107,0.169-0.311,0.406-0.32,0.475l0.065,0.04c0.191-0.193,0.404-0.367,0.569-0.58
			c0.457-0.574,2.55-3.747,2.718-4.098c0.3-0.605,0.599-1.223,0.638-1.903c0.014-0.254,0.015-0.514-0.025-0.765
			c-0.164-1.076-0.378-2.185-0.51-3.252c-0.159-1.444,0.016,0.637-0.938-7.997c-0.016-0.141-0.165-1.632,0.731-2.827
			c0.04-0.099,0.202-0.235,0.219-0.34L50.013,75.917z"/>
	</g>
	<g>
		<path class="st0" d="M63.546,61.157c-0.213,0.137-0.435,0.266-0.635,0.416c-0.455,0.316-1.347,1.241-1.402,1.277
			c-3.015,2.771-3.36,5.835-3.36,5.835l0.005,0.343c0.016,1.54,0.109,3.135,0.204,4.696l0.377,5.119
			c0.031,0.376,0.074,0.75,0.089,1.124c0.028,0.645-0.071,1.538-0.503,2.042c-0.13,0.152-0.368,0.358-0.385,0.424l0.06,0.046
			c0.219-0.165,0.457-0.31,0.652-0.497c0.53-0.51,2.902-3.483,3.108-3.813c0.357-0.574,0.714-1.161,0.818-1.836
			c0.039-0.252,0.065-0.511,0.05-0.765c-0.078-1.11-0.104-2.167-0.146-3.259c-0.016-1.457-0.047,0.636-0.147-8.076
			c0.01-0.129-0.033-1.673,1.03-2.721c0.052-0.092,0.234-0.203,0.262-0.305L63.546,61.157z"/>
		<path class="st0" d="M70.855,54.31c-0.219,0.127-0.447,0.245-0.654,0.384c-0.467,0.296-1.44,1.136-1.481,1.187
			c-3.143,2.623-3.639,5.671-3.639,5.671l-0.012,0.343c-0.054,1.549-0.081,3.105-0.047,4.687l0.124,5.14
			c0.013,0.376,0.037,0.753,0.035,1.128c-0.004,0.645-0.146,1.535-0.601,2.018c-0.137,0.145-0.384,0.34-0.405,0.405l0.058,0.049
			c0.226-0.154,0.471-0.287,0.674-0.465c0.554-0.485,3.065-3.342,3.286-3.661c0.383-0.557,0.769-1.126,0.906-1.796
			c0.051-0.25,0.09-0.508,0.088-0.764l0.035-3.247c0.055-1.458-0.078,0.634,0.251-8.085c0.008-0.14,0.06-1.663,1.18-2.651
			c0.056-0.089,0.244-0.191,0.277-0.293L70.855,54.31z"/>
	</g>
	<g>
		<path class="st0" d="M86.464,41.768c-0.23,0.105-0.468,0.2-0.687,0.32c-0.484,0.263-1.554,0.976-1.609,1.01
			c-3.401,2.28-4.183,5.289-4.183,5.289l-0.045,0.341c-0.193,1.557-0.401,3.075-0.546,4.631L79.01,58.5l-0.077,1.13
			c-0.067,0.645-0.296,1.517-0.794,1.955c-0.151,0.133-0.416,0.303-0.442,0.365l0.053,0.055c0.24-0.132,0.496-0.241,0.715-0.398
			c0.597-0.429,3.369-3.034,3.619-3.333c0.442-0.511,0.862-1.064,1.091-1.685c0.082-0.237,0.153-0.482,0.181-0.731l0.357-3.236
			c0.199-1.45-0.141,0.625,1.048-8.046c0.022-0.138,0.271-1.591,1.467-2.485c0.065-0.083,0.262-0.167,0.303-0.265L86.464,41.768z"/>
		<path class="st0" d="M94.725,36.106c-0.234,0.094-0.477,0.177-0.702,0.286c-0.495,0.239-1.599,0.9-1.655,0.931
			c-1.789,0.993-2.866,2.329-3.549,3.319c-0.671,1.008-0.903,1.744-0.903,1.744l-0.062,0.339l-0.786,4.59
			c-0.245,1.706-0.445,3.427-0.642,5.118l-0.133,1.126c-0.1,0.641-0.371,1.504-0.89,1.917c-0.157,0.125-0.429,0.282-0.459,0.343
			l0.05,0.057c0.245-0.12,0.506-0.216,0.732-0.363c0.616-0.4,3.509-2.87,3.774-3.156c0.453-0.507,0.935-0.992,1.188-1.611
			c0.093-0.233,0.176-0.475,0.216-0.722l0.518-3.219c0.278-1.43-0.187,0.596,1.462-7.973c0.029-0.137,0.351-1.579,1.588-2.413
			c0.069-0.081,0.269-0.155,0.316-0.251L94.725,36.106z"/>
	</g>
	<g>
		<path class="st0" d="M112.06,26.08c-0.242,0.071-0.492,0.13-0.725,0.216c-0.516,0.191-1.679,0.741-1.738,0.767
			c-1.894,0.782-3.113,1.982-3.881,2.917c-0.767,0.939-1.07,1.652-1.07,1.652l-0.096,0.332l-1.239,4.503
			c-0.447,1.624-0.814,3.327-1.176,4.998l-0.244,1.111c-0.162,0.63-0.518,1.464-1.074,1.826c-0.168,0.109-0.453,0.24-0.489,0.298
			l0.043,0.063c0.256-0.096,0.524-0.166,0.763-0.291c0.654-0.335,3.763-2.531,4.065-2.772c0.523-0.422,1.052-0.857,1.362-1.454
			c0.116-0.223,0.222-0.457,0.287-0.7l0.836-3.161c0.191-0.696,0.153-0.559,0.352-1.287c0.225-0.702,0.582-2.385,1.924-6.479
			c0.043-0.133,0.507-1.539,1.82-2.251c0.077-0.074,0.283-0.128,0.339-0.219L112.06,26.08z"/>
		<path class="st0" d="M121.088,21.743c-0.245,0.059-0.496,0.106-0.735,0.181c-0.525,0.165-1.712,0.658-1.772,0.681
			c-1.928,0.693-3.227,1.786-4.031,2.704c-0.813,0.901-1.152,1.598-1.152,1.598l-0.113,0.327l-1.464,4.442
			c-0.525,1.608-1.002,3.245-1.437,4.917l-0.3,1.099c-0.193,0.622-0.59,1.439-1.162,1.774c-0.173,0.1-0.465,0.217-0.503,0.274
			l0.041,0.064c0.26-0.083,0.53-0.14,0.776-0.253c0.674-0.293,3.868-2.37,4.207-2.55c0.543-0.397,1.092-0.805,1.432-1.387
			c0.127-0.217,0.245-0.446,0.322-0.685l0.994-3.12c0.226-0.687,0.181-0.551,0.417-1.27c0.26-0.692,0.698-2.36,2.258-6.362
			c0.049-0.131,0.584-1.514,1.931-2.161c0.08-0.07,0.289-0.114,0.349-0.202L121.088,21.743z"/>
	</g>
	<g>
		<path class="st0" d="M139.755,14.485c-0.249,0.035-0.504,0.056-0.748,0.107c-0.538,0.113-1.768,0.487-1.83,0.503
			c-1.974,0.533-3.409,1.406-4.295,2.255c-0.899,0.819-1.307,1.48-1.307,1.48l-0.145,0.315l-1.906,4.283
			c-0.671,1.584-1.343,3.093-1.945,4.717l-0.409,1.067c-0.255,0.601-0.731,1.377-1.334,1.654c-0.182,0.084-0.483,0.172-0.527,0.224
			l0.034,0.068c0.266-0.057,0.541-0.088,0.795-0.176c0.685-0.26,4.098-1.94,4.454-2.087c0.58-0.342,1.166-0.696,1.563-1.241
			c0.148-0.205,0.289-0.421,0.389-0.652l1.304-3.012c0.293-0.663,0.236-0.532,0.543-1.224c0.315-0.702,0.952-2.234,2.907-6.076
			c0.062-0.126,0.735-1.452,2.139-1.962c0.086-0.062,0.298-0.085,0.368-0.167L139.755,14.485z"/>
		<path class="st0" d="M149.344,11.585c-0.252,0.022-0.507,0.031-0.753,0.071c-0.543,0.085-1.79,0.398-1.853,0.412
			c-4.028,0.808-5.789,3.436-5.789,3.436l-0.161,0.307l-2.122,4.186c-0.754,1.542-1.492,3.045-2.19,4.599l-0.462,1.046
			c-0.285,0.589-0.8,1.341-1.415,1.588c-0.186,0.074-0.491,0.147-0.537,0.198l0.03,0.07c0.268-0.045,0.544-0.062,0.803-0.138
			c0.352-0.104,1.398-0.54,2.398-0.976c1.012-0.405,1.99-0.775,2.159-0.87c0.596-0.313,1.2-0.638,1.624-1.164
			c0.158-0.197,0.309-0.406,0.421-0.632l1.455-2.946c0.327-0.647,0.263-0.52,0.605-1.196c0.347-0.698,1.072-2.161,3.218-5.909
			c0.069-0.123,0.809-1.414,2.236-1.855c0.089-0.057,0.302-0.07,0.376-0.148L149.344,11.585z"/>
	</g>
	<g>
		<path class="st0" d="M168.904,7.283c-0.252-0.003-0.507-0.02-0.755-0.005c-0.548,0.031-1.821,0.218-1.884,0.225
			c-2.031,0.231-3.578,0.896-4.595,1.542c-1.013,0.677-1.517,1.27-1.517,1.27l-0.192,0.29l-2.538,3.958l-2.653,4.343l-0.57,0.979
			c-0.343,0.558-0.932,1.257-1.569,1.442c-0.192,0.056-0.503,0.098-0.554,0.144l0.022,0.072c0.271-0.017,0.547-0.007,0.812-0.057
			c0.363-0.057,1.437-0.423,2.488-0.71c1.052-0.281,2.059-0.569,2.238-0.641c0.625-0.253,1.258-0.515,1.733-0.998
			c0.178-0.18,0.35-0.373,0.484-0.587l1.749-2.789c0.827-1.191-0.428,0.385,4.535-6.663c0.081-0.116,0.948-1.327,2.413-1.623
			c0.095-0.048,0.307-0.039,0.388-0.11L168.904,7.283z"/>
		<path class="st0" d="M178.824,5.891c-0.252-0.016-0.505-0.045-0.754-0.044c-0.549,0.004-1.829,0.125-1.893,0.129
			c-2.041,0.125-3.617,0.726-4.669,1.299c-1.046,0.625-1.579,1.194-1.579,1.194l-0.206,0.28l-2.737,3.826l-2.872,4.206l-0.622,0.937
			c-0.373,0.54-0.995,1.208-1.641,1.362c-0.195,0.046-0.507,0.073-0.561,0.116l0.019,0.074c0.271-0.004,0.547,0.02,0.813-0.016
			c0.714-0.158,4.423-0.987,4.792-1.1c0.636-0.221,1.282-0.452,1.782-0.91c0.187-0.172,0.368-0.356,0.513-0.562l1.889-2.698
			c0.886-1.157-0.445,0.375,4.871-6.417c0.087-0.111,1.015-1.277,2.492-1.499c0.097-0.043,0.309-0.024,0.394-0.09L178.824,5.891z"/>
	</g>
	<g>
		<path class="st0" d="M198.804,4.63c-0.248-0.042-0.497-0.096-0.745-0.119c-0.547-0.053-1.832-0.06-1.896-0.063
			c-2.041-0.082-3.669,0.358-4.774,0.819c-1.105,0.504-1.692,1.023-1.692,1.023l-0.234,0.258l-3.112,3.531l-3.285,3.896
			c-0.238,0.289-0.468,0.583-0.716,0.86c-0.427,0.487-1.114,1.099-1.772,1.184c-0.198,0.027-0.511,0.022-0.569,0.06l0.011,0.075
			c0.271,0.024,0.542,0.075,0.811,0.065c0.726-0.089,4.505-0.507,4.882-0.598c0.656-0.155,1.322-0.321,1.866-0.726
			c0.203-0.151,0.402-0.316,0.568-0.507l2.154-2.495c0.998-1.068-0.479,0.337,5.497-5.886c0.098-0.102,1.139-1.168,2.629-1.24
			c0.102-0.033,0.311,0.007,0.401-0.05L198.804,4.63z"/>
		<path class="st0" d="M208.815,4.755c-0.246-0.054-0.492-0.121-0.739-0.157c-0.543-0.08-1.826-0.152-1.89-0.158
			c-2.035-0.186-3.683,0.173-4.81,0.577c-1.128,0.455-1.741,0.939-1.741,0.939l-0.246,0.245l-3.286,3.37l-3.478,3.725
			c-0.253,0.275-0.497,0.558-0.758,0.823c-0.451,0.463-1.168,1.041-1.83,1.092c-0.199,0.016-0.512-0.005-0.572,0.031l0.007,0.075
			c0.269,0.037,0.537,0.102,0.807,0.106c0.729-0.053,4.525-0.276,4.907-0.348c0.663-0.122,1.336-0.253,1.9-0.631
			c0.21-0.141,0.417-0.296,0.593-0.478l2.277-2.383c1.05-1.013-0.496,0.308,5.785-5.604c0.103-0.096,1.196-1.109,2.689-1.105
			c0.103-0.028,0.309,0.023,0.402-0.03L208.815,4.755z"/>
	</g>
	<g>
		<path class="st0" d="M228.76,6.517c-0.24-0.078-0.478-0.169-0.719-0.231c-0.532-0.134-1.803-0.336-1.866-0.348
			c-2.006-0.391-3.683-0.201-4.846,0.088c-1.169,0.343-1.827,0.761-1.827,0.761l-0.27,0.22l-3.608,3.021l-3.835,3.355
			c-0.279,0.249-0.551,0.506-0.838,0.742c-0.496,0.429-1.267,0.921-1.931,0.909c-0.2-0.003-0.509-0.056-0.572-0.027v0.075
			c0.264,0.064,0.525,0.156,0.792,0.187c0.732,0.024,4.53,0.169,4.917,0.142c0.671-0.055,1.355-0.117,1.953-0.435
			c0.223-0.119,0.445-0.253,0.638-0.416l2.506-2.141c1.147-0.899-0.525,0.254,6.322-4.993c0.111-0.086,1.302-0.983,2.788-0.828
			c0.105-0.018,0.305,0.053,0.403,0.011L228.76,6.517z"/>
		<path class="st0" d="M238.641,8.156c-0.234-0.09-0.468-0.194-0.707-0.267c-0.525-0.161-1.783-0.426-1.845-0.442
			c-1.984-0.491-3.669-0.386-4.845-0.156c-1.183,0.272-1.863,0.661-1.863,0.661L229.1,8.159l-3.758,2.835l-3.999,3.156
			c-0.292,0.234-0.576,0.478-0.874,0.699c-0.517,0.401-1.312,0.856-1.975,0.809c-0.2-0.014-0.506-0.082-0.569-0.056l-0.005,0.076
			c0.26,0.077,0.516,0.182,0.782,0.226c0.729,0.06,4.515,0.4,4.902,0.391c0.674-0.02,1.359-0.049,1.972-0.336
			c0.23-0.107,0.458-0.229,0.659-0.383l2.611-2.011c1.193-0.846-0.539,0.234,6.569-4.662c0.116-0.081,1.35-0.916,2.827-0.687
			c0.106-0.013,0.302,0.069,0.402,0.031L238.641,8.156z"/>
	</g>
	<g>
		<path class="st0" d="M258.091,12.942c-0.225-0.113-0.447-0.239-0.677-0.335c-0.506-0.213-1.732-0.602-1.792-0.624
			c-1.925-0.686-3.614-0.75-4.807-0.64c-1.194,0.106-1.917,0.448-1.917,0.448l-0.3,0.176l-4.03,2.441l-4.303,2.738
			c-0.314,0.204-0.622,0.417-0.941,0.607c-0.548,0.315-1.39,0.71-2.043,0.591c-0.198-0.034-0.495-0.132-0.561-0.113l-0.012,0.075
			c0.251,0.103,0.494,0.233,0.754,0.303c0.72,0.13,4.444,0.881,4.834,0.897c0.672,0.047,1.357,0.088,1.997-0.136
			c0.239-0.084,0.478-0.183,0.694-0.315l2.804-1.739c1.278-0.739-0.569,0.211,7.01-3.956c0.124-0.068,1.439-0.776,2.885-0.4
			c0.107-0.002,0.294,0.099,0.398,0.071L258.091,12.942z"/>
		<path class="st0" d="M267.606,16.078c-0.219-0.125-0.434-0.261-0.658-0.369c-0.496-0.238-1.699-0.688-1.759-0.712
			c-1.888-0.781-3.572-0.929-4.771-0.878c-1.195,0.036-1.933,0.335-1.933,0.335l-0.309,0.162l-4.152,2.236l-4.44,2.519
			c-0.324,0.188-0.641,0.386-0.971,0.56c-0.564,0.285-1.42,0.617-2.068,0.474c-0.195-0.044-0.487-0.157-0.554-0.141l-0.016,0.075
			c0.245,0.115,0.482,0.257,0.738,0.341c0.713,0.163,4.388,1.126,4.779,1.15c0.67,0.081,1.352,0.155,2.003-0.037
			c0.244-0.072,0.488-0.158,0.71-0.28l2.891-1.596c1.316-0.677-0.59,0.213,7.203-3.583c0.127-0.062,1.477-0.703,2.903-0.256
			c0.107,0.003,0.289,0.113,0.394,0.091L267.606,16.078z"/>
	</g>
	<g>
		<path class="st0" d="M286.093,23.79c-0.205-0.144-0.405-0.302-0.618-0.431c-0.469-0.284-1.623-0.851-1.68-0.881
			c-3.615-1.93-6.609-1.237-6.609-1.237l-0.324,0.128l-4.364,1.81l-4.681,2.063c-0.342,0.154-0.679,0.319-1.025,0.46
			c-0.598,0.249-1.459,0.424-2.095,0.232c-0.191-0.064-0.47-0.205-0.538-0.196l-0.024,0.073c0.233,0.139,0.453,0.303,0.7,0.412
			c0.668,0.3,4.249,1.574,4.631,1.651c0.659,0.146,1.331,0.288,1.999,0.162c0.25-0.048,0.502-0.109,0.736-0.209
			c1.006-0.421,2.026-0.884,3.037-1.284c1.362-0.5-0.615,0.167,7.534-2.826c0.133-0.049,1.544-0.551,2.919,0.033
			c0.106,0.015,0.276,0.142,0.383,0.129L286.093,23.79z"/>
		<path class="st0" d="M295.012,28.355c-0.19-0.169-0.387-0.329-0.591-0.471c-0.455-0.307-1.579-0.929-1.634-0.961
			c-3.516-2.104-6.545-1.56-6.545-1.56l-0.325,0.103c-1.489,0.5-2.985,1.042-4.449,1.579l-4.784,1.827
			c-0.35,0.138-0.695,0.285-1.048,0.409c-0.609,0.213-1.487,0.365-2.099,0.108c-0.187-0.072-0.459-0.227-0.528-0.222l-0.027,0.071
			c0.224,0.152,0.439,0.321,0.677,0.45c0.64,0.363,4.163,1.788,4.538,1.891c0.652,0.178,1.316,0.353,1.99,0.26
			c0.252-0.035,0.507-0.084,0.746-0.171c1.029-0.374,2.07-0.783,3.091-1.111c1.388-0.432-0.623,0.136,7.676-2.448
			c0.136-0.042,1.572-0.475,2.916,0.176c0.107,0.016,0.265,0.161,0.371,0.158L295.012,28.355z"/>
	</g>
	<g>
		<path class="st0" d="M312.076,38.841c-0.176-0.183-0.344-0.376-0.529-0.544c-0.395-0.389-1.47-1.094-1.517-1.139
			c-3.294-2.433-6.37-2.19-6.37-2.19l-0.335,0.07c-1.511,0.309-3.051,0.692-4.57,1.088l-4.955,1.345
			c-0.363,0.103-0.722,0.215-1.086,0.303c-0.627,0.15-1.524,0.224-2.101-0.104c-0.174-0.099-0.422-0.293-0.49-0.297l-0.034,0.068
			c0.203,0.184,0.391,0.39,0.612,0.545c0.602,0.423,3.972,2.183,4.336,2.322c0.631,0.241,1.276,0.48,1.958,0.453
			c0.255-0.01,0.514-0.034,0.761-0.097c1.071-0.283,2.103-0.507,3.169-0.757c1.427-0.293-0.634,0.075,7.903-1.679
			c0.128-0.012,1.641-0.354,2.866,0.499c0.1,0.034,0.244,0.192,0.35,0.199L312.076,38.841z"/>
		<path class="st0" d="M320.185,44.72c-0.167-0.191-0.325-0.392-0.502-0.569c-0.381-0.402-1.386-1.204-1.445-1.232
			c-3.172-2.588-6.26-2.496-6.26-2.496l-0.339,0.053c-1.534,0.245-3.062,0.504-4.61,0.839l-5.024,1.099
			c-0.368,0.085-0.733,0.18-1.102,0.249c-0.634,0.119-1.535,0.148-2.095-0.206c-0.169-0.107-0.408-0.313-0.475-0.321l-0.038,0.066
			c0.194,0.193,0.372,0.408,0.585,0.574c0.58,0.451,3.862,2.372,4.219,2.528c0.62,0.271,1.252,0.541,1.935,0.548
			c0.256,0.003,0.518-0.01,0.765-0.058l3.194-0.58c1.442-0.222-0.638,0.043,7.988-1.287c0.141-0.022,1.642-0.253,2.825,0.659
			c0.098,0.038,0.234,0.204,0.34,0.216L320.185,44.72z"/>
	</g>
	<g>
		<path class="st0" d="M335.455,57.672c-0.147-0.205-0.285-0.421-0.445-0.614c-0.35-0.424-1.253-1.34-1.297-1.387
			c-2.878-2.913-5.984-3.107-5.984-3.107l-0.343,0.02c-1.565,0.105-3.099,0.193-4.65,0.34l-5.122,0.599l-1.124,0.139
			c-0.646,0.056-1.547-0.003-2.071-0.41c-0.158-0.122-0.376-0.35-0.442-0.364l-0.044,0.062c0.174,0.21,0.329,0.441,0.526,0.626
			c0.534,0.505,3.618,2.732,3.959,2.922c0.588,0.333,1.206,0.647,1.86,0.754c0.248,0.036,0.503,0.059,0.752,0.039l3.245-0.263
			c1.461-0.078-0.638-0.023,8.098-0.493c0.14-0.004,1.615-0.035,2.719,0.969c0.095,0.048,0.214,0.225,0.318,0.248L335.455,57.672z"
			/>
		<path class="st0" d="M342.579,64.71c-0.137-0.213-0.265-0.434-0.414-0.634c-0.329-0.441-1.188-1.398-1.229-1.448
			c-1.307-1.575-2.829-2.374-3.929-2.857c-1.117-0.468-1.884-0.555-1.884-0.555l-0.344,0.002l-4.657,0.1
			c-1.717,0.078-3.448,0.21-5.145,0.336l-1.131,0.083c-0.649,0.024-1.547-0.078-2.052-0.51c-0.152-0.13-0.358-0.368-0.424-0.385
			l-0.048,0.06c0.165,0.218,0.308,0.456,0.496,0.65c0.51,0.529,3.485,2.902,3.816,3.108c0.584,0.347,1.147,0.735,1.804,0.863
			c0.246,0.048,0.5,0.083,0.751,0.076l3.259-0.104c1.456,0.003-0.616-0.074,8.105-0.074c0.14,0.003,1.616,0.045,2.672,1.101
			c0.092,0.052,0.203,0.234,0.306,0.263L342.579,64.71z"/>
	</g>
	<g>
		<path class="st0" d="M355.714,79.821c-0.116-0.224-0.222-0.457-0.352-0.671c-0.285-0.47-1.048-1.505-1.085-1.558
			c-1.132-1.707-2.525-2.688-3.597-3.258c-1.069-0.574-1.826-0.736-1.826-0.736l-0.344-0.031l-4.659-0.36
			c-1.681-0.129-3.413-0.175-5.126-0.209l-1.138-0.028c-0.65-0.04-1.537-0.231-1.998-0.707c-0.139-0.144-0.322-0.4-0.386-0.424
			l-0.053,0.055c0.143,0.232,0.263,0.482,0.431,0.693c0.451,0.581,3.207,3.208,3.491,3.469c0.514,0.433,1.042,0.869,1.688,1.06
			c0.241,0.071,0.491,0.131,0.741,0.149l3.265,0.219c0.72,0.055,0.578,0.044,1.331,0.101c0.729,0.09,2.46,0.111,6.722,0.66
			c0.14,0.016,1.61,0.204,2.559,1.356c0.087,0.061,0.18,0.253,0.28,0.291L355.714,79.821z"/>
		<path class="st0" d="M361.691,87.856c-0.105-0.229-0.199-0.467-0.318-0.685c-0.263-0.483-0.975-1.554-1.009-1.608
			c-1.058-1.753-2.357-2.836-3.417-3.445c-1.041-0.626-1.79-0.825-1.79-0.825l-0.343-0.049l-4.643-0.59
			c-1.687-0.203-3.371-0.372-5.097-0.481l-1.136-0.084c-0.649-0.072-1.526-0.305-1.964-0.804c-0.132-0.151-0.302-0.415-0.365-0.442
			l-0.056,0.052c0.131,0.238,0.239,0.493,0.397,0.713c0.418,0.605,3.063,3.347,3.3,3.649c0.493,0.458,1,0.918,1.637,1.141
			c0.238,0.083,0.485,0.155,0.734,0.185l3.254,0.38c0.718,0.09,0.576,0.072,1.327,0.167c0.74,0.115,2.437,0.245,6.67,1.008
			c0.138,0.024,1.6,0.284,2.492,1.481c0.084,0.065,0.168,0.261,0.266,0.304L361.691,87.856z"/>
	</g>
	<g>
		<path class="st0" d="M372.383,104.787c-0.082-0.238-0.154-0.483-0.251-0.713c-0.215-0.506-0.82-1.64-0.849-1.697
			c-1.763-3.709-4.731-4.788-4.731-4.788l-0.337-0.082l-4.575-1.049c-1.678-0.359-3.313-0.714-4.993-1.015l-1.126-0.196
			c-0.64-0.136-1.494-0.454-1.882-0.993c-0.117-0.162-0.26-0.441-0.321-0.474l-0.061,0.045c0.108,0.25,0.191,0.514,0.327,0.747
			c0.185,0.318,0.859,1.228,1.523,2.095c0.641,0.881,1.234,1.743,1.368,1.884c0.448,0.503,0.909,1.011,1.522,1.295
			c0.229,0.107,0.469,0.202,0.715,0.257l3.211,0.701c0.707,0.162,0.568,0.129,1.307,0.298c0.761,0.168,2.346,0.525,6.51,1.697
			c0.136,0.037,1.568,0.442,2.342,1.719c0.077,0.074,0.141,0.276,0.234,0.329L372.383,104.787z"/>
		<path class="st0" d="M377.069,113.641c-0.071-0.242-0.13-0.49-0.216-0.724c-0.191-0.516-0.74-1.678-0.765-1.737
			c-0.815-1.874-1.906-3.159-2.817-3.946c-0.942-0.772-1.656-1.081-1.656-1.081l-0.333-0.099l-4.523-1.277l-4.926-1.274
			l-1.112-0.256c-0.633-0.167-1.471-0.528-1.833-1.084c-0.11-0.168-0.24-0.453-0.299-0.489l-0.063,0.043
			c0.096,0.255,0.165,0.521,0.29,0.761c0.165,0.329,0.812,1.261,1.41,2.171c0.575,0.925,1.143,1.805,1.264,1.956
			c0.423,0.524,0.859,1.053,1.459,1.368c0.223,0.118,0.458,0.225,0.702,0.292l3.177,0.861c1.382,0.444-0.499-0.294,7.696,2.397
			c0.134,0.044,1.546,0.52,2.257,1.833c0.074,0.077,0.128,0.282,0.219,0.34L377.069,113.641z"/>
	</g>
	<g>
		<path class="st0" d="M385.051,132.011c-0.046-0.248-0.081-0.5-0.144-0.741c-0.139-0.532-0.572-1.742-0.592-1.803
			c-0.623-1.946-1.597-3.327-2.409-4.21c-0.798-0.89-1.51-1.256-1.51-1.256l-0.323-0.132l-4.385-1.726l-4.788-1.763
			c-0.352-0.126-0.708-0.242-1.053-0.38c-0.585-0.244-1.408-0.676-1.707-1.268c-0.093-0.177-0.194-0.474-0.249-0.515l-0.067,0.036
			c0.071,0.263,0.115,0.535,0.215,0.785c0.331,0.652,1.995,4.068,2.217,4.388c0.371,0.563,0.754,1.132,1.321,1.506
			c0.212,0.139,0.435,0.27,0.671,0.361l3.083,1.177c1.365,0.568-0.529-0.318,7.393,3.18c0.129,0.057,1.491,0.674,2.07,2.051
			c0.066,0.084,0.1,0.294,0.185,0.359L385.051,132.011z"/>
		<path class="st0" d="M388.324,141.48c-0.034-0.249-0.056-0.503-0.107-0.747c-0.112-0.537-0.486-1.768-0.503-1.83
			c-0.526-1.975-1.43-3.403-2.199-4.325c-0.758-0.928-1.428-1.339-1.428-1.339l-0.315-0.147l-4.299-1.946l-4.698-2.004
			c-0.346-0.144-0.696-0.277-1.034-0.433c-0.571-0.274-1.338-0.761-1.623-1.361c-0.084-0.182-0.171-0.482-0.224-0.527l-0.068,0.033
			c0.057,0.265,0.088,0.539,0.176,0.794c0.286,0.673,1.763,4.174,1.979,4.501c0.343,0.58,0.696,1.168,1.245,1.569
			c0.205,0.151,0.422,0.293,0.653,0.395l3.024,1.331c1.315,0.645-0.536-0.336,7.211,3.56c0.126,0.064,1.456,0.749,1.967,2.153
			c0.062,0.087,0.085,0.298,0.166,0.368L388.324,141.48z"/>
	</g>
	<g>
		<path class="st0" d="M393.387,160.862c-0.009-0.251-0.005-0.506-0.032-0.753c-0.058-0.546-0.307-1.807-0.318-1.87
			c-0.657-4.045-3.024-6.006-3.024-6.006l-0.289-0.183l-4.089-2.374l-4.482-2.472c-0.331-0.178-0.667-0.347-0.988-0.536
			c-0.559-0.325-1.23-0.901-1.444-1.529c-0.066-0.19-0.123-0.497-0.172-0.547l-0.071,0.026c0.031,0.269,0.034,0.544,0.097,0.806
			c0.142,0.721,1.322,4.334,1.487,4.686c0.284,0.612,0.579,1.233,1.085,1.688c0.189,0.17,0.391,0.333,0.612,0.459
			c0.942,0.546,1.942,1.073,2.856,1.639c1.224,0.78-0.506-0.388,6.816,4.28c0.12,0.076,1.376,0.894,1.744,2.342
			c0.053,0.093,0.055,0.305,0.129,0.383L393.387,160.862z"/>
		<path class="st0" d="M395.163,170.722c0.003-0.252,0.02-0.506,0.005-0.754c-0.031-0.548-0.216-1.819-0.224-1.884
			c-0.453-4.072-2.719-6.152-2.719-6.152l-0.278-0.197c-1.303-0.882-2.64-1.743-3.954-2.582l-4.355-2.698
			c-0.322-0.194-0.649-0.38-0.96-0.587c-0.536-0.355-1.199-0.959-1.352-1.604c-0.053-0.193-0.097-0.503-0.143-0.554l-0.073,0.022
			c0.016,0.271,0.013,0.543,0.045,0.812c0.1,0.729,1.103,4.396,1.248,4.755c0.253,0.626,0.517,1.261,1,1.741
			c0.18,0.179,0.374,0.352,0.589,0.489c0.92,0.592,1.879,1.172,2.757,1.786c1.184,0.842-0.485-0.413,6.594,4.623
			c0.116,0.082,1.329,0.963,1.625,2.428c0.048,0.096,0.039,0.307,0.11,0.389L395.163,170.722z"/>
	</g>
	<g>
		<path class="st0" d="M397.186,190.648c0.034-0.25,0.072-0.5,0.084-0.749c0.025-0.548-0.032-1.832-0.032-1.895
			c-0.042-4.096-2.086-6.395-2.086-6.395l-0.258-0.224c-1.174-1.013-2.443-2.004-3.659-2.974l-4.063-3.128
			c-0.3-0.227-0.607-0.445-0.896-0.681c-0.498-0.409-1.098-1.077-1.185-1.735c-0.028-0.198-0.017-0.514-0.063-0.569l-0.074,0.014
			c-0.016,0.271-0.072,0.547-0.061,0.816c0.026,0.736,0.657,4.485,0.766,4.858c0.189,0.649,0.387,1.307,0.82,1.833
			c0.162,0.198,0.337,0.39,0.537,0.547c0.87,0.681,1.733,1.36,2.549,2.059c1.093,0.958-0.441-0.459,6.096,5.271
			c0.107,0.094,1.226,1.093,1.372,2.579c0.036,0.1,0.012,0.31,0.066,0.398L397.186,190.648z"/>
		<path class="st0" d="M397.44,200.659c0.041-0.248,0.096-0.496,0.119-0.744c0.053-0.546,0.06-1.83,0.063-1.894
			c0.166-4.092-1.76-6.492-1.76-6.492l-0.245-0.237c-1.119-1.071-2.338-2.124-3.503-3.155l-3.9-3.331
			c-0.289-0.242-0.584-0.474-0.861-0.726c-0.477-0.433-1.041-1.132-1.096-1.793c-0.016-0.2,0.004-0.514-0.031-0.572l-0.075,0.01
			c-0.037,0.271-0.102,0.543-0.106,0.813c-0.011,0.736,0.43,4.512,0.52,4.891c0.156,0.657,0.322,1.325,0.727,1.873
			c0.152,0.205,0.318,0.406,0.509,0.574c0.837,0.725,1.66,1.446,2.44,2.186c1.044,1.012-0.417-0.48,5.822,5.572
			c0.102,0.099,1.168,1.152,1.239,2.644c0.033,0.101-0.007,0.309,0.05,0.401L397.44,200.659z"/>
	</g>
</g>
</svg>
