<?xml version="1.0" encoding="utf-8"?>
<!-- Generator: Adobe Illustrator 17.0.0, SVG Export Plug-In . SVG Version: 6.00 Build 0)  -->
<!DOCTYPE svg PUBLIC "-//W3C//DTD SVG 1.1//EN" "http://www.w3.org/Graphics/SVG/1.1/DTD/svg11.dtd">
<svg version="1.1" id="Capa_1" xmlns="http://www.w3.org/2000/svg" xmlns:xlink="http://www.w3.org/1999/xlink" x="0px" y="0px"
	 width="284px" height="286px" viewBox="0 0 284 286" style="enable-background:new 0 0 284 286;" xml:space="preserve">
<style type="text/css">
	.st0{fill:#E8B667;}
</style>
<g>
	<g>
		<path class="st0" d="M266.908,141.682c-0.069,0.283-0.169,0.562-0.203,0.848c-0.11,0.934-0.105,1.87,0.073,2.794
			c0.13,0.68,0.27,1.371,0.66,1.986c0.146,0.229,0.306,0.457,0.494,0.657l2.333,2.608c0.507,0.585,0.407,0.471,0.936,1.082
			c0.489,0.626,1.785,1.935,4.617,5.669c0.093,0.12,1.062,1.411,0.984,2.966c0.023,0.111-0.039,0.318,0.01,0.423l0.09-0.003
			c0.066-0.248,0.146-0.494,0.194-0.744c0.902-4.41-1.009-6.589-1.009-6.589l-0.238-0.292c-1.089-1.32-2.174-2.613-3.269-3.869
			c-1.195-1.383-2.531-2.731-3.791-4.038c-0.284-0.291-0.576-0.572-0.847-0.871c-0.466-0.515-0.997-1.316-0.984-2.02
			c0.004-0.212,0.061-0.542,0.03-0.608L266.908,141.682z"/>
	</g>
	<g>
		<path class="st0" d="M265.668,159.165c-0.096,0.272-0.223,0.537-0.285,0.815c-0.179,0.919-0.356,1.837-0.309,2.775
			c0.027,0.689,0.061,1.392,0.355,2.052c0.11,0.247,0.234,0.494,0.39,0.717c0.663,0.962,1.382,1.938,1.996,2.916
			c0.414,0.65,0.332,0.521,0.766,1.199c0.42,0.694,1.41,2.144,3.793,6.262c0.074,0.132,0.843,1.542,0.534,3.068
			c0.006,0.113-0.086,0.309-0.053,0.42l0.089,0.009c0.103-0.235,0.218-0.467,0.304-0.708c0.375-1.055,0.57-2.002,0.647-2.826
			c0.041-0.832-0.026-1.538-0.134-2.107c-0.216-1.14-0.596-1.736-0.596-1.736l-0.191-0.322c-0.899-1.46-1.726-2.879-2.697-4.287
			c-1.052-1.548-2.117-3.055-3.186-4.523c-0.238-0.326-0.485-0.646-0.708-0.977c-0.373-0.571-0.794-1.438-0.724-2.139
			c0.025-0.211,0.114-0.531,0.09-0.601L265.668,159.165z"/>
	</g>
	<g>
		<path class="st0" d="M262.036,176.297c-0.137,0.255-0.302,0.498-0.404,0.765c-0.348,0.872-0.536,1.79-0.661,2.714
			c-0.076,0.684-0.147,1.382,0.046,2.075c0.073,0.259,0.159,0.521,0.28,0.763l1.581,3.172c0.345,0.707,0.266,0.564,0.599,1.298
			c0.323,0.748,1.064,2.307,2.856,6.724c0.075,0.15,0.646,1.657,0.108,3.116c-0.011,0.113-0.13,0.293-0.114,0.407l0.087,0.022
			c0.137-0.218,0.285-0.43,0.406-0.656c1.088-1.965,1.216-3.672,1.187-4.818c-0.046-1.156-0.335-1.797-0.335-1.797l-0.143-0.345
			c-0.64-1.555-1.34-3.104-2.093-4.631c-0.814-1.676-1.646-3.313-2.487-4.914l-0.568-1.068c-0.321-0.626-0.633-1.549-0.445-2.228
			c0.056-0.204,0.193-0.508,0.179-0.581L262.036,176.297z"/>
	</g>
	<g>
		<path class="st0" d="M256.048,192.751c-0.174,0.232-0.373,0.449-0.514,0.698c-0.464,0.816-0.821,1.68-1.017,2.603
			c-0.17,0.667-0.346,1.345-0.255,2.057c0.034,0.266,0.082,0.536,0.167,0.793l1.106,3.354c0.235,0.748,0.189,0.6,0.434,1.382
			c0.226,0.791,0.725,2.431,1.868,7.046c0.032,0.145,0.447,1.754-0.309,3.111c-0.027,0.11-0.171,0.271-0.172,0.386l0.084,0.033
			c0.166-0.196,0.344-0.385,0.496-0.591c1.324-1.809,1.702-3.473,1.84-4.608c0.12-1.147-0.073-1.822-0.073-1.822l-0.092-0.36
			c-0.404-1.622-0.946-3.289-1.439-4.886c-0.569-1.773-1.139-3.498-1.763-5.208l-0.435-1.148c-0.225-0.664-0.4-1.618-0.114-2.262
			c0.086-0.194,0.266-0.475,0.263-0.548L256.048,192.751z"/>
	</g>
	<g>
		<path class="st0" d="M247.818,208.212c-0.205,0.205-0.434,0.391-0.61,0.617c-0.578,0.741-1.057,1.544-1.385,2.428
			c-0.229,0.66-0.509,1.298-0.52,2.015c-0.004,0.268,0.004,0.542,0.052,0.806l0.618,3.469c0.126,0.771,0.101,0.619,0.233,1.425
			c0.142,0.836,0.399,2.522,0.877,7.24c0.005,0.143,0.198,1.798-0.725,3.048c-0.042,0.105-0.208,0.244-0.225,0.358l0.079,0.045
			c0.193-0.17,0.396-0.332,0.575-0.514c3.029-3.317,2.643-6.122,2.643-6.122l-0.039-0.369c-0.221-1.696-0.483-3.391-0.756-5.046
			c-0.323-1.84-0.602-3.597-1.032-5.41l-0.266-1.195c-0.129-0.687-0.164-1.655,0.212-2.25c0.113-0.18,0.332-0.431,0.34-0.504
			L247.818,208.212z"/>
	</g>
	<g>
		<path class="st0" d="M237.515,222.383c-0.233,0.174-0.486,0.326-0.693,0.525c-0.678,0.65-1.267,1.376-1.719,2.205
			c-0.332,0.608-0.656,1.24-0.78,1.936c-0.042,0.263-0.073,0.535-0.062,0.804l0.123,3.513c0.016,0.78,0.013,0.626,0.03,1.441
			c0.019,0.842,0.077,2.584-0.13,7.295c-0.008,0.151-0.075,1.785-1.13,2.93c-0.056,0.098-0.241,0.211-0.273,0.322l0.072,0.056
			c0.212-0.143,0.444-0.266,0.637-0.433c3.445-2.881,3.468-5.694,3.468-5.694l0.004-0.379c0.005-1.722-0.005-3.423-0.046-5.099
			c-0.042-1.846-0.114-3.659-0.28-5.508l-0.095-1.217c-0.03-0.697,0.072-1.658,0.53-2.193c0.138-0.162,0.391-0.38,0.409-0.45
			L237.515,222.383z"/>
	</g>
	<g>
		<path class="st0" d="M225.348,234.994c-0.255,0.139-0.528,0.253-0.761,0.42c-0.764,0.548-1.451,1.182-2.015,1.936
			c-0.417,0.553-0.829,1.13-1.029,1.824c-0.079,0.255-0.147,0.518-0.175,0.785l-0.371,3.487c-0.093,0.773-0.075,0.621-0.172,1.428
			c-0.112,0.818-0.264,2.594-1.136,7.211c-0.026,0.151-0.329,1.746-1.527,2.742c-0.067,0.093-0.26,0.187-0.305,0.295l0.062,0.065
			c0.227-0.119,0.461-0.226,0.679-0.36c1.905-1.174,2.977-2.467,3.559-3.455c0.591-0.978,0.664-1.704,0.664-1.704l0.057-0.373
			c0.246-1.702,0.475-3.382,0.67-5.044c0.228-1.815,0.376-3.661,0.478-5.502l0.076-1.216c0.069-0.693,0.305-1.628,0.835-2.092
			c0.16-0.14,0.441-0.32,0.469-0.387L225.348,234.994z"/>
	</g>
	<g>
		<path class="st0" d="M211.552,245.802c-0.272,0.102-0.559,0.175-0.814,0.308c-0.835,0.432-1.606,0.96-2.271,1.626
			c-0.489,0.489-0.983,0.993-1.274,1.661c-0.11,0.247-0.204,0.515-0.272,0.771l-0.858,3.391c-0.201,0.75-0.161,0.602-0.371,1.385
			c-0.24,0.768-0.607,2.559-2.125,6.989c-0.048,0.145-0.572,1.677-1.901,2.49c-0.079,0.083-0.285,0.148-0.345,0.248l0.053,0.073
			c0.241-0.085,0.489-0.157,0.724-0.258c2.055-0.888,3.301-2.013,4.017-2.905c0.703-0.921,0.884-1.616,0.884-1.616l0.109-0.361
			c0.484-1.646,0.946-3.274,1.373-4.887c0.485-1.754,0.857-3.61,1.231-5.392l0.247-1.19c0.165-0.674,0.531-1.564,1.121-1.948
			c0.178-0.116,0.484-0.252,0.52-0.316L211.552,245.802z"/>
	</g>
	<g>
		<path class="st0" d="M196.38,254.562c-0.281,0.07-0.564,0.126-0.836,0.218c-0.889,0.306-1.728,0.717-2.482,1.278
			c-0.555,0.413-1.116,0.839-1.497,1.456c-0.142,0.231-0.277,0.474-0.375,0.729c-0.413,1.118-0.864,2.158-1.317,3.251
			c-0.305,0.711-0.245,0.571-0.564,1.314c-0.349,0.715-0.961,2.444-3.079,6.629c-0.067,0.137-0.805,1.573-2.238,2.183
			c-0.09,0.07-0.303,0.105-0.377,0.195l0.043,0.079c0.251-0.049,0.508-0.084,0.754-0.15c4.362-1.118,5.486-3.791,5.486-3.791
			l0.159-0.341c0.712-1.555,1.401-3.096,2.051-4.627c0.708-1.709,1.346-3.473,1.966-5.181c0.137-0.382,0.262-0.767,0.412-1.14
			c0.258-0.643,0.748-1.464,1.385-1.765c0.188-0.098,0.502-0.205,0.546-0.265L196.38,254.562z"/>
	</g>
	<g>
		<path class="st0" d="M180.138,261.114c-0.286,0.032-0.579,0.034-0.857,0.1c-0.904,0.241-1.81,0.474-2.631,0.932
			c-0.608,0.326-1.225,0.664-1.69,1.218c-0.174,0.207-0.342,0.427-0.474,0.665c-0.573,1.027-1.142,2.08-1.753,3.062
			c-0.403,0.657-0.323,0.528-0.744,1.215c-0.441,0.677-1.31,2.218-3.976,6.144c-0.086,0.125-1.019,1.434-2.525,1.824
			c-0.1,0.055-0.315,0.058-0.401,0.136l0.031,0.085c0.257-0.011,0.515-0.008,0.769-0.036c2.231-0.231,3.739-0.971,4.662-1.69
			c0.93-0.693,1.301-1.296,1.301-1.296l0.206-0.314c0.921-1.442,1.832-2.822,2.679-4.293c0.933-1.625,1.821-3.243,2.675-4.847
			c0.19-0.356,0.369-0.718,0.569-1.064c0.349-0.591,0.948-1.337,1.609-1.582c0.201-0.069,0.528-0.13,0.579-0.181L180.138,261.114z"
			/>
	</g>
	<g>
		<path class="st0" d="M163.142,265.327c-0.289-0.012-0.58-0.053-0.865-0.029c-0.935,0.074-1.846,0.295-2.731,0.588
			c-0.649,0.231-1.308,0.473-1.847,0.95c-0.201,0.178-0.4,0.37-0.564,0.585l-2.162,2.809c-0.485,0.619-0.39,0.491-0.905,1.109
			c-0.531,0.616-1.611,1.963-4.796,5.503c-0.102,0.126-1.205,1.333-2.751,1.47c-0.106,0.04-0.32,0.01-0.416,0.074l0.019,0.089
			c0.255,0.028,0.511,0.069,0.767,0.079c2.24,0.123,3.83-0.534,4.847-1.048c1.018-0.546,1.469-1.086,1.469-1.086l0.248-0.278
			c1.118-1.253,2.204-2.566,3.247-3.908c1.152-1.466,2.261-2.93,3.333-4.386l0.713-0.972c0.424-0.562,1.117-1.248,1.81-1.376
			c0.209-0.039,0.542-0.05,0.6-0.093L163.142,265.327z"/>
	</g>
	<g>
		<path class="st0" d="M145.716,267.141c-0.285-0.055-0.568-0.14-0.854-0.159c-0.937-0.062-1.871-0.008-2.789,0.216
			c-0.675,0.18-1.361,0.307-1.962,0.697c-0.224,0.146-0.447,0.305-0.639,0.494l-2.528,2.45c-0.568,0.536-0.456,0.43-1.05,0.99
			c-0.613,0.582-1.867,1.781-5.504,4.786c-0.117,0.099-1.375,1.13-2.933,1.129c-0.111,0.033-0.319-0.035-0.423,0.016l0.007,0.09
			c0.248,0.071,0.498,0.137,0.75,0.172c4.446,0.633,6.551-1.231,6.551-1.231l0.284-0.25c1.281-1.153,2.538-2.302,3.755-3.458
			c1.343-1.297,2.642-2.505,3.905-3.882l0.841-0.891c0.498-0.491,1.28-1.064,1.985-1.086c0.213-0.007,0.544,0.033,0.609-0.002
			L145.716,267.141z"/>
	</g>
	<g>
		<path class="st0" d="M128.196,266.568c-0.274-0.098-0.542-0.225-0.822-0.287c-0.917-0.204-1.848-0.293-2.785-0.209
			c-0.69,0.062-1.392,0.13-2.043,0.457c-0.243,0.12-0.488,0.264-0.703,0.415l-2.836,2.046c-0.636,0.445-0.51,0.357-1.175,0.822
			c-0.674,0.425-2.112,1.584-6.119,3.991c-0.13,0.08-1.516,0.915-3.057,0.68c-0.113,0.012-0.312-0.07-0.423-0.033l-0.006,0.09
			c0.24,0.091,0.476,0.195,0.72,0.268c2.145,0.645,3.821,0.589,4.944,0.366c1.134-0.272,1.718-0.679,1.718-0.679l0.315-0.207
			c1.427-0.95,2.829-1.898,4.192-2.859c1.499-1.031,2.977-2.215,4.408-3.342l0.954-0.755c0.559-0.411,1.412-0.859,2.11-0.774
			c0.211,0.025,0.533,0.115,0.602,0.091L128.196,266.568z"/>
	</g>
	<g>
		<path class="st0" d="M110.944,263.53c-0.261-0.123-0.511-0.275-0.782-0.364c-0.882-0.322-1.784-0.562-2.722-0.616
			c-0.689-0.042-1.392-0.079-2.08,0.147c-0.258,0.084-0.517,0.183-0.755,0.315c-1.035,0.588-2.06,1.129-3.102,1.655
			c-0.69,0.347-0.555,0.278-1.276,0.641c-0.729,0.332-2.297,1.226-6.622,3.103c-0.14,0.061-1.626,0.684-3.114,0.224
			c-0.114-0.005-0.299-0.116-0.413-0.094l-0.019,0.088c0.224,0.126,0.443,0.264,0.674,0.373c2.029,0.948,3.681,1.172,4.848,1.04
			c1.158-0.101,1.791-0.418,1.791-0.418l0.341-0.158c1.544-0.73,3.06-1.462,4.542-2.215c1.653-0.89,3.264-1.798,4.84-2.713
			c0.35-0.204,0.693-0.417,1.048-0.606c0.612-0.334,1.508-0.62,2.197-0.474c0.208,0.046,0.518,0.167,0.589,0.15L110.944,263.53z"/>
	</g>
	<g>
		<path class="st0" d="M94.293,258.11c-0.24-0.16-0.465-0.349-0.72-0.477c-0.844-0.404-1.704-0.768-2.62-0.966
			c-0.675-0.143-1.364-0.283-2.075-0.16c-0.266,0.046-0.536,0.106-0.79,0.202c-1.092,0.405-2.217,0.869-3.316,1.229
			c-0.73,0.243-0.586,0.195-1.349,0.45c-0.776,0.239-2.422,0.845-6.996,2.151c-0.146,0.04-1.702,0.444-3.106-0.227
			c-0.111-0.022-0.278-0.158-0.394-0.154l-0.031,0.085c0.204,0.157,0.4,0.325,0.612,0.467c0.933,0.619,1.804,1.038,2.583,1.314
			c0.798,0.243,1.498,0.35,2.077,0.384c1.158,0.068,1.828-0.155,1.828-0.155l0.359-0.107c1.635-0.516,3.21-0.968,4.816-1.575
			c1.757-0.641,3.476-1.305,5.16-1.982c0.374-0.15,0.743-0.312,1.119-0.447c0.642-0.218,1.598-0.444,2.255-0.191
			c0.198,0.076,0.487,0.241,0.56,0.235L94.293,258.11z"/>
	</g>
	<g>
		<path class="st0" d="M78.558,250.419c-0.214-0.194-0.41-0.413-0.643-0.578c-0.765-0.543-1.603-0.963-2.47-1.306
			c-0.646-0.239-1.307-0.477-2.027-0.457c-0.269,0.008-0.544,0.028-0.808,0.087l-3.463,0.766c-0.757,0.14-0.608,0.112-1.399,0.258
			c-0.805,0.133-2.499,0.476-7.222,1.151c-0.164,0.039-1.746,0.204-3.043-0.656c-0.107-0.037-0.253-0.197-0.368-0.208l-0.042,0.079
			c0.179,0.184,0.349,0.38,0.539,0.55c1.649,1.523,3.254,2.087,4.382,2.322c1.133,0.233,1.827,0.108,1.827,0.108l0.369-0.056
			c1.67-0.254,3.328-0.536,4.996-0.902c1.825-0.383,3.616-0.795,5.375-1.224l1.17-0.285c0.687-0.159,1.658-0.238,2.27,0.109
			c0.185,0.105,0.447,0.311,0.52,0.315L78.558,250.419z"/>
	</g>
	<g>
		<path class="st0" d="M64.044,240.611c-0.184-0.224-0.347-0.469-0.555-0.666c-0.677-0.651-1.447-1.185-2.276-1.625
			c-0.605-0.329-1.224-0.659-1.938-0.741c-0.267-0.031-0.542-0.049-0.811-0.029l-3.528,0.27c-0.777,0.046-0.637,0.051-1.437,0.079
			c-0.814,0.019-2.536,0.119-7.296,0.123c-0.164,0.012-1.791-0.008-2.934-1.06c-0.1-0.052-0.222-0.231-0.335-0.258l-0.052,0.073
			c0.15,0.207,0.292,0.425,0.456,0.621c1.411,1.746,2.958,2.491,4.023,2.902c1.087,0.39,1.79,0.364,1.79,0.364l0.373-0.003
			c1.678-0.007,3.396-0.098,5.081-0.21c1.857-0.122,3.684-0.277,5.481-0.453l1.216-0.14c0.7-0.059,1.67,0.001,2.227,0.432
			c0.168,0.13,0.397,0.372,0.469,0.387L64.044,240.611z"/>
	</g>
	<g>
		<path class="st0" d="M51.026,228.884c-0.15-0.248-0.277-0.514-0.455-0.738c-0.582-0.736-1.25-1.392-2.033-1.921
			c-0.565-0.399-1.12-0.822-1.817-1.002c-0.259-0.068-0.528-0.125-0.797-0.142l-3.524-0.229c-0.781-0.061-0.627-0.049-1.442-0.113
			c-0.825-0.081-2.527-0.234-7.235-0.895c-0.144-0.026-1.795-0.238-2.771-1.447c-0.093-0.066-0.187-0.259-0.295-0.303l-0.062,0.066
			c0.12,0.228,0.228,0.463,0.363,0.68c1.188,1.901,2.586,2.876,3.588,3.426c1.02,0.54,1.717,0.612,1.717,0.612l0.369,0.049
			c1.662,0.226,3.403,0.351,5.07,0.488c1.858,0.133,3.664,0.256,5.492,0.309l1.226,0.026c0.7,0.039,1.65,0.235,2.139,0.742
			c0.148,0.154,0.341,0.425,0.41,0.45L51.026,228.884z"/>
	</g>
	<g>
		<path class="st0" d="M39.754,215.471c-0.114-0.267-0.201-0.549-0.345-0.797c-0.472-0.812-1.038-1.557-1.736-2.191
			c-0.526-0.459-1.017-0.955-1.676-1.233c-0.247-0.104-0.504-0.198-0.768-0.253l-3.448-0.721c-0.762-0.171-0.612-0.137-1.409-0.315
			c-0.828-0.18-2.491-0.568-7.044-1.888c-0.136-0.048-1.739-0.49-2.559-1.81c-0.082-0.079-0.148-0.285-0.248-0.342l-0.071,0.056
			c0.086,0.243,0.16,0.492,0.261,0.727c1.952,4.047,4.695,4.738,4.695,4.738l0.356,0.101c1.66,0.426,3.328,0.817,4.965,1.18
			c1.827,0.387,3.561,0.783,5.405,1.061l1.208,0.198c0.685,0.137,1.596,0.465,2.008,1.037c0.124,0.173,0.276,0.47,0.341,0.504
			L39.754,215.471z"/>
	</g>
	<g>
		<path class="st0" d="M30.45,200.626c-0.074-0.28-0.12-0.572-0.227-0.838c-0.349-0.872-0.801-1.69-1.401-2.417
			c-0.434-0.538-0.912-1.068-1.508-1.444c-0.228-0.137-0.469-0.268-0.721-0.359l-3.301-1.2c-0.729-0.277-0.585-0.222-1.346-0.511
			c-0.383-0.149-0.994-0.387-2.057-0.801c-1.036-0.436-2.503-1.068-4.661-2.05c-0.14-0.062-1.616-0.742-2.296-2.146
			c-0.077-0.086-0.113-0.299-0.202-0.372l-0.078,0.046c0.044,0.255,0.1,0.505,0.176,0.749c0.682,2.131,1.68,3.485,2.499,4.288
			c0.814,0.808,1.48,1.064,1.48,1.064l0.35,0.145c1.594,0.649,3.173,1.277,4.742,1.867c1.721,0.654,3.44,1.26,5.215,1.797
			l1.165,0.366c0.657,0.233,1.51,0.687,1.834,1.311c0.098,0.188,0.205,0.504,0.264,0.548L30.45,200.626z"/>
	</g>
	<g>
		<path class="st0" d="M23.303,184.636c-0.032-0.289-0.035-0.585-0.101-0.864c-0.218-0.914-0.545-1.79-1.031-2.596
			c-0.356-0.593-0.726-1.194-1.304-1.637c-0.22-0.164-0.444-0.326-0.676-0.453l-3.082-1.656c-0.679-0.377-0.545-0.302-1.254-0.697
			c-0.687-0.419-2.337-1.211-6.26-3.763c-0.129-0.081-1.486-0.963-1.952-2.451c-0.06-0.097-0.073-0.312-0.156-0.395l-0.083,0.034
			c0.023,0.255,0.033,0.514,0.074,0.765c0.36,2.211,1.146,3.693,1.837,4.605c0.722,0.906,1.353,1.251,1.353,1.251l0.324,0.194
			c1.479,0.869,2.947,1.715,4.409,2.52c1.584,0.897,3.283,1.712,4.928,2.505l1.096,0.528c0.615,0.323,1.39,0.893,1.619,1.559
			c0.069,0.201,0.13,0.529,0.181,0.58L23.303,184.636z"/>
	</g>
	<g>
		<path class="st0" d="M18.496,167.794c-0.002-0.288,0.023-0.579-0.013-0.862c-0.079-0.937-0.272-1.851-0.631-2.719
			c-0.264-0.639-0.539-1.287-1.044-1.807c-0.189-0.194-0.391-0.384-0.615-0.542c-0.984-0.673-1.905-1.361-2.841-2.068
			c-0.614-0.469-0.493-0.376-1.134-0.867c-0.619-0.511-2.106-1.531-5.689-4.597c-0.116-0.099-1.324-1.162-1.56-2.701
			c-0.046-0.104-0.026-0.319-0.096-0.413l-0.087,0.022c-0.015,0.256-0.044,0.513-0.041,0.768c0.029,2.239,0.555,3.821,1.183,4.813
			c0.598,0.997,1.16,1.428,1.16,1.428l0.291,0.237c1.331,1.069,2.654,2.113,3.977,3.117c1.515,1.098,3.045,2.15,4.555,3.167
			c0.336,0.226,0.679,0.442,1.003,0.678c0.565,0.406,1.229,1.084,1.378,1.771c0.049,0.207,0.076,0.538,0.123,0.596L18.496,167.794z"
			/>
	</g>
	<g>
		<path class="st0" d="M16.099,150.441c0.041-0.286,0.111-0.572,0.116-0.857c0-0.937-0.082-1.869-0.288-2.78
			c-0.164-0.67-0.338-1.351-0.758-1.937c-0.157-0.219-0.328-0.436-0.525-0.622l-2.576-2.442c-0.54-0.549-0.434-0.44-0.997-1.015
			c-0.56-0.592-1.791-1.804-4.991-5.336c-0.12-0.114-1.186-1.334-1.172-2.888c-0.029-0.11,0.022-0.319-0.032-0.422l-0.089,0.01
			c-0.054,0.251-0.121,0.501-0.157,0.754c-0.354,2.218,0.127,3.864,0.541,4.929c0.44,1.069,0.932,1.573,0.932,1.573l0.252,0.275
			c1.142,1.241,2.306,2.457,3.544,3.634c1.341,1.297,2.687,2.552,4.027,3.77c0.299,0.271,0.604,0.531,0.889,0.811
			c0.485,0.482,1.12,1.242,1.172,1.944c0.017,0.212-0.005,0.545,0.032,0.607L16.099,150.441z"/>
	</g>
	<g>
		<path class="st0" d="M16.1,132.913c0.083-0.278,0.197-0.55,0.245-0.832c0.157-0.926,0.197-1.86,0.066-2.795
			c-0.108-0.69-0.143-1.383-0.481-2.021c-0.123-0.238-0.259-0.475-0.427-0.687l-2.181-2.768c-0.476-0.621-0.382-0.498-0.879-1.148
			c-0.521-0.67-1.542-2.036-4.182-5.973c-0.076-0.125-1.008-1.49-0.805-3.033c-0.012-0.113,0.069-0.313,0.032-0.421l-0.09-0.003
			c-0.091,0.241-0.195,0.479-0.268,0.724c-1.089,4.358,0.557,6.648,0.557,6.648l0.208,0.307c0.997,1.392,2.027,2.764,3.049,4.095
			c1.148,1.469,2.241,2.89,3.452,4.285l0.801,0.928c0.44,0.546,0.93,1.383,0.881,2.086c-0.015,0.212-0.088,0.538-0.06,0.605
			L16.1,132.913z"/>
	</g>
	<g>
		<path class="st0" d="M18.498,115.56c0.124-0.262,0.278-0.515,0.367-0.788c0.295-0.892,0.476-1.809,0.487-2.75
			c0.012-0.692,0-1.402-0.24-2.08c-0.086-0.251-0.186-0.505-0.32-0.737l-1.749-3.039c-0.379-0.68-0.304-0.545-0.7-1.256
			c-0.386-0.727-1.318-2.255-3.317-6.503c-0.067-0.138-0.757-1.607-0.37-3.117c0-0.114,0.101-0.304,0.075-0.418l-0.089-0.015
			c-0.114,0.229-0.241,0.454-0.339,0.69c-0.855,2.07-0.967,3.746-0.859,4.887c0.094,1.139,0.467,1.771,0.467,1.771l0.174,0.336
			c0.801,1.521,1.603,3.016,2.422,4.476c0.881,1.602,1.841,3.18,2.847,4.731l0.654,1.028c0.353,0.601,0.714,1.495,0.558,2.182
			c-0.046,0.207-0.167,0.518-0.15,0.589L18.498,115.56z"/>
	</g>
	<g>
		<path class="st0" d="M23.305,98.719c0.142-0.249,0.344-0.473,0.47-0.73c0.424-0.839,0.74-1.719,0.889-2.647
			c0.11-0.683,0.216-1.38,0.06-2.09c-0.058-0.265-0.13-0.534-0.238-0.786l-1.295-3.249c-0.276-0.725-0.221-0.582-0.51-1.339
			c-0.143-0.383-0.369-0.995-0.764-2.059c-0.407-1.081-0.938-2.604-1.617-4.849c-0.046-0.146-0.517-1.693,0.086-3.129
			c0.016-0.113,0.144-0.286,0.134-0.403l-0.086-0.027c-0.147,0.21-0.305,0.413-0.436,0.633c-1.145,1.923-1.51,3.558-1.554,4.706
			c-0.015,1.166,0.237,1.83,0.237,1.83l0.123,0.356c0.571,1.614,1.148,3.204,1.746,4.759c0.64,1.707,1.439,3.433,2.173,5.091
			l0.497,1.108c0.261,0.643,0.486,1.576,0.231,2.232c-0.08,0.197-0.239,0.49-0.225,0.565L23.305,98.719z"/>
	</g>
	<g>
		<path class="st0" d="M30.452,82.727c0.183-0.222,0.392-0.427,0.545-0.669c0.528-0.777,0.979-1.595,1.259-2.492
			c0.208-0.659,0.414-1.332,0.363-2.055c-0.02-0.27-0.052-0.546-0.123-0.81c-0.32-1.148-0.584-2.266-0.849-3.41
			c-0.17-0.754-0.136-0.606-0.313-1.394c-0.141-0.786-0.642-2.534-1.4-7.175c-0.025-0.15-0.272-1.744,0.531-3.079
			c0.032-0.109,0.184-0.261,0.191-0.378l-0.081-0.039c-0.175,0.187-0.362,0.366-0.523,0.564c-2.878,3.46-2.213,6.289-2.213,6.289
			l0.071,0.369c0.335,1.675,0.679,3.326,1.049,4.947c0.451,1.813,0.948,3.602,1.451,5.352c0.112,0.389,0.236,0.774,0.332,1.163
			c0.174,0.676,0.236,1.615-0.076,2.247c-0.096,0.191-0.288,0.461-0.289,0.535L30.452,82.727z"/>
	</g>
	<g>
		<path class="st0" d="M39.757,67.884c0.214-0.194,0.45-0.367,0.636-0.584c0.592-0.725,1.18-1.452,1.58-2.304
			c0.301-0.621,0.602-1.257,0.653-1.979c0.019-0.27,0.026-0.547-0.006-0.817c-0.143-1.169-0.295-2.351-0.38-3.507
			c-0.061-0.769-0.049-0.617-0.113-1.421c-0.039-0.805-0.256-2.574-0.395-7.303c-0.004-0.152-0.023-1.762,0.961-2.967
			c0.048-0.103,0.22-0.233,0.243-0.347l-0.075-0.05c-0.201,0.16-0.41,0.311-0.599,0.484c-1.652,1.513-2.454,2.981-2.775,4.108
			c-0.343,1.108-0.288,1.813-0.288,1.813l0.019,0.375c0.103,1.709,0.184,3.365,0.359,5.048c0.2,1.862,0.431,3.693,0.683,5.494
			c0.056,0.4,0.124,0.798,0.164,1.196c0.062,0.68,0.023,1.643-0.37,2.228c-0.123,0.174-0.352,0.415-0.363,0.488L39.757,67.884z"/>
	</g>
	<g>
		<path class="st0" d="M51.03,54.471c0.239-0.162,0.498-0.3,0.714-0.488c0.695-0.629,1.339-1.305,1.873-2.073
			c0.386-0.572,0.774-1.158,0.926-1.863c0.057-0.264,0.103-0.536,0.109-0.808c0.032-1.166,0.03-2.374,0.098-3.538
			c0.048-0.768,0.039-0.616,0.088-1.419c0.067-0.81,0.125-2.558,0.616-7.292c0.017-0.15,0.224-1.743,1.37-2.795
			c0.062-0.096,0.251-0.2,0.29-0.309l-0.068-0.059c-0.221,0.13-0.45,0.249-0.661,0.393c-0.922,0.635-1.639,1.282-2.181,1.908
			c-0.523,0.648-0.884,1.257-1.132,1.781c-0.496,1.048-0.54,1.752-0.54,1.752l-0.034,0.373c-0.137,1.704-0.296,3.344-0.336,5.058
			c-0.063,1.867-0.092,3.71-0.096,5.523c-0.002,0.403,0.01,0.806-0.005,1.205c-0.039,0.676-0.174,1.661-0.663,2.168
			c-0.146,0.155-0.408,0.361-0.43,0.43L51.03,54.471z"/>
	</g>
	<g>
		<path class="st0" d="M64.049,42.746c0.26-0.126,0.537-0.226,0.777-0.382c0.791-0.504,1.49-1.129,2.133-1.806
			c0.463-0.51,0.93-1.034,1.18-1.709c0.094-0.252,0.177-0.515,0.221-0.782l0.582-3.499c0.153-0.755,0.123-0.606,0.282-1.395
			c0.177-0.796,0.491-2.495,1.627-7.129c0.025-0.167,0.461-1.699,1.745-2.579c0.074-0.086,0.276-0.161,0.331-0.264l-0.059-0.069
			c-0.238,0.097-0.483,0.182-0.712,0.295c-2.029,0.96-3.148,2.243-3.789,3.2c-0.639,0.964-0.782,1.655-0.782,1.655l-0.086,0.363
			c-0.389,1.643-0.743,3.29-1.026,4.973c-0.326,1.836-0.612,3.652-0.87,5.442l-0.17,1.195c-0.11,0.695-0.399,1.625-0.95,2.064
			c-0.166,0.133-0.455,0.299-0.487,0.365L64.049,42.746z"/>
	</g>
	<g>
		<path class="st0" d="M78.564,32.938c0.275-0.087,0.564-0.147,0.824-0.265c0.856-0.386,1.641-0.896,2.354-1.507
			c0.531-0.437,1.069-0.888,1.412-1.519c0.129-0.235,0.248-0.483,0.329-0.741l1.069-3.371c0.249-0.741,0.201-0.595,0.461-1.368
			c0.287-0.761,0.838-2.394,2.618-6.807c0.054-0.148,0.673-1.669,2.08-2.33c0.086-0.074,0.298-0.12,0.366-0.213l-0.049-0.076
			c-0.249,0.062-0.504,0.11-0.747,0.189c-2.144,0.665-3.417,1.815-4.196,2.649c-0.77,0.861-1.009,1.522-1.009,1.522l-0.137,0.346
			c-0.622,1.555-1.174,3.196-1.703,4.794c-0.581,1.767-1.12,3.519-1.628,5.25l-0.321,1.183c-0.207,0.671-0.624,1.549-1.233,1.904
			c-0.184,0.107-0.493,0.23-0.534,0.291L78.564,32.938z"/>
	</g>
	<g>
		<path class="st0" d="M94.297,25.247c0.286-0.046,0.581-0.063,0.855-0.143c0.901-0.262,1.759-0.633,2.542-1.159
			c0.571-0.403,1.18-0.735,1.605-1.318c0.16-0.214,0.315-0.441,0.431-0.683l1.536-3.173c0.35-0.699,0.282-0.561,0.648-1.292
			c0.376-0.762,1.16-2.266,3.546-6.37c0.079-0.12,0.898-1.57,2.379-2.043c0.096-0.06,0.312-0.074,0.393-0.157l-0.037-0.083
			c-0.256,0.024-0.516,0.035-0.768,0.076c-4.401,0.909-5.739,3.403-5.739,3.403l-0.184,0.322c-0.821,1.494-1.602,3.028-2.353,4.528
			c-0.819,1.675-1.619,3.277-2.343,4.98l-0.484,1.125c-0.299,0.633-0.838,1.439-1.49,1.701c-0.197,0.079-0.522,0.155-0.571,0.21
			L94.297,25.247z"/>
	</g>
	<g>
		<path class="st0" d="M110.95,19.828c0.29-0.003,0.584,0.023,0.868-0.015c0.931-0.127,1.834-0.366,2.686-0.768
			c0.628-0.288,1.258-0.625,1.766-1.117c0.19-0.187,0.374-0.389,0.525-0.611l1.969-2.904c0.447-0.638,0.359-0.512,0.825-1.179
			c0.484-0.671,1.454-2.167,4.4-5.823c0.094-0.12,1.113-1.383,2.64-1.695c0.103-0.05,0.318-0.042,0.409-0.116l-0.025-0.086
			c-0.256-0.002-0.514-0.019-0.768-0.003c-2.234,0.136-3.79,0.769-4.769,1.365c-0.983,0.583-1.389,1.189-1.389,1.189l-0.226,0.303
			c-1.019,1.386-2.013,2.762-2.967,4.138c-1.055,1.5-2.059,3.033-3.013,4.623l-0.639,1.039c-0.386,0.581-1.034,1.297-1.718,1.459
			c-0.207,0.049-0.54,0.076-0.596,0.123L110.95,19.828z"/>
	</g>
	<g>
		<path class="st0" d="M128.202,16.791c0.286,0.019,0.575,0.098,0.862,0.101c0.941,0.015,1.871-0.084,2.772-0.354
			c0.662-0.199,1.336-0.407,1.906-0.858c0.213-0.168,0.423-0.35,0.602-0.557c0.774-0.899,1.554-1.727,2.354-2.596
			c0.531-0.564,0.426-0.452,0.98-1.041c0.572-0.556,1.742-1.955,5.16-5.18c0.11-0.105,1.293-1.2,2.846-1.28
			c0.109-0.034,0.32,0.006,0.42-0.053l-0.013-0.089c-0.253-0.041-0.505-0.096-0.76-0.119c-2.229-0.183-3.856,0.147-4.907,0.676
			c-1.052,0.494-1.54,1.01-1.54,1.01l-0.265,0.266c-1.2,1.216-2.376,2.427-3.512,3.642c-1.252,1.352-2.456,2.8-3.625,4.192
			c-0.26,0.312-0.51,0.631-0.779,0.93c-0.464,0.515-1.206,1.125-1.908,1.182c-0.212,0.012-0.545,0.004-0.606,0.047L128.202,16.791z"
			/>
	</g>
	<g>
		<path class="st0" d="M145.722,16.218c0.28,0.069,0.557,0.168,0.841,0.201c0.933,0.09,1.867,0.127,2.795,0.005
			c0.683-0.096,1.378-0.201,2.004-0.559c0.234-0.134,0.467-0.282,0.673-0.46l2.694-2.307c0.602-0.478,0.483-0.384,1.112-0.883
			c0.646-0.497,1.98-1.599,5.828-4.424c0.127-0.113,1.445-1.003,2.994-0.852c0.112-0.018,0.316,0.054,0.423,0.011l-0.001-0.091
			c-0.245-0.079-0.487-0.17-0.735-0.231c-2.171-0.571-3.853-0.306-4.96,0.018c-1.109,0.329-1.662,0.768-1.662,0.768l-0.299,0.223
			c-1.355,1.024-2.682,2.026-3.981,3.143c-1.429,1.203-2.816,2.414-4.165,3.625c-0.3,0.269-0.591,0.548-0.898,0.803
			c-0.528,0.422-1.35,0.976-2.054,0.957c-0.213-0.004-0.542-0.06-0.608-0.029V16.218z"/>
	</g>
	<g>
		<path class="st0" d="M163.147,18.033c0.267,0.111,0.526,0.251,0.802,0.327c0.904,0.251,1.83,0.379,2.773,0.351
			c0.687,0.008,1.388,0.009,2.056-0.252c0.25-0.098,0.501-0.21,0.728-0.355l2.984-1.891c0.668-0.41,0.536-0.329,1.234-0.758
			c0.713-0.413,2.18-1.294,6.379-3.524c0.13-0.059,1.595-0.869,3.095-0.46c0.113-0.001,0.304,0.101,0.416,0.073l0.012-0.089
			c-0.231-0.114-0.457-0.241-0.693-0.339c-2.08-0.835-3.785-0.805-4.92-0.662c-1.142,0.161-1.749,0.513-1.749,0.513l-0.327,0.177
			c-1.476,0.786-2.961,1.718-4.389,2.586c-1.581,0.98-3.117,1.965-4.621,2.974l-1.007,0.703c-0.589,0.381-1.473,0.784-2.167,0.665
			c-0.21-0.035-0.526-0.141-0.596-0.12L163.147,18.033z"/>
	</g>
	<g>
		<path class="st0" d="M180.144,22.247c0.248,0.15,0.484,0.327,0.746,0.444c0.858,0.381,1.753,0.653,2.69,0.757
			c0.693,0.066,1.389,0.158,2.082,0.007c0.261-0.06,0.524-0.134,0.769-0.245l3.213-1.435c0.717-0.308,0.576-0.248,1.325-0.569
			c0.775-0.336,2.36-1.024,6.814-2.606c0.141-0.047,1.688-0.606,3.139-0.044c0.112,0.015,0.286,0.143,0.401,0.133l0.025-0.087
			c-0.212-0.146-0.417-0.307-0.638-0.435c-3.963-2.115-6.582-1.085-6.582-1.085l-0.35,0.133c-1.601,0.643-3.174,1.291-4.715,1.959
			c-1.702,0.747-3.345,1.463-4.999,2.317l-1.093,0.548c-0.635,0.291-1.564,0.559-2.232,0.338c-0.202-0.066-0.499-0.218-0.572-0.208
			L180.144,22.247z"/>
	</g>
	<g>
		<path class="st0" d="M196.385,28.8c0.224,0.185,0.432,0.395,0.674,0.548c0.793,0.504,1.638,0.903,2.549,1.143
			c0.668,0.181,1.36,0.342,2.074,0.275c0.265-0.022,0.536-0.057,0.794-0.131l3.375-0.958c0.751-0.202,0.603-0.163,1.389-0.373
			c0.802-0.204,2.504-0.723,7.114-1.636c0.15-0.032,1.743-0.346,3.115,0.393c0.11,0.028,0.271,0.171,0.387,0.174l0.036-0.083
			c-0.194-0.167-0.382-0.343-0.587-0.495c-1.8-1.329-3.4-1.841-4.534-2.013c-1.129-0.183-1.828,0.018-1.828,0.018l-0.368,0.086
			c-1.671,0.407-3.316,0.822-4.931,1.263c-1.77,0.466-3.534,1.012-5.282,1.609l-1.156,0.384c-0.668,0.196-1.624,0.326-2.252,0.009
			c-0.189-0.096-0.461-0.289-0.535-0.29L196.385,28.8z"/>
	</g>
	<g>
		<path class="st0" d="M211.557,37.561c0.195,0.216,0.371,0.454,0.589,0.641c0.713,0.613,1.491,1.131,2.357,1.5
			c0.636,0.272,1.288,0.542,2.016,0.562c0.272,0.008,0.553-0.001,0.815-0.033l3.467-0.471c0.771-0.093,0.619-0.075,1.425-0.173
			c0.805-0.068,2.598-0.388,7.276-0.637c0.152-0.01,1.77-0.096,3.021,0.832c0.106,0.042,0.243,0.208,0.359,0.227l0.047-0.076
			c-0.169-0.193-0.329-0.395-0.511-0.575c-1.592-1.573-3.101-2.308-4.196-2.637c-1.112-0.314-1.827-0.219-1.827-0.219l-0.376,0.034
			c-1.707,0.167-3.39,0.345-5.047,0.552c-1.81,0.205-3.667,0.548-5.462,0.868l-1.196,0.216c-0.687,0.099-1.649,0.091-2.225-0.313
			c-0.174-0.123-0.416-0.354-0.487-0.365L211.557,37.561z"/>
	</g>
	<g>
		<path class="st0" d="M225.351,48.368c0.172,0.231,0.326,0.478,0.511,0.699c0.618,0.71,1.314,1.334,2.117,1.822
			c0.591,0.359,1.197,0.72,1.913,0.842c0.268,0.046,0.543,0.079,0.817,0.074c1.176-0.019,2.323-0.004,3.504,0.01
			c0.775,0.015,0.622,0.012,1.432,0.029c0.409,0.012,1.061,0.03,2.194,0.062c1.15,0.03,2.772,0.098,5.103,0.31
			c0.152,0.011,1.763,0.153,2.869,1.249c0.099,0.057,0.211,0.241,0.322,0.275l0.057-0.069c-0.14-0.214-0.269-0.437-0.423-0.641
			c-1.357-1.78-2.729-2.735-3.787-3.197c-1.073-0.45-1.783-0.465-1.783-0.465l-0.376-0.019c-1.709-0.076-3.398-0.136-5.063-0.164
			c-1.837-0.03-3.722,0.049-5.537,0.11c-0.406,0.016-0.81,0.044-1.212,0.045c-0.693,0.001-1.642-0.142-2.155-0.625
			c-0.157-0.143-0.378-0.391-0.448-0.41L225.351,48.368z"/>
	</g>
	<g>
		<path class="st0" d="M237.519,60.98c0.137,0.253,0.25,0.524,0.417,0.756c0.53,0.775,1.116,1.503,1.845,2.097
			c0.533,0.44,1.081,0.882,1.77,1.105c0.258,0.083,0.526,0.155,0.797,0.188c1.183,0.133,2.323,0.302,3.482,0.484
			c0.763,0.124,0.612,0.1,1.41,0.23c0.782,0.162,2.589,0.351,7.18,1.378c0.148,0.032,1.719,0.399,2.657,1.641
			c0.089,0.071,0.175,0.269,0.28,0.319l0.066-0.06c-0.108-0.233-0.204-0.473-0.328-0.696c-1.098-1.951-2.289-3.111-3.312-3.688
			c-0.997-0.597-1.697-0.712-1.697-0.712l-0.369-0.072c-1.679-0.314-3.339-0.611-4.98-0.872c-1.854-0.255-3.696-0.464-5.507-0.651
			c-0.403-0.042-0.806-0.07-1.204-0.127c-0.693-0.089-1.583-0.386-2.059-0.907c-0.14-0.16-0.319-0.44-0.387-0.468L237.519,60.98z"/>
	</g>
	<g>
		<path class="st0" d="M247.821,75.152c0.1,0.271,0.174,0.555,0.305,0.808c0.451,0.82,0.91,1.634,1.549,2.323
			c0.464,0.511,0.942,1.027,1.591,1.344c0.243,0.118,0.497,0.228,0.76,0.299c1.135,0.306,2.295,0.602,3.397,0.955
			c0.736,0.231,0.591,0.185,1.359,0.426c0.763,0.264,2.477,0.727,6.925,2.362c0.142,0.052,1.641,0.638,2.389,2.003
			c0.078,0.083,0.133,0.291,0.231,0.356l0.074-0.051c-0.073-0.246-0.134-0.498-0.224-0.737c-0.778-2.103-1.851-3.391-2.774-4.111
			c-0.9-0.733-1.574-0.945-1.574-0.945l-0.354-0.123c-1.625-0.542-3.186-1.088-4.818-1.552c-1.802-0.51-3.587-0.979-5.35-1.417
			c-0.392-0.098-0.786-0.183-1.171-0.294c-0.652-0.198-1.534-0.591-1.929-1.174c-0.116-0.178-0.254-0.481-0.316-0.519
			L247.821,75.152z"/>
	</g>
	<g>
		<path class="st0" d="M256.05,90.612c0.06,0.283,0.091,0.575,0.185,0.845c0.315,0.882,0.72,1.725,1.226,2.509
			c0.383,0.572,0.781,1.152,1.376,1.557c0.222,0.152,0.457,0.296,0.707,0.403l3.253,1.412c0.693,0.332,0.556,0.267,1.28,0.614
			c0.73,0.364,2.304,1.081,6.528,3.308c0.147,0.068,1.53,0.862,2.073,2.321c0.065,0.093,0.089,0.308,0.176,0.386l0.081-0.04
			c-0.036-0.254-0.06-0.512-0.113-0.762c-0.44-2.202-1.402-3.603-2.181-4.455c-0.782-0.854-1.418-1.16-1.418-1.16l-0.332-0.172
			c-1.511-0.772-3-1.524-4.569-2.205c-1.706-0.76-3.4-1.476-5.078-2.16c-0.373-0.152-0.75-0.292-1.113-0.457
			c-0.631-0.282-1.479-0.781-1.77-1.422c-0.089-0.193-0.18-0.513-0.238-0.559L256.05,90.612z"/>
	</g>
	<g>
		<path class="st0" d="M262.037,107.067c0.018,0.289,0.005,0.583,0.058,0.864c0.166,0.923,0.471,1.809,0.889,2.65
			c0.294,0.621,0.6,1.252,1.128,1.739c0.197,0.182,0.408,0.358,0.639,0.5l3.008,1.857c0.661,0.422,0.531,0.339,1.221,0.78
			c0.666,0.464,2.114,1.396,5.954,4.198c0.116,0.092,1.474,1.057,1.763,2.583c0.05,0.101,0.042,0.317,0.116,0.406l0.086-0.028
			c0.002-0.257,0.017-0.516,0.001-0.771c-0.147-2.237-0.93-3.756-1.553-4.714c-0.646-0.956-1.228-1.349-1.228-1.349l-0.302-0.218
			c-1.353-0.983-2.825-1.915-4.239-2.819c-1.572-0.994-3.139-1.943-4.693-2.858l-1.069-0.599c-0.602-0.363-1.351-0.981-1.548-1.658
			c-0.059-0.204-0.103-0.534-0.153-0.588L262.037,107.067z"/>
	</g>
	<g>
		<path class="st0" d="M265.669,124.199c-0.026,0.289-0.082,0.579-0.073,0.865c0.032,0.939,0.18,1.862,0.496,2.751
			c0.244,0.653,0.471,1.319,0.907,1.877c0.167,0.208,0.349,0.412,0.555,0.585l2.693,2.262c0.59,0.51,0.474,0.41,1.091,0.943
			c0.309,0.272,0.801,0.704,1.658,1.458c0.817,0.765,1.983,1.862,3.67,3.523c0.11,0.106,1.264,1.25,1.42,2.8
			c0.04,0.107,0.01,0.32,0.074,0.418l0.089-0.016c0.028-0.254,0.07-0.508,0.08-0.763c0.091-2.235-0.382-3.846-0.876-4.881
			c-0.491-1.037-1.021-1.506-1.021-1.506l-0.278-0.256c-1.277-1.157-2.546-2.288-3.819-3.38c-1.412-1.203-2.779-2.368-4.271-3.483
			l-0.97-0.744c-0.539-0.444-1.187-1.163-1.28-1.861c-0.028-0.211-0.022-0.545-0.062-0.606L265.669,124.199z"/>
	</g>
</g>
</svg>
