<?xml version="1.0" encoding="utf-8"?>
<!-- Generator: Adobe Illustrator 17.0.0, SVG Export Plug-In . SVG Version: 6.00 Build 0)  -->
<!DOCTYPE svg PUBLIC "-//W3C//DTD SVG 1.1//EN" "http://www.w3.org/Graphics/SVG/1.1/DTD/svg11.dtd">
<svg version="1.1" id="Capa_1" xmlns="http://www.w3.org/2000/svg" xmlns:xlink="http://www.w3.org/1999/xlink" x="0px" y="0px"
	 width="507.944px" height="507.572px" viewBox="0 0 507.944 507.572" style="enable-background:new 0 0 507.944 507.572;"
	 xml:space="preserve">
<style type="text/css">
	.st0{fill:#AA7439;}
</style>
<g>
	<g>
		<path class="st0" d="M495.977,253.874c-0.071,0.295-0.173,0.586-0.207,0.884c-0.113,0.975-0.108,1.953,0.072,2.914
			c0.133,0.707,0.275,1.426,0.673,2.056c0.149,0.236,0.312,0.469,0.504,0.671l2.501,2.633c0.547,0.585,0.439,0.469,1.011,1.08
			c0.551,0.62,1.896,1.935,4.949,5.552c0.102,0.117,1.158,1.361,1.162,2.92c0.029,0.109-0.022,0.321,0.033,0.423l0.091-0.009
			c0.054-0.251,0.123-0.502,0.159-0.755c0.317-2.223,0.001-3.872-0.396-4.954c-0.407-1.084-0.929-1.609-0.929-1.609l-0.258-0.285
			l-3.531-3.822l-3.913-4.077c-0.29-0.297-0.588-0.585-0.865-0.893c-0.475-0.529-1.018-1.361-1.004-2.096
			c0.005-0.222,0.062-0.566,0.031-0.634L495.977,253.874z"/>
	</g>
	<g>
		<path class="st0" d="M495.216,272.152c-0.085,0.289-0.201,0.573-0.251,0.868c-0.161,0.967-0.206,1.943-0.073,2.917
			c0.097,0.716,0.202,1.446,0.567,2.105c0.135,0.246,0.29,0.492,0.466,0.708l2.23,2.804c0.97,1.279-0.377-0.581,5.424,7.061
			c0.095,0.125,1.083,1.449,1.007,3.009c0.024,0.113-0.039,0.319,0.011,0.426l0.092-0.002c0.067-0.247,0.148-0.493,0.197-0.744
			c0.861-4.41-0.927-6.66-0.927-6.66l-0.228-0.303l-3.141-4.065c-1.126-1.469-2.425-2.929-3.639-4.361
			c-0.274-0.319-0.557-0.63-0.817-0.957c-0.448-0.565-0.947-1.436-0.896-2.169c0.016-0.221,0.091-0.561,0.063-0.631L495.216,272.152
			z"/>
	</g>
	<g>
		<path class="st0" d="M493.235,290.334c-0.094,0.284-0.24,0.557-0.321,0.846c-0.258,0.947-0.401,1.913-0.367,2.889
			c0.024,0.718,0.057,1.45,0.355,2.132c0.111,0.255,0.238,0.51,0.396,0.739l2.076,2.978c0.453,0.66,0.364,0.53,0.837,1.219
			c0.452,0.696,1.583,2.199,4.057,6.234c0.083,0.132,0.941,1.521,0.709,3.064c0.013,0.113-0.07,0.314-0.031,0.424l0.092,0.005
			c0.091-0.241,0.197-0.478,0.271-0.724c0.648-2.15,0.583-3.828,0.354-4.959c-0.239-1.134-0.676-1.731-0.676-1.731l-0.211-0.321
			l-2.915-4.311l-3.254-4.616c-0.242-0.338-0.493-0.668-0.72-1.012c-0.391-0.594-0.801-1.497-0.677-2.221
			c0.044-0.217,0.133-0.552,0.109-0.625L493.235,290.334z"/>
	</g>
	<g>
		<path class="st0" d="M489.748,308.284c-0.128,0.273-0.285,0.536-0.378,0.82c-0.305,0.931-0.495,1.89-0.511,2.872
			c-0.012,0.722-0.017,1.459,0.245,2.166c0.102,0.265,0.204,0.528,0.339,0.766l1.784,3.11c0.766,1.412-0.285-0.633,4.302,7.805
			c0.075,0.138,0.854,1.598,0.544,3.129c0.009,0.116-0.091,0.308-0.065,0.42l0.092,0.012c0.121-0.229,0.228-0.463,0.317-0.703
			c1.512-4.232,0.082-6.728,0.082-6.728l-0.18-0.334l-2.495-4.497c-0.897-1.624-1.928-3.255-2.926-4.858
			c-0.223-0.357-0.456-0.707-0.664-1.07c-0.358-0.625-0.72-1.562-0.559-2.279c0.048-0.217,0.173-0.54,0.156-0.614L489.748,308.284z"
			/>
	</g>
	<g>
		<path class="st0" d="M485.038,325.952c-0.154,0.26-0.338,0.508-0.459,0.782c-0.397,0.897-0.681,1.832-0.794,2.803
			c-0.082,0.714-0.16,1.444,0.033,2.164c0.072,0.269,0.159,0.54,0.282,0.791l1.606,3.26c0.349,0.722,0.28,0.579,0.644,1.334
			c0.182,0.38,0.472,0.985,0.976,2.038c0.46,1.055,1.116,2.559,2.065,4.733c0.061,0.143,0.702,1.647,0.245,3.139
			c-0.005,0.114-0.116,0.299-0.094,0.414l0.09,0.019c0.127-0.224,0.266-0.443,0.376-0.675c0.959-2.03,1.145-3.701,1.085-4.854
			c-0.052-1.152-0.37-1.802-0.37-1.802l-0.161-0.349l-2.237-4.707l-2.526-5.061c-0.188-0.37-0.388-0.735-0.561-1.11
			c-0.297-0.648-0.568-1.603-0.336-2.3c0.069-0.21,0.227-0.521,0.217-0.596L485.038,325.952z"/>
	</g>
	<g>
		<path class="st0" d="M478.866,343.163c-0.167,0.251-0.362,0.488-0.495,0.755c-0.44,0.874-0.769,1.794-0.93,2.765
			c-0.12,0.714-0.225,1.445-0.113,2.167c0.046,0.272,0.108,0.547,0.207,0.804l1.301,3.35c0.548,1.514-0.187-0.669,3.093,8.38
			c0.033,0.138,0.651,1.732,0.028,3.158c-0.015,0.113-0.144,0.287-0.132,0.403l0.088,0.025c0.148-0.212,0.309-0.417,0.44-0.637
			c1.118-1.946,1.347-3.638,1.364-4.798c0.004-1.167-0.258-1.836-0.258-1.836l-0.128-0.358l-1.798-4.83
			c-0.67-1.755-1.345-3.483-2.123-5.233c-0.167-0.387-0.345-0.769-0.496-1.16c-0.261-0.674-0.48-1.656-0.214-2.341
			c0.08-0.206,0.251-0.508,0.246-0.585L478.866,343.163z"/>
	</g>
	<g>
		<path class="st0" d="M471.501,359.899c-0.191,0.234-0.41,0.452-0.569,0.706c-0.524,0.829-0.943,1.712-1.197,2.657
			c-0.187,0.696-0.37,1.406-0.286,2.149c0.032,0.277,0.077,0.559,0.161,0.826l1.105,3.472c0.441,1.555-0.06-0.64,2.387,8.555
			c0.04,0.15,0.451,1.739-0.219,3.148c-0.021,0.112-0.158,0.28-0.154,0.396l0.087,0.032c0.158-0.203,0.327-0.399,0.469-0.613
			c2.495-3.743,1.696-6.482,1.696-6.482l-0.096-0.365c-0.429-1.643-0.978-3.339-1.479-4.98l-1.747-5.396
			c-0.132-0.395-0.275-0.786-0.39-1.185c-0.198-0.686-0.325-1.674,0.006-2.33c0.1-0.198,0.301-0.482,0.302-0.558L471.501,359.899z"
			/>
	</g>
	<g>
		<path class="st0" d="M462.82,375.994c-0.202,0.224-0.428,0.429-0.599,0.674c-0.564,0.8-1.016,1.667-1.33,2.598
			c-0.252,0.671-0.502,1.357-0.485,2.097c0.006,0.276,0.026,0.559,0.087,0.829l0.793,3.517c0.32,1.583-0.087-0.691,1.824,8.772
			c0.038,0.158,0.3,1.754-0.498,3.093c-0.031,0.109-0.184,0.263-0.19,0.379l0.083,0.039c0.177-0.187,0.365-0.367,0.527-0.566
			c1.447-1.723,1.937-3.353,2.112-4.51c0.175-1.156,0.014-1.859,0.014-1.859l-0.074-0.375l-1.066-5.059l-1.266-5.469
			c-0.109-0.409-0.228-0.814-0.32-1.224c-0.158-0.707-0.23-1.713,0.132-2.353c0.109-0.193,0.323-0.466,0.328-0.542L462.82,375.994z"
			/>
	</g>
	<g>
		<path class="st0" d="M452.979,391.406c-0.223,0.204-0.469,0.388-0.664,0.616c-0.637,0.744-1.179,1.558-1.568,2.459
			c-0.285,0.662-0.57,1.339-0.596,2.089c-0.009,0.28-0.006,0.566,0.039,0.844c0.184,1.193,0.409,2.41,0.568,3.598
			c0.181,1.589-0.028-0.689,1.056,8.806c0.017,0.155,0.191,1.791-0.676,3.09c-0.037,0.109-0.197,0.254-0.209,0.371l0.08,0.044
			c0.185-0.178,0.381-0.347,0.552-0.538c3.005-3.342,2.617-6.179,2.617-6.179l-0.041-0.376c-0.207-1.713-0.377-3.383-0.667-5.112
			l-0.935-5.613c-0.072-0.411-0.156-0.822-0.211-1.234c-0.095-0.71-0.076-1.709,0.346-2.311c0.128-0.181,0.367-0.433,0.38-0.508
			L452.979,391.406z"/>
	</g>
	<g>
		<path class="st0" d="M442.006,406.039c-0.232,0.192-0.484,0.362-0.689,0.58c-0.655,0.725-1.285,1.471-1.754,2.328
			c-0.346,0.629-0.692,1.274-0.784,2.011c-0.034,0.275-0.055,0.558-0.035,0.835l0.269,3.609c0.054,0.796,0.043,0.64,0.098,1.471
			c0.024,0.816,0.249,2.697,0.362,7.451c0.005,0.154,0.037,1.783-0.947,2.993c-0.046,0.104-0.22,0.234-0.243,0.348l0.077,0.05
			c0.202-0.16,0.414-0.311,0.602-0.484c3.349-3.014,3.089-5.95,3.089-5.95l-0.019-0.383l-0.314-5.179l-0.447-5.615
			c-0.036-0.412-0.085-0.823-0.104-1.234c-0.022-0.699,0.055-1.708,0.502-2.292c0.136-0.176,0.387-0.415,0.403-0.49L442.006,406.039
			z"/>
	</g>
	<g>
		<path class="st0" d="M429.931,419.775c-0.249,0.17-0.519,0.317-0.744,0.514c-0.737,0.646-1.39,1.374-1.903,2.211
			c-0.378,0.615-0.758,1.246-0.892,1.986c-0.05,0.277-0.088,0.562-0.085,0.844l-0.027,3.594c-0.054,1.604,0.074-0.688-0.246,8.898
			c-0.005,0.157-0.073,1.807-1.117,2.969c-0.052,0.102-0.231,0.224-0.26,0.338l0.072,0.056c0.209-0.15,0.426-0.289,0.623-0.453
			c3.45-2.878,3.482-5.751,3.482-5.751l0.014-0.379l0.128-5.135c0.029-1.873-0.042-3.809-0.081-5.687
			c-0.011-0.42-0.034-0.839-0.028-1.256c0.009-0.719,0.174-1.709,0.678-2.243c0.152-0.161,0.425-0.377,0.447-0.449L429.931,419.775z
			"/>
	</g>
	<g>
		<path class="st0" d="M416.922,432.632c-0.255,0.158-0.547,0.271-0.788,0.448c-0.796,0.573-1.515,1.235-2.104,2.017
			c-0.432,0.574-0.868,1.163-1.066,1.882c-0.074,0.269-0.136,0.547-0.158,0.825l-0.262,3.624c-0.064,0.799-0.051,0.641-0.118,1.475
			c-0.067,0.849-0.183,2.673-0.79,7.383c-0.019,0.154-0.225,1.777-1.372,2.833c-0.061,0.096-0.252,0.2-0.291,0.31l0.069,0.061
			c0.222-0.13,0.453-0.248,0.665-0.393c1.852-1.267,2.855-2.616,3.386-3.641c0.54-1.018,0.585-1.748,0.585-1.748l0.038-0.382
			l0.449-5.188l0.38-5.641c0.024-0.414,0.037-0.829,0.078-1.241c0.07-0.708,0.32-1.67,0.873-2.154
			c0.167-0.146,0.461-0.334,0.484-0.41L416.922,432.632z"/>
	</g>
	<g>
		<path class="st0" d="M402.898,444.375c-0.271,0.132-0.559,0.239-0.809,0.401c-0.821,0.534-1.57,1.162-2.199,1.918
			c-0.462,0.557-0.926,1.132-1.193,1.812c-0.097,0.258-0.183,0.527-0.227,0.8l-0.566,3.551c-0.289,1.584,0.175-0.672-1.552,8.797
			c-0.037,0.142-0.315,1.818-1.572,2.737c-0.069,0.089-0.269,0.175-0.317,0.28l0.064,0.067c0.235-0.109,0.477-0.206,0.701-0.329
			c1.955-1.105,2.998-2.46,3.6-3.45c0.592-1.007,0.703-1.716,0.703-1.716l0.07-0.374l0.882-5.079
			c0.305-1.855,0.595-3.685,0.807-5.588c0.05-0.418,0.09-0.837,0.156-1.252c0.115-0.712,0.422-1.671,0.997-2.128
			c0.173-0.139,0.474-0.312,0.507-0.38L402.898,444.375z"/>
	</g>
	<g>
		<path class="st0" d="M388.092,455.109c-0.284,0.106-0.581,0.185-0.847,0.324c-0.87,0.453-1.676,1.005-2.371,1.694
			c-0.512,0.507-1.028,1.029-1.329,1.713c-0.113,0.256-0.215,0.522-0.277,0.796l-0.794,3.558c-0.398,1.575,0.263-0.596-2.252,8.587
			c-0.041,0.15-0.486,1.73-1.774,2.611c-0.075,0.087-0.278,0.162-0.332,0.266l0.058,0.071c0.239-0.097,0.484-0.18,0.714-0.293
			c4.039-1.98,4.728-4.75,4.728-4.75l0.1-0.363c0.462-1.631,0.845-3.366,1.237-5.041l1.208-5.543
			c0.085-0.408,0.159-0.818,0.26-1.221c0.174-0.692,0.562-1.611,1.178-2.011c0.186-0.121,0.503-0.265,0.542-0.33L388.092,455.109z"
			/>
	</g>
	<g>
		<path class="st0" d="M372.485,464.642c-0.287,0.092-0.585,0.155-0.856,0.28c-0.893,0.403-1.712,0.94-2.462,1.566
			c-0.555,0.454-1.117,0.921-1.475,1.569c-0.133,0.242-0.258,0.495-0.343,0.759l-1.086,3.44c-0.521,1.528,0.274-0.639-2.844,8.499
			c-0.054,0.145-0.627,1.664-1.992,2.415c-0.082,0.079-0.292,0.135-0.355,0.232l0.053,0.076c0.247-0.073,0.501-0.134,0.74-0.224
			c2.118-0.761,3.37-1.908,4.1-2.826c0.734-0.911,0.949-1.6,0.949-1.6l0.125-0.361l1.627-4.91l1.663-5.361l0.343-1.212
			c0.219-0.69,0.664-1.597,1.299-1.968c0.191-0.111,0.514-0.24,0.556-0.303L372.485,464.642z"/>
	</g>
	<g>
		<path class="st0" d="M356.217,472.988c-0.295,0.065-0.601,0.099-0.884,0.198c-0.926,0.321-1.803,0.751-2.592,1.334
			c-0.58,0.428-1.167,0.87-1.567,1.504c-0.15,0.237-0.291,0.487-0.392,0.749c-0.443,1.121-0.861,2.291-1.325,3.392
			c-0.645,1.463,0.325-0.609-3.533,8.133c-0.063,0.143-0.74,1.644-2.143,2.327c-0.087,0.075-0.299,0.121-0.368,0.215l0.047,0.079
			c0.25-0.061,0.504-0.108,0.748-0.186c4.283-1.368,5.379-4.014,5.379-4.014l0.154-0.345c0.685-1.584,1.383-3.107,2.005-4.748
			l2.021-5.32c0.146-0.392,0.28-0.788,0.44-1.172c0.276-0.662,0.796-1.515,1.464-1.822c0.201-0.092,0.536-0.19,0.584-0.248
			L356.217,472.988z"/>
	</g>
	<g>
		<path class="st0" d="M339.365,480.085c-0.296,0.049-0.601,0.068-0.887,0.152c-0.931,0.295-1.847,0.633-2.687,1.128
			c-0.617,0.367-1.241,0.748-1.693,1.337c-0.169,0.221-0.33,0.454-0.453,0.703l-1.591,3.248c-0.754,1.412,0.386-0.535-4.108,7.943
			c-0.075,0.135-0.871,1.555-2.332,2.097c-0.093,0.066-0.309,0.09-0.386,0.177l0.041,0.083c0.255-0.036,0.514-0.058,0.765-0.112
			c2.195-0.479,3.642-1.309,4.492-2.136c0.863-0.796,1.179-1.445,1.179-1.445l0.177-0.339l2.348-4.625l2.45-5.067
			c0.177-0.374,0.343-0.753,0.534-1.117c0.335-0.612,0.905-1.457,1.588-1.73c0.206-0.083,0.543-0.163,0.595-0.22L339.365,480.085z"
			/>
	</g>
	<g>
		<path class="st0" d="M322.011,485.838c-0.301,0.02-0.608,0.009-0.902,0.065c-0.963,0.182-1.894,0.478-2.761,0.937
			c-0.637,0.339-1.285,0.689-1.775,1.258c-0.184,0.213-0.36,0.44-0.5,0.684c-0.601,1.07-1.208,2.096-1.835,3.112
			c-0.859,1.352,0.414-0.555-4.723,7.525c-0.084,0.132-0.98,1.517-2.47,1.985c-0.097,0.061-0.313,0.074-0.395,0.158l0.034,0.085
			c0.256-0.023,0.515-0.031,0.767-0.072c4.438-0.718,5.922-3.173,5.922-3.173l0.204-0.319l2.713-4.352l2.801-4.97
			c0.203-0.366,0.395-0.739,0.611-1.096c0.373-0.614,1.015-1.382,1.72-1.588c0.213-0.061,0.558-0.109,0.614-0.159L322.011,485.838z"
			/>
	</g>
	<g>
		<path class="st0" d="M304.284,490.318c-0.3,0.005-0.604-0.022-0.9,0.019c-0.97,0.124-1.932,0.297-2.833,0.675
			c-0.665,0.272-1.34,0.555-1.875,1.071c-0.2,0.193-0.395,0.399-0.555,0.628l-2.065,2.976c-0.461,0.652-0.369,0.524-0.851,1.206
			c-0.497,0.643-1.504,2.268-4.417,6.008c-0.095,0.123-1.097,1.407-2.622,1.724c-0.102,0.05-0.319,0.043-0.409,0.117l0.028,0.087
			c0.258,0.003,0.517,0.02,0.773,0.004c4.501-0.224,6.151-2.663,6.151-2.663l0.227-0.31l3.02-4.224l3.19-4.648
			c0.232-0.343,0.453-0.693,0.696-1.025c0.419-0.581,1.129-1.246,1.839-1.435c0.216-0.051,0.561-0.081,0.621-0.129L304.284,490.318z
			"/>
	</g>
	<g>
		<path class="st0" d="M286.252,493.351c-0.301-0.026-0.603-0.083-0.901-0.072c-0.979,0.036-1.945,0.189-2.871,0.514
			c-0.681,0.239-1.374,0.488-1.945,0.978c-0.213,0.183-0.422,0.38-0.598,0.6c-0.755,0.972-1.515,1.862-2.286,2.787
			c-1.054,1.207,0.492-0.486-5.805,6.73c-0.102,0.118-1.197,1.353-2.74,1.591c-0.106,0.046-0.321,0.026-0.415,0.096l0.021,0.09
			c0.256,0.016,0.513,0.046,0.769,0.043c4.494-0.043,6.331-2.247,6.331-2.247l0.25-0.284l3.339-3.892
			c1.201-1.473,2.37-2.992,3.523-4.482c0.256-0.332,0.503-0.672,0.77-0.993c0.461-0.551,1.213-1.215,1.941-1.312
			c0.22-0.029,0.568-0.024,0.631-0.065L286.252,493.351z"/>
	</g>
	<g>
		<path class="st0" d="M268.046,495.104c-0.297-0.04-0.593-0.112-0.892-0.116c-0.978-0.024-1.955,0.002-2.904,0.239
			c-0.699,0.169-1.409,0.347-2.016,0.775c-0.227,0.161-0.451,0.336-0.642,0.537l-2.489,2.63c-0.553,0.576-0.444,0.462-1.022,1.064
			c-0.588,0.569-1.828,1.997-5.267,5.29c-0.111,0.107-1.293,1.226-2.849,1.308c-0.109,0.035-0.321-0.006-0.421,0.054l0.014,0.091
			c0.254,0.041,0.508,0.097,0.763,0.121c4.481,0.462,6.478-1.723,6.478-1.723l0.27-0.272l3.62-3.72l3.853-4.114
			c0.28-0.305,0.552-0.618,0.843-0.909c0.502-0.51,1.304-1.061,2.036-1.141c0.221-0.018,0.567,0.005,0.633-0.034L268.046,495.104z"
			/>
	</g>
	<g>
		<path class="st0" d="M249.755,495.398c-0.294-0.07-0.584-0.172-0.881-0.206c-0.974-0.113-1.951-0.107-2.916,0.074
			c-0.71,0.133-1.432,0.276-2.069,0.673c-0.239,0.148-0.475,0.312-0.681,0.503c-0.891,0.837-1.778,1.666-2.677,2.44
			c-1.221,1.034,0.559-0.406-6.741,5.776c-0.119,0.101-1.384,1.156-2.945,1.159c-0.111,0.029-0.321-0.023-0.425,0.032l0.007,0.092
			c0.251,0.054,0.501,0.123,0.754,0.159c4.449,0.636,6.594-1.264,6.594-1.264l0.289-0.243c1.31-1.123,2.607-2.207,3.882-3.361
			l4.151-3.911c0.302-0.29,0.597-0.588,0.91-0.865c0.538-0.476,1.38-1.019,2.116-1.004c0.221,0.005,0.565,0.062,0.633,0.031
			L249.755,495.398z"/>
	</g>
	<g>
		<path class="st0" d="M231.489,494.41c-0.288-0.085-0.57-0.201-0.865-0.25c-0.967-0.139-1.936-0.258-2.909-0.171
			c-0.715,0.061-1.444,0.13-2.107,0.462c-0.248,0.124-0.495,0.263-0.715,0.434l-2.852,2.225c-1.296,0.942,0.581-0.317-7.169,5.351
			c-0.127,0.089-1.464,1.016-3.015,0.863c-0.112,0.018-0.317-0.054-0.424-0.009v0.092c0.246,0.08,0.488,0.173,0.737,0.234
			c2.181,0.536,3.847,0.411,4.974,0.041c1.123-0.338,1.692-0.784,1.692-0.784l0.308-0.228l4.134-3.131l4.422-3.485
			c0.323-0.258,0.638-0.527,0.969-0.771c0.57-0.406,1.45-0.894,2.185-0.852c0.221,0.016,0.559,0.091,0.631,0.062L231.489,494.41z"/>
	</g>
	<g>
		<path class="st0" d="M213.364,491.987c-0.28-0.114-0.551-0.258-0.84-0.337c-0.945-0.258-1.912-0.399-2.893-0.366
			c-0.722,0.024-1.457,0.056-2.146,0.354c-0.258,0.111-0.516,0.237-0.749,0.395c-1.007,0.692-2.008,1.379-3.013,2.01
			c-1.364,0.838,0.614-0.317-7.536,4.696c-0.133,0.083-1.544,0.935-3.089,0.703c-0.114,0.012-0.314-0.071-0.425-0.032l-0.006,0.092
			c0.239,0.091,0.477,0.197,0.722,0.271c4.304,1.299,6.712-0.258,6.712-0.258l0.323-0.197c1.464-0.914,2.91-1.791,4.344-2.739
			l4.692-3.241c0.343-0.241,0.678-0.492,1.029-0.718c0.603-0.389,1.517-0.799,2.241-0.674c0.219,0.038,0.549,0.147,0.622,0.126
			L213.364,491.987z"/>
	</g>
	<g>
		<path class="st0" d="M195.463,488.26c-0.273-0.127-0.534-0.284-0.817-0.377c-0.934-0.285-1.868-0.572-2.847-0.621
			c-0.716-0.046-1.447-0.088-2.154,0.142c-0.264,0.085-0.529,0.186-0.772,0.321l-3.158,1.772c-0.7,0.385-0.562,0.309-1.292,0.711
			c-0.729,0.364-2.342,1.374-6.602,3.475c-0.138,0.069-1.601,0.786-3.112,0.403c-0.114,0.002-0.306-0.101-0.419-0.073l-0.013,0.091
			c0.231,0.115,0.457,0.243,0.694,0.342c4.147,1.767,6.698,0.291,6.698,0.291l0.34-0.179l4.563-2.475l4.9-2.782
			c0.358-0.207,0.711-0.425,1.074-0.617c0.627-0.325,1.564-0.644,2.284-0.499c0.217,0.049,0.54,0.173,0.614,0.156L195.463,488.26z"
			/>
	</g>
	<g>
		<path class="st0" d="M177.92,483.111c-0.259-0.154-0.507-0.337-0.78-0.458c-0.896-0.395-1.831-0.68-2.806-0.793
			c-0.717-0.083-1.449-0.161-2.177,0.029c-0.272,0.072-0.547,0.158-0.801,0.279c-1.102,0.537-2.172,0.999-3.272,1.497
			c-1.476,0.625,0.656-0.222-8.17,3.519c-0.144,0.061-1.67,0.693-3.163,0.235c-0.115-0.005-0.3-0.117-0.416-0.095l-0.02,0.09
			c0.224,0.126,0.442,0.265,0.674,0.374c4.062,1.923,6.682,0.743,6.682,0.743l0.35-0.147l4.709-2.043
			c1.716-0.78,3.438-1.649,5.125-2.48c0.376-0.187,0.746-0.384,1.126-0.555c0.656-0.295,1.622-0.563,2.32-0.332
			c0.21,0.069,0.521,0.226,0.596,0.217L177.92,483.111z"/>
	</g>
	<g>
		<path class="st0" d="M160.784,476.73c-0.25-0.166-0.486-0.356-0.744-0.509c-0.855-0.484-1.757-0.859-2.711-1.066
			c-0.703-0.152-1.42-0.301-2.154-0.179c-0.274,0.046-0.552,0.106-0.814,0.203l-3.395,1.282c-0.751,0.276-0.603,0.222-1.387,0.511
			c-0.789,0.274-2.514,0.985-7.038,2.401c-0.147,0.048-1.705,0.54-3.145-0.061c-0.113-0.015-0.287-0.144-0.403-0.133l-0.027,0.088
			c0.211,0.147,0.415,0.307,0.635,0.439c1.927,1.153,3.571,1.5,4.723,1.553c1.152,0.058,1.842-0.225,1.842-0.225l0.363-0.126
			l4.893-1.768l5.274-2.022c0.386-0.152,0.767-0.315,1.157-0.45c0.672-0.233,1.648-0.41,2.319-0.111
			c0.204,0.087,0.507,0.253,0.583,0.249L160.784,476.73z"/>
	</g>
	<g>
		<path class="st0" d="M144.234,468.955c-0.233-0.191-0.45-0.407-0.703-0.567c-0.828-0.522-1.712-0.941-2.661-1.196
			c-0.696-0.191-1.414-0.367-2.158-0.298c-0.275,0.02-0.555,0.055-0.82,0.128l-3.456,0.973c-1.558,0.401,0.683-0.122-8.628,2.273
			c-0.147,0.03-1.772,0.46-3.156-0.254c-0.11-0.026-0.272-0.172-0.388-0.172l-0.034,0.087c0.197,0.167,0.385,0.347,0.592,0.499
			c3.728,2.507,6.505,1.72,6.505,1.72l0.369-0.093l4.975-1.324c1.799-0.48,3.612-1.041,5.42-1.635
			c0.401-0.128,0.797-0.269,1.201-0.382c0.694-0.194,1.692-0.317,2.348,0.014c0.198,0.1,0.481,0.3,0.558,0.302L144.234,468.955z"/>
	</g>
	<g>
		<path class="st0" d="M128.266,460.043c-0.216-0.213-0.412-0.451-0.648-0.635c-0.775-0.601-1.613-1.103-2.529-1.447
			c-0.674-0.253-1.364-0.504-2.11-0.492c-0.28,0.005-0.564,0.023-0.837,0.081l-3.559,0.768c-1.578,0.273,0.627,0.023-8.748,1.577
			c-0.154,0.025-1.772,0.283-3.11-0.519c-0.109-0.032-0.263-0.185-0.38-0.191l-0.04,0.083c0.187,0.176,0.366,0.364,0.565,0.525
			c3.486,2.843,6.286,2.309,6.286,2.309l0.371-0.061c1.701-0.306,3.421-0.664,5.107-1.014l5.532-1.223
			c0.406-0.093,0.808-0.199,1.215-0.275c0.701-0.131,1.696-0.162,2.317,0.23c0.187,0.119,0.451,0.347,0.526,0.355L128.266,460.043z"
			/>
	</g>
	<g>
		<path class="st0" d="M113.069,449.868c-0.203-0.222-0.386-0.468-0.613-0.662c-0.744-0.637-1.557-1.178-2.462-1.568
			c-0.659-0.294-1.308-0.624-2.048-0.673c-0.276-0.02-0.559-0.027-0.833,0.007l-3.574,0.455c-1.605,0.168,0.696-0.021-8.898,0.982
			c-0.168,0.03-1.791,0.152-3.041-0.776c-0.106-0.041-0.245-0.209-0.36-0.225l-0.046,0.08c0.17,0.194,0.331,0.399,0.514,0.578
			c1.574,1.609,3.174,2.222,4.297,2.518c1.134,0.285,1.848,0.192,1.848,0.192l0.38-0.039l5.134-0.58
			c1.876-0.238,3.709-0.46,5.572-0.755c0.417-0.069,0.831-0.15,1.248-0.202c0.718-0.09,1.726-0.065,2.328,0.357
			c0.181,0.128,0.433,0.366,0.508,0.379L113.069,449.868z"/>
	</g>
	<g>
		<path class="st0" d="M98.647,438.623c-0.182-0.241-0.342-0.504-0.55-0.72c-0.681-0.706-1.438-1.323-2.297-1.795
			c-0.632-0.347-1.279-0.696-2.022-0.792c-0.277-0.036-0.563-0.06-0.843-0.042l-3.645,0.236c-1.598,0.03,0.688,0.038-8.86,0.217
			c-0.157,0.003-1.801,0.02-3.011-0.965c-0.105-0.047-0.234-0.221-0.35-0.244l-0.052,0.076c0.16,0.201,0.31,0.412,0.484,0.601
			c3.041,3.31,5.9,3.192,5.9,3.192l0.377-0.006c1.713-0.032,3.415-0.07,5.16-0.191l5.672-0.399c0.417-0.033,0.832-0.077,1.248-0.094
			c0.715-0.027,1.708,0.087,2.266,0.565c0.168,0.144,0.396,0.406,0.469,0.426L98.647,438.623z"/>
	</g>
	<g>
		<path class="st0" d="M85.117,426.315c-0.169-0.249-0.315-0.517-0.511-0.741c-0.657-0.724-1.364-1.398-2.162-1.957
			c-0.593-0.404-1.202-0.811-1.926-0.971c-0.271-0.06-0.551-0.108-0.829-0.114l-3.616-0.073c-1.597-0.088,0.646,0.124-8.931-0.375
			c-0.154-0.01-1.779-0.132-2.888-1.226c-0.099-0.057-0.212-0.242-0.324-0.275l-0.058,0.072c0.14,0.216,0.27,0.441,0.425,0.645
			c1.364,1.783,2.725,2.746,3.832,3.17c1.085,0.446,1.807,0.458,1.807,0.458l0.382,0.018l5.182,0.178l5.628,0.085
			c0.414,0.003,0.827-0.006,1.238,0.013c0.696,0.046,1.714,0.195,2.243,0.706c0.161,0.152,0.376,0.425,0.449,0.447L85.117,426.315z"
			/>
	</g>
	<g>
		<path class="st0" d="M72.57,413.008c-0.145-0.265-0.265-0.547-0.44-0.789c-0.573-0.796-1.235-1.514-2.019-2.106
			c-0.577-0.435-1.168-0.873-1.892-1.076c-0.27-0.076-0.55-0.141-0.831-0.165c-1.227-0.09-2.384-0.231-3.586-0.356
			c-1.59-0.205,0.678,0.139-8.828-1.086c-0.156-0.02-1.791-0.243-2.848-1.393c-0.097-0.061-0.2-0.251-0.311-0.291l-0.062,0.068
			c0.129,0.221,0.247,0.451,0.392,0.663c2.536,3.71,5.391,4.014,5.391,4.014l0.376,0.05l5.097,0.613
			c1.885,0.186,3.8,0.314,5.678,0.447c0.418,0.029,0.837,0.046,1.252,0.091c0.714,0.077,1.683,0.335,2.168,0.888
			c0.147,0.166,0.335,0.458,0.405,0.488L72.57,413.008z"/>
	</g>
	<g>
		<path class="st0" d="M61,398.842c-0.133-0.269-0.238-0.555-0.384-0.817c-0.495-0.848-1.085-1.626-1.805-2.287
			c-0.53-0.485-1.075-0.975-1.772-1.24c-0.26-0.099-0.53-0.187-0.805-0.235l-3.579-0.604c-0.789-0.139-0.633-0.112-1.457-0.258
			c-0.826-0.157-2.659-0.423-7.284-1.476c-0.151-0.033-1.746-0.393-2.687-1.636c-0.09-0.07-0.176-0.269-0.281-0.318l-0.068,0.062
			c0.108,0.234,0.204,0.475,0.328,0.699c1.084,1.965,2.33,3.093,3.3,3.719c0.957,0.637,1.697,0.739,1.697,0.739l0.377,0.074
			l5.118,0.938l5.576,0.912c0.41,0.064,0.822,0.115,1.227,0.195c0.697,0.137,1.631,0.477,2.06,1.074
			c0.128,0.18,0.309,0.475,0.375,0.51L61,398.842z"/>
	</g>
	<g>
		<path class="st0" d="M50.626,383.781c-0.106-0.282-0.184-0.578-0.322-0.843c-0.452-0.869-1.005-1.675-1.698-2.373
			c-0.502-0.518-1.047-1.023-1.706-1.349c-0.247-0.121-0.507-0.232-0.773-0.302l-3.478-0.9c-1.548-0.438,0.652,0.239-8.602-2.381
			c-0.137-0.05-1.774-0.489-2.591-1.815c-0.083-0.078-0.148-0.285-0.249-0.343l-0.072,0.057c0.085,0.243,0.158,0.493,0.26,0.729
			c1.941,4.054,4.748,4.767,4.748,4.767l0.366,0.105l4.967,1.361c1.801,0.489,3.629,0.93,5.498,1.324
			c0.411,0.091,0.825,0.169,1.23,0.274c0.698,0.183,1.623,0.579,2.023,1.195c0.121,0.186,0.265,0.503,0.33,0.542L50.626,383.781z"/>
	</g>
	<g>
		<path class="st0" d="M41.329,368.034c-0.079-0.292-0.128-0.596-0.24-0.874c-0.367-0.91-0.839-1.765-1.457-2.523
			c-0.455-0.558-0.924-1.123-1.576-1.487c-0.243-0.136-0.499-0.264-0.765-0.351l-3.462-1.13c-1.508-0.555,0.538,0.332-8.345-3.05
			c-0.146-0.055-1.674-0.649-2.425-2.017c-0.079-0.083-0.134-0.292-0.232-0.357l-0.076,0.052c0.072,0.247,0.132,0.499,0.222,0.739
			c1.579,4.212,4.268,5.163,4.268,5.163l0.351,0.135c1.609,0.599,3.287,1.152,4.916,1.701l5.398,1.731
			c0.398,0.124,0.799,0.236,1.189,0.375c0.673,0.239,1.548,0.714,1.887,1.366c0.102,0.196,0.216,0.526,0.276,0.571L41.329,368.034z"
			/>
	</g>
	<g>
		<path class="st0" d="M33.331,351.59c-0.064-0.295-0.098-0.599-0.196-0.88c-0.322-0.925-0.752-1.802-1.336-2.595
			c-0.418-0.588-0.813-1.198-1.427-1.615c-0.228-0.157-0.468-0.305-0.722-0.414l-3.315-1.41c-1.47-0.666,0.61,0.334-8.177-3.645
			c-0.16-0.059-1.635-0.768-2.237-2.204c-0.07-0.09-0.106-0.304-0.196-0.377l-0.08,0.046c0.049,0.254,0.084,0.512,0.15,0.759
			c0.542,2.186,1.629,3.518,2.443,4.344c0.835,0.818,1.498,1.099,1.498,1.099l0.347,0.158l4.724,2.09
			c1.739,0.743,3.435,1.475,5.189,2.161c0.395,0.15,0.793,0.29,1.18,0.455c0.665,0.284,1.523,0.814,1.831,1.482
			c0.092,0.201,0.189,0.534,0.248,0.583L33.331,351.59z"/>
	</g>
	<g>
		<path class="st0" d="M26.555,334.608c-0.035-0.3-0.039-0.608-0.109-0.899c-0.23-0.953-0.571-1.869-1.073-2.71
			c-0.369-0.619-0.75-1.247-1.342-1.705c-0.221-0.172-0.455-0.336-0.706-0.462l-3.264-1.638c-1.425-0.772,0.564,0.386-7.756-4.292
			c-0.136-0.076-1.561-0.894-2.103-2.358c-0.066-0.094-0.09-0.309-0.177-0.387l-0.083,0.039c0.035,0.254,0.058,0.513,0.111,0.763
			c0.941,4.398,3.462,5.743,3.462,5.743l0.328,0.187c1.477,0.844,3.001,1.66,4.563,2.44l5.092,2.522
			c0.376,0.183,0.756,0.354,1.123,0.55c0.631,0.338,1.429,0.937,1.668,1.632c0.072,0.21,0.136,0.551,0.19,0.605L26.555,334.608z"/>
	</g>
	<g>
		<path class="st0" d="M21.115,317.152c-0.02-0.3-0.009-0.605-0.064-0.898c-0.169-0.964-0.51-1.885-0.9-2.774
			c-0.304-0.65-0.621-1.308-1.162-1.814c-0.202-0.189-0.417-0.372-0.653-0.518l-3.071-1.896c-1.353-0.881,0.546,0.425-7.543-4.841
			c-0.128-0.087-1.46-1.016-1.853-2.523c-0.056-0.099-0.059-0.317-0.138-0.402l-0.087,0.033c0.011,0.258,0.007,0.518,0.035,0.773
			c0.218,2.24,1.011,3.737,1.73,4.669c0.705,0.935,1.32,1.312,1.32,1.312l0.32,0.209l4.365,2.781l4.795,2.926l1.071,0.635
			c0.617,0.381,1.389,1.034,1.594,1.74c0.062,0.213,0.109,0.556,0.159,0.613L21.115,317.152z"/>
	</g>
	<g>
		<path class="st0" d="M17.018,299.334c0.01-0.302,0.051-0.607,0.025-0.905c-0.085-0.976-0.286-1.932-0.657-2.841
			c-0.273-0.667-0.556-1.345-1.074-1.888c-0.193-0.202-0.4-0.4-0.629-0.563l-2.973-2.115c-1.258-0.984,0.51,0.465-7.01-5.419
			c-0.123-0.096-1.41-1.12-1.727-2.648c-0.05-0.103-0.043-0.319-0.117-0.41l-0.088,0.026c-0.003,0.258-0.02,0.516-0.005,0.771
			c0.27,4.488,2.563,6.199,2.563,6.199l0.297,0.234c1.357,1.054,2.681,2.101,4.118,3.106l4.662,3.265
			c0.344,0.237,0.696,0.464,1.029,0.713c0.573,0.43,1.274,1.143,1.407,1.866c0.041,0.217,0.053,0.566,0.098,0.626L17.018,299.334z"
			/>
	</g>
	<g>
		<path class="st0" d="M14.275,281.254c0.026-0.299,0.082-0.599,0.071-0.898c-0.037-0.977-0.202-1.942-0.458-2.879
			c-0.203-0.688-0.417-1.388-0.876-1.969c-0.171-0.217-0.357-0.431-0.568-0.611l-2.752-2.338c-1.204-1.075,0.476,0.5-6.729-5.922
			c-0.113-0.106-1.29-1.224-1.451-2.773c-0.04-0.106-0.01-0.321-0.076-0.417l-0.09,0.02c-0.029,0.256-0.072,0.513-0.082,0.769
			c-0.123,2.246,0.436,3.846,1.007,4.874c0.556,1.03,1.108,1.497,1.108,1.497l0.284,0.254l3.898,3.408l4.301,3.616
			c0.318,0.263,0.644,0.517,0.949,0.792c0.551,0.47,1.218,1.232,1.315,1.961c0.029,0.22,0.024,0.566,0.066,0.631L14.275,281.254z"/>
	</g>
	<g>
		<path class="st0" d="M12.919,263.015c0.056-0.297,0.143-0.592,0.161-0.891c0.064-0.978,0.009-1.954-0.221-2.908
			c-0.169-0.701-0.347-1.414-0.777-2.028c-0.161-0.23-0.336-0.457-0.537-0.652l-2.632-2.537c-1.108-1.161,0.431,0.533-6.117-6.405
			c-0.107-0.114-1.225-1.318-1.307-2.876c-0.035-0.109,0.006-0.321-0.054-0.421l-0.091,0.013c-0.042,0.254-0.098,0.507-0.121,0.761
			c-0.41,4.477,1.598,6.511,1.598,6.511l0.258,0.276c1.167,1.245,2.355,2.477,3.62,3.687l4.116,3.928
			c0.305,0.286,0.618,0.563,0.909,0.86c0.503,0.51,1.086,1.322,1.11,2.056c0.007,0.222-0.034,0.568,0.002,0.635L12.919,263.015z"/>
	</g>
	<g>
		<path class="st0" d="M12.919,244.721c0.071-0.292,0.172-0.581,0.206-0.878c0.124-0.971,0.08-1.952-0.049-2.918
			c-0.097-0.711-0.202-1.434-0.568-2.077c-0.137-0.24-0.288-0.479-0.469-0.688l-2.367-2.722c-1.032-1.242,0.404,0.566-5.766-6.858
			c-0.121-0.123-1.113-1.404-1.037-2.96c-0.024-0.111,0.039-0.319-0.011-0.424l-0.093,0.006c-0.067,0.25-0.147,0.497-0.197,0.748
			c-0.467,2.203-0.091,3.873,0.29,4.972c0.395,1.102,0.869,1.645,0.869,1.645l0.243,0.294l3.338,3.949l3.706,4.216l0.848,0.926
			c0.476,0.547,1.018,1.4,1.004,2.136c-0.004,0.221-0.061,0.564-0.03,0.633H12.919z"/>
	</g>
	<g>
		<path class="st0" d="M14.275,226.482c0.1-0.286,0.23-0.565,0.295-0.856c0.21-0.958,0.304-1.931,0.221-2.908
			c-0.061-0.718-0.13-1.449-0.462-2.121c-0.124-0.251-0.263-0.502-0.432-0.725l-2.219-2.9c-0.956-1.319,0.336,0.592-5.1-7.252
			c-0.088-0.128-1.012-1.486-0.858-3.04c-0.018-0.113,0.054-0.317,0.01-0.425l-0.092-0.002c-0.08,0.245-0.173,0.487-0.234,0.735
			c-1.082,4.366,0.596,6.678,0.596,6.678l0.213,0.31c0.956,1.405,1.983,2.807,3.04,4.19l3.476,4.496
			c0.258,0.328,0.525,0.65,0.769,0.986c0.42,0.58,0.874,1.468,0.786,2.198c-0.026,0.22-0.118,0.556-0.094,0.627L14.275,226.482z"/>
	</g>
	<g>
		<path class="st0" d="M17.019,208.402c0.114-0.278,0.258-0.548,0.336-0.836c0.269-0.941,0.373-1.917,0.392-2.891
			c0.011-0.717,0.015-1.447-0.25-2.139c-0.098-0.258-0.213-0.517-0.36-0.751l-1.931-3.047c-0.833-1.384,0.314,0.622-4.669-7.652
			c-0.087-0.137-0.87-1.552-0.566-3.081c-0.007-0.113,0.086-0.31,0.052-0.421l-0.092-0.008c-0.103,0.236-0.221,0.469-0.306,0.71
			c-0.789,2.109-0.702,3.81-0.477,4.958c0.225,1.149,0.612,1.757,0.612,1.757l0.195,0.328l2.706,4.408l3.029,4.726l0.7,1.042
			c0.388,0.612,0.796,1.537,0.671,2.262c-0.038,0.218-0.146,0.547-0.125,0.622L17.019,208.402z"/>
	</g>
	<g>
		<path class="st0" d="M21.116,190.584c0.142-0.267,0.312-0.523,0.419-0.802c0.352-0.915,0.589-1.863,0.654-2.841
			c0.047-0.719,0.089-1.453-0.139-2.167c-0.084-0.267-0.184-0.536-0.319-0.782l-1.753-3.203c-0.7-1.436,0.255,0.641-3.933-7.94
			c-0.069-0.14-0.778-1.624-0.394-3.138c-0.002-0.115,0.101-0.305,0.073-0.42l-0.091-0.015c-0.115,0.23-0.243,0.455-0.341,0.692
			c-1.72,4.155-0.407,6.697-0.407,6.697l0.164,0.34c0.755,1.54,1.5,3.065,2.35,4.596l2.762,4.974
			c0.206,0.364,0.421,0.722,0.612,1.091c0.328,0.637,0.644,1.584,0.448,2.292c-0.059,0.213-0.201,0.532-0.187,0.607L21.116,190.584z
			"/>
	</g>
	<g>
		<path class="st0" d="M26.556,173.128c0.154-0.258,0.336-0.503,0.457-0.776c0.384-0.899,0.679-1.83,0.855-2.786
			c0.117-0.708,0.23-1.431,0.072-2.155c-0.06-0.27-0.134-0.544-0.245-0.799l-1.454-3.308c-0.599-1.488,0.176,0.646-3.432-8.263
			c-0.055-0.144-0.626-1.668-0.098-3.134c0.01-0.113,0.131-0.294,0.113-0.409l-0.089-0.022c-0.138,0.218-0.288,0.43-0.408,0.656
			c-1.063,1.98-1.33,3.635-1.253,4.816c0.05,1.171,0.343,1.831,0.343,1.831l0.145,0.354l2.017,4.773l2.29,5.138
			c0.171,0.377,0.353,0.747,0.508,1.128c0.269,0.656,0.551,1.638,0.314,2.334c-0.069,0.211-0.226,0.52-0.216,0.596L26.556,173.128z"
			/>
	</g>
	<g>
		<path class="st0" d="M33.333,156.147c0.179-0.243,0.385-0.471,0.533-0.731c0.482-0.853,0.857-1.756,1.065-2.715
			c0.153-0.705,0.302-1.426,0.184-2.167c-0.044-0.277-0.103-0.559-0.199-0.823c-0.429-1.148-0.836-2.281-1.204-3.411
			c-0.48-1.528,0.158,0.674-2.712-8.46c-0.046-0.15-0.529-1.727,0.074-3.167c0.016-0.114,0.144-0.288,0.134-0.405l-0.087-0.028
			c-0.147,0.21-0.306,0.414-0.438,0.633c-2.31,3.856-1.39,6.573-1.39,6.573l0.113,0.362c0.525,1.643,1.031,3.264,1.587,4.882
			l1.991,5.343c0.15,0.391,0.31,0.778,0.443,1.173c0.229,0.68,0.402,1.667,0.103,2.338c-0.09,0.202-0.276,0.496-0.274,0.572
			L33.333,156.147z"/>
	</g>
	<g>
		<path class="st0" d="M41.331,139.703c0.191-0.232,0.406-0.447,0.565-0.7c0.543-0.816,1.019-1.668,1.313-2.601
			c0.219-0.685,0.436-1.383,0.386-2.125c-0.019-0.277-0.051-0.559-0.124-0.829l-0.949-3.498c-0.203-0.774-0.163-0.621-0.376-1.428
			c-0.178-0.799-0.764-2.611-1.736-7.241c-0.033-0.151-0.373-1.747,0.362-3.122c0.027-0.111,0.172-0.272,0.173-0.388l-0.086-0.035
			c-0.167,0.196-0.346,0.384-0.498,0.591c-1.334,1.806-1.837,3.408-2.002,4.549c-0.125,1.166,0.068,1.866,0.068,1.866l0.091,0.373
			l1.29,5.034l1.505,5.437c0.114,0.398,0.239,0.793,0.336,1.194c0.177,0.696,0.227,1.666-0.091,2.329
			c-0.1,0.199-0.3,0.481-0.302,0.558L41.331,139.703z"/>
	</g>
	<g>
		<path class="st0" d="M50.629,123.956c0.212-0.213,0.449-0.409,0.633-0.645c0.6-0.774,1.102-1.612,1.447-2.533
			c0.254-0.677,0.507-1.368,0.499-2.121c-0.006-0.284-0.017-0.567-0.062-0.837l-0.638-3.53c-0.25-1.587,0.057,0.691-1.439-8.797
			c-0.023-0.154-0.273-1.794,0.54-3.127c0.036-0.107,0.197-0.254,0.207-0.369l-0.083-0.042c-0.184,0.18-0.387,0.347-0.544,0.549
			c-2.841,3.479-2.329,6.311-2.329,6.311l0.058,0.376l0.844,5.074c0.302,1.832,0.725,3.715,1.126,5.559
			c0.09,0.41,0.191,0.818,0.265,1.23c0.126,0.709,0.152,1.713-0.24,2.334c-0.118,0.187-0.346,0.451-0.354,0.526L50.629,123.956z"/>
	</g>
	<g>
		<path class="st0" d="M61.004,108.895c0.232-0.194,0.488-0.366,0.694-0.585c0.673-0.714,1.253-1.5,1.683-2.379
			c0.317-0.647,0.633-1.308,0.691-2.052c0.022-0.278,0.031-0.563-0.001-0.841l-0.425-3.613c-0.088-0.797-0.071-0.64-0.162-1.473
			c-0.104-0.855-0.282-2.628-0.592-7.389c-0.011-0.155-0.113-1.79,0.813-3.045c0.042-0.106,0.209-0.244,0.226-0.36l-0.079-0.048
			c-0.194,0.169-0.398,0.33-0.577,0.512c-3.163,3.198-2.897,6.035-2.897,6.035l0.026,0.376l0.537,5.186l0.691,5.619
			c0.054,0.412,0.121,0.823,0.158,1.235c0.064,0.71,0.001,1.702-0.451,2.283c-0.135,0.176-0.388,0.416-0.403,0.49L61.004,108.895z"
			/>
	</g>
	<g>
		<path class="st0" d="M72.574,94.729c0.24-0.181,0.503-0.34,0.718-0.547c0.704-0.68,1.321-1.438,1.796-2.301
			c0.337-0.645,0.734-1.252,0.852-1.985c0.046-0.273,0.08-0.553,0.072-0.829l-0.114-3.599c-0.015-1.612-0.045,0.694-0.135-8.945
			c-0.011-0.168-0.003-1.817,1.049-2.963c0.052-0.101,0.232-0.223,0.258-0.336l-0.075-0.054c-0.21,0.151-0.429,0.292-0.625,0.456
			c-1.754,1.412-2.493,2.97-2.904,4.049c-0.392,1.101-0.366,1.82-0.366,1.82l0.002,0.381l0.092,5.161
			c0.064,1.895,0.094,3.723,0.236,5.627c0.029,0.421,0.07,0.841,0.083,1.26c0.021,0.722-0.099,1.723-0.577,2.281
			c-0.144,0.169-0.406,0.396-0.425,0.47L72.574,94.729z"/>
	</g>
	<g>
		<path class="st0" d="M85.121,81.423c0.258-0.158,0.535-0.292,0.769-0.479c0.768-0.61,1.454-1.306,2.006-2.116
			c0.406-0.596,0.815-1.206,0.981-1.936c0.061-0.273,0.112-0.555,0.121-0.835l0.108-3.65c0.102-1.612-0.108,0.676,0.612-8.845
			c0.012-0.156,0.15-1.794,1.247-2.904c0.057-0.099,0.241-0.212,0.275-0.325l-0.07-0.058c-0.216,0.14-0.44,0.269-0.644,0.424
			c-3.586,2.712-3.739,5.568-3.739,5.568l-0.03,0.376c-0.139,1.698-0.24,3.419-0.287,5.164l-0.139,5.68
			c-0.007,0.418-0.002,0.835-0.025,1.25c-0.04,0.714-0.247,1.69-0.777,2.201c-0.159,0.154-0.443,0.357-0.469,0.428L85.121,81.423z"
			/>
	</g>
	<g>
		<path class="st0" d="M98.651,69.115c0.264-0.145,0.545-0.264,0.787-0.439c0.791-0.575,1.508-1.241,2.143-1.977
			c0.459-0.551,0.922-1.119,1.15-1.824c0.085-0.264,0.159-0.537,0.192-0.813l0.415-3.591c0.234-1.587-0.175,0.644,1.208-8.864
			c0.024-0.152,0.299-1.757,1.494-2.756c0.066-0.093,0.261-0.187,0.305-0.296l-0.067-0.064c-0.228,0.119-0.465,0.227-0.683,0.362
			c-1.914,1.175-2.982,2.466-3.51,3.525c-0.547,1.037-0.628,1.754-0.628,1.754l-0.054,0.379l-0.667,5.138l-0.617,5.591
			c-0.042,0.41-0.072,0.823-0.131,1.23c-0.091,0.713-0.351,1.694-0.905,2.178c-0.167,0.146-0.458,0.334-0.488,0.404L98.651,69.115z"
			/>
	</g>
	<g>
		<path class="st0" d="M113.073,57.871c0.277-0.12,0.57-0.213,0.829-0.363c0.846-0.494,1.625-1.085,2.288-1.809
			c0.488-0.532,0.98-1.078,1.251-1.779c0.102-0.262,0.192-0.534,0.243-0.811c0.207-1.208,0.436-2.378,0.684-3.547
			c0.355-1.563-0.202,0.661,1.919-8.679c0.035-0.152,0.413-1.758,1.658-2.7c0.071-0.09,0.27-0.175,0.32-0.282l-0.061-0.069
			c-0.233,0.108-0.474,0.203-0.698,0.327c-3.936,2.169-4.509,4.981-4.509,4.981l-0.085,0.369l-1.093,5.012l-0.974,5.619
			c-0.068,0.414-0.124,0.829-0.208,1.238c-0.145,0.703-0.493,1.642-1.089,2.072c-0.18,0.13-0.489,0.289-0.525,0.356L113.073,57.871z
			"/>
	</g>
	<g>
		<path class="st0" d="M128.271,47.696c0.28-0.106,0.576-0.183,0.84-0.321c0.891-0.413,1.723-0.923,2.449-1.578
			c0.534-0.481,1.074-0.976,1.404-1.642c0.124-0.25,0.237-0.51,0.31-0.779l0.941-3.502c0.214-0.771,0.172-0.619,0.395-1.424
			c0.243-0.789,0.66-2.629,2.152-7.123c0.047-0.147,0.557-1.698,1.885-2.515c0.079-0.083,0.285-0.149,0.344-0.25l-0.056-0.073
			c-0.243,0.085-0.492,0.158-0.727,0.259c-2.062,0.889-3.304,2.021-4.021,2.924c-0.706,0.926-0.886,1.638-0.886,1.638l-0.109,0.368
			l-1.42,5.001l-1.438,5.457c-0.102,0.403-0.193,0.807-0.31,1.202c-0.2,0.686-0.637,1.564-1.258,1.958
			c-0.186,0.121-0.501,0.265-0.541,0.33L128.271,47.696z"/>
	</g>
	<g>
		<path class="st0" d="M144.239,38.785c0.291-0.078,0.593-0.128,0.87-0.239c0.908-0.366,1.764-0.839,2.525-1.46
			c0.56-0.457,1.127-0.927,1.499-1.583c0.137-0.248,0.277-0.484,0.371-0.747l1.228-3.371c0.584-1.497-0.3,0.626,3.192-8.325
			c0.059-0.143,0.668-1.69,2.044-2.428c0.085-0.075,0.298-0.12,0.366-0.214l-0.05-0.078c-0.25,0.065-0.51,0.102-0.748,0.197
			c-4.208,1.575-5.195,4.279-5.195,4.279l-0.139,0.354l-1.829,4.808c-0.662,1.736-1.253,3.561-1.831,5.364
			c-0.129,0.4-0.247,0.804-0.39,1.197c-0.248,0.677-0.731,1.557-1.383,1.897c-0.196,0.102-0.525,0.216-0.57,0.276L144.239,38.785z"
			/>
	</g>
	<g>
		<path class="st0" d="M160.79,31.01c0.299-0.05,0.607-0.069,0.893-0.154c0.942-0.276,1.839-0.662,2.654-1.204
			c0.599-0.399,1.206-0.81,1.631-1.423c0.159-0.229,0.31-0.47,0.423-0.726l1.456-3.333c0.327-0.733,0.262-0.588,0.604-1.354
			c0.343-0.79,1.078-2.422,3.221-6.678c0.069-0.139,0.806-1.601,2.24-2.214c0.091-0.071,0.304-0.106,0.377-0.196l-0.043-0.081
			c-0.253,0.048-0.51,0.083-0.758,0.149c-4.348,1.159-5.552,3.739-5.552,3.739l-0.165,0.343l-2.154,4.748l-2.24,5.198
			c-0.161,0.384-0.312,0.771-0.488,1.146c-0.302,0.644-0.858,1.469-1.54,1.743c-0.206,0.082-0.545,0.163-0.596,0.219L160.79,31.01z"
			/>
	</g>
	<g>
		<path class="st0" d="M177.925,24.629c0.299-0.035,0.606-0.039,0.896-0.109c0.952-0.23,1.867-0.572,2.713-1.075
			c0.618-0.382,1.256-0.741,1.733-1.297c0.178-0.211,0.349-0.436,0.482-0.677l1.722-3.156c0.803-1.397-0.391,0.574,4.412-7.772
			c0.083-0.12,0.907-1.61,2.399-2.05c0.096-0.061,0.313-0.075,0.394-0.158l-0.038-0.084c-0.258,0.024-0.518,0.033-0.771,0.075
			c-2.213,0.385-3.65,1.313-4.549,2.045c-0.895,0.751-1.238,1.382-1.238,1.382l-0.191,0.329l-2.534,4.491
			c-0.905,1.658-1.801,3.257-2.637,4.985c-0.187,0.377-0.365,0.76-0.566,1.128c-0.347,0.634-0.956,1.435-1.651,1.676
			c-0.21,0.072-0.551,0.136-0.605,0.19L177.925,24.629z"/>
	</g>
	<g>
		<path class="st0" d="M195.468,19.48c0.303-0.005,0.611,0.021,0.907-0.02c0.971-0.134,1.916-0.383,2.803-0.798
			c0.652-0.305,1.314-0.622,1.828-1.166c0.191-0.202,0.377-0.419,0.528-0.655l1.943-3.083c0.907-1.332-0.454,0.446,5.004-7.336
			c0.089-0.128,1.04-1.464,2.55-1.857c0.099-0.056,0.316-0.058,0.403-0.138l-0.032-0.087c-0.257,0.01-0.517,0.006-0.771,0.035
			c-4.471,0.497-6.051,2.871-6.051,2.871l-0.217,0.307c-0.978,1.399-1.923,2.904-2.855,4.347l-3,4.813
			c-0.217,0.355-0.425,0.717-0.655,1.061c-0.396,0.594-1.071,1.327-1.785,1.497c-0.216,0.051-0.563,0.081-0.622,0.128L195.468,19.48
			z"/>
	</g>
	<g>
		<path class="st0" d="M213.37,15.754c0.301,0.011,0.604,0.052,0.901,0.026c0.975-0.085,1.932-0.287,2.843-0.659
			c0.67-0.28,1.361-0.498,1.915-0.995c0.207-0.182,0.41-0.378,0.578-0.598l2.18-2.863c1.006-1.26-0.473,0.51,5.537-7.024
			c0.099-0.12,1.141-1.438,2.682-1.653c0.104-0.046,0.321-0.026,0.413-0.096l-0.025-0.09c-0.257-0.015-0.516-0.045-0.772-0.042
			c-2.248,0.017-3.807,0.743-4.807,1.324c-0.998,0.608-1.432,1.182-1.432,1.182l-0.239,0.297l-3.185,4.062
			c-1.145,1.507-2.273,2.954-3.365,4.507c-0.243,0.345-0.476,0.697-0.73,1.032c-0.439,0.575-1.163,1.277-1.885,1.411
			c-0.218,0.041-0.565,0.053-0.626,0.098L213.37,15.754z"/>
	</g>
	<g>
		<path class="st0" d="M231.495,13.332c0.3,0.04,0.599,0.112,0.899,0.117c0.982,0.013,1.953-0.091,2.893-0.368
			c0.691-0.203,1.393-0.418,1.983-0.878c0.22-0.172,0.437-0.358,0.621-0.57l2.386-2.756c1.097-1.18-0.514,0.372,6.051-6.498
			c0.107-0.113,1.247-1.29,2.798-1.45c0.107-0.041,0.321-0.01,0.419-0.076l-0.018-0.091c-0.256-0.028-0.511-0.071-0.767-0.082
			c-4.492-0.183-6.412,1.924-6.412,1.924l-0.26,0.271c-1.178,1.235-2.338,2.581-3.477,3.868l-3.692,4.307
			c-0.269,0.318-0.529,0.645-0.808,0.951c-0.482,0.527-1.259,1.152-1.991,1.212c-0.221,0.018-0.569-0.005-0.633,0.034
			L231.495,13.332z"/>
	</g>
	<g>
		<path class="st0" d="M249.761,12.343c0.295,0.056,0.589,0.143,0.888,0.161c0.977,0.063,1.954,0.008,2.911-0.222
			c0.704-0.184,1.42-0.313,2.043-0.712c0.232-0.148,0.462-0.312,0.662-0.503l2.585-2.501c1.182-1.094-0.543,0.432,6.522-6.108
			c0.115-0.087,1.343-1.269,2.899-1.259c0.109-0.03,0.321,0.022,0.422-0.033l-0.011-0.092c-0.252-0.054-0.504-0.122-0.758-0.158
			c-4.468-0.468-6.541,1.565-6.541,1.565l-0.28,0.258l-3.754,3.535c-1.358,1.325-2.69,2.559-4.002,3.965
			c-0.291,0.305-0.575,0.618-0.877,0.91c-0.52,0.502-1.342,1.087-2.076,1.111c-0.221,0.007-0.566-0.033-0.634,0.002L249.761,12.343z
			"/>
	</g>
	<g>
		<path class="st0" d="M268.051,12.638c0.291,0.086,0.577,0.202,0.872,0.251c0.967,0.162,1.944,0.206,2.914,0.075
			c0.714-0.098,1.439-0.202,2.091-0.568c0.243-0.137,0.486-0.288,0.699-0.469l2.77-2.364c0.614-0.517,0.493-0.414,1.136-0.955
			c0.655-0.565,2.028-1.687,5.817-4.586c0.123-0.095,1.426-1.087,2.984-1.011c0.112-0.024,0.319,0.039,0.425-0.012l-0.004-0.092
			c-0.248-0.067-0.495-0.147-0.746-0.197c-4.416-0.859-6.628,0.934-6.628,0.934l-0.298,0.228l-4.016,3.329l-4.292,3.701
			c-0.314,0.274-0.618,0.558-0.941,0.818c-0.555,0.448-1.416,0.948-2.15,0.896c-0.221-0.015-0.561-0.091-0.631-0.062L268.051,12.638
			z"/>
	</g>
	<g>
		<path class="st0" d="M286.257,14.392c0.284,0.1,0.561,0.23,0.853,0.294c0.956,0.21,1.929,0.303,2.91,0.221
			c0.722-0.07,1.455-0.127,2.127-0.414c0.252-0.113,0.504-0.239,0.729-0.399l2.93-2.084c1.333-0.903-0.603,0.346,7.365-5.054
			c0.127-0.069,1.52-1.052,3.056-0.807c0.113-0.013,0.314,0.07,0.423,0.031l0.002-0.093c-0.241-0.091-0.48-0.197-0.725-0.271
			c-4.349-1.136-6.705,0.561-6.705,0.561l-0.316,0.213l-4.242,2.928c-1.538,1.089-3.045,2.146-4.552,3.334
			c-0.334,0.257-0.66,0.524-1.002,0.767c-0.589,0.418-1.488,0.872-2.218,0.785c-0.22-0.027-0.555-0.119-0.627-0.095L286.257,14.392z
			"/>
	</g>
	<g>
		<path class="st0" d="M304.29,17.424c0.274,0.128,0.539,0.287,0.823,0.38c0.932,0.306,1.89,0.496,2.869,0.511
			c0.719,0.012,1.453,0.017,2.152-0.247c0.262-0.098,0.523-0.212,0.762-0.358l3.095-1.921c1.394-0.787-0.599,0.186,7.71-4.418
			c0.136-0.075,1.575-0.86,3.104-0.552c0.114-0.006,0.31,0.086,0.422,0.053l0.009-0.091c-0.236-0.104-0.467-0.221-0.708-0.306
			c-4.238-1.512-6.697-0.071-6.697-0.071l-0.329,0.182c-1.498,0.857-3,1.775-4.471,2.67l-4.801,3.013
			c-0.351,0.224-0.695,0.458-1.052,0.667c-0.616,0.359-1.543,0.724-2.26,0.563c-0.216-0.049-0.541-0.174-0.614-0.157L304.29,17.424z
			"/>
	</g>
	<g>
		<path class="st0" d="M322.017,21.905c0.265,0.141,0.52,0.311,0.799,0.418c0.914,0.35,1.862,0.588,2.844,0.653
			c0.728,0.031,1.442,0.143,2.158-0.063c0.266-0.073,0.535-0.161,0.781-0.284l3.214-1.622c1.456-0.693-0.649,0.251,8.054-3.895
			c0.144-0.074,1.65-0.781,3.132-0.303c0.113,0.004,0.3,0.116,0.414,0.093l0.017-0.091c-0.225-0.127-0.445-0.266-0.677-0.376
			c-2.023-0.986-3.746-1.002-4.899-0.92c-1.164,0.109-1.806,0.436-1.806,0.436l-0.345,0.162l-4.641,2.26
			c-1.69,0.856-3.335,1.657-5,2.585c-0.369,0.205-0.733,0.419-1.108,0.608c-0.646,0.325-1.604,0.64-2.312,0.443
			c-0.213-0.059-0.531-0.2-0.606-0.187L322.017,21.905z"/>
	</g>
	<g>
		<path class="st0" d="M339.371,27.658c0.251,0.168,0.49,0.363,0.757,0.497c0.877,0.44,1.796,0.77,2.762,0.931
			c0.711,0.118,1.436,0.232,2.168,0.076c0.274-0.058,0.551-0.132,0.808-0.241l3.354-1.437c1.513-0.602-0.65,0.165,8.284-3.174
			c0.147-0.054,1.69-0.616,3.157-0.086c0.114,0.01,0.294,0.131,0.41,0.114l0.024-0.089c-0.217-0.137-0.429-0.287-0.655-0.407
			c-3.967-2.12-6.62-1.06-6.62-1.06l-0.353,0.131c-1.595,0.581-3.215,1.251-4.811,1.927l-5.209,2.262
			c-0.381,0.169-0.758,0.35-1.143,0.503c-0.665,0.264-1.637,0.486-2.322,0.221c-0.207-0.08-0.51-0.252-0.584-0.246L339.371,27.658z"
			/>
	</g>
	<g>
		<path class="st0" d="M356.222,34.755c0.242,0.179,0.468,0.384,0.728,0.531c0.845,0.495,1.769,0.827,2.704,1.095
			c0.693,0.185,1.401,0.368,2.136,0.28c0.275-0.033,0.555-0.08,0.818-0.166l3.429-1.127c1.544-0.463-0.673,0.139,8.559-2.643
			c0.148-0.041,1.718-0.463,3.125,0.206c0.113,0.02,0.28,0.158,0.396,0.152l0.031-0.087c-0.204-0.158-0.401-0.328-0.614-0.47
			c-0.935-0.621-1.806-1.043-2.592-1.311c-0.801-0.241-1.507-0.345-2.091-0.377c-1.17-0.064-1.854,0.164-1.854,0.164l-0.366,0.109
			l-4.938,1.546l-5.327,1.782l-1.179,0.417c-0.688,0.225-1.685,0.394-2.357,0.095c-0.202-0.09-0.495-0.276-0.571-0.273
			L356.222,34.755z"/>
	</g>
	<g>
		<path class="st0" d="M372.489,43.102c0.225,0.202,0.432,0.43,0.677,0.602c0.803,0.562,1.664,1.023,2.598,1.323
			c0.687,0.221,1.389,0.44,2.138,0.393c0.28-0.018,0.565-0.049,0.837-0.12c1.171-0.297,2.365-0.64,3.521-0.892
			c1.565-0.331-0.685,0.093,8.672-1.889c0.153-0.032,1.767-0.361,3.143,0.377c0.111,0.027,0.272,0.173,0.389,0.173l0.037-0.084
			c-0.195-0.167-0.383-0.346-0.588-0.498c-3.615-2.672-6.404-2.015-6.404-2.015l-0.37,0.077c-1.69,0.374-3.332,0.692-5.02,1.134
			l-5.503,1.467c-0.403,0.111-0.803,0.234-1.209,0.328c-0.698,0.163-1.695,0.239-2.335-0.123c-0.193-0.109-0.467-0.324-0.543-0.328
			L372.489,43.102z"/>
	</g>
	<g>
		<path class="st0" d="M388.097,52.636c0.214,0.212,0.406,0.447,0.643,0.63c0.784,0.581,1.569,1.165,2.474,1.538
			c0.66,0.284,1.335,0.568,2.078,0.588c0.277,0.008,0.561,0.002,0.836-0.044l3.57-0.61c0.788-0.129,0.633-0.103,1.457-0.238
			c0.806-0.095,2.673-0.518,7.378-1.054c0.154-0.019,1.774-0.206,3.071,0.659c0.108,0.036,0.254,0.197,0.37,0.208l0.043-0.082
			c-0.179-0.185-0.349-0.381-0.54-0.552c-1.676-1.494-3.205-2.169-4.347-2.413c-1.15-0.233-1.863-0.109-1.863-0.109l-0.38,0.055
			l-5.13,0.803l-5.55,0.979c-0.407,0.075-0.812,0.162-1.22,0.221c-0.7,0.096-1.69,0.083-2.32-0.296
			c-0.188-0.118-0.451-0.345-0.526-0.354L388.097,52.636z"/>
	</g>
	<g>
		<path class="st0" d="M402.902,63.37c0.193,0.232,0.365,0.487,0.582,0.692c0.713,0.672,1.5,1.252,2.382,1.684
			c0.649,0.317,1.313,0.636,2.063,0.699c0.28,0.024,0.568,0.035,0.849,0.005l3.573-0.302c1.602-0.098-0.693-0.009,8.887-0.598
			c0.156-0.009,1.807-0.098,3.063,0.83c0.108,0.042,0.244,0.21,0.356,0.233l0.05-0.078c-0.16-0.204-0.326-0.399-0.506-0.582
			c-3.193-3.16-6.059-2.92-6.059-2.92l-0.379,0.022l-5.127,0.358c-1.849,0.124-3.785,0.395-5.647,0.607
			c-0.417,0.05-0.833,0.113-1.249,0.147c-0.718,0.058-1.719-0.011-2.299-0.462c-0.176-0.136-0.416-0.387-0.49-0.403L402.902,63.37z"
			/>
	</g>
	<g>
		<path class="st0" d="M416.926,75.114c0.171,0.25,0.319,0.521,0.516,0.746c0.647,0.739,1.374,1.391,2.208,1.903
			c0.613,0.376,1.241,0.754,1.976,0.882c0.275,0.048,0.558,0.084,0.837,0.079l3.635-0.082c0.801-0.012,0.644-0.009,1.481-0.021
			c0.859-0.02,2.662-0.054,7.418,0.099c0.155,0.003,1.791,0.055,2.952,1.097c0.102,0.052,0.223,0.231,0.336,0.259l0.055-0.074
			c-0.15-0.209-0.291-0.427-0.455-0.624c-2.885-3.452-5.733-3.453-5.733-3.453l-0.384-0.002l-5.21,0.044l-5.656,0.155
			c-0.415,0.015-0.83,0.042-1.244,0.04c-0.712-0.004-1.694-0.161-2.229-0.665c-0.161-0.153-0.377-0.426-0.449-0.449L416.926,75.114z
			"/>
	</g>
	<g>
		<path class="st0" d="M429.935,87.971c0.158,0.257,0.291,0.533,0.477,0.766c0.61,0.766,1.306,1.453,2.119,2.007
			c0.607,0.399,1.197,0.829,1.906,1.026c0.266,0.072,0.542,0.132,0.818,0.15l3.591,0.226c1.605,0.138-0.685-0.11,8.912,0.711
			c0.158,0.013,1.824,0.156,2.861,1.316c0.096,0.061,0.201,0.251,0.31,0.289l0.061-0.07c-0.131-0.222-0.25-0.454-0.395-0.666
			c-1.259-1.863-2.728-2.756-3.765-3.266c-1.059-0.493-1.776-0.536-1.776-0.536l-0.38-0.034l-5.144-0.397
			c-1.888-0.117-3.713-0.258-5.632-0.286c-0.421-0.011-0.843-0.01-1.261-0.037c-0.721-0.047-1.705-0.262-2.215-0.791
			c-0.154-0.159-0.356-0.442-0.428-0.469L429.935,87.971z"/>
	</g>
	<g>
		<path class="st0" d="M442.01,101.708c0.133,0.272,0.24,0.56,0.403,0.811c0.534,0.822,1.161,1.572,1.915,2.199
			c0.554,0.46,1.123,0.925,1.833,1.16c0.265,0.087,0.541,0.165,0.819,0.2l3.62,0.452c1.61,0.243-0.648-0.182,8.754,1.438
			c0.154,0.027,1.77,0.319,2.77,1.516c0.094,0.066,0.188,0.261,0.297,0.306l0.065-0.065c-0.119-0.228-0.227-0.464-0.361-0.681
			c-2.358-3.829-5.184-4.251-5.184-4.251l-0.371-0.065c-1.672-0.302-3.404-0.544-5.123-0.764l-5.638-0.677
			c-0.414-0.046-0.83-0.08-1.241-0.143c-0.707-0.108-1.658-0.407-2.116-0.982c-0.139-0.173-0.313-0.475-0.38-0.507L442.01,101.708z"
			/>
	</g>
	<g>
		<path class="st0" d="M452.982,116.341c0.119,0.276,0.211,0.567,0.362,0.825c0.484,0.852,1.11,1.607,1.778,2.313
			c0.505,0.509,1.025,1.023,1.705,1.318c0.254,0.11,0.519,0.21,0.79,0.269l3.531,0.753c1.564,0.38-0.641-0.225,8.719,2.033
			c0.15,0.039,1.719,0.466,2.599,1.751c0.087,0.074,0.162,0.277,0.265,0.331l0.07-0.06c-0.097-0.239-0.181-0.484-0.294-0.714
			c-0.971-2.028-2.189-3.192-3.189-3.821c-0.979-0.644-1.685-0.792-1.685-0.792l-0.372-0.09l-5.048-1.152l-5.502-1.144l-1.222-0.239
			c-0.708-0.152-1.654-0.509-2.084-1.105c-0.129-0.18-0.288-0.488-0.355-0.525L452.982,116.341z"/>
	</g>
	<g>
		<path class="st0" d="M462.822,131.753c0.093,0.288,0.157,0.588,0.282,0.859c0.41,0.89,0.923,1.722,1.579,2.451
			c0.483,0.536,0.979,1.078,1.65,1.416c0.251,0.125,0.513,0.242,0.784,0.318c1.171,0.328,2.354,0.644,3.483,1.008
			c1.52,0.503-0.639-0.265,8.447,2.737c0.149,0.049,1.709,0.579,2.527,1.909c0.083,0.079,0.148,0.285,0.25,0.345l0.074-0.054
			c-0.085-0.243-0.157-0.491-0.258-0.726c-1.78-4.128-4.521-4.966-4.521-4.966l-0.359-0.121c-1.645-0.53-3.238-1.074-4.9-1.554
			l-5.496-1.504c-0.404-0.107-0.812-0.202-1.21-0.325c-0.686-0.211-1.586-0.647-1.957-1.282c-0.112-0.191-0.241-0.514-0.304-0.557
			L462.822,131.753z"/>
	</g>
	<g>
		<path class="st0" d="M471.503,147.849c0.077,0.29,0.126,0.591,0.238,0.867c0.37,0.904,0.765,1.798,1.356,2.579
			c0.426,0.577,0.867,1.163,1.497,1.555c0.236,0.147,0.484,0.284,0.744,0.383l3.392,1.272c0.746,0.287,0.599,0.23,1.378,0.529
			c0.392,0.151,1.015,0.394,2.099,0.815c1.099,0.421,2.641,1.035,4.802,1.998c0.143,0.061,1.635,0.717,2.319,2.118
			c0.074,0.087,0.12,0.299,0.214,0.367l0.078-0.049c-0.061-0.251-0.109-0.506-0.187-0.75c-0.691-2.136-1.674-3.49-2.533-4.278
			c-0.877-0.781-1.555-1.034-1.555-1.034l-0.355-0.143l-4.837-1.893l-5.288-1.952c-0.39-0.14-0.784-0.269-1.165-0.425
			c-0.66-0.266-1.494-0.784-1.848-1.428c-0.102-0.197-0.216-0.525-0.276-0.57L471.503,147.849z"/>
	</g>
	<g>
		<path class="st0" d="M478.868,164.583c0.05,0.298,0.069,0.604,0.154,0.891c0.276,0.94,0.662,1.837,1.206,2.655
			c0.399,0.601,0.812,1.211,1.428,1.644c0.23,0.162,0.473,0.317,0.729,0.432l3.24,1.542c1.431,0.725-0.593-0.359,7.966,3.976
			c0.139,0.071,1.608,0.829,2.221,2.266c0.07,0.091,0.105,0.304,0.196,0.379l0.082-0.043c-0.048-0.252-0.083-0.508-0.149-0.755
			c-1.154-4.344-3.747-5.585-3.747-5.585l-0.337-0.173l-4.603-2.282c-1.668-0.823-3.47-1.569-5.186-2.325
			c-0.385-0.167-0.775-0.322-1.152-0.503c-0.648-0.312-1.477-0.877-1.751-1.559c-0.083-0.206-0.163-0.544-0.219-0.595
			L478.868,164.583z"/>
	</g>
	<g>
		<path class="st0" d="M485.041,181.795c0.041,0.295,0.016,0.609,0.076,0.902c0.182,0.964,0.477,1.895,0.935,2.759
			c0.337,0.635,0.686,1.279,1.253,1.761c0.212,0.18,0.437,0.354,0.681,0.492l3.171,1.769c0.696,0.395,0.559,0.317,1.286,0.73
			c0.725,0.425,2.368,1.29,6.366,3.835c0.132,0.083,1.512,0.957,1.98,2.444c0.061,0.097,0.074,0.313,0.158,0.395l0.085-0.036
			c-0.024-0.256-0.033-0.516-0.074-0.769c-0.359-2.217-1.154-3.697-1.855-4.613c-0.687-0.921-1.353-1.265-1.353-1.265l-0.33-0.196
			l-4.509-2.601l-4.949-2.728c-0.366-0.198-0.736-0.384-1.091-0.595c-0.611-0.363-1.377-0.996-1.582-1.702
			c-0.057-0.214-0.112-0.558-0.17-0.611L485.041,181.795z"/>
	</g>
	<g>
		<path class="st0" d="M489.749,199.463c0.005,0.301-0.021,0.607,0.02,0.903c0.134,0.97,0.383,1.915,0.8,2.805
			c0.306,0.655,0.625,1.319,1.17,1.84c0.194,0.197,0.398,0.389,0.626,0.544l2.966,2.017c1.308,0.933-0.533-0.444,7.287,5.136
			c0.128,0.091,1.467,1.063,1.86,2.576c0.056,0.1,0.044,0.318,0.12,0.406l0.088-0.03c0.006-0.259,0.013-0.518-0.017-0.771
			c-0.494-4.466-2.874-6.085-2.874-6.085l-0.308-0.222l-4.213-2.952c-1.522-1.068-3.133-2.09-4.747-3.092
			c-0.356-0.223-0.719-0.436-1.065-0.671c-0.596-0.406-1.333-1.09-1.502-1.805c-0.051-0.215-0.081-0.562-0.129-0.621
			L489.749,199.463z"/>
	</g>
	<g>
		<path class="st0" d="M493.236,217.414c-0.026,0.302-0.082,0.605-0.071,0.904c0.035,0.981,0.188,1.946,0.512,2.869
			c0.238,0.678,0.487,1.368,0.976,1.931c0.182,0.211,0.379,0.417,0.599,0.588l2.871,2.229c0.629,0.496,0.505,0.398,1.163,0.917
			c0.666,0.527,2.13,1.635,5.702,4.755c0.117,0.101,1.35,1.173,1.59,2.714c0.046,0.105,0.027,0.321,0.097,0.414l0.089-0.023
			c0.016-0.257,0.046-0.515,0.043-0.771c-0.023-2.244-0.585-3.828-1.141-4.839c-0.544-1.013-1.131-1.456-1.131-1.456l-0.298-0.244
			l-4.069-3.253l-4.485-3.446c-0.332-0.251-0.67-0.492-0.989-0.754c-0.551-0.451-1.212-1.193-1.309-1.921
			c-0.029-0.22-0.024-0.568-0.065-0.631L493.236,217.414z"/>
	</g>
	<g>
		<path class="st0" d="M495.217,235.595c-0.041,0.299-0.113,0.596-0.117,0.896c-0.013,0.979,0.091,1.951,0.369,2.894
			c0.204,0.694,0.419,1.399,0.879,1.997c0.162,0.224,0.336,0.444,0.537,0.633l2.628,2.441c1.152,1.119-0.46-0.518,6.429,6.171
			c0.113,0.109,1.29,1.271,1.45,2.824c0.04,0.108,0.01,0.321,0.076,0.42l0.09-0.017c0.029-0.254,0.072-0.51,0.083-0.765
			c0.185-4.487-1.923-6.444-1.923-6.444l-0.271-0.265l-3.72-3.552c-1.342-1.285-2.782-2.538-4.226-3.772
			c-0.319-0.275-0.646-0.54-0.953-0.825c-0.528-0.492-1.153-1.279-1.214-2.012c-0.018-0.221,0.005-0.567-0.033-0.633
			L495.217,235.595z"/>
	</g>
</g>
</svg>
