<?xml version="1.0" encoding="utf-8"?>
<!-- Generator: Adobe Illustrator 17.0.0, SVG Export Plug-In . SVG Version: 6.00 Build 0)  -->
<!DOCTYPE svg PUBLIC "-//W3C//DTD SVG 1.1//EN" "http://www.w3.org/Graphics/SVG/1.1/DTD/svg11.dtd">
<svg version="1.1" id="Layer_1" xmlns="http://www.w3.org/2000/svg" xmlns:xlink="http://www.w3.org/1999/xlink" x="0px" y="0px"
	 width="283.026px" height="283.026px" viewBox="0 0 283.026 283.026" style="enable-background:new 0 0 283.026 283.026;"
	 xml:space="preserve">
<style type="text/css">
	.st0{fill:#EAC765;}
</style>
<g>
	<g>
		<path class="st0" d="M46.033,114.833l-26.68,26.68l27.766,27.766c-2.671-8.892-4.113-18.311-4.113-28.061
			c0-8.972,1.222-17.664,3.497-25.923L46.033,114.833z"/>
		<path class="st0" d="M237.479,167.705l26.193-26.193l-27.552-27.552l0.11,6.63c1.435,6.652,2.198,13.552,2.198,20.627
			c0,8.419-1.07,16.594-3.082,24.393L237.479,167.705z"/>
		<path class="st0" d="M112.656,234.816l28.857,28.856l29.585-29.585c-9.567,3.138-19.778,4.842-30.381,4.842
			C130.967,238.929,121.548,237.486,112.656,234.816z"/>
		<path class="st0" d="M141.513,19.353l-28.016,28.016c8.644-2.511,17.777-3.862,27.22-3.862c10.28,0,20.192,1.6,29.506,4.557
			L141.513,19.353z"/>
		<rect x="132.924" y="132.85" class="st0" width="16.652" height="16.652"/>
		<path class="st0" d="M242.451,186.87l-36.777-36.105l15.236-12.924c5.022-4.493,3.833-10.308,3.833-10.308l-0.529-31.849
			c-1.718-14.273,12.29-24.317,12.29-24.317c-42.158,27.356-38.325,40.043-38.325,40.043v31.997l-36.093-35.433h15.873
			c12.687,1.322,39.337-28.149,39.337-28.149c-7.665,5.683-17.003,5.022-17.003,5.022l-77.179-0.396
			c-7.838-0.273-19.32,11.017-25.693,18.052L68.432,73.644c0,0-11.63-13.411-4.229-24.48c0,0-30.454,17.212-28.773,33.996
			c0,0,0.227,7.269,5.514,12.423l36.777,36.106l-15.236,12.924c-5.022,4.493-3.833,10.308-3.833,10.308l0.529,31.849
			c1.718,14.273-12.29,24.317-12.29,24.317c42.158-27.356,38.325-40.043,38.325-40.043v-31.997l36.093,35.433h-15.873
			c-12.687-1.322-39.337,28.149-39.337,28.149c7.665-5.683,17.003-5.022,17.003-5.022l77.179,0.396
			c7.838,0.273,19.32-11.017,25.693-18.052l28.989,28.857c0,0,11.63,13.411,4.229,24.48c0,0,30.454-17.212,28.773-33.996
			C247.965,199.292,247.737,192.024,242.451,186.87z M150.141,174.479l10.932-11.365l-8.722-7.929c0,0-17.577-5.551-26.431,2.379
			c0,0,7.401-16.652,0.529-26.167l-23.531-23.424h30.337l-10.932,11.365l8.722,7.929c0,0,17.577,5.551,26.431-2.379
			c0,0-7.401,16.652-0.529,26.167l23.531,23.424H150.141z"/>
		<path class="st0" d="M56.222,138.111l0.173-0.151l1.621-1.375c0.195-3.518,0.611-6.979,1.234-10.368l-6.696-6.574
			c-1.694,6.921-2.599,14.148-2.599,21.583c0,2.138,0.08,4.257,0.226,6.358C51.064,144.536,52.829,141.146,56.222,138.111z"/>
		<path class="st0" d="M85.901,79.172c14.622-12.937,33.828-20.803,54.84-20.803c19.285,0,37.052,6.623,51.146,17.713l8.374,0.043
			l0.169,0.017c0.073,0.003,0.189,0.009,0.339,0.005c0.557,0,1.626-0.034,2.963-0.233c-16.338-15.762-38.55-25.473-62.991-25.473
			c-23.205,0-44.4,8.755-60.467,23.13L85.901,79.172z"/>
		<path class="st0" d="M196.119,202.803c-14.687,13.222-34.108,21.281-55.378,21.281c-19.289,0-37.059-6.625-51.155-17.72
			l-7.348-0.038l-0.168-0.017c-0.398-0.014-2.049-0.033-4.173,0.373c16.324,15.678,38.477,25.33,62.844,25.33
			c23.463,0,44.876-8.947,61.006-23.608L196.119,202.803z"/>
		<path class="st0" d="M226.278,144.34l-0.173,0.151l-2.697,2.287c-0.194,2.912-0.537,5.783-1.025,8.606l6.743,6.619
			c1.569-6.675,2.402-13.631,2.402-20.778c0-1.316-0.035-2.624-0.09-3.926C230.407,139.653,228.789,142.094,226.278,144.34z"/>
		<path class="st0" d="M0,141.513l49.934,49.934c0.221-1.17,0.29-2.386,0.14-3.635l-0.054-0.447l-0.119-7.164l-38.688-38.688
			l31.515-31.515l-5.658-5.555L0,141.513z"/>
		<path class="st0" d="M283.026,141.513l-50.468-50.468c-0.214,1.158-0.281,2.36-0.132,3.595l0.054,0.447l0.12,7.213l39.213,39.213
			l-31.486,31.486l5.658,5.555L283.026,141.513z"/>
		<path class="st0" d="M79.714,73.013l61.799-61.799l64.285,64.285c0.896-0.226,1.844-0.533,2.795-0.941
			c1.433-0.659,3.055-1.602,4.553-2.925L141.513,0L74.148,67.365c0.13,0.178,0.241,0.324,0.319,0.424L79.714,73.013z"/>
		<path class="st0" d="M203.337,209.988l-61.824,61.824l-64.85-64.85c-1.774,0.452-3.742,1.213-5.546,2.484
			c-0.591,0.51-1.105,1.083-1.464,1.719l71.86,71.86l67.296-67.296c-0.341-0.495-0.618-0.864-0.775-1.067L203.337,209.988z"/>
	</g>
</g>
</svg>
