<?xml version="1.0" encoding="utf-8"?>
<!-- Generator: Adobe Illustrator 17.0.0, SVG Export Plug-In . SVG Version: 6.00 Build 0)  -->
<!DOCTYPE svg PUBLIC "-//W3C//DTD SVG 1.1//EN" "http://www.w3.org/Graphics/SVG/1.1/DTD/svg11.dtd">
<svg version="1.1" id="Layer_1" xmlns="http://www.w3.org/2000/svg" xmlns:xlink="http://www.w3.org/1999/xlink" x="0px" y="0px"
	 width="228.644px" height="228.644px" viewBox="0 0 228.644 228.644" style="enable-background:new 0 0 228.644 228.644;"
	 xml:space="preserve">
<style type="text/css">
	.st0{fill:#999998;}
</style>
<g>
	<path class="st0" d="M37.188,92.769l-21.553,21.553l22.431,22.431c-2.158-7.184-3.323-14.793-3.323-22.67
		c0-7.248,0.987-14.27,2.825-20.942L37.188,92.769z"/>
	<path class="st0" d="M191.849,135.482l21.16-21.16l-22.258-22.258l0.089,5.356c1.159,5.374,1.776,10.948,1.776,16.664
		c0,6.802-0.865,13.405-2.49,19.706L191.849,135.482z"/>
	<path class="st0" d="M91.01,189.697l23.312,23.312l23.9-23.9c-7.729,2.535-15.978,3.911-24.543,3.911
		C105.802,193.02,98.194,191.855,91.01,189.697z"/>
	<path class="st0" d="M114.322,15.635L91.689,38.267c6.983-2.029,14.361-3.12,21.99-3.12c8.305,0,16.312,1.293,23.837,3.681
		L114.322,15.635z"/>
	<rect x="107.383" y="107.324" class="st0" width="13.452" height="13.452"/>
	<path class="st0" d="M195.866,150.964l-29.711-29.168l12.308-10.441c4.057-3.63,3.096-8.327,3.096-8.327l-0.427-25.73
		c-1.388-11.53,9.929-19.644,9.929-19.644c-34.057,22.1-30.961,32.349-30.961,32.349v25.849l-29.158-28.625h12.823
		c10.249,1.068,31.779-22.74,31.779-22.74c-6.192,4.591-13.736,4.057-13.736,4.057l-62.349-0.32
		c-6.332-0.221-15.608,8.9-20.757,14.584L55.283,59.494c0,0-9.395-10.834-3.416-19.777c0,0-24.602,13.905-23.244,27.464
		c0,0,0.184,5.872,4.454,10.036l29.711,29.168l-12.308,10.441c-4.057,3.63-3.096,8.327-3.096,8.327l0.427,25.73
		c1.388,11.53-9.929,19.644-9.929,19.644c34.057-22.1,30.961-32.349,30.961-32.349v-25.849L98,140.954H85.177
		c-10.249-1.068-31.779,22.74-31.779,22.74c6.192-4.591,13.736-4.057,13.736-4.057l62.349,0.32
		c6.332,0.221,15.608-8.9,20.757-14.584l23.419,23.312c0,0,9.395,10.834,3.416,19.777c0,0,24.602-13.905,23.244-27.464
		C200.32,160.999,200.136,155.127,195.866,150.964z M121.292,140.954l8.832-9.182l-7.046-6.406c0,0-14.199-4.484-21.353,1.922
		c0,0,5.979-13.452,0.427-21.139L83.142,87.226h24.508l-8.832,9.182l7.046,6.406c0,0,14.199,4.484,21.353-1.922
		c0,0-5.979,13.452-0.427,21.139l19.009,18.923H121.292z"/>
	<path class="st0" d="M45.419,111.574l0.14-0.122l1.31-1.111c0.158-2.842,0.493-5.638,0.997-8.376l-5.409-5.311
		c-1.369,5.591-2.1,11.429-2.1,17.436c0,1.727,0.065,3.439,0.183,5.136C41.252,116.764,42.679,114.026,45.419,111.574z"/>
	<path class="st0" d="M69.396,63.96c11.812-10.451,27.328-16.806,44.303-16.806c15.579,0,29.932,5.35,41.319,14.309l6.765,0.035
		l0.136,0.013c0.059,0.002,0.153,0.008,0.274,0.004c0.45,0,1.314-0.027,2.394-0.188c-13.199-12.733-31.143-20.579-50.887-20.579
		c-18.746,0-35.869,7.073-48.849,18.686L69.396,63.96z"/>
	<path class="st0" d="M158.436,163.836c-11.865,10.681-27.554,17.192-44.738,17.192c-15.582,0-29.938-5.352-41.326-14.315
		l-5.936-0.03l-0.136-0.013c-0.321-0.011-1.655-0.026-3.371,0.302c13.187,12.666,31.084,20.463,50.769,20.463
		c18.955,0,36.253-7.228,49.284-19.072L158.436,163.836z"/>
	<path class="st0" d="M182.8,116.606l-0.14,0.122l-2.178,1.848c-0.156,2.352-0.434,4.672-0.828,6.953l5.447,5.347
		c1.267-5.393,1.94-11.012,1.94-16.785c0-1.063-0.028-2.12-0.073-3.172C186.136,112.82,184.828,114.791,182.8,116.606z"/>
	<path class="st0" d="M0,114.322l40.34,40.34c0.178-0.945,0.234-1.928,0.113-2.937l-0.043-0.361l-0.096-5.788L9.059,114.322
		l25.46-25.46l-4.571-4.488L0,114.322z"/>
	<path class="st0" d="M228.644,114.322l-40.771-40.771c-0.173,0.935-0.227,1.907-0.107,2.904l0.043,0.361l0.097,5.827l31.678,31.678
		l-25.436,25.437l4.571,4.488L228.644,114.322z"/>
	<path class="st0" d="M64.397,58.984l49.925-49.925l51.933,51.933c0.724-0.183,1.49-0.431,2.258-0.76
		c1.157-0.533,2.468-1.294,3.678-2.363L114.322,0L59.901,54.421c0.105,0.144,0.194,0.261,0.257,0.343L64.397,58.984z"/>
	<path class="st0" d="M164.267,169.64l-49.945,49.945l-52.389-52.389c-1.433,0.365-3.023,0.98-4.48,2.007
		c-0.477,0.412-0.892,0.875-1.183,1.389l58.053,58.053l54.365-54.365c-0.275-0.4-0.499-0.698-0.626-0.862L164.267,169.64z"/>
</g>
</svg>
