<?xml version="1.0" encoding="utf-8"?>
<!-- Generator: Adobe Illustrator 17.0.0, SVG Export Plug-In . SVG Version: 6.00 Build 0)  -->
<!DOCTYPE svg PUBLIC "-//W3C//DTD SVG 1.1//EN" "http://www.w3.org/Graphics/SVG/1.1/DTD/svg11.dtd">
<svg version="1.1" id="project" xmlns="http://www.w3.org/2000/svg" xmlns:xlink="http://www.w3.org/1999/xlink" x="0px" y="0px"
	 width="401.762px" height="74.758px" viewBox="0 0 401.762 74.758" style="enable-background:new 0 0 401.762 74.758;"
	 xml:space="preserve">
<style type="text/css">
	.st0{fill:#999998;}
</style>
<g>
	<path class="st0" d="M12.357,71.649H5.644V4.832H20.17c11.82,0,18.433,6.311,18.433,17.731c0,12.422-7.012,19.334-16.228,19.334
		H12.357V71.649z M12.357,35.886l9.415-0.1c6.213-0.099,9.819-4.808,9.819-13.223c0-8.214-4.309-11.72-11.521-11.72h-7.712V35.886z"
		/>
	<path class="st0" d="M65.749,4.832H83.78c6.612,0,14.927,5.709,14.927,17.731c0,8.214-3.305,16.028-11.519,18.833l13.824,28.65
		L95,72.951L79.975,41.897h-7.514v29.752h-6.712V4.832z M72.461,35.886h9.817c5.811,0,9.417-4.308,9.417-13.323
		c0-8.715-4.209-11.72-11.019-11.72h-8.214V35.886z"/>
	<path class="st0" d="M158.211,38.19c0,8.415,0.299,34.36-18.533,34.36c-19.033,0-18.533-25.745-18.533-34.36
		c0-11.019,0.701-34.26,18.533-34.26C158.51,3.93,158.211,29.374,158.211,38.19z M128.159,38.19
		c0,18.032,2.102,28.049,11.519,28.049c11.62,0,11.519-16.429,11.519-28.049c0-12.622,0.301-27.949-11.519-27.949
		S128.159,28.373,128.159,38.19z"/>
	<path class="st0" d="M187.361,47.406v6.711c0,5.31,2.303,12.122,9.917,12.122c6.01,0,9.616-5.409,9.616-13.023V4.832h6.712v49.086
		c0,12.722-8.214,18.632-16.83,18.632c-8.214,0-16.127-5.81-16.127-18.934v-6.21H187.361z"/>
	<path class="st0" d="M245.562,4.832h32.556v6.011h-25.846v22.039h21.338v6.011h-21.338v26.746h25.846v6.011h-32.556V4.832z"/>
	<path class="st0" d="M338.725,61.631c-3.907,6.311-9.716,10.919-17.33,10.919c-17.431,0-20.035-21.037-20.035-34.26
		c0-13.323,2.604-34.36,20.035-34.36c7.614,0,12.822,4.407,16.328,10.819l-5.711,3.406c-2.102-4.208-5.51-7.914-10.618-7.914
		c-12.222,0-13.023,19.234-13.023,28.049c0,8.715,0.801,27.949,13.023,27.949c5.208,0,9.317-4.308,11.82-8.415L338.725,61.631z"/>
	<path class="st0" d="M376.891,10.842h-14.425V4.832h35.261v6.011h-14.123v60.806h-6.712V10.842z"/>
</g>
</svg>
