<?xml version="1.0" encoding="utf-8"?>
<!-- Generator: Adobe Illustrator 17.0.0, SVG Export Plug-In . SVG Version: 6.00 Build 0)  -->
<!DOCTYPE svg PUBLIC "-//W3C//DTD SVG 1.1//EN" "http://www.w3.org/Graphics/SVG/1.1/DTD/svg11.dtd">
<svg version="1.1" xmlns="http://www.w3.org/2000/svg" xmlns:xlink="http://www.w3.org/1999/xlink" x="0px" y="0px"
	 width="21.369px" height="21.382px" viewBox="0 0 21.369 21.382" style="enable-background:new 0 0 21.369 21.382;"
	 xml:space="preserve">
<style type="text/css">
	.st0{display:none;}
	.st1{display:inline;}
	.st2{fill:none;stroke:#EAC765;stroke-linecap:round;stroke-linejoin:round;stroke-miterlimit:10;}
	.st3{fill:#EAC765;}
	.st4{fill:#CE9549;}
	.st5{display:inline;fill:#CE9549;}
	.st6{fill:#999998;}
	.st7{fill:#878787;}
</style>
<g id="GUIAS">
</g>
<g id="mail" class="st0">
	<g class="st1">
		<rect x="-7.323" y="-2.321" class="st2" width="36" height="26"/>
		<polyline class="st2" points="21.842,4.682 10.531,12.838 -0.78,4.682 		"/>
	</g>
</g>
<g id="menu" class="st0">
	<g class="st1">
		<g>
			<line class="st2" x1="-3.323" y1="20.179" x2="24.677" y2="20.179"/>
			<line class="st2" x1="-3.323" y1="10.179" x2="24.677" y2="10.179"/>
			<line class="st2" x1="-3.323" y1="1.179" x2="24.677" y2="1.179"/>
		</g>
	</g>
</g>
<g id="scroll" class="st0">
	<g class="st1">
		<g>
			<path class="st3" d="M12.286,24.331H9.067c-8.153,0-14.786-6.632-14.786-14.784v-23.739c0-8.088,6.582-14.719,14.674-14.782
				l3.334-0.005c3.952,0,7.666,1.537,10.457,4.329c2.792,2.792,4.329,6.506,4.327,10.458V9.548
				C27.072,17.699,20.439,24.331,12.286,24.331z M11.94-27.915L8.96-27.91C1.454-27.851-4.655-21.698-4.655-14.192V9.548
				c0,7.565,6.156,13.72,13.722,13.72h3.219c7.566,0,13.722-6.155,13.722-13.72v-23.739c0.002-3.667-1.424-7.114-4.015-9.706
				c-2.591-2.591-6.038-4.017-9.705-4.017H11.94z M10.684-8.298c-1.333,0-2.417-1.085-2.417-2.417v-2.436
				c0-1.334,1.085-2.418,2.417-2.418c1.334,0,2.419,1.085,2.419,2.418v2.436C13.104-9.382,12.018-8.298,10.684-8.298z
				 M10.684-14.506c-0.746,0-1.354,0.608-1.354,1.355v2.436c0,0.746,0.608,1.354,1.354,1.354c0.748,0,1.356-0.608,1.356-1.354
				v-2.436C12.04-13.898,11.432-14.506,10.684-14.506z"/>
		</g>
		<g>
			<path class="st3" d="M10.677,50.343L-5.975,40.334c-0.503-0.303-0.666-0.957-0.364-1.461s0.955-0.666,1.461-0.364l15.554,9.349
				l15.554-9.349c0.506-0.302,1.158-0.14,1.461,0.364c0.302,0.504,0.139,1.157-0.364,1.461L10.677,50.343z"/>
		</g>
	</g>
</g>
<g id="logo" class="st0">
	<g class="st1">
		<g>
			<path class="st3" d="M-84.803-16.501l-26.68,26.68l27.766,27.766c-2.671-8.892-4.113-18.311-4.113-28.061
				c0-8.972,1.222-17.664,3.497-25.923L-84.803-16.501z"/>
			<path class="st3" d="M106.643,36.371l26.193-26.193l-27.552-27.552l0.11,6.63c1.435,6.652,2.198,13.552,2.198,20.627
				c0,8.419-1.07,16.593-3.082,24.393L106.643,36.371z"/>
			<path class="st3" d="M-18.18,103.482l28.857,28.856l29.585-29.585c-9.567,3.138-19.778,4.842-30.381,4.842
				C0.13,107.595-9.288,106.152-18.18,103.482z"/>
			<path class="st3" d="M10.676-111.981l-28.016,28.016c8.644-2.511,17.777-3.862,27.22-3.862c10.28,0,20.192,1.6,29.506,4.557
				L10.676-111.981z"/>
			<rect x="2.087" y="1.516" class="st3" width="16.652" height="16.652"/>
			<path class="st3" d="M111.615,55.536L74.837,19.43L90.073,6.506c5.022-4.493,3.833-10.308,3.833-10.308l-0.529-31.849
				c-1.718-14.273,12.29-24.317,12.29-24.317C63.51-32.612,67.342-19.925,67.342-19.925v31.997L31.25-23.361h15.873
				C59.81-22.04,86.46-51.51,86.46-51.51c-7.665,5.683-17.003,5.022-17.003,5.022l-77.179-0.396
				c-7.838-0.273-19.32,11.017-25.693,18.052L-62.405-57.69c0,0-11.63-13.411-4.229-24.48c0,0-30.454,17.212-28.773,33.996
				c0,0,0.227,7.269,5.514,12.423l36.777,36.106l-15.236,12.924c-5.022,4.493-3.833,10.308-3.833,10.308l0.529,31.849
				c1.718,14.273-12.29,24.317-12.29,24.317c42.158-27.356,38.325-40.043,38.325-40.043V7.712l36.093,35.433h-15.873
				c-12.687-1.322-39.337,28.149-39.337,28.149c7.665-5.683,17.003-5.022,17.003-5.022l77.179,0.396
				c7.838,0.273,19.32-11.017,25.693-18.052l28.989,28.857c0,0,11.63,13.411,4.229,24.48c0,0,30.454-17.212,28.773-33.996
				C117.128,67.958,116.901,60.69,111.615,55.536z M19.304,43.145L30.237,31.78l-8.722-7.929c0,0-17.577-5.551-26.431,2.379
				c0,0,7.401-16.652,0.529-26.167l-23.531-23.424H2.418L-8.515-11.996l8.722,7.929c0,0,17.577,5.551,26.431-2.379
				c0,0-7.401,16.652-0.529,26.167l23.531,23.424H19.304z"/>
			<path class="st3" d="M-74.615,6.777l0.173-0.151l1.621-1.375c0.195-3.518,0.611-6.979,1.234-10.368l-6.696-6.574
				c-1.694,6.921-2.599,14.148-2.599,21.583c0,2.138,0.08,4.257,0.226,6.358C-79.773,13.202-78.007,9.812-74.615,6.777z"/>
			<path class="st3" d="M-44.935-52.162c14.622-12.937,33.828-20.803,54.84-20.803c19.285,0,37.052,6.623,51.146,17.713l8.374,0.043
				l0.169,0.017c0.073,0.003,0.189,0.009,0.339,0.005c0.557,0,1.626-0.034,2.963-0.233C56.558-71.183,34.345-80.894,9.905-80.894
				c-23.205,0-44.4,8.755-60.467,23.13L-44.935-52.162z"/>
			<path class="st3" d="M65.283,71.469C50.596,84.69,31.175,92.75,9.905,92.75c-19.289,0-37.059-6.625-51.155-17.72l-7.348-0.038
				l-0.168-0.017c-0.398-0.014-2.049-0.033-4.173,0.373c16.324,15.678,38.477,25.33,62.844,25.33
				c23.463,0,44.876-8.947,61.006-23.608L65.283,71.469z"/>
			<path class="st3" d="M95.442,13.006l-0.173,0.151l-2.697,2.287c-0.194,2.912-0.537,5.783-1.025,8.606l6.743,6.619
				c1.569-6.675,2.402-13.631,2.402-20.778c0-1.316-0.035-2.624-0.09-3.926C99.571,8.319,97.952,10.76,95.442,13.006z"/>
			<path class="st3" d="M-130.836,10.179l49.934,49.934c0.221-1.17,0.29-2.386,0.14-3.635l-0.054-0.447l-0.119-7.164l-38.688-38.688
				l31.515-31.515l-5.658-5.555L-130.836,10.179z"/>
			<path class="st3" d="M152.189,10.179l-50.468-50.468c-0.214,1.158-0.281,2.36-0.132,3.595l0.054,0.447l0.12,7.213l39.213,39.213
				l-31.486,31.486l5.658,5.555L152.189,10.179z"/>
			<path class="st3" d="M-51.123-58.321l61.799-61.799l64.285,64.285c0.896-0.226,1.844-0.533,2.795-0.941
				c1.433-0.659,3.055-1.602,4.553-2.925l-71.633-71.633l-67.365,67.365c0.13,0.178,0.241,0.324,0.319,0.424L-51.123-58.321z"/>
			<path class="st3" d="M72.501,78.654l-61.824,61.824l-64.85-64.85c-1.774,0.452-3.742,1.213-5.546,2.484
				c-0.591,0.51-1.105,1.083-1.464,1.719l71.86,71.86l67.296-67.296c-0.341-0.495-0.618-0.864-0.775-1.067L72.501,78.654z"/>
		</g>
	</g>
</g>
<g id="rombo" class="st0">
	<g class="st1">
		<g>
			
				<rect x="1.354" y="1.356" transform="matrix(0.7071 0.7071 -0.7071 0.7071 10.6782 -4.4219)" class="st4" width="18.645" height="18.645"/>
		</g>
	</g>
</g>
<g id="flecha" class="st0">
	<polygon class="st5" points="103.392,4.681 -82.062,10.722 103.392,16.677 96.533,10.679 	"/>
</g>
<g id="project" class="st0">
	<g class="st1">
		<path class="st6" d="M-178.803,43.734h-6.712v-66.817h14.525c11.82,0,18.433,6.311,18.433,17.731
			c0,12.422-7.012,19.334-16.228,19.334h-10.017V43.734z M-178.803,7.971l9.415-0.1c6.213-0.099,9.819-4.808,9.819-13.223
			c0-8.214-4.309-11.72-11.521-11.72h-7.712V7.971z"/>
		<path class="st6" d="M-125.411-23.083h18.031c6.612,0,14.927,5.709,14.927,17.731c0,8.214-3.305,16.028-11.519,18.833
			l13.824,28.65l-6.012,2.905l-15.025-31.054h-7.514v29.752h-6.712V-23.083z M-118.699,7.971h9.817
			c5.811,0,9.417-4.308,9.417-13.323c0-8.715-4.209-11.72-11.019-11.72h-8.214V7.971z"/>
		<path class="st6" d="M-32.949,10.275c0,8.415,0.299,34.36-18.533,34.36c-19.033,0-18.533-25.745-18.533-34.36
			c0-11.019,0.701-34.26,18.533-34.26C-32.65-23.985-32.949,1.46-32.949,10.275z M-63.002,10.275
			c0,18.032,2.102,28.049,11.519,28.049c11.62,0,11.519-16.429,11.519-28.049c0-12.622,0.301-27.949-11.519-27.949
			S-63.002,0.459-63.002,10.275z"/>
		<path class="st6" d="M-3.799,19.492v6.711c0,5.31,2.303,12.122,9.917,12.122c6.01,0,9.616-5.409,9.616-13.023v-48.384h6.712
			v49.086c0,12.722-8.214,18.632-16.83,18.632c-8.214,0-16.127-5.81-16.127-18.934v-6.21H-3.799z"/>
		<path class="st6" d="M54.402-23.083h32.556v6.011H61.112V4.966h21.338v6.011H61.112v26.746h25.846v6.011H54.402V-23.083z"/>
		<path class="st6" d="M147.565,33.717c-3.907,6.311-9.716,10.919-17.33,10.919c-17.431,0-20.035-21.037-20.035-34.26
			c0-13.323,2.604-34.36,20.035-34.36c7.614,0,12.822,4.407,16.328,10.819l-5.711,3.406c-2.102-4.208-5.51-7.914-10.618-7.914
			c-12.222,0-13.023,19.234-13.023,28.049c0,8.715,0.801,27.949,13.023,27.949c5.208,0,9.317-4.308,11.821-8.415L147.565,33.717z"/>
		<path class="st6" d="M185.731-17.072h-14.425v-6.011h35.261v6.011h-14.123v60.806h-6.712V-17.072z"/>
	</g>
</g>
<g id="rombo_doble">
	<g>
		<path class="st7" d="M10.677,20.364l-9.686-9.685l9.686-9.686l9.686,9.686L10.677,20.364z M2.278,10.679l8.399,8.398l8.399-8.398
			L10.677,2.28L2.278,10.679z"/>
	</g>
	<g>
		
			<rect x="6.721" y="6.723" transform="matrix(0.7071 0.7071 -0.7071 0.7071 10.6782 -4.4219)" class="st4" width="7.912" height="7.912"/>
	</g>
</g>
</svg>
