<?xml version="1.0" encoding="utf-8"?>
<!-- Generator: Adobe Illustrator 17.0.0, SVG Export Plug-In . SVG Version: 6.00 Build 0)  -->
<!DOCTYPE svg PUBLIC "-//W3C//DTD SVG 1.1//EN" "http://www.w3.org/Graphics/SVG/1.1/DTD/svg11.dtd">
<svg version="1.1" xmlns="http://www.w3.org/2000/svg" xmlns:xlink="http://www.w3.org/1999/xlink" x="0px" y="0px"
	 width="121.642px" height="101.881px" viewBox="0 0 121.642 101.881" style="enable-background:new 0 0 121.642 101.881;"
	 xml:space="preserve">
<style type="text/css">
	.st0{opacity:0.8;}
	.st1{fill:#715C54;}
	.st2{fill:#FFFFFF;}
</style>
<g id="GUIAS">
</g>
<g id="_x34_">
	<g id="sabiduria">
		<g class="st0">
			<g>
				<path class="st1" d="M22.872,68.729L6.063,51.274l15.315-15.315l12.264,11.928l-3.375,3.084l-8.524-8.214l-8.724,8.732
					l9.539,9.539l20.366-20.375l4.352,4.351L22.872,68.729z M6.61,51.279l16.27,16.896l23.837-23.174l-3.795-3.795L22.557,61.581
					L12.466,51.489l9.272-9.281l8.536,8.226l2.798-2.557l-11.69-11.37L6.61,51.279z"/>
			</g>
			<g>
				<path class="st1" d="M53.176,38.547l-4.005-3.882l0.142-0.14l25.03-24.831l17.282,17.222l-11.42,11.298l-3.903-3.903
					l7.494-7.514l-9.207-9.207L53.176,38.547z M49.729,34.662l3.445,3.339l21.416-20.962l9.757,9.757l-7.494,7.514l3.352,3.352
					l10.864-10.747l-16.728-16.67L49.729,34.662z"/>
			</g>
			<g>
				<path class="st1" d="M56.007,51.426l-0.143-0.142L30.48,26.004L47.744,8.809l12.738,12.555l-3.911,4.146l-8.876-8.667
					l-9.267,9.163l21.203,21.572L56.007,51.426z M31.034,26.004l24.964,24.861l3.09-3.282L37.876,26.002l9.817-9.707l8.867,8.658
					l3.375-3.579L47.745,9.36L31.034,26.004z"/>
			</g>
			<g>
				<path class="st1" d="M81.494,49.997L62.581,31.142l4.085-3.931l18.771,18.897L81.494,49.997z M63.139,31.146l18.356,18.3
					l3.388-3.343L66.659,27.759L63.139,31.146z"/>
			</g>
			<g>
				<path class="st1" d="M53.085,64.314l-3.91-4.13l0.139-0.135l19.839-19.241l4.179,4.179l-0.145,0.138L53.085,64.314z
					 M49.725,60.196l3.374,3.564l19.673-18.779l-3.623-3.623L49.725,60.196z"/>
			</g>
			<g>
				<path class="st1" d="M74.709,96.366L60.957,82.862l3.796-4.274l9.953,9.714l9.27-9.445L62.925,57.446l3.284-3.506l25.775,25.456
					L74.709,96.366z M61.496,82.844l13.213,12.974l16.717-16.424L66.22,54.5l-2.754,2.939l21.058,21.419l-9.813,9.997l-9.939-9.7
					L61.496,82.844z"/>
			</g>
			<g>
				<path class="st1" d="M55.368,76.669l-0.14-0.14l-18.862-19.02l3.876-3.792l19.101,18.9L55.368,76.669z M36.921,57.513
					l18.445,18.6l3.425-3.492L40.241,54.265L36.921,57.513z"/>
			</g>
			<g>
				<path class="st1" d="M46.658,94.042l-15.999-16.1L42.465,66.2l3.299,3.175l-8.504,8.289l9.532,9.207l21.854-21.512l3.495,3.682
					L46.658,94.042z M31.213,77.944l15.449,15.547l24.932-24.46l-2.957-3.114l-21.842,21.5l-10.096-9.751l8.503-8.289l-2.733-2.63
					L31.213,77.944z"/>
			</g>
			<g>
				<path class="st1" d="M100.418,69.199L87.64,56.632l4.155-4.537l8.705,8.445l8.676-8.891l-9.308-9.342L78.025,63.949
					l-3.879-4.177l25.231-25.441l17.287,17.448L100.418,69.199z M88.183,56.617l12.222,12.021l15.717-16.851L99.378,34.886
					L74.688,59.781l3.348,3.606L99.87,41.754l9.855,9.891l-9.217,9.446l-8.696-8.437L88.183,56.617z"/>
			</g>
			<g>
				<g>
					<path class="st1" d="M22.942,72.042L2.74,51.301L21.29,32.75l13.405,13.095l7.222-7.119l7.158,7.339L22.942,72.042z
						 M4.387,51.311l18.568,19.063l24.47-24.323l-5.524-5.662L22.554,59.459l-7.906-7.905l7.117-7.028l7.213,6.905l4.82-4.82
						L21.3,34.399L4.387,51.311z M16.313,51.558l6.248,6.248l5.608-5.528l-6.39-6.117L16.313,51.558z"/>
				</g>
				<g>
					<path class="st1" d="M100.427,71.756L86.586,58.401l-7.23,7.279l-7.162-7.342l27.143-27.143l20.441,20.441L100.427,71.756z
						 M87.647,57.795l12.749,12.301l17.741-18.444L99.338,32.853L73.843,58.348l5.521,5.659L99.633,43.6l7.906,7.906l-7.316,7.369
						l-7.039-6.739L87.647,57.795z M93.818,51.119l6.385,6.112l5.681-5.722l-6.247-6.248L93.818,51.119z"/>
				</g>
				<g>
					<path class="st1" d="M54.841,53.2L27.542,25.902L47.569,5.875l14.626,14.236l-6.967,6.968l-7.584-7.216l-6.223,6.223
						l20.062,20.608L54.841,53.2z M29.201,25.902L54.849,51.55l4.977-4.875L39.773,26.075l7.851-7.851l7.584,7.216l5.318-5.318
						L47.58,7.523L29.201,25.902z"/>
				</g>
				<g>
					<path class="st1" d="M74.772,99.358L58.946,83.858l6.969-6.969l8.786,8.476l6.22-6.22L61.075,58.822l6.411-6.807L94.8,79.33
						L74.772,99.358z M60.614,83.85l14.151,13.858L93.141,79.33L67.51,53.699l-4.811,5.109l19.87,20.348l-7.854,7.854l-8.786-8.476
						L60.614,83.85z"/>
				</g>
				<g>
					<path class="st1" d="M46.619,97.655L27.146,78.102l14.11-14.11l6.453,6.453l-7.118,7.118l6.211,6.211l20.557-20.199
						l6.556,6.783L46.619,97.655z M28.803,78.103L46.62,95.995l25.65-25.65l-4.932-5.104L46.795,85.426l-7.863-7.863l7.118-7.118
						l-4.794-4.795L28.803,78.103z"/>
				</g>
				<g>
					<path class="st1" d="M54.442,40.324l-7.002-6.798L74.433,6.534l20.323,20.323l-13.22,13.192l-6.972-6.972l6.187-6.161
						l-6.211-6.212L54.442,40.324z M49.112,33.514l5.328,5.173l20.11-19.632l7.862,7.862l-6.187,6.161l5.312,5.313l11.56-11.535
						L74.433,8.193L49.112,33.514z"/>
				</g>
				<g>
					<path class="st1" d="M80.213,51.979l-19.09-19.462l6.739-6.934L87.226,44.95L80.213,51.979z M62.762,32.513L80.22,50.311
						l5.348-5.36L67.874,27.253L62.762,32.513z"/>
				</g>
				<g>
					<path class="st1" d="M53.898,78.293L34.447,58.841l7.223-7.056l19.368,19.369L53.898,78.293z M36.115,58.851l17.784,17.783
						l5.48-5.48L41.66,53.435L36.115,58.851z"/>
				</g>
				<g>
					<path class="st1" d="M54.489,65.851l-7.084-6.862l21.206-20.312l6.841,7.14L54.489,65.851z M49.096,58.993l5.399,5.23
						L73.793,45.78l-5.218-5.445L49.096,58.993z"/>
				</g>
			</g>
			<g>
				<polygon class="st1" points="53.318,36.166 51.418,34.197 74.756,11.674 89.629,26.603 80.464,35.876 78.517,33.953 
					85.773,26.61 74.718,15.513 				"/>
			</g>
			<g>
				
					<rect x="62.575" y="37.46" transform="matrix(0.7061 0.7082 -0.7082 0.7061 49.3085 -41.1336)" class="st1" width="23.256" height="2.737"/>
			</g>
			<g>
				<polygon class="st1" points="55.495,49.359 32.641,25.978 47.864,11.203 58.021,21.235 56.098,23.182 47.847,15.033 
					36.518,26.029 57.452,47.446 				"/>
			</g>
			<g>
				
					<rect x="59.959" y="40.145" transform="matrix(0.6909 0.723 -0.723 0.6909 56.7775 -28.1672)" class="st1" width="2.737" height="24.334"/>
			</g>
			<g>
				<polygon class="st1" points="74.858,94.527 63.34,82.997 65.276,81.063 74.838,90.635 86.025,79.197 64.917,57.902 
					66.86,55.975 89.866,79.184 				"/>
			</g>
			<g>
				<polygon class="st1" points="100.498,66.686 90.396,56.912 92.298,54.945 100.414,62.796 110.861,51.771 99.744,40.218 
					78.348,61.206 76.431,59.252 99.8,36.33 114.644,51.756 				"/>
			</g>
			<g>
				
					<rect x="36.424" y="63.617" transform="matrix(0.7067 0.7075 -0.7075 0.7067 59.9924 -14.7587)" class="st1" width="22.75" height="2.737"/>
			</g>
			<g>
				<polygon class="st1" points="22.739,66.812 7.513,51.103 21.788,37.611 31.889,47.421 29.983,49.384 21.763,41.4 11.407,51.188 
					22.767,62.91 42.701,42.94 44.638,44.873 				"/>
			</g>
			<g>
				<polygon class="st1" points="46.778,92.369 32.002,77.988 41.914,67.957 43.861,69.88 35.886,77.95 46.773,88.546 68.32,67.474 
					70.234,69.43 				"/>
			</g>
		</g>
		<g>
			<g>
				<path class="st2" d="M21.858,65.715L5.049,48.26l15.315-15.315l12.264,11.928l-3.375,3.084l-8.524-8.214l-8.724,8.732
					l9.539,9.539l20.366-20.375l4.352,4.351L21.858,65.715z M5.597,48.265l16.27,16.896l23.837-23.174l-3.795-3.795L21.543,58.567
					L11.452,48.475l9.272-9.281l8.536,8.226l2.798-2.557l-11.69-11.37L5.597,48.265z"/>
			</g>
			<g>
				<path class="st2" d="M52.162,35.533l-4.005-3.882l0.142-0.14L73.328,6.68l17.282,17.222L79.19,35.2l-3.903-3.903l7.494-7.514
					l-9.207-9.207L52.162,35.533z M48.715,31.648l3.445,3.339l21.416-20.962l9.757,9.757l-7.494,7.514l3.352,3.352l10.864-10.747
					L73.327,7.231L48.715,31.648z"/>
			</g>
			<g>
				<path class="st2" d="M54.993,48.412L54.85,48.27L29.466,22.99L46.73,5.795L59.468,18.35l-3.911,4.146l-8.876-8.667l-9.267,9.163
					l21.203,21.572L54.993,48.412z M30.02,22.99l24.964,24.861l3.09-3.282L36.862,22.988l9.817-9.707l8.867,8.658l3.375-3.579
					L46.731,6.346L30.02,22.99z"/>
			</g>
			<g>
				<path class="st2" d="M80.48,46.983L61.567,28.128l4.085-3.931l18.771,18.897L80.48,46.983z M62.125,28.132l18.356,18.3
					l3.388-3.343L65.645,24.745L62.125,28.132z"/>
			</g>
			<g>
				<path class="st2" d="M52.071,61.3l-3.91-4.13l0.139-0.135l19.839-19.241l4.179,4.179l-0.145,0.138L52.071,61.3z M48.711,57.182
					l3.374,3.564l19.673-18.779l-3.623-3.623L48.711,57.182z"/>
			</g>
			<g>
				<path class="st2" d="M73.695,93.352L59.943,79.848l3.796-4.274l9.953,9.714l9.27-9.445L61.911,54.432l3.284-3.506l25.775,25.456
					L73.695,93.352z M60.482,79.83l13.213,12.974L90.412,76.38L65.206,51.486l-2.754,2.939L83.51,75.844l-9.813,9.997l-9.939-9.7
					L60.482,79.83z"/>
			</g>
			<g>
				<path class="st2" d="M54.354,73.655l-0.14-0.14l-18.862-19.02l3.876-3.792l19.101,18.9L54.354,73.655z M35.907,54.499
					l18.445,18.6l3.425-3.492L39.227,51.251L35.907,54.499z"/>
			</g>
			<g>
				<path class="st2" d="M45.644,91.028l-15.999-16.1l11.805-11.743l3.299,3.175l-8.504,8.289l9.532,9.207l21.854-21.512
					l3.495,3.682L45.644,91.028z M30.199,74.93l15.449,15.547l24.932-24.46l-2.957-3.114l-21.842,21.5l-10.096-9.751l8.503-8.289
					l-2.733-2.63L30.199,74.93z"/>
			</g>
			<g>
				<path class="st2" d="M99.404,66.185L86.626,53.618l4.155-4.537l8.705,8.445l8.676-8.891l-9.308-9.342L77.011,60.935
					l-3.879-4.177l25.231-25.441l17.287,17.448L99.404,66.185z M87.169,53.603l12.222,12.021l15.717-16.851L98.364,31.872
					L73.674,56.767l3.348,3.606L98.856,38.74l9.855,9.891l-9.217,9.446l-8.696-8.437L87.169,53.603z"/>
			</g>
			<g>
				<g>
					<path class="st2" d="M21.928,69.028L1.726,48.287l18.551-18.551l13.405,13.095l7.222-7.119l7.158,7.339L21.928,69.028z
						 M3.373,48.297l18.568,19.063l24.47-24.323l-5.524-5.662L21.54,56.445l-7.906-7.905l7.117-7.028l7.213,6.905l4.82-4.82
						L20.286,31.385L3.373,48.297z M15.299,48.544l6.248,6.248l5.608-5.528l-6.39-6.117L15.299,48.544z"/>
				</g>
				<g>
					<path class="st2" d="M99.413,68.742L85.572,55.387l-7.23,7.279l-7.162-7.342l27.143-27.143l20.441,20.441L99.413,68.742z
						 M86.633,54.781l12.749,12.301l17.741-18.444L98.324,29.839L72.829,55.334l5.521,5.659l20.269-20.407l7.906,7.906l-7.316,7.369
						l-7.039-6.739L86.633,54.781z M92.804,48.105l6.385,6.112l5.681-5.722l-6.247-6.248L92.804,48.105z"/>
				</g>
				<g>
					<path class="st2" d="M53.827,50.186L26.528,22.888L46.555,2.861l14.626,14.236l-6.967,6.968l-7.584-7.216l-6.223,6.223
						L60.468,43.68L53.827,50.186z M28.187,22.888l25.648,25.648l4.977-4.875L38.759,23.061l7.851-7.851l7.584,7.216l5.318-5.318
						L46.566,4.509L28.187,22.888z"/>
				</g>
				<g>
					<path class="st2" d="M73.758,96.344L57.932,80.844l6.969-6.969l8.786,8.476l6.22-6.22L60.061,55.809l6.411-6.807l27.315,27.315
						L73.758,96.344z M59.6,80.836L73.75,94.694l18.377-18.378L66.496,50.685l-4.811,5.109l19.87,20.348l-7.854,7.854l-8.786-8.476
						L59.6,80.836z"/>
				</g>
				<g>
					<path class="st2" d="M45.605,94.641L26.132,75.088l14.11-14.11l6.453,6.453l-7.118,7.118l6.211,6.211l20.557-20.199
						l6.556,6.783L45.605,94.641z M27.789,75.089l17.817,17.892l25.65-25.65l-4.932-5.104L45.781,82.412l-7.863-7.863l7.118-7.118
						l-4.794-4.795L27.789,75.089z"/>
				</g>
				<g>
					<path class="st2" d="M53.428,37.31l-7.002-6.798L73.419,3.52l20.323,20.323l-13.22,13.192l-6.972-6.972l6.187-6.161
						l-6.211-6.212L53.428,37.31z M48.098,30.5l5.328,5.173l20.11-19.632l7.862,7.862l-6.187,6.161l5.312,5.313l11.56-11.535
						L73.419,5.179L48.098,30.5z"/>
				</g>
				<g>
					<path class="st2" d="M79.199,48.965l-19.09-19.462l6.739-6.934l19.363,19.368L79.199,48.965z M61.748,29.499l17.458,17.799
						l5.348-5.36L66.86,24.239L61.748,29.499z"/>
				</g>
				<g>
					<path class="st2" d="M52.884,75.279L33.433,55.827l7.223-7.056L60.024,68.14L52.884,75.279z M35.101,55.837L52.884,73.62
						l5.48-5.48L40.646,50.421L35.101,55.837z"/>
				</g>
				<g>
					<path class="st2" d="M53.476,62.837l-7.084-6.862l21.206-20.312l6.841,7.14L53.476,62.837z M48.082,55.979l5.399,5.23
						l19.298-18.443l-5.218-5.445L48.082,55.979z"/>
				</g>
			</g>
			<g>
				<polygon class="st2" points="52.304,33.152 50.404,31.183 73.742,8.66 88.615,23.589 79.45,32.862 77.504,30.939 84.759,23.596 
					73.704,12.499 				"/>
			</g>
			<g>
				
					<rect x="61.561" y="34.446" transform="matrix(0.7061 0.7082 -0.7082 0.7061 46.8761 -41.3015)" class="st2" width="23.256" height="2.737"/>
			</g>
			<g>
				<polygon class="st2" points="54.481,46.345 31.627,22.964 46.85,8.189 57.007,18.221 55.084,20.168 46.833,12.019 
					35.504,23.015 56.438,44.432 				"/>
			</g>
			<g>
				
					<rect x="58.945" y="37.131" transform="matrix(0.6909 0.723 -0.723 0.6909 54.2851 -28.3658)" class="st2" width="2.737" height="24.334"/>
			</g>
			<g>
				<polygon class="st2" points="73.844,91.513 62.326,79.983 64.262,78.049 73.824,87.621 85.011,76.183 63.903,54.888 
					65.846,52.961 88.852,76.17 				"/>
			</g>
			<g>
				<polygon class="st2" points="99.484,63.672 89.382,53.898 91.284,51.931 99.4,59.782 109.847,48.757 98.73,37.204 
					77.334,58.192 75.417,56.238 98.786,33.316 113.63,48.742 				"/>
			</g>
			<g>
				
					<rect x="35.41" y="60.603" transform="matrix(0.7067 0.7075 -0.7075 0.7067 57.5628 -14.9252)" class="st2" width="22.75" height="2.737"/>
			</g>
			<g>
				<polygon class="st2" points="21.725,63.798 6.499,48.089 20.774,34.597 30.875,44.407 28.969,46.37 20.749,38.386 
					10.393,48.174 21.753,59.896 41.687,39.926 43.624,41.859 				"/>
			</g>
			<g>
				<polygon class="st2" points="45.764,89.355 30.988,74.974 40.9,64.943 42.847,66.866 34.872,74.936 45.759,85.532 67.306,64.46 
					69.22,66.416 				"/>
			</g>
		</g>
	</g>
</g>
</svg>
