<?xml version="1.0" encoding="utf-8"?>
<!-- Generator: Adobe Illustrator 17.0.0, SVG Export Plug-In . SVG Version: 6.00 Build 0)  -->
<!DOCTYPE svg PUBLIC "-//W3C//DTD SVG 1.1//EN" "http://www.w3.org/Graphics/SVG/1.1/DTD/svg11.dtd">
<svg version="1.1" id="Layer_1" xmlns="http://www.w3.org/2000/svg" xmlns:xlink="http://www.w3.org/1999/xlink" x="0px" y="0px"
	 width="34.334px" height="79.321px" viewBox="0 0 34.334 79.321" style="enable-background:new 0 0 34.334 79.321;"
	 xml:space="preserve">
<style type="text/css">
	.st0{fill:#EAC765;}
</style>
<g>
	<g>
		<path class="st0" d="M18.776,53.31h-3.219c-8.153,0-14.786-6.632-14.786-14.784V14.787c0-8.088,6.582-14.719,14.674-14.782
			L18.778,0c3.952,0,7.666,1.537,10.457,4.329c2.792,2.792,4.329,6.506,4.327,10.458v23.739
			C33.562,46.678,26.929,53.31,18.776,53.31z M18.43,1.064l-2.98,0.005C7.944,1.127,1.835,7.28,1.835,14.787v23.739
			c0,7.565,6.156,13.72,13.722,13.72h3.219c7.566,0,13.722-6.155,13.722-13.72V14.787c0.002-3.667-1.424-7.114-4.015-9.706
			c-2.591-2.591-6.038-4.017-9.705-4.017H18.43z M17.174,20.681c-1.333,0-2.417-1.085-2.417-2.417v-2.436
			c0-1.334,1.085-2.418,2.417-2.418c1.334,0,2.419,1.085,2.419,2.418v2.436C19.594,19.597,18.508,20.681,17.174,20.681z
			 M17.174,14.473c-0.746,0-1.354,0.608-1.354,1.355v2.436c0,0.746,0.608,1.354,1.354,1.354c0.748,0,1.356-0.608,1.356-1.354v-2.436
			C18.53,15.081,17.922,14.473,17.174,14.473z"/>
	</g>
	<g>
		<path class="st0" d="M17.167,79.321L0.515,69.313c-0.503-0.303-0.666-0.957-0.364-1.461c0.302-0.504,0.955-0.666,1.461-0.364
			l15.554,9.35l15.554-9.35c0.506-0.302,1.158-0.14,1.461,0.364c0.302,0.504,0.139,1.157-0.364,1.461L17.167,79.321z"/>
	</g>
</g>
</svg>
