<?xml version="1.0" encoding="utf-8"?>
<!-- Generator: Adobe Illustrator 17.0.0, SVG Export Plug-In . SVG Version: 6.00 Build 0)  -->
<!DOCTYPE svg PUBLIC "-//W3C//DTD SVG 1.1//EN" "http://www.w3.org/Graphics/SVG/1.1/DTD/svg11.dtd">
<svg version="1.1" id="Layer_1" xmlns="http://www.w3.org/2000/svg" xmlns:xlink="http://www.w3.org/1999/xlink" x="0px" y="0px"
	 width="1246.438px" height="536.973px" viewBox="0 97.835 1246.438 536.973" enable-background="new 0 97.835 1246.438 536.973"
	 xml:space="preserve">
<g opacity="0.4">
	<polygon fill="#707070" points="860.192,448.58 848.947,457.167 901.502,457.167 882.458,292.123 	"/>
	<polygon fill="#707070" points="500.542,448.555 489.258,457.167 541.846,457.167 522.803,292.123 	"/>
	<path fill="#707070" d="M373.406,172.147H344.84v394.155l-11.484,8.935h40.05c12.06,0,19.043-12.695,19.043-22.852V194.999
		C392.449,184.845,385.466,172.147,373.406,172.147z"/>
	<path fill="#707070" d="M440.693,540.958c0,34.914-24.122,55.227-56.497,55.227h-98.392v-3.174c7.618,0,13.33-10.792,13.33-32.375
		v-371.35c0-21.582-5.712-32.373-13.33-32.373v-3.174h98.392c32.375,0,56.497,20.313,56.497,55.225V540.958z M615.481,596.186
		H545.02v-3.174c5.079,0,10.157-12.062,10.157-20.948l-10.792-94.583h-47.609l-12.696,89.505c0,6.983,3.809,26.026,10.792,26.026
		v3.174h-48.879v-3.174c4.444,0,13.965-18.41,15.871-29.199l60.94-410.073h29.2l49.512,410.073
		c1.906,11.425,7.618,29.199,13.966,29.199v3.174H615.481z M713.933,596.186h-72.365v-3.174c7.616,0,6.211-9.89,3.76-32.375
		l-44.023-371.35c-2.305-22.536-5.714-32.373-13.33-32.373v-3.174h72.364v3.174c-7.616,0-15.908,11.272-13.33,32.373l44.023,371.35
		c2.178,22.007,15.285,32.375,22.901,32.375V596.186L713.933,596.186z M744.162,596.186L694.65,186.113
		c-1.903-11.427-7.618-29.2-13.966-29.2v-3.174h70.461v3.174c-4.442,0-9.521,7.618-9.521,19.678v5.713l31.74,251.376l38.721-247.567
		c0-1.904,0.635-6.348,0.635-8.251c0-10.792-5.077-20.948-11.425-20.948v-3.174h48.877v3.174c-4.444,0-13.965,18.408-15.869,29.2
		l-60.94,410.072H744.162z M215.68,130.834V612.31h797.857V130.834H215.68z M975.137,596.186h-70.461v-3.174
		c5.077,0,10.156-12.062,10.156-20.948l-10.792-94.583h-47.609l-12.695,89.506c0,6.983,3.809,26.026,10.792,26.026v3.174h-48.879
		v-3.174c4.444,0,13.966-18.41,15.869-29.199l60.94-410.073h29.201l49.513,410.073c1.905,11.425,7.618,29.199,13.965,29.199V596.186
		z"/>
</g>
<g>
	<polygon fill="#FFFFFF" points="854.637,443.591 843.391,452.178 895.946,452.178 876.902,287.133 	"/>
	<polygon fill="#FFFFFF" points="494.986,443.565 483.702,452.178 536.29,452.178 517.247,287.133 	"/>
	<path fill="#FFFFFF" d="M367.85,167.158h-28.566v394.155l-11.484,8.935h40.05c12.06,0,19.043-12.695,19.043-22.852V190.01
		C386.893,179.855,379.91,167.158,367.85,167.158z"/>
	<path fill="#FFFFFF" d="M0,97.835v536.973h1246.438V97.835H0z M435.137,535.969c0,34.914-24.122,55.227-56.497,55.227h-98.392
		v-3.174c7.618,0,13.33-10.792,13.33-32.375v-371.35c0-21.582-5.712-32.373-13.33-32.373v-3.174h98.392
		c32.375,0,56.497,20.313,56.497,55.225V535.969z M609.925,591.196h-70.461v-3.174c5.079,0,10.157-12.062,10.157-20.948
		l-10.792-94.583H491.22l-12.695,89.506c0,6.983,3.809,26.026,10.792,26.026v3.174h-48.879v-3.174
		c4.444,0,13.965-18.41,15.871-29.199l60.94-410.073h29.2l49.512,410.073c1.906,11.425,7.618,29.199,13.966,29.199v3.173H609.925
		L609.925,591.196z M708.377,591.196h-72.365v-3.174c7.616,0,6.211-9.89,3.76-32.375l-44.023-371.35
		c-2.305-22.536-5.714-32.373-13.33-32.373v-3.174h72.364v3.174c-7.616,0-15.908,11.272-13.33,32.373l44.023,371.35
		c2.178,22.007,15.285,32.375,22.901,32.375L708.377,591.196L708.377,591.196z M738.607,591.196l-49.513-410.072
		c-1.903-11.427-7.618-29.2-13.966-29.2v-3.174h70.461v3.174c-4.442,0-9.521,7.618-9.521,19.678v5.713l31.74,251.376l38.721-247.567
		c0-1.904,0.635-6.348,0.635-8.251c0-10.792-5.077-20.948-11.425-20.948v-3.174h48.877v3.174c-4.444,0-13.965,18.408-15.869,29.2
		l-60.94,410.072L738.607,591.196L738.607,591.196z M969.581,591.196H899.12v-3.174c5.077,0,10.156-12.062,10.156-20.948
		l-10.792-94.583h-47.609l-12.695,89.506c0,6.983,3.809,26.026,10.792,26.026v3.174h-48.879v-3.174
		c4.444,0,13.966-18.41,15.869-29.199l60.94-410.073h29.201l49.513,410.073c1.905,11.425,7.618,29.199,13.965,29.199V591.196z"/>
</g>
</svg>
