<?xml version="1.0" encoding="utf-8"?>
<!-- Generator: Adobe Illustrator 17.0.0, SVG Export Plug-In . SVG Version: 6.00 Build 0)  -->
<!DOCTYPE svg PUBLIC "-//W3C//DTD SVG 1.1//EN" "http://www.w3.org/Graphics/SVG/1.1/DTD/svg11.dtd">
<svg version="1.1" id="Layer_1" xmlns="http://www.w3.org/2000/svg" xmlns:xlink="http://www.w3.org/1999/xlink" x="0px" y="0px"
	 width="798.387px" height="600px" viewBox="0 0 798.387 600" style="enable-background:new 0 0 798.387 600;" xml:space="preserve"
	>
<style type="text/css">
	.st0{opacity:0.6;}
	.st1{fill:#707070;}
	.st2{fill:#FFFFFF;}
</style>
<g class="st0">
	<polygon class="st1" points="644.512,387.196 633.267,395.783 685.822,395.783 666.778,230.739 	"/>
	<polygon class="st1" points="284.862,387.171 273.578,395.783 326.166,395.783 307.123,230.739 	"/>
	<path class="st1" d="M157.726,110.763h-28.566v394.155l-11.484,8.935h40.05c12.06,0,19.043-12.695,19.043-22.852V133.615
		C176.769,123.461,169.786,110.763,157.726,110.763z"/>
	<path class="st1" d="M0,0v600h798.387V0H0z M225.013,479.574c0,34.914-24.122,55.227-56.497,55.227H70.124v-3.174
		c7.618,0,13.33-10.792,13.33-32.375v-371.35c0-21.582-5.712-32.373-13.33-32.373v-3.174h98.392
		c32.375,0,56.497,20.313,56.497,55.225V479.574z M399.801,534.802H329.34v-3.174c5.079,0,10.157-12.062,10.157-20.948
		l-10.792-94.583h-47.609L268.4,505.602c0,6.983,3.809,26.026,10.792,26.026v3.174h-48.879v-3.174
		c4.444,0,13.965-18.41,15.871-29.199l60.94-410.073h29.2l49.512,410.073c1.906,11.425,7.618,29.199,13.966,29.199V534.802z
		 M498.253,534.802h-72.365v-3.174c7.616,0,6.211-9.89,3.76-32.375l-44.023-371.35c-2.305-22.536-5.714-32.373-13.33-32.373v-3.174
		h72.364v3.174c-7.616,0-15.908,11.272-13.33,32.373l44.023,371.35c2.178,22.007,15.285,32.375,22.901,32.375V534.802z
		 M528.482,534.802L478.97,124.729c-1.903-11.427-7.618-29.2-13.966-29.2v-3.174h70.461v3.174c-4.442,0-9.521,7.618-9.521,19.678
		v5.713l31.74,251.376l38.721-247.567c0-1.904,0.635-6.348,0.635-8.251c0-10.792-5.077-20.948-11.425-20.948v-3.174h48.877v3.174
		c-4.444,0-13.965,18.408-15.869,29.2l-60.94,410.072H528.482z M759.457,534.802h-70.461v-3.174
		c5.077,0,10.156-12.062,10.156-20.948l-10.792-94.583h-47.609l-12.695,89.506c0,6.983,3.809,26.026,10.792,26.026v3.174h-48.879
		v-3.174c4.444,0,13.966-18.41,15.869-29.199l60.94-410.073h29.201l49.513,410.073c1.905,11.425,7.618,29.199,13.965,29.199V534.802
		z"/>
</g>
<g>
	<polygon class="st2" points="638.957,382.207 627.711,390.794 680.266,390.794 661.222,225.749 	"/>
	<polygon class="st2" points="279.306,382.181 268.022,390.794 320.61,390.794 301.567,225.749 	"/>
	<path class="st2" d="M152.17,105.774h-28.566v394.155l-11.484,8.935h40.05c12.06,0,19.043-12.695,19.043-22.852V128.626
		C171.213,118.471,164.23,105.774,152.17,105.774z"/>
	<path class="st2" d="M0,0v600h798.387V0H0z M219.457,474.585c0,34.914-24.122,55.227-56.497,55.227H64.568v-3.174
		c7.618,0,13.33-10.792,13.33-32.375v-371.35c0-21.582-5.712-32.373-13.33-32.373v-3.174h98.392
		c32.375,0,56.497,20.313,56.497,55.225V474.585z M394.245,529.812h-70.461v-3.174c5.079,0,10.157-12.062,10.157-20.948
		l-10.792-94.583h-47.609l-12.695,89.506c0,6.983,3.809,26.026,10.792,26.026v3.174h-48.879v-3.174
		c4.444,0,13.965-18.41,15.871-29.199l60.94-410.073h29.2l49.512,410.073c1.906,11.425,7.618,29.199,13.966,29.199V529.812z
		 M492.697,529.812h-72.365v-3.174c7.616,0,6.211-9.89,3.76-32.375l-44.023-371.35c-2.305-22.536-5.714-32.373-13.33-32.373v-3.174
		h72.364v3.174c-7.616,0-15.908,11.272-13.33,32.373l44.023,371.35c2.178,22.007,15.285,32.375,22.901,32.375V529.812z
		 M522.927,529.812L473.414,119.74c-1.903-11.427-7.618-29.2-13.966-29.2v-3.174h70.461v3.174c-4.442,0-9.521,7.618-9.521,19.678
		v5.713l31.74,251.376l38.721-247.567c0-1.904,0.635-6.348,0.635-8.251c0-10.792-5.077-20.948-11.425-20.948v-3.174h48.877v3.174
		c-4.444,0-13.965,18.408-15.869,29.2l-60.94,410.072H522.927z M753.901,529.812H683.44v-3.174c5.077,0,10.156-12.062,10.156-20.948
		l-10.792-94.583h-47.609L622.5,500.613c0,6.983,3.809,26.026,10.792,26.026v3.174h-48.879v-3.174
		c4.444,0,13.966-18.41,15.869-29.199l60.94-410.073h29.201l49.513,410.073c1.905,11.425,7.618,29.199,13.965,29.199V529.812z"/>
</g>
</svg>
