<?xml version="1.0" encoding="utf-8"?>
<!-- Generator: Adobe Illustrator 17.0.0, SVG Export Plug-In . SVG Version: 6.00 Build 0)  -->
<!DOCTYPE svg PUBLIC "-//W3C//DTD SVG 1.1//EN" "http://www.w3.org/Graphics/SVG/1.1/DTD/svg11.dtd">
<svg version="1.1" xmlns="http://www.w3.org/2000/svg" xmlns:xlink="http://www.w3.org/1999/xlink" x="0px" y="0px"
	 width="113.823px" height="101.881px" viewBox="0 0 113.823 101.881" style="enable-background:new 0 0 113.823 101.881;"
	 xml:space="preserve">
<style type="text/css">
	.st0{opacity:0.8;}
	.st1{fill:#715C54;}
	.st2{fill:#FFFFFF;}
</style>
<g id="GUIAS">
</g>
<g id="_x34_">
	<g id="verbo">
		<g class="st0">
			<path class="st1" d="M41.325,97.128c0.104-0.355,0.145-0.738,0.32-1.046c0.763-1.345,0.986-2.777,0.982-4.313
				c-0.028-11.703-0.016-23.406-0.016-35.109c0-0.166,0.033-0.34-0.004-0.498c-0.635-2.697,0.75-4.697,2.287-6.643
				c0.5-0.633,1.017-1.251,1.674-2.058c-0.667-0.049-1.086-0.107-1.505-0.107c-6.603-0.006-13.207-0.008-19.81-0.002
				c-1.892,0.002-2.036,0.156-2.036,2.123c-0.003,12.036-0.018,24.072,0.011,36.107c0.006,2.552-0.666,4.828-2.364,6.732
				c-1.215,1.362-2.514,2.654-3.828,3.922c-0.462,0.446-1.082,0.729-1.784,1.187c0-0.455-0.096-0.762,0.015-0.944
				c0.98-1.6,0.985-3.387,0.988-5.155c0.017-11.925,0.032-23.85-0.022-35.774c-0.007-1.539,0.368-2.827,1.323-3.98
				c1.088-1.314,2.189-2.617,3.419-4.087c-0.547-0.054-0.955-0.127-1.364-0.129c-2.497-0.011-4.996,0.061-7.49-0.028
				c-1.688-0.06-3.16,0.321-4.503,1.344c-0.501,0.382-1.118,0.613-1.682,0.913c-0.087-0.075-0.173-0.15-0.26-0.225
				c0.15-0.37,0.237-0.784,0.461-1.102c2.448-3.472,5.569-6.153,9.472-7.872c0.487-0.214,1.069-0.3,1.607-0.3
				c20.475,0.006,40.95,0.03,61.426,0.046c0.832,0.001,1.664-0.025,2.495-0.071c1.231-0.068,2.405-0.327,3.466-1.017
				c0.476-0.309,1.022-0.508,1.537-0.758c0.093,0.106,0.187,0.212,0.28,0.317c-0.327,0.539-0.599,1.123-0.991,1.61
				c-2.135,2.656-4.462,5.111-7.716,6.401c-0.916,0.363-0.869,1.001-0.868,1.731c0.005,5.214-0.001,10.427,0.003,15.641
				c0.006,7.321,0.008,14.642,0.034,21.963c0.009,2.619-0.973,4.917-2.492,6.917c-1.297,1.708-2.904,3.187-4.428,4.713
				c-0.44,0.44-1.068,0.693-1.61,1.031c-0.099-0.076-0.198-0.151-0.298-0.227c0.204-0.474,0.364-0.974,0.62-1.418
				c0.793-1.376,1.203-2.824,1.201-4.431c-0.01-9.983,0.016-19.966,0.028-29.95c0.004-2.995,0.046-5.991-0.022-8.985
				c-0.028-1.233,0.278-2.278,0.998-3.253c0.648-0.878,1.244-1.794,1.991-2.878c-7.884,0-15.541,0-23.324,0c0,0.459,0,0.833,0,1.208
				c0.001,12.313-0.038,24.627,0.043,36.939c0.013,2-0.531,3.712-1.536,5.325c-1.422,2.283-3.309,4.157-5.439,5.787
				c-0.261,0.2-0.569,0.343-0.867,0.486C41.67,97.251,41.547,97.179,41.325,97.128z"/>
			<path class="st1" d="M21.087,38.499c0.494-0.719,0.935-1.481,1.492-2.148c1.747-2.094,3.693-3.955,6.064-5.372
				c1.144-0.683,2.279-1.006,3.603-1.003C45.772,30,59.298,29.982,72.825,29.998c3.054,0.004,6.132,0.224,8.958-2.074
				c-0.063,0.631,0.01,0.99-0.135,1.19c-2.561,3.544-5.34,6.834-9.913,7.822c-0.694,0.15-1.422,0.19-2.135,0.191
				c-14.247,0.011-28.494,0.025-42.741-0.017c-1.552-0.005-2.951,0.172-4.198,1.155c-0.357,0.281-0.826,0.419-1.243,0.623
				C21.307,38.76,21.197,38.629,21.087,38.499z"/>
			<path class="st1" d="M90.225,43.929c-0.182,0.478-0.287,1.007-0.561,1.425c-0.576,0.879-0.723,1.815-0.722,2.842
				c0.016,11.586-0.094,23.174,0.073,34.758c0.05,3.466-1.197,6.265-3.109,8.868c-1.102,1.501-2.564,2.746-3.919,4.048
				c-0.44,0.423-0.933,0.948-1.922,0.784c0.382-0.887,0.649-1.715,1.075-2.452c0.693-1.199,0.902-2.464,0.901-3.825
				c-0.017-12.03,0.004-24.059-0.031-36.089c-0.003-1.22,0.305-2.255,0.901-3.295c1.399-2.442,3.269-4.463,5.396-6.264
				c0.482-0.408,1.059-0.703,1.593-1.051C90.008,43.761,90.117,43.845,90.225,43.929z"/>
			<path class="st1" d="M54.273,97.749c0.121-0.301,0.186-0.643,0.371-0.897c1.136-1.556,1.363-3.29,1.355-5.184
				c-0.054-11.531-0.01-23.063-0.047-34.594c-0.004-1.242,0.248-2.325,1.096-3.197c1.617-1.665,3.269-3.297,4.948-4.899
				c0.408-0.389,0.977-0.61,1.499-0.925c0.111,0.298,0.209,0.436,0.175,0.486c-0.787,1.163-0.803,2.464-0.801,3.807
				c0.021,11.698-0.009,23.396,0.04,35.093c0.006,1.422-0.306,2.601-1.255,3.64c-1.717,1.878-3.386,3.8-5.142,5.64
				c-0.538,0.564-1.295,0.918-1.952,1.369C54.464,97.975,54.368,97.862,54.273,97.749z"/>
			<path class="st1" d="M40.021,21.826c1.229-2.652,4.307-5.841,6.517-6.965c2.556,1.316,5.008,2.713,7.576,3.849
				c1.495,0.661,3.157,1.004,4.778,1.299c1.414,0.257,2.729-0.163,3.843-1.167c0.642-0.578,1.388-1.04,2.088-1.554
				c0.107,0.079,0.214,0.158,0.321,0.236c-0.128,0.371-0.181,0.794-0.396,1.105c-2.302,3.336-5.163,6.08-8.765,7.983
				c-1.603,0.847-3.338,0.697-5.044,0.36c-2.754-0.545-5.222-1.808-7.645-3.158C42.197,23.203,41.144,22.511,40.021,21.826z"/>
			<path class="st1" d="M32.496,62.388c2.65,2.183,5.08,4.185,7.547,6.218c-0.141,2.071-4.576,6.824-7.26,7.703
				c-0.078-1.121-0.089-1.108-1.073-1.934c-1.696-1.424-3.381-2.86-5.059-4.304c-0.51-0.439-0.745-0.961-0.297-1.601
				C28.051,66.048,30.011,63.902,32.496,62.388z"/>
			<path class="st1" d="M55.286,16.155c-0.535-1.538-1.882-2.059-3.001-2.79c-2.668-1.744-2.772-2.067-0.659-4.469
				c1.454-1.652,2.929-3.307,4.908-4.365c1.566,1.089,3.11,2.133,4.62,3.222c0.988,0.713,1.109,1.075,0.469,2.066
				C59.989,12.344,57.928,14.463,55.286,16.155z"/>
		</g>
		<g>
			<path class="st2" d="M40.056,95.86c0.104-0.355,0.145-0.738,0.32-1.046c0.763-1.345,0.986-2.777,0.982-4.313
				c-0.028-11.703-0.016-23.406-0.016-35.109c0-0.166,0.033-0.34-0.004-0.498c-0.635-2.697,0.75-4.697,2.287-6.643
				c0.5-0.633,1.017-1.251,1.674-2.058c-0.667-0.049-1.086-0.107-1.505-0.107c-6.603-0.006-13.207-0.008-19.81-0.002
				c-1.892,0.002-2.036,0.156-2.036,2.123c-0.003,12.036-0.018,24.072,0.011,36.107c0.006,2.552-0.666,4.828-2.364,6.732
				c-1.215,1.362-2.514,2.654-3.828,3.922c-0.462,0.446-1.082,0.729-1.784,1.187c0-0.455-0.096-0.762,0.015-0.944
				c0.98-1.6,0.985-3.387,0.988-5.155c0.017-11.925,0.032-23.85-0.022-35.774c-0.007-1.539,0.368-2.827,1.323-3.98
				c1.088-1.314,2.189-2.617,3.419-4.087c-0.547-0.054-0.955-0.127-1.364-0.129c-2.497-0.011-4.996,0.061-7.49-0.028
				c-1.688-0.06-3.16,0.321-4.503,1.344c-0.501,0.382-1.118,0.613-1.682,0.913c-0.087-0.075-0.173-0.15-0.26-0.225
				c0.15-0.37,0.237-0.784,0.461-1.102c2.448-3.472,5.569-6.153,9.472-7.872c0.487-0.214,1.069-0.3,1.607-0.3
				c20.475,0.006,40.95,0.03,61.426,0.046c0.832,0.001,1.664-0.025,2.495-0.071c1.231-0.068,2.405-0.327,3.466-1.017
				c0.476-0.309,1.022-0.508,1.537-0.758c0.093,0.106,0.187,0.212,0.28,0.317c-0.327,0.539-0.599,1.123-0.991,1.61
				c-2.135,2.656-4.462,5.111-7.716,6.401c-0.916,0.363-0.869,1.001-0.868,1.731c0.005,5.214-0.001,10.427,0.003,15.641
				c0.006,7.321,0.008,14.642,0.034,21.963c0.009,2.619-0.973,4.917-2.492,6.917c-1.297,1.708-2.904,3.187-4.428,4.713
				c-0.44,0.44-1.068,0.693-1.61,1.031c-0.099-0.076-0.198-0.151-0.298-0.227c0.204-0.474,0.364-0.974,0.62-1.418
				c0.793-1.376,1.203-2.824,1.201-4.431c-0.01-9.983,0.016-19.966,0.028-29.95c0.004-2.995,0.046-5.991-0.022-8.985
				c-0.028-1.233,0.278-2.278,0.998-3.253c0.648-0.878,1.244-1.794,1.991-2.878c-7.884,0-15.541,0-23.324,0c0,0.459,0,0.833,0,1.208
				c0.001,12.313-0.038,24.627,0.043,36.939c0.013,2-0.531,3.712-1.536,5.325c-1.422,2.283-3.309,4.157-5.439,5.787
				c-0.261,0.2-0.569,0.343-0.867,0.486C40.402,95.983,40.278,95.911,40.056,95.86z"/>
			<path class="st2" d="M19.819,37.231c0.494-0.719,0.935-1.481,1.492-2.148c1.747-2.094,3.693-3.955,6.064-5.372
				c1.144-0.683,2.279-1.006,3.603-1.003c13.526,0.024,27.053,0.006,40.579,0.022c3.054,0.004,6.132,0.224,8.958-2.074
				c-0.063,0.631,0.01,0.99-0.135,1.19c-2.561,3.544-5.34,6.834-9.913,7.822c-0.694,0.15-1.422,0.19-2.135,0.191
				c-14.247,0.011-28.494,0.025-42.741-0.017c-1.552-0.005-2.951,0.172-4.198,1.155c-0.357,0.281-0.826,0.419-1.243,0.623
				C20.039,37.492,19.929,37.361,19.819,37.231z"/>
			<path class="st2" d="M88.957,42.661c-0.182,0.478-0.287,1.007-0.561,1.425c-0.576,0.879-0.723,1.815-0.722,2.842
				c0.016,11.586-0.094,23.174,0.073,34.758c0.05,3.466-1.197,6.265-3.109,8.868c-1.102,1.501-2.564,2.746-3.919,4.048
				c-0.44,0.423-0.933,0.948-1.923,0.784c0.382-0.887,0.649-1.715,1.075-2.452c0.693-1.199,0.902-2.464,0.901-3.825
				c-0.017-12.03,0.004-24.059-0.031-36.089c-0.004-1.22,0.304-2.255,0.901-3.295c1.399-2.442,3.269-4.463,5.396-6.264
				c0.482-0.408,1.059-0.703,1.593-1.051C88.74,42.493,88.848,42.577,88.957,42.661z"/>
			<path class="st2" d="M53.004,96.481c0.121-0.301,0.186-0.643,0.371-0.897c1.136-1.556,1.363-3.29,1.355-5.184
				c-0.054-11.531-0.01-23.063-0.047-34.594c-0.004-1.242,0.248-2.325,1.096-3.197c1.617-1.665,3.269-3.297,4.948-4.899
				c0.408-0.389,0.977-0.61,1.499-0.925c0.111,0.298,0.209,0.436,0.175,0.486c-0.787,1.163-0.803,2.464-0.801,3.807
				c0.021,11.698-0.009,23.396,0.04,35.093c0.006,1.422-0.306,2.601-1.255,3.64c-1.717,1.878-3.386,3.8-5.142,5.64
				c-0.538,0.564-1.295,0.918-1.952,1.369C53.195,96.707,53.1,96.594,53.004,96.481z"/>
			<path class="st2" d="M38.753,20.558c1.229-2.652,4.307-5.841,6.517-6.965c2.556,1.316,5.008,2.713,7.576,3.849
				c1.495,0.661,3.157,1.004,4.778,1.299c1.414,0.257,2.729-0.163,3.843-1.167c0.642-0.578,1.388-1.04,2.088-1.554
				c0.107,0.079,0.214,0.158,0.321,0.236c-0.128,0.371-0.181,0.794-0.396,1.105c-2.302,3.336-5.163,6.08-8.765,7.983
				c-1.603,0.847-3.338,0.697-5.044,0.36c-2.754-0.545-5.222-1.808-7.645-3.158C40.928,21.935,39.875,21.243,38.753,20.558z"/>
			<path class="st2" d="M31.228,61.12c2.65,2.183,5.08,4.185,7.547,6.218c-0.141,2.071-4.576,6.824-7.26,7.703
				c-0.078-1.121-0.089-1.108-1.073-1.934c-1.696-1.424-3.381-2.86-5.059-4.304c-0.51-0.439-0.745-0.961-0.297-1.601
				C26.782,64.78,28.743,62.634,31.228,61.12z"/>
			<path class="st2" d="M54.017,14.886c-0.535-1.538-1.882-2.059-3.001-2.79c-2.668-1.744-2.772-2.067-0.659-4.469
				c1.454-1.652,2.929-3.307,4.908-4.365c1.566,1.089,3.11,2.133,4.62,3.222c0.988,0.713,1.109,1.075,0.469,2.066
				C58.72,11.076,56.66,13.194,54.017,14.886z"/>
		</g>
	</g>
</g>
</svg>
